G04 #@! TF.GenerationSoftware,KiCad,Pcbnew,5.1.4+dfsg1-1*
G04 #@! TF.CreationDate,2020-04-28T14:33:28+04:00*
G04 #@! TF.ProjectId,RailLink_Adapter,5261696c-4c69-46e6-9b5f-416461707465,rev?*
G04 #@! TF.SameCoordinates,Original*
G04 #@! TF.FileFunction,Copper,L2,Bot*
G04 #@! TF.FilePolarity,Positive*
%FSLAX46Y46*%
G04 Gerber Fmt 4.6, Leading zero omitted, Abs format (unit mm)*
G04 Created by KiCad (PCBNEW 5.1.4+dfsg1-1) date 2020-04-28 14:33:28*
%MOMM*%
%LPD*%
G04 APERTURE LIST*
%ADD10C,0.050000*%
%ADD11O,1.700000X1.700000*%
%ADD12R,1.700000X1.700000*%
%ADD13O,1.950000X1.700000*%
%ADD14C,0.100000*%
%ADD15C,1.700000*%
%ADD16O,1.727200X1.727200*%
%ADD17R,1.727200X1.727200*%
%ADD18C,0.600000*%
%ADD19C,1.000000*%
%ADD20C,0.300000*%
%ADD21C,0.400000*%
%ADD22C,0.200000*%
G04 APERTURE END LIST*
D10*
X110000000Y-58000000D02*
G75*
G02X113000000Y-55000000I3000000J0D01*
G01*
X113000000Y-90000000D02*
G75*
G02X110000000Y-87000000I0J3000000D01*
G01*
X152000000Y-87000000D02*
G75*
G02X149000000Y-90000000I-3000000J0D01*
G01*
X149000000Y-55000000D02*
G75*
G02X152000000Y-58000000I0J-3000000D01*
G01*
X110000000Y-87000000D02*
X110000000Y-58000000D01*
X149000000Y-90000000D02*
X113000000Y-90000000D01*
X152000000Y-58000000D02*
X152000000Y-87000000D01*
X113000000Y-55000000D02*
X149000000Y-55000000D01*
D11*
X135240000Y-77480000D03*
X132700000Y-77480000D03*
X135240000Y-74940000D03*
X132700000Y-74940000D03*
X135240000Y-72400000D03*
D12*
X132700000Y-72400000D03*
D13*
X142100000Y-72300000D03*
X142100000Y-74800000D03*
X142100000Y-77300000D03*
X142100000Y-79800000D03*
X142100000Y-82300000D03*
D14*
G36*
X142849504Y-83951204D02*
G01*
X142873773Y-83954804D01*
X142897571Y-83960765D01*
X142920671Y-83969030D01*
X142942849Y-83979520D01*
X142963893Y-83992133D01*
X142983598Y-84006747D01*
X143001777Y-84023223D01*
X143018253Y-84041402D01*
X143032867Y-84061107D01*
X143045480Y-84082151D01*
X143055970Y-84104329D01*
X143064235Y-84127429D01*
X143070196Y-84151227D01*
X143073796Y-84175496D01*
X143075000Y-84200000D01*
X143075000Y-85400000D01*
X143073796Y-85424504D01*
X143070196Y-85448773D01*
X143064235Y-85472571D01*
X143055970Y-85495671D01*
X143045480Y-85517849D01*
X143032867Y-85538893D01*
X143018253Y-85558598D01*
X143001777Y-85576777D01*
X142983598Y-85593253D01*
X142963893Y-85607867D01*
X142942849Y-85620480D01*
X142920671Y-85630970D01*
X142897571Y-85639235D01*
X142873773Y-85645196D01*
X142849504Y-85648796D01*
X142825000Y-85650000D01*
X141375000Y-85650000D01*
X141350496Y-85648796D01*
X141326227Y-85645196D01*
X141302429Y-85639235D01*
X141279329Y-85630970D01*
X141257151Y-85620480D01*
X141236107Y-85607867D01*
X141216402Y-85593253D01*
X141198223Y-85576777D01*
X141181747Y-85558598D01*
X141167133Y-85538893D01*
X141154520Y-85517849D01*
X141144030Y-85495671D01*
X141135765Y-85472571D01*
X141129804Y-85448773D01*
X141126204Y-85424504D01*
X141125000Y-85400000D01*
X141125000Y-84200000D01*
X141126204Y-84175496D01*
X141129804Y-84151227D01*
X141135765Y-84127429D01*
X141144030Y-84104329D01*
X141154520Y-84082151D01*
X141167133Y-84061107D01*
X141181747Y-84041402D01*
X141198223Y-84023223D01*
X141216402Y-84006747D01*
X141236107Y-83992133D01*
X141257151Y-83979520D01*
X141279329Y-83969030D01*
X141302429Y-83960765D01*
X141326227Y-83954804D01*
X141350496Y-83951204D01*
X141375000Y-83950000D01*
X142825000Y-83950000D01*
X142849504Y-83951204D01*
X142849504Y-83951204D01*
G37*
D15*
X142100000Y-84800000D03*
D11*
X146700000Y-65020000D03*
X146700000Y-62480000D03*
X146700000Y-59940000D03*
D12*
X146700000Y-57400000D03*
D16*
X125740000Y-83860000D03*
X123200000Y-83860000D03*
X125740000Y-81320000D03*
X123200000Y-81320000D03*
X125740000Y-78780000D03*
X123200000Y-78780000D03*
X125740000Y-76240000D03*
X123200000Y-76240000D03*
X125740000Y-73700000D03*
X123200000Y-73700000D03*
X125740000Y-71160000D03*
X123200000Y-71160000D03*
X125740000Y-68620000D03*
X123200000Y-68620000D03*
X125740000Y-66080000D03*
X123200000Y-66080000D03*
X125740000Y-63540000D03*
X123200000Y-63540000D03*
X125740000Y-61000000D03*
D17*
X123200000Y-61000000D03*
D16*
X115160000Y-67320000D03*
X117700000Y-67320000D03*
X115160000Y-69860000D03*
X117700000Y-69860000D03*
X115160000Y-72400000D03*
X117700000Y-72400000D03*
X115160000Y-74940000D03*
X117700000Y-74940000D03*
X115160000Y-77480000D03*
D17*
X117700000Y-77480000D03*
D18*
X137700000Y-88000000D03*
X138800000Y-61800000D03*
X139900000Y-76200000D03*
D19*
X119400000Y-79300000D03*
X113000000Y-88000000D03*
X113000000Y-81000000D03*
X126000000Y-88000000D03*
X130000000Y-88000000D03*
X142000000Y-66300000D03*
X142000000Y-61600000D03*
X142000000Y-59000000D03*
X129900000Y-68200000D03*
X129800000Y-65600000D03*
X129800000Y-63100000D03*
X125800000Y-57900000D03*
X114000000Y-65000000D03*
X115000000Y-62000000D03*
X120000000Y-62000000D03*
X129400000Y-76200000D03*
X129400000Y-73600000D03*
X129400000Y-71100000D03*
X129800000Y-84200000D03*
X145700000Y-83600000D03*
X147400000Y-70800000D03*
X119700000Y-72400000D03*
X147600000Y-81800000D03*
X134900000Y-80900000D03*
D18*
X137700000Y-86800000D03*
X138500000Y-60600000D03*
X130300000Y-60600000D03*
X137800000Y-59300000D03*
X137700000Y-85500000D03*
X138300000Y-77500000D03*
X138300000Y-73800000D03*
X137700000Y-84300000D03*
X137600000Y-75000000D03*
X138800000Y-59300000D03*
X137700000Y-82900000D03*
X136900000Y-72400000D03*
X139800000Y-59300000D03*
X129385000Y-56785000D03*
X134200000Y-82300000D03*
D20*
X115160000Y-67440000D02*
X115160000Y-67320000D01*
D21*
X137700000Y-88000000D02*
X140200010Y-85499990D01*
X140200010Y-85499990D02*
X140200010Y-81300010D01*
X140200010Y-81300010D02*
X139900000Y-81000000D01*
X139900000Y-81000000D02*
X139900000Y-76200000D01*
X138800000Y-62800000D02*
X138800000Y-61800000D01*
X139900000Y-63900000D02*
X138800000Y-62800000D01*
X115160000Y-67320000D02*
X114180000Y-67320000D01*
X114180000Y-67320000D02*
X113300000Y-68200000D01*
X113300000Y-68200000D02*
X113300000Y-78600000D01*
X113300000Y-78600000D02*
X114000000Y-79300000D01*
X122680000Y-79300000D02*
X123200000Y-78780000D01*
X139900000Y-76200000D02*
X139900000Y-63900000D01*
X114000000Y-79300000D02*
X119400000Y-79300000D01*
D20*
X115160000Y-69860000D02*
X115160000Y-69840000D01*
X115160000Y-69860000D02*
X116486399Y-68533601D01*
X120746399Y-68533601D02*
X123200000Y-66080000D01*
X116486399Y-68533601D02*
X120746399Y-68533601D01*
D21*
X139600000Y-81600000D02*
X139600000Y-84900000D01*
X137900000Y-61200000D02*
X137900000Y-62900000D01*
X138500000Y-60600000D02*
X137900000Y-61200000D01*
X137900000Y-62900000D02*
X139000000Y-64000000D01*
X139600000Y-84900000D02*
X137700000Y-86800000D01*
X139000000Y-64000000D02*
X139000000Y-81000000D01*
X139000000Y-81000000D02*
X139600000Y-81600000D01*
D20*
X117700000Y-69860000D02*
X117640000Y-69860000D01*
D21*
X132800000Y-60600000D02*
X136300000Y-57100000D01*
X136300000Y-57100000D02*
X143600000Y-57100000D01*
X145380000Y-62480000D02*
X146700000Y-62480000D01*
X130300000Y-60600000D02*
X132800000Y-60600000D01*
X143600000Y-57100000D02*
X144900000Y-58400000D01*
X144900000Y-62000000D02*
X145380000Y-62480000D01*
X144900000Y-58400000D02*
X144900000Y-62000000D01*
D20*
X124500000Y-80020000D02*
X123200000Y-81320000D01*
X119060000Y-69860000D02*
X121600000Y-72400000D01*
X117700000Y-69860000D02*
X119060000Y-69860000D01*
X121600000Y-72400000D02*
X124100000Y-72400000D01*
X124100000Y-72400000D02*
X124500000Y-72800000D01*
X124500000Y-72800000D02*
X124500000Y-80020000D01*
D21*
X137700000Y-85500000D02*
X139000000Y-84200000D01*
X139000000Y-84200000D02*
X139000000Y-81900000D01*
X139000000Y-81900000D02*
X138300000Y-81200000D01*
X138300000Y-81200000D02*
X138300000Y-77500000D01*
X138300000Y-64200000D02*
X137200000Y-63100000D01*
X137200000Y-59900000D02*
X137800000Y-59300000D01*
X137200000Y-63100000D02*
X137200000Y-59900000D01*
X138300000Y-64200000D02*
X138300000Y-73800000D01*
X138300000Y-73800000D02*
X138300000Y-77500000D01*
D20*
X123040000Y-71160000D02*
X123200000Y-71160000D01*
D21*
X137700000Y-84300000D02*
X138400000Y-83600000D01*
X138400000Y-83600000D02*
X138400000Y-82200000D01*
X138400000Y-82200000D02*
X137600000Y-81400000D01*
X137600000Y-81400000D02*
X137600000Y-75000000D01*
X138800000Y-58800000D02*
X138800000Y-59300000D01*
X138500000Y-58500000D02*
X138800000Y-58800000D01*
X137600000Y-64500000D02*
X136600000Y-63500000D01*
X137600000Y-75000000D02*
X137600000Y-64500000D01*
X136600000Y-63500000D02*
X136600000Y-59400000D01*
X136600000Y-59400000D02*
X137500000Y-58500000D01*
X137500000Y-58500000D02*
X138500000Y-58500000D01*
D20*
X123200000Y-71160000D02*
X124460000Y-69900000D01*
X124460000Y-69900000D02*
X133400000Y-69900000D01*
X133400000Y-69900000D02*
X134000000Y-70500000D01*
X134000000Y-73700000D02*
X135240000Y-74940000D01*
X134000000Y-70500000D02*
X134000000Y-73700000D01*
D21*
X136900000Y-82100000D02*
X136900000Y-72400000D01*
X137700000Y-82900000D02*
X136900000Y-82100000D01*
X139800000Y-58300000D02*
X139800000Y-59300000D01*
X136900000Y-64800000D02*
X135900000Y-63800000D01*
X139300000Y-57800000D02*
X139800000Y-58300000D01*
X136900000Y-72400000D02*
X136900000Y-64800000D01*
X135900000Y-63800000D02*
X135900000Y-59100000D01*
X135900000Y-59100000D02*
X137200000Y-57800000D01*
X137200000Y-57800000D02*
X139300000Y-57800000D01*
X145100000Y-57400000D02*
X146700000Y-57400000D01*
X143800000Y-56100000D02*
X145100000Y-57400000D01*
X132735000Y-56100000D02*
X143800000Y-56100000D01*
X129385000Y-56785000D02*
X132050000Y-56785000D01*
X132050000Y-56785000D02*
X132735000Y-56100000D01*
X146700000Y-57400000D02*
X148200000Y-57400000D01*
X148200000Y-57400000D02*
X148700000Y-57900000D01*
X148700000Y-57900000D02*
X148700000Y-82200000D01*
X146100000Y-84800000D02*
X142100000Y-84800000D01*
X148700000Y-82200000D02*
X146100000Y-84800000D01*
X131400000Y-72400000D02*
X132700000Y-72400000D01*
X130800000Y-73000000D02*
X131400000Y-72400000D01*
X130800000Y-80000000D02*
X130800000Y-73000000D01*
X134200000Y-82300000D02*
X134200000Y-87800000D01*
X140800000Y-89000000D02*
X142100000Y-87700000D01*
X134200000Y-87800000D02*
X135400000Y-89000000D01*
X135400000Y-89000000D02*
X140800000Y-89000000D01*
X134200000Y-82300000D02*
X133100000Y-82300000D01*
X142100000Y-87700000D02*
X142100000Y-84800000D01*
X133100000Y-82300000D02*
X130800000Y-80000000D01*
D22*
G36*
X128764668Y-57116574D02*
G01*
X128841274Y-57231224D01*
X128938776Y-57328726D01*
X129053426Y-57405332D01*
X129180818Y-57458099D01*
X129316056Y-57485000D01*
X129453944Y-57485000D01*
X129589182Y-57458099D01*
X129716574Y-57405332D01*
X129747003Y-57385000D01*
X132020526Y-57385000D01*
X132050000Y-57387903D01*
X132079474Y-57385000D01*
X132167621Y-57376318D01*
X132280721Y-57342010D01*
X132384955Y-57286296D01*
X132476317Y-57211317D01*
X132495113Y-57188414D01*
X132583527Y-57100000D01*
X135451471Y-57100000D01*
X132551473Y-60000000D01*
X130662003Y-60000000D01*
X130631574Y-59979668D01*
X130504182Y-59926901D01*
X130368944Y-59900000D01*
X130231056Y-59900000D01*
X130095818Y-59926901D01*
X129968426Y-59979668D01*
X129853776Y-60056274D01*
X129756274Y-60153776D01*
X129679668Y-60268426D01*
X129626901Y-60395818D01*
X129600000Y-60531056D01*
X129600000Y-60668944D01*
X129626901Y-60804182D01*
X129679668Y-60931574D01*
X129756274Y-61046224D01*
X129853776Y-61143726D01*
X129968426Y-61220332D01*
X130095818Y-61273099D01*
X130231056Y-61300000D01*
X130368944Y-61300000D01*
X130504182Y-61273099D01*
X130631574Y-61220332D01*
X130662003Y-61200000D01*
X132770526Y-61200000D01*
X132800000Y-61202903D01*
X132829474Y-61200000D01*
X132917621Y-61191318D01*
X133030721Y-61157010D01*
X133134955Y-61101296D01*
X133226317Y-61026317D01*
X133245113Y-61003414D01*
X135327203Y-58921325D01*
X135308682Y-58982380D01*
X135297097Y-59100000D01*
X135300001Y-59129484D01*
X135300000Y-63770526D01*
X135297097Y-63800000D01*
X135300000Y-63829473D01*
X135308682Y-63917620D01*
X135342990Y-64030720D01*
X135398704Y-64134954D01*
X135473683Y-64226317D01*
X135496586Y-64245113D01*
X136300001Y-65048529D01*
X136300000Y-71731426D01*
X136284366Y-71702177D01*
X136128160Y-71511840D01*
X135937823Y-71355634D01*
X135720669Y-71239563D01*
X135485043Y-71168087D01*
X135301405Y-71150000D01*
X135178595Y-71150000D01*
X134994957Y-71168087D01*
X134759331Y-71239563D01*
X134550000Y-71351453D01*
X134550000Y-70527007D01*
X134552660Y-70499999D01*
X134550000Y-70472991D01*
X134550000Y-70472982D01*
X134542042Y-70392181D01*
X134510592Y-70288506D01*
X134486818Y-70244028D01*
X134459521Y-70192957D01*
X134408013Y-70130195D01*
X134408008Y-70130190D01*
X134390790Y-70109210D01*
X134369809Y-70091992D01*
X133808013Y-69530195D01*
X133790790Y-69509210D01*
X133707042Y-69440479D01*
X133611494Y-69389408D01*
X133507819Y-69357958D01*
X133427018Y-69350000D01*
X133427008Y-69350000D01*
X133400000Y-69347340D01*
X133372992Y-69350000D01*
X126890148Y-69350000D01*
X126898988Y-69338446D01*
X127016880Y-69098534D01*
X127067542Y-68931508D01*
X126974557Y-68720000D01*
X125840000Y-68720000D01*
X125840000Y-68740000D01*
X125640000Y-68740000D01*
X125640000Y-68720000D01*
X125620000Y-68720000D01*
X125620000Y-68520000D01*
X125640000Y-68520000D01*
X125640000Y-67385068D01*
X125559913Y-67350000D01*
X125640000Y-67314932D01*
X125640000Y-66180000D01*
X125840000Y-66180000D01*
X125840000Y-67314932D01*
X125920087Y-67350000D01*
X125840000Y-67385068D01*
X125840000Y-68520000D01*
X126974557Y-68520000D01*
X127067542Y-68308492D01*
X127016880Y-68141466D01*
X126898988Y-67901554D01*
X126736556Y-67689251D01*
X126535827Y-67512717D01*
X126304515Y-67378735D01*
X126220254Y-67350000D01*
X126304515Y-67321265D01*
X126535827Y-67187283D01*
X126736556Y-67010749D01*
X126898988Y-66798446D01*
X127016880Y-66558534D01*
X127067542Y-66391508D01*
X126974557Y-66180000D01*
X125840000Y-66180000D01*
X125640000Y-66180000D01*
X125620000Y-66180000D01*
X125620000Y-65980000D01*
X125640000Y-65980000D01*
X125640000Y-64845068D01*
X125559913Y-64810000D01*
X125640000Y-64774932D01*
X125640000Y-63640000D01*
X125840000Y-63640000D01*
X125840000Y-64774932D01*
X125920087Y-64810000D01*
X125840000Y-64845068D01*
X125840000Y-65980000D01*
X126974557Y-65980000D01*
X127067542Y-65768492D01*
X127016880Y-65601466D01*
X126898988Y-65361554D01*
X126736556Y-65149251D01*
X126535827Y-64972717D01*
X126304515Y-64838735D01*
X126220254Y-64810000D01*
X126304515Y-64781265D01*
X126535827Y-64647283D01*
X126736556Y-64470749D01*
X126898988Y-64258446D01*
X127016880Y-64018534D01*
X127067542Y-63851508D01*
X126974557Y-63640000D01*
X125840000Y-63640000D01*
X125640000Y-63640000D01*
X125620000Y-63640000D01*
X125620000Y-63440000D01*
X125640000Y-63440000D01*
X125640000Y-63420000D01*
X125840000Y-63420000D01*
X125840000Y-63440000D01*
X126974557Y-63440000D01*
X127067542Y-63228492D01*
X127016880Y-63061466D01*
X126898988Y-62821554D01*
X126736556Y-62609251D01*
X126535827Y-62432717D01*
X126304515Y-62298735D01*
X126072474Y-62219604D01*
X126225899Y-62173063D01*
X126445415Y-62055729D01*
X126637823Y-61897823D01*
X126795729Y-61705415D01*
X126913063Y-61485899D01*
X126985317Y-61247709D01*
X127009714Y-61000000D01*
X126985317Y-60752291D01*
X126913063Y-60514101D01*
X126795729Y-60294585D01*
X126637823Y-60102177D01*
X126445415Y-59944271D01*
X126225899Y-59826937D01*
X125987709Y-59754683D01*
X125802077Y-59736400D01*
X125677923Y-59736400D01*
X125492291Y-59754683D01*
X125254101Y-59826937D01*
X125034585Y-59944271D01*
X124842177Y-60102177D01*
X124684271Y-60294585D01*
X124566937Y-60514101D01*
X124494683Y-60752291D01*
X124470286Y-61000000D01*
X124494683Y-61247709D01*
X124566937Y-61485899D01*
X124684271Y-61705415D01*
X124842177Y-61897823D01*
X125034585Y-62055729D01*
X125254101Y-62173063D01*
X125407526Y-62219604D01*
X125175485Y-62298735D01*
X124944173Y-62432717D01*
X124743444Y-62609251D01*
X124581012Y-62821554D01*
X124463120Y-63061466D01*
X124419211Y-63206230D01*
X124373063Y-63054101D01*
X124255729Y-62834585D01*
X124097823Y-62642177D01*
X123905415Y-62484271D01*
X123685899Y-62366937D01*
X123447709Y-62294683D01*
X123262077Y-62276400D01*
X123137923Y-62276400D01*
X122952291Y-62294683D01*
X122714101Y-62366937D01*
X122494585Y-62484271D01*
X122302177Y-62642177D01*
X122144271Y-62834585D01*
X122026937Y-63054101D01*
X121954683Y-63292291D01*
X121930286Y-63540000D01*
X121954683Y-63787709D01*
X122026937Y-64025899D01*
X122144271Y-64245415D01*
X122302177Y-64437823D01*
X122494585Y-64595729D01*
X122714101Y-64713063D01*
X122952291Y-64785317D01*
X123137923Y-64803600D01*
X123262077Y-64803600D01*
X123447709Y-64785317D01*
X123685899Y-64713063D01*
X123905415Y-64595729D01*
X124097823Y-64437823D01*
X124255729Y-64245415D01*
X124373063Y-64025899D01*
X124419211Y-63873770D01*
X124463120Y-64018534D01*
X124581012Y-64258446D01*
X124743444Y-64470749D01*
X124944173Y-64647283D01*
X125175485Y-64781265D01*
X125259746Y-64810000D01*
X125175485Y-64838735D01*
X124944173Y-64972717D01*
X124743444Y-65149251D01*
X124581012Y-65361554D01*
X124463120Y-65601466D01*
X124419211Y-65746230D01*
X124373063Y-65594101D01*
X124255729Y-65374585D01*
X124097823Y-65182177D01*
X123905415Y-65024271D01*
X123685899Y-64906937D01*
X123447709Y-64834683D01*
X123262077Y-64816400D01*
X123137923Y-64816400D01*
X122952291Y-64834683D01*
X122714101Y-64906937D01*
X122494585Y-65024271D01*
X122302177Y-65182177D01*
X122144271Y-65374585D01*
X122026937Y-65594101D01*
X121954683Y-65832291D01*
X121930286Y-66080000D01*
X121954683Y-66327709D01*
X122005838Y-66496345D01*
X120518582Y-67983601D01*
X118885939Y-67983601D01*
X118976880Y-67798534D01*
X119027542Y-67631508D01*
X118934557Y-67420000D01*
X117800000Y-67420000D01*
X117800000Y-67440000D01*
X117600000Y-67440000D01*
X117600000Y-67420000D01*
X117580000Y-67420000D01*
X117580000Y-67220000D01*
X117600000Y-67220000D01*
X117600000Y-66085068D01*
X117800000Y-66085068D01*
X117800000Y-67220000D01*
X118934557Y-67220000D01*
X119027542Y-67008492D01*
X118976880Y-66841466D01*
X118858988Y-66601554D01*
X118696556Y-66389251D01*
X118495827Y-66212717D01*
X118264515Y-66078735D01*
X118011509Y-65992454D01*
X117800000Y-66085068D01*
X117600000Y-66085068D01*
X117388491Y-65992454D01*
X117135485Y-66078735D01*
X116904173Y-66212717D01*
X116703444Y-66389251D01*
X116541012Y-66601554D01*
X116423120Y-66841466D01*
X116379211Y-66986230D01*
X116333063Y-66834101D01*
X116215729Y-66614585D01*
X116057823Y-66422177D01*
X115865415Y-66264271D01*
X115645899Y-66146937D01*
X115407709Y-66074683D01*
X115222077Y-66056400D01*
X115097923Y-66056400D01*
X114912291Y-66074683D01*
X114674101Y-66146937D01*
X114454585Y-66264271D01*
X114262177Y-66422177D01*
X114104271Y-66614585D01*
X114039590Y-66735595D01*
X113949279Y-66762990D01*
X113845045Y-66818704D01*
X113753683Y-66893683D01*
X113734891Y-66916581D01*
X112896586Y-67754887D01*
X112873683Y-67773683D01*
X112798704Y-67865046D01*
X112742990Y-67969280D01*
X112725962Y-68025415D01*
X112708682Y-68082380D01*
X112697097Y-68200000D01*
X112700000Y-68229474D01*
X112700001Y-78570516D01*
X112697097Y-78600000D01*
X112708682Y-78717620D01*
X112727605Y-78780000D01*
X112742991Y-78830721D01*
X112798705Y-78934955D01*
X112873684Y-79026317D01*
X112896581Y-79045108D01*
X113554891Y-79703419D01*
X113573683Y-79726317D01*
X113665045Y-79801296D01*
X113769279Y-79857010D01*
X113848070Y-79880911D01*
X113882378Y-79891318D01*
X113893640Y-79892427D01*
X113970526Y-79900000D01*
X113970533Y-79900000D01*
X113999999Y-79902902D01*
X114029465Y-79900000D01*
X118727207Y-79900000D01*
X118826283Y-79999076D01*
X118973690Y-80097570D01*
X119137480Y-80165414D01*
X119311358Y-80200000D01*
X119488642Y-80200000D01*
X119662520Y-80165414D01*
X119826310Y-80097570D01*
X119973717Y-79999076D01*
X120099076Y-79873717D01*
X120197570Y-79726310D01*
X120265414Y-79562520D01*
X120300000Y-79388642D01*
X120300000Y-79211358D01*
X120265414Y-79037480D01*
X120197570Y-78873690D01*
X120099076Y-78726283D01*
X119973717Y-78600924D01*
X119826310Y-78502430D01*
X119662520Y-78434586D01*
X119488642Y-78400000D01*
X119311358Y-78400000D01*
X119137480Y-78434586D01*
X118973690Y-78502430D01*
X118909241Y-78545494D01*
X118934940Y-78497414D01*
X118957812Y-78422014D01*
X118965535Y-78343600D01*
X118965535Y-76616400D01*
X118957812Y-76537986D01*
X118934940Y-76462586D01*
X118897797Y-76393097D01*
X118847811Y-76332189D01*
X118786903Y-76282203D01*
X118717414Y-76245060D01*
X118642014Y-76222188D01*
X118563600Y-76214465D01*
X118167161Y-76214465D01*
X118264515Y-76181265D01*
X118495827Y-76047283D01*
X118696556Y-75870749D01*
X118858988Y-75658446D01*
X118976880Y-75418534D01*
X119027542Y-75251508D01*
X118934557Y-75040000D01*
X117800000Y-75040000D01*
X117800000Y-75060000D01*
X117600000Y-75060000D01*
X117600000Y-75040000D01*
X117580000Y-75040000D01*
X117580000Y-74840000D01*
X117600000Y-74840000D01*
X117600000Y-73705068D01*
X117519913Y-73670000D01*
X117600000Y-73634932D01*
X117600000Y-72500000D01*
X117800000Y-72500000D01*
X117800000Y-73634932D01*
X117880087Y-73670000D01*
X117800000Y-73705068D01*
X117800000Y-74840000D01*
X118934557Y-74840000D01*
X119027542Y-74628492D01*
X118976880Y-74461466D01*
X118858988Y-74221554D01*
X118696556Y-74009251D01*
X118495827Y-73832717D01*
X118264515Y-73698735D01*
X118180254Y-73670000D01*
X118264515Y-73641265D01*
X118495827Y-73507283D01*
X118696556Y-73330749D01*
X118858988Y-73118446D01*
X118976880Y-72878534D01*
X119027542Y-72711508D01*
X118934557Y-72500000D01*
X117800000Y-72500000D01*
X117600000Y-72500000D01*
X117580000Y-72500000D01*
X117580000Y-72300000D01*
X117600000Y-72300000D01*
X117600000Y-72280000D01*
X117800000Y-72280000D01*
X117800000Y-72300000D01*
X118934557Y-72300000D01*
X119027542Y-72088492D01*
X118976880Y-71921466D01*
X118858988Y-71681554D01*
X118696556Y-71469251D01*
X118495827Y-71292717D01*
X118264515Y-71158735D01*
X118032474Y-71079604D01*
X118185899Y-71033063D01*
X118405415Y-70915729D01*
X118597823Y-70757823D01*
X118755729Y-70565415D01*
X118836495Y-70414312D01*
X121191992Y-72769810D01*
X121209210Y-72790790D01*
X121230190Y-72808008D01*
X121230195Y-72808013D01*
X121252499Y-72826317D01*
X121292958Y-72859521D01*
X121388506Y-72910592D01*
X121492181Y-72942042D01*
X121572982Y-72950000D01*
X121572991Y-72950000D01*
X121599999Y-72952660D01*
X121627007Y-72950000D01*
X122180861Y-72950000D01*
X122144271Y-72994585D01*
X122026937Y-73214101D01*
X121954683Y-73452291D01*
X121930286Y-73700000D01*
X121954683Y-73947709D01*
X122026937Y-74185899D01*
X122144271Y-74405415D01*
X122302177Y-74597823D01*
X122494585Y-74755729D01*
X122714101Y-74873063D01*
X122952291Y-74945317D01*
X123137923Y-74963600D01*
X123262077Y-74963600D01*
X123447709Y-74945317D01*
X123685899Y-74873063D01*
X123905415Y-74755729D01*
X123950000Y-74719139D01*
X123950000Y-75220861D01*
X123905415Y-75184271D01*
X123685899Y-75066937D01*
X123447709Y-74994683D01*
X123262077Y-74976400D01*
X123137923Y-74976400D01*
X122952291Y-74994683D01*
X122714101Y-75066937D01*
X122494585Y-75184271D01*
X122302177Y-75342177D01*
X122144271Y-75534585D01*
X122026937Y-75754101D01*
X121954683Y-75992291D01*
X121930286Y-76240000D01*
X121954683Y-76487709D01*
X122026937Y-76725899D01*
X122144271Y-76945415D01*
X122302177Y-77137823D01*
X122494585Y-77295729D01*
X122714101Y-77413063D01*
X122952291Y-77485317D01*
X123137923Y-77503600D01*
X123262077Y-77503600D01*
X123447709Y-77485317D01*
X123685899Y-77413063D01*
X123905415Y-77295729D01*
X123950001Y-77259138D01*
X123950001Y-77760862D01*
X123905415Y-77724271D01*
X123685899Y-77606937D01*
X123447709Y-77534683D01*
X123262077Y-77516400D01*
X123137923Y-77516400D01*
X122952291Y-77534683D01*
X122714101Y-77606937D01*
X122494585Y-77724271D01*
X122302177Y-77882177D01*
X122144271Y-78074585D01*
X122026937Y-78294101D01*
X121954683Y-78532291D01*
X121930286Y-78780000D01*
X121954683Y-79027709D01*
X122026937Y-79265899D01*
X122084310Y-79373237D01*
X122088682Y-79417620D01*
X122122991Y-79530721D01*
X122178705Y-79634954D01*
X122253684Y-79726316D01*
X122345046Y-79801295D01*
X122449279Y-79857009D01*
X122562380Y-79891318D01*
X122606763Y-79895690D01*
X122714101Y-79953063D01*
X122952291Y-80025317D01*
X123137923Y-80043600D01*
X123262077Y-80043600D01*
X123447709Y-80025317D01*
X123685899Y-79953063D01*
X123905415Y-79835729D01*
X123911209Y-79830974D01*
X123616345Y-80125838D01*
X123447709Y-80074683D01*
X123262077Y-80056400D01*
X123137923Y-80056400D01*
X122952291Y-80074683D01*
X122714101Y-80146937D01*
X122494585Y-80264271D01*
X122302177Y-80422177D01*
X122144271Y-80614585D01*
X122026937Y-80834101D01*
X121954683Y-81072291D01*
X121930286Y-81320000D01*
X121954683Y-81567709D01*
X122026937Y-81805899D01*
X122144271Y-82025415D01*
X122302177Y-82217823D01*
X122494585Y-82375729D01*
X122714101Y-82493063D01*
X122952291Y-82565317D01*
X123137923Y-82583600D01*
X123262077Y-82583600D01*
X123447709Y-82565317D01*
X123685899Y-82493063D01*
X123905415Y-82375729D01*
X124097823Y-82217823D01*
X124255729Y-82025415D01*
X124373063Y-81805899D01*
X124419211Y-81653770D01*
X124463120Y-81798534D01*
X124581012Y-82038446D01*
X124743444Y-82250749D01*
X124944173Y-82427283D01*
X125175485Y-82561265D01*
X125259746Y-82590000D01*
X125175485Y-82618735D01*
X124944173Y-82752717D01*
X124743444Y-82929251D01*
X124581012Y-83141554D01*
X124463120Y-83381466D01*
X124419211Y-83526230D01*
X124373063Y-83374101D01*
X124255729Y-83154585D01*
X124097823Y-82962177D01*
X123905415Y-82804271D01*
X123685899Y-82686937D01*
X123447709Y-82614683D01*
X123262077Y-82596400D01*
X123137923Y-82596400D01*
X122952291Y-82614683D01*
X122714101Y-82686937D01*
X122494585Y-82804271D01*
X122302177Y-82962177D01*
X122144271Y-83154585D01*
X122026937Y-83374101D01*
X121954683Y-83612291D01*
X121930286Y-83860000D01*
X121954683Y-84107709D01*
X122026937Y-84345899D01*
X122144271Y-84565415D01*
X122302177Y-84757823D01*
X122494585Y-84915729D01*
X122714101Y-85033063D01*
X122952291Y-85105317D01*
X123137923Y-85123600D01*
X123262077Y-85123600D01*
X123447709Y-85105317D01*
X123685899Y-85033063D01*
X123905415Y-84915729D01*
X124097823Y-84757823D01*
X124255729Y-84565415D01*
X124373063Y-84345899D01*
X124419211Y-84193770D01*
X124463120Y-84338534D01*
X124581012Y-84578446D01*
X124743444Y-84790749D01*
X124944173Y-84967283D01*
X125175485Y-85101265D01*
X125428491Y-85187546D01*
X125640000Y-85094932D01*
X125640000Y-83960000D01*
X125840000Y-83960000D01*
X125840000Y-85094932D01*
X126051509Y-85187546D01*
X126304515Y-85101265D01*
X126535827Y-84967283D01*
X126736556Y-84790749D01*
X126898988Y-84578446D01*
X127016880Y-84338534D01*
X127067542Y-84171508D01*
X126974557Y-83960000D01*
X125840000Y-83960000D01*
X125640000Y-83960000D01*
X125620000Y-83960000D01*
X125620000Y-83760000D01*
X125640000Y-83760000D01*
X125640000Y-82625068D01*
X125559913Y-82590000D01*
X125640000Y-82554932D01*
X125640000Y-81420000D01*
X125840000Y-81420000D01*
X125840000Y-82554932D01*
X125920087Y-82590000D01*
X125840000Y-82625068D01*
X125840000Y-83760000D01*
X126974557Y-83760000D01*
X127067542Y-83548492D01*
X127016880Y-83381466D01*
X126898988Y-83141554D01*
X126736556Y-82929251D01*
X126535827Y-82752717D01*
X126304515Y-82618735D01*
X126220254Y-82590000D01*
X126304515Y-82561265D01*
X126535827Y-82427283D01*
X126736556Y-82250749D01*
X126898988Y-82038446D01*
X127016880Y-81798534D01*
X127067542Y-81631508D01*
X126974557Y-81420000D01*
X125840000Y-81420000D01*
X125640000Y-81420000D01*
X125620000Y-81420000D01*
X125620000Y-81220000D01*
X125640000Y-81220000D01*
X125640000Y-80085068D01*
X125559913Y-80050000D01*
X125640000Y-80014932D01*
X125640000Y-78880000D01*
X125840000Y-78880000D01*
X125840000Y-80014932D01*
X125920087Y-80050000D01*
X125840000Y-80085068D01*
X125840000Y-81220000D01*
X126974557Y-81220000D01*
X127067542Y-81008492D01*
X127016880Y-80841466D01*
X126898988Y-80601554D01*
X126736556Y-80389251D01*
X126535827Y-80212717D01*
X126304515Y-80078735D01*
X126220254Y-80050000D01*
X126304515Y-80021265D01*
X126535827Y-79887283D01*
X126736556Y-79710749D01*
X126898988Y-79498446D01*
X127016880Y-79258534D01*
X127067542Y-79091508D01*
X126974557Y-78880000D01*
X125840000Y-78880000D01*
X125640000Y-78880000D01*
X125620000Y-78880000D01*
X125620000Y-78680000D01*
X125640000Y-78680000D01*
X125640000Y-77545068D01*
X125559913Y-77510000D01*
X125640000Y-77474932D01*
X125640000Y-76340000D01*
X125840000Y-76340000D01*
X125840000Y-77474932D01*
X125920087Y-77510000D01*
X125840000Y-77545068D01*
X125840000Y-78680000D01*
X126974557Y-78680000D01*
X127067542Y-78468492D01*
X127016880Y-78301466D01*
X126898988Y-78061554D01*
X126736556Y-77849251D01*
X126535827Y-77672717D01*
X126304515Y-77538735D01*
X126220254Y-77510000D01*
X126304515Y-77481265D01*
X126535827Y-77347283D01*
X126736556Y-77170749D01*
X126898988Y-76958446D01*
X127016880Y-76718534D01*
X127067542Y-76551508D01*
X126974557Y-76340000D01*
X125840000Y-76340000D01*
X125640000Y-76340000D01*
X125620000Y-76340000D01*
X125620000Y-76140000D01*
X125640000Y-76140000D01*
X125640000Y-75005068D01*
X125559913Y-74970000D01*
X125640000Y-74934932D01*
X125640000Y-73800000D01*
X125840000Y-73800000D01*
X125840000Y-74934932D01*
X125920087Y-74970000D01*
X125840000Y-75005068D01*
X125840000Y-76140000D01*
X126974557Y-76140000D01*
X127067542Y-75928492D01*
X127016880Y-75761466D01*
X126898988Y-75521554D01*
X126736556Y-75309251D01*
X126535827Y-75132717D01*
X126304515Y-74998735D01*
X126220254Y-74970000D01*
X126304515Y-74941265D01*
X126535827Y-74807283D01*
X126736556Y-74630749D01*
X126898988Y-74418446D01*
X127016880Y-74178534D01*
X127067542Y-74011508D01*
X126974557Y-73800000D01*
X125840000Y-73800000D01*
X125640000Y-73800000D01*
X125620000Y-73800000D01*
X125620000Y-73600000D01*
X125640000Y-73600000D01*
X125640000Y-72465068D01*
X125559913Y-72430000D01*
X125640000Y-72394932D01*
X125640000Y-71260000D01*
X125840000Y-71260000D01*
X125840000Y-72394932D01*
X125920087Y-72430000D01*
X125840000Y-72465068D01*
X125840000Y-73600000D01*
X126974557Y-73600000D01*
X127067542Y-73388492D01*
X127016880Y-73221466D01*
X126898988Y-72981554D01*
X126736556Y-72769251D01*
X126535827Y-72592717D01*
X126304515Y-72458735D01*
X126220254Y-72430000D01*
X126304515Y-72401265D01*
X126535827Y-72267283D01*
X126736556Y-72090749D01*
X126898988Y-71878446D01*
X127016880Y-71638534D01*
X127067542Y-71471508D01*
X126974557Y-71260000D01*
X125840000Y-71260000D01*
X125640000Y-71260000D01*
X125620000Y-71260000D01*
X125620000Y-71060000D01*
X125640000Y-71060000D01*
X125640000Y-71040000D01*
X125840000Y-71040000D01*
X125840000Y-71060000D01*
X126974557Y-71060000D01*
X127067542Y-70848492D01*
X127016880Y-70681466D01*
X126903138Y-70450000D01*
X133172183Y-70450000D01*
X133450000Y-70727818D01*
X133450000Y-71148065D01*
X131850000Y-71148065D01*
X131771586Y-71155788D01*
X131696186Y-71178660D01*
X131626697Y-71215803D01*
X131565789Y-71265789D01*
X131515803Y-71326697D01*
X131478660Y-71396186D01*
X131455788Y-71471586D01*
X131448065Y-71550000D01*
X131448065Y-71800000D01*
X131429473Y-71800000D01*
X131399999Y-71797097D01*
X131282379Y-71808682D01*
X131169279Y-71842990D01*
X131065045Y-71898704D01*
X130973683Y-71973683D01*
X130954891Y-71996581D01*
X130396581Y-72554892D01*
X130373684Y-72573683D01*
X130298705Y-72665045D01*
X130243006Y-72769251D01*
X130242991Y-72769279D01*
X130208682Y-72882380D01*
X130197097Y-73000000D01*
X130200001Y-73029484D01*
X130200000Y-79970526D01*
X130197097Y-80000000D01*
X130200000Y-80029473D01*
X130208682Y-80117620D01*
X130242990Y-80230720D01*
X130298704Y-80334954D01*
X130373683Y-80426317D01*
X130396586Y-80445113D01*
X132654891Y-82703419D01*
X132673683Y-82726317D01*
X132765045Y-82801296D01*
X132869279Y-82857010D01*
X132982379Y-82891318D01*
X133099999Y-82902903D01*
X133129473Y-82900000D01*
X133600000Y-82900000D01*
X133600001Y-87770516D01*
X133597097Y-87800000D01*
X133608682Y-87917620D01*
X133627146Y-87978486D01*
X133642991Y-88030721D01*
X133698705Y-88134955D01*
X133773684Y-88226317D01*
X133796581Y-88245109D01*
X134451472Y-88900000D01*
X112100000Y-88900000D01*
X112100000Y-60136400D01*
X121934465Y-60136400D01*
X121934465Y-61863600D01*
X121942188Y-61942014D01*
X121965060Y-62017414D01*
X122002203Y-62086903D01*
X122052189Y-62147811D01*
X122113097Y-62197797D01*
X122182586Y-62234940D01*
X122257986Y-62257812D01*
X122336400Y-62265535D01*
X124063600Y-62265535D01*
X124142014Y-62257812D01*
X124217414Y-62234940D01*
X124286903Y-62197797D01*
X124347811Y-62147811D01*
X124397797Y-62086903D01*
X124434940Y-62017414D01*
X124457812Y-61942014D01*
X124465535Y-61863600D01*
X124465535Y-60136400D01*
X124457812Y-60057986D01*
X124434940Y-59982586D01*
X124397797Y-59913097D01*
X124347811Y-59852189D01*
X124286903Y-59802203D01*
X124217414Y-59765060D01*
X124142014Y-59742188D01*
X124063600Y-59734465D01*
X122336400Y-59734465D01*
X122257986Y-59742188D01*
X122182586Y-59765060D01*
X122113097Y-59802203D01*
X122052189Y-59852189D01*
X122002203Y-59913097D01*
X121965060Y-59982586D01*
X121942188Y-60057986D01*
X121934465Y-60136400D01*
X112100000Y-60136400D01*
X112100000Y-57100000D01*
X128757803Y-57100000D01*
X128764668Y-57116574D01*
X128764668Y-57116574D01*
G37*
X128764668Y-57116574D02*
X128841274Y-57231224D01*
X128938776Y-57328726D01*
X129053426Y-57405332D01*
X129180818Y-57458099D01*
X129316056Y-57485000D01*
X129453944Y-57485000D01*
X129589182Y-57458099D01*
X129716574Y-57405332D01*
X129747003Y-57385000D01*
X132020526Y-57385000D01*
X132050000Y-57387903D01*
X132079474Y-57385000D01*
X132167621Y-57376318D01*
X132280721Y-57342010D01*
X132384955Y-57286296D01*
X132476317Y-57211317D01*
X132495113Y-57188414D01*
X132583527Y-57100000D01*
X135451471Y-57100000D01*
X132551473Y-60000000D01*
X130662003Y-60000000D01*
X130631574Y-59979668D01*
X130504182Y-59926901D01*
X130368944Y-59900000D01*
X130231056Y-59900000D01*
X130095818Y-59926901D01*
X129968426Y-59979668D01*
X129853776Y-60056274D01*
X129756274Y-60153776D01*
X129679668Y-60268426D01*
X129626901Y-60395818D01*
X129600000Y-60531056D01*
X129600000Y-60668944D01*
X129626901Y-60804182D01*
X129679668Y-60931574D01*
X129756274Y-61046224D01*
X129853776Y-61143726D01*
X129968426Y-61220332D01*
X130095818Y-61273099D01*
X130231056Y-61300000D01*
X130368944Y-61300000D01*
X130504182Y-61273099D01*
X130631574Y-61220332D01*
X130662003Y-61200000D01*
X132770526Y-61200000D01*
X132800000Y-61202903D01*
X132829474Y-61200000D01*
X132917621Y-61191318D01*
X133030721Y-61157010D01*
X133134955Y-61101296D01*
X133226317Y-61026317D01*
X133245113Y-61003414D01*
X135327203Y-58921325D01*
X135308682Y-58982380D01*
X135297097Y-59100000D01*
X135300001Y-59129484D01*
X135300000Y-63770526D01*
X135297097Y-63800000D01*
X135300000Y-63829473D01*
X135308682Y-63917620D01*
X135342990Y-64030720D01*
X135398704Y-64134954D01*
X135473683Y-64226317D01*
X135496586Y-64245113D01*
X136300001Y-65048529D01*
X136300000Y-71731426D01*
X136284366Y-71702177D01*
X136128160Y-71511840D01*
X135937823Y-71355634D01*
X135720669Y-71239563D01*
X135485043Y-71168087D01*
X135301405Y-71150000D01*
X135178595Y-71150000D01*
X134994957Y-71168087D01*
X134759331Y-71239563D01*
X134550000Y-71351453D01*
X134550000Y-70527007D01*
X134552660Y-70499999D01*
X134550000Y-70472991D01*
X134550000Y-70472982D01*
X134542042Y-70392181D01*
X134510592Y-70288506D01*
X134486818Y-70244028D01*
X134459521Y-70192957D01*
X134408013Y-70130195D01*
X134408008Y-70130190D01*
X134390790Y-70109210D01*
X134369809Y-70091992D01*
X133808013Y-69530195D01*
X133790790Y-69509210D01*
X133707042Y-69440479D01*
X133611494Y-69389408D01*
X133507819Y-69357958D01*
X133427018Y-69350000D01*
X133427008Y-69350000D01*
X133400000Y-69347340D01*
X133372992Y-69350000D01*
X126890148Y-69350000D01*
X126898988Y-69338446D01*
X127016880Y-69098534D01*
X127067542Y-68931508D01*
X126974557Y-68720000D01*
X125840000Y-68720000D01*
X125840000Y-68740000D01*
X125640000Y-68740000D01*
X125640000Y-68720000D01*
X125620000Y-68720000D01*
X125620000Y-68520000D01*
X125640000Y-68520000D01*
X125640000Y-67385068D01*
X125559913Y-67350000D01*
X125640000Y-67314932D01*
X125640000Y-66180000D01*
X125840000Y-66180000D01*
X125840000Y-67314932D01*
X125920087Y-67350000D01*
X125840000Y-67385068D01*
X125840000Y-68520000D01*
X126974557Y-68520000D01*
X127067542Y-68308492D01*
X127016880Y-68141466D01*
X126898988Y-67901554D01*
X126736556Y-67689251D01*
X126535827Y-67512717D01*
X126304515Y-67378735D01*
X126220254Y-67350000D01*
X126304515Y-67321265D01*
X126535827Y-67187283D01*
X126736556Y-67010749D01*
X126898988Y-66798446D01*
X127016880Y-66558534D01*
X127067542Y-66391508D01*
X126974557Y-66180000D01*
X125840000Y-66180000D01*
X125640000Y-66180000D01*
X125620000Y-66180000D01*
X125620000Y-65980000D01*
X125640000Y-65980000D01*
X125640000Y-64845068D01*
X125559913Y-64810000D01*
X125640000Y-64774932D01*
X125640000Y-63640000D01*
X125840000Y-63640000D01*
X125840000Y-64774932D01*
X125920087Y-64810000D01*
X125840000Y-64845068D01*
X125840000Y-65980000D01*
X126974557Y-65980000D01*
X127067542Y-65768492D01*
X127016880Y-65601466D01*
X126898988Y-65361554D01*
X126736556Y-65149251D01*
X126535827Y-64972717D01*
X126304515Y-64838735D01*
X126220254Y-64810000D01*
X126304515Y-64781265D01*
X126535827Y-64647283D01*
X126736556Y-64470749D01*
X126898988Y-64258446D01*
X127016880Y-64018534D01*
X127067542Y-63851508D01*
X126974557Y-63640000D01*
X125840000Y-63640000D01*
X125640000Y-63640000D01*
X125620000Y-63640000D01*
X125620000Y-63440000D01*
X125640000Y-63440000D01*
X125640000Y-63420000D01*
X125840000Y-63420000D01*
X125840000Y-63440000D01*
X126974557Y-63440000D01*
X127067542Y-63228492D01*
X127016880Y-63061466D01*
X126898988Y-62821554D01*
X126736556Y-62609251D01*
X126535827Y-62432717D01*
X126304515Y-62298735D01*
X126072474Y-62219604D01*
X126225899Y-62173063D01*
X126445415Y-62055729D01*
X126637823Y-61897823D01*
X126795729Y-61705415D01*
X126913063Y-61485899D01*
X126985317Y-61247709D01*
X127009714Y-61000000D01*
X126985317Y-60752291D01*
X126913063Y-60514101D01*
X126795729Y-60294585D01*
X126637823Y-60102177D01*
X126445415Y-59944271D01*
X126225899Y-59826937D01*
X125987709Y-59754683D01*
X125802077Y-59736400D01*
X125677923Y-59736400D01*
X125492291Y-59754683D01*
X125254101Y-59826937D01*
X125034585Y-59944271D01*
X124842177Y-60102177D01*
X124684271Y-60294585D01*
X124566937Y-60514101D01*
X124494683Y-60752291D01*
X124470286Y-61000000D01*
X124494683Y-61247709D01*
X124566937Y-61485899D01*
X124684271Y-61705415D01*
X124842177Y-61897823D01*
X125034585Y-62055729D01*
X125254101Y-62173063D01*
X125407526Y-62219604D01*
X125175485Y-62298735D01*
X124944173Y-62432717D01*
X124743444Y-62609251D01*
X124581012Y-62821554D01*
X124463120Y-63061466D01*
X124419211Y-63206230D01*
X124373063Y-63054101D01*
X124255729Y-62834585D01*
X124097823Y-62642177D01*
X123905415Y-62484271D01*
X123685899Y-62366937D01*
X123447709Y-62294683D01*
X123262077Y-62276400D01*
X123137923Y-62276400D01*
X122952291Y-62294683D01*
X122714101Y-62366937D01*
X122494585Y-62484271D01*
X122302177Y-62642177D01*
X122144271Y-62834585D01*
X122026937Y-63054101D01*
X121954683Y-63292291D01*
X121930286Y-63540000D01*
X121954683Y-63787709D01*
X122026937Y-64025899D01*
X122144271Y-64245415D01*
X122302177Y-64437823D01*
X122494585Y-64595729D01*
X122714101Y-64713063D01*
X122952291Y-64785317D01*
X123137923Y-64803600D01*
X123262077Y-64803600D01*
X123447709Y-64785317D01*
X123685899Y-64713063D01*
X123905415Y-64595729D01*
X124097823Y-64437823D01*
X124255729Y-64245415D01*
X124373063Y-64025899D01*
X124419211Y-63873770D01*
X124463120Y-64018534D01*
X124581012Y-64258446D01*
X124743444Y-64470749D01*
X124944173Y-64647283D01*
X125175485Y-64781265D01*
X125259746Y-64810000D01*
X125175485Y-64838735D01*
X124944173Y-64972717D01*
X124743444Y-65149251D01*
X124581012Y-65361554D01*
X124463120Y-65601466D01*
X124419211Y-65746230D01*
X124373063Y-65594101D01*
X124255729Y-65374585D01*
X124097823Y-65182177D01*
X123905415Y-65024271D01*
X123685899Y-64906937D01*
X123447709Y-64834683D01*
X123262077Y-64816400D01*
X123137923Y-64816400D01*
X122952291Y-64834683D01*
X122714101Y-64906937D01*
X122494585Y-65024271D01*
X122302177Y-65182177D01*
X122144271Y-65374585D01*
X122026937Y-65594101D01*
X121954683Y-65832291D01*
X121930286Y-66080000D01*
X121954683Y-66327709D01*
X122005838Y-66496345D01*
X120518582Y-67983601D01*
X118885939Y-67983601D01*
X118976880Y-67798534D01*
X119027542Y-67631508D01*
X118934557Y-67420000D01*
X117800000Y-67420000D01*
X117800000Y-67440000D01*
X117600000Y-67440000D01*
X117600000Y-67420000D01*
X117580000Y-67420000D01*
X117580000Y-67220000D01*
X117600000Y-67220000D01*
X117600000Y-66085068D01*
X117800000Y-66085068D01*
X117800000Y-67220000D01*
X118934557Y-67220000D01*
X119027542Y-67008492D01*
X118976880Y-66841466D01*
X118858988Y-66601554D01*
X118696556Y-66389251D01*
X118495827Y-66212717D01*
X118264515Y-66078735D01*
X118011509Y-65992454D01*
X117800000Y-66085068D01*
X117600000Y-66085068D01*
X117388491Y-65992454D01*
X117135485Y-66078735D01*
X116904173Y-66212717D01*
X116703444Y-66389251D01*
X116541012Y-66601554D01*
X116423120Y-66841466D01*
X116379211Y-66986230D01*
X116333063Y-66834101D01*
X116215729Y-66614585D01*
X116057823Y-66422177D01*
X115865415Y-66264271D01*
X115645899Y-66146937D01*
X115407709Y-66074683D01*
X115222077Y-66056400D01*
X115097923Y-66056400D01*
X114912291Y-66074683D01*
X114674101Y-66146937D01*
X114454585Y-66264271D01*
X114262177Y-66422177D01*
X114104271Y-66614585D01*
X114039590Y-66735595D01*
X113949279Y-66762990D01*
X113845045Y-66818704D01*
X113753683Y-66893683D01*
X113734891Y-66916581D01*
X112896586Y-67754887D01*
X112873683Y-67773683D01*
X112798704Y-67865046D01*
X112742990Y-67969280D01*
X112725962Y-68025415D01*
X112708682Y-68082380D01*
X112697097Y-68200000D01*
X112700000Y-68229474D01*
X112700001Y-78570516D01*
X112697097Y-78600000D01*
X112708682Y-78717620D01*
X112727605Y-78780000D01*
X112742991Y-78830721D01*
X112798705Y-78934955D01*
X112873684Y-79026317D01*
X112896581Y-79045108D01*
X113554891Y-79703419D01*
X113573683Y-79726317D01*
X113665045Y-79801296D01*
X113769279Y-79857010D01*
X113848070Y-79880911D01*
X113882378Y-79891318D01*
X113893640Y-79892427D01*
X113970526Y-79900000D01*
X113970533Y-79900000D01*
X113999999Y-79902902D01*
X114029465Y-79900000D01*
X118727207Y-79900000D01*
X118826283Y-79999076D01*
X118973690Y-80097570D01*
X119137480Y-80165414D01*
X119311358Y-80200000D01*
X119488642Y-80200000D01*
X119662520Y-80165414D01*
X119826310Y-80097570D01*
X119973717Y-79999076D01*
X120099076Y-79873717D01*
X120197570Y-79726310D01*
X120265414Y-79562520D01*
X120300000Y-79388642D01*
X120300000Y-79211358D01*
X120265414Y-79037480D01*
X120197570Y-78873690D01*
X120099076Y-78726283D01*
X119973717Y-78600924D01*
X119826310Y-78502430D01*
X119662520Y-78434586D01*
X119488642Y-78400000D01*
X119311358Y-78400000D01*
X119137480Y-78434586D01*
X118973690Y-78502430D01*
X118909241Y-78545494D01*
X118934940Y-78497414D01*
X118957812Y-78422014D01*
X118965535Y-78343600D01*
X118965535Y-76616400D01*
X118957812Y-76537986D01*
X118934940Y-76462586D01*
X118897797Y-76393097D01*
X118847811Y-76332189D01*
X118786903Y-76282203D01*
X118717414Y-76245060D01*
X118642014Y-76222188D01*
X118563600Y-76214465D01*
X118167161Y-76214465D01*
X118264515Y-76181265D01*
X118495827Y-76047283D01*
X118696556Y-75870749D01*
X118858988Y-75658446D01*
X118976880Y-75418534D01*
X119027542Y-75251508D01*
X118934557Y-75040000D01*
X117800000Y-75040000D01*
X117800000Y-75060000D01*
X117600000Y-75060000D01*
X117600000Y-75040000D01*
X117580000Y-75040000D01*
X117580000Y-74840000D01*
X117600000Y-74840000D01*
X117600000Y-73705068D01*
X117519913Y-73670000D01*
X117600000Y-73634932D01*
X117600000Y-72500000D01*
X117800000Y-72500000D01*
X117800000Y-73634932D01*
X117880087Y-73670000D01*
X117800000Y-73705068D01*
X117800000Y-74840000D01*
X118934557Y-74840000D01*
X119027542Y-74628492D01*
X118976880Y-74461466D01*
X118858988Y-74221554D01*
X118696556Y-74009251D01*
X118495827Y-73832717D01*
X118264515Y-73698735D01*
X118180254Y-73670000D01*
X118264515Y-73641265D01*
X118495827Y-73507283D01*
X118696556Y-73330749D01*
X118858988Y-73118446D01*
X118976880Y-72878534D01*
X119027542Y-72711508D01*
X118934557Y-72500000D01*
X117800000Y-72500000D01*
X117600000Y-72500000D01*
X117580000Y-72500000D01*
X117580000Y-72300000D01*
X117600000Y-72300000D01*
X117600000Y-72280000D01*
X117800000Y-72280000D01*
X117800000Y-72300000D01*
X118934557Y-72300000D01*
X119027542Y-72088492D01*
X118976880Y-71921466D01*
X118858988Y-71681554D01*
X118696556Y-71469251D01*
X118495827Y-71292717D01*
X118264515Y-71158735D01*
X118032474Y-71079604D01*
X118185899Y-71033063D01*
X118405415Y-70915729D01*
X118597823Y-70757823D01*
X118755729Y-70565415D01*
X118836495Y-70414312D01*
X121191992Y-72769810D01*
X121209210Y-72790790D01*
X121230190Y-72808008D01*
X121230195Y-72808013D01*
X121252499Y-72826317D01*
X121292958Y-72859521D01*
X121388506Y-72910592D01*
X121492181Y-72942042D01*
X121572982Y-72950000D01*
X121572991Y-72950000D01*
X121599999Y-72952660D01*
X121627007Y-72950000D01*
X122180861Y-72950000D01*
X122144271Y-72994585D01*
X122026937Y-73214101D01*
X121954683Y-73452291D01*
X121930286Y-73700000D01*
X121954683Y-73947709D01*
X122026937Y-74185899D01*
X122144271Y-74405415D01*
X122302177Y-74597823D01*
X122494585Y-74755729D01*
X122714101Y-74873063D01*
X122952291Y-74945317D01*
X123137923Y-74963600D01*
X123262077Y-74963600D01*
X123447709Y-74945317D01*
X123685899Y-74873063D01*
X123905415Y-74755729D01*
X123950000Y-74719139D01*
X123950000Y-75220861D01*
X123905415Y-75184271D01*
X123685899Y-75066937D01*
X123447709Y-74994683D01*
X123262077Y-74976400D01*
X123137923Y-74976400D01*
X122952291Y-74994683D01*
X122714101Y-75066937D01*
X122494585Y-75184271D01*
X122302177Y-75342177D01*
X122144271Y-75534585D01*
X122026937Y-75754101D01*
X121954683Y-75992291D01*
X121930286Y-76240000D01*
X121954683Y-76487709D01*
X122026937Y-76725899D01*
X122144271Y-76945415D01*
X122302177Y-77137823D01*
X122494585Y-77295729D01*
X122714101Y-77413063D01*
X122952291Y-77485317D01*
X123137923Y-77503600D01*
X123262077Y-77503600D01*
X123447709Y-77485317D01*
X123685899Y-77413063D01*
X123905415Y-77295729D01*
X123950001Y-77259138D01*
X123950001Y-77760862D01*
X123905415Y-77724271D01*
X123685899Y-77606937D01*
X123447709Y-77534683D01*
X123262077Y-77516400D01*
X123137923Y-77516400D01*
X122952291Y-77534683D01*
X122714101Y-77606937D01*
X122494585Y-77724271D01*
X122302177Y-77882177D01*
X122144271Y-78074585D01*
X122026937Y-78294101D01*
X121954683Y-78532291D01*
X121930286Y-78780000D01*
X121954683Y-79027709D01*
X122026937Y-79265899D01*
X122084310Y-79373237D01*
X122088682Y-79417620D01*
X122122991Y-79530721D01*
X122178705Y-79634954D01*
X122253684Y-79726316D01*
X122345046Y-79801295D01*
X122449279Y-79857009D01*
X122562380Y-79891318D01*
X122606763Y-79895690D01*
X122714101Y-79953063D01*
X122952291Y-80025317D01*
X123137923Y-80043600D01*
X123262077Y-80043600D01*
X123447709Y-80025317D01*
X123685899Y-79953063D01*
X123905415Y-79835729D01*
X123911209Y-79830974D01*
X123616345Y-80125838D01*
X123447709Y-80074683D01*
X123262077Y-80056400D01*
X123137923Y-80056400D01*
X122952291Y-80074683D01*
X122714101Y-80146937D01*
X122494585Y-80264271D01*
X122302177Y-80422177D01*
X122144271Y-80614585D01*
X122026937Y-80834101D01*
X121954683Y-81072291D01*
X121930286Y-81320000D01*
X121954683Y-81567709D01*
X122026937Y-81805899D01*
X122144271Y-82025415D01*
X122302177Y-82217823D01*
X122494585Y-82375729D01*
X122714101Y-82493063D01*
X122952291Y-82565317D01*
X123137923Y-82583600D01*
X123262077Y-82583600D01*
X123447709Y-82565317D01*
X123685899Y-82493063D01*
X123905415Y-82375729D01*
X124097823Y-82217823D01*
X124255729Y-82025415D01*
X124373063Y-81805899D01*
X124419211Y-81653770D01*
X124463120Y-81798534D01*
X124581012Y-82038446D01*
X124743444Y-82250749D01*
X124944173Y-82427283D01*
X125175485Y-82561265D01*
X125259746Y-82590000D01*
X125175485Y-82618735D01*
X124944173Y-82752717D01*
X124743444Y-82929251D01*
X124581012Y-83141554D01*
X124463120Y-83381466D01*
X124419211Y-83526230D01*
X124373063Y-83374101D01*
X124255729Y-83154585D01*
X124097823Y-82962177D01*
X123905415Y-82804271D01*
X123685899Y-82686937D01*
X123447709Y-82614683D01*
X123262077Y-82596400D01*
X123137923Y-82596400D01*
X122952291Y-82614683D01*
X122714101Y-82686937D01*
X122494585Y-82804271D01*
X122302177Y-82962177D01*
X122144271Y-83154585D01*
X122026937Y-83374101D01*
X121954683Y-83612291D01*
X121930286Y-83860000D01*
X121954683Y-84107709D01*
X122026937Y-84345899D01*
X122144271Y-84565415D01*
X122302177Y-84757823D01*
X122494585Y-84915729D01*
X122714101Y-85033063D01*
X122952291Y-85105317D01*
X123137923Y-85123600D01*
X123262077Y-85123600D01*
X123447709Y-85105317D01*
X123685899Y-85033063D01*
X123905415Y-84915729D01*
X124097823Y-84757823D01*
X124255729Y-84565415D01*
X124373063Y-84345899D01*
X124419211Y-84193770D01*
X124463120Y-84338534D01*
X124581012Y-84578446D01*
X124743444Y-84790749D01*
X124944173Y-84967283D01*
X125175485Y-85101265D01*
X125428491Y-85187546D01*
X125640000Y-85094932D01*
X125640000Y-83960000D01*
X125840000Y-83960000D01*
X125840000Y-85094932D01*
X126051509Y-85187546D01*
X126304515Y-85101265D01*
X126535827Y-84967283D01*
X126736556Y-84790749D01*
X126898988Y-84578446D01*
X127016880Y-84338534D01*
X127067542Y-84171508D01*
X126974557Y-83960000D01*
X125840000Y-83960000D01*
X125640000Y-83960000D01*
X125620000Y-83960000D01*
X125620000Y-83760000D01*
X125640000Y-83760000D01*
X125640000Y-82625068D01*
X125559913Y-82590000D01*
X125640000Y-82554932D01*
X125640000Y-81420000D01*
X125840000Y-81420000D01*
X125840000Y-82554932D01*
X125920087Y-82590000D01*
X125840000Y-82625068D01*
X125840000Y-83760000D01*
X126974557Y-83760000D01*
X127067542Y-83548492D01*
X127016880Y-83381466D01*
X126898988Y-83141554D01*
X126736556Y-82929251D01*
X126535827Y-82752717D01*
X126304515Y-82618735D01*
X126220254Y-82590000D01*
X126304515Y-82561265D01*
X126535827Y-82427283D01*
X126736556Y-82250749D01*
X126898988Y-82038446D01*
X127016880Y-81798534D01*
X127067542Y-81631508D01*
X126974557Y-81420000D01*
X125840000Y-81420000D01*
X125640000Y-81420000D01*
X125620000Y-81420000D01*
X125620000Y-81220000D01*
X125640000Y-81220000D01*
X125640000Y-80085068D01*
X125559913Y-80050000D01*
X125640000Y-80014932D01*
X125640000Y-78880000D01*
X125840000Y-78880000D01*
X125840000Y-80014932D01*
X125920087Y-80050000D01*
X125840000Y-80085068D01*
X125840000Y-81220000D01*
X126974557Y-81220000D01*
X127067542Y-81008492D01*
X127016880Y-80841466D01*
X126898988Y-80601554D01*
X126736556Y-80389251D01*
X126535827Y-80212717D01*
X126304515Y-80078735D01*
X126220254Y-80050000D01*
X126304515Y-80021265D01*
X126535827Y-79887283D01*
X126736556Y-79710749D01*
X126898988Y-79498446D01*
X127016880Y-79258534D01*
X127067542Y-79091508D01*
X126974557Y-78880000D01*
X125840000Y-78880000D01*
X125640000Y-78880000D01*
X125620000Y-78880000D01*
X125620000Y-78680000D01*
X125640000Y-78680000D01*
X125640000Y-77545068D01*
X125559913Y-77510000D01*
X125640000Y-77474932D01*
X125640000Y-76340000D01*
X125840000Y-76340000D01*
X125840000Y-77474932D01*
X125920087Y-77510000D01*
X125840000Y-77545068D01*
X125840000Y-78680000D01*
X126974557Y-78680000D01*
X127067542Y-78468492D01*
X127016880Y-78301466D01*
X126898988Y-78061554D01*
X126736556Y-77849251D01*
X126535827Y-77672717D01*
X126304515Y-77538735D01*
X126220254Y-77510000D01*
X126304515Y-77481265D01*
X126535827Y-77347283D01*
X126736556Y-77170749D01*
X126898988Y-76958446D01*
X127016880Y-76718534D01*
X127067542Y-76551508D01*
X126974557Y-76340000D01*
X125840000Y-76340000D01*
X125640000Y-76340000D01*
X125620000Y-76340000D01*
X125620000Y-76140000D01*
X125640000Y-76140000D01*
X125640000Y-75005068D01*
X125559913Y-74970000D01*
X125640000Y-74934932D01*
X125640000Y-73800000D01*
X125840000Y-73800000D01*
X125840000Y-74934932D01*
X125920087Y-74970000D01*
X125840000Y-75005068D01*
X125840000Y-76140000D01*
X126974557Y-76140000D01*
X127067542Y-75928492D01*
X127016880Y-75761466D01*
X126898988Y-75521554D01*
X126736556Y-75309251D01*
X126535827Y-75132717D01*
X126304515Y-74998735D01*
X126220254Y-74970000D01*
X126304515Y-74941265D01*
X126535827Y-74807283D01*
X126736556Y-74630749D01*
X126898988Y-74418446D01*
X127016880Y-74178534D01*
X127067542Y-74011508D01*
X126974557Y-73800000D01*
X125840000Y-73800000D01*
X125640000Y-73800000D01*
X125620000Y-73800000D01*
X125620000Y-73600000D01*
X125640000Y-73600000D01*
X125640000Y-72465068D01*
X125559913Y-72430000D01*
X125640000Y-72394932D01*
X125640000Y-71260000D01*
X125840000Y-71260000D01*
X125840000Y-72394932D01*
X125920087Y-72430000D01*
X125840000Y-72465068D01*
X125840000Y-73600000D01*
X126974557Y-73600000D01*
X127067542Y-73388492D01*
X127016880Y-73221466D01*
X126898988Y-72981554D01*
X126736556Y-72769251D01*
X126535827Y-72592717D01*
X126304515Y-72458735D01*
X126220254Y-72430000D01*
X126304515Y-72401265D01*
X126535827Y-72267283D01*
X126736556Y-72090749D01*
X126898988Y-71878446D01*
X127016880Y-71638534D01*
X127067542Y-71471508D01*
X126974557Y-71260000D01*
X125840000Y-71260000D01*
X125640000Y-71260000D01*
X125620000Y-71260000D01*
X125620000Y-71060000D01*
X125640000Y-71060000D01*
X125640000Y-71040000D01*
X125840000Y-71040000D01*
X125840000Y-71060000D01*
X126974557Y-71060000D01*
X127067542Y-70848492D01*
X127016880Y-70681466D01*
X126903138Y-70450000D01*
X133172183Y-70450000D01*
X133450000Y-70727818D01*
X133450000Y-71148065D01*
X131850000Y-71148065D01*
X131771586Y-71155788D01*
X131696186Y-71178660D01*
X131626697Y-71215803D01*
X131565789Y-71265789D01*
X131515803Y-71326697D01*
X131478660Y-71396186D01*
X131455788Y-71471586D01*
X131448065Y-71550000D01*
X131448065Y-71800000D01*
X131429473Y-71800000D01*
X131399999Y-71797097D01*
X131282379Y-71808682D01*
X131169279Y-71842990D01*
X131065045Y-71898704D01*
X130973683Y-71973683D01*
X130954891Y-71996581D01*
X130396581Y-72554892D01*
X130373684Y-72573683D01*
X130298705Y-72665045D01*
X130243006Y-72769251D01*
X130242991Y-72769279D01*
X130208682Y-72882380D01*
X130197097Y-73000000D01*
X130200001Y-73029484D01*
X130200000Y-79970526D01*
X130197097Y-80000000D01*
X130200000Y-80029473D01*
X130208682Y-80117620D01*
X130242990Y-80230720D01*
X130298704Y-80334954D01*
X130373683Y-80426317D01*
X130396586Y-80445113D01*
X132654891Y-82703419D01*
X132673683Y-82726317D01*
X132765045Y-82801296D01*
X132869279Y-82857010D01*
X132982379Y-82891318D01*
X133099999Y-82902903D01*
X133129473Y-82900000D01*
X133600000Y-82900000D01*
X133600001Y-87770516D01*
X133597097Y-87800000D01*
X133608682Y-87917620D01*
X133627146Y-87978486D01*
X133642991Y-88030721D01*
X133698705Y-88134955D01*
X133773684Y-88226317D01*
X133796581Y-88245109D01*
X134451472Y-88900000D01*
X112100000Y-88900000D01*
X112100000Y-60136400D01*
X121934465Y-60136400D01*
X121934465Y-61863600D01*
X121942188Y-61942014D01*
X121965060Y-62017414D01*
X122002203Y-62086903D01*
X122052189Y-62147811D01*
X122113097Y-62197797D01*
X122182586Y-62234940D01*
X122257986Y-62257812D01*
X122336400Y-62265535D01*
X124063600Y-62265535D01*
X124142014Y-62257812D01*
X124217414Y-62234940D01*
X124286903Y-62197797D01*
X124347811Y-62147811D01*
X124397797Y-62086903D01*
X124434940Y-62017414D01*
X124457812Y-61942014D01*
X124465535Y-61863600D01*
X124465535Y-60136400D01*
X124457812Y-60057986D01*
X124434940Y-59982586D01*
X124397797Y-59913097D01*
X124347811Y-59852189D01*
X124286903Y-59802203D01*
X124217414Y-59765060D01*
X124142014Y-59742188D01*
X124063600Y-59734465D01*
X122336400Y-59734465D01*
X122257986Y-59742188D01*
X122182586Y-59765060D01*
X122113097Y-59802203D01*
X122052189Y-59852189D01*
X122002203Y-59913097D01*
X121965060Y-59982586D01*
X121942188Y-60057986D01*
X121934465Y-60136400D01*
X112100000Y-60136400D01*
X112100000Y-57100000D01*
X128757803Y-57100000D01*
X128764668Y-57116574D01*
G36*
X132800000Y-77380000D02*
G01*
X132820000Y-77380000D01*
X132820000Y-77580000D01*
X132800000Y-77580000D01*
X132800000Y-78701295D01*
X133009376Y-78794076D01*
X133259795Y-78708470D01*
X133488701Y-78575655D01*
X133687298Y-78400734D01*
X133847954Y-78190430D01*
X133964494Y-77952825D01*
X134014072Y-77789375D01*
X133920913Y-77580002D01*
X133993801Y-77580002D01*
X134008087Y-77725043D01*
X134079563Y-77960669D01*
X134195634Y-78177823D01*
X134351840Y-78368160D01*
X134542177Y-78524366D01*
X134759331Y-78640437D01*
X134994957Y-78711913D01*
X135178595Y-78730000D01*
X135301405Y-78730000D01*
X135485043Y-78711913D01*
X135720669Y-78640437D01*
X135937823Y-78524366D01*
X136128160Y-78368160D01*
X136284366Y-78177823D01*
X136300000Y-78148573D01*
X136300000Y-82070526D01*
X136297097Y-82100000D01*
X136300000Y-82129473D01*
X136308682Y-82217620D01*
X136342990Y-82330720D01*
X136398704Y-82434954D01*
X136473683Y-82526317D01*
X136496586Y-82545113D01*
X137019761Y-83068289D01*
X137026901Y-83104182D01*
X137079668Y-83231574D01*
X137156274Y-83346224D01*
X137253776Y-83443726D01*
X137368426Y-83520332D01*
X137495818Y-83573099D01*
X137564677Y-83586796D01*
X137531711Y-83619761D01*
X137495818Y-83626901D01*
X137368426Y-83679668D01*
X137253776Y-83756274D01*
X137156274Y-83853776D01*
X137079668Y-83968426D01*
X137026901Y-84095818D01*
X137000000Y-84231056D01*
X137000000Y-84368944D01*
X137026901Y-84504182D01*
X137079668Y-84631574D01*
X137156274Y-84746224D01*
X137253776Y-84843726D01*
X137337997Y-84900000D01*
X137253776Y-84956274D01*
X137156274Y-85053776D01*
X137079668Y-85168426D01*
X137026901Y-85295818D01*
X137000000Y-85431056D01*
X137000000Y-85568944D01*
X137026901Y-85704182D01*
X137079668Y-85831574D01*
X137156274Y-85946224D01*
X137253776Y-86043726D01*
X137368426Y-86120332D01*
X137440052Y-86150000D01*
X137368426Y-86179668D01*
X137253776Y-86256274D01*
X137156274Y-86353776D01*
X137079668Y-86468426D01*
X137026901Y-86595818D01*
X137000000Y-86731056D01*
X137000000Y-86868944D01*
X137026901Y-87004182D01*
X137079668Y-87131574D01*
X137156274Y-87246224D01*
X137253776Y-87343726D01*
X137337997Y-87400000D01*
X137253776Y-87456274D01*
X137156274Y-87553776D01*
X137079668Y-87668426D01*
X137026901Y-87795818D01*
X137000000Y-87931056D01*
X137000000Y-88068944D01*
X137026901Y-88204182D01*
X137079668Y-88331574D01*
X137125388Y-88400000D01*
X135648528Y-88400000D01*
X134800000Y-87551473D01*
X134800000Y-82662003D01*
X134820332Y-82631574D01*
X134873099Y-82504182D01*
X134900000Y-82368944D01*
X134900000Y-82231056D01*
X134873099Y-82095818D01*
X134820332Y-81968426D01*
X134743726Y-81853776D01*
X134646224Y-81756274D01*
X134531574Y-81679668D01*
X134404182Y-81626901D01*
X134268944Y-81600000D01*
X134131056Y-81600000D01*
X133995818Y-81626901D01*
X133868426Y-81679668D01*
X133837997Y-81700000D01*
X133348528Y-81700000D01*
X131400000Y-79751473D01*
X131400000Y-77835768D01*
X131435506Y-77952825D01*
X131552046Y-78190430D01*
X131712702Y-78400734D01*
X131911299Y-78575655D01*
X132140205Y-78708470D01*
X132390624Y-78794076D01*
X132600000Y-78701295D01*
X132600000Y-77580000D01*
X132580000Y-77580000D01*
X132580000Y-77380000D01*
X132600000Y-77380000D01*
X132600000Y-77360000D01*
X132800000Y-77360000D01*
X132800000Y-77380000D01*
X132800000Y-77380000D01*
G37*
X132800000Y-77380000D02*
X132820000Y-77380000D01*
X132820000Y-77580000D01*
X132800000Y-77580000D01*
X132800000Y-78701295D01*
X133009376Y-78794076D01*
X133259795Y-78708470D01*
X133488701Y-78575655D01*
X133687298Y-78400734D01*
X133847954Y-78190430D01*
X133964494Y-77952825D01*
X134014072Y-77789375D01*
X133920913Y-77580002D01*
X133993801Y-77580002D01*
X134008087Y-77725043D01*
X134079563Y-77960669D01*
X134195634Y-78177823D01*
X134351840Y-78368160D01*
X134542177Y-78524366D01*
X134759331Y-78640437D01*
X134994957Y-78711913D01*
X135178595Y-78730000D01*
X135301405Y-78730000D01*
X135485043Y-78711913D01*
X135720669Y-78640437D01*
X135937823Y-78524366D01*
X136128160Y-78368160D01*
X136284366Y-78177823D01*
X136300000Y-78148573D01*
X136300000Y-82070526D01*
X136297097Y-82100000D01*
X136300000Y-82129473D01*
X136308682Y-82217620D01*
X136342990Y-82330720D01*
X136398704Y-82434954D01*
X136473683Y-82526317D01*
X136496586Y-82545113D01*
X137019761Y-83068289D01*
X137026901Y-83104182D01*
X137079668Y-83231574D01*
X137156274Y-83346224D01*
X137253776Y-83443726D01*
X137368426Y-83520332D01*
X137495818Y-83573099D01*
X137564677Y-83586796D01*
X137531711Y-83619761D01*
X137495818Y-83626901D01*
X137368426Y-83679668D01*
X137253776Y-83756274D01*
X137156274Y-83853776D01*
X137079668Y-83968426D01*
X137026901Y-84095818D01*
X137000000Y-84231056D01*
X137000000Y-84368944D01*
X137026901Y-84504182D01*
X137079668Y-84631574D01*
X137156274Y-84746224D01*
X137253776Y-84843726D01*
X137337997Y-84900000D01*
X137253776Y-84956274D01*
X137156274Y-85053776D01*
X137079668Y-85168426D01*
X137026901Y-85295818D01*
X137000000Y-85431056D01*
X137000000Y-85568944D01*
X137026901Y-85704182D01*
X137079668Y-85831574D01*
X137156274Y-85946224D01*
X137253776Y-86043726D01*
X137368426Y-86120332D01*
X137440052Y-86150000D01*
X137368426Y-86179668D01*
X137253776Y-86256274D01*
X137156274Y-86353776D01*
X137079668Y-86468426D01*
X137026901Y-86595818D01*
X137000000Y-86731056D01*
X137000000Y-86868944D01*
X137026901Y-87004182D01*
X137079668Y-87131574D01*
X137156274Y-87246224D01*
X137253776Y-87343726D01*
X137337997Y-87400000D01*
X137253776Y-87456274D01*
X137156274Y-87553776D01*
X137079668Y-87668426D01*
X137026901Y-87795818D01*
X137000000Y-87931056D01*
X137000000Y-88068944D01*
X137026901Y-88204182D01*
X137079668Y-88331574D01*
X137125388Y-88400000D01*
X135648528Y-88400000D01*
X134800000Y-87551473D01*
X134800000Y-82662003D01*
X134820332Y-82631574D01*
X134873099Y-82504182D01*
X134900000Y-82368944D01*
X134900000Y-82231056D01*
X134873099Y-82095818D01*
X134820332Y-81968426D01*
X134743726Y-81853776D01*
X134646224Y-81756274D01*
X134531574Y-81679668D01*
X134404182Y-81626901D01*
X134268944Y-81600000D01*
X134131056Y-81600000D01*
X133995818Y-81626901D01*
X133868426Y-81679668D01*
X133837997Y-81700000D01*
X133348528Y-81700000D01*
X131400000Y-79751473D01*
X131400000Y-77835768D01*
X131435506Y-77952825D01*
X131552046Y-78190430D01*
X131712702Y-78400734D01*
X131911299Y-78575655D01*
X132140205Y-78708470D01*
X132390624Y-78794076D01*
X132600000Y-78701295D01*
X132600000Y-77580000D01*
X132580000Y-77580000D01*
X132580000Y-77380000D01*
X132600000Y-77380000D01*
X132600000Y-77360000D01*
X132800000Y-77360000D01*
X132800000Y-77380000D01*
G36*
X144300000Y-58648528D02*
G01*
X144300001Y-61970516D01*
X144297097Y-62000000D01*
X144308682Y-62117620D01*
X144325501Y-62173063D01*
X144342991Y-62230721D01*
X144398705Y-62334955D01*
X144473684Y-62426317D01*
X144496581Y-62445108D01*
X144934891Y-62883419D01*
X144953683Y-62906317D01*
X145045045Y-62981296D01*
X145113003Y-63017620D01*
X145149279Y-63037010D01*
X145262379Y-63071319D01*
X145380000Y-63082903D01*
X145409476Y-63080000D01*
X145603347Y-63080000D01*
X145655634Y-63177823D01*
X145811840Y-63368160D01*
X146002177Y-63524366D01*
X146219331Y-63640437D01*
X146454957Y-63711913D01*
X146599998Y-63726198D01*
X146599998Y-63798704D01*
X146390624Y-63705924D01*
X146140205Y-63791530D01*
X145911299Y-63924345D01*
X145712702Y-64099266D01*
X145552046Y-64309570D01*
X145435506Y-64547175D01*
X145385928Y-64710625D01*
X145479088Y-64920000D01*
X146600000Y-64920000D01*
X146600000Y-64900000D01*
X146800000Y-64900000D01*
X146800000Y-64920000D01*
X147920912Y-64920000D01*
X148014072Y-64710625D01*
X147964494Y-64547175D01*
X147847954Y-64309570D01*
X147687298Y-64099266D01*
X147488701Y-63924345D01*
X147259795Y-63791530D01*
X147009376Y-63705924D01*
X146800002Y-63798704D01*
X146800002Y-63726198D01*
X146945043Y-63711913D01*
X147180669Y-63640437D01*
X147397823Y-63524366D01*
X147588160Y-63368160D01*
X147744366Y-63177823D01*
X147860437Y-62960669D01*
X147931913Y-62725043D01*
X147956048Y-62480000D01*
X147931913Y-62234957D01*
X147860437Y-61999331D01*
X147744366Y-61782177D01*
X147588160Y-61591840D01*
X147397823Y-61435634D01*
X147180669Y-61319563D01*
X146945043Y-61248087D01*
X146761405Y-61230000D01*
X146638595Y-61230000D01*
X146454957Y-61248087D01*
X146219331Y-61319563D01*
X146002177Y-61435634D01*
X145811840Y-61591840D01*
X145655634Y-61782177D01*
X145612118Y-61863590D01*
X145500000Y-61751473D01*
X145500000Y-60290247D01*
X145539563Y-60420669D01*
X145655634Y-60637823D01*
X145811840Y-60828160D01*
X146002177Y-60984366D01*
X146219331Y-61100437D01*
X146454957Y-61171913D01*
X146638595Y-61190000D01*
X146761405Y-61190000D01*
X146945043Y-61171913D01*
X147180669Y-61100437D01*
X147397823Y-60984366D01*
X147588160Y-60828160D01*
X147744366Y-60637823D01*
X147860437Y-60420669D01*
X147931913Y-60185043D01*
X147956048Y-59940000D01*
X147931913Y-59694957D01*
X147860437Y-59459331D01*
X147744366Y-59242177D01*
X147588160Y-59051840D01*
X147397823Y-58895634D01*
X147180669Y-58779563D01*
X146945043Y-58708087D01*
X146761405Y-58690000D01*
X146638595Y-58690000D01*
X146454957Y-58708087D01*
X146219331Y-58779563D01*
X146002177Y-58895634D01*
X145811840Y-59051840D01*
X145655634Y-59242177D01*
X145539563Y-59459331D01*
X145500000Y-59589753D01*
X145500000Y-58443738D01*
X145515803Y-58473303D01*
X145565789Y-58534211D01*
X145626697Y-58584197D01*
X145696186Y-58621340D01*
X145771586Y-58644212D01*
X145850000Y-58651935D01*
X147550000Y-58651935D01*
X147628414Y-58644212D01*
X147703814Y-58621340D01*
X147773303Y-58584197D01*
X147834211Y-58534211D01*
X147884197Y-58473303D01*
X147921340Y-58403814D01*
X147944212Y-58328414D01*
X147951935Y-58250000D01*
X147951935Y-58000462D01*
X148100000Y-58148528D01*
X148100001Y-81951471D01*
X145851473Y-84200000D01*
X143476935Y-84200000D01*
X143464408Y-84072814D01*
X143427309Y-83950515D01*
X143367064Y-83837804D01*
X143285988Y-83739012D01*
X143187196Y-83657936D01*
X143074485Y-83597691D01*
X142952186Y-83560592D01*
X142825000Y-83548065D01*
X142306051Y-83548065D01*
X142470043Y-83531913D01*
X142705669Y-83460437D01*
X142922823Y-83344366D01*
X143113160Y-83188160D01*
X143269366Y-82997823D01*
X143385437Y-82780669D01*
X143456913Y-82545043D01*
X143481048Y-82300000D01*
X143456913Y-82054957D01*
X143385437Y-81819331D01*
X143269366Y-81602177D01*
X143113160Y-81411840D01*
X142922823Y-81255634D01*
X142705669Y-81139563D01*
X142470043Y-81068087D01*
X142286405Y-81050000D01*
X142470043Y-81031913D01*
X142705669Y-80960437D01*
X142922823Y-80844366D01*
X143113160Y-80688160D01*
X143269366Y-80497823D01*
X143385437Y-80280669D01*
X143456913Y-80045043D01*
X143481048Y-79800000D01*
X143456913Y-79554957D01*
X143385437Y-79319331D01*
X143269366Y-79102177D01*
X143113160Y-78911840D01*
X142922823Y-78755634D01*
X142705669Y-78639563D01*
X142470043Y-78568087D01*
X142286405Y-78550000D01*
X142470043Y-78531913D01*
X142705669Y-78460437D01*
X142922823Y-78344366D01*
X143113160Y-78188160D01*
X143269366Y-77997823D01*
X143385437Y-77780669D01*
X143456913Y-77545043D01*
X143481048Y-77300000D01*
X143456913Y-77054957D01*
X143385437Y-76819331D01*
X143269366Y-76602177D01*
X143113160Y-76411840D01*
X142922823Y-76255634D01*
X142705669Y-76139563D01*
X142470043Y-76068087D01*
X142286405Y-76050000D01*
X142470043Y-76031913D01*
X142705669Y-75960437D01*
X142922823Y-75844366D01*
X143113160Y-75688160D01*
X143269366Y-75497823D01*
X143385437Y-75280669D01*
X143456913Y-75045043D01*
X143481048Y-74800000D01*
X143456913Y-74554957D01*
X143385437Y-74319331D01*
X143269366Y-74102177D01*
X143113160Y-73911840D01*
X142922823Y-73755634D01*
X142705669Y-73639563D01*
X142572913Y-73599292D01*
X142669123Y-73576079D01*
X142909540Y-73464915D01*
X143123650Y-73308984D01*
X143303226Y-73114279D01*
X143441366Y-72888281D01*
X143532762Y-72639676D01*
X143539072Y-72609375D01*
X143445912Y-72400000D01*
X142200000Y-72400000D01*
X142200000Y-72420000D01*
X142000000Y-72420000D01*
X142000000Y-72400000D01*
X140754088Y-72400000D01*
X140660928Y-72609375D01*
X140667238Y-72639676D01*
X140758634Y-72888281D01*
X140896774Y-73114279D01*
X141076350Y-73308984D01*
X141290460Y-73464915D01*
X141530877Y-73576079D01*
X141627087Y-73599292D01*
X141494331Y-73639563D01*
X141277177Y-73755634D01*
X141086840Y-73911840D01*
X140930634Y-74102177D01*
X140814563Y-74319331D01*
X140743087Y-74554957D01*
X140718952Y-74800000D01*
X140743087Y-75045043D01*
X140814563Y-75280669D01*
X140930634Y-75497823D01*
X141086840Y-75688160D01*
X141277177Y-75844366D01*
X141494331Y-75960437D01*
X141729957Y-76031913D01*
X141913595Y-76050000D01*
X141729957Y-76068087D01*
X141494331Y-76139563D01*
X141277177Y-76255634D01*
X141086840Y-76411840D01*
X140930634Y-76602177D01*
X140814563Y-76819331D01*
X140743087Y-77054957D01*
X140718952Y-77300000D01*
X140743087Y-77545043D01*
X140814563Y-77780669D01*
X140930634Y-77997823D01*
X141086840Y-78188160D01*
X141277177Y-78344366D01*
X141494331Y-78460437D01*
X141729957Y-78531913D01*
X141913595Y-78550000D01*
X141729957Y-78568087D01*
X141494331Y-78639563D01*
X141277177Y-78755634D01*
X141086840Y-78911840D01*
X140930634Y-79102177D01*
X140814563Y-79319331D01*
X140743087Y-79554957D01*
X140718952Y-79800000D01*
X140743087Y-80045043D01*
X140814563Y-80280669D01*
X140930634Y-80497823D01*
X141086840Y-80688160D01*
X141277177Y-80844366D01*
X141494331Y-80960437D01*
X141729957Y-81031913D01*
X141913595Y-81050000D01*
X141729957Y-81068087D01*
X141494331Y-81139563D01*
X141277177Y-81255634D01*
X141086840Y-81411840D01*
X140930634Y-81602177D01*
X140814563Y-81819331D01*
X140800010Y-81867306D01*
X140800010Y-81329483D01*
X140802913Y-81300009D01*
X140791328Y-81182389D01*
X140771681Y-81117621D01*
X140757020Y-81069289D01*
X140701306Y-80965055D01*
X140626327Y-80873693D01*
X140603424Y-80854897D01*
X140500000Y-80751473D01*
X140500000Y-76562003D01*
X140520332Y-76531574D01*
X140573099Y-76404182D01*
X140600000Y-76268944D01*
X140600000Y-76131056D01*
X140573099Y-75995818D01*
X140520332Y-75868426D01*
X140500000Y-75837997D01*
X140500000Y-71990625D01*
X140660928Y-71990625D01*
X140754088Y-72200000D01*
X142000000Y-72200000D01*
X142000000Y-71074075D01*
X142200000Y-71074075D01*
X142200000Y-72200000D01*
X143445912Y-72200000D01*
X143539072Y-71990625D01*
X143532762Y-71960324D01*
X143441366Y-71711719D01*
X143303226Y-71485721D01*
X143123650Y-71291016D01*
X142909540Y-71135085D01*
X142669123Y-71023921D01*
X142411639Y-70961796D01*
X142200000Y-71074075D01*
X142000000Y-71074075D01*
X141788361Y-70961796D01*
X141530877Y-71023921D01*
X141290460Y-71135085D01*
X141076350Y-71291016D01*
X140896774Y-71485721D01*
X140758634Y-71711719D01*
X140667238Y-71960324D01*
X140660928Y-71990625D01*
X140500000Y-71990625D01*
X140500000Y-65329375D01*
X145385928Y-65329375D01*
X145435506Y-65492825D01*
X145552046Y-65730430D01*
X145712702Y-65940734D01*
X145911299Y-66115655D01*
X146140205Y-66248470D01*
X146390624Y-66334076D01*
X146600000Y-66241295D01*
X146600000Y-65120000D01*
X146800000Y-65120000D01*
X146800000Y-66241295D01*
X147009376Y-66334076D01*
X147259795Y-66248470D01*
X147488701Y-66115655D01*
X147687298Y-65940734D01*
X147847954Y-65730430D01*
X147964494Y-65492825D01*
X148014072Y-65329375D01*
X147920912Y-65120000D01*
X146800000Y-65120000D01*
X146600000Y-65120000D01*
X145479088Y-65120000D01*
X145385928Y-65329375D01*
X140500000Y-65329375D01*
X140500000Y-63929474D01*
X140502903Y-63900000D01*
X140495957Y-63829473D01*
X140491318Y-63782379D01*
X140457010Y-63669279D01*
X140401296Y-63565045D01*
X140326317Y-63473683D01*
X140303419Y-63454891D01*
X139400000Y-62551473D01*
X139400000Y-62162003D01*
X139420332Y-62131574D01*
X139473099Y-62004182D01*
X139500000Y-61868944D01*
X139500000Y-61731056D01*
X139473099Y-61595818D01*
X139420332Y-61468426D01*
X139343726Y-61353776D01*
X139246224Y-61256274D01*
X139131574Y-61179668D01*
X139004182Y-61126901D01*
X138969874Y-61120076D01*
X139043726Y-61046224D01*
X139120332Y-60931574D01*
X139173099Y-60804182D01*
X139200000Y-60668944D01*
X139200000Y-60531056D01*
X139173099Y-60395818D01*
X139120332Y-60268426D01*
X139043726Y-60153776D01*
X138946224Y-60056274D01*
X138862003Y-60000000D01*
X138868944Y-60000000D01*
X139004182Y-59973099D01*
X139131574Y-59920332D01*
X139246224Y-59843726D01*
X139300000Y-59789950D01*
X139353776Y-59843726D01*
X139468426Y-59920332D01*
X139595818Y-59973099D01*
X139731056Y-60000000D01*
X139868944Y-60000000D01*
X140004182Y-59973099D01*
X140131574Y-59920332D01*
X140246224Y-59843726D01*
X140343726Y-59746224D01*
X140420332Y-59631574D01*
X140473099Y-59504182D01*
X140500000Y-59368944D01*
X140500000Y-59231056D01*
X140473099Y-59095818D01*
X140420332Y-58968426D01*
X140400000Y-58937997D01*
X140400000Y-58329474D01*
X140402903Y-58300000D01*
X140391318Y-58182379D01*
X140357010Y-58069278D01*
X140320771Y-58001481D01*
X140301296Y-57965045D01*
X140226317Y-57873683D01*
X140203420Y-57854892D01*
X140048528Y-57700000D01*
X143351473Y-57700000D01*
X144300000Y-58648528D01*
X144300000Y-58648528D01*
G37*
X144300000Y-58648528D02*
X144300001Y-61970516D01*
X144297097Y-62000000D01*
X144308682Y-62117620D01*
X144325501Y-62173063D01*
X144342991Y-62230721D01*
X144398705Y-62334955D01*
X144473684Y-62426317D01*
X144496581Y-62445108D01*
X144934891Y-62883419D01*
X144953683Y-62906317D01*
X145045045Y-62981296D01*
X145113003Y-63017620D01*
X145149279Y-63037010D01*
X145262379Y-63071319D01*
X145380000Y-63082903D01*
X145409476Y-63080000D01*
X145603347Y-63080000D01*
X145655634Y-63177823D01*
X145811840Y-63368160D01*
X146002177Y-63524366D01*
X146219331Y-63640437D01*
X146454957Y-63711913D01*
X146599998Y-63726198D01*
X146599998Y-63798704D01*
X146390624Y-63705924D01*
X146140205Y-63791530D01*
X145911299Y-63924345D01*
X145712702Y-64099266D01*
X145552046Y-64309570D01*
X145435506Y-64547175D01*
X145385928Y-64710625D01*
X145479088Y-64920000D01*
X146600000Y-64920000D01*
X146600000Y-64900000D01*
X146800000Y-64900000D01*
X146800000Y-64920000D01*
X147920912Y-64920000D01*
X148014072Y-64710625D01*
X147964494Y-64547175D01*
X147847954Y-64309570D01*
X147687298Y-64099266D01*
X147488701Y-63924345D01*
X147259795Y-63791530D01*
X147009376Y-63705924D01*
X146800002Y-63798704D01*
X146800002Y-63726198D01*
X146945043Y-63711913D01*
X147180669Y-63640437D01*
X147397823Y-63524366D01*
X147588160Y-63368160D01*
X147744366Y-63177823D01*
X147860437Y-62960669D01*
X147931913Y-62725043D01*
X147956048Y-62480000D01*
X147931913Y-62234957D01*
X147860437Y-61999331D01*
X147744366Y-61782177D01*
X147588160Y-61591840D01*
X147397823Y-61435634D01*
X147180669Y-61319563D01*
X146945043Y-61248087D01*
X146761405Y-61230000D01*
X146638595Y-61230000D01*
X146454957Y-61248087D01*
X146219331Y-61319563D01*
X146002177Y-61435634D01*
X145811840Y-61591840D01*
X145655634Y-61782177D01*
X145612118Y-61863590D01*
X145500000Y-61751473D01*
X145500000Y-60290247D01*
X145539563Y-60420669D01*
X145655634Y-60637823D01*
X145811840Y-60828160D01*
X146002177Y-60984366D01*
X146219331Y-61100437D01*
X146454957Y-61171913D01*
X146638595Y-61190000D01*
X146761405Y-61190000D01*
X146945043Y-61171913D01*
X147180669Y-61100437D01*
X147397823Y-60984366D01*
X147588160Y-60828160D01*
X147744366Y-60637823D01*
X147860437Y-60420669D01*
X147931913Y-60185043D01*
X147956048Y-59940000D01*
X147931913Y-59694957D01*
X147860437Y-59459331D01*
X147744366Y-59242177D01*
X147588160Y-59051840D01*
X147397823Y-58895634D01*
X147180669Y-58779563D01*
X146945043Y-58708087D01*
X146761405Y-58690000D01*
X146638595Y-58690000D01*
X146454957Y-58708087D01*
X146219331Y-58779563D01*
X146002177Y-58895634D01*
X145811840Y-59051840D01*
X145655634Y-59242177D01*
X145539563Y-59459331D01*
X145500000Y-59589753D01*
X145500000Y-58443738D01*
X145515803Y-58473303D01*
X145565789Y-58534211D01*
X145626697Y-58584197D01*
X145696186Y-58621340D01*
X145771586Y-58644212D01*
X145850000Y-58651935D01*
X147550000Y-58651935D01*
X147628414Y-58644212D01*
X147703814Y-58621340D01*
X147773303Y-58584197D01*
X147834211Y-58534211D01*
X147884197Y-58473303D01*
X147921340Y-58403814D01*
X147944212Y-58328414D01*
X147951935Y-58250000D01*
X147951935Y-58000462D01*
X148100000Y-58148528D01*
X148100001Y-81951471D01*
X145851473Y-84200000D01*
X143476935Y-84200000D01*
X143464408Y-84072814D01*
X143427309Y-83950515D01*
X143367064Y-83837804D01*
X143285988Y-83739012D01*
X143187196Y-83657936D01*
X143074485Y-83597691D01*
X142952186Y-83560592D01*
X142825000Y-83548065D01*
X142306051Y-83548065D01*
X142470043Y-83531913D01*
X142705669Y-83460437D01*
X142922823Y-83344366D01*
X143113160Y-83188160D01*
X143269366Y-82997823D01*
X143385437Y-82780669D01*
X143456913Y-82545043D01*
X143481048Y-82300000D01*
X143456913Y-82054957D01*
X143385437Y-81819331D01*
X143269366Y-81602177D01*
X143113160Y-81411840D01*
X142922823Y-81255634D01*
X142705669Y-81139563D01*
X142470043Y-81068087D01*
X142286405Y-81050000D01*
X142470043Y-81031913D01*
X142705669Y-80960437D01*
X142922823Y-80844366D01*
X143113160Y-80688160D01*
X143269366Y-80497823D01*
X143385437Y-80280669D01*
X143456913Y-80045043D01*
X143481048Y-79800000D01*
X143456913Y-79554957D01*
X143385437Y-79319331D01*
X143269366Y-79102177D01*
X143113160Y-78911840D01*
X142922823Y-78755634D01*
X142705669Y-78639563D01*
X142470043Y-78568087D01*
X142286405Y-78550000D01*
X142470043Y-78531913D01*
X142705669Y-78460437D01*
X142922823Y-78344366D01*
X143113160Y-78188160D01*
X143269366Y-77997823D01*
X143385437Y-77780669D01*
X143456913Y-77545043D01*
X143481048Y-77300000D01*
X143456913Y-77054957D01*
X143385437Y-76819331D01*
X143269366Y-76602177D01*
X143113160Y-76411840D01*
X142922823Y-76255634D01*
X142705669Y-76139563D01*
X142470043Y-76068087D01*
X142286405Y-76050000D01*
X142470043Y-76031913D01*
X142705669Y-75960437D01*
X142922823Y-75844366D01*
X143113160Y-75688160D01*
X143269366Y-75497823D01*
X143385437Y-75280669D01*
X143456913Y-75045043D01*
X143481048Y-74800000D01*
X143456913Y-74554957D01*
X143385437Y-74319331D01*
X143269366Y-74102177D01*
X143113160Y-73911840D01*
X142922823Y-73755634D01*
X142705669Y-73639563D01*
X142572913Y-73599292D01*
X142669123Y-73576079D01*
X142909540Y-73464915D01*
X143123650Y-73308984D01*
X143303226Y-73114279D01*
X143441366Y-72888281D01*
X143532762Y-72639676D01*
X143539072Y-72609375D01*
X143445912Y-72400000D01*
X142200000Y-72400000D01*
X142200000Y-72420000D01*
X142000000Y-72420000D01*
X142000000Y-72400000D01*
X140754088Y-72400000D01*
X140660928Y-72609375D01*
X140667238Y-72639676D01*
X140758634Y-72888281D01*
X140896774Y-73114279D01*
X141076350Y-73308984D01*
X141290460Y-73464915D01*
X141530877Y-73576079D01*
X141627087Y-73599292D01*
X141494331Y-73639563D01*
X141277177Y-73755634D01*
X141086840Y-73911840D01*
X140930634Y-74102177D01*
X140814563Y-74319331D01*
X140743087Y-74554957D01*
X140718952Y-74800000D01*
X140743087Y-75045043D01*
X140814563Y-75280669D01*
X140930634Y-75497823D01*
X141086840Y-75688160D01*
X141277177Y-75844366D01*
X141494331Y-75960437D01*
X141729957Y-76031913D01*
X141913595Y-76050000D01*
X141729957Y-76068087D01*
X141494331Y-76139563D01*
X141277177Y-76255634D01*
X141086840Y-76411840D01*
X140930634Y-76602177D01*
X140814563Y-76819331D01*
X140743087Y-77054957D01*
X140718952Y-77300000D01*
X140743087Y-77545043D01*
X140814563Y-77780669D01*
X140930634Y-77997823D01*
X141086840Y-78188160D01*
X141277177Y-78344366D01*
X141494331Y-78460437D01*
X141729957Y-78531913D01*
X141913595Y-78550000D01*
X141729957Y-78568087D01*
X141494331Y-78639563D01*
X141277177Y-78755634D01*
X141086840Y-78911840D01*
X140930634Y-79102177D01*
X140814563Y-79319331D01*
X140743087Y-79554957D01*
X140718952Y-79800000D01*
X140743087Y-80045043D01*
X140814563Y-80280669D01*
X140930634Y-80497823D01*
X141086840Y-80688160D01*
X141277177Y-80844366D01*
X141494331Y-80960437D01*
X141729957Y-81031913D01*
X141913595Y-81050000D01*
X141729957Y-81068087D01*
X141494331Y-81139563D01*
X141277177Y-81255634D01*
X141086840Y-81411840D01*
X140930634Y-81602177D01*
X140814563Y-81819331D01*
X140800010Y-81867306D01*
X140800010Y-81329483D01*
X140802913Y-81300009D01*
X140791328Y-81182389D01*
X140771681Y-81117621D01*
X140757020Y-81069289D01*
X140701306Y-80965055D01*
X140626327Y-80873693D01*
X140603424Y-80854897D01*
X140500000Y-80751473D01*
X140500000Y-76562003D01*
X140520332Y-76531574D01*
X140573099Y-76404182D01*
X140600000Y-76268944D01*
X140600000Y-76131056D01*
X140573099Y-75995818D01*
X140520332Y-75868426D01*
X140500000Y-75837997D01*
X140500000Y-71990625D01*
X140660928Y-71990625D01*
X140754088Y-72200000D01*
X142000000Y-72200000D01*
X142000000Y-71074075D01*
X142200000Y-71074075D01*
X142200000Y-72200000D01*
X143445912Y-72200000D01*
X143539072Y-71990625D01*
X143532762Y-71960324D01*
X143441366Y-71711719D01*
X143303226Y-71485721D01*
X143123650Y-71291016D01*
X142909540Y-71135085D01*
X142669123Y-71023921D01*
X142411639Y-70961796D01*
X142200000Y-71074075D01*
X142000000Y-71074075D01*
X141788361Y-70961796D01*
X141530877Y-71023921D01*
X141290460Y-71135085D01*
X141076350Y-71291016D01*
X140896774Y-71485721D01*
X140758634Y-71711719D01*
X140667238Y-71960324D01*
X140660928Y-71990625D01*
X140500000Y-71990625D01*
X140500000Y-65329375D01*
X145385928Y-65329375D01*
X145435506Y-65492825D01*
X145552046Y-65730430D01*
X145712702Y-65940734D01*
X145911299Y-66115655D01*
X146140205Y-66248470D01*
X146390624Y-66334076D01*
X146600000Y-66241295D01*
X146600000Y-65120000D01*
X146800000Y-65120000D01*
X146800000Y-66241295D01*
X147009376Y-66334076D01*
X147259795Y-66248470D01*
X147488701Y-66115655D01*
X147687298Y-65940734D01*
X147847954Y-65730430D01*
X147964494Y-65492825D01*
X148014072Y-65329375D01*
X147920912Y-65120000D01*
X146800000Y-65120000D01*
X146600000Y-65120000D01*
X145479088Y-65120000D01*
X145385928Y-65329375D01*
X140500000Y-65329375D01*
X140500000Y-63929474D01*
X140502903Y-63900000D01*
X140495957Y-63829473D01*
X140491318Y-63782379D01*
X140457010Y-63669279D01*
X140401296Y-63565045D01*
X140326317Y-63473683D01*
X140303419Y-63454891D01*
X139400000Y-62551473D01*
X139400000Y-62162003D01*
X139420332Y-62131574D01*
X139473099Y-62004182D01*
X139500000Y-61868944D01*
X139500000Y-61731056D01*
X139473099Y-61595818D01*
X139420332Y-61468426D01*
X139343726Y-61353776D01*
X139246224Y-61256274D01*
X139131574Y-61179668D01*
X139004182Y-61126901D01*
X138969874Y-61120076D01*
X139043726Y-61046224D01*
X139120332Y-60931574D01*
X139173099Y-60804182D01*
X139200000Y-60668944D01*
X139200000Y-60531056D01*
X139173099Y-60395818D01*
X139120332Y-60268426D01*
X139043726Y-60153776D01*
X138946224Y-60056274D01*
X138862003Y-60000000D01*
X138868944Y-60000000D01*
X139004182Y-59973099D01*
X139131574Y-59920332D01*
X139246224Y-59843726D01*
X139300000Y-59789950D01*
X139353776Y-59843726D01*
X139468426Y-59920332D01*
X139595818Y-59973099D01*
X139731056Y-60000000D01*
X139868944Y-60000000D01*
X140004182Y-59973099D01*
X140131574Y-59920332D01*
X140246224Y-59843726D01*
X140343726Y-59746224D01*
X140420332Y-59631574D01*
X140473099Y-59504182D01*
X140500000Y-59368944D01*
X140500000Y-59231056D01*
X140473099Y-59095818D01*
X140420332Y-58968426D01*
X140400000Y-58937997D01*
X140400000Y-58329474D01*
X140402903Y-58300000D01*
X140391318Y-58182379D01*
X140357010Y-58069278D01*
X140320771Y-58001481D01*
X140301296Y-57965045D01*
X140226317Y-57873683D01*
X140203420Y-57854892D01*
X140048528Y-57700000D01*
X143351473Y-57700000D01*
X144300000Y-58648528D01*
M02*
