G04 #@! TF.GenerationSoftware,KiCad,Pcbnew,5.1.4+dfsg1-1*
G04 #@! TF.CreationDate,2020-04-28T18:32:34+04:00*
G04 #@! TF.ProjectId,RailLink_Adapter,5261696c-4c69-46e6-9b5f-416461707465,rev?*
G04 #@! TF.SameCoordinates,Original*
G04 #@! TF.FileFunction,Soldermask,Bot*
G04 #@! TF.FilePolarity,Negative*
%FSLAX46Y46*%
G04 Gerber Fmt 4.6, Leading zero omitted, Abs format (unit mm)*
G04 Created by KiCad (PCBNEW 5.1.4+dfsg1-1) date 2020-04-28 18:32:34*
%MOMM*%
%LPD*%
G04 APERTURE LIST*
%ADD10C,0.050000*%
%ADD11C,0.100000*%
G04 APERTURE END LIST*
D10*
X110000000Y-58000000D02*
G75*
G02X113000000Y-55000000I3000000J0D01*
G01*
X113000000Y-90000000D02*
G75*
G02X110000000Y-87000000I0J3000000D01*
G01*
X152000000Y-87000000D02*
G75*
G02X149000000Y-90000000I-3000000J0D01*
G01*
X149000000Y-55000000D02*
G75*
G02X152000000Y-58000000I0J-3000000D01*
G01*
X110000000Y-87000000D02*
X110000000Y-58000000D01*
X149000000Y-90000000D02*
X113000000Y-90000000D01*
X152000000Y-58000000D02*
X152000000Y-87000000D01*
X113000000Y-55000000D02*
X149000000Y-55000000D01*
D11*
G36*
X142983600Y-83902989D02*
G01*
X143016652Y-83913015D01*
X143047103Y-83929292D01*
X143073799Y-83951201D01*
X143095708Y-83977897D01*
X143111985Y-84008348D01*
X143122011Y-84041400D01*
X143126000Y-84081903D01*
X143126000Y-85518097D01*
X143122011Y-85558600D01*
X143111985Y-85591652D01*
X143095708Y-85622103D01*
X143073799Y-85648799D01*
X143047103Y-85670708D01*
X143016652Y-85686985D01*
X142983600Y-85697011D01*
X142943097Y-85701000D01*
X141256903Y-85701000D01*
X141216400Y-85697011D01*
X141183348Y-85686985D01*
X141152897Y-85670708D01*
X141126201Y-85648799D01*
X141104292Y-85622103D01*
X141088015Y-85591652D01*
X141077989Y-85558600D01*
X141074000Y-85518097D01*
X141074000Y-84081903D01*
X141077989Y-84041400D01*
X141088015Y-84008348D01*
X141104292Y-83977897D01*
X141126201Y-83951201D01*
X141152897Y-83929292D01*
X141183348Y-83913015D01*
X141216400Y-83902989D01*
X141256903Y-83899000D01*
X142943097Y-83899000D01*
X142983600Y-83902989D01*
X142983600Y-83902989D01*
G37*
G36*
X125919294Y-82958633D02*
G01*
X126091695Y-83010931D01*
X126250583Y-83095858D01*
X126389849Y-83210151D01*
X126504142Y-83349417D01*
X126589069Y-83508305D01*
X126641367Y-83680706D01*
X126659025Y-83860000D01*
X126641367Y-84039294D01*
X126589069Y-84211695D01*
X126504142Y-84370583D01*
X126389849Y-84509849D01*
X126250583Y-84624142D01*
X126091695Y-84709069D01*
X125919294Y-84761367D01*
X125784931Y-84774600D01*
X125695069Y-84774600D01*
X125560706Y-84761367D01*
X125388305Y-84709069D01*
X125229417Y-84624142D01*
X125090151Y-84509849D01*
X124975858Y-84370583D01*
X124890931Y-84211695D01*
X124838633Y-84039294D01*
X124820975Y-83860000D01*
X124838633Y-83680706D01*
X124890931Y-83508305D01*
X124975858Y-83349417D01*
X125090151Y-83210151D01*
X125229417Y-83095858D01*
X125388305Y-83010931D01*
X125560706Y-82958633D01*
X125695069Y-82945400D01*
X125784931Y-82945400D01*
X125919294Y-82958633D01*
X125919294Y-82958633D01*
G37*
G36*
X123379294Y-82958633D02*
G01*
X123551695Y-83010931D01*
X123710583Y-83095858D01*
X123849849Y-83210151D01*
X123964142Y-83349417D01*
X124049069Y-83508305D01*
X124101367Y-83680706D01*
X124119025Y-83860000D01*
X124101367Y-84039294D01*
X124049069Y-84211695D01*
X123964142Y-84370583D01*
X123849849Y-84509849D01*
X123710583Y-84624142D01*
X123551695Y-84709069D01*
X123379294Y-84761367D01*
X123244931Y-84774600D01*
X123155069Y-84774600D01*
X123020706Y-84761367D01*
X122848305Y-84709069D01*
X122689417Y-84624142D01*
X122550151Y-84509849D01*
X122435858Y-84370583D01*
X122350931Y-84211695D01*
X122298633Y-84039294D01*
X122280975Y-83860000D01*
X122298633Y-83680706D01*
X122350931Y-83508305D01*
X122435858Y-83349417D01*
X122550151Y-83210151D01*
X122689417Y-83095858D01*
X122848305Y-83010931D01*
X123020706Y-82958633D01*
X123155069Y-82945400D01*
X123244931Y-82945400D01*
X123379294Y-82958633D01*
X123379294Y-82958633D01*
G37*
G36*
X142335443Y-81405519D02*
G01*
X142401627Y-81412037D01*
X142571466Y-81463557D01*
X142727991Y-81547222D01*
X142763729Y-81576552D01*
X142865186Y-81659814D01*
X142948448Y-81761271D01*
X142977778Y-81797009D01*
X143061443Y-81953534D01*
X143112963Y-82123373D01*
X143130359Y-82300000D01*
X143112963Y-82476627D01*
X143061443Y-82646466D01*
X142977778Y-82802991D01*
X142948448Y-82838729D01*
X142865186Y-82940186D01*
X142778980Y-83010932D01*
X142727991Y-83052778D01*
X142571466Y-83136443D01*
X142401627Y-83187963D01*
X142335442Y-83194482D01*
X142269260Y-83201000D01*
X141930740Y-83201000D01*
X141864558Y-83194482D01*
X141798373Y-83187963D01*
X141628534Y-83136443D01*
X141472009Y-83052778D01*
X141421020Y-83010932D01*
X141334814Y-82940186D01*
X141251552Y-82838729D01*
X141222222Y-82802991D01*
X141138557Y-82646466D01*
X141087037Y-82476627D01*
X141069641Y-82300000D01*
X141087037Y-82123373D01*
X141138557Y-81953534D01*
X141222222Y-81797009D01*
X141251552Y-81761271D01*
X141334814Y-81659814D01*
X141436271Y-81576552D01*
X141472009Y-81547222D01*
X141628534Y-81463557D01*
X141798373Y-81412037D01*
X141864557Y-81405519D01*
X141930740Y-81399000D01*
X142269260Y-81399000D01*
X142335443Y-81405519D01*
X142335443Y-81405519D01*
G37*
G36*
X123379294Y-80418633D02*
G01*
X123551695Y-80470931D01*
X123710583Y-80555858D01*
X123849849Y-80670151D01*
X123964142Y-80809417D01*
X124049069Y-80968305D01*
X124101367Y-81140706D01*
X124119025Y-81320000D01*
X124101367Y-81499294D01*
X124049069Y-81671695D01*
X123964142Y-81830583D01*
X123849849Y-81969849D01*
X123710583Y-82084142D01*
X123551695Y-82169069D01*
X123379294Y-82221367D01*
X123244931Y-82234600D01*
X123155069Y-82234600D01*
X123020706Y-82221367D01*
X122848305Y-82169069D01*
X122689417Y-82084142D01*
X122550151Y-81969849D01*
X122435858Y-81830583D01*
X122350931Y-81671695D01*
X122298633Y-81499294D01*
X122280975Y-81320000D01*
X122298633Y-81140706D01*
X122350931Y-80968305D01*
X122435858Y-80809417D01*
X122550151Y-80670151D01*
X122689417Y-80555858D01*
X122848305Y-80470931D01*
X123020706Y-80418633D01*
X123155069Y-80405400D01*
X123244931Y-80405400D01*
X123379294Y-80418633D01*
X123379294Y-80418633D01*
G37*
G36*
X125919294Y-80418633D02*
G01*
X126091695Y-80470931D01*
X126250583Y-80555858D01*
X126389849Y-80670151D01*
X126504142Y-80809417D01*
X126589069Y-80968305D01*
X126641367Y-81140706D01*
X126659025Y-81320000D01*
X126641367Y-81499294D01*
X126589069Y-81671695D01*
X126504142Y-81830583D01*
X126389849Y-81969849D01*
X126250583Y-82084142D01*
X126091695Y-82169069D01*
X125919294Y-82221367D01*
X125784931Y-82234600D01*
X125695069Y-82234600D01*
X125560706Y-82221367D01*
X125388305Y-82169069D01*
X125229417Y-82084142D01*
X125090151Y-81969849D01*
X124975858Y-81830583D01*
X124890931Y-81671695D01*
X124838633Y-81499294D01*
X124820975Y-81320000D01*
X124838633Y-81140706D01*
X124890931Y-80968305D01*
X124975858Y-80809417D01*
X125090151Y-80670151D01*
X125229417Y-80555858D01*
X125388305Y-80470931D01*
X125560706Y-80418633D01*
X125695069Y-80405400D01*
X125784931Y-80405400D01*
X125919294Y-80418633D01*
X125919294Y-80418633D01*
G37*
G36*
X142335443Y-78905519D02*
G01*
X142401627Y-78912037D01*
X142571466Y-78963557D01*
X142727991Y-79047222D01*
X142763729Y-79076552D01*
X142865186Y-79159814D01*
X142948448Y-79261271D01*
X142977778Y-79297009D01*
X143061443Y-79453534D01*
X143112963Y-79623373D01*
X143130359Y-79800000D01*
X143112963Y-79976627D01*
X143061443Y-80146466D01*
X142977778Y-80302991D01*
X142948448Y-80338729D01*
X142865186Y-80440186D01*
X142763729Y-80523448D01*
X142727991Y-80552778D01*
X142571466Y-80636443D01*
X142401627Y-80687963D01*
X142335443Y-80694481D01*
X142269260Y-80701000D01*
X141930740Y-80701000D01*
X141864557Y-80694481D01*
X141798373Y-80687963D01*
X141628534Y-80636443D01*
X141472009Y-80552778D01*
X141436271Y-80523448D01*
X141334814Y-80440186D01*
X141251552Y-80338729D01*
X141222222Y-80302991D01*
X141138557Y-80146466D01*
X141087037Y-79976627D01*
X141069641Y-79800000D01*
X141087037Y-79623373D01*
X141138557Y-79453534D01*
X141222222Y-79297009D01*
X141251552Y-79261271D01*
X141334814Y-79159814D01*
X141436271Y-79076552D01*
X141472009Y-79047222D01*
X141628534Y-78963557D01*
X141798373Y-78912037D01*
X141864557Y-78905519D01*
X141930740Y-78899000D01*
X142269260Y-78899000D01*
X142335443Y-78905519D01*
X142335443Y-78905519D01*
G37*
G36*
X125919294Y-77878633D02*
G01*
X126091695Y-77930931D01*
X126250583Y-78015858D01*
X126389849Y-78130151D01*
X126504142Y-78269417D01*
X126589069Y-78428305D01*
X126641367Y-78600706D01*
X126659025Y-78780000D01*
X126641367Y-78959294D01*
X126589069Y-79131695D01*
X126504142Y-79290583D01*
X126389849Y-79429849D01*
X126250583Y-79544142D01*
X126091695Y-79629069D01*
X125919294Y-79681367D01*
X125784931Y-79694600D01*
X125695069Y-79694600D01*
X125560706Y-79681367D01*
X125388305Y-79629069D01*
X125229417Y-79544142D01*
X125090151Y-79429849D01*
X124975858Y-79290583D01*
X124890931Y-79131695D01*
X124838633Y-78959294D01*
X124820975Y-78780000D01*
X124838633Y-78600706D01*
X124890931Y-78428305D01*
X124975858Y-78269417D01*
X125090151Y-78130151D01*
X125229417Y-78015858D01*
X125388305Y-77930931D01*
X125560706Y-77878633D01*
X125695069Y-77865400D01*
X125784931Y-77865400D01*
X125919294Y-77878633D01*
X125919294Y-77878633D01*
G37*
G36*
X123379294Y-77878633D02*
G01*
X123551695Y-77930931D01*
X123710583Y-78015858D01*
X123849849Y-78130151D01*
X123964142Y-78269417D01*
X124049069Y-78428305D01*
X124101367Y-78600706D01*
X124119025Y-78780000D01*
X124101367Y-78959294D01*
X124049069Y-79131695D01*
X123964142Y-79290583D01*
X123849849Y-79429849D01*
X123710583Y-79544142D01*
X123551695Y-79629069D01*
X123379294Y-79681367D01*
X123244931Y-79694600D01*
X123155069Y-79694600D01*
X123020706Y-79681367D01*
X122848305Y-79629069D01*
X122689417Y-79544142D01*
X122550151Y-79429849D01*
X122435858Y-79290583D01*
X122350931Y-79131695D01*
X122298633Y-78959294D01*
X122280975Y-78780000D01*
X122298633Y-78600706D01*
X122350931Y-78428305D01*
X122435858Y-78269417D01*
X122550151Y-78130151D01*
X122689417Y-78015858D01*
X122848305Y-77930931D01*
X123020706Y-77878633D01*
X123155069Y-77865400D01*
X123244931Y-77865400D01*
X123379294Y-77878633D01*
X123379294Y-77878633D01*
G37*
G36*
X115050442Y-76665518D02*
G01*
X115116627Y-76672037D01*
X115286466Y-76723557D01*
X115442991Y-76807222D01*
X115478729Y-76836552D01*
X115580186Y-76919814D01*
X115649390Y-77004141D01*
X115692778Y-77057009D01*
X115776443Y-77213534D01*
X115827963Y-77383373D01*
X115845359Y-77560000D01*
X115827963Y-77736627D01*
X115776443Y-77906466D01*
X115692778Y-78062991D01*
X115663448Y-78098729D01*
X115580186Y-78200186D01*
X115478729Y-78283448D01*
X115442991Y-78312778D01*
X115286466Y-78396443D01*
X115116627Y-78447963D01*
X115050442Y-78454482D01*
X114984260Y-78461000D01*
X114895740Y-78461000D01*
X114829558Y-78454482D01*
X114763373Y-78447963D01*
X114593534Y-78396443D01*
X114437009Y-78312778D01*
X114401271Y-78283448D01*
X114299814Y-78200186D01*
X114216552Y-78098729D01*
X114187222Y-78062991D01*
X114103557Y-77906466D01*
X114052037Y-77736627D01*
X114034641Y-77560000D01*
X114052037Y-77383373D01*
X114103557Y-77213534D01*
X114187222Y-77057009D01*
X114230610Y-77004141D01*
X114299814Y-76919814D01*
X114401271Y-76836552D01*
X114437009Y-76807222D01*
X114593534Y-76723557D01*
X114763373Y-76672037D01*
X114829558Y-76665518D01*
X114895740Y-76659000D01*
X114984260Y-76659000D01*
X115050442Y-76665518D01*
X115050442Y-76665518D01*
G37*
G36*
X112510442Y-76665518D02*
G01*
X112576627Y-76672037D01*
X112746466Y-76723557D01*
X112902991Y-76807222D01*
X112938729Y-76836552D01*
X113040186Y-76919814D01*
X113109390Y-77004141D01*
X113152778Y-77057009D01*
X113236443Y-77213534D01*
X113287963Y-77383373D01*
X113305359Y-77560000D01*
X113287963Y-77736627D01*
X113236443Y-77906466D01*
X113152778Y-78062991D01*
X113123448Y-78098729D01*
X113040186Y-78200186D01*
X112938729Y-78283448D01*
X112902991Y-78312778D01*
X112746466Y-78396443D01*
X112576627Y-78447963D01*
X112510442Y-78454482D01*
X112444260Y-78461000D01*
X112355740Y-78461000D01*
X112289558Y-78454482D01*
X112223373Y-78447963D01*
X112053534Y-78396443D01*
X111897009Y-78312778D01*
X111861271Y-78283448D01*
X111759814Y-78200186D01*
X111676552Y-78098729D01*
X111647222Y-78062991D01*
X111563557Y-77906466D01*
X111512037Y-77736627D01*
X111494641Y-77560000D01*
X111512037Y-77383373D01*
X111563557Y-77213534D01*
X111647222Y-77057009D01*
X111690610Y-77004141D01*
X111759814Y-76919814D01*
X111861271Y-76836552D01*
X111897009Y-76807222D01*
X112053534Y-76723557D01*
X112223373Y-76672037D01*
X112289558Y-76665518D01*
X112355740Y-76659000D01*
X112444260Y-76659000D01*
X112510442Y-76665518D01*
X112510442Y-76665518D01*
G37*
G36*
X132810443Y-76585519D02*
G01*
X132876627Y-76592037D01*
X133046466Y-76643557D01*
X133046468Y-76643558D01*
X133076882Y-76659815D01*
X133202991Y-76727222D01*
X133231456Y-76750583D01*
X133340186Y-76839814D01*
X133405839Y-76919814D01*
X133452778Y-76977009D01*
X133536443Y-77133534D01*
X133587963Y-77303373D01*
X133605359Y-77480000D01*
X133587963Y-77656627D01*
X133536443Y-77826466D01*
X133452778Y-77982991D01*
X133425805Y-78015858D01*
X133340186Y-78120186D01*
X133257598Y-78187963D01*
X133202991Y-78232778D01*
X133046466Y-78316443D01*
X132876627Y-78367963D01*
X132810442Y-78374482D01*
X132744260Y-78381000D01*
X132655740Y-78381000D01*
X132589558Y-78374482D01*
X132523373Y-78367963D01*
X132353534Y-78316443D01*
X132197009Y-78232778D01*
X132142402Y-78187963D01*
X132059814Y-78120186D01*
X131974195Y-78015858D01*
X131947222Y-77982991D01*
X131863557Y-77826466D01*
X131812037Y-77656627D01*
X131794641Y-77480000D01*
X131812037Y-77303373D01*
X131863557Y-77133534D01*
X131947222Y-76977009D01*
X131994161Y-76919814D01*
X132059814Y-76839814D01*
X132168544Y-76750583D01*
X132197009Y-76727222D01*
X132323118Y-76659815D01*
X132353532Y-76643558D01*
X132353534Y-76643557D01*
X132523373Y-76592037D01*
X132589557Y-76585519D01*
X132655740Y-76579000D01*
X132744260Y-76579000D01*
X132810443Y-76585519D01*
X132810443Y-76585519D01*
G37*
G36*
X135350443Y-76585519D02*
G01*
X135416627Y-76592037D01*
X135586466Y-76643557D01*
X135586468Y-76643558D01*
X135616882Y-76659815D01*
X135742991Y-76727222D01*
X135771456Y-76750583D01*
X135880186Y-76839814D01*
X135945839Y-76919814D01*
X135992778Y-76977009D01*
X136076443Y-77133534D01*
X136127963Y-77303373D01*
X136145359Y-77480000D01*
X136127963Y-77656627D01*
X136076443Y-77826466D01*
X135992778Y-77982991D01*
X135965805Y-78015858D01*
X135880186Y-78120186D01*
X135797598Y-78187963D01*
X135742991Y-78232778D01*
X135586466Y-78316443D01*
X135416627Y-78367963D01*
X135350442Y-78374482D01*
X135284260Y-78381000D01*
X135195740Y-78381000D01*
X135129558Y-78374482D01*
X135063373Y-78367963D01*
X134893534Y-78316443D01*
X134737009Y-78232778D01*
X134682402Y-78187963D01*
X134599814Y-78120186D01*
X134514195Y-78015858D01*
X134487222Y-77982991D01*
X134403557Y-77826466D01*
X134352037Y-77656627D01*
X134334641Y-77480000D01*
X134352037Y-77303373D01*
X134403557Y-77133534D01*
X134487222Y-76977009D01*
X134534161Y-76919814D01*
X134599814Y-76839814D01*
X134708544Y-76750583D01*
X134737009Y-76727222D01*
X134863118Y-76659815D01*
X134893532Y-76643558D01*
X134893534Y-76643557D01*
X135063373Y-76592037D01*
X135129557Y-76585519D01*
X135195740Y-76579000D01*
X135284260Y-76579000D01*
X135350443Y-76585519D01*
X135350443Y-76585519D01*
G37*
G36*
X142335443Y-76405519D02*
G01*
X142401627Y-76412037D01*
X142571466Y-76463557D01*
X142727991Y-76547222D01*
X142763729Y-76576552D01*
X142865186Y-76659814D01*
X142920505Y-76727222D01*
X142977778Y-76797009D01*
X143061443Y-76953534D01*
X143112963Y-77123373D01*
X143130359Y-77300000D01*
X143112963Y-77476627D01*
X143061443Y-77646466D01*
X142977778Y-77802991D01*
X142958512Y-77826466D01*
X142865186Y-77940186D01*
X142772978Y-78015858D01*
X142727991Y-78052778D01*
X142727989Y-78052779D01*
X142583238Y-78130151D01*
X142571466Y-78136443D01*
X142401627Y-78187963D01*
X142335442Y-78194482D01*
X142269260Y-78201000D01*
X141930740Y-78201000D01*
X141864558Y-78194482D01*
X141798373Y-78187963D01*
X141628534Y-78136443D01*
X141616763Y-78130151D01*
X141472011Y-78052779D01*
X141472009Y-78052778D01*
X141427022Y-78015858D01*
X141334814Y-77940186D01*
X141241488Y-77826466D01*
X141222222Y-77802991D01*
X141138557Y-77646466D01*
X141087037Y-77476627D01*
X141069641Y-77300000D01*
X141087037Y-77123373D01*
X141138557Y-76953534D01*
X141222222Y-76797009D01*
X141279495Y-76727222D01*
X141334814Y-76659814D01*
X141436271Y-76576552D01*
X141472009Y-76547222D01*
X141628534Y-76463557D01*
X141798373Y-76412037D01*
X141864557Y-76405519D01*
X141930740Y-76399000D01*
X142269260Y-76399000D01*
X142335443Y-76405519D01*
X142335443Y-76405519D01*
G37*
G36*
X125919294Y-75338633D02*
G01*
X126091695Y-75390931D01*
X126250583Y-75475858D01*
X126389849Y-75590151D01*
X126504142Y-75729417D01*
X126589069Y-75888305D01*
X126641367Y-76060706D01*
X126659025Y-76240000D01*
X126641367Y-76419294D01*
X126589069Y-76591695D01*
X126504142Y-76750583D01*
X126389849Y-76889849D01*
X126250583Y-77004142D01*
X126091695Y-77089069D01*
X125919294Y-77141367D01*
X125784931Y-77154600D01*
X125695069Y-77154600D01*
X125560706Y-77141367D01*
X125388305Y-77089069D01*
X125229417Y-77004142D01*
X125090151Y-76889849D01*
X124975858Y-76750583D01*
X124890931Y-76591695D01*
X124838633Y-76419294D01*
X124820975Y-76240000D01*
X124838633Y-76060706D01*
X124890931Y-75888305D01*
X124975858Y-75729417D01*
X125090151Y-75590151D01*
X125229417Y-75475858D01*
X125388305Y-75390931D01*
X125560706Y-75338633D01*
X125695069Y-75325400D01*
X125784931Y-75325400D01*
X125919294Y-75338633D01*
X125919294Y-75338633D01*
G37*
G36*
X123379294Y-75338633D02*
G01*
X123551695Y-75390931D01*
X123710583Y-75475858D01*
X123849849Y-75590151D01*
X123964142Y-75729417D01*
X124049069Y-75888305D01*
X124101367Y-76060706D01*
X124119025Y-76240000D01*
X124101367Y-76419294D01*
X124049069Y-76591695D01*
X123964142Y-76750583D01*
X123849849Y-76889849D01*
X123710583Y-77004142D01*
X123551695Y-77089069D01*
X123379294Y-77141367D01*
X123244931Y-77154600D01*
X123155069Y-77154600D01*
X123020706Y-77141367D01*
X122848305Y-77089069D01*
X122689417Y-77004142D01*
X122550151Y-76889849D01*
X122435858Y-76750583D01*
X122350931Y-76591695D01*
X122298633Y-76419294D01*
X122280975Y-76240000D01*
X122298633Y-76060706D01*
X122350931Y-75888305D01*
X122435858Y-75729417D01*
X122550151Y-75590151D01*
X122689417Y-75475858D01*
X122848305Y-75390931D01*
X123020706Y-75338633D01*
X123155069Y-75325400D01*
X123244931Y-75325400D01*
X123379294Y-75338633D01*
X123379294Y-75338633D01*
G37*
G36*
X115050442Y-74125518D02*
G01*
X115116627Y-74132037D01*
X115286466Y-74183557D01*
X115442991Y-74267222D01*
X115478729Y-74296552D01*
X115580186Y-74379814D01*
X115649390Y-74464141D01*
X115692778Y-74517009D01*
X115776443Y-74673534D01*
X115827963Y-74843373D01*
X115845359Y-75020000D01*
X115827963Y-75196627D01*
X115776443Y-75366466D01*
X115692778Y-75522991D01*
X115668332Y-75552778D01*
X115580186Y-75660186D01*
X115478729Y-75743448D01*
X115442991Y-75772778D01*
X115286466Y-75856443D01*
X115116627Y-75907963D01*
X115050443Y-75914481D01*
X114984260Y-75921000D01*
X114895740Y-75921000D01*
X114829557Y-75914481D01*
X114763373Y-75907963D01*
X114593534Y-75856443D01*
X114437009Y-75772778D01*
X114401271Y-75743448D01*
X114299814Y-75660186D01*
X114211668Y-75552778D01*
X114187222Y-75522991D01*
X114103557Y-75366466D01*
X114052037Y-75196627D01*
X114034641Y-75020000D01*
X114052037Y-74843373D01*
X114103557Y-74673534D01*
X114187222Y-74517009D01*
X114230610Y-74464141D01*
X114299814Y-74379814D01*
X114401271Y-74296552D01*
X114437009Y-74267222D01*
X114593534Y-74183557D01*
X114763373Y-74132037D01*
X114829558Y-74125518D01*
X114895740Y-74119000D01*
X114984260Y-74119000D01*
X115050442Y-74125518D01*
X115050442Y-74125518D01*
G37*
G36*
X112510442Y-74125518D02*
G01*
X112576627Y-74132037D01*
X112746466Y-74183557D01*
X112902991Y-74267222D01*
X112938729Y-74296552D01*
X113040186Y-74379814D01*
X113109390Y-74464141D01*
X113152778Y-74517009D01*
X113236443Y-74673534D01*
X113287963Y-74843373D01*
X113305359Y-75020000D01*
X113287963Y-75196627D01*
X113236443Y-75366466D01*
X113152778Y-75522991D01*
X113128332Y-75552778D01*
X113040186Y-75660186D01*
X112938729Y-75743448D01*
X112902991Y-75772778D01*
X112746466Y-75856443D01*
X112576627Y-75907963D01*
X112510443Y-75914481D01*
X112444260Y-75921000D01*
X112355740Y-75921000D01*
X112289557Y-75914481D01*
X112223373Y-75907963D01*
X112053534Y-75856443D01*
X111897009Y-75772778D01*
X111861271Y-75743448D01*
X111759814Y-75660186D01*
X111671668Y-75552778D01*
X111647222Y-75522991D01*
X111563557Y-75366466D01*
X111512037Y-75196627D01*
X111494641Y-75020000D01*
X111512037Y-74843373D01*
X111563557Y-74673534D01*
X111647222Y-74517009D01*
X111690610Y-74464141D01*
X111759814Y-74379814D01*
X111861271Y-74296552D01*
X111897009Y-74267222D01*
X112053534Y-74183557D01*
X112223373Y-74132037D01*
X112289558Y-74125518D01*
X112355740Y-74119000D01*
X112444260Y-74119000D01*
X112510442Y-74125518D01*
X112510442Y-74125518D01*
G37*
G36*
X132810442Y-74045518D02*
G01*
X132876627Y-74052037D01*
X133046466Y-74103557D01*
X133202991Y-74187222D01*
X133231456Y-74210583D01*
X133340186Y-74299814D01*
X133405839Y-74379814D01*
X133452778Y-74437009D01*
X133536443Y-74593534D01*
X133587963Y-74763373D01*
X133605359Y-74940000D01*
X133587963Y-75116627D01*
X133536443Y-75286466D01*
X133452778Y-75442991D01*
X133425805Y-75475858D01*
X133340186Y-75580186D01*
X133242705Y-75660185D01*
X133202991Y-75692778D01*
X133046466Y-75776443D01*
X132876627Y-75827963D01*
X132810443Y-75834481D01*
X132744260Y-75841000D01*
X132655740Y-75841000D01*
X132589557Y-75834481D01*
X132523373Y-75827963D01*
X132353534Y-75776443D01*
X132197009Y-75692778D01*
X132157295Y-75660185D01*
X132059814Y-75580186D01*
X131974195Y-75475858D01*
X131947222Y-75442991D01*
X131863557Y-75286466D01*
X131812037Y-75116627D01*
X131794641Y-74940000D01*
X131812037Y-74763373D01*
X131863557Y-74593534D01*
X131947222Y-74437009D01*
X131994161Y-74379814D01*
X132059814Y-74299814D01*
X132168544Y-74210583D01*
X132197009Y-74187222D01*
X132353534Y-74103557D01*
X132523373Y-74052037D01*
X132589558Y-74045518D01*
X132655740Y-74039000D01*
X132744260Y-74039000D01*
X132810442Y-74045518D01*
X132810442Y-74045518D01*
G37*
G36*
X135350442Y-74045518D02*
G01*
X135416627Y-74052037D01*
X135586466Y-74103557D01*
X135742991Y-74187222D01*
X135771456Y-74210583D01*
X135880186Y-74299814D01*
X135945839Y-74379814D01*
X135992778Y-74437009D01*
X136076443Y-74593534D01*
X136127963Y-74763373D01*
X136145359Y-74940000D01*
X136127963Y-75116627D01*
X136076443Y-75286466D01*
X135992778Y-75442991D01*
X135965805Y-75475858D01*
X135880186Y-75580186D01*
X135782705Y-75660185D01*
X135742991Y-75692778D01*
X135586466Y-75776443D01*
X135416627Y-75827963D01*
X135350443Y-75834481D01*
X135284260Y-75841000D01*
X135195740Y-75841000D01*
X135129557Y-75834481D01*
X135063373Y-75827963D01*
X134893534Y-75776443D01*
X134737009Y-75692778D01*
X134697295Y-75660185D01*
X134599814Y-75580186D01*
X134514195Y-75475858D01*
X134487222Y-75442991D01*
X134403557Y-75286466D01*
X134352037Y-75116627D01*
X134334641Y-74940000D01*
X134352037Y-74763373D01*
X134403557Y-74593534D01*
X134487222Y-74437009D01*
X134534161Y-74379814D01*
X134599814Y-74299814D01*
X134708544Y-74210583D01*
X134737009Y-74187222D01*
X134893534Y-74103557D01*
X135063373Y-74052037D01*
X135129558Y-74045518D01*
X135195740Y-74039000D01*
X135284260Y-74039000D01*
X135350442Y-74045518D01*
X135350442Y-74045518D01*
G37*
G36*
X142335443Y-73905519D02*
G01*
X142401627Y-73912037D01*
X142571466Y-73963557D01*
X142727991Y-74047222D01*
X142763729Y-74076552D01*
X142865186Y-74159814D01*
X142906850Y-74210583D01*
X142977778Y-74297009D01*
X143061443Y-74453534D01*
X143112963Y-74623373D01*
X143130359Y-74800000D01*
X143112963Y-74976627D01*
X143061443Y-75146466D01*
X142977778Y-75302991D01*
X142959387Y-75325400D01*
X142865186Y-75440186D01*
X142764289Y-75522989D01*
X142727991Y-75552778D01*
X142571466Y-75636443D01*
X142401627Y-75687963D01*
X142335442Y-75694482D01*
X142269260Y-75701000D01*
X141930740Y-75701000D01*
X141864558Y-75694482D01*
X141798373Y-75687963D01*
X141628534Y-75636443D01*
X141472009Y-75552778D01*
X141435711Y-75522989D01*
X141334814Y-75440186D01*
X141240613Y-75325400D01*
X141222222Y-75302991D01*
X141138557Y-75146466D01*
X141087037Y-74976627D01*
X141069641Y-74800000D01*
X141087037Y-74623373D01*
X141138557Y-74453534D01*
X141222222Y-74297009D01*
X141293150Y-74210583D01*
X141334814Y-74159814D01*
X141436271Y-74076552D01*
X141472009Y-74047222D01*
X141628534Y-73963557D01*
X141798373Y-73912037D01*
X141864557Y-73905519D01*
X141930740Y-73899000D01*
X142269260Y-73899000D01*
X142335443Y-73905519D01*
X142335443Y-73905519D01*
G37*
G36*
X125919294Y-72798633D02*
G01*
X126091695Y-72850931D01*
X126250583Y-72935858D01*
X126389849Y-73050151D01*
X126504142Y-73189417D01*
X126589069Y-73348305D01*
X126641367Y-73520706D01*
X126659025Y-73700000D01*
X126641367Y-73879294D01*
X126589069Y-74051695D01*
X126504142Y-74210583D01*
X126389849Y-74349849D01*
X126250583Y-74464142D01*
X126091695Y-74549069D01*
X125919294Y-74601367D01*
X125784931Y-74614600D01*
X125695069Y-74614600D01*
X125560706Y-74601367D01*
X125388305Y-74549069D01*
X125229417Y-74464142D01*
X125090151Y-74349849D01*
X124975858Y-74210583D01*
X124890931Y-74051695D01*
X124838633Y-73879294D01*
X124820975Y-73700000D01*
X124838633Y-73520706D01*
X124890931Y-73348305D01*
X124975858Y-73189417D01*
X125090151Y-73050151D01*
X125229417Y-72935858D01*
X125388305Y-72850931D01*
X125560706Y-72798633D01*
X125695069Y-72785400D01*
X125784931Y-72785400D01*
X125919294Y-72798633D01*
X125919294Y-72798633D01*
G37*
G36*
X123379294Y-72798633D02*
G01*
X123551695Y-72850931D01*
X123710583Y-72935858D01*
X123849849Y-73050151D01*
X123964142Y-73189417D01*
X124049069Y-73348305D01*
X124101367Y-73520706D01*
X124119025Y-73700000D01*
X124101367Y-73879294D01*
X124049069Y-74051695D01*
X123964142Y-74210583D01*
X123849849Y-74349849D01*
X123710583Y-74464142D01*
X123551695Y-74549069D01*
X123379294Y-74601367D01*
X123244931Y-74614600D01*
X123155069Y-74614600D01*
X123020706Y-74601367D01*
X122848305Y-74549069D01*
X122689417Y-74464142D01*
X122550151Y-74349849D01*
X122435858Y-74210583D01*
X122350931Y-74051695D01*
X122298633Y-73879294D01*
X122280975Y-73700000D01*
X122298633Y-73520706D01*
X122350931Y-73348305D01*
X122435858Y-73189417D01*
X122550151Y-73050151D01*
X122689417Y-72935858D01*
X122848305Y-72850931D01*
X123020706Y-72798633D01*
X123155069Y-72785400D01*
X123244931Y-72785400D01*
X123379294Y-72798633D01*
X123379294Y-72798633D01*
G37*
G36*
X112510443Y-71585519D02*
G01*
X112576627Y-71592037D01*
X112746466Y-71643557D01*
X112746468Y-71643558D01*
X112776882Y-71659815D01*
X112902991Y-71727222D01*
X112938729Y-71756552D01*
X113040186Y-71839814D01*
X113109390Y-71924141D01*
X113152778Y-71977009D01*
X113236443Y-72133534D01*
X113287963Y-72303373D01*
X113305359Y-72480000D01*
X113287963Y-72656627D01*
X113236443Y-72826466D01*
X113152778Y-72982991D01*
X113123448Y-73018729D01*
X113040186Y-73120186D01*
X112941712Y-73201000D01*
X112902991Y-73232778D01*
X112746466Y-73316443D01*
X112576627Y-73367963D01*
X112510442Y-73374482D01*
X112444260Y-73381000D01*
X112355740Y-73381000D01*
X112289558Y-73374482D01*
X112223373Y-73367963D01*
X112053534Y-73316443D01*
X111897009Y-73232778D01*
X111858288Y-73201000D01*
X111759814Y-73120186D01*
X111676552Y-73018729D01*
X111647222Y-72982991D01*
X111563557Y-72826466D01*
X111512037Y-72656627D01*
X111494641Y-72480000D01*
X111512037Y-72303373D01*
X111563557Y-72133534D01*
X111647222Y-71977009D01*
X111690610Y-71924141D01*
X111759814Y-71839814D01*
X111861271Y-71756552D01*
X111897009Y-71727222D01*
X112023118Y-71659815D01*
X112053532Y-71643558D01*
X112053534Y-71643557D01*
X112223373Y-71592037D01*
X112289557Y-71585519D01*
X112355740Y-71579000D01*
X112444260Y-71579000D01*
X112510443Y-71585519D01*
X112510443Y-71585519D01*
G37*
G36*
X115050443Y-71585519D02*
G01*
X115116627Y-71592037D01*
X115286466Y-71643557D01*
X115286468Y-71643558D01*
X115316882Y-71659815D01*
X115442991Y-71727222D01*
X115478729Y-71756552D01*
X115580186Y-71839814D01*
X115649390Y-71924141D01*
X115692778Y-71977009D01*
X115776443Y-72133534D01*
X115827963Y-72303373D01*
X115845359Y-72480000D01*
X115827963Y-72656627D01*
X115776443Y-72826466D01*
X115692778Y-72982991D01*
X115663448Y-73018729D01*
X115580186Y-73120186D01*
X115481712Y-73201000D01*
X115442991Y-73232778D01*
X115286466Y-73316443D01*
X115116627Y-73367963D01*
X115050442Y-73374482D01*
X114984260Y-73381000D01*
X114895740Y-73381000D01*
X114829558Y-73374482D01*
X114763373Y-73367963D01*
X114593534Y-73316443D01*
X114437009Y-73232778D01*
X114398288Y-73201000D01*
X114299814Y-73120186D01*
X114216552Y-73018729D01*
X114187222Y-72982991D01*
X114103557Y-72826466D01*
X114052037Y-72656627D01*
X114034641Y-72480000D01*
X114052037Y-72303373D01*
X114103557Y-72133534D01*
X114187222Y-71977009D01*
X114230610Y-71924141D01*
X114299814Y-71839814D01*
X114401271Y-71756552D01*
X114437009Y-71727222D01*
X114563118Y-71659815D01*
X114593532Y-71643558D01*
X114593534Y-71643557D01*
X114763373Y-71592037D01*
X114829557Y-71585519D01*
X114895740Y-71579000D01*
X114984260Y-71579000D01*
X115050443Y-71585519D01*
X115050443Y-71585519D01*
G37*
G36*
X133601000Y-73301000D02*
G01*
X131799000Y-73301000D01*
X131799000Y-71499000D01*
X133601000Y-71499000D01*
X133601000Y-73301000D01*
X133601000Y-73301000D01*
G37*
G36*
X135350442Y-71505518D02*
G01*
X135416627Y-71512037D01*
X135586466Y-71563557D01*
X135742991Y-71647222D01*
X135771456Y-71670583D01*
X135880186Y-71759814D01*
X135945839Y-71839814D01*
X135992778Y-71897009D01*
X136076443Y-72053534D01*
X136127963Y-72223373D01*
X136145359Y-72400000D01*
X136127963Y-72576627D01*
X136076443Y-72746466D01*
X135992778Y-72902991D01*
X135965805Y-72935858D01*
X135880186Y-73040186D01*
X135782705Y-73120185D01*
X135742991Y-73152778D01*
X135586466Y-73236443D01*
X135416627Y-73287963D01*
X135350442Y-73294482D01*
X135284260Y-73301000D01*
X135195740Y-73301000D01*
X135129558Y-73294482D01*
X135063373Y-73287963D01*
X134893534Y-73236443D01*
X134737009Y-73152778D01*
X134697295Y-73120185D01*
X134599814Y-73040186D01*
X134514195Y-72935858D01*
X134487222Y-72902991D01*
X134403557Y-72746466D01*
X134352037Y-72576627D01*
X134334641Y-72400000D01*
X134352037Y-72223373D01*
X134403557Y-72053534D01*
X134487222Y-71897009D01*
X134534161Y-71839814D01*
X134599814Y-71759814D01*
X134708544Y-71670583D01*
X134737009Y-71647222D01*
X134893534Y-71563557D01*
X135063373Y-71512037D01*
X135129558Y-71505518D01*
X135195740Y-71499000D01*
X135284260Y-71499000D01*
X135350442Y-71505518D01*
X135350442Y-71505518D01*
G37*
G36*
X142335442Y-71405518D02*
G01*
X142401627Y-71412037D01*
X142571466Y-71463557D01*
X142727991Y-71547222D01*
X142747895Y-71563557D01*
X142865186Y-71659814D01*
X142920505Y-71727222D01*
X142977778Y-71797009D01*
X143061443Y-71953534D01*
X143112963Y-72123373D01*
X143130359Y-72300000D01*
X143112963Y-72476627D01*
X143061443Y-72646466D01*
X142977778Y-72802991D01*
X142958512Y-72826466D01*
X142865186Y-72940186D01*
X142763729Y-73023448D01*
X142727991Y-73052778D01*
X142727989Y-73052779D01*
X142601881Y-73120186D01*
X142571466Y-73136443D01*
X142401627Y-73187963D01*
X142335442Y-73194482D01*
X142269260Y-73201000D01*
X141930740Y-73201000D01*
X141864558Y-73194482D01*
X141798373Y-73187963D01*
X141628534Y-73136443D01*
X141598120Y-73120186D01*
X141472011Y-73052779D01*
X141472009Y-73052778D01*
X141436271Y-73023448D01*
X141334814Y-72940186D01*
X141241488Y-72826466D01*
X141222222Y-72802991D01*
X141138557Y-72646466D01*
X141087037Y-72476627D01*
X141069641Y-72300000D01*
X141087037Y-72123373D01*
X141138557Y-71953534D01*
X141222222Y-71797009D01*
X141279495Y-71727222D01*
X141334814Y-71659814D01*
X141452105Y-71563557D01*
X141472009Y-71547222D01*
X141628534Y-71463557D01*
X141798373Y-71412037D01*
X141864558Y-71405518D01*
X141930740Y-71399000D01*
X142269260Y-71399000D01*
X142335442Y-71405518D01*
X142335442Y-71405518D01*
G37*
G36*
X125919294Y-70258633D02*
G01*
X126091695Y-70310931D01*
X126250583Y-70395858D01*
X126389849Y-70510151D01*
X126504142Y-70649417D01*
X126589069Y-70808305D01*
X126641367Y-70980706D01*
X126659025Y-71160000D01*
X126641367Y-71339294D01*
X126589069Y-71511695D01*
X126504142Y-71670583D01*
X126389849Y-71809849D01*
X126250583Y-71924142D01*
X126091695Y-72009069D01*
X125919294Y-72061367D01*
X125784931Y-72074600D01*
X125695069Y-72074600D01*
X125560706Y-72061367D01*
X125388305Y-72009069D01*
X125229417Y-71924142D01*
X125090151Y-71809849D01*
X124975858Y-71670583D01*
X124890931Y-71511695D01*
X124838633Y-71339294D01*
X124820975Y-71160000D01*
X124838633Y-70980706D01*
X124890931Y-70808305D01*
X124975858Y-70649417D01*
X125090151Y-70510151D01*
X125229417Y-70395858D01*
X125388305Y-70310931D01*
X125560706Y-70258633D01*
X125695069Y-70245400D01*
X125784931Y-70245400D01*
X125919294Y-70258633D01*
X125919294Y-70258633D01*
G37*
G36*
X123379294Y-70258633D02*
G01*
X123551695Y-70310931D01*
X123710583Y-70395858D01*
X123849849Y-70510151D01*
X123964142Y-70649417D01*
X124049069Y-70808305D01*
X124101367Y-70980706D01*
X124119025Y-71160000D01*
X124101367Y-71339294D01*
X124049069Y-71511695D01*
X123964142Y-71670583D01*
X123849849Y-71809849D01*
X123710583Y-71924142D01*
X123551695Y-72009069D01*
X123379294Y-72061367D01*
X123244931Y-72074600D01*
X123155069Y-72074600D01*
X123020706Y-72061367D01*
X122848305Y-72009069D01*
X122689417Y-71924142D01*
X122550151Y-71809849D01*
X122435858Y-71670583D01*
X122350931Y-71511695D01*
X122298633Y-71339294D01*
X122280975Y-71160000D01*
X122298633Y-70980706D01*
X122350931Y-70808305D01*
X122435858Y-70649417D01*
X122550151Y-70510151D01*
X122689417Y-70395858D01*
X122848305Y-70310931D01*
X123020706Y-70258633D01*
X123155069Y-70245400D01*
X123244931Y-70245400D01*
X123379294Y-70258633D01*
X123379294Y-70258633D01*
G37*
G36*
X112510442Y-69045518D02*
G01*
X112576627Y-69052037D01*
X112746466Y-69103557D01*
X112902991Y-69187222D01*
X112938729Y-69216552D01*
X113040186Y-69299814D01*
X113109390Y-69384141D01*
X113152778Y-69437009D01*
X113236443Y-69593534D01*
X113287963Y-69763373D01*
X113305359Y-69940000D01*
X113287963Y-70116627D01*
X113236443Y-70286466D01*
X113152778Y-70442991D01*
X113123448Y-70478729D01*
X113040186Y-70580186D01*
X112938729Y-70663448D01*
X112902991Y-70692778D01*
X112746466Y-70776443D01*
X112576627Y-70827963D01*
X112510443Y-70834481D01*
X112444260Y-70841000D01*
X112355740Y-70841000D01*
X112289557Y-70834481D01*
X112223373Y-70827963D01*
X112053534Y-70776443D01*
X111897009Y-70692778D01*
X111861271Y-70663448D01*
X111759814Y-70580186D01*
X111676552Y-70478729D01*
X111647222Y-70442991D01*
X111563557Y-70286466D01*
X111512037Y-70116627D01*
X111494641Y-69940000D01*
X111512037Y-69763373D01*
X111563557Y-69593534D01*
X111647222Y-69437009D01*
X111690610Y-69384141D01*
X111759814Y-69299814D01*
X111861271Y-69216552D01*
X111897009Y-69187222D01*
X112053534Y-69103557D01*
X112223373Y-69052037D01*
X112289558Y-69045518D01*
X112355740Y-69039000D01*
X112444260Y-69039000D01*
X112510442Y-69045518D01*
X112510442Y-69045518D01*
G37*
G36*
X115050442Y-69045518D02*
G01*
X115116627Y-69052037D01*
X115286466Y-69103557D01*
X115442991Y-69187222D01*
X115478729Y-69216552D01*
X115580186Y-69299814D01*
X115649390Y-69384141D01*
X115692778Y-69437009D01*
X115776443Y-69593534D01*
X115827963Y-69763373D01*
X115845359Y-69940000D01*
X115827963Y-70116627D01*
X115776443Y-70286466D01*
X115692778Y-70442991D01*
X115663448Y-70478729D01*
X115580186Y-70580186D01*
X115478729Y-70663448D01*
X115442991Y-70692778D01*
X115286466Y-70776443D01*
X115116627Y-70827963D01*
X115050443Y-70834481D01*
X114984260Y-70841000D01*
X114895740Y-70841000D01*
X114829557Y-70834481D01*
X114763373Y-70827963D01*
X114593534Y-70776443D01*
X114437009Y-70692778D01*
X114401271Y-70663448D01*
X114299814Y-70580186D01*
X114216552Y-70478729D01*
X114187222Y-70442991D01*
X114103557Y-70286466D01*
X114052037Y-70116627D01*
X114034641Y-69940000D01*
X114052037Y-69763373D01*
X114103557Y-69593534D01*
X114187222Y-69437009D01*
X114230610Y-69384141D01*
X114299814Y-69299814D01*
X114401271Y-69216552D01*
X114437009Y-69187222D01*
X114593534Y-69103557D01*
X114763373Y-69052037D01*
X114829558Y-69045518D01*
X114895740Y-69039000D01*
X114984260Y-69039000D01*
X115050442Y-69045518D01*
X115050442Y-69045518D01*
G37*
G36*
X125919294Y-67718633D02*
G01*
X126091695Y-67770931D01*
X126250583Y-67855858D01*
X126389849Y-67970151D01*
X126504142Y-68109417D01*
X126589069Y-68268305D01*
X126641367Y-68440706D01*
X126659025Y-68620000D01*
X126641367Y-68799294D01*
X126589069Y-68971695D01*
X126504142Y-69130583D01*
X126389849Y-69269849D01*
X126250583Y-69384142D01*
X126091695Y-69469069D01*
X125919294Y-69521367D01*
X125784931Y-69534600D01*
X125695069Y-69534600D01*
X125560706Y-69521367D01*
X125388305Y-69469069D01*
X125229417Y-69384142D01*
X125090151Y-69269849D01*
X124975858Y-69130583D01*
X124890931Y-68971695D01*
X124838633Y-68799294D01*
X124820975Y-68620000D01*
X124838633Y-68440706D01*
X124890931Y-68268305D01*
X124975858Y-68109417D01*
X125090151Y-67970151D01*
X125229417Y-67855858D01*
X125388305Y-67770931D01*
X125560706Y-67718633D01*
X125695069Y-67705400D01*
X125784931Y-67705400D01*
X125919294Y-67718633D01*
X125919294Y-67718633D01*
G37*
G36*
X123379294Y-67718633D02*
G01*
X123551695Y-67770931D01*
X123710583Y-67855858D01*
X123849849Y-67970151D01*
X123964142Y-68109417D01*
X124049069Y-68268305D01*
X124101367Y-68440706D01*
X124119025Y-68620000D01*
X124101367Y-68799294D01*
X124049069Y-68971695D01*
X123964142Y-69130583D01*
X123849849Y-69269849D01*
X123710583Y-69384142D01*
X123551695Y-69469069D01*
X123379294Y-69521367D01*
X123244931Y-69534600D01*
X123155069Y-69534600D01*
X123020706Y-69521367D01*
X122848305Y-69469069D01*
X122689417Y-69384142D01*
X122550151Y-69269849D01*
X122435858Y-69130583D01*
X122350931Y-68971695D01*
X122298633Y-68799294D01*
X122280975Y-68620000D01*
X122298633Y-68440706D01*
X122350931Y-68268305D01*
X122435858Y-68109417D01*
X122550151Y-67970151D01*
X122689417Y-67855858D01*
X122848305Y-67770931D01*
X123020706Y-67718633D01*
X123155069Y-67705400D01*
X123244931Y-67705400D01*
X123379294Y-67718633D01*
X123379294Y-67718633D01*
G37*
G36*
X112510442Y-66505518D02*
G01*
X112576627Y-66512037D01*
X112746466Y-66563557D01*
X112902991Y-66647222D01*
X112938729Y-66676552D01*
X113040186Y-66759814D01*
X113109390Y-66844141D01*
X113152778Y-66897009D01*
X113236443Y-67053534D01*
X113287963Y-67223373D01*
X113305359Y-67400000D01*
X113287963Y-67576627D01*
X113236443Y-67746466D01*
X113152778Y-67902991D01*
X113123448Y-67938729D01*
X113040186Y-68040186D01*
X112938729Y-68123448D01*
X112902991Y-68152778D01*
X112746466Y-68236443D01*
X112576627Y-68287963D01*
X112510442Y-68294482D01*
X112444260Y-68301000D01*
X112355740Y-68301000D01*
X112289558Y-68294482D01*
X112223373Y-68287963D01*
X112053534Y-68236443D01*
X111897009Y-68152778D01*
X111861271Y-68123448D01*
X111759814Y-68040186D01*
X111676552Y-67938729D01*
X111647222Y-67902991D01*
X111563557Y-67746466D01*
X111512037Y-67576627D01*
X111494641Y-67400000D01*
X111512037Y-67223373D01*
X111563557Y-67053534D01*
X111647222Y-66897009D01*
X111690610Y-66844141D01*
X111759814Y-66759814D01*
X111861271Y-66676552D01*
X111897009Y-66647222D01*
X112053534Y-66563557D01*
X112223373Y-66512037D01*
X112289558Y-66505518D01*
X112355740Y-66499000D01*
X112444260Y-66499000D01*
X112510442Y-66505518D01*
X112510442Y-66505518D01*
G37*
G36*
X115841000Y-68301000D02*
G01*
X114039000Y-68301000D01*
X114039000Y-66499000D01*
X115841000Y-66499000D01*
X115841000Y-68301000D01*
X115841000Y-68301000D01*
G37*
G36*
X123379294Y-65178633D02*
G01*
X123551695Y-65230931D01*
X123710583Y-65315858D01*
X123849849Y-65430151D01*
X123964142Y-65569417D01*
X124049069Y-65728305D01*
X124101367Y-65900706D01*
X124119025Y-66080000D01*
X124101367Y-66259294D01*
X124049069Y-66431695D01*
X123964142Y-66590583D01*
X123849849Y-66729849D01*
X123710583Y-66844142D01*
X123551695Y-66929069D01*
X123379294Y-66981367D01*
X123244931Y-66994600D01*
X123155069Y-66994600D01*
X123020706Y-66981367D01*
X122848305Y-66929069D01*
X122689417Y-66844142D01*
X122550151Y-66729849D01*
X122435858Y-66590583D01*
X122350931Y-66431695D01*
X122298633Y-66259294D01*
X122280975Y-66080000D01*
X122298633Y-65900706D01*
X122350931Y-65728305D01*
X122435858Y-65569417D01*
X122550151Y-65430151D01*
X122689417Y-65315858D01*
X122848305Y-65230931D01*
X123020706Y-65178633D01*
X123155069Y-65165400D01*
X123244931Y-65165400D01*
X123379294Y-65178633D01*
X123379294Y-65178633D01*
G37*
G36*
X125919294Y-65178633D02*
G01*
X126091695Y-65230931D01*
X126250583Y-65315858D01*
X126389849Y-65430151D01*
X126504142Y-65569417D01*
X126589069Y-65728305D01*
X126641367Y-65900706D01*
X126659025Y-66080000D01*
X126641367Y-66259294D01*
X126589069Y-66431695D01*
X126504142Y-66590583D01*
X126389849Y-66729849D01*
X126250583Y-66844142D01*
X126091695Y-66929069D01*
X125919294Y-66981367D01*
X125784931Y-66994600D01*
X125695069Y-66994600D01*
X125560706Y-66981367D01*
X125388305Y-66929069D01*
X125229417Y-66844142D01*
X125090151Y-66729849D01*
X124975858Y-66590583D01*
X124890931Y-66431695D01*
X124838633Y-66259294D01*
X124820975Y-66080000D01*
X124838633Y-65900706D01*
X124890931Y-65728305D01*
X124975858Y-65569417D01*
X125090151Y-65430151D01*
X125229417Y-65315858D01*
X125388305Y-65230931D01*
X125560706Y-65178633D01*
X125695069Y-65165400D01*
X125784931Y-65165400D01*
X125919294Y-65178633D01*
X125919294Y-65178633D01*
G37*
G36*
X146810443Y-64125519D02*
G01*
X146876627Y-64132037D01*
X147046466Y-64183557D01*
X147046468Y-64183558D01*
X147124729Y-64225390D01*
X147202991Y-64267222D01*
X147238729Y-64296552D01*
X147340186Y-64379814D01*
X147390700Y-64441367D01*
X147452778Y-64517009D01*
X147536443Y-64673534D01*
X147587963Y-64843373D01*
X147605359Y-65020000D01*
X147587963Y-65196627D01*
X147536443Y-65366466D01*
X147452778Y-65522991D01*
X147423448Y-65558729D01*
X147340186Y-65660186D01*
X147238729Y-65743448D01*
X147202991Y-65772778D01*
X147046466Y-65856443D01*
X146876627Y-65907963D01*
X146810443Y-65914481D01*
X146744260Y-65921000D01*
X146655740Y-65921000D01*
X146589557Y-65914481D01*
X146523373Y-65907963D01*
X146353534Y-65856443D01*
X146197009Y-65772778D01*
X146161271Y-65743448D01*
X146059814Y-65660186D01*
X145976552Y-65558729D01*
X145947222Y-65522991D01*
X145863557Y-65366466D01*
X145812037Y-65196627D01*
X145794641Y-65020000D01*
X145812037Y-64843373D01*
X145863557Y-64673534D01*
X145947222Y-64517009D01*
X146009300Y-64441367D01*
X146059814Y-64379814D01*
X146161271Y-64296552D01*
X146197009Y-64267222D01*
X146275271Y-64225390D01*
X146353532Y-64183558D01*
X146353534Y-64183557D01*
X146523373Y-64132037D01*
X146589557Y-64125519D01*
X146655740Y-64119000D01*
X146744260Y-64119000D01*
X146810443Y-64125519D01*
X146810443Y-64125519D01*
G37*
G36*
X125919294Y-62638633D02*
G01*
X126091695Y-62690931D01*
X126250583Y-62775858D01*
X126389849Y-62890151D01*
X126504142Y-63029417D01*
X126589069Y-63188305D01*
X126641367Y-63360706D01*
X126659025Y-63540000D01*
X126641367Y-63719294D01*
X126589069Y-63891695D01*
X126504142Y-64050583D01*
X126389849Y-64189849D01*
X126250583Y-64304142D01*
X126091695Y-64389069D01*
X125919294Y-64441367D01*
X125784931Y-64454600D01*
X125695069Y-64454600D01*
X125560706Y-64441367D01*
X125388305Y-64389069D01*
X125229417Y-64304142D01*
X125090151Y-64189849D01*
X124975858Y-64050583D01*
X124890931Y-63891695D01*
X124838633Y-63719294D01*
X124820975Y-63540000D01*
X124838633Y-63360706D01*
X124890931Y-63188305D01*
X124975858Y-63029417D01*
X125090151Y-62890151D01*
X125229417Y-62775858D01*
X125388305Y-62690931D01*
X125560706Y-62638633D01*
X125695069Y-62625400D01*
X125784931Y-62625400D01*
X125919294Y-62638633D01*
X125919294Y-62638633D01*
G37*
G36*
X123379294Y-62638633D02*
G01*
X123551695Y-62690931D01*
X123710583Y-62775858D01*
X123849849Y-62890151D01*
X123964142Y-63029417D01*
X124049069Y-63188305D01*
X124101367Y-63360706D01*
X124119025Y-63540000D01*
X124101367Y-63719294D01*
X124049069Y-63891695D01*
X123964142Y-64050583D01*
X123849849Y-64189849D01*
X123710583Y-64304142D01*
X123551695Y-64389069D01*
X123379294Y-64441367D01*
X123244931Y-64454600D01*
X123155069Y-64454600D01*
X123020706Y-64441367D01*
X122848305Y-64389069D01*
X122689417Y-64304142D01*
X122550151Y-64189849D01*
X122435858Y-64050583D01*
X122350931Y-63891695D01*
X122298633Y-63719294D01*
X122280975Y-63540000D01*
X122298633Y-63360706D01*
X122350931Y-63188305D01*
X122435858Y-63029417D01*
X122550151Y-62890151D01*
X122689417Y-62775858D01*
X122848305Y-62690931D01*
X123020706Y-62638633D01*
X123155069Y-62625400D01*
X123244931Y-62625400D01*
X123379294Y-62638633D01*
X123379294Y-62638633D01*
G37*
G36*
X146810442Y-61585518D02*
G01*
X146876627Y-61592037D01*
X147046466Y-61643557D01*
X147046468Y-61643558D01*
X147124729Y-61685390D01*
X147202991Y-61727222D01*
X147238729Y-61756552D01*
X147340186Y-61839814D01*
X147390700Y-61901367D01*
X147452778Y-61977009D01*
X147536443Y-62133534D01*
X147587963Y-62303373D01*
X147605359Y-62480000D01*
X147587963Y-62656627D01*
X147536443Y-62826466D01*
X147452778Y-62982991D01*
X147423448Y-63018729D01*
X147340186Y-63120186D01*
X147238729Y-63203448D01*
X147202991Y-63232778D01*
X147046466Y-63316443D01*
X146876627Y-63367963D01*
X146810442Y-63374482D01*
X146744260Y-63381000D01*
X146655740Y-63381000D01*
X146589558Y-63374482D01*
X146523373Y-63367963D01*
X146353534Y-63316443D01*
X146197009Y-63232778D01*
X146161271Y-63203448D01*
X146059814Y-63120186D01*
X145976552Y-63018729D01*
X145947222Y-62982991D01*
X145863557Y-62826466D01*
X145812037Y-62656627D01*
X145794641Y-62480000D01*
X145812037Y-62303373D01*
X145863557Y-62133534D01*
X145947222Y-61977009D01*
X146009300Y-61901367D01*
X146059814Y-61839814D01*
X146161271Y-61756552D01*
X146197009Y-61727222D01*
X146275271Y-61685390D01*
X146353532Y-61643558D01*
X146353534Y-61643557D01*
X146523373Y-61592037D01*
X146589558Y-61585518D01*
X146655740Y-61579000D01*
X146744260Y-61579000D01*
X146810442Y-61585518D01*
X146810442Y-61585518D01*
G37*
G36*
X124114600Y-61914600D02*
G01*
X122285400Y-61914600D01*
X122285400Y-60085400D01*
X124114600Y-60085400D01*
X124114600Y-61914600D01*
X124114600Y-61914600D01*
G37*
G36*
X125919294Y-60098633D02*
G01*
X126091695Y-60150931D01*
X126250583Y-60235858D01*
X126389849Y-60350151D01*
X126504142Y-60489417D01*
X126589069Y-60648305D01*
X126641367Y-60820706D01*
X126659025Y-61000000D01*
X126641367Y-61179294D01*
X126589069Y-61351695D01*
X126504142Y-61510583D01*
X126389849Y-61649849D01*
X126250583Y-61764142D01*
X126091695Y-61849069D01*
X125919294Y-61901367D01*
X125784931Y-61914600D01*
X125695069Y-61914600D01*
X125560706Y-61901367D01*
X125388305Y-61849069D01*
X125229417Y-61764142D01*
X125090151Y-61649849D01*
X124975858Y-61510583D01*
X124890931Y-61351695D01*
X124838633Y-61179294D01*
X124820975Y-61000000D01*
X124838633Y-60820706D01*
X124890931Y-60648305D01*
X124975858Y-60489417D01*
X125090151Y-60350151D01*
X125229417Y-60235858D01*
X125388305Y-60150931D01*
X125560706Y-60098633D01*
X125695069Y-60085400D01*
X125784931Y-60085400D01*
X125919294Y-60098633D01*
X125919294Y-60098633D01*
G37*
G36*
X146810443Y-59045519D02*
G01*
X146876627Y-59052037D01*
X147046466Y-59103557D01*
X147202991Y-59187222D01*
X147238729Y-59216552D01*
X147340186Y-59299814D01*
X147423448Y-59401271D01*
X147452778Y-59437009D01*
X147536443Y-59593534D01*
X147587963Y-59763373D01*
X147605359Y-59940000D01*
X147587963Y-60116627D01*
X147536443Y-60286466D01*
X147452778Y-60442991D01*
X147423448Y-60478729D01*
X147340186Y-60580186D01*
X147238729Y-60663448D01*
X147202991Y-60692778D01*
X147046466Y-60776443D01*
X146876627Y-60827963D01*
X146810443Y-60834481D01*
X146744260Y-60841000D01*
X146655740Y-60841000D01*
X146589557Y-60834481D01*
X146523373Y-60827963D01*
X146353534Y-60776443D01*
X146197009Y-60692778D01*
X146161271Y-60663448D01*
X146059814Y-60580186D01*
X145976552Y-60478729D01*
X145947222Y-60442991D01*
X145863557Y-60286466D01*
X145812037Y-60116627D01*
X145794641Y-59940000D01*
X145812037Y-59763373D01*
X145863557Y-59593534D01*
X145947222Y-59437009D01*
X145976552Y-59401271D01*
X146059814Y-59299814D01*
X146161271Y-59216552D01*
X146197009Y-59187222D01*
X146353534Y-59103557D01*
X146523373Y-59052037D01*
X146589557Y-59045519D01*
X146655740Y-59039000D01*
X146744260Y-59039000D01*
X146810443Y-59045519D01*
X146810443Y-59045519D01*
G37*
G36*
X147601000Y-58301000D02*
G01*
X145799000Y-58301000D01*
X145799000Y-56499000D01*
X147601000Y-56499000D01*
X147601000Y-58301000D01*
X147601000Y-58301000D01*
G37*
M02*
