G04 #@! TF.GenerationSoftware,KiCad,Pcbnew,5.1.4+dfsg1-1*
G04 #@! TF.CreationDate,2020-04-28T14:33:28+04:00*
G04 #@! TF.ProjectId,RailLink_Adapter,5261696c-4c69-46e6-9b5f-416461707465,rev?*
G04 #@! TF.SameCoordinates,Original*
G04 #@! TF.FileFunction,Copper,L1,Top*
G04 #@! TF.FilePolarity,Positive*
%FSLAX46Y46*%
G04 Gerber Fmt 4.6, Leading zero omitted, Abs format (unit mm)*
G04 Created by KiCad (PCBNEW 5.1.4+dfsg1-1) date 2020-04-28 14:33:28*
%MOMM*%
%LPD*%
G04 APERTURE LIST*
%ADD10C,0.050000*%
%ADD11O,1.700000X1.700000*%
%ADD12R,1.700000X1.700000*%
%ADD13O,1.950000X1.700000*%
%ADD14C,0.100000*%
%ADD15C,1.700000*%
%ADD16O,1.727200X1.727200*%
%ADD17R,1.727200X1.727200*%
%ADD18R,2.400000X0.740000*%
%ADD19C,0.600000*%
%ADD20C,1.000000*%
%ADD21C,0.200000*%
%ADD22C,0.400000*%
%ADD23C,0.300000*%
G04 APERTURE END LIST*
D10*
X110000000Y-58000000D02*
G75*
G02X113000000Y-55000000I3000000J0D01*
G01*
X113000000Y-90000000D02*
G75*
G02X110000000Y-87000000I0J3000000D01*
G01*
X152000000Y-87000000D02*
G75*
G02X149000000Y-90000000I-3000000J0D01*
G01*
X149000000Y-55000000D02*
G75*
G02X152000000Y-58000000I0J-3000000D01*
G01*
X110000000Y-87000000D02*
X110000000Y-58000000D01*
X149000000Y-90000000D02*
X113000000Y-90000000D01*
X152000000Y-58000000D02*
X152000000Y-87000000D01*
X113000000Y-55000000D02*
X149000000Y-55000000D01*
D11*
X135240000Y-77480000D03*
X132700000Y-77480000D03*
X135240000Y-74940000D03*
X132700000Y-74940000D03*
X135240000Y-72400000D03*
D12*
X132700000Y-72400000D03*
D13*
X142100000Y-72300000D03*
X142100000Y-74800000D03*
X142100000Y-77300000D03*
X142100000Y-79800000D03*
X142100000Y-82300000D03*
D14*
G36*
X142849504Y-83951204D02*
G01*
X142873773Y-83954804D01*
X142897571Y-83960765D01*
X142920671Y-83969030D01*
X142942849Y-83979520D01*
X142963893Y-83992133D01*
X142983598Y-84006747D01*
X143001777Y-84023223D01*
X143018253Y-84041402D01*
X143032867Y-84061107D01*
X143045480Y-84082151D01*
X143055970Y-84104329D01*
X143064235Y-84127429D01*
X143070196Y-84151227D01*
X143073796Y-84175496D01*
X143075000Y-84200000D01*
X143075000Y-85400000D01*
X143073796Y-85424504D01*
X143070196Y-85448773D01*
X143064235Y-85472571D01*
X143055970Y-85495671D01*
X143045480Y-85517849D01*
X143032867Y-85538893D01*
X143018253Y-85558598D01*
X143001777Y-85576777D01*
X142983598Y-85593253D01*
X142963893Y-85607867D01*
X142942849Y-85620480D01*
X142920671Y-85630970D01*
X142897571Y-85639235D01*
X142873773Y-85645196D01*
X142849504Y-85648796D01*
X142825000Y-85650000D01*
X141375000Y-85650000D01*
X141350496Y-85648796D01*
X141326227Y-85645196D01*
X141302429Y-85639235D01*
X141279329Y-85630970D01*
X141257151Y-85620480D01*
X141236107Y-85607867D01*
X141216402Y-85593253D01*
X141198223Y-85576777D01*
X141181747Y-85558598D01*
X141167133Y-85538893D01*
X141154520Y-85517849D01*
X141144030Y-85495671D01*
X141135765Y-85472571D01*
X141129804Y-85448773D01*
X141126204Y-85424504D01*
X141125000Y-85400000D01*
X141125000Y-84200000D01*
X141126204Y-84175496D01*
X141129804Y-84151227D01*
X141135765Y-84127429D01*
X141144030Y-84104329D01*
X141154520Y-84082151D01*
X141167133Y-84061107D01*
X141181747Y-84041402D01*
X141198223Y-84023223D01*
X141216402Y-84006747D01*
X141236107Y-83992133D01*
X141257151Y-83979520D01*
X141279329Y-83969030D01*
X141302429Y-83960765D01*
X141326227Y-83954804D01*
X141350496Y-83951204D01*
X141375000Y-83950000D01*
X142825000Y-83950000D01*
X142849504Y-83951204D01*
X142849504Y-83951204D01*
G37*
D15*
X142100000Y-84800000D03*
D11*
X146700000Y-65020000D03*
X146700000Y-62480000D03*
X146700000Y-59940000D03*
D12*
X146700000Y-57400000D03*
D16*
X125740000Y-83860000D03*
X123200000Y-83860000D03*
X125740000Y-81320000D03*
X123200000Y-81320000D03*
X125740000Y-78780000D03*
X123200000Y-78780000D03*
X125740000Y-76240000D03*
X123200000Y-76240000D03*
X125740000Y-73700000D03*
X123200000Y-73700000D03*
X125740000Y-71160000D03*
X123200000Y-71160000D03*
X125740000Y-68620000D03*
X123200000Y-68620000D03*
X125740000Y-66080000D03*
X123200000Y-66080000D03*
X125740000Y-63540000D03*
X123200000Y-63540000D03*
X125740000Y-61000000D03*
D17*
X123200000Y-61000000D03*
D18*
X135950000Y-68215000D03*
X132050000Y-68215000D03*
X135950000Y-66945000D03*
X132050000Y-66945000D03*
X135950000Y-65675000D03*
X132050000Y-65675000D03*
X135950000Y-64405000D03*
X132050000Y-64405000D03*
X135950000Y-63135000D03*
X132050000Y-63135000D03*
X135950000Y-61865000D03*
X132050000Y-61865000D03*
X135950000Y-60595000D03*
X132050000Y-60595000D03*
X135950000Y-59325000D03*
X132050000Y-59325000D03*
X135950000Y-58055000D03*
X132050000Y-58055000D03*
X135950000Y-56785000D03*
X132050000Y-56785000D03*
X135950000Y-88040000D03*
X132050000Y-88040000D03*
X135950000Y-86770000D03*
X132050000Y-86770000D03*
X135950000Y-85500000D03*
X132050000Y-85500000D03*
X135950000Y-84230000D03*
X132050000Y-84230000D03*
X135950000Y-82960000D03*
X132050000Y-82960000D03*
D16*
X115160000Y-67320000D03*
X117700000Y-67320000D03*
X115160000Y-69860000D03*
X117700000Y-69860000D03*
X115160000Y-72400000D03*
X117700000Y-72400000D03*
X115160000Y-74940000D03*
X117700000Y-74940000D03*
X115160000Y-77480000D03*
D17*
X117700000Y-77480000D03*
D19*
X137700000Y-88000000D03*
X138800000Y-61800000D03*
X139900000Y-76200000D03*
D20*
X119400000Y-79300000D03*
X113000000Y-88000000D03*
X113000000Y-81000000D03*
X126000000Y-88000000D03*
X130000000Y-88000000D03*
X142000000Y-66300000D03*
X142000000Y-61600000D03*
X142000000Y-59000000D03*
X129900000Y-68200000D03*
X129800000Y-65600000D03*
X129800000Y-63100000D03*
X125800000Y-57900000D03*
X114000000Y-65000000D03*
X115000000Y-62000000D03*
X120000000Y-62000000D03*
X129400000Y-76200000D03*
X129400000Y-73600000D03*
X129400000Y-71100000D03*
X129800000Y-84200000D03*
X145700000Y-83600000D03*
X147400000Y-70800000D03*
X119700000Y-72400000D03*
X147600000Y-81800000D03*
X134900000Y-80900000D03*
D19*
X137700000Y-86800000D03*
X138500000Y-60600000D03*
X130300000Y-60600000D03*
X137800000Y-59300000D03*
X137700000Y-85500000D03*
X138300000Y-77500000D03*
X138300000Y-73800000D03*
X137700000Y-84300000D03*
X137600000Y-75000000D03*
X138800000Y-59300000D03*
X137700000Y-82900000D03*
X136900000Y-72400000D03*
X139800000Y-59300000D03*
X129385000Y-56785000D03*
X134200000Y-82300000D03*
D21*
X137660000Y-88040000D02*
X137700000Y-88000000D01*
D22*
X135990000Y-88000000D02*
X135950000Y-88040000D01*
X137700000Y-88000000D02*
X135990000Y-88000000D01*
X132700000Y-74940000D02*
X132700000Y-75000000D01*
X138735000Y-61865000D02*
X135950000Y-61865000D01*
X138800000Y-61800000D02*
X138735000Y-61865000D01*
X142100000Y-77300000D02*
X140300000Y-77300000D01*
X139900000Y-76900000D02*
X139900000Y-76200000D01*
X140300000Y-77300000D02*
X139900000Y-76900000D01*
D23*
X123200000Y-78780000D02*
X124480000Y-77500000D01*
X124480000Y-77500000D02*
X130140000Y-77500000D01*
D22*
X133900000Y-76200000D02*
X139900000Y-76200000D01*
X132700000Y-75000000D02*
X133900000Y-76200000D01*
D23*
X130140000Y-77500000D02*
X132700000Y-74940000D01*
D22*
X122680000Y-79300000D02*
X123200000Y-78780000D01*
X119400000Y-79300000D02*
X122680000Y-79300000D01*
X137670000Y-86770000D02*
X137700000Y-86800000D01*
X135950000Y-86770000D02*
X137670000Y-86770000D01*
X138500000Y-60600000D02*
X135955000Y-60600000D01*
X135955000Y-60600000D02*
X135950000Y-60595000D01*
D21*
X137800000Y-60600000D02*
X137795000Y-60595000D01*
X138500000Y-60600000D02*
X137800000Y-60600000D01*
D23*
X135950000Y-60595000D02*
X134205000Y-60595000D01*
X134205000Y-60595000D02*
X134000000Y-60800000D01*
X134000000Y-60800000D02*
X134000000Y-69000000D01*
X134000000Y-69000000D02*
X133200000Y-69800000D01*
X133200000Y-69800000D02*
X129400000Y-69800000D01*
X129400000Y-69800000D02*
X126900000Y-67300000D01*
X124420000Y-67300000D02*
X123200000Y-66080000D01*
X126900000Y-67300000D02*
X124420000Y-67300000D01*
D22*
X144400000Y-60300000D02*
X144760000Y-59940000D01*
X144760000Y-59940000D02*
X146700000Y-59940000D01*
X138500000Y-60600000D02*
X138800000Y-60300000D01*
X138800000Y-60300000D02*
X144400000Y-60300000D01*
X130305000Y-60595000D02*
X130300000Y-60600000D01*
X132050000Y-60595000D02*
X130305000Y-60595000D01*
X132050000Y-86770000D02*
X133770000Y-86770000D01*
X133770000Y-86770000D02*
X134000000Y-87000000D01*
X134000000Y-87000000D02*
X134000000Y-88600000D01*
X134000000Y-88600000D02*
X134300000Y-88900000D01*
X134300000Y-88900000D02*
X142600000Y-88900000D01*
X142600000Y-88900000D02*
X144700000Y-86800000D01*
D23*
X144700000Y-71000000D02*
X148600000Y-67100000D01*
X148600000Y-67100000D02*
X148600000Y-63100000D01*
X147980000Y-62480000D02*
X146700000Y-62480000D01*
X148600000Y-63100000D02*
X147980000Y-62480000D01*
X142100000Y-74800000D02*
X144600000Y-74800000D01*
X144700000Y-86800000D02*
X144700000Y-74900000D01*
X144600000Y-74800000D02*
X144700000Y-74900000D01*
X144700000Y-74900000D02*
X144700000Y-71000000D01*
X124413601Y-85613601D02*
X125600000Y-86800000D01*
X123200000Y-81320000D02*
X124413601Y-82533601D01*
X124413601Y-82533601D02*
X124413601Y-85613601D01*
X132020000Y-86800000D02*
X132050000Y-86770000D01*
X125600000Y-86800000D02*
X132020000Y-86800000D01*
X123200000Y-76240000D02*
X123200000Y-76300000D01*
X123200000Y-76100000D02*
X123200000Y-76240000D01*
D22*
X137775000Y-59325000D02*
X137800000Y-59300000D01*
X135950000Y-59325000D02*
X137775000Y-59325000D01*
X135950000Y-85500000D02*
X137700000Y-85500000D01*
X135260000Y-77500000D02*
X135240000Y-77480000D01*
X138300000Y-77500000D02*
X135260000Y-77500000D01*
D23*
X115160000Y-72400000D02*
X113800000Y-73760000D01*
X113800000Y-73760000D02*
X113800000Y-75700000D01*
X113800000Y-75700000D02*
X114300000Y-76200000D01*
X123160000Y-76200000D02*
X123200000Y-76240000D01*
X114300000Y-76200000D02*
X123160000Y-76200000D01*
X123200000Y-76240000D02*
X124440000Y-75000000D01*
X124440000Y-75000000D02*
X130300000Y-75000000D01*
X130300000Y-75000000D02*
X131560001Y-73739999D01*
X131560001Y-73739999D02*
X138239999Y-73739999D01*
X138239999Y-73739999D02*
X138300000Y-73800000D01*
X115160000Y-74940000D02*
X115160000Y-75060000D01*
X123200000Y-71160000D02*
X123260000Y-71160000D01*
X142100000Y-82300000D02*
X141900000Y-82300000D01*
D22*
X137630000Y-84230000D02*
X137700000Y-84300000D01*
X135950000Y-84230000D02*
X137630000Y-84230000D01*
X137700000Y-84300000D02*
X139000000Y-84300000D01*
X139000000Y-84300000D02*
X139900000Y-83400000D01*
X139900000Y-83400000D02*
X139900000Y-82800000D01*
X140400000Y-82300000D02*
X142100000Y-82300000D01*
X139900000Y-82800000D02*
X140400000Y-82300000D01*
X135300000Y-75000000D02*
X135240000Y-74940000D01*
X137600000Y-75000000D02*
X135300000Y-75000000D01*
X137555000Y-58055000D02*
X135950000Y-58055000D01*
X138800000Y-59300000D02*
X137555000Y-58055000D01*
D23*
X115160000Y-74940000D02*
X116486399Y-73613601D01*
X120746399Y-73613601D02*
X123200000Y-71160000D01*
X116486399Y-73613601D02*
X120746399Y-73613601D01*
X115160000Y-77480000D02*
X114980000Y-77480000D01*
X123200000Y-68620000D02*
X123220000Y-68620000D01*
D22*
X137640000Y-82960000D02*
X137700000Y-82900000D01*
X135950000Y-82960000D02*
X137640000Y-82960000D01*
X137700000Y-82900000D02*
X138800000Y-82900000D01*
X138800000Y-82900000D02*
X140000000Y-81700000D01*
X140000000Y-81700000D02*
X140000000Y-80400000D01*
X140600000Y-79800000D02*
X142100000Y-79800000D01*
X140000000Y-80400000D02*
X140600000Y-79800000D01*
X136900000Y-72400000D02*
X135240000Y-72400000D01*
X137285000Y-56785000D02*
X135950000Y-56785000D01*
X139800000Y-59300000D02*
X137285000Y-56785000D01*
D23*
X123200000Y-68620000D02*
X124500000Y-69920000D01*
X124500000Y-69920000D02*
X124500000Y-71900000D01*
X124500000Y-71900000D02*
X125000000Y-72400000D01*
X115160000Y-77480000D02*
X114480000Y-77480000D01*
X114480000Y-77480000D02*
X113300000Y-76300000D01*
X113300000Y-76300000D02*
X113300000Y-69500000D01*
X113300000Y-69500000D02*
X114200000Y-68600000D01*
X123180000Y-68600000D02*
X123200000Y-68620000D01*
X114200000Y-68600000D02*
X123180000Y-68600000D01*
X125000000Y-72400000D02*
X130100000Y-72400000D01*
X130100000Y-72400000D02*
X131500000Y-71000000D01*
X131500000Y-71000000D02*
X134800000Y-71000000D01*
X135240000Y-71440000D02*
X135240000Y-72400000D01*
X134800000Y-71000000D02*
X135240000Y-71440000D01*
X132035000Y-56800000D02*
X132050000Y-56785000D01*
D22*
X123200000Y-58400000D02*
X123200000Y-61000000D01*
X124815000Y-56785000D02*
X123200000Y-58400000D01*
X129385000Y-56785000D02*
X124815000Y-56785000D01*
X132050000Y-56785000D02*
X129385000Y-56785000D01*
X123200000Y-61000000D02*
X114500000Y-61000000D01*
X114500000Y-61000000D02*
X112500000Y-63000000D01*
X112500000Y-63000000D02*
X112500000Y-78000000D01*
X112500000Y-78000000D02*
X113600000Y-79100000D01*
X113600000Y-79100000D02*
X117400000Y-79100000D01*
X117700000Y-78800000D02*
X117700000Y-77480000D01*
X117400000Y-79100000D02*
X117700000Y-78800000D01*
X133840000Y-82960000D02*
X132050000Y-82960000D01*
X134200000Y-82600000D02*
X133840000Y-82960000D01*
X134200000Y-82300000D02*
X134200000Y-82600000D01*
D21*
G36*
X113154891Y-79503419D02*
G01*
X113173683Y-79526317D01*
X113265045Y-79601296D01*
X113369279Y-79657010D01*
X113482379Y-79691318D01*
X113600000Y-79702903D01*
X113629474Y-79700000D01*
X117370526Y-79700000D01*
X117400000Y-79702903D01*
X117429474Y-79700000D01*
X117517621Y-79691318D01*
X117630721Y-79657010D01*
X117734955Y-79601296D01*
X117826317Y-79526317D01*
X117845113Y-79503414D01*
X118103415Y-79245112D01*
X118126317Y-79226317D01*
X118201296Y-79134955D01*
X118257010Y-79030721D01*
X118291318Y-78917621D01*
X118300000Y-78829474D01*
X118300000Y-78829473D01*
X118302903Y-78800001D01*
X118300000Y-78770527D01*
X118300000Y-78745535D01*
X118563600Y-78745535D01*
X118642014Y-78737812D01*
X118710026Y-78717181D01*
X118700924Y-78726283D01*
X118602430Y-78873690D01*
X118534586Y-79037480D01*
X118500000Y-79211358D01*
X118500000Y-79388642D01*
X118534586Y-79562520D01*
X118602430Y-79726310D01*
X118700924Y-79873717D01*
X118826283Y-79999076D01*
X118973690Y-80097570D01*
X119137480Y-80165414D01*
X119311358Y-80200000D01*
X119488642Y-80200000D01*
X119662520Y-80165414D01*
X119826310Y-80097570D01*
X119973717Y-79999076D01*
X120072793Y-79900000D01*
X122614827Y-79900000D01*
X122714101Y-79953063D01*
X122952291Y-80025317D01*
X123137923Y-80043600D01*
X123262077Y-80043600D01*
X123447709Y-80025317D01*
X123685899Y-79953063D01*
X123905415Y-79835729D01*
X124097823Y-79677823D01*
X124255729Y-79485415D01*
X124373063Y-79265899D01*
X124419211Y-79113770D01*
X124463120Y-79258534D01*
X124581012Y-79498446D01*
X124743444Y-79710749D01*
X124944173Y-79887283D01*
X125175485Y-80021265D01*
X125259746Y-80050000D01*
X125175485Y-80078735D01*
X124944173Y-80212717D01*
X124743444Y-80389251D01*
X124581012Y-80601554D01*
X124463120Y-80841466D01*
X124419211Y-80986230D01*
X124373063Y-80834101D01*
X124255729Y-80614585D01*
X124097823Y-80422177D01*
X123905415Y-80264271D01*
X123685899Y-80146937D01*
X123447709Y-80074683D01*
X123262077Y-80056400D01*
X123137923Y-80056400D01*
X122952291Y-80074683D01*
X122714101Y-80146937D01*
X122494585Y-80264271D01*
X122302177Y-80422177D01*
X122144271Y-80614585D01*
X122026937Y-80834101D01*
X121954683Y-81072291D01*
X121930286Y-81320000D01*
X121954683Y-81567709D01*
X122026937Y-81805899D01*
X122144271Y-82025415D01*
X122302177Y-82217823D01*
X122494585Y-82375729D01*
X122714101Y-82493063D01*
X122952291Y-82565317D01*
X123137923Y-82583600D01*
X123262077Y-82583600D01*
X123447709Y-82565317D01*
X123616344Y-82514162D01*
X123863601Y-82761419D01*
X123863601Y-82781921D01*
X123685899Y-82686937D01*
X123447709Y-82614683D01*
X123262077Y-82596400D01*
X123137923Y-82596400D01*
X122952291Y-82614683D01*
X122714101Y-82686937D01*
X122494585Y-82804271D01*
X122302177Y-82962177D01*
X122144271Y-83154585D01*
X122026937Y-83374101D01*
X121954683Y-83612291D01*
X121930286Y-83860000D01*
X121954683Y-84107709D01*
X122026937Y-84345899D01*
X122144271Y-84565415D01*
X122302177Y-84757823D01*
X122494585Y-84915729D01*
X122714101Y-85033063D01*
X122952291Y-85105317D01*
X123137923Y-85123600D01*
X123262077Y-85123600D01*
X123447709Y-85105317D01*
X123685899Y-85033063D01*
X123863602Y-84938079D01*
X123863602Y-85586583D01*
X123860941Y-85613601D01*
X123863602Y-85640619D01*
X123871560Y-85721420D01*
X123903010Y-85825095D01*
X123954080Y-85920643D01*
X124005588Y-85983405D01*
X124005594Y-85983411D01*
X124022812Y-86004391D01*
X124043792Y-86021609D01*
X125191987Y-87169804D01*
X125209210Y-87190790D01*
X125230196Y-87208013D01*
X125275392Y-87245105D01*
X125292958Y-87259521D01*
X125388506Y-87310592D01*
X125492181Y-87342042D01*
X125572982Y-87350000D01*
X125572989Y-87350000D01*
X125600000Y-87352660D01*
X125627011Y-87350000D01*
X130465796Y-87350000D01*
X130432254Y-87390871D01*
X130385825Y-87477733D01*
X130357235Y-87571983D01*
X130347581Y-87670000D01*
X130350000Y-87815000D01*
X130475000Y-87940000D01*
X131950000Y-87940000D01*
X131950000Y-87920000D01*
X132150000Y-87920000D01*
X132150000Y-87940000D01*
X132170000Y-87940000D01*
X132170000Y-88140000D01*
X132150000Y-88140000D01*
X132150000Y-88160000D01*
X131950000Y-88160000D01*
X131950000Y-88140000D01*
X130475000Y-88140000D01*
X130350000Y-88265000D01*
X130347581Y-88410000D01*
X130357235Y-88508017D01*
X130385825Y-88602267D01*
X130432254Y-88689129D01*
X130494736Y-88765264D01*
X130570871Y-88827746D01*
X130657733Y-88874175D01*
X130742868Y-88900000D01*
X112100000Y-88900000D01*
X112100000Y-78448527D01*
X113154891Y-79503419D01*
X113154891Y-79503419D01*
G37*
X113154891Y-79503419D02*
X113173683Y-79526317D01*
X113265045Y-79601296D01*
X113369279Y-79657010D01*
X113482379Y-79691318D01*
X113600000Y-79702903D01*
X113629474Y-79700000D01*
X117370526Y-79700000D01*
X117400000Y-79702903D01*
X117429474Y-79700000D01*
X117517621Y-79691318D01*
X117630721Y-79657010D01*
X117734955Y-79601296D01*
X117826317Y-79526317D01*
X117845113Y-79503414D01*
X118103415Y-79245112D01*
X118126317Y-79226317D01*
X118201296Y-79134955D01*
X118257010Y-79030721D01*
X118291318Y-78917621D01*
X118300000Y-78829474D01*
X118300000Y-78829473D01*
X118302903Y-78800001D01*
X118300000Y-78770527D01*
X118300000Y-78745535D01*
X118563600Y-78745535D01*
X118642014Y-78737812D01*
X118710026Y-78717181D01*
X118700924Y-78726283D01*
X118602430Y-78873690D01*
X118534586Y-79037480D01*
X118500000Y-79211358D01*
X118500000Y-79388642D01*
X118534586Y-79562520D01*
X118602430Y-79726310D01*
X118700924Y-79873717D01*
X118826283Y-79999076D01*
X118973690Y-80097570D01*
X119137480Y-80165414D01*
X119311358Y-80200000D01*
X119488642Y-80200000D01*
X119662520Y-80165414D01*
X119826310Y-80097570D01*
X119973717Y-79999076D01*
X120072793Y-79900000D01*
X122614827Y-79900000D01*
X122714101Y-79953063D01*
X122952291Y-80025317D01*
X123137923Y-80043600D01*
X123262077Y-80043600D01*
X123447709Y-80025317D01*
X123685899Y-79953063D01*
X123905415Y-79835729D01*
X124097823Y-79677823D01*
X124255729Y-79485415D01*
X124373063Y-79265899D01*
X124419211Y-79113770D01*
X124463120Y-79258534D01*
X124581012Y-79498446D01*
X124743444Y-79710749D01*
X124944173Y-79887283D01*
X125175485Y-80021265D01*
X125259746Y-80050000D01*
X125175485Y-80078735D01*
X124944173Y-80212717D01*
X124743444Y-80389251D01*
X124581012Y-80601554D01*
X124463120Y-80841466D01*
X124419211Y-80986230D01*
X124373063Y-80834101D01*
X124255729Y-80614585D01*
X124097823Y-80422177D01*
X123905415Y-80264271D01*
X123685899Y-80146937D01*
X123447709Y-80074683D01*
X123262077Y-80056400D01*
X123137923Y-80056400D01*
X122952291Y-80074683D01*
X122714101Y-80146937D01*
X122494585Y-80264271D01*
X122302177Y-80422177D01*
X122144271Y-80614585D01*
X122026937Y-80834101D01*
X121954683Y-81072291D01*
X121930286Y-81320000D01*
X121954683Y-81567709D01*
X122026937Y-81805899D01*
X122144271Y-82025415D01*
X122302177Y-82217823D01*
X122494585Y-82375729D01*
X122714101Y-82493063D01*
X122952291Y-82565317D01*
X123137923Y-82583600D01*
X123262077Y-82583600D01*
X123447709Y-82565317D01*
X123616344Y-82514162D01*
X123863601Y-82761419D01*
X123863601Y-82781921D01*
X123685899Y-82686937D01*
X123447709Y-82614683D01*
X123262077Y-82596400D01*
X123137923Y-82596400D01*
X122952291Y-82614683D01*
X122714101Y-82686937D01*
X122494585Y-82804271D01*
X122302177Y-82962177D01*
X122144271Y-83154585D01*
X122026937Y-83374101D01*
X121954683Y-83612291D01*
X121930286Y-83860000D01*
X121954683Y-84107709D01*
X122026937Y-84345899D01*
X122144271Y-84565415D01*
X122302177Y-84757823D01*
X122494585Y-84915729D01*
X122714101Y-85033063D01*
X122952291Y-85105317D01*
X123137923Y-85123600D01*
X123262077Y-85123600D01*
X123447709Y-85105317D01*
X123685899Y-85033063D01*
X123863602Y-84938079D01*
X123863602Y-85586583D01*
X123860941Y-85613601D01*
X123863602Y-85640619D01*
X123871560Y-85721420D01*
X123903010Y-85825095D01*
X123954080Y-85920643D01*
X124005588Y-85983405D01*
X124005594Y-85983411D01*
X124022812Y-86004391D01*
X124043792Y-86021609D01*
X125191987Y-87169804D01*
X125209210Y-87190790D01*
X125230196Y-87208013D01*
X125275392Y-87245105D01*
X125292958Y-87259521D01*
X125388506Y-87310592D01*
X125492181Y-87342042D01*
X125572982Y-87350000D01*
X125572989Y-87350000D01*
X125600000Y-87352660D01*
X125627011Y-87350000D01*
X130465796Y-87350000D01*
X130432254Y-87390871D01*
X130385825Y-87477733D01*
X130357235Y-87571983D01*
X130347581Y-87670000D01*
X130350000Y-87815000D01*
X130475000Y-87940000D01*
X131950000Y-87940000D01*
X131950000Y-87920000D01*
X132150000Y-87920000D01*
X132150000Y-87940000D01*
X132170000Y-87940000D01*
X132170000Y-88140000D01*
X132150000Y-88140000D01*
X132150000Y-88160000D01*
X131950000Y-88160000D01*
X131950000Y-88140000D01*
X130475000Y-88140000D01*
X130350000Y-88265000D01*
X130347581Y-88410000D01*
X130357235Y-88508017D01*
X130385825Y-88602267D01*
X130432254Y-88689129D01*
X130494736Y-88765264D01*
X130570871Y-88827746D01*
X130657733Y-88874175D01*
X130742868Y-88900000D01*
X112100000Y-88900000D01*
X112100000Y-78448527D01*
X113154891Y-79503419D01*
G36*
X145448065Y-58250000D02*
G01*
X145455788Y-58328414D01*
X145478660Y-58403814D01*
X145515803Y-58473303D01*
X145565789Y-58534211D01*
X145626697Y-58584197D01*
X145696186Y-58621340D01*
X145771586Y-58644212D01*
X145850000Y-58651935D01*
X147550000Y-58651935D01*
X147628414Y-58644212D01*
X147703814Y-58621340D01*
X147773303Y-58584197D01*
X147834211Y-58534211D01*
X147884197Y-58473303D01*
X147921340Y-58403814D01*
X147944212Y-58328414D01*
X147951935Y-58250000D01*
X147951935Y-57100000D01*
X149900000Y-57100000D01*
X149900000Y-88900000D01*
X143448527Y-88900000D01*
X145145104Y-87203424D01*
X145201295Y-87134955D01*
X145257009Y-87030722D01*
X145291318Y-86917622D01*
X145302902Y-86800001D01*
X145291318Y-86682380D01*
X145257009Y-86569280D01*
X145250000Y-86556167D01*
X145250000Y-74927007D01*
X145252660Y-74899999D01*
X145250000Y-74872991D01*
X145250000Y-71227817D01*
X148969810Y-67508008D01*
X148990790Y-67490790D01*
X149008008Y-67469810D01*
X149008013Y-67469805D01*
X149059521Y-67407042D01*
X149086589Y-67356400D01*
X149110592Y-67311494D01*
X149142042Y-67207819D01*
X149150000Y-67127018D01*
X149150000Y-67127008D01*
X149152660Y-67100000D01*
X149150000Y-67072992D01*
X149150000Y-63127007D01*
X149152660Y-63099999D01*
X149150000Y-63072991D01*
X149150000Y-63072982D01*
X149142042Y-62992181D01*
X149110592Y-62888506D01*
X149059521Y-62792958D01*
X149036576Y-62765000D01*
X149008013Y-62730195D01*
X149008008Y-62730190D01*
X148990790Y-62709210D01*
X148969809Y-62691992D01*
X148388013Y-62110195D01*
X148370790Y-62089210D01*
X148287042Y-62020479D01*
X148191494Y-61969408D01*
X148087819Y-61937958D01*
X148007018Y-61930000D01*
X148007008Y-61930000D01*
X147980000Y-61927340D01*
X147952992Y-61930000D01*
X147823379Y-61930000D01*
X147744366Y-61782177D01*
X147588160Y-61591840D01*
X147397823Y-61435634D01*
X147180669Y-61319563D01*
X146945043Y-61248087D01*
X146761405Y-61230000D01*
X146638595Y-61230000D01*
X146454957Y-61248087D01*
X146219331Y-61319563D01*
X146002177Y-61435634D01*
X145811840Y-61591840D01*
X145655634Y-61782177D01*
X145539563Y-61999331D01*
X145468087Y-62234957D01*
X145443952Y-62480000D01*
X145468087Y-62725043D01*
X145539563Y-62960669D01*
X145655634Y-63177823D01*
X145811840Y-63368160D01*
X146002177Y-63524366D01*
X146219331Y-63640437D01*
X146454957Y-63711913D01*
X146599998Y-63726198D01*
X146599998Y-63798704D01*
X146390624Y-63705924D01*
X146140205Y-63791530D01*
X145911299Y-63924345D01*
X145712702Y-64099266D01*
X145552046Y-64309570D01*
X145435506Y-64547175D01*
X145385928Y-64710625D01*
X145479088Y-64920000D01*
X146600000Y-64920000D01*
X146600000Y-64900000D01*
X146800000Y-64900000D01*
X146800000Y-64920000D01*
X146820000Y-64920000D01*
X146820000Y-65120000D01*
X146800000Y-65120000D01*
X146800000Y-66241295D01*
X147009376Y-66334076D01*
X147259795Y-66248470D01*
X147488701Y-66115655D01*
X147687298Y-65940734D01*
X147847954Y-65730430D01*
X147964494Y-65492825D01*
X148014072Y-65329375D01*
X147920913Y-65120002D01*
X148050000Y-65120002D01*
X148050000Y-66872182D01*
X144330191Y-70591992D01*
X144309211Y-70609210D01*
X144291993Y-70630190D01*
X144291987Y-70630196D01*
X144240479Y-70692958D01*
X144205809Y-70757823D01*
X144189409Y-70788506D01*
X144169858Y-70852958D01*
X144157959Y-70892182D01*
X144147340Y-71000000D01*
X144150001Y-71027018D01*
X144150000Y-74250000D01*
X143348379Y-74250000D01*
X143269366Y-74102177D01*
X143113160Y-73911840D01*
X142922823Y-73755634D01*
X142705669Y-73639563D01*
X142572913Y-73599292D01*
X142669123Y-73576079D01*
X142909540Y-73464915D01*
X143123650Y-73308984D01*
X143303226Y-73114279D01*
X143441366Y-72888281D01*
X143532762Y-72639676D01*
X143539072Y-72609375D01*
X143445912Y-72400000D01*
X142200000Y-72400000D01*
X142200000Y-72420000D01*
X142000000Y-72420000D01*
X142000000Y-72400000D01*
X140754088Y-72400000D01*
X140660928Y-72609375D01*
X140667238Y-72639676D01*
X140758634Y-72888281D01*
X140896774Y-73114279D01*
X141076350Y-73308984D01*
X141290460Y-73464915D01*
X141530877Y-73576079D01*
X141627087Y-73599292D01*
X141494331Y-73639563D01*
X141277177Y-73755634D01*
X141086840Y-73911840D01*
X140930634Y-74102177D01*
X140814563Y-74319331D01*
X140743087Y-74554957D01*
X140718952Y-74800000D01*
X140743087Y-75045043D01*
X140814563Y-75280669D01*
X140930634Y-75497823D01*
X141086840Y-75688160D01*
X141277177Y-75844366D01*
X141494331Y-75960437D01*
X141729957Y-76031913D01*
X141913595Y-76050000D01*
X141729957Y-76068087D01*
X141494331Y-76139563D01*
X141277177Y-76255634D01*
X141086840Y-76411840D01*
X140930634Y-76602177D01*
X140878347Y-76700000D01*
X140548528Y-76700000D01*
X140500000Y-76651473D01*
X140500000Y-76562003D01*
X140520332Y-76531574D01*
X140573099Y-76404182D01*
X140600000Y-76268944D01*
X140600000Y-76131056D01*
X140573099Y-75995818D01*
X140520332Y-75868426D01*
X140443726Y-75753776D01*
X140346224Y-75656274D01*
X140231574Y-75579668D01*
X140104182Y-75526901D01*
X139968944Y-75500000D01*
X139831056Y-75500000D01*
X139695818Y-75526901D01*
X139568426Y-75579668D01*
X139537997Y-75600000D01*
X137962003Y-75600000D01*
X138046224Y-75543726D01*
X138143726Y-75446224D01*
X138220332Y-75331574D01*
X138273099Y-75204182D01*
X138300000Y-75068944D01*
X138300000Y-74931056D01*
X138273099Y-74795818D01*
X138220332Y-74668426D01*
X138143726Y-74553776D01*
X138046224Y-74456274D01*
X138031587Y-74446494D01*
X138095818Y-74473099D01*
X138231056Y-74500000D01*
X138368944Y-74500000D01*
X138504182Y-74473099D01*
X138631574Y-74420332D01*
X138746224Y-74343726D01*
X138843726Y-74246224D01*
X138920332Y-74131574D01*
X138973099Y-74004182D01*
X139000000Y-73868944D01*
X139000000Y-73731056D01*
X138973099Y-73595818D01*
X138920332Y-73468426D01*
X138843726Y-73353776D01*
X138746224Y-73256274D01*
X138631574Y-73179668D01*
X138504182Y-73126901D01*
X138368944Y-73100000D01*
X138231056Y-73100000D01*
X138095818Y-73126901D01*
X137968426Y-73179668D01*
X137952964Y-73189999D01*
X136208719Y-73189999D01*
X136284366Y-73097823D01*
X136336653Y-73000000D01*
X136537997Y-73000000D01*
X136568426Y-73020332D01*
X136695818Y-73073099D01*
X136831056Y-73100000D01*
X136968944Y-73100000D01*
X137104182Y-73073099D01*
X137231574Y-73020332D01*
X137346224Y-72943726D01*
X137443726Y-72846224D01*
X137520332Y-72731574D01*
X137573099Y-72604182D01*
X137600000Y-72468944D01*
X137600000Y-72331056D01*
X137573099Y-72195818D01*
X137520332Y-72068426D01*
X137468348Y-71990625D01*
X140660928Y-71990625D01*
X140754088Y-72200000D01*
X142000000Y-72200000D01*
X142000000Y-71074075D01*
X142200000Y-71074075D01*
X142200000Y-72200000D01*
X143445912Y-72200000D01*
X143539072Y-71990625D01*
X143532762Y-71960324D01*
X143441366Y-71711719D01*
X143303226Y-71485721D01*
X143123650Y-71291016D01*
X142909540Y-71135085D01*
X142669123Y-71023921D01*
X142411639Y-70961796D01*
X142200000Y-71074075D01*
X142000000Y-71074075D01*
X141788361Y-70961796D01*
X141530877Y-71023921D01*
X141290460Y-71135085D01*
X141076350Y-71291016D01*
X140896774Y-71485721D01*
X140758634Y-71711719D01*
X140667238Y-71960324D01*
X140660928Y-71990625D01*
X137468348Y-71990625D01*
X137443726Y-71953776D01*
X137346224Y-71856274D01*
X137231574Y-71779668D01*
X137104182Y-71726901D01*
X136968944Y-71700000D01*
X136831056Y-71700000D01*
X136695818Y-71726901D01*
X136568426Y-71779668D01*
X136537997Y-71800000D01*
X136336653Y-71800000D01*
X136284366Y-71702177D01*
X136128160Y-71511840D01*
X135937823Y-71355634D01*
X135760386Y-71260792D01*
X135750592Y-71228506D01*
X135700658Y-71135085D01*
X135699521Y-71132957D01*
X135648013Y-71070195D01*
X135648008Y-71070190D01*
X135630790Y-71049210D01*
X135609809Y-71031991D01*
X135208012Y-70630195D01*
X135190790Y-70609210D01*
X135107042Y-70540479D01*
X135011494Y-70489408D01*
X134907819Y-70457958D01*
X134827018Y-70450000D01*
X134827008Y-70450000D01*
X134800000Y-70447340D01*
X134772992Y-70450000D01*
X131527008Y-70450000D01*
X131500000Y-70447340D01*
X131472992Y-70450000D01*
X131472982Y-70450000D01*
X131392181Y-70457958D01*
X131288506Y-70489408D01*
X131244028Y-70513182D01*
X131192957Y-70540479D01*
X131130195Y-70591987D01*
X131130190Y-70591992D01*
X131109210Y-70609210D01*
X131091992Y-70630190D01*
X129872183Y-71850000D01*
X126912966Y-71850000D01*
X127016880Y-71638534D01*
X127067542Y-71471508D01*
X126974557Y-71260000D01*
X125840000Y-71260000D01*
X125840000Y-71280000D01*
X125640000Y-71280000D01*
X125640000Y-71260000D01*
X125620000Y-71260000D01*
X125620000Y-71060000D01*
X125640000Y-71060000D01*
X125640000Y-69925068D01*
X125559913Y-69890000D01*
X125640000Y-69854932D01*
X125640000Y-68720000D01*
X125840000Y-68720000D01*
X125840000Y-69854932D01*
X125920087Y-69890000D01*
X125840000Y-69925068D01*
X125840000Y-71060000D01*
X126974557Y-71060000D01*
X127067542Y-70848492D01*
X127016880Y-70681466D01*
X126898988Y-70441554D01*
X126736556Y-70229251D01*
X126535827Y-70052717D01*
X126304515Y-69918735D01*
X126220254Y-69890000D01*
X126304515Y-69861265D01*
X126535827Y-69727283D01*
X126736556Y-69550749D01*
X126898988Y-69338446D01*
X127016880Y-69098534D01*
X127067542Y-68931508D01*
X126974557Y-68720000D01*
X125840000Y-68720000D01*
X125640000Y-68720000D01*
X125620000Y-68720000D01*
X125620000Y-68520000D01*
X125640000Y-68520000D01*
X125640000Y-68500000D01*
X125840000Y-68500000D01*
X125840000Y-68520000D01*
X126974557Y-68520000D01*
X127067542Y-68308492D01*
X127040056Y-68217873D01*
X128991992Y-70169810D01*
X129009210Y-70190790D01*
X129030190Y-70208008D01*
X129030195Y-70208013D01*
X129056074Y-70229251D01*
X129092958Y-70259521D01*
X129188506Y-70310592D01*
X129292181Y-70342042D01*
X129372982Y-70350000D01*
X129372992Y-70350000D01*
X129400000Y-70352660D01*
X129427008Y-70350000D01*
X133172992Y-70350000D01*
X133200000Y-70352660D01*
X133227008Y-70350000D01*
X133227018Y-70350000D01*
X133307819Y-70342042D01*
X133411494Y-70310592D01*
X133507042Y-70259521D01*
X133590790Y-70190790D01*
X133608013Y-70169804D01*
X134369810Y-69408008D01*
X134390790Y-69390790D01*
X134408008Y-69369810D01*
X134408013Y-69369805D01*
X134459521Y-69307042D01*
X134510592Y-69211495D01*
X134542042Y-69107819D01*
X134545002Y-69077765D01*
X134550000Y-69027018D01*
X134550000Y-69027011D01*
X134552660Y-69000000D01*
X134550000Y-68972989D01*
X134550000Y-68931653D01*
X134596186Y-68956340D01*
X134671586Y-68979212D01*
X134750000Y-68986935D01*
X137150000Y-68986935D01*
X137228414Y-68979212D01*
X137303814Y-68956340D01*
X137373303Y-68919197D01*
X137434211Y-68869211D01*
X137484197Y-68808303D01*
X137521340Y-68738814D01*
X137544212Y-68663414D01*
X137551935Y-68585000D01*
X137551935Y-67845000D01*
X137544212Y-67766586D01*
X137521340Y-67691186D01*
X137484197Y-67621697D01*
X137449977Y-67580000D01*
X137484197Y-67538303D01*
X137521340Y-67468814D01*
X137544212Y-67393414D01*
X137551935Y-67315000D01*
X137551935Y-66575000D01*
X137544212Y-66496586D01*
X137521340Y-66421186D01*
X137484197Y-66351697D01*
X137449977Y-66310000D01*
X137484197Y-66268303D01*
X137521340Y-66198814D01*
X137544212Y-66123414D01*
X137551935Y-66045000D01*
X137551935Y-65329375D01*
X145385928Y-65329375D01*
X145435506Y-65492825D01*
X145552046Y-65730430D01*
X145712702Y-65940734D01*
X145911299Y-66115655D01*
X146140205Y-66248470D01*
X146390624Y-66334076D01*
X146600000Y-66241295D01*
X146600000Y-65120000D01*
X145479088Y-65120000D01*
X145385928Y-65329375D01*
X137551935Y-65329375D01*
X137551935Y-65305000D01*
X137544212Y-65226586D01*
X137521340Y-65151186D01*
X137484197Y-65081697D01*
X137449977Y-65040000D01*
X137484197Y-64998303D01*
X137521340Y-64928814D01*
X137544212Y-64853414D01*
X137551935Y-64775000D01*
X137551935Y-64035000D01*
X137544212Y-63956586D01*
X137521340Y-63881186D01*
X137484197Y-63811697D01*
X137449977Y-63770000D01*
X137484197Y-63728303D01*
X137521340Y-63658814D01*
X137544212Y-63583414D01*
X137551935Y-63505000D01*
X137551935Y-62765000D01*
X137544212Y-62686586D01*
X137521340Y-62611186D01*
X137484197Y-62541697D01*
X137449977Y-62500000D01*
X137478701Y-62465000D01*
X138576265Y-62465000D01*
X138595818Y-62473099D01*
X138731056Y-62500000D01*
X138868944Y-62500000D01*
X139004182Y-62473099D01*
X139131574Y-62420332D01*
X139246224Y-62343726D01*
X139343726Y-62246224D01*
X139420332Y-62131574D01*
X139473099Y-62004182D01*
X139500000Y-61868944D01*
X139500000Y-61731056D01*
X139473099Y-61595818D01*
X139420332Y-61468426D01*
X139343726Y-61353776D01*
X139246224Y-61256274D01*
X139131574Y-61179668D01*
X139004182Y-61126901D01*
X138969874Y-61120076D01*
X139043726Y-61046224D01*
X139120332Y-60931574D01*
X139133410Y-60900000D01*
X144370526Y-60900000D01*
X144400000Y-60902903D01*
X144429474Y-60900000D01*
X144517621Y-60891318D01*
X144630721Y-60857010D01*
X144734955Y-60801296D01*
X144826317Y-60726317D01*
X144845113Y-60703414D01*
X145008527Y-60540000D01*
X145603347Y-60540000D01*
X145655634Y-60637823D01*
X145811840Y-60828160D01*
X146002177Y-60984366D01*
X146219331Y-61100437D01*
X146454957Y-61171913D01*
X146638595Y-61190000D01*
X146761405Y-61190000D01*
X146945043Y-61171913D01*
X147180669Y-61100437D01*
X147397823Y-60984366D01*
X147588160Y-60828160D01*
X147744366Y-60637823D01*
X147860437Y-60420669D01*
X147931913Y-60185043D01*
X147956048Y-59940000D01*
X147931913Y-59694957D01*
X147860437Y-59459331D01*
X147744366Y-59242177D01*
X147588160Y-59051840D01*
X147397823Y-58895634D01*
X147180669Y-58779563D01*
X146945043Y-58708087D01*
X146761405Y-58690000D01*
X146638595Y-58690000D01*
X146454957Y-58708087D01*
X146219331Y-58779563D01*
X146002177Y-58895634D01*
X145811840Y-59051840D01*
X145655634Y-59242177D01*
X145603347Y-59340000D01*
X144789474Y-59340000D01*
X144760000Y-59337097D01*
X144642379Y-59348682D01*
X144529278Y-59382990D01*
X144492971Y-59402397D01*
X144425045Y-59438704D01*
X144333683Y-59513683D01*
X144314887Y-59536586D01*
X144151473Y-59700000D01*
X140374612Y-59700000D01*
X140420332Y-59631574D01*
X140473099Y-59504182D01*
X140500000Y-59368944D01*
X140500000Y-59231056D01*
X140473099Y-59095818D01*
X140420332Y-58968426D01*
X140343726Y-58853776D01*
X140246224Y-58756274D01*
X140131574Y-58679668D01*
X140004182Y-58626901D01*
X139968289Y-58619761D01*
X138448527Y-57100000D01*
X145448065Y-57100000D01*
X145448065Y-58250000D01*
X145448065Y-58250000D01*
G37*
X145448065Y-58250000D02*
X145455788Y-58328414D01*
X145478660Y-58403814D01*
X145515803Y-58473303D01*
X145565789Y-58534211D01*
X145626697Y-58584197D01*
X145696186Y-58621340D01*
X145771586Y-58644212D01*
X145850000Y-58651935D01*
X147550000Y-58651935D01*
X147628414Y-58644212D01*
X147703814Y-58621340D01*
X147773303Y-58584197D01*
X147834211Y-58534211D01*
X147884197Y-58473303D01*
X147921340Y-58403814D01*
X147944212Y-58328414D01*
X147951935Y-58250000D01*
X147951935Y-57100000D01*
X149900000Y-57100000D01*
X149900000Y-88900000D01*
X143448527Y-88900000D01*
X145145104Y-87203424D01*
X145201295Y-87134955D01*
X145257009Y-87030722D01*
X145291318Y-86917622D01*
X145302902Y-86800001D01*
X145291318Y-86682380D01*
X145257009Y-86569280D01*
X145250000Y-86556167D01*
X145250000Y-74927007D01*
X145252660Y-74899999D01*
X145250000Y-74872991D01*
X145250000Y-71227817D01*
X148969810Y-67508008D01*
X148990790Y-67490790D01*
X149008008Y-67469810D01*
X149008013Y-67469805D01*
X149059521Y-67407042D01*
X149086589Y-67356400D01*
X149110592Y-67311494D01*
X149142042Y-67207819D01*
X149150000Y-67127018D01*
X149150000Y-67127008D01*
X149152660Y-67100000D01*
X149150000Y-67072992D01*
X149150000Y-63127007D01*
X149152660Y-63099999D01*
X149150000Y-63072991D01*
X149150000Y-63072982D01*
X149142042Y-62992181D01*
X149110592Y-62888506D01*
X149059521Y-62792958D01*
X149036576Y-62765000D01*
X149008013Y-62730195D01*
X149008008Y-62730190D01*
X148990790Y-62709210D01*
X148969809Y-62691992D01*
X148388013Y-62110195D01*
X148370790Y-62089210D01*
X148287042Y-62020479D01*
X148191494Y-61969408D01*
X148087819Y-61937958D01*
X148007018Y-61930000D01*
X148007008Y-61930000D01*
X147980000Y-61927340D01*
X147952992Y-61930000D01*
X147823379Y-61930000D01*
X147744366Y-61782177D01*
X147588160Y-61591840D01*
X147397823Y-61435634D01*
X147180669Y-61319563D01*
X146945043Y-61248087D01*
X146761405Y-61230000D01*
X146638595Y-61230000D01*
X146454957Y-61248087D01*
X146219331Y-61319563D01*
X146002177Y-61435634D01*
X145811840Y-61591840D01*
X145655634Y-61782177D01*
X145539563Y-61999331D01*
X145468087Y-62234957D01*
X145443952Y-62480000D01*
X145468087Y-62725043D01*
X145539563Y-62960669D01*
X145655634Y-63177823D01*
X145811840Y-63368160D01*
X146002177Y-63524366D01*
X146219331Y-63640437D01*
X146454957Y-63711913D01*
X146599998Y-63726198D01*
X146599998Y-63798704D01*
X146390624Y-63705924D01*
X146140205Y-63791530D01*
X145911299Y-63924345D01*
X145712702Y-64099266D01*
X145552046Y-64309570D01*
X145435506Y-64547175D01*
X145385928Y-64710625D01*
X145479088Y-64920000D01*
X146600000Y-64920000D01*
X146600000Y-64900000D01*
X146800000Y-64900000D01*
X146800000Y-64920000D01*
X146820000Y-64920000D01*
X146820000Y-65120000D01*
X146800000Y-65120000D01*
X146800000Y-66241295D01*
X147009376Y-66334076D01*
X147259795Y-66248470D01*
X147488701Y-66115655D01*
X147687298Y-65940734D01*
X147847954Y-65730430D01*
X147964494Y-65492825D01*
X148014072Y-65329375D01*
X147920913Y-65120002D01*
X148050000Y-65120002D01*
X148050000Y-66872182D01*
X144330191Y-70591992D01*
X144309211Y-70609210D01*
X144291993Y-70630190D01*
X144291987Y-70630196D01*
X144240479Y-70692958D01*
X144205809Y-70757823D01*
X144189409Y-70788506D01*
X144169858Y-70852958D01*
X144157959Y-70892182D01*
X144147340Y-71000000D01*
X144150001Y-71027018D01*
X144150000Y-74250000D01*
X143348379Y-74250000D01*
X143269366Y-74102177D01*
X143113160Y-73911840D01*
X142922823Y-73755634D01*
X142705669Y-73639563D01*
X142572913Y-73599292D01*
X142669123Y-73576079D01*
X142909540Y-73464915D01*
X143123650Y-73308984D01*
X143303226Y-73114279D01*
X143441366Y-72888281D01*
X143532762Y-72639676D01*
X143539072Y-72609375D01*
X143445912Y-72400000D01*
X142200000Y-72400000D01*
X142200000Y-72420000D01*
X142000000Y-72420000D01*
X142000000Y-72400000D01*
X140754088Y-72400000D01*
X140660928Y-72609375D01*
X140667238Y-72639676D01*
X140758634Y-72888281D01*
X140896774Y-73114279D01*
X141076350Y-73308984D01*
X141290460Y-73464915D01*
X141530877Y-73576079D01*
X141627087Y-73599292D01*
X141494331Y-73639563D01*
X141277177Y-73755634D01*
X141086840Y-73911840D01*
X140930634Y-74102177D01*
X140814563Y-74319331D01*
X140743087Y-74554957D01*
X140718952Y-74800000D01*
X140743087Y-75045043D01*
X140814563Y-75280669D01*
X140930634Y-75497823D01*
X141086840Y-75688160D01*
X141277177Y-75844366D01*
X141494331Y-75960437D01*
X141729957Y-76031913D01*
X141913595Y-76050000D01*
X141729957Y-76068087D01*
X141494331Y-76139563D01*
X141277177Y-76255634D01*
X141086840Y-76411840D01*
X140930634Y-76602177D01*
X140878347Y-76700000D01*
X140548528Y-76700000D01*
X140500000Y-76651473D01*
X140500000Y-76562003D01*
X140520332Y-76531574D01*
X140573099Y-76404182D01*
X140600000Y-76268944D01*
X140600000Y-76131056D01*
X140573099Y-75995818D01*
X140520332Y-75868426D01*
X140443726Y-75753776D01*
X140346224Y-75656274D01*
X140231574Y-75579668D01*
X140104182Y-75526901D01*
X139968944Y-75500000D01*
X139831056Y-75500000D01*
X139695818Y-75526901D01*
X139568426Y-75579668D01*
X139537997Y-75600000D01*
X137962003Y-75600000D01*
X138046224Y-75543726D01*
X138143726Y-75446224D01*
X138220332Y-75331574D01*
X138273099Y-75204182D01*
X138300000Y-75068944D01*
X138300000Y-74931056D01*
X138273099Y-74795818D01*
X138220332Y-74668426D01*
X138143726Y-74553776D01*
X138046224Y-74456274D01*
X138031587Y-74446494D01*
X138095818Y-74473099D01*
X138231056Y-74500000D01*
X138368944Y-74500000D01*
X138504182Y-74473099D01*
X138631574Y-74420332D01*
X138746224Y-74343726D01*
X138843726Y-74246224D01*
X138920332Y-74131574D01*
X138973099Y-74004182D01*
X139000000Y-73868944D01*
X139000000Y-73731056D01*
X138973099Y-73595818D01*
X138920332Y-73468426D01*
X138843726Y-73353776D01*
X138746224Y-73256274D01*
X138631574Y-73179668D01*
X138504182Y-73126901D01*
X138368944Y-73100000D01*
X138231056Y-73100000D01*
X138095818Y-73126901D01*
X137968426Y-73179668D01*
X137952964Y-73189999D01*
X136208719Y-73189999D01*
X136284366Y-73097823D01*
X136336653Y-73000000D01*
X136537997Y-73000000D01*
X136568426Y-73020332D01*
X136695818Y-73073099D01*
X136831056Y-73100000D01*
X136968944Y-73100000D01*
X137104182Y-73073099D01*
X137231574Y-73020332D01*
X137346224Y-72943726D01*
X137443726Y-72846224D01*
X137520332Y-72731574D01*
X137573099Y-72604182D01*
X137600000Y-72468944D01*
X137600000Y-72331056D01*
X137573099Y-72195818D01*
X137520332Y-72068426D01*
X137468348Y-71990625D01*
X140660928Y-71990625D01*
X140754088Y-72200000D01*
X142000000Y-72200000D01*
X142000000Y-71074075D01*
X142200000Y-71074075D01*
X142200000Y-72200000D01*
X143445912Y-72200000D01*
X143539072Y-71990625D01*
X143532762Y-71960324D01*
X143441366Y-71711719D01*
X143303226Y-71485721D01*
X143123650Y-71291016D01*
X142909540Y-71135085D01*
X142669123Y-71023921D01*
X142411639Y-70961796D01*
X142200000Y-71074075D01*
X142000000Y-71074075D01*
X141788361Y-70961796D01*
X141530877Y-71023921D01*
X141290460Y-71135085D01*
X141076350Y-71291016D01*
X140896774Y-71485721D01*
X140758634Y-71711719D01*
X140667238Y-71960324D01*
X140660928Y-71990625D01*
X137468348Y-71990625D01*
X137443726Y-71953776D01*
X137346224Y-71856274D01*
X137231574Y-71779668D01*
X137104182Y-71726901D01*
X136968944Y-71700000D01*
X136831056Y-71700000D01*
X136695818Y-71726901D01*
X136568426Y-71779668D01*
X136537997Y-71800000D01*
X136336653Y-71800000D01*
X136284366Y-71702177D01*
X136128160Y-71511840D01*
X135937823Y-71355634D01*
X135760386Y-71260792D01*
X135750592Y-71228506D01*
X135700658Y-71135085D01*
X135699521Y-71132957D01*
X135648013Y-71070195D01*
X135648008Y-71070190D01*
X135630790Y-71049210D01*
X135609809Y-71031991D01*
X135208012Y-70630195D01*
X135190790Y-70609210D01*
X135107042Y-70540479D01*
X135011494Y-70489408D01*
X134907819Y-70457958D01*
X134827018Y-70450000D01*
X134827008Y-70450000D01*
X134800000Y-70447340D01*
X134772992Y-70450000D01*
X131527008Y-70450000D01*
X131500000Y-70447340D01*
X131472992Y-70450000D01*
X131472982Y-70450000D01*
X131392181Y-70457958D01*
X131288506Y-70489408D01*
X131244028Y-70513182D01*
X131192957Y-70540479D01*
X131130195Y-70591987D01*
X131130190Y-70591992D01*
X131109210Y-70609210D01*
X131091992Y-70630190D01*
X129872183Y-71850000D01*
X126912966Y-71850000D01*
X127016880Y-71638534D01*
X127067542Y-71471508D01*
X126974557Y-71260000D01*
X125840000Y-71260000D01*
X125840000Y-71280000D01*
X125640000Y-71280000D01*
X125640000Y-71260000D01*
X125620000Y-71260000D01*
X125620000Y-71060000D01*
X125640000Y-71060000D01*
X125640000Y-69925068D01*
X125559913Y-69890000D01*
X125640000Y-69854932D01*
X125640000Y-68720000D01*
X125840000Y-68720000D01*
X125840000Y-69854932D01*
X125920087Y-69890000D01*
X125840000Y-69925068D01*
X125840000Y-71060000D01*
X126974557Y-71060000D01*
X127067542Y-70848492D01*
X127016880Y-70681466D01*
X126898988Y-70441554D01*
X126736556Y-70229251D01*
X126535827Y-70052717D01*
X126304515Y-69918735D01*
X126220254Y-69890000D01*
X126304515Y-69861265D01*
X126535827Y-69727283D01*
X126736556Y-69550749D01*
X126898988Y-69338446D01*
X127016880Y-69098534D01*
X127067542Y-68931508D01*
X126974557Y-68720000D01*
X125840000Y-68720000D01*
X125640000Y-68720000D01*
X125620000Y-68720000D01*
X125620000Y-68520000D01*
X125640000Y-68520000D01*
X125640000Y-68500000D01*
X125840000Y-68500000D01*
X125840000Y-68520000D01*
X126974557Y-68520000D01*
X127067542Y-68308492D01*
X127040056Y-68217873D01*
X128991992Y-70169810D01*
X129009210Y-70190790D01*
X129030190Y-70208008D01*
X129030195Y-70208013D01*
X129056074Y-70229251D01*
X129092958Y-70259521D01*
X129188506Y-70310592D01*
X129292181Y-70342042D01*
X129372982Y-70350000D01*
X129372992Y-70350000D01*
X129400000Y-70352660D01*
X129427008Y-70350000D01*
X133172992Y-70350000D01*
X133200000Y-70352660D01*
X133227008Y-70350000D01*
X133227018Y-70350000D01*
X133307819Y-70342042D01*
X133411494Y-70310592D01*
X133507042Y-70259521D01*
X133590790Y-70190790D01*
X133608013Y-70169804D01*
X134369810Y-69408008D01*
X134390790Y-69390790D01*
X134408008Y-69369810D01*
X134408013Y-69369805D01*
X134459521Y-69307042D01*
X134510592Y-69211495D01*
X134542042Y-69107819D01*
X134545002Y-69077765D01*
X134550000Y-69027018D01*
X134550000Y-69027011D01*
X134552660Y-69000000D01*
X134550000Y-68972989D01*
X134550000Y-68931653D01*
X134596186Y-68956340D01*
X134671586Y-68979212D01*
X134750000Y-68986935D01*
X137150000Y-68986935D01*
X137228414Y-68979212D01*
X137303814Y-68956340D01*
X137373303Y-68919197D01*
X137434211Y-68869211D01*
X137484197Y-68808303D01*
X137521340Y-68738814D01*
X137544212Y-68663414D01*
X137551935Y-68585000D01*
X137551935Y-67845000D01*
X137544212Y-67766586D01*
X137521340Y-67691186D01*
X137484197Y-67621697D01*
X137449977Y-67580000D01*
X137484197Y-67538303D01*
X137521340Y-67468814D01*
X137544212Y-67393414D01*
X137551935Y-67315000D01*
X137551935Y-66575000D01*
X137544212Y-66496586D01*
X137521340Y-66421186D01*
X137484197Y-66351697D01*
X137449977Y-66310000D01*
X137484197Y-66268303D01*
X137521340Y-66198814D01*
X137544212Y-66123414D01*
X137551935Y-66045000D01*
X137551935Y-65329375D01*
X145385928Y-65329375D01*
X145435506Y-65492825D01*
X145552046Y-65730430D01*
X145712702Y-65940734D01*
X145911299Y-66115655D01*
X146140205Y-66248470D01*
X146390624Y-66334076D01*
X146600000Y-66241295D01*
X146600000Y-65120000D01*
X145479088Y-65120000D01*
X145385928Y-65329375D01*
X137551935Y-65329375D01*
X137551935Y-65305000D01*
X137544212Y-65226586D01*
X137521340Y-65151186D01*
X137484197Y-65081697D01*
X137449977Y-65040000D01*
X137484197Y-64998303D01*
X137521340Y-64928814D01*
X137544212Y-64853414D01*
X137551935Y-64775000D01*
X137551935Y-64035000D01*
X137544212Y-63956586D01*
X137521340Y-63881186D01*
X137484197Y-63811697D01*
X137449977Y-63770000D01*
X137484197Y-63728303D01*
X137521340Y-63658814D01*
X137544212Y-63583414D01*
X137551935Y-63505000D01*
X137551935Y-62765000D01*
X137544212Y-62686586D01*
X137521340Y-62611186D01*
X137484197Y-62541697D01*
X137449977Y-62500000D01*
X137478701Y-62465000D01*
X138576265Y-62465000D01*
X138595818Y-62473099D01*
X138731056Y-62500000D01*
X138868944Y-62500000D01*
X139004182Y-62473099D01*
X139131574Y-62420332D01*
X139246224Y-62343726D01*
X139343726Y-62246224D01*
X139420332Y-62131574D01*
X139473099Y-62004182D01*
X139500000Y-61868944D01*
X139500000Y-61731056D01*
X139473099Y-61595818D01*
X139420332Y-61468426D01*
X139343726Y-61353776D01*
X139246224Y-61256274D01*
X139131574Y-61179668D01*
X139004182Y-61126901D01*
X138969874Y-61120076D01*
X139043726Y-61046224D01*
X139120332Y-60931574D01*
X139133410Y-60900000D01*
X144370526Y-60900000D01*
X144400000Y-60902903D01*
X144429474Y-60900000D01*
X144517621Y-60891318D01*
X144630721Y-60857010D01*
X144734955Y-60801296D01*
X144826317Y-60726317D01*
X144845113Y-60703414D01*
X145008527Y-60540000D01*
X145603347Y-60540000D01*
X145655634Y-60637823D01*
X145811840Y-60828160D01*
X146002177Y-60984366D01*
X146219331Y-61100437D01*
X146454957Y-61171913D01*
X146638595Y-61190000D01*
X146761405Y-61190000D01*
X146945043Y-61171913D01*
X147180669Y-61100437D01*
X147397823Y-60984366D01*
X147588160Y-60828160D01*
X147744366Y-60637823D01*
X147860437Y-60420669D01*
X147931913Y-60185043D01*
X147956048Y-59940000D01*
X147931913Y-59694957D01*
X147860437Y-59459331D01*
X147744366Y-59242177D01*
X147588160Y-59051840D01*
X147397823Y-58895634D01*
X147180669Y-58779563D01*
X146945043Y-58708087D01*
X146761405Y-58690000D01*
X146638595Y-58690000D01*
X146454957Y-58708087D01*
X146219331Y-58779563D01*
X146002177Y-58895634D01*
X145811840Y-59051840D01*
X145655634Y-59242177D01*
X145603347Y-59340000D01*
X144789474Y-59340000D01*
X144760000Y-59337097D01*
X144642379Y-59348682D01*
X144529278Y-59382990D01*
X144492971Y-59402397D01*
X144425045Y-59438704D01*
X144333683Y-59513683D01*
X144314887Y-59536586D01*
X144151473Y-59700000D01*
X140374612Y-59700000D01*
X140420332Y-59631574D01*
X140473099Y-59504182D01*
X140500000Y-59368944D01*
X140500000Y-59231056D01*
X140473099Y-59095818D01*
X140420332Y-58968426D01*
X140343726Y-58853776D01*
X140246224Y-58756274D01*
X140131574Y-58679668D01*
X140004182Y-58626901D01*
X139968289Y-58619761D01*
X138448527Y-57100000D01*
X145448065Y-57100000D01*
X145448065Y-58250000D01*
G36*
X139300000Y-76870526D02*
G01*
X139297097Y-76900000D01*
X139306819Y-76998704D01*
X139308682Y-77017620D01*
X139342990Y-77130720D01*
X139398704Y-77234954D01*
X139473683Y-77326317D01*
X139496586Y-77345113D01*
X139854891Y-77703419D01*
X139873683Y-77726317D01*
X139965045Y-77801296D01*
X140069279Y-77857010D01*
X140148070Y-77880911D01*
X140182378Y-77891318D01*
X140193640Y-77892427D01*
X140270526Y-77900000D01*
X140270533Y-77900000D01*
X140299999Y-77902902D01*
X140329465Y-77900000D01*
X140878347Y-77900000D01*
X140930634Y-77997823D01*
X141086840Y-78188160D01*
X141277177Y-78344366D01*
X141494331Y-78460437D01*
X141729957Y-78531913D01*
X141913595Y-78550000D01*
X141729957Y-78568087D01*
X141494331Y-78639563D01*
X141277177Y-78755634D01*
X141086840Y-78911840D01*
X140930634Y-79102177D01*
X140878347Y-79200000D01*
X140629473Y-79200000D01*
X140599999Y-79197097D01*
X140535783Y-79203422D01*
X140482379Y-79208682D01*
X140369279Y-79242990D01*
X140265045Y-79298704D01*
X140173683Y-79373683D01*
X140154891Y-79396581D01*
X139596581Y-79954892D01*
X139573684Y-79973683D01*
X139498705Y-80065045D01*
X139454933Y-80146937D01*
X139442991Y-80169279D01*
X139408682Y-80282380D01*
X139397097Y-80400000D01*
X139400001Y-80429483D01*
X139400000Y-81451472D01*
X138551473Y-82300000D01*
X138062003Y-82300000D01*
X138031574Y-82279668D01*
X137904182Y-82226901D01*
X137768944Y-82200000D01*
X137631056Y-82200000D01*
X137495818Y-82226901D01*
X137390993Y-82270321D01*
X137373303Y-82255803D01*
X137303814Y-82218660D01*
X137228414Y-82195788D01*
X137150000Y-82188065D01*
X134891448Y-82188065D01*
X134873099Y-82095818D01*
X134820332Y-81968426D01*
X134743726Y-81853776D01*
X134646224Y-81756274D01*
X134531574Y-81679668D01*
X134404182Y-81626901D01*
X134268944Y-81600000D01*
X134131056Y-81600000D01*
X133995818Y-81626901D01*
X133868426Y-81679668D01*
X133753776Y-81756274D01*
X133656274Y-81853776D01*
X133579668Y-81968426D01*
X133526901Y-82095818D01*
X133500000Y-82231056D01*
X133500000Y-82277713D01*
X133473303Y-82255803D01*
X133403814Y-82218660D01*
X133328414Y-82195788D01*
X133250000Y-82188065D01*
X130850000Y-82188065D01*
X130771586Y-82195788D01*
X130696186Y-82218660D01*
X130626697Y-82255803D01*
X130565789Y-82305789D01*
X130515803Y-82366697D01*
X130478660Y-82436186D01*
X130455788Y-82511586D01*
X130448065Y-82590000D01*
X130448065Y-83330000D01*
X130455788Y-83408414D01*
X130478660Y-83483814D01*
X130491773Y-83508346D01*
X130432254Y-83580871D01*
X130385825Y-83667733D01*
X130357235Y-83761983D01*
X130347581Y-83860000D01*
X130350000Y-84005000D01*
X130475000Y-84130000D01*
X131950000Y-84130000D01*
X131950000Y-84110000D01*
X132150000Y-84110000D01*
X132150000Y-84130000D01*
X133625000Y-84130000D01*
X133750000Y-84005000D01*
X133752419Y-83860000D01*
X133742765Y-83761983D01*
X133714175Y-83667733D01*
X133667746Y-83580871D01*
X133650618Y-83560000D01*
X133810526Y-83560000D01*
X133840000Y-83562903D01*
X133869474Y-83560000D01*
X133957621Y-83551318D01*
X134070721Y-83517010D01*
X134174955Y-83461296D01*
X134266317Y-83386317D01*
X134285113Y-83363414D01*
X134348065Y-83300462D01*
X134348065Y-83330000D01*
X134355788Y-83408414D01*
X134378660Y-83483814D01*
X134415803Y-83553303D01*
X134450023Y-83595000D01*
X134415803Y-83636697D01*
X134378660Y-83706186D01*
X134355788Y-83781586D01*
X134348065Y-83860000D01*
X134348065Y-84600000D01*
X134355788Y-84678414D01*
X134378660Y-84753814D01*
X134415803Y-84823303D01*
X134450023Y-84865000D01*
X134415803Y-84906697D01*
X134378660Y-84976186D01*
X134355788Y-85051586D01*
X134348065Y-85130000D01*
X134348065Y-85870000D01*
X134355788Y-85948414D01*
X134378660Y-86023814D01*
X134415803Y-86093303D01*
X134450023Y-86135000D01*
X134415803Y-86176697D01*
X134378660Y-86246186D01*
X134355788Y-86321586D01*
X134348065Y-86400000D01*
X134348065Y-86499538D01*
X134215113Y-86366586D01*
X134196317Y-86343683D01*
X134104955Y-86268704D01*
X134000721Y-86212990D01*
X133887621Y-86178682D01*
X133799474Y-86170000D01*
X133770000Y-86167097D01*
X133740526Y-86170000D01*
X133650618Y-86170000D01*
X133667746Y-86149129D01*
X133714175Y-86062267D01*
X133742765Y-85968017D01*
X133752419Y-85870000D01*
X133750000Y-85725000D01*
X133625000Y-85600000D01*
X132150000Y-85600000D01*
X132150000Y-85620000D01*
X131950000Y-85620000D01*
X131950000Y-85600000D01*
X130475000Y-85600000D01*
X130350000Y-85725000D01*
X130347581Y-85870000D01*
X130357235Y-85968017D01*
X130385825Y-86062267D01*
X130432254Y-86149129D01*
X130491773Y-86221654D01*
X130478660Y-86246186D01*
X130477503Y-86250000D01*
X125827817Y-86250000D01*
X124963601Y-85385784D01*
X124963601Y-84978536D01*
X125175485Y-85101265D01*
X125428491Y-85187546D01*
X125640000Y-85094932D01*
X125640000Y-83960000D01*
X125840000Y-83960000D01*
X125840000Y-85094932D01*
X126051509Y-85187546D01*
X126304515Y-85101265D01*
X126535827Y-84967283D01*
X126736556Y-84790749D01*
X126882497Y-84600000D01*
X130347581Y-84600000D01*
X130357235Y-84698017D01*
X130385825Y-84792267D01*
X130424702Y-84865000D01*
X130385825Y-84937733D01*
X130357235Y-85031983D01*
X130347581Y-85130000D01*
X130350000Y-85275000D01*
X130475000Y-85400000D01*
X131950000Y-85400000D01*
X131950000Y-84330000D01*
X132150000Y-84330000D01*
X132150000Y-85400000D01*
X133625000Y-85400000D01*
X133750000Y-85275000D01*
X133752419Y-85130000D01*
X133742765Y-85031983D01*
X133714175Y-84937733D01*
X133675298Y-84865000D01*
X133714175Y-84792267D01*
X133742765Y-84698017D01*
X133752419Y-84600000D01*
X133750000Y-84455000D01*
X133625000Y-84330000D01*
X132150000Y-84330000D01*
X131950000Y-84330000D01*
X130475000Y-84330000D01*
X130350000Y-84455000D01*
X130347581Y-84600000D01*
X126882497Y-84600000D01*
X126898988Y-84578446D01*
X127016880Y-84338534D01*
X127067542Y-84171508D01*
X126974557Y-83960000D01*
X125840000Y-83960000D01*
X125640000Y-83960000D01*
X125620000Y-83960000D01*
X125620000Y-83760000D01*
X125640000Y-83760000D01*
X125640000Y-82625068D01*
X125559913Y-82590000D01*
X125640000Y-82554932D01*
X125640000Y-81420000D01*
X125840000Y-81420000D01*
X125840000Y-82554932D01*
X125920087Y-82590000D01*
X125840000Y-82625068D01*
X125840000Y-83760000D01*
X126974557Y-83760000D01*
X127067542Y-83548492D01*
X127016880Y-83381466D01*
X126898988Y-83141554D01*
X126736556Y-82929251D01*
X126535827Y-82752717D01*
X126304515Y-82618735D01*
X126220254Y-82590000D01*
X126304515Y-82561265D01*
X126535827Y-82427283D01*
X126736556Y-82250749D01*
X126898988Y-82038446D01*
X127016880Y-81798534D01*
X127067542Y-81631508D01*
X126974557Y-81420000D01*
X125840000Y-81420000D01*
X125640000Y-81420000D01*
X125620000Y-81420000D01*
X125620000Y-81220000D01*
X125640000Y-81220000D01*
X125640000Y-80085068D01*
X125559913Y-80050000D01*
X125640000Y-80014932D01*
X125640000Y-78880000D01*
X125840000Y-78880000D01*
X125840000Y-80014932D01*
X125920087Y-80050000D01*
X125840000Y-80085068D01*
X125840000Y-81220000D01*
X126974557Y-81220000D01*
X127067542Y-81008492D01*
X127016880Y-80841466D01*
X126898988Y-80601554D01*
X126736556Y-80389251D01*
X126535827Y-80212717D01*
X126304515Y-80078735D01*
X126220254Y-80050000D01*
X126304515Y-80021265D01*
X126535827Y-79887283D01*
X126736556Y-79710749D01*
X126898988Y-79498446D01*
X127016880Y-79258534D01*
X127067542Y-79091508D01*
X126974557Y-78880000D01*
X125840000Y-78880000D01*
X125640000Y-78880000D01*
X125620000Y-78880000D01*
X125620000Y-78680000D01*
X125640000Y-78680000D01*
X125640000Y-78660000D01*
X125840000Y-78660000D01*
X125840000Y-78680000D01*
X126974557Y-78680000D01*
X127067542Y-78468492D01*
X127016880Y-78301466D01*
X126898988Y-78061554D01*
X126890148Y-78050000D01*
X130112992Y-78050000D01*
X130140000Y-78052660D01*
X130167008Y-78050000D01*
X130167018Y-78050000D01*
X130247819Y-78042042D01*
X130351494Y-78010592D01*
X130447042Y-77959521D01*
X130530790Y-77890790D01*
X130548013Y-77869804D01*
X130628442Y-77789375D01*
X131385928Y-77789375D01*
X131435506Y-77952825D01*
X131552046Y-78190430D01*
X131712702Y-78400734D01*
X131911299Y-78575655D01*
X132140205Y-78708470D01*
X132390624Y-78794076D01*
X132600000Y-78701295D01*
X132600000Y-77580000D01*
X131479088Y-77580000D01*
X131385928Y-77789375D01*
X130628442Y-77789375D01*
X131459441Y-76958376D01*
X131435506Y-77007175D01*
X131385928Y-77170625D01*
X131479088Y-77380000D01*
X132600000Y-77380000D01*
X132600000Y-77360000D01*
X132800000Y-77360000D01*
X132800000Y-77380000D01*
X132820000Y-77380000D01*
X132820000Y-77580000D01*
X132800000Y-77580000D01*
X132800000Y-78701295D01*
X133009376Y-78794076D01*
X133259795Y-78708470D01*
X133488701Y-78575655D01*
X133687298Y-78400734D01*
X133847954Y-78190430D01*
X133964494Y-77952825D01*
X134014072Y-77789375D01*
X133920913Y-77580002D01*
X133993801Y-77580002D01*
X134008087Y-77725043D01*
X134079563Y-77960669D01*
X134195634Y-78177823D01*
X134351840Y-78368160D01*
X134542177Y-78524366D01*
X134759331Y-78640437D01*
X134994957Y-78711913D01*
X135178595Y-78730000D01*
X135301405Y-78730000D01*
X135485043Y-78711913D01*
X135720669Y-78640437D01*
X135937823Y-78524366D01*
X136128160Y-78368160D01*
X136284366Y-78177823D01*
X136325963Y-78100000D01*
X137937997Y-78100000D01*
X137968426Y-78120332D01*
X138095818Y-78173099D01*
X138231056Y-78200000D01*
X138368944Y-78200000D01*
X138504182Y-78173099D01*
X138631574Y-78120332D01*
X138746224Y-78043726D01*
X138843726Y-77946224D01*
X138920332Y-77831574D01*
X138973099Y-77704182D01*
X139000000Y-77568944D01*
X139000000Y-77431056D01*
X138973099Y-77295818D01*
X138920332Y-77168426D01*
X138843726Y-77053776D01*
X138746224Y-76956274D01*
X138631574Y-76879668D01*
X138504182Y-76826901D01*
X138368944Y-76800000D01*
X139300000Y-76800000D01*
X139300000Y-76870526D01*
X139300000Y-76870526D01*
G37*
X139300000Y-76870526D02*
X139297097Y-76900000D01*
X139306819Y-76998704D01*
X139308682Y-77017620D01*
X139342990Y-77130720D01*
X139398704Y-77234954D01*
X139473683Y-77326317D01*
X139496586Y-77345113D01*
X139854891Y-77703419D01*
X139873683Y-77726317D01*
X139965045Y-77801296D01*
X140069279Y-77857010D01*
X140148070Y-77880911D01*
X140182378Y-77891318D01*
X140193640Y-77892427D01*
X140270526Y-77900000D01*
X140270533Y-77900000D01*
X140299999Y-77902902D01*
X140329465Y-77900000D01*
X140878347Y-77900000D01*
X140930634Y-77997823D01*
X141086840Y-78188160D01*
X141277177Y-78344366D01*
X141494331Y-78460437D01*
X141729957Y-78531913D01*
X141913595Y-78550000D01*
X141729957Y-78568087D01*
X141494331Y-78639563D01*
X141277177Y-78755634D01*
X141086840Y-78911840D01*
X140930634Y-79102177D01*
X140878347Y-79200000D01*
X140629473Y-79200000D01*
X140599999Y-79197097D01*
X140535783Y-79203422D01*
X140482379Y-79208682D01*
X140369279Y-79242990D01*
X140265045Y-79298704D01*
X140173683Y-79373683D01*
X140154891Y-79396581D01*
X139596581Y-79954892D01*
X139573684Y-79973683D01*
X139498705Y-80065045D01*
X139454933Y-80146937D01*
X139442991Y-80169279D01*
X139408682Y-80282380D01*
X139397097Y-80400000D01*
X139400001Y-80429483D01*
X139400000Y-81451472D01*
X138551473Y-82300000D01*
X138062003Y-82300000D01*
X138031574Y-82279668D01*
X137904182Y-82226901D01*
X137768944Y-82200000D01*
X137631056Y-82200000D01*
X137495818Y-82226901D01*
X137390993Y-82270321D01*
X137373303Y-82255803D01*
X137303814Y-82218660D01*
X137228414Y-82195788D01*
X137150000Y-82188065D01*
X134891448Y-82188065D01*
X134873099Y-82095818D01*
X134820332Y-81968426D01*
X134743726Y-81853776D01*
X134646224Y-81756274D01*
X134531574Y-81679668D01*
X134404182Y-81626901D01*
X134268944Y-81600000D01*
X134131056Y-81600000D01*
X133995818Y-81626901D01*
X133868426Y-81679668D01*
X133753776Y-81756274D01*
X133656274Y-81853776D01*
X133579668Y-81968426D01*
X133526901Y-82095818D01*
X133500000Y-82231056D01*
X133500000Y-82277713D01*
X133473303Y-82255803D01*
X133403814Y-82218660D01*
X133328414Y-82195788D01*
X133250000Y-82188065D01*
X130850000Y-82188065D01*
X130771586Y-82195788D01*
X130696186Y-82218660D01*
X130626697Y-82255803D01*
X130565789Y-82305789D01*
X130515803Y-82366697D01*
X130478660Y-82436186D01*
X130455788Y-82511586D01*
X130448065Y-82590000D01*
X130448065Y-83330000D01*
X130455788Y-83408414D01*
X130478660Y-83483814D01*
X130491773Y-83508346D01*
X130432254Y-83580871D01*
X130385825Y-83667733D01*
X130357235Y-83761983D01*
X130347581Y-83860000D01*
X130350000Y-84005000D01*
X130475000Y-84130000D01*
X131950000Y-84130000D01*
X131950000Y-84110000D01*
X132150000Y-84110000D01*
X132150000Y-84130000D01*
X133625000Y-84130000D01*
X133750000Y-84005000D01*
X133752419Y-83860000D01*
X133742765Y-83761983D01*
X133714175Y-83667733D01*
X133667746Y-83580871D01*
X133650618Y-83560000D01*
X133810526Y-83560000D01*
X133840000Y-83562903D01*
X133869474Y-83560000D01*
X133957621Y-83551318D01*
X134070721Y-83517010D01*
X134174955Y-83461296D01*
X134266317Y-83386317D01*
X134285113Y-83363414D01*
X134348065Y-83300462D01*
X134348065Y-83330000D01*
X134355788Y-83408414D01*
X134378660Y-83483814D01*
X134415803Y-83553303D01*
X134450023Y-83595000D01*
X134415803Y-83636697D01*
X134378660Y-83706186D01*
X134355788Y-83781586D01*
X134348065Y-83860000D01*
X134348065Y-84600000D01*
X134355788Y-84678414D01*
X134378660Y-84753814D01*
X134415803Y-84823303D01*
X134450023Y-84865000D01*
X134415803Y-84906697D01*
X134378660Y-84976186D01*
X134355788Y-85051586D01*
X134348065Y-85130000D01*
X134348065Y-85870000D01*
X134355788Y-85948414D01*
X134378660Y-86023814D01*
X134415803Y-86093303D01*
X134450023Y-86135000D01*
X134415803Y-86176697D01*
X134378660Y-86246186D01*
X134355788Y-86321586D01*
X134348065Y-86400000D01*
X134348065Y-86499538D01*
X134215113Y-86366586D01*
X134196317Y-86343683D01*
X134104955Y-86268704D01*
X134000721Y-86212990D01*
X133887621Y-86178682D01*
X133799474Y-86170000D01*
X133770000Y-86167097D01*
X133740526Y-86170000D01*
X133650618Y-86170000D01*
X133667746Y-86149129D01*
X133714175Y-86062267D01*
X133742765Y-85968017D01*
X133752419Y-85870000D01*
X133750000Y-85725000D01*
X133625000Y-85600000D01*
X132150000Y-85600000D01*
X132150000Y-85620000D01*
X131950000Y-85620000D01*
X131950000Y-85600000D01*
X130475000Y-85600000D01*
X130350000Y-85725000D01*
X130347581Y-85870000D01*
X130357235Y-85968017D01*
X130385825Y-86062267D01*
X130432254Y-86149129D01*
X130491773Y-86221654D01*
X130478660Y-86246186D01*
X130477503Y-86250000D01*
X125827817Y-86250000D01*
X124963601Y-85385784D01*
X124963601Y-84978536D01*
X125175485Y-85101265D01*
X125428491Y-85187546D01*
X125640000Y-85094932D01*
X125640000Y-83960000D01*
X125840000Y-83960000D01*
X125840000Y-85094932D01*
X126051509Y-85187546D01*
X126304515Y-85101265D01*
X126535827Y-84967283D01*
X126736556Y-84790749D01*
X126882497Y-84600000D01*
X130347581Y-84600000D01*
X130357235Y-84698017D01*
X130385825Y-84792267D01*
X130424702Y-84865000D01*
X130385825Y-84937733D01*
X130357235Y-85031983D01*
X130347581Y-85130000D01*
X130350000Y-85275000D01*
X130475000Y-85400000D01*
X131950000Y-85400000D01*
X131950000Y-84330000D01*
X132150000Y-84330000D01*
X132150000Y-85400000D01*
X133625000Y-85400000D01*
X133750000Y-85275000D01*
X133752419Y-85130000D01*
X133742765Y-85031983D01*
X133714175Y-84937733D01*
X133675298Y-84865000D01*
X133714175Y-84792267D01*
X133742765Y-84698017D01*
X133752419Y-84600000D01*
X133750000Y-84455000D01*
X133625000Y-84330000D01*
X132150000Y-84330000D01*
X131950000Y-84330000D01*
X130475000Y-84330000D01*
X130350000Y-84455000D01*
X130347581Y-84600000D01*
X126882497Y-84600000D01*
X126898988Y-84578446D01*
X127016880Y-84338534D01*
X127067542Y-84171508D01*
X126974557Y-83960000D01*
X125840000Y-83960000D01*
X125640000Y-83960000D01*
X125620000Y-83960000D01*
X125620000Y-83760000D01*
X125640000Y-83760000D01*
X125640000Y-82625068D01*
X125559913Y-82590000D01*
X125640000Y-82554932D01*
X125640000Y-81420000D01*
X125840000Y-81420000D01*
X125840000Y-82554932D01*
X125920087Y-82590000D01*
X125840000Y-82625068D01*
X125840000Y-83760000D01*
X126974557Y-83760000D01*
X127067542Y-83548492D01*
X127016880Y-83381466D01*
X126898988Y-83141554D01*
X126736556Y-82929251D01*
X126535827Y-82752717D01*
X126304515Y-82618735D01*
X126220254Y-82590000D01*
X126304515Y-82561265D01*
X126535827Y-82427283D01*
X126736556Y-82250749D01*
X126898988Y-82038446D01*
X127016880Y-81798534D01*
X127067542Y-81631508D01*
X126974557Y-81420000D01*
X125840000Y-81420000D01*
X125640000Y-81420000D01*
X125620000Y-81420000D01*
X125620000Y-81220000D01*
X125640000Y-81220000D01*
X125640000Y-80085068D01*
X125559913Y-80050000D01*
X125640000Y-80014932D01*
X125640000Y-78880000D01*
X125840000Y-78880000D01*
X125840000Y-80014932D01*
X125920087Y-80050000D01*
X125840000Y-80085068D01*
X125840000Y-81220000D01*
X126974557Y-81220000D01*
X127067542Y-81008492D01*
X127016880Y-80841466D01*
X126898988Y-80601554D01*
X126736556Y-80389251D01*
X126535827Y-80212717D01*
X126304515Y-80078735D01*
X126220254Y-80050000D01*
X126304515Y-80021265D01*
X126535827Y-79887283D01*
X126736556Y-79710749D01*
X126898988Y-79498446D01*
X127016880Y-79258534D01*
X127067542Y-79091508D01*
X126974557Y-78880000D01*
X125840000Y-78880000D01*
X125640000Y-78880000D01*
X125620000Y-78880000D01*
X125620000Y-78680000D01*
X125640000Y-78680000D01*
X125640000Y-78660000D01*
X125840000Y-78660000D01*
X125840000Y-78680000D01*
X126974557Y-78680000D01*
X127067542Y-78468492D01*
X127016880Y-78301466D01*
X126898988Y-78061554D01*
X126890148Y-78050000D01*
X130112992Y-78050000D01*
X130140000Y-78052660D01*
X130167008Y-78050000D01*
X130167018Y-78050000D01*
X130247819Y-78042042D01*
X130351494Y-78010592D01*
X130447042Y-77959521D01*
X130530790Y-77890790D01*
X130548013Y-77869804D01*
X130628442Y-77789375D01*
X131385928Y-77789375D01*
X131435506Y-77952825D01*
X131552046Y-78190430D01*
X131712702Y-78400734D01*
X131911299Y-78575655D01*
X132140205Y-78708470D01*
X132390624Y-78794076D01*
X132600000Y-78701295D01*
X132600000Y-77580000D01*
X131479088Y-77580000D01*
X131385928Y-77789375D01*
X130628442Y-77789375D01*
X131459441Y-76958376D01*
X131435506Y-77007175D01*
X131385928Y-77170625D01*
X131479088Y-77380000D01*
X132600000Y-77380000D01*
X132600000Y-77360000D01*
X132800000Y-77360000D01*
X132800000Y-77380000D01*
X132820000Y-77380000D01*
X132820000Y-77580000D01*
X132800000Y-77580000D01*
X132800000Y-78701295D01*
X133009376Y-78794076D01*
X133259795Y-78708470D01*
X133488701Y-78575655D01*
X133687298Y-78400734D01*
X133847954Y-78190430D01*
X133964494Y-77952825D01*
X134014072Y-77789375D01*
X133920913Y-77580002D01*
X133993801Y-77580002D01*
X134008087Y-77725043D01*
X134079563Y-77960669D01*
X134195634Y-78177823D01*
X134351840Y-78368160D01*
X134542177Y-78524366D01*
X134759331Y-78640437D01*
X134994957Y-78711913D01*
X135178595Y-78730000D01*
X135301405Y-78730000D01*
X135485043Y-78711913D01*
X135720669Y-78640437D01*
X135937823Y-78524366D01*
X136128160Y-78368160D01*
X136284366Y-78177823D01*
X136325963Y-78100000D01*
X137937997Y-78100000D01*
X137968426Y-78120332D01*
X138095818Y-78173099D01*
X138231056Y-78200000D01*
X138368944Y-78200000D01*
X138504182Y-78173099D01*
X138631574Y-78120332D01*
X138746224Y-78043726D01*
X138843726Y-77946224D01*
X138920332Y-77831574D01*
X138973099Y-77704182D01*
X139000000Y-77568944D01*
X139000000Y-77431056D01*
X138973099Y-77295818D01*
X138920332Y-77168426D01*
X138843726Y-77053776D01*
X138746224Y-76956274D01*
X138631574Y-76879668D01*
X138504182Y-76826901D01*
X138368944Y-76800000D01*
X139300000Y-76800000D01*
X139300000Y-76870526D01*
G36*
X131468087Y-74694957D02*
G01*
X131443952Y-74940000D01*
X131468087Y-75185043D01*
X131516743Y-75345440D01*
X129912183Y-76950000D01*
X126903138Y-76950000D01*
X127016880Y-76718534D01*
X127067542Y-76551508D01*
X126974557Y-76340000D01*
X125840000Y-76340000D01*
X125840000Y-76360000D01*
X125640000Y-76360000D01*
X125640000Y-76340000D01*
X125620000Y-76340000D01*
X125620000Y-76140000D01*
X125640000Y-76140000D01*
X125640000Y-76120000D01*
X125840000Y-76120000D01*
X125840000Y-76140000D01*
X126974557Y-76140000D01*
X127067542Y-75928492D01*
X127016880Y-75761466D01*
X126912966Y-75550000D01*
X130272992Y-75550000D01*
X130300000Y-75552660D01*
X130327008Y-75550000D01*
X130327018Y-75550000D01*
X130407819Y-75542042D01*
X130511494Y-75510592D01*
X130607042Y-75459521D01*
X130656984Y-75418534D01*
X130669804Y-75408013D01*
X130690790Y-75390790D01*
X130708013Y-75369804D01*
X131505197Y-74572620D01*
X131468087Y-74694957D01*
X131468087Y-74694957D01*
G37*
X131468087Y-74694957D02*
X131443952Y-74940000D01*
X131468087Y-75185043D01*
X131516743Y-75345440D01*
X129912183Y-76950000D01*
X126903138Y-76950000D01*
X127016880Y-76718534D01*
X127067542Y-76551508D01*
X126974557Y-76340000D01*
X125840000Y-76340000D01*
X125840000Y-76360000D01*
X125640000Y-76360000D01*
X125640000Y-76340000D01*
X125620000Y-76340000D01*
X125620000Y-76140000D01*
X125640000Y-76140000D01*
X125640000Y-76120000D01*
X125840000Y-76120000D01*
X125840000Y-76140000D01*
X126974557Y-76140000D01*
X127067542Y-75928492D01*
X127016880Y-75761466D01*
X126912966Y-75550000D01*
X130272992Y-75550000D01*
X130300000Y-75552660D01*
X130327008Y-75550000D01*
X130327018Y-75550000D01*
X130407819Y-75542042D01*
X130511494Y-75510592D01*
X130607042Y-75459521D01*
X130656984Y-75418534D01*
X130669804Y-75408013D01*
X130690790Y-75390790D01*
X130708013Y-75369804D01*
X131505197Y-74572620D01*
X131468087Y-74694957D01*
G36*
X122144271Y-72994585D02*
G01*
X122026937Y-73214101D01*
X121954683Y-73452291D01*
X121930286Y-73700000D01*
X121954683Y-73947709D01*
X122026937Y-74185899D01*
X122144271Y-74405415D01*
X122302177Y-74597823D01*
X122494585Y-74755729D01*
X122714101Y-74873063D01*
X122952291Y-74945317D01*
X123137923Y-74963600D01*
X123262077Y-74963600D01*
X123447709Y-74945317D01*
X123685899Y-74873063D01*
X123905415Y-74755729D01*
X123911209Y-74750974D01*
X123616345Y-75045838D01*
X123447709Y-74994683D01*
X123262077Y-74976400D01*
X123137923Y-74976400D01*
X122952291Y-74994683D01*
X122714101Y-75066937D01*
X122494585Y-75184271D01*
X122302177Y-75342177D01*
X122144271Y-75534585D01*
X122082580Y-75650000D01*
X118863138Y-75650000D01*
X118976880Y-75418534D01*
X119027542Y-75251508D01*
X118934557Y-75040000D01*
X117800000Y-75040000D01*
X117800000Y-75060000D01*
X117600000Y-75060000D01*
X117600000Y-75040000D01*
X117580000Y-75040000D01*
X117580000Y-74840000D01*
X117600000Y-74840000D01*
X117600000Y-74820000D01*
X117800000Y-74820000D01*
X117800000Y-74840000D01*
X118934557Y-74840000D01*
X119027542Y-74628492D01*
X118976880Y-74461466D01*
X118858988Y-74221554D01*
X118814648Y-74163601D01*
X120719391Y-74163601D01*
X120746399Y-74166261D01*
X120773407Y-74163601D01*
X120773417Y-74163601D01*
X120854218Y-74155643D01*
X120957893Y-74124193D01*
X121053441Y-74073122D01*
X121137189Y-74004391D01*
X121154412Y-73983405D01*
X122149026Y-72988791D01*
X122144271Y-72994585D01*
X122144271Y-72994585D01*
G37*
X122144271Y-72994585D02*
X122026937Y-73214101D01*
X121954683Y-73452291D01*
X121930286Y-73700000D01*
X121954683Y-73947709D01*
X122026937Y-74185899D01*
X122144271Y-74405415D01*
X122302177Y-74597823D01*
X122494585Y-74755729D01*
X122714101Y-74873063D01*
X122952291Y-74945317D01*
X123137923Y-74963600D01*
X123262077Y-74963600D01*
X123447709Y-74945317D01*
X123685899Y-74873063D01*
X123905415Y-74755729D01*
X123911209Y-74750974D01*
X123616345Y-75045838D01*
X123447709Y-74994683D01*
X123262077Y-74976400D01*
X123137923Y-74976400D01*
X122952291Y-74994683D01*
X122714101Y-75066937D01*
X122494585Y-75184271D01*
X122302177Y-75342177D01*
X122144271Y-75534585D01*
X122082580Y-75650000D01*
X118863138Y-75650000D01*
X118976880Y-75418534D01*
X119027542Y-75251508D01*
X118934557Y-75040000D01*
X117800000Y-75040000D01*
X117800000Y-75060000D01*
X117600000Y-75060000D01*
X117600000Y-75040000D01*
X117580000Y-75040000D01*
X117580000Y-74840000D01*
X117600000Y-74840000D01*
X117600000Y-74820000D01*
X117800000Y-74820000D01*
X117800000Y-74840000D01*
X118934557Y-74840000D01*
X119027542Y-74628492D01*
X118976880Y-74461466D01*
X118858988Y-74221554D01*
X118814648Y-74163601D01*
X120719391Y-74163601D01*
X120746399Y-74166261D01*
X120773407Y-74163601D01*
X120773417Y-74163601D01*
X120854218Y-74155643D01*
X120957893Y-74124193D01*
X121053441Y-74073122D01*
X121137189Y-74004391D01*
X121154412Y-73983405D01*
X122149026Y-72988791D01*
X122144271Y-72994585D01*
G36*
X131448065Y-73199206D02*
G01*
X131348507Y-73229407D01*
X131252959Y-73280478D01*
X131169211Y-73349209D01*
X131151988Y-73370195D01*
X130072183Y-74450000D01*
X126874846Y-74450000D01*
X126898988Y-74418446D01*
X127016880Y-74178534D01*
X127067542Y-74011508D01*
X126974557Y-73800000D01*
X125840000Y-73800000D01*
X125840000Y-73820000D01*
X125640000Y-73820000D01*
X125640000Y-73800000D01*
X125620000Y-73800000D01*
X125620000Y-73600000D01*
X125640000Y-73600000D01*
X125640000Y-73580000D01*
X125840000Y-73580000D01*
X125840000Y-73600000D01*
X126974557Y-73600000D01*
X127067542Y-73388492D01*
X127016880Y-73221466D01*
X126898988Y-72981554D01*
X126874846Y-72950000D01*
X130072992Y-72950000D01*
X130100000Y-72952660D01*
X130127008Y-72950000D01*
X130127018Y-72950000D01*
X130207819Y-72942042D01*
X130311494Y-72910592D01*
X130407042Y-72859521D01*
X130490790Y-72790790D01*
X130508013Y-72769804D01*
X131448065Y-71829753D01*
X131448065Y-73199206D01*
X131448065Y-73199206D01*
G37*
X131448065Y-73199206D02*
X131348507Y-73229407D01*
X131252959Y-73280478D01*
X131169211Y-73349209D01*
X131151988Y-73370195D01*
X130072183Y-74450000D01*
X126874846Y-74450000D01*
X126898988Y-74418446D01*
X127016880Y-74178534D01*
X127067542Y-74011508D01*
X126974557Y-73800000D01*
X125840000Y-73800000D01*
X125840000Y-73820000D01*
X125640000Y-73820000D01*
X125640000Y-73800000D01*
X125620000Y-73800000D01*
X125620000Y-73600000D01*
X125640000Y-73600000D01*
X125640000Y-73580000D01*
X125840000Y-73580000D01*
X125840000Y-73600000D01*
X126974557Y-73600000D01*
X127067542Y-73388492D01*
X127016880Y-73221466D01*
X126898988Y-72981554D01*
X126874846Y-72950000D01*
X130072992Y-72950000D01*
X130100000Y-72952660D01*
X130127008Y-72950000D01*
X130127018Y-72950000D01*
X130207819Y-72942042D01*
X130311494Y-72910592D01*
X130407042Y-72859521D01*
X130490790Y-72790790D01*
X130508013Y-72769804D01*
X131448065Y-71829753D01*
X131448065Y-73199206D01*
G36*
X122144271Y-69325415D02*
G01*
X122302177Y-69517823D01*
X122494585Y-69675729D01*
X122714101Y-69793063D01*
X122952291Y-69865317D01*
X123137923Y-69883600D01*
X123262077Y-69883600D01*
X123447709Y-69865317D01*
X123616345Y-69814162D01*
X123911209Y-70109026D01*
X123905415Y-70104271D01*
X123685899Y-69986937D01*
X123447709Y-69914683D01*
X123262077Y-69896400D01*
X123137923Y-69896400D01*
X122952291Y-69914683D01*
X122714101Y-69986937D01*
X122494585Y-70104271D01*
X122302177Y-70262177D01*
X122144271Y-70454585D01*
X122026937Y-70674101D01*
X121954683Y-70912291D01*
X121930286Y-71160000D01*
X121954683Y-71407709D01*
X122005838Y-71576345D01*
X120518582Y-73063601D01*
X118885939Y-73063601D01*
X118976880Y-72878534D01*
X119027542Y-72711508D01*
X118934557Y-72500000D01*
X117800000Y-72500000D01*
X117800000Y-72520000D01*
X117600000Y-72520000D01*
X117600000Y-72500000D01*
X117580000Y-72500000D01*
X117580000Y-72300000D01*
X117600000Y-72300000D01*
X117600000Y-72280000D01*
X117800000Y-72280000D01*
X117800000Y-72300000D01*
X118934557Y-72300000D01*
X119027542Y-72088492D01*
X118976880Y-71921466D01*
X118858988Y-71681554D01*
X118696556Y-71469251D01*
X118495827Y-71292717D01*
X118264515Y-71158735D01*
X118032474Y-71079604D01*
X118185899Y-71033063D01*
X118405415Y-70915729D01*
X118597823Y-70757823D01*
X118755729Y-70565415D01*
X118873063Y-70345899D01*
X118945317Y-70107709D01*
X118969714Y-69860000D01*
X118945317Y-69612291D01*
X118873063Y-69374101D01*
X118755729Y-69154585D01*
X118751966Y-69150000D01*
X122050510Y-69150000D01*
X122144271Y-69325415D01*
X122144271Y-69325415D01*
G37*
X122144271Y-69325415D02*
X122302177Y-69517823D01*
X122494585Y-69675729D01*
X122714101Y-69793063D01*
X122952291Y-69865317D01*
X123137923Y-69883600D01*
X123262077Y-69883600D01*
X123447709Y-69865317D01*
X123616345Y-69814162D01*
X123911209Y-70109026D01*
X123905415Y-70104271D01*
X123685899Y-69986937D01*
X123447709Y-69914683D01*
X123262077Y-69896400D01*
X123137923Y-69896400D01*
X122952291Y-69914683D01*
X122714101Y-69986937D01*
X122494585Y-70104271D01*
X122302177Y-70262177D01*
X122144271Y-70454585D01*
X122026937Y-70674101D01*
X121954683Y-70912291D01*
X121930286Y-71160000D01*
X121954683Y-71407709D01*
X122005838Y-71576345D01*
X120518582Y-73063601D01*
X118885939Y-73063601D01*
X118976880Y-72878534D01*
X119027542Y-72711508D01*
X118934557Y-72500000D01*
X117800000Y-72500000D01*
X117800000Y-72520000D01*
X117600000Y-72520000D01*
X117600000Y-72500000D01*
X117580000Y-72500000D01*
X117580000Y-72300000D01*
X117600000Y-72300000D01*
X117600000Y-72280000D01*
X117800000Y-72280000D01*
X117800000Y-72300000D01*
X118934557Y-72300000D01*
X119027542Y-72088492D01*
X118976880Y-71921466D01*
X118858988Y-71681554D01*
X118696556Y-71469251D01*
X118495827Y-71292717D01*
X118264515Y-71158735D01*
X118032474Y-71079604D01*
X118185899Y-71033063D01*
X118405415Y-70915729D01*
X118597823Y-70757823D01*
X118755729Y-70565415D01*
X118873063Y-70345899D01*
X118945317Y-70107709D01*
X118969714Y-69860000D01*
X118945317Y-69612291D01*
X118873063Y-69374101D01*
X118755729Y-69154585D01*
X118751966Y-69150000D01*
X122050510Y-69150000D01*
X122144271Y-69325415D01*
G36*
X134348065Y-57155000D02*
G01*
X134355788Y-57233414D01*
X134378660Y-57308814D01*
X134415803Y-57378303D01*
X134450023Y-57420000D01*
X134415803Y-57461697D01*
X134378660Y-57531186D01*
X134355788Y-57606586D01*
X134348065Y-57685000D01*
X134348065Y-58425000D01*
X134355788Y-58503414D01*
X134378660Y-58578814D01*
X134415803Y-58648303D01*
X134450023Y-58690000D01*
X134415803Y-58731697D01*
X134378660Y-58801186D01*
X134355788Y-58876586D01*
X134348065Y-58955000D01*
X134348065Y-59695000D01*
X134355788Y-59773414D01*
X134378660Y-59848814D01*
X134415803Y-59918303D01*
X134450023Y-59960000D01*
X134415803Y-60001697D01*
X134392657Y-60045000D01*
X134232011Y-60045000D01*
X134205000Y-60042340D01*
X134177989Y-60045000D01*
X134177982Y-60045000D01*
X134097181Y-60052958D01*
X133993506Y-60084408D01*
X133897958Y-60135479D01*
X133814210Y-60204210D01*
X133796983Y-60225200D01*
X133651935Y-60370248D01*
X133651935Y-60225000D01*
X133644212Y-60146586D01*
X133621340Y-60071186D01*
X133608227Y-60046654D01*
X133667746Y-59974129D01*
X133714175Y-59887267D01*
X133742765Y-59793017D01*
X133752419Y-59695000D01*
X133750000Y-59550000D01*
X133625000Y-59425000D01*
X132150000Y-59425000D01*
X132150000Y-59445000D01*
X131950000Y-59445000D01*
X131950000Y-59425000D01*
X130475000Y-59425000D01*
X130350000Y-59550000D01*
X130347581Y-59695000D01*
X130357235Y-59793017D01*
X130385825Y-59887267D01*
X130395449Y-59905272D01*
X130368944Y-59900000D01*
X130231056Y-59900000D01*
X130095818Y-59926901D01*
X129968426Y-59979668D01*
X129853776Y-60056274D01*
X129756274Y-60153776D01*
X129679668Y-60268426D01*
X129626901Y-60395818D01*
X129600000Y-60531056D01*
X129600000Y-60668944D01*
X129626901Y-60804182D01*
X129679668Y-60931574D01*
X129756274Y-61046224D01*
X129853776Y-61143726D01*
X129968426Y-61220332D01*
X130095818Y-61273099D01*
X130231056Y-61300000D01*
X130368944Y-61300000D01*
X130389468Y-61295917D01*
X130385825Y-61302733D01*
X130357235Y-61396983D01*
X130347581Y-61495000D01*
X130350000Y-61640000D01*
X130475000Y-61765000D01*
X131950000Y-61765000D01*
X131950000Y-61745000D01*
X132150000Y-61745000D01*
X132150000Y-61765000D01*
X132170000Y-61765000D01*
X132170000Y-61965000D01*
X132150000Y-61965000D01*
X132150000Y-63035000D01*
X132170000Y-63035000D01*
X132170000Y-63235000D01*
X132150000Y-63235000D01*
X132150000Y-64305000D01*
X132170000Y-64305000D01*
X132170000Y-64505000D01*
X132150000Y-64505000D01*
X132150000Y-65575000D01*
X132170000Y-65575000D01*
X132170000Y-65775000D01*
X132150000Y-65775000D01*
X132150000Y-66845000D01*
X132170000Y-66845000D01*
X132170000Y-67045000D01*
X132150000Y-67045000D01*
X132150000Y-68115000D01*
X132170000Y-68115000D01*
X132170000Y-68315000D01*
X132150000Y-68315000D01*
X132150000Y-68960000D01*
X132275000Y-69085000D01*
X133135049Y-69087134D01*
X132972183Y-69250000D01*
X129627818Y-69250000D01*
X128962818Y-68585000D01*
X130347581Y-68585000D01*
X130357235Y-68683017D01*
X130385825Y-68777267D01*
X130432254Y-68864129D01*
X130494736Y-68940264D01*
X130570871Y-69002746D01*
X130657733Y-69049175D01*
X130751983Y-69077765D01*
X130850000Y-69087419D01*
X131825000Y-69085000D01*
X131950000Y-68960000D01*
X131950000Y-68315000D01*
X130475000Y-68315000D01*
X130350000Y-68440000D01*
X130347581Y-68585000D01*
X128962818Y-68585000D01*
X127692818Y-67315000D01*
X130347581Y-67315000D01*
X130357235Y-67413017D01*
X130385825Y-67507267D01*
X130424702Y-67580000D01*
X130385825Y-67652733D01*
X130357235Y-67746983D01*
X130347581Y-67845000D01*
X130350000Y-67990000D01*
X130475000Y-68115000D01*
X131950000Y-68115000D01*
X131950000Y-67045000D01*
X130475000Y-67045000D01*
X130350000Y-67170000D01*
X130347581Y-67315000D01*
X127692818Y-67315000D01*
X127308013Y-66930196D01*
X127290790Y-66909210D01*
X127207042Y-66840479D01*
X127111494Y-66789408D01*
X127007819Y-66757958D01*
X126927018Y-66750000D01*
X126927008Y-66750000D01*
X126922989Y-66749604D01*
X127016880Y-66558534D01*
X127067542Y-66391508D01*
X126974557Y-66180000D01*
X125840000Y-66180000D01*
X125840000Y-66200000D01*
X125640000Y-66200000D01*
X125640000Y-66180000D01*
X125620000Y-66180000D01*
X125620000Y-66045000D01*
X130347581Y-66045000D01*
X130357235Y-66143017D01*
X130385825Y-66237267D01*
X130424702Y-66310000D01*
X130385825Y-66382733D01*
X130357235Y-66476983D01*
X130347581Y-66575000D01*
X130350000Y-66720000D01*
X130475000Y-66845000D01*
X131950000Y-66845000D01*
X131950000Y-65775000D01*
X130475000Y-65775000D01*
X130350000Y-65900000D01*
X130347581Y-66045000D01*
X125620000Y-66045000D01*
X125620000Y-65980000D01*
X125640000Y-65980000D01*
X125640000Y-64845068D01*
X125559913Y-64810000D01*
X125640000Y-64774932D01*
X125640000Y-63640000D01*
X125840000Y-63640000D01*
X125840000Y-64774932D01*
X125920087Y-64810000D01*
X125840000Y-64845068D01*
X125840000Y-65980000D01*
X126974557Y-65980000D01*
X127067542Y-65768492D01*
X127016880Y-65601466D01*
X126898988Y-65361554D01*
X126736556Y-65149251D01*
X126535827Y-64972717D01*
X126304515Y-64838735D01*
X126220254Y-64810000D01*
X126304515Y-64781265D01*
X126315331Y-64775000D01*
X130347581Y-64775000D01*
X130357235Y-64873017D01*
X130385825Y-64967267D01*
X130424702Y-65040000D01*
X130385825Y-65112733D01*
X130357235Y-65206983D01*
X130347581Y-65305000D01*
X130350000Y-65450000D01*
X130475000Y-65575000D01*
X131950000Y-65575000D01*
X131950000Y-64505000D01*
X130475000Y-64505000D01*
X130350000Y-64630000D01*
X130347581Y-64775000D01*
X126315331Y-64775000D01*
X126535827Y-64647283D01*
X126736556Y-64470749D01*
X126898988Y-64258446D01*
X127016880Y-64018534D01*
X127067542Y-63851508D01*
X126974557Y-63640000D01*
X125840000Y-63640000D01*
X125640000Y-63640000D01*
X125620000Y-63640000D01*
X125620000Y-63505000D01*
X130347581Y-63505000D01*
X130357235Y-63603017D01*
X130385825Y-63697267D01*
X130424702Y-63770000D01*
X130385825Y-63842733D01*
X130357235Y-63936983D01*
X130347581Y-64035000D01*
X130350000Y-64180000D01*
X130475000Y-64305000D01*
X131950000Y-64305000D01*
X131950000Y-63235000D01*
X130475000Y-63235000D01*
X130350000Y-63360000D01*
X130347581Y-63505000D01*
X125620000Y-63505000D01*
X125620000Y-63440000D01*
X125640000Y-63440000D01*
X125640000Y-63420000D01*
X125840000Y-63420000D01*
X125840000Y-63440000D01*
X126974557Y-63440000D01*
X127067542Y-63228492D01*
X127016880Y-63061466D01*
X126898988Y-62821554D01*
X126736556Y-62609251D01*
X126535827Y-62432717D01*
X126304515Y-62298735D01*
X126117621Y-62235000D01*
X130347581Y-62235000D01*
X130357235Y-62333017D01*
X130385825Y-62427267D01*
X130424702Y-62500000D01*
X130385825Y-62572733D01*
X130357235Y-62666983D01*
X130347581Y-62765000D01*
X130350000Y-62910000D01*
X130475000Y-63035000D01*
X131950000Y-63035000D01*
X131950000Y-61965000D01*
X130475000Y-61965000D01*
X130350000Y-62090000D01*
X130347581Y-62235000D01*
X126117621Y-62235000D01*
X126072474Y-62219604D01*
X126225899Y-62173063D01*
X126445415Y-62055729D01*
X126637823Y-61897823D01*
X126795729Y-61705415D01*
X126913063Y-61485899D01*
X126985317Y-61247709D01*
X127009714Y-61000000D01*
X126985317Y-60752291D01*
X126913063Y-60514101D01*
X126795729Y-60294585D01*
X126637823Y-60102177D01*
X126445415Y-59944271D01*
X126225899Y-59826937D01*
X125987709Y-59754683D01*
X125802077Y-59736400D01*
X125677923Y-59736400D01*
X125492291Y-59754683D01*
X125254101Y-59826937D01*
X125034585Y-59944271D01*
X124842177Y-60102177D01*
X124684271Y-60294585D01*
X124566937Y-60514101D01*
X124494683Y-60752291D01*
X124470286Y-61000000D01*
X124494683Y-61247709D01*
X124566937Y-61485899D01*
X124684271Y-61705415D01*
X124842177Y-61897823D01*
X125034585Y-62055729D01*
X125254101Y-62173063D01*
X125407526Y-62219604D01*
X125175485Y-62298735D01*
X124944173Y-62432717D01*
X124743444Y-62609251D01*
X124581012Y-62821554D01*
X124463120Y-63061466D01*
X124419211Y-63206230D01*
X124373063Y-63054101D01*
X124255729Y-62834585D01*
X124097823Y-62642177D01*
X123905415Y-62484271D01*
X123685899Y-62366937D01*
X123447709Y-62294683D01*
X123262077Y-62276400D01*
X123137923Y-62276400D01*
X122952291Y-62294683D01*
X122714101Y-62366937D01*
X122494585Y-62484271D01*
X122302177Y-62642177D01*
X122144271Y-62834585D01*
X122026937Y-63054101D01*
X121954683Y-63292291D01*
X121930286Y-63540000D01*
X121954683Y-63787709D01*
X122026937Y-64025899D01*
X122144271Y-64245415D01*
X122302177Y-64437823D01*
X122494585Y-64595729D01*
X122714101Y-64713063D01*
X122952291Y-64785317D01*
X123137923Y-64803600D01*
X123262077Y-64803600D01*
X123447709Y-64785317D01*
X123685899Y-64713063D01*
X123905415Y-64595729D01*
X124097823Y-64437823D01*
X124255729Y-64245415D01*
X124373063Y-64025899D01*
X124419211Y-63873770D01*
X124463120Y-64018534D01*
X124581012Y-64258446D01*
X124743444Y-64470749D01*
X124944173Y-64647283D01*
X125175485Y-64781265D01*
X125259746Y-64810000D01*
X125175485Y-64838735D01*
X124944173Y-64972717D01*
X124743444Y-65149251D01*
X124581012Y-65361554D01*
X124463120Y-65601466D01*
X124419211Y-65746230D01*
X124373063Y-65594101D01*
X124255729Y-65374585D01*
X124097823Y-65182177D01*
X123905415Y-65024271D01*
X123685899Y-64906937D01*
X123447709Y-64834683D01*
X123262077Y-64816400D01*
X123137923Y-64816400D01*
X122952291Y-64834683D01*
X122714101Y-64906937D01*
X122494585Y-65024271D01*
X122302177Y-65182177D01*
X122144271Y-65374585D01*
X122026937Y-65594101D01*
X121954683Y-65832291D01*
X121930286Y-66080000D01*
X121954683Y-66327709D01*
X122026937Y-66565899D01*
X122144271Y-66785415D01*
X122302177Y-66977823D01*
X122494585Y-67135729D01*
X122714101Y-67253063D01*
X122952291Y-67325317D01*
X123137923Y-67343600D01*
X123262077Y-67343600D01*
X123447709Y-67325317D01*
X123616345Y-67274162D01*
X123911209Y-67569026D01*
X123905415Y-67564271D01*
X123685899Y-67446937D01*
X123447709Y-67374683D01*
X123262077Y-67356400D01*
X123137923Y-67356400D01*
X122952291Y-67374683D01*
X122714101Y-67446937D01*
X122494585Y-67564271D01*
X122302177Y-67722177D01*
X122144271Y-67914585D01*
X122071890Y-68050000D01*
X118850148Y-68050000D01*
X118858988Y-68038446D01*
X118976880Y-67798534D01*
X119027542Y-67631508D01*
X118934557Y-67420000D01*
X117800000Y-67420000D01*
X117800000Y-67440000D01*
X117600000Y-67440000D01*
X117600000Y-67420000D01*
X117580000Y-67420000D01*
X117580000Y-67220000D01*
X117600000Y-67220000D01*
X117600000Y-66085068D01*
X117800000Y-66085068D01*
X117800000Y-67220000D01*
X118934557Y-67220000D01*
X119027542Y-67008492D01*
X118976880Y-66841466D01*
X118858988Y-66601554D01*
X118696556Y-66389251D01*
X118495827Y-66212717D01*
X118264515Y-66078735D01*
X118011509Y-65992454D01*
X117800000Y-66085068D01*
X117600000Y-66085068D01*
X117388491Y-65992454D01*
X117135485Y-66078735D01*
X116904173Y-66212717D01*
X116703444Y-66389251D01*
X116541012Y-66601554D01*
X116423120Y-66841466D01*
X116379211Y-66986230D01*
X116333063Y-66834101D01*
X116215729Y-66614585D01*
X116057823Y-66422177D01*
X115865415Y-66264271D01*
X115645899Y-66146937D01*
X115407709Y-66074683D01*
X115222077Y-66056400D01*
X115097923Y-66056400D01*
X114912291Y-66074683D01*
X114674101Y-66146937D01*
X114454585Y-66264271D01*
X114262177Y-66422177D01*
X114104271Y-66614585D01*
X113986937Y-66834101D01*
X113914683Y-67072291D01*
X113890286Y-67320000D01*
X113914683Y-67567709D01*
X113986937Y-67805899D01*
X114104271Y-68025415D01*
X114128077Y-68054423D01*
X114092181Y-68057958D01*
X113988506Y-68089408D01*
X113892958Y-68140479D01*
X113882097Y-68149393D01*
X113830195Y-68191987D01*
X113830190Y-68191992D01*
X113809210Y-68209210D01*
X113791992Y-68230190D01*
X113100000Y-68922183D01*
X113100000Y-63248527D01*
X114748528Y-61600000D01*
X121934465Y-61600000D01*
X121934465Y-61863600D01*
X121942188Y-61942014D01*
X121965060Y-62017414D01*
X122002203Y-62086903D01*
X122052189Y-62147811D01*
X122113097Y-62197797D01*
X122182586Y-62234940D01*
X122257986Y-62257812D01*
X122336400Y-62265535D01*
X124063600Y-62265535D01*
X124142014Y-62257812D01*
X124217414Y-62234940D01*
X124286903Y-62197797D01*
X124347811Y-62147811D01*
X124397797Y-62086903D01*
X124434940Y-62017414D01*
X124457812Y-61942014D01*
X124465535Y-61863600D01*
X124465535Y-60136400D01*
X124457812Y-60057986D01*
X124434940Y-59982586D01*
X124397797Y-59913097D01*
X124347811Y-59852189D01*
X124286903Y-59802203D01*
X124217414Y-59765060D01*
X124142014Y-59742188D01*
X124063600Y-59734465D01*
X123800000Y-59734465D01*
X123800000Y-58648527D01*
X124023527Y-58425000D01*
X130347581Y-58425000D01*
X130357235Y-58523017D01*
X130385825Y-58617267D01*
X130424702Y-58690000D01*
X130385825Y-58762733D01*
X130357235Y-58856983D01*
X130347581Y-58955000D01*
X130350000Y-59100000D01*
X130475000Y-59225000D01*
X131950000Y-59225000D01*
X131950000Y-58155000D01*
X132150000Y-58155000D01*
X132150000Y-59225000D01*
X133625000Y-59225000D01*
X133750000Y-59100000D01*
X133752419Y-58955000D01*
X133742765Y-58856983D01*
X133714175Y-58762733D01*
X133675298Y-58690000D01*
X133714175Y-58617267D01*
X133742765Y-58523017D01*
X133752419Y-58425000D01*
X133750000Y-58280000D01*
X133625000Y-58155000D01*
X132150000Y-58155000D01*
X131950000Y-58155000D01*
X130475000Y-58155000D01*
X130350000Y-58280000D01*
X130347581Y-58425000D01*
X124023527Y-58425000D01*
X125063528Y-57385000D01*
X129022997Y-57385000D01*
X129053426Y-57405332D01*
X129180818Y-57458099D01*
X129316056Y-57485000D01*
X129453944Y-57485000D01*
X129589182Y-57458099D01*
X129716574Y-57405332D01*
X129747003Y-57385000D01*
X130449382Y-57385000D01*
X130432254Y-57405871D01*
X130385825Y-57492733D01*
X130357235Y-57586983D01*
X130347581Y-57685000D01*
X130350000Y-57830000D01*
X130475000Y-57955000D01*
X131950000Y-57955000D01*
X131950000Y-57935000D01*
X132150000Y-57935000D01*
X132150000Y-57955000D01*
X133625000Y-57955000D01*
X133750000Y-57830000D01*
X133752419Y-57685000D01*
X133742765Y-57586983D01*
X133714175Y-57492733D01*
X133667746Y-57405871D01*
X133608227Y-57333346D01*
X133621340Y-57308814D01*
X133644212Y-57233414D01*
X133651935Y-57155000D01*
X133651935Y-57100000D01*
X134348065Y-57100000D01*
X134348065Y-57155000D01*
X134348065Y-57155000D01*
G37*
X134348065Y-57155000D02*
X134355788Y-57233414D01*
X134378660Y-57308814D01*
X134415803Y-57378303D01*
X134450023Y-57420000D01*
X134415803Y-57461697D01*
X134378660Y-57531186D01*
X134355788Y-57606586D01*
X134348065Y-57685000D01*
X134348065Y-58425000D01*
X134355788Y-58503414D01*
X134378660Y-58578814D01*
X134415803Y-58648303D01*
X134450023Y-58690000D01*
X134415803Y-58731697D01*
X134378660Y-58801186D01*
X134355788Y-58876586D01*
X134348065Y-58955000D01*
X134348065Y-59695000D01*
X134355788Y-59773414D01*
X134378660Y-59848814D01*
X134415803Y-59918303D01*
X134450023Y-59960000D01*
X134415803Y-60001697D01*
X134392657Y-60045000D01*
X134232011Y-60045000D01*
X134205000Y-60042340D01*
X134177989Y-60045000D01*
X134177982Y-60045000D01*
X134097181Y-60052958D01*
X133993506Y-60084408D01*
X133897958Y-60135479D01*
X133814210Y-60204210D01*
X133796983Y-60225200D01*
X133651935Y-60370248D01*
X133651935Y-60225000D01*
X133644212Y-60146586D01*
X133621340Y-60071186D01*
X133608227Y-60046654D01*
X133667746Y-59974129D01*
X133714175Y-59887267D01*
X133742765Y-59793017D01*
X133752419Y-59695000D01*
X133750000Y-59550000D01*
X133625000Y-59425000D01*
X132150000Y-59425000D01*
X132150000Y-59445000D01*
X131950000Y-59445000D01*
X131950000Y-59425000D01*
X130475000Y-59425000D01*
X130350000Y-59550000D01*
X130347581Y-59695000D01*
X130357235Y-59793017D01*
X130385825Y-59887267D01*
X130395449Y-59905272D01*
X130368944Y-59900000D01*
X130231056Y-59900000D01*
X130095818Y-59926901D01*
X129968426Y-59979668D01*
X129853776Y-60056274D01*
X129756274Y-60153776D01*
X129679668Y-60268426D01*
X129626901Y-60395818D01*
X129600000Y-60531056D01*
X129600000Y-60668944D01*
X129626901Y-60804182D01*
X129679668Y-60931574D01*
X129756274Y-61046224D01*
X129853776Y-61143726D01*
X129968426Y-61220332D01*
X130095818Y-61273099D01*
X130231056Y-61300000D01*
X130368944Y-61300000D01*
X130389468Y-61295917D01*
X130385825Y-61302733D01*
X130357235Y-61396983D01*
X130347581Y-61495000D01*
X130350000Y-61640000D01*
X130475000Y-61765000D01*
X131950000Y-61765000D01*
X131950000Y-61745000D01*
X132150000Y-61745000D01*
X132150000Y-61765000D01*
X132170000Y-61765000D01*
X132170000Y-61965000D01*
X132150000Y-61965000D01*
X132150000Y-63035000D01*
X132170000Y-63035000D01*
X132170000Y-63235000D01*
X132150000Y-63235000D01*
X132150000Y-64305000D01*
X132170000Y-64305000D01*
X132170000Y-64505000D01*
X132150000Y-64505000D01*
X132150000Y-65575000D01*
X132170000Y-65575000D01*
X132170000Y-65775000D01*
X132150000Y-65775000D01*
X132150000Y-66845000D01*
X132170000Y-66845000D01*
X132170000Y-67045000D01*
X132150000Y-67045000D01*
X132150000Y-68115000D01*
X132170000Y-68115000D01*
X132170000Y-68315000D01*
X132150000Y-68315000D01*
X132150000Y-68960000D01*
X132275000Y-69085000D01*
X133135049Y-69087134D01*
X132972183Y-69250000D01*
X129627818Y-69250000D01*
X128962818Y-68585000D01*
X130347581Y-68585000D01*
X130357235Y-68683017D01*
X130385825Y-68777267D01*
X130432254Y-68864129D01*
X130494736Y-68940264D01*
X130570871Y-69002746D01*
X130657733Y-69049175D01*
X130751983Y-69077765D01*
X130850000Y-69087419D01*
X131825000Y-69085000D01*
X131950000Y-68960000D01*
X131950000Y-68315000D01*
X130475000Y-68315000D01*
X130350000Y-68440000D01*
X130347581Y-68585000D01*
X128962818Y-68585000D01*
X127692818Y-67315000D01*
X130347581Y-67315000D01*
X130357235Y-67413017D01*
X130385825Y-67507267D01*
X130424702Y-67580000D01*
X130385825Y-67652733D01*
X130357235Y-67746983D01*
X130347581Y-67845000D01*
X130350000Y-67990000D01*
X130475000Y-68115000D01*
X131950000Y-68115000D01*
X131950000Y-67045000D01*
X130475000Y-67045000D01*
X130350000Y-67170000D01*
X130347581Y-67315000D01*
X127692818Y-67315000D01*
X127308013Y-66930196D01*
X127290790Y-66909210D01*
X127207042Y-66840479D01*
X127111494Y-66789408D01*
X127007819Y-66757958D01*
X126927018Y-66750000D01*
X126927008Y-66750000D01*
X126922989Y-66749604D01*
X127016880Y-66558534D01*
X127067542Y-66391508D01*
X126974557Y-66180000D01*
X125840000Y-66180000D01*
X125840000Y-66200000D01*
X125640000Y-66200000D01*
X125640000Y-66180000D01*
X125620000Y-66180000D01*
X125620000Y-66045000D01*
X130347581Y-66045000D01*
X130357235Y-66143017D01*
X130385825Y-66237267D01*
X130424702Y-66310000D01*
X130385825Y-66382733D01*
X130357235Y-66476983D01*
X130347581Y-66575000D01*
X130350000Y-66720000D01*
X130475000Y-66845000D01*
X131950000Y-66845000D01*
X131950000Y-65775000D01*
X130475000Y-65775000D01*
X130350000Y-65900000D01*
X130347581Y-66045000D01*
X125620000Y-66045000D01*
X125620000Y-65980000D01*
X125640000Y-65980000D01*
X125640000Y-64845068D01*
X125559913Y-64810000D01*
X125640000Y-64774932D01*
X125640000Y-63640000D01*
X125840000Y-63640000D01*
X125840000Y-64774932D01*
X125920087Y-64810000D01*
X125840000Y-64845068D01*
X125840000Y-65980000D01*
X126974557Y-65980000D01*
X127067542Y-65768492D01*
X127016880Y-65601466D01*
X126898988Y-65361554D01*
X126736556Y-65149251D01*
X126535827Y-64972717D01*
X126304515Y-64838735D01*
X126220254Y-64810000D01*
X126304515Y-64781265D01*
X126315331Y-64775000D01*
X130347581Y-64775000D01*
X130357235Y-64873017D01*
X130385825Y-64967267D01*
X130424702Y-65040000D01*
X130385825Y-65112733D01*
X130357235Y-65206983D01*
X130347581Y-65305000D01*
X130350000Y-65450000D01*
X130475000Y-65575000D01*
X131950000Y-65575000D01*
X131950000Y-64505000D01*
X130475000Y-64505000D01*
X130350000Y-64630000D01*
X130347581Y-64775000D01*
X126315331Y-64775000D01*
X126535827Y-64647283D01*
X126736556Y-64470749D01*
X126898988Y-64258446D01*
X127016880Y-64018534D01*
X127067542Y-63851508D01*
X126974557Y-63640000D01*
X125840000Y-63640000D01*
X125640000Y-63640000D01*
X125620000Y-63640000D01*
X125620000Y-63505000D01*
X130347581Y-63505000D01*
X130357235Y-63603017D01*
X130385825Y-63697267D01*
X130424702Y-63770000D01*
X130385825Y-63842733D01*
X130357235Y-63936983D01*
X130347581Y-64035000D01*
X130350000Y-64180000D01*
X130475000Y-64305000D01*
X131950000Y-64305000D01*
X131950000Y-63235000D01*
X130475000Y-63235000D01*
X130350000Y-63360000D01*
X130347581Y-63505000D01*
X125620000Y-63505000D01*
X125620000Y-63440000D01*
X125640000Y-63440000D01*
X125640000Y-63420000D01*
X125840000Y-63420000D01*
X125840000Y-63440000D01*
X126974557Y-63440000D01*
X127067542Y-63228492D01*
X127016880Y-63061466D01*
X126898988Y-62821554D01*
X126736556Y-62609251D01*
X126535827Y-62432717D01*
X126304515Y-62298735D01*
X126117621Y-62235000D01*
X130347581Y-62235000D01*
X130357235Y-62333017D01*
X130385825Y-62427267D01*
X130424702Y-62500000D01*
X130385825Y-62572733D01*
X130357235Y-62666983D01*
X130347581Y-62765000D01*
X130350000Y-62910000D01*
X130475000Y-63035000D01*
X131950000Y-63035000D01*
X131950000Y-61965000D01*
X130475000Y-61965000D01*
X130350000Y-62090000D01*
X130347581Y-62235000D01*
X126117621Y-62235000D01*
X126072474Y-62219604D01*
X126225899Y-62173063D01*
X126445415Y-62055729D01*
X126637823Y-61897823D01*
X126795729Y-61705415D01*
X126913063Y-61485899D01*
X126985317Y-61247709D01*
X127009714Y-61000000D01*
X126985317Y-60752291D01*
X126913063Y-60514101D01*
X126795729Y-60294585D01*
X126637823Y-60102177D01*
X126445415Y-59944271D01*
X126225899Y-59826937D01*
X125987709Y-59754683D01*
X125802077Y-59736400D01*
X125677923Y-59736400D01*
X125492291Y-59754683D01*
X125254101Y-59826937D01*
X125034585Y-59944271D01*
X124842177Y-60102177D01*
X124684271Y-60294585D01*
X124566937Y-60514101D01*
X124494683Y-60752291D01*
X124470286Y-61000000D01*
X124494683Y-61247709D01*
X124566937Y-61485899D01*
X124684271Y-61705415D01*
X124842177Y-61897823D01*
X125034585Y-62055729D01*
X125254101Y-62173063D01*
X125407526Y-62219604D01*
X125175485Y-62298735D01*
X124944173Y-62432717D01*
X124743444Y-62609251D01*
X124581012Y-62821554D01*
X124463120Y-63061466D01*
X124419211Y-63206230D01*
X124373063Y-63054101D01*
X124255729Y-62834585D01*
X124097823Y-62642177D01*
X123905415Y-62484271D01*
X123685899Y-62366937D01*
X123447709Y-62294683D01*
X123262077Y-62276400D01*
X123137923Y-62276400D01*
X122952291Y-62294683D01*
X122714101Y-62366937D01*
X122494585Y-62484271D01*
X122302177Y-62642177D01*
X122144271Y-62834585D01*
X122026937Y-63054101D01*
X121954683Y-63292291D01*
X121930286Y-63540000D01*
X121954683Y-63787709D01*
X122026937Y-64025899D01*
X122144271Y-64245415D01*
X122302177Y-64437823D01*
X122494585Y-64595729D01*
X122714101Y-64713063D01*
X122952291Y-64785317D01*
X123137923Y-64803600D01*
X123262077Y-64803600D01*
X123447709Y-64785317D01*
X123685899Y-64713063D01*
X123905415Y-64595729D01*
X124097823Y-64437823D01*
X124255729Y-64245415D01*
X124373063Y-64025899D01*
X124419211Y-63873770D01*
X124463120Y-64018534D01*
X124581012Y-64258446D01*
X124743444Y-64470749D01*
X124944173Y-64647283D01*
X125175485Y-64781265D01*
X125259746Y-64810000D01*
X125175485Y-64838735D01*
X124944173Y-64972717D01*
X124743444Y-65149251D01*
X124581012Y-65361554D01*
X124463120Y-65601466D01*
X124419211Y-65746230D01*
X124373063Y-65594101D01*
X124255729Y-65374585D01*
X124097823Y-65182177D01*
X123905415Y-65024271D01*
X123685899Y-64906937D01*
X123447709Y-64834683D01*
X123262077Y-64816400D01*
X123137923Y-64816400D01*
X122952291Y-64834683D01*
X122714101Y-64906937D01*
X122494585Y-65024271D01*
X122302177Y-65182177D01*
X122144271Y-65374585D01*
X122026937Y-65594101D01*
X121954683Y-65832291D01*
X121930286Y-66080000D01*
X121954683Y-66327709D01*
X122026937Y-66565899D01*
X122144271Y-66785415D01*
X122302177Y-66977823D01*
X122494585Y-67135729D01*
X122714101Y-67253063D01*
X122952291Y-67325317D01*
X123137923Y-67343600D01*
X123262077Y-67343600D01*
X123447709Y-67325317D01*
X123616345Y-67274162D01*
X123911209Y-67569026D01*
X123905415Y-67564271D01*
X123685899Y-67446937D01*
X123447709Y-67374683D01*
X123262077Y-67356400D01*
X123137923Y-67356400D01*
X122952291Y-67374683D01*
X122714101Y-67446937D01*
X122494585Y-67564271D01*
X122302177Y-67722177D01*
X122144271Y-67914585D01*
X122071890Y-68050000D01*
X118850148Y-68050000D01*
X118858988Y-68038446D01*
X118976880Y-67798534D01*
X119027542Y-67631508D01*
X118934557Y-67420000D01*
X117800000Y-67420000D01*
X117800000Y-67440000D01*
X117600000Y-67440000D01*
X117600000Y-67420000D01*
X117580000Y-67420000D01*
X117580000Y-67220000D01*
X117600000Y-67220000D01*
X117600000Y-66085068D01*
X117800000Y-66085068D01*
X117800000Y-67220000D01*
X118934557Y-67220000D01*
X119027542Y-67008492D01*
X118976880Y-66841466D01*
X118858988Y-66601554D01*
X118696556Y-66389251D01*
X118495827Y-66212717D01*
X118264515Y-66078735D01*
X118011509Y-65992454D01*
X117800000Y-66085068D01*
X117600000Y-66085068D01*
X117388491Y-65992454D01*
X117135485Y-66078735D01*
X116904173Y-66212717D01*
X116703444Y-66389251D01*
X116541012Y-66601554D01*
X116423120Y-66841466D01*
X116379211Y-66986230D01*
X116333063Y-66834101D01*
X116215729Y-66614585D01*
X116057823Y-66422177D01*
X115865415Y-66264271D01*
X115645899Y-66146937D01*
X115407709Y-66074683D01*
X115222077Y-66056400D01*
X115097923Y-66056400D01*
X114912291Y-66074683D01*
X114674101Y-66146937D01*
X114454585Y-66264271D01*
X114262177Y-66422177D01*
X114104271Y-66614585D01*
X113986937Y-66834101D01*
X113914683Y-67072291D01*
X113890286Y-67320000D01*
X113914683Y-67567709D01*
X113986937Y-67805899D01*
X114104271Y-68025415D01*
X114128077Y-68054423D01*
X114092181Y-68057958D01*
X113988506Y-68089408D01*
X113892958Y-68140479D01*
X113882097Y-68149393D01*
X113830195Y-68191987D01*
X113830190Y-68191992D01*
X113809210Y-68209210D01*
X113791992Y-68230190D01*
X113100000Y-68922183D01*
X113100000Y-63248527D01*
X114748528Y-61600000D01*
X121934465Y-61600000D01*
X121934465Y-61863600D01*
X121942188Y-61942014D01*
X121965060Y-62017414D01*
X122002203Y-62086903D01*
X122052189Y-62147811D01*
X122113097Y-62197797D01*
X122182586Y-62234940D01*
X122257986Y-62257812D01*
X122336400Y-62265535D01*
X124063600Y-62265535D01*
X124142014Y-62257812D01*
X124217414Y-62234940D01*
X124286903Y-62197797D01*
X124347811Y-62147811D01*
X124397797Y-62086903D01*
X124434940Y-62017414D01*
X124457812Y-61942014D01*
X124465535Y-61863600D01*
X124465535Y-60136400D01*
X124457812Y-60057986D01*
X124434940Y-59982586D01*
X124397797Y-59913097D01*
X124347811Y-59852189D01*
X124286903Y-59802203D01*
X124217414Y-59765060D01*
X124142014Y-59742188D01*
X124063600Y-59734465D01*
X123800000Y-59734465D01*
X123800000Y-58648527D01*
X124023527Y-58425000D01*
X130347581Y-58425000D01*
X130357235Y-58523017D01*
X130385825Y-58617267D01*
X130424702Y-58690000D01*
X130385825Y-58762733D01*
X130357235Y-58856983D01*
X130347581Y-58955000D01*
X130350000Y-59100000D01*
X130475000Y-59225000D01*
X131950000Y-59225000D01*
X131950000Y-58155000D01*
X132150000Y-58155000D01*
X132150000Y-59225000D01*
X133625000Y-59225000D01*
X133750000Y-59100000D01*
X133752419Y-58955000D01*
X133742765Y-58856983D01*
X133714175Y-58762733D01*
X133675298Y-58690000D01*
X133714175Y-58617267D01*
X133742765Y-58523017D01*
X133752419Y-58425000D01*
X133750000Y-58280000D01*
X133625000Y-58155000D01*
X132150000Y-58155000D01*
X131950000Y-58155000D01*
X130475000Y-58155000D01*
X130350000Y-58280000D01*
X130347581Y-58425000D01*
X124023527Y-58425000D01*
X125063528Y-57385000D01*
X129022997Y-57385000D01*
X129053426Y-57405332D01*
X129180818Y-57458099D01*
X129316056Y-57485000D01*
X129453944Y-57485000D01*
X129589182Y-57458099D01*
X129716574Y-57405332D01*
X129747003Y-57385000D01*
X130449382Y-57385000D01*
X130432254Y-57405871D01*
X130385825Y-57492733D01*
X130357235Y-57586983D01*
X130347581Y-57685000D01*
X130350000Y-57830000D01*
X130475000Y-57955000D01*
X131950000Y-57955000D01*
X131950000Y-57935000D01*
X132150000Y-57935000D01*
X132150000Y-57955000D01*
X133625000Y-57955000D01*
X133750000Y-57830000D01*
X133752419Y-57685000D01*
X133742765Y-57586983D01*
X133714175Y-57492733D01*
X133667746Y-57405871D01*
X133608227Y-57333346D01*
X133621340Y-57308814D01*
X133644212Y-57233414D01*
X133651935Y-57155000D01*
X133651935Y-57100000D01*
X134348065Y-57100000D01*
X134348065Y-57155000D01*
M02*
