M48
; DRILL file {KiCad 5.1.4+dfsg1-1} date Вт 28 апр 2020 18:32:36
; FORMAT={-:-/ absolute / inch / decimal}
; #@! TF.CreationDate,2020-04-28T18:32:36+04:00
; #@! TF.GenerationSoftware,Kicad,Pcbnew,5.1.4+dfsg1-1
FMAT,2
INCH
T1C0.0118
T2C0.0197
T3C0.0374
T4C0.0394
T5C0.0400
%
G90
G05
T1
X5.0939Y-2.2356
X5.1299Y-2.3858
X5.2835Y-3.2402
X5.3898Y-2.8504
X5.4173Y-2.9528
X5.4213Y-3.2638
X5.4213Y-3.3189
X5.4213Y-3.3661
X5.4213Y-3.4173
X5.4213Y-3.4646
X5.4252Y-2.3346
X5.4449Y-2.9055
X5.4449Y-3.0512
X5.4528Y-2.3858
X5.4646Y-2.3346
X5.4646Y-2.4331
X5.5039Y-2.3346
X5.5079Y-3.0
T2
X4.4488Y-2.2835
X4.4488Y-3.248
X4.4488Y-3.4646
X4.6063Y-2.5
X4.6063Y-2.6378
X4.6063Y-2.7559
X4.6063Y-2.8543
X4.6063Y-3.0512
X4.6063Y-3.122
X4.7638Y-2.2638
X4.7638Y-2.5
X4.7638Y-2.7559
X4.7638Y-2.8543
X4.7638Y-3.0512
X4.7638Y-3.1614
X4.7638Y-3.248
X4.7638Y-3.4646
X4.9528Y-2.2795
X4.9606Y-3.4646
X5.0945Y-2.7992
X5.0945Y-2.8976
X5.0945Y-3.0
X5.1102Y-2.4843
X5.1102Y-2.5827
X5.1102Y-3.315
X5.1142Y-2.685
X5.1181Y-3.4646
X5.311Y-3.185
X5.5906Y-2.3228
X5.5906Y-2.4252
X5.5906Y-2.6102
X5.7362Y-3.2913
X5.8031Y-2.7874
X5.811Y-3.2205
T3
X5.5945Y-2.8465
X5.5945Y-2.9449
X5.5945Y-3.0433
X5.5945Y-3.1417
X5.5945Y-3.2402
X5.5945Y-3.3386
T4
X5.2244Y-2.8504
X5.2244Y-2.9504
X5.2244Y-3.0504
X5.3244Y-2.8504
X5.3244Y-2.9504
X5.3244Y-3.0504
X4.4252Y-2.6535
X4.4252Y-2.7535
X4.4252Y-2.8535
X4.4252Y-2.9535
X4.4252Y-3.0535
X4.5252Y-2.6535
X4.5252Y-2.7535
X4.5252Y-2.8535
X4.5252Y-2.9535
X4.5252Y-3.0535
X5.7756Y-2.2598
X5.7756Y-2.3598
X5.7756Y-2.4598
X5.7756Y-2.5598
T5
X4.8504Y-2.4016
X4.8504Y-2.5016
X4.8504Y-2.6016
X4.8504Y-2.7016
X4.8504Y-2.8016
X4.8504Y-2.9016
X4.8504Y-3.0016
X4.8504Y-3.1016
X4.8504Y-3.2016
X4.8504Y-3.3016
X4.9504Y-2.4016
X4.9504Y-2.5016
X4.9504Y-2.6016
X4.9504Y-2.7016
X4.9504Y-2.8016
X4.9504Y-2.9016
X4.9504Y-3.0016
X4.9504Y-3.1016
X4.9504Y-3.2016
X4.9504Y-3.3016
T0
M30
