G04 #@! TF.GenerationSoftware,KiCad,Pcbnew,5.1.4+dfsg1-1*
G04 #@! TF.CreationDate,2020-04-28T19:27:45+04:00*
G04 #@! TF.ProjectId,RailLink,5261696c-4c69-46e6-9b2e-6b696361645f,rev?*
G04 #@! TF.SameCoordinates,Original*
G04 #@! TF.FileFunction,Legend,Bot*
G04 #@! TF.FilePolarity,Positive*
%FSLAX46Y46*%
G04 Gerber Fmt 4.6, Leading zero omitted, Abs format (unit mm)*
G04 Created by KiCad (PCBNEW 5.1.4+dfsg1-1) date 2020-04-28 19:27:45*
%MOMM*%
%LPD*%
G04 APERTURE LIST*
%ADD10C,0.160000*%
%ADD11C,0.050000*%
%ADD12C,1.900000*%
%ADD13R,1.900000X1.900000*%
%ADD14O,1.800000X1.800000*%
%ADD15R,1.800000X1.800000*%
%ADD16C,5.100000*%
%ADD17C,0.900000*%
%ADD18O,2.200000X1.100000*%
%ADD19C,0.750000*%
%ADD20O,1.700000X1.100000*%
%ADD21O,1.827200X1.827200*%
%ADD22R,1.827200X1.827200*%
%ADD23R,1.500000X1.900000*%
%ADD24O,1.500000X1.900000*%
G04 APERTURE END LIST*
D10*
X131819047Y-124681904D02*
X131552380Y-125481904D01*
X131285714Y-124681904D01*
X131133333Y-124948571D02*
X130828571Y-124948571D01*
X131019047Y-124681904D02*
X131019047Y-125367619D01*
X130980952Y-125443809D01*
X130904761Y-125481904D01*
X130828571Y-125481904D01*
X130561904Y-125481904D02*
X130561904Y-124948571D01*
X130561904Y-125100952D02*
X130523809Y-125024761D01*
X130485714Y-124986666D01*
X130409523Y-124948571D01*
X130333333Y-124948571D01*
X129761904Y-125443809D02*
X129838095Y-125481904D01*
X129990476Y-125481904D01*
X130066666Y-125443809D01*
X130104761Y-125367619D01*
X130104761Y-125062857D01*
X130066666Y-124986666D01*
X129990476Y-124948571D01*
X129838095Y-124948571D01*
X129761904Y-124986666D01*
X129723809Y-125062857D01*
X129723809Y-125139047D01*
X130104761Y-125215238D01*
X129495238Y-124948571D02*
X129190476Y-124948571D01*
X129380952Y-125481904D02*
X129380952Y-124796190D01*
X129342857Y-124720000D01*
X129266666Y-124681904D01*
X129190476Y-124681904D01*
X128314285Y-125062857D02*
X127704761Y-125062857D01*
X127704761Y-125291428D02*
X128314285Y-125291428D01*
X130580952Y-126041904D02*
X130085714Y-126041904D01*
X130352380Y-126346666D01*
X130238095Y-126346666D01*
X130161904Y-126384761D01*
X130123809Y-126422857D01*
X130085714Y-126499047D01*
X130085714Y-126689523D01*
X130123809Y-126765714D01*
X130161904Y-126803809D01*
X130238095Y-126841904D01*
X130466666Y-126841904D01*
X130542857Y-126803809D01*
X130580952Y-126765714D01*
X129742857Y-126765714D02*
X129704761Y-126803809D01*
X129742857Y-126841904D01*
X129780952Y-126803809D01*
X129742857Y-126765714D01*
X129742857Y-126841904D01*
X129438095Y-126041904D02*
X128942857Y-126041904D01*
X129209523Y-126346666D01*
X129095238Y-126346666D01*
X129019047Y-126384761D01*
X128980952Y-126422857D01*
X128942857Y-126499047D01*
X128942857Y-126689523D01*
X128980952Y-126765714D01*
X129019047Y-126803809D01*
X129095238Y-126841904D01*
X129323809Y-126841904D01*
X129400000Y-126803809D01*
X129438095Y-126765714D01*
X128714285Y-126041904D02*
X128447619Y-126841904D01*
X128180952Y-126041904D01*
X132600000Y-127600000D02*
X122900000Y-127600000D01*
X132600000Y-120100000D02*
X132600000Y-127600000D01*
X123000000Y-120100000D02*
X132600000Y-120100000D01*
X122900000Y-127600000D02*
X123000000Y-120100000D01*
X131300000Y-121205714D02*
X131338095Y-121243809D01*
X131452380Y-121281904D01*
X131528571Y-121281904D01*
X131642857Y-121243809D01*
X131719047Y-121167619D01*
X131757142Y-121091428D01*
X131795238Y-120939047D01*
X131795238Y-120824761D01*
X131757142Y-120672380D01*
X131719047Y-120596190D01*
X131642857Y-120520000D01*
X131528571Y-120481904D01*
X131452380Y-120481904D01*
X131338095Y-120520000D01*
X131300000Y-120558095D01*
X130842857Y-121281904D02*
X130919047Y-121243809D01*
X130957142Y-121167619D01*
X130957142Y-120481904D01*
X130423809Y-121281904D02*
X130500000Y-121243809D01*
X130538095Y-121205714D01*
X130576190Y-121129523D01*
X130576190Y-120900952D01*
X130538095Y-120824761D01*
X130500000Y-120786666D01*
X130423809Y-120748571D01*
X130309523Y-120748571D01*
X130233333Y-120786666D01*
X130195238Y-120824761D01*
X130157142Y-120900952D01*
X130157142Y-121129523D01*
X130195238Y-121205714D01*
X130233333Y-121243809D01*
X130309523Y-121281904D01*
X130423809Y-121281904D01*
X129852380Y-121243809D02*
X129776190Y-121281904D01*
X129623809Y-121281904D01*
X129547619Y-121243809D01*
X129509523Y-121167619D01*
X129509523Y-121129523D01*
X129547619Y-121053333D01*
X129623809Y-121015238D01*
X129738095Y-121015238D01*
X129814285Y-120977142D01*
X129852380Y-120900952D01*
X129852380Y-120862857D01*
X129814285Y-120786666D01*
X129738095Y-120748571D01*
X129623809Y-120748571D01*
X129547619Y-120786666D01*
X128861904Y-121243809D02*
X128938095Y-121281904D01*
X129090476Y-121281904D01*
X129166666Y-121243809D01*
X129204761Y-121167619D01*
X129204761Y-120862857D01*
X129166666Y-120786666D01*
X129090476Y-120748571D01*
X128938095Y-120748571D01*
X128861904Y-120786666D01*
X128823809Y-120862857D01*
X128823809Y-120939047D01*
X129204761Y-121015238D01*
X128442857Y-121243809D02*
X128442857Y-121281904D01*
X128480952Y-121358095D01*
X128519047Y-121396190D01*
X127490476Y-121281904D02*
X127490476Y-120748571D01*
X127490476Y-120481904D02*
X127528571Y-120520000D01*
X127490476Y-120558095D01*
X127452380Y-120520000D01*
X127490476Y-120481904D01*
X127490476Y-120558095D01*
X127223809Y-120748571D02*
X126919047Y-120748571D01*
X127109523Y-121281904D02*
X127109523Y-120596190D01*
X127071428Y-120520000D01*
X126995238Y-120481904D01*
X126919047Y-120481904D01*
X126157142Y-120481904D02*
X125890476Y-121281904D01*
X125623809Y-120481904D01*
X125471428Y-120748571D02*
X125166666Y-120748571D01*
X125357142Y-120481904D02*
X125357142Y-121167619D01*
X125319047Y-121243809D01*
X125242857Y-121281904D01*
X125166666Y-121281904D01*
X124900000Y-121281904D02*
X124900000Y-120748571D01*
X124900000Y-120900952D02*
X124861904Y-120824761D01*
X124823809Y-120786666D01*
X124747619Y-120748571D01*
X124671428Y-120748571D01*
X124100000Y-121243809D02*
X124176190Y-121281904D01*
X124328571Y-121281904D01*
X124404761Y-121243809D01*
X124442857Y-121167619D01*
X124442857Y-120862857D01*
X124404761Y-120786666D01*
X124328571Y-120748571D01*
X124176190Y-120748571D01*
X124100000Y-120786666D01*
X124061904Y-120862857D01*
X124061904Y-120939047D01*
X124442857Y-121015238D01*
X123833333Y-120748571D02*
X123528571Y-120748571D01*
X123719047Y-121281904D02*
X123719047Y-120596190D01*
X123680952Y-120520000D01*
X123604761Y-120481904D01*
X123528571Y-120481904D01*
X131795238Y-122641904D02*
X131795238Y-122108571D01*
X131795238Y-121841904D02*
X131833333Y-121880000D01*
X131795238Y-121918095D01*
X131757142Y-121880000D01*
X131795238Y-121841904D01*
X131795238Y-121918095D01*
X131452380Y-122603809D02*
X131376190Y-122641904D01*
X131223809Y-122641904D01*
X131147619Y-122603809D01*
X131109523Y-122527619D01*
X131109523Y-122489523D01*
X131147619Y-122413333D01*
X131223809Y-122375238D01*
X131338095Y-122375238D01*
X131414285Y-122337142D01*
X131452380Y-122260952D01*
X131452380Y-122222857D01*
X131414285Y-122146666D01*
X131338095Y-122108571D01*
X131223809Y-122108571D01*
X131147619Y-122146666D01*
X130157142Y-122108571D02*
X130157142Y-122641904D01*
X130157142Y-122184761D02*
X130119047Y-122146666D01*
X130042857Y-122108571D01*
X129928571Y-122108571D01*
X129852380Y-122146666D01*
X129814285Y-122222857D01*
X129814285Y-122641904D01*
X129319047Y-122641904D02*
X129395238Y-122603809D01*
X129433333Y-122565714D01*
X129471428Y-122489523D01*
X129471428Y-122260952D01*
X129433333Y-122184761D01*
X129395238Y-122146666D01*
X129319047Y-122108571D01*
X129204761Y-122108571D01*
X129128571Y-122146666D01*
X129090476Y-122184761D01*
X129052380Y-122260952D01*
X129052380Y-122489523D01*
X129090476Y-122565714D01*
X129128571Y-122603809D01*
X129204761Y-122641904D01*
X129319047Y-122641904D01*
X128823809Y-122108571D02*
X128519047Y-122108571D01*
X128709523Y-121841904D02*
X128709523Y-122527619D01*
X128671428Y-122603809D01*
X128595238Y-122641904D01*
X128519047Y-122641904D01*
X127642857Y-122108571D02*
X127642857Y-122908571D01*
X127642857Y-122146666D02*
X127566666Y-122108571D01*
X127414285Y-122108571D01*
X127338095Y-122146666D01*
X127300000Y-122184761D01*
X127261904Y-122260952D01*
X127261904Y-122489523D01*
X127300000Y-122565714D01*
X127338095Y-122603809D01*
X127414285Y-122641904D01*
X127566666Y-122641904D01*
X127642857Y-122603809D01*
X126919047Y-122641904D02*
X126919047Y-122108571D01*
X126919047Y-122260952D02*
X126880952Y-122184761D01*
X126842857Y-122146666D01*
X126766666Y-122108571D01*
X126690476Y-122108571D01*
X126119047Y-122603809D02*
X126195238Y-122641904D01*
X126347619Y-122641904D01*
X126423809Y-122603809D01*
X126461904Y-122527619D01*
X126461904Y-122222857D01*
X126423809Y-122146666D01*
X126347619Y-122108571D01*
X126195238Y-122108571D01*
X126119047Y-122146666D01*
X126080952Y-122222857D01*
X126080952Y-122299047D01*
X126461904Y-122375238D01*
X125776190Y-122603809D02*
X125700000Y-122641904D01*
X125547619Y-122641904D01*
X125471428Y-122603809D01*
X125433333Y-122527619D01*
X125433333Y-122489523D01*
X125471428Y-122413333D01*
X125547619Y-122375238D01*
X125661904Y-122375238D01*
X125738095Y-122337142D01*
X125776190Y-122260952D01*
X125776190Y-122222857D01*
X125738095Y-122146666D01*
X125661904Y-122108571D01*
X125547619Y-122108571D01*
X125471428Y-122146666D01*
X124785714Y-122603809D02*
X124861904Y-122641904D01*
X125014285Y-122641904D01*
X125090476Y-122603809D01*
X125128571Y-122527619D01*
X125128571Y-122222857D01*
X125090476Y-122146666D01*
X125014285Y-122108571D01*
X124861904Y-122108571D01*
X124785714Y-122146666D01*
X124747619Y-122222857D01*
X124747619Y-122299047D01*
X125128571Y-122375238D01*
X124404761Y-122108571D02*
X124404761Y-122641904D01*
X124404761Y-122184761D02*
X124366666Y-122146666D01*
X124290476Y-122108571D01*
X124176190Y-122108571D01*
X124100000Y-122146666D01*
X124061904Y-122222857D01*
X124061904Y-122641904D01*
X123795238Y-122108571D02*
X123490476Y-122108571D01*
X123680952Y-121841904D02*
X123680952Y-122527619D01*
X123642857Y-122603809D01*
X123566666Y-122641904D01*
X123490476Y-122641904D01*
X144200000Y-108100000D02*
X143900000Y-107800000D01*
X143900000Y-107800000D02*
X143600000Y-108100000D01*
X143900000Y-108800000D02*
X143900000Y-107800000D01*
X143900000Y-118900000D02*
X143600000Y-119200000D01*
X144200000Y-119200000D02*
X143900000Y-118900000D01*
X143900000Y-119900000D02*
X143900000Y-118900000D01*
X148358095Y-113119809D02*
X148358095Y-112662666D01*
X147558095Y-112891238D02*
X148358095Y-112891238D01*
X147558095Y-112396000D02*
X148358095Y-112396000D01*
X147786666Y-112129333D01*
X148358095Y-111862666D01*
X147558095Y-111862666D01*
X147596190Y-111519809D02*
X147558095Y-111405523D01*
X147558095Y-111215047D01*
X147596190Y-111138857D01*
X147634285Y-111100761D01*
X147710476Y-111062666D01*
X147786666Y-111062666D01*
X147862857Y-111100761D01*
X147900952Y-111138857D01*
X147939047Y-111215047D01*
X147977142Y-111367428D01*
X148015238Y-111443619D01*
X148053333Y-111481714D01*
X148129523Y-111519809D01*
X148205714Y-111519809D01*
X148281904Y-111481714D01*
X148320000Y-111443619D01*
X148358095Y-111367428D01*
X148358095Y-111176952D01*
X148320000Y-111062666D01*
X148396190Y-110148380D02*
X147367619Y-110834095D01*
X147596190Y-109919809D02*
X147558095Y-109805523D01*
X147558095Y-109615047D01*
X147596190Y-109538857D01*
X147634285Y-109500761D01*
X147710476Y-109462666D01*
X147786666Y-109462666D01*
X147862857Y-109500761D01*
X147900952Y-109538857D01*
X147939047Y-109615047D01*
X147977142Y-109767428D01*
X148015238Y-109843619D01*
X148053333Y-109881714D01*
X148129523Y-109919809D01*
X148205714Y-109919809D01*
X148281904Y-109881714D01*
X148320000Y-109843619D01*
X148358095Y-109767428D01*
X148358095Y-109576952D01*
X148320000Y-109462666D01*
X148358095Y-109196000D02*
X147558095Y-109005523D01*
X148129523Y-108853142D01*
X147558095Y-108700761D01*
X148358095Y-108510285D01*
X147558095Y-108205523D02*
X148358095Y-108205523D01*
X148358095Y-108015047D01*
X148320000Y-107900761D01*
X148243809Y-107824571D01*
X148167619Y-107786476D01*
X148015238Y-107748380D01*
X147900952Y-107748380D01*
X147748571Y-107786476D01*
X147672380Y-107824571D01*
X147596190Y-107900761D01*
X147558095Y-108015047D01*
X147558095Y-108205523D01*
X147558095Y-107405523D02*
X148358095Y-107405523D01*
X148358095Y-106872190D02*
X148358095Y-106719809D01*
X148320000Y-106643619D01*
X148243809Y-106567428D01*
X148091428Y-106529333D01*
X147824761Y-106529333D01*
X147672380Y-106567428D01*
X147596190Y-106643619D01*
X147558095Y-106719809D01*
X147558095Y-106872190D01*
X147596190Y-106948380D01*
X147672380Y-107024571D01*
X147824761Y-107062666D01*
X148091428Y-107062666D01*
X148243809Y-107024571D01*
X148320000Y-106948380D01*
X148358095Y-106872190D01*
X146998095Y-113119809D02*
X146998095Y-112662666D01*
X146198095Y-112891238D02*
X146998095Y-112891238D01*
X146274285Y-111938857D02*
X146236190Y-111976952D01*
X146198095Y-112091238D01*
X146198095Y-112167428D01*
X146236190Y-112281714D01*
X146312380Y-112357904D01*
X146388571Y-112396000D01*
X146540952Y-112434095D01*
X146655238Y-112434095D01*
X146807619Y-112396000D01*
X146883809Y-112357904D01*
X146960000Y-112281714D01*
X146998095Y-112167428D01*
X146998095Y-112091238D01*
X146960000Y-111976952D01*
X146921904Y-111938857D01*
X146198095Y-111596000D02*
X146998095Y-111596000D01*
X146198095Y-111138857D02*
X146655238Y-111481714D01*
X146998095Y-111138857D02*
X146540952Y-111596000D01*
X147036190Y-110224571D02*
X146007619Y-110910285D01*
X146236190Y-109996000D02*
X146198095Y-109881714D01*
X146198095Y-109691238D01*
X146236190Y-109615047D01*
X146274285Y-109576952D01*
X146350476Y-109538857D01*
X146426666Y-109538857D01*
X146502857Y-109576952D01*
X146540952Y-109615047D01*
X146579047Y-109691238D01*
X146617142Y-109843619D01*
X146655238Y-109919809D01*
X146693333Y-109957904D01*
X146769523Y-109996000D01*
X146845714Y-109996000D01*
X146921904Y-109957904D01*
X146960000Y-109919809D01*
X146998095Y-109843619D01*
X146998095Y-109653142D01*
X146960000Y-109538857D01*
X146998095Y-109272190D02*
X146198095Y-109081714D01*
X146769523Y-108929333D01*
X146198095Y-108776952D01*
X146998095Y-108586476D01*
X146274285Y-107824571D02*
X146236190Y-107862666D01*
X146198095Y-107976952D01*
X146198095Y-108053142D01*
X146236190Y-108167428D01*
X146312380Y-108243619D01*
X146388571Y-108281714D01*
X146540952Y-108319809D01*
X146655238Y-108319809D01*
X146807619Y-108281714D01*
X146883809Y-108243619D01*
X146960000Y-108167428D01*
X146998095Y-108053142D01*
X146998095Y-107976952D01*
X146960000Y-107862666D01*
X146921904Y-107824571D01*
X146198095Y-107100761D02*
X146198095Y-107481714D01*
X146998095Y-107481714D01*
X146198095Y-106834095D02*
X146998095Y-106834095D01*
X146198095Y-106376952D02*
X146655238Y-106719809D01*
X146998095Y-106376952D02*
X146540952Y-106834095D01*
X145638095Y-113119809D02*
X145638095Y-112662666D01*
X144838095Y-112891238D02*
X145638095Y-112891238D01*
X144838095Y-112396000D02*
X145638095Y-112396000D01*
X145638095Y-112205523D01*
X145600000Y-112091238D01*
X145523809Y-112015047D01*
X145447619Y-111976952D01*
X145295238Y-111938857D01*
X145180952Y-111938857D01*
X145028571Y-111976952D01*
X144952380Y-112015047D01*
X144876190Y-112091238D01*
X144838095Y-112205523D01*
X144838095Y-112396000D01*
X145638095Y-111443619D02*
X145638095Y-111291238D01*
X145600000Y-111215047D01*
X145523809Y-111138857D01*
X145371428Y-111100761D01*
X145104761Y-111100761D01*
X144952380Y-111138857D01*
X144876190Y-111215047D01*
X144838095Y-111291238D01*
X144838095Y-111443619D01*
X144876190Y-111519809D01*
X144952380Y-111596000D01*
X145104761Y-111634095D01*
X145371428Y-111634095D01*
X145523809Y-111596000D01*
X145600000Y-111519809D01*
X145638095Y-111443619D01*
X145676190Y-110186476D02*
X144647619Y-110872190D01*
X144876190Y-109957904D02*
X144838095Y-109843619D01*
X144838095Y-109653142D01*
X144876190Y-109576952D01*
X144914285Y-109538857D01*
X144990476Y-109500761D01*
X145066666Y-109500761D01*
X145142857Y-109538857D01*
X145180952Y-109576952D01*
X145219047Y-109653142D01*
X145257142Y-109805523D01*
X145295238Y-109881714D01*
X145333333Y-109919809D01*
X145409523Y-109957904D01*
X145485714Y-109957904D01*
X145561904Y-109919809D01*
X145600000Y-109881714D01*
X145638095Y-109805523D01*
X145638095Y-109615047D01*
X145600000Y-109500761D01*
X145638095Y-109234095D02*
X144838095Y-109043619D01*
X145409523Y-108891238D01*
X144838095Y-108738857D01*
X145638095Y-108548380D01*
X145638095Y-108091238D02*
X145638095Y-107938857D01*
X145600000Y-107862666D01*
X145523809Y-107786476D01*
X145371428Y-107748380D01*
X145104761Y-107748380D01*
X144952380Y-107786476D01*
X144876190Y-107862666D01*
X144838095Y-107938857D01*
X144838095Y-108091238D01*
X144876190Y-108167428D01*
X144952380Y-108243619D01*
X145104761Y-108281714D01*
X145371428Y-108281714D01*
X145523809Y-108243619D01*
X145600000Y-108167428D01*
X145638095Y-108091238D01*
X144278095Y-113119809D02*
X144278095Y-112662666D01*
X143478095Y-112891238D02*
X144278095Y-112891238D01*
X143478095Y-112396000D02*
X144278095Y-112396000D01*
X144278095Y-112205523D01*
X144240000Y-112091238D01*
X144163809Y-112015047D01*
X144087619Y-111976952D01*
X143935238Y-111938857D01*
X143820952Y-111938857D01*
X143668571Y-111976952D01*
X143592380Y-112015047D01*
X143516190Y-112091238D01*
X143478095Y-112205523D01*
X143478095Y-112396000D01*
X143478095Y-111596000D02*
X144278095Y-111596000D01*
X144316190Y-110643619D02*
X143287619Y-111329333D01*
X144278095Y-110491238D02*
X144278095Y-110034095D01*
X143478095Y-110262666D02*
X144278095Y-110262666D01*
X144278095Y-109843619D02*
X143478095Y-109310285D01*
X144278095Y-109310285D02*
X143478095Y-109843619D01*
X143264000Y-113196000D02*
X143264000Y-112396000D01*
X142118095Y-112548380D02*
X142499047Y-112815047D01*
X142118095Y-113005523D02*
X142918095Y-113005523D01*
X142918095Y-112700761D01*
X142880000Y-112624571D01*
X142841904Y-112586476D01*
X142765714Y-112548380D01*
X142651428Y-112548380D01*
X142575238Y-112586476D01*
X142537142Y-112624571D01*
X142499047Y-112700761D01*
X142499047Y-113005523D01*
X143264000Y-112396000D02*
X143264000Y-111672190D01*
X142537142Y-112205523D02*
X142537142Y-111938857D01*
X142118095Y-111824571D02*
X142118095Y-112205523D01*
X142918095Y-112205523D01*
X142918095Y-111824571D01*
X143264000Y-111672190D02*
X143264000Y-110910285D01*
X142156190Y-111519809D02*
X142118095Y-111405523D01*
X142118095Y-111215047D01*
X142156190Y-111138857D01*
X142194285Y-111100761D01*
X142270476Y-111062666D01*
X142346666Y-111062666D01*
X142422857Y-111100761D01*
X142460952Y-111138857D01*
X142499047Y-111215047D01*
X142537142Y-111367428D01*
X142575238Y-111443619D01*
X142613333Y-111481714D01*
X142689523Y-111519809D01*
X142765714Y-111519809D01*
X142841904Y-111481714D01*
X142880000Y-111443619D01*
X142918095Y-111367428D01*
X142918095Y-111176952D01*
X142880000Y-111062666D01*
X143264000Y-110910285D02*
X143264000Y-110186476D01*
X142537142Y-110719809D02*
X142537142Y-110453142D01*
X142118095Y-110338857D02*
X142118095Y-110719809D01*
X142918095Y-110719809D01*
X142918095Y-110338857D01*
X143264000Y-110186476D02*
X143264000Y-109576952D01*
X142918095Y-110110285D02*
X142918095Y-109653142D01*
X142118095Y-109881714D02*
X142918095Y-109881714D01*
X148358095Y-119808761D02*
X147558095Y-119542095D01*
X148358095Y-119275428D01*
X148091428Y-119123047D02*
X148091428Y-118818285D01*
X148358095Y-119008761D02*
X147672380Y-119008761D01*
X147596190Y-118970666D01*
X147558095Y-118894476D01*
X147558095Y-118818285D01*
X147558095Y-118551619D02*
X148091428Y-118551619D01*
X147939047Y-118551619D02*
X148015238Y-118513523D01*
X148053333Y-118475428D01*
X148091428Y-118399238D01*
X148091428Y-118323047D01*
X147596190Y-117751619D02*
X147558095Y-117827809D01*
X147558095Y-117980190D01*
X147596190Y-118056380D01*
X147672380Y-118094476D01*
X147977142Y-118094476D01*
X148053333Y-118056380D01*
X148091428Y-117980190D01*
X148091428Y-117827809D01*
X148053333Y-117751619D01*
X147977142Y-117713523D01*
X147900952Y-117713523D01*
X147824761Y-118094476D01*
X148091428Y-117484952D02*
X148091428Y-117180190D01*
X147558095Y-117370666D02*
X148243809Y-117370666D01*
X148320000Y-117332571D01*
X148358095Y-117256380D01*
X148358095Y-117180190D01*
X146960000Y-118932571D02*
X146998095Y-119008761D01*
X146998095Y-119123047D01*
X146960000Y-119237333D01*
X146883809Y-119313523D01*
X146807619Y-119351619D01*
X146655238Y-119389714D01*
X146540952Y-119389714D01*
X146388571Y-119351619D01*
X146312380Y-119313523D01*
X146236190Y-119237333D01*
X146198095Y-119123047D01*
X146198095Y-119046857D01*
X146236190Y-118932571D01*
X146274285Y-118894476D01*
X146540952Y-118894476D01*
X146540952Y-119046857D01*
X146198095Y-118551619D02*
X146998095Y-118551619D01*
X146198095Y-118094476D01*
X146998095Y-118094476D01*
X146198095Y-117713523D02*
X146998095Y-117713523D01*
X146998095Y-117523047D01*
X146960000Y-117408761D01*
X146883809Y-117332571D01*
X146807619Y-117294476D01*
X146655238Y-117256380D01*
X146540952Y-117256380D01*
X146388571Y-117294476D01*
X146312380Y-117332571D01*
X146236190Y-117408761D01*
X146198095Y-117523047D01*
X146198095Y-117713523D01*
X145600000Y-118932571D02*
X145638095Y-119008761D01*
X145638095Y-119123047D01*
X145600000Y-119237333D01*
X145523809Y-119313523D01*
X145447619Y-119351619D01*
X145295238Y-119389714D01*
X145180952Y-119389714D01*
X145028571Y-119351619D01*
X144952380Y-119313523D01*
X144876190Y-119237333D01*
X144838095Y-119123047D01*
X144838095Y-119046857D01*
X144876190Y-118932571D01*
X144914285Y-118894476D01*
X145180952Y-118894476D01*
X145180952Y-119046857D01*
X144838095Y-118551619D02*
X145638095Y-118551619D01*
X144838095Y-118094476D01*
X145638095Y-118094476D01*
X144838095Y-117713523D02*
X145638095Y-117713523D01*
X145638095Y-117523047D01*
X145600000Y-117408761D01*
X145523809Y-117332571D01*
X145447619Y-117294476D01*
X145295238Y-117256380D01*
X145180952Y-117256380D01*
X145028571Y-117294476D01*
X144952380Y-117332571D01*
X144876190Y-117408761D01*
X144838095Y-117523047D01*
X144838095Y-117713523D01*
X143478095Y-118018285D02*
X143859047Y-118284952D01*
X143478095Y-118475428D02*
X144278095Y-118475428D01*
X144278095Y-118170666D01*
X144240000Y-118094476D01*
X144201904Y-118056380D01*
X144125714Y-118018285D01*
X144011428Y-118018285D01*
X143935238Y-118056380D01*
X143897142Y-118094476D01*
X143859047Y-118170666D01*
X143859047Y-118475428D01*
X144278095Y-117751619D02*
X143478095Y-117218285D01*
X144278095Y-117218285D02*
X143478095Y-117751619D01*
X142880000Y-118932571D02*
X142918095Y-119008761D01*
X142918095Y-119123047D01*
X142880000Y-119237333D01*
X142803809Y-119313523D01*
X142727619Y-119351619D01*
X142575238Y-119389714D01*
X142460952Y-119389714D01*
X142308571Y-119351619D01*
X142232380Y-119313523D01*
X142156190Y-119237333D01*
X142118095Y-119123047D01*
X142118095Y-119046857D01*
X142156190Y-118932571D01*
X142194285Y-118894476D01*
X142460952Y-118894476D01*
X142460952Y-119046857D01*
X142118095Y-118551619D02*
X142918095Y-118551619D01*
X142118095Y-118094476D01*
X142918095Y-118094476D01*
X142118095Y-117713523D02*
X142918095Y-117713523D01*
X142918095Y-117523047D01*
X142880000Y-117408761D01*
X142803809Y-117332571D01*
X142727619Y-117294476D01*
X142575238Y-117256380D01*
X142460952Y-117256380D01*
X142308571Y-117294476D01*
X142232380Y-117332571D01*
X142156190Y-117408761D01*
X142118095Y-117523047D01*
X142118095Y-117713523D01*
X148800000Y-113500000D02*
X148800000Y-116500000D01*
X141800000Y-113500000D02*
X148800000Y-113500000D01*
X141800000Y-116500000D02*
X141800000Y-113500000D01*
X141800000Y-116500000D02*
X144300000Y-116500000D01*
X147658095Y-115457142D02*
X147658095Y-115914285D01*
X147658095Y-115685714D02*
X148458095Y-115685714D01*
X148343809Y-115761904D01*
X148267619Y-115838095D01*
X148229523Y-115914285D01*
X148381904Y-114542857D02*
X148420000Y-114504761D01*
X148458095Y-114428571D01*
X148458095Y-114238095D01*
X148420000Y-114161904D01*
X148381904Y-114123809D01*
X148305714Y-114085714D01*
X148229523Y-114085714D01*
X148115238Y-114123809D01*
X147658095Y-114580952D01*
X147658095Y-114085714D01*
X147098095Y-115952380D02*
X147098095Y-115457142D01*
X146793333Y-115723809D01*
X146793333Y-115609523D01*
X146755238Y-115533333D01*
X146717142Y-115495238D01*
X146640952Y-115457142D01*
X146450476Y-115457142D01*
X146374285Y-115495238D01*
X146336190Y-115533333D01*
X146298095Y-115609523D01*
X146298095Y-115838095D01*
X146336190Y-115914285D01*
X146374285Y-115952380D01*
X146831428Y-114161904D02*
X146298095Y-114161904D01*
X147136190Y-114352380D02*
X146564761Y-114542857D01*
X146564761Y-114047619D01*
X145738095Y-115495238D02*
X145738095Y-115876190D01*
X145357142Y-115914285D01*
X145395238Y-115876190D01*
X145433333Y-115800000D01*
X145433333Y-115609523D01*
X145395238Y-115533333D01*
X145357142Y-115495238D01*
X145280952Y-115457142D01*
X145090476Y-115457142D01*
X145014285Y-115495238D01*
X144976190Y-115533333D01*
X144938095Y-115609523D01*
X144938095Y-115800000D01*
X144976190Y-115876190D01*
X145014285Y-115914285D01*
X145738095Y-114161904D02*
X145738095Y-114314285D01*
X145700000Y-114390476D01*
X145661904Y-114428571D01*
X145547619Y-114504761D01*
X145395238Y-114542857D01*
X145090476Y-114542857D01*
X145014285Y-114504761D01*
X144976190Y-114466666D01*
X144938095Y-114390476D01*
X144938095Y-114238095D01*
X144976190Y-114161904D01*
X145014285Y-114123809D01*
X145090476Y-114085714D01*
X145280952Y-114085714D01*
X145357142Y-114123809D01*
X145395238Y-114161904D01*
X145433333Y-114238095D01*
X145433333Y-114390476D01*
X145395238Y-114466666D01*
X145357142Y-114504761D01*
X145280952Y-114542857D01*
X144378095Y-115952380D02*
X144378095Y-115419047D01*
X143578095Y-115761904D01*
X144035238Y-114390476D02*
X144073333Y-114466666D01*
X144111428Y-114504761D01*
X144187619Y-114542857D01*
X144225714Y-114542857D01*
X144301904Y-114504761D01*
X144340000Y-114466666D01*
X144378095Y-114390476D01*
X144378095Y-114238095D01*
X144340000Y-114161904D01*
X144301904Y-114123809D01*
X144225714Y-114085714D01*
X144187619Y-114085714D01*
X144111428Y-114123809D01*
X144073333Y-114161904D01*
X144035238Y-114238095D01*
X144035238Y-114390476D01*
X143997142Y-114466666D01*
X143959047Y-114504761D01*
X143882857Y-114542857D01*
X143730476Y-114542857D01*
X143654285Y-114504761D01*
X143616190Y-114466666D01*
X143578095Y-114390476D01*
X143578095Y-114238095D01*
X143616190Y-114161904D01*
X143654285Y-114123809D01*
X143730476Y-114085714D01*
X143882857Y-114085714D01*
X143959047Y-114123809D01*
X143997142Y-114161904D01*
X144035238Y-114238095D01*
X142218095Y-116219047D02*
X142218095Y-116066666D01*
X142256190Y-115990476D01*
X142294285Y-115952380D01*
X142408571Y-115876190D01*
X142560952Y-115838095D01*
X142865714Y-115838095D01*
X142941904Y-115876190D01*
X142980000Y-115914285D01*
X143018095Y-115990476D01*
X143018095Y-116142857D01*
X142980000Y-116219047D01*
X142941904Y-116257142D01*
X142865714Y-116295238D01*
X142675238Y-116295238D01*
X142599047Y-116257142D01*
X142560952Y-116219047D01*
X142522857Y-116142857D01*
X142522857Y-115990476D01*
X142560952Y-115914285D01*
X142599047Y-115876190D01*
X142675238Y-115838095D01*
X142218095Y-114466666D02*
X142218095Y-114923809D01*
X142218095Y-114695238D02*
X143018095Y-114695238D01*
X142903809Y-114771428D01*
X142827619Y-114847619D01*
X142789523Y-114923809D01*
X143018095Y-113971428D02*
X143018095Y-113895238D01*
X142980000Y-113819047D01*
X142941904Y-113780952D01*
X142865714Y-113742857D01*
X142713333Y-113704761D01*
X142522857Y-113704761D01*
X142370476Y-113742857D01*
X142294285Y-113780952D01*
X142256190Y-113819047D01*
X142218095Y-113895238D01*
X142218095Y-113971428D01*
X142256190Y-114047619D01*
X142294285Y-114085714D01*
X142370476Y-114123809D01*
X142522857Y-114161904D01*
X142713333Y-114161904D01*
X142865714Y-114123809D01*
X142941904Y-114085714D01*
X142980000Y-114047619D01*
X143018095Y-113971428D01*
X146300000Y-116500000D02*
X148800000Y-116500000D01*
D11*
X103000000Y-128000000D02*
G75*
G02X100000000Y-125000000I0J3000000D01*
G01*
X100000000Y-103000000D02*
G75*
G02X103000000Y-100000000I3000000J0D01*
G01*
X157000000Y-100000000D02*
G75*
G02X160000000Y-103000000I0J-3000000D01*
G01*
X160000000Y-125000000D02*
G75*
G02X157000000Y-128000000I-3000000J0D01*
G01*
X157000000Y-100000000D02*
X103000000Y-100000000D01*
X160000000Y-125000000D02*
X160000000Y-103000000D01*
X103000000Y-128000000D02*
X157000000Y-128000000D01*
X100000000Y-103000000D02*
X100000000Y-125000000D01*
%LPC*%
D12*
X139800000Y-121780000D03*
X139800000Y-119240000D03*
D13*
X139800000Y-116700000D03*
D14*
X124200000Y-126440000D03*
D15*
X124200000Y-123900000D03*
D16*
X102900000Y-102900000D03*
D17*
X104775000Y-102900000D03*
X104225825Y-104225825D03*
X102900000Y-104775000D03*
X101574175Y-104225825D03*
X101025000Y-102900000D03*
X101574175Y-101574175D03*
X102900000Y-101025000D03*
X104225825Y-101574175D03*
X104225825Y-123774175D03*
X102900000Y-123225000D03*
X101574175Y-123774175D03*
X101025000Y-125100000D03*
X101574175Y-126425825D03*
X102900000Y-126975000D03*
X104225825Y-126425825D03*
X104775000Y-125100000D03*
D16*
X102900000Y-125100000D03*
D18*
X105280000Y-118320000D03*
X105280000Y-109680000D03*
D19*
X104750000Y-111110000D03*
D20*
X101100000Y-109680000D03*
D19*
X104750000Y-116890000D03*
D20*
X101100000Y-118320000D03*
D16*
X152600000Y-125100000D03*
D17*
X154475000Y-125100000D03*
X153925825Y-126425825D03*
X152600000Y-126975000D03*
X151274175Y-126425825D03*
X150725000Y-125100000D03*
X151274175Y-123774175D03*
X152600000Y-123225000D03*
X153925825Y-123774175D03*
D21*
X154140000Y-119080000D03*
X151600000Y-119080000D03*
X154140000Y-116540000D03*
X151600000Y-116540000D03*
X154140000Y-114000000D03*
X151600000Y-114000000D03*
X154140000Y-111460000D03*
X151600000Y-111460000D03*
X154140000Y-108920000D03*
D22*
X151600000Y-108920000D03*
D17*
X153925825Y-101574175D03*
X152600000Y-101025000D03*
X151274175Y-101574175D03*
X150725000Y-102900000D03*
X151274175Y-104225825D03*
X152600000Y-104775000D03*
X153925825Y-104225825D03*
X154475000Y-102900000D03*
D16*
X152600000Y-102900000D03*
D23*
X112500000Y-107600000D03*
D24*
X115040000Y-107600000D03*
X117580000Y-107600000D03*
X120120000Y-107600000D03*
D14*
X120400000Y-126480000D03*
X120400000Y-123940000D03*
D15*
X120400000Y-121400000D03*
M02*
