G04 #@! TF.GenerationSoftware,KiCad,Pcbnew,5.1.4+dfsg1-1*
G04 #@! TF.CreationDate,2020-04-28T14:34:13+04:00*
G04 #@! TF.ProjectId,RailLink,5261696c-4c69-46e6-9b2e-6b696361645f,rev?*
G04 #@! TF.SameCoordinates,Original*
G04 #@! TF.FileFunction,Copper,L3,Inr*
G04 #@! TF.FilePolarity,Positive*
%FSLAX46Y46*%
G04 Gerber Fmt 4.6, Leading zero omitted, Abs format (unit mm)*
G04 Created by KiCad (PCBNEW 5.1.4+dfsg1-1) date 2020-04-28 14:34:13*
%MOMM*%
%LPD*%
G04 APERTURE LIST*
%ADD10C,0.050000*%
%ADD11C,1.800000*%
%ADD12R,1.800000X1.800000*%
%ADD13O,1.700000X1.700000*%
%ADD14R,1.700000X1.700000*%
%ADD15C,5.000000*%
%ADD16C,0.800000*%
%ADD17O,2.100000X1.000000*%
%ADD18O,1.600000X1.000000*%
%ADD19O,1.727200X1.727200*%
%ADD20R,1.727200X1.727200*%
%ADD21R,1.400000X1.800000*%
%ADD22O,1.400000X1.800000*%
%ADD23C,0.700000*%
%ADD24C,0.600000*%
%ADD25C,1.000000*%
%ADD26C,0.400000*%
%ADD27C,0.300000*%
%ADD28C,0.200000*%
G04 APERTURE END LIST*
D10*
X103000000Y-128000000D02*
G75*
G02X100000000Y-125000000I0J3000000D01*
G01*
X100000000Y-103000000D02*
G75*
G02X103000000Y-100000000I3000000J0D01*
G01*
X157000000Y-100000000D02*
G75*
G02X160000000Y-103000000I0J-3000000D01*
G01*
X160000000Y-125000000D02*
G75*
G02X157000000Y-128000000I-3000000J0D01*
G01*
X157000000Y-100000000D02*
X103000000Y-100000000D01*
X160000000Y-125000000D02*
X160000000Y-103000000D01*
X103000000Y-128000000D02*
X157000000Y-128000000D01*
X100000000Y-103000000D02*
X100000000Y-125000000D01*
D11*
X139800000Y-121780000D03*
X139800000Y-119240000D03*
D12*
X139800000Y-116700000D03*
D13*
X124200000Y-126440000D03*
D14*
X124200000Y-123900000D03*
D15*
X102900000Y-102900000D03*
D16*
X104775000Y-102900000D03*
X104225825Y-104225825D03*
X102900000Y-104775000D03*
X101574175Y-104225825D03*
X101025000Y-102900000D03*
X101574175Y-101574175D03*
X102900000Y-101025000D03*
X104225825Y-101574175D03*
X104225825Y-123774175D03*
X102900000Y-123225000D03*
X101574175Y-123774175D03*
X101025000Y-125100000D03*
X101574175Y-126425825D03*
X102900000Y-126975000D03*
X104225825Y-126425825D03*
X104775000Y-125100000D03*
D15*
X102900000Y-125100000D03*
D17*
X105280000Y-118320000D03*
X105280000Y-109680000D03*
D18*
X101100000Y-109680000D03*
X101100000Y-118320000D03*
D15*
X152600000Y-125100000D03*
D16*
X154475000Y-125100000D03*
X153925825Y-126425825D03*
X152600000Y-126975000D03*
X151274175Y-126425825D03*
X150725000Y-125100000D03*
X151274175Y-123774175D03*
X152600000Y-123225000D03*
X153925825Y-123774175D03*
D19*
X154140000Y-119080000D03*
X151600000Y-119080000D03*
X154140000Y-116540000D03*
X151600000Y-116540000D03*
X154140000Y-114000000D03*
X151600000Y-114000000D03*
X154140000Y-111460000D03*
X151600000Y-111460000D03*
X154140000Y-108920000D03*
D20*
X151600000Y-108920000D03*
D16*
X153925825Y-101574175D03*
X152600000Y-101025000D03*
X151274175Y-101574175D03*
X150725000Y-102900000D03*
X151274175Y-104225825D03*
X152600000Y-104775000D03*
X153925825Y-104225825D03*
X154475000Y-102900000D03*
D15*
X152600000Y-102900000D03*
D21*
X112500000Y-107600000D03*
D22*
X115040000Y-107600000D03*
X117580000Y-107600000D03*
X120120000Y-107600000D03*
D13*
X120400000Y-126480000D03*
X120400000Y-123940000D03*
D14*
X120400000Y-121400000D03*
D23*
X106700000Y-106500000D03*
X109700000Y-106500000D03*
X108200000Y-106500000D03*
X106700000Y-101400000D03*
X109700000Y-101400000D03*
X108200000Y-101400000D03*
X101400000Y-108200000D03*
X101400000Y-106400000D03*
X107800000Y-110800000D03*
D24*
X109900000Y-122400000D03*
X111700000Y-120000000D03*
D23*
X108800000Y-112400000D03*
D24*
X108900000Y-114300000D03*
X108900000Y-115300000D03*
D23*
X109800000Y-112100000D03*
D24*
X109600000Y-118900000D03*
D23*
X108800000Y-109800000D03*
X101000000Y-119800000D03*
X101000000Y-121600000D03*
X102600000Y-121600000D03*
X107800000Y-118900000D03*
X107800000Y-117300000D03*
X106000000Y-119800000D03*
X113900000Y-101400000D03*
X107800000Y-111800000D03*
X109800000Y-109400000D03*
D24*
X107700000Y-122200000D03*
D23*
X107700000Y-116300000D03*
X113900000Y-102700000D03*
D24*
X141700000Y-124400000D03*
X143200000Y-114500000D03*
X146400000Y-107700000D03*
X146000000Y-111900000D03*
X134500000Y-113000000D03*
X133000000Y-122300000D03*
X134300000Y-106800000D03*
X130800000Y-105700000D03*
X140800000Y-115000000D03*
X132400000Y-102700000D03*
X143600000Y-110800000D03*
D23*
X126000000Y-101900000D03*
X126600000Y-102500000D03*
X127700000Y-102500000D03*
D24*
X144200000Y-106900000D03*
X138200000Y-114800000D03*
X124900000Y-121500000D03*
D23*
X122800000Y-112000000D03*
X126200000Y-106600000D03*
D24*
X124200000Y-106500000D03*
X124500000Y-104600000D03*
X122200000Y-104600000D03*
X123500000Y-108800000D03*
X122100000Y-107800000D03*
X142900000Y-118800000D03*
D23*
X117200000Y-101400000D03*
X118500000Y-102700000D03*
X117200000Y-102700000D03*
X122000000Y-121400000D03*
X120900000Y-119900000D03*
D24*
X133100000Y-118900000D03*
D23*
X132300000Y-113400000D03*
X132800000Y-112000000D03*
D24*
X129900000Y-107600000D03*
X125900000Y-126700000D03*
X141100000Y-103400000D03*
X146800000Y-101900000D03*
X146600000Y-105100000D03*
X143200000Y-126500000D03*
X146300000Y-114700000D03*
X142000000Y-122600000D03*
X141800000Y-120200000D03*
X140300000Y-109600000D03*
X146900000Y-122700000D03*
X137800000Y-121700000D03*
X138300000Y-118700000D03*
X146100000Y-119100000D03*
X147300000Y-118200000D03*
X149500000Y-119000000D03*
X142600000Y-103700000D03*
X143900000Y-118000000D03*
X154000000Y-106300000D03*
X142800000Y-101300000D03*
X135400000Y-127100000D03*
D25*
X122000000Y-108900000D03*
D23*
X119800000Y-102700000D03*
X120900000Y-101400000D03*
X120900000Y-102700000D03*
D24*
X127600000Y-123100000D03*
X135900000Y-103300000D03*
X129900000Y-104900020D03*
X132500000Y-105300000D03*
X143800000Y-112600000D03*
X144300000Y-109000000D03*
X132600000Y-107600000D03*
X135100000Y-112400000D03*
X144200000Y-105600000D03*
D23*
X128400000Y-105200000D03*
X128400000Y-106200000D03*
D24*
X124200000Y-119700000D03*
X127900000Y-107600000D03*
X135600000Y-122600000D03*
X136500000Y-119900000D03*
X144300000Y-116100000D03*
X144300000Y-120700000D03*
X143900000Y-123500000D03*
X137200000Y-105200000D03*
X148100000Y-103300000D03*
X149000000Y-103300000D03*
X144300000Y-107700000D03*
X144200000Y-104000000D03*
X128700000Y-123900000D03*
X137200000Y-102600000D03*
X144300000Y-111100000D03*
X144300000Y-115000000D03*
X144300000Y-119500000D03*
X145000000Y-123000000D03*
X139800000Y-108800000D03*
X104400000Y-120500000D03*
X104882843Y-114382843D03*
X104800000Y-113000000D03*
X103600000Y-120500000D03*
X104317157Y-113817157D03*
X126900000Y-126400000D03*
X139100000Y-127300000D03*
X148700000Y-127300000D03*
X151000000Y-121000000D03*
X150100000Y-106900000D03*
X150100000Y-110200000D03*
X150100000Y-114700000D03*
X147900000Y-126900000D03*
X149100000Y-113100000D03*
X149100000Y-109300000D03*
X150100000Y-116300000D03*
X150100000Y-115500000D03*
X150100000Y-111600000D03*
X136000000Y-125000000D03*
X146900000Y-121600000D03*
X111200000Y-122700000D03*
X110000000Y-117440000D03*
X111200000Y-121700000D03*
X110000000Y-116640000D03*
X131300000Y-123900000D03*
X135900000Y-104200000D03*
X131800000Y-119200000D03*
X130300000Y-123400000D03*
X127100000Y-124800000D03*
X132100000Y-123900000D03*
X132100000Y-122200000D03*
X126600000Y-116100000D03*
X139800000Y-105000000D03*
X126600000Y-114300000D03*
X138000000Y-106300000D03*
X127900000Y-110500000D03*
X137900000Y-108900000D03*
X131800000Y-111000000D03*
X137900000Y-108100000D03*
X125100000Y-110100000D03*
X137000000Y-106400000D03*
X137900000Y-124200000D03*
X133800000Y-115100000D03*
X128900000Y-110500000D03*
X135200000Y-119600000D03*
X138000000Y-125800000D03*
X144700000Y-121600000D03*
X133000000Y-123900000D03*
X129900000Y-112600000D03*
X131200000Y-112600000D03*
X144800000Y-109800000D03*
X147300000Y-109300000D03*
X144900000Y-106300000D03*
X146400000Y-112600000D03*
X147300000Y-117100000D03*
X144400000Y-125600000D03*
X126600000Y-115100000D03*
D23*
X136100000Y-105200000D03*
D24*
X123700000Y-114700000D03*
X141800000Y-109500000D03*
X136400000Y-107700000D03*
X137700000Y-109700000D03*
X129800000Y-106000000D03*
X138900000Y-104000000D03*
X129700000Y-119100000D03*
X129700000Y-122600000D03*
X143900000Y-109800000D03*
X131200000Y-110500000D03*
X144400000Y-113800000D03*
X134100000Y-111800000D03*
X136900000Y-110500000D03*
X144100000Y-126400000D03*
X135200000Y-114100000D03*
X137900000Y-117900000D03*
X141400000Y-123600000D03*
X152700000Y-107000000D03*
X126900000Y-122300000D03*
X151800000Y-121600000D03*
D26*
X122000000Y-119800000D02*
X122000000Y-108900000D01*
D27*
X129050000Y-125900000D02*
X134200000Y-125900000D01*
X127600000Y-123100000D02*
X127600000Y-124450000D01*
X127600000Y-124450000D02*
X129050000Y-125900000D01*
X134200000Y-125900000D02*
X135400000Y-127100000D01*
D26*
X122000000Y-119800000D02*
X122900000Y-120700000D01*
X122900000Y-120700000D02*
X122900000Y-124900000D01*
X122900000Y-124900000D02*
X123200000Y-125200000D01*
X123200000Y-125200000D02*
X125400000Y-125200000D01*
X126100000Y-124500000D02*
X126100000Y-123600000D01*
X126600000Y-123100000D02*
X127600000Y-123100000D01*
X126100000Y-123600000D02*
X126600000Y-123100000D01*
X134900000Y-103000000D02*
X134900000Y-101400000D01*
X135200000Y-103300000D02*
X134900000Y-103000000D01*
X135900000Y-103300000D02*
X135200000Y-103300000D01*
X125400000Y-125200000D02*
X126100000Y-124500000D01*
D27*
X129400000Y-124600000D02*
X134500000Y-124600000D01*
X134500000Y-124600000D02*
X136400000Y-126500000D01*
X128700000Y-123900000D02*
X129400000Y-124600000D01*
X136400000Y-126500000D02*
X138400000Y-126500000D01*
X138400000Y-126500000D02*
X139700000Y-125200000D01*
X139700000Y-125200000D02*
X143300000Y-125200000D01*
X145000000Y-123500000D02*
X145000000Y-123000000D01*
X143300000Y-125200000D02*
X145000000Y-123500000D01*
D26*
X144300000Y-119500000D02*
X145400000Y-119500000D01*
D27*
X144300000Y-115000000D02*
X145300000Y-115000000D01*
X144300000Y-111100000D02*
X145400000Y-111100000D01*
X144300000Y-107700000D02*
X145200000Y-107700000D01*
D28*
X150400000Y-121600000D02*
X151800000Y-121600000D01*
X149400000Y-122600000D02*
X150400000Y-121600000D01*
X149400000Y-124700000D02*
X149400000Y-122600000D01*
X149100000Y-125000000D02*
X149400000Y-124700000D01*
X144200000Y-125000000D02*
X149100000Y-125000000D01*
X143400000Y-125800000D02*
X144200000Y-125000000D01*
X128100000Y-123700000D02*
X128100000Y-124200000D01*
X128200000Y-123600000D02*
X128100000Y-123700000D01*
X128200000Y-122700000D02*
X128200000Y-123600000D01*
X126900000Y-122300000D02*
X127800000Y-122300000D01*
X127800000Y-122300000D02*
X128200000Y-122700000D01*
X129200000Y-125300000D02*
X134400000Y-125300000D01*
X128100000Y-124200000D02*
X129200000Y-125300000D01*
X134400000Y-125300000D02*
X136100000Y-127000000D01*
X138600000Y-127000000D02*
X139800000Y-125800000D01*
X136100000Y-127000000D02*
X138600000Y-127000000D01*
X139800000Y-125800000D02*
X143400000Y-125800000D01*
G36*
X143000000Y-101800000D02*
G01*
X127969895Y-101800000D01*
X127918767Y-101778822D01*
X127773869Y-101750000D01*
X127626131Y-101750000D01*
X127481233Y-101778822D01*
X127430105Y-101800000D01*
X126869895Y-101800000D01*
X126818767Y-101778822D01*
X126737369Y-101762631D01*
X126721178Y-101681233D01*
X126664641Y-101544742D01*
X126582563Y-101421903D01*
X126478097Y-101317437D01*
X126355258Y-101235359D01*
X126218767Y-101178822D01*
X126073869Y-101150000D01*
X125926131Y-101150000D01*
X125781233Y-101178822D01*
X125644742Y-101235359D01*
X125521903Y-101317437D01*
X125417437Y-101421903D01*
X125335359Y-101544742D01*
X125278822Y-101681233D01*
X125255198Y-101800000D01*
X122500000Y-101800000D01*
X122480491Y-101801921D01*
X122461732Y-101807612D01*
X122444443Y-101816853D01*
X122429289Y-101829289D01*
X122416853Y-101844443D01*
X122407612Y-101861732D01*
X122401921Y-101880491D01*
X122400000Y-101900000D01*
X122400000Y-103926069D01*
X122268944Y-103900000D01*
X122131056Y-103900000D01*
X121995818Y-103926901D01*
X121868426Y-103979668D01*
X121753776Y-104056274D01*
X121656274Y-104153776D01*
X121579668Y-104268426D01*
X121526901Y-104395818D01*
X121500000Y-104531056D01*
X121500000Y-104668944D01*
X121526901Y-104804182D01*
X121579668Y-104931574D01*
X121656274Y-105046224D01*
X121753776Y-105143726D01*
X121868426Y-105220332D01*
X121995818Y-105273099D01*
X122131056Y-105300000D01*
X122268944Y-105300000D01*
X122400000Y-105273931D01*
X122400000Y-107166590D01*
X122304182Y-107126901D01*
X122168944Y-107100000D01*
X122031056Y-107100000D01*
X121895818Y-107126901D01*
X121768426Y-107179668D01*
X121653776Y-107256274D01*
X121556274Y-107353776D01*
X121479668Y-107468426D01*
X121426901Y-107595818D01*
X121400000Y-107731056D01*
X121400000Y-107868944D01*
X121426901Y-108004182D01*
X121479668Y-108131574D01*
X121556274Y-108246224D01*
X121653776Y-108343726D01*
X121768426Y-108420332D01*
X121895818Y-108473099D01*
X122031056Y-108500000D01*
X122168944Y-108500000D01*
X122304182Y-108473099D01*
X122400000Y-108433410D01*
X122400000Y-109300000D01*
X121100000Y-109300000D01*
X121100000Y-103300000D01*
X121098079Y-103280491D01*
X121092388Y-103261732D01*
X121083147Y-103244443D01*
X121070711Y-103229289D01*
X121055557Y-103216853D01*
X121038268Y-103207612D01*
X121019509Y-103201921D01*
X121000000Y-103200000D01*
X119500000Y-103200000D01*
X119500000Y-101100000D01*
X143000000Y-101100000D01*
X143000000Y-101800000D01*
X143000000Y-101800000D01*
G37*
X143000000Y-101800000D02*
X127969895Y-101800000D01*
X127918767Y-101778822D01*
X127773869Y-101750000D01*
X127626131Y-101750000D01*
X127481233Y-101778822D01*
X127430105Y-101800000D01*
X126869895Y-101800000D01*
X126818767Y-101778822D01*
X126737369Y-101762631D01*
X126721178Y-101681233D01*
X126664641Y-101544742D01*
X126582563Y-101421903D01*
X126478097Y-101317437D01*
X126355258Y-101235359D01*
X126218767Y-101178822D01*
X126073869Y-101150000D01*
X125926131Y-101150000D01*
X125781233Y-101178822D01*
X125644742Y-101235359D01*
X125521903Y-101317437D01*
X125417437Y-101421903D01*
X125335359Y-101544742D01*
X125278822Y-101681233D01*
X125255198Y-101800000D01*
X122500000Y-101800000D01*
X122480491Y-101801921D01*
X122461732Y-101807612D01*
X122444443Y-101816853D01*
X122429289Y-101829289D01*
X122416853Y-101844443D01*
X122407612Y-101861732D01*
X122401921Y-101880491D01*
X122400000Y-101900000D01*
X122400000Y-103926069D01*
X122268944Y-103900000D01*
X122131056Y-103900000D01*
X121995818Y-103926901D01*
X121868426Y-103979668D01*
X121753776Y-104056274D01*
X121656274Y-104153776D01*
X121579668Y-104268426D01*
X121526901Y-104395818D01*
X121500000Y-104531056D01*
X121500000Y-104668944D01*
X121526901Y-104804182D01*
X121579668Y-104931574D01*
X121656274Y-105046224D01*
X121753776Y-105143726D01*
X121868426Y-105220332D01*
X121995818Y-105273099D01*
X122131056Y-105300000D01*
X122268944Y-105300000D01*
X122400000Y-105273931D01*
X122400000Y-107166590D01*
X122304182Y-107126901D01*
X122168944Y-107100000D01*
X122031056Y-107100000D01*
X121895818Y-107126901D01*
X121768426Y-107179668D01*
X121653776Y-107256274D01*
X121556274Y-107353776D01*
X121479668Y-107468426D01*
X121426901Y-107595818D01*
X121400000Y-107731056D01*
X121400000Y-107868944D01*
X121426901Y-108004182D01*
X121479668Y-108131574D01*
X121556274Y-108246224D01*
X121653776Y-108343726D01*
X121768426Y-108420332D01*
X121895818Y-108473099D01*
X122031056Y-108500000D01*
X122168944Y-108500000D01*
X122304182Y-108473099D01*
X122400000Y-108433410D01*
X122400000Y-109300000D01*
X121100000Y-109300000D01*
X121100000Y-103300000D01*
X121098079Y-103280491D01*
X121092388Y-103261732D01*
X121083147Y-103244443D01*
X121070711Y-103229289D01*
X121055557Y-103216853D01*
X121038268Y-103207612D01*
X121019509Y-103201921D01*
X121000000Y-103200000D01*
X119500000Y-103200000D01*
X119500000Y-101100000D01*
X143000000Y-101100000D01*
X143000000Y-101800000D01*
D27*
G36*
X107526901Y-101195818D02*
G01*
X107500000Y-101331056D01*
X107500000Y-101468944D01*
X107526901Y-101604182D01*
X107579668Y-101731574D01*
X107656274Y-101846224D01*
X107753776Y-101943726D01*
X107868426Y-102020332D01*
X107995818Y-102073099D01*
X108131056Y-102100000D01*
X108268944Y-102100000D01*
X108404182Y-102073099D01*
X108531574Y-102020332D01*
X108646224Y-101943726D01*
X108743726Y-101846224D01*
X108820332Y-101731574D01*
X108873099Y-101604182D01*
X108900000Y-101468944D01*
X108900000Y-101331056D01*
X108873099Y-101195818D01*
X108854121Y-101150000D01*
X109045879Y-101150000D01*
X109026901Y-101195818D01*
X109000000Y-101331056D01*
X109000000Y-101468944D01*
X109026901Y-101604182D01*
X109079668Y-101731574D01*
X109156274Y-101846224D01*
X109253776Y-101943726D01*
X109368426Y-102020332D01*
X109495818Y-102073099D01*
X109631056Y-102100000D01*
X109768944Y-102100000D01*
X109904182Y-102073099D01*
X110031574Y-102020332D01*
X110146224Y-101943726D01*
X110243726Y-101846224D01*
X110320332Y-101731574D01*
X110373099Y-101604182D01*
X110400000Y-101468944D01*
X110400000Y-101331056D01*
X110373099Y-101195818D01*
X110354121Y-101150000D01*
X114250000Y-101150000D01*
X114250000Y-102950000D01*
X110400000Y-102950000D01*
X110370736Y-102952882D01*
X110342597Y-102961418D01*
X110316664Y-102975280D01*
X110293934Y-102993934D01*
X110275280Y-103016664D01*
X110261418Y-103042597D01*
X110252882Y-103070736D01*
X110250000Y-103100000D01*
X110250000Y-106063166D01*
X110243726Y-106053776D01*
X110146224Y-105956274D01*
X110031574Y-105879668D01*
X109904182Y-105826901D01*
X109768944Y-105800000D01*
X109631056Y-105800000D01*
X109495818Y-105826901D01*
X109368426Y-105879668D01*
X109253776Y-105956274D01*
X109156274Y-106053776D01*
X109079668Y-106168426D01*
X109026901Y-106295818D01*
X109000000Y-106431056D01*
X109000000Y-106568944D01*
X109026901Y-106704182D01*
X109079668Y-106831574D01*
X109156274Y-106946224D01*
X109253776Y-107043726D01*
X109368426Y-107120332D01*
X109495818Y-107173099D01*
X109631056Y-107200000D01*
X109768944Y-107200000D01*
X109904182Y-107173099D01*
X110031574Y-107120332D01*
X110146224Y-107043726D01*
X110243726Y-106946224D01*
X110250000Y-106936834D01*
X110250000Y-111560050D01*
X110246224Y-111556274D01*
X110131574Y-111479668D01*
X110004182Y-111426901D01*
X109868944Y-111400000D01*
X109731056Y-111400000D01*
X109595818Y-111426901D01*
X109468426Y-111479668D01*
X109353776Y-111556274D01*
X109256274Y-111653776D01*
X109179668Y-111768426D01*
X109165596Y-111802400D01*
X109131574Y-111779668D01*
X109004182Y-111726901D01*
X108868944Y-111700000D01*
X108731056Y-111700000D01*
X108595818Y-111726901D01*
X108468426Y-111779668D01*
X108353776Y-111856274D01*
X108256274Y-111953776D01*
X108179668Y-112068426D01*
X108126901Y-112195818D01*
X108100000Y-112331056D01*
X108100000Y-112468944D01*
X108126901Y-112604182D01*
X108179668Y-112731574D01*
X108256274Y-112846224D01*
X108353776Y-112943726D01*
X108468426Y-113020332D01*
X108595818Y-113073099D01*
X108731056Y-113100000D01*
X108868944Y-113100000D01*
X109004182Y-113073099D01*
X109131574Y-113020332D01*
X109246224Y-112943726D01*
X109343726Y-112846224D01*
X109420332Y-112731574D01*
X109434404Y-112697600D01*
X109468426Y-112720332D01*
X109595818Y-112773099D01*
X109731056Y-112800000D01*
X109868944Y-112800000D01*
X110004182Y-112773099D01*
X110131574Y-112720332D01*
X110246224Y-112643726D01*
X110250000Y-112639950D01*
X110250000Y-115750000D01*
X109700000Y-115750000D01*
X109670736Y-115752882D01*
X109642597Y-115761418D01*
X109616664Y-115775280D01*
X109593934Y-115793934D01*
X109575280Y-115816664D01*
X109561418Y-115842597D01*
X109552882Y-115870736D01*
X109550000Y-115900000D01*
X109550000Y-116170761D01*
X109495112Y-116225649D01*
X109423978Y-116332110D01*
X109374979Y-116450402D01*
X109350000Y-116575981D01*
X109350000Y-116704019D01*
X109374979Y-116829598D01*
X109423978Y-116947890D01*
X109485523Y-117040000D01*
X109423978Y-117132110D01*
X109374979Y-117250402D01*
X109350000Y-117375981D01*
X109350000Y-117504019D01*
X109374979Y-117629598D01*
X109423978Y-117747890D01*
X109495112Y-117854351D01*
X109550000Y-117909239D01*
X109550000Y-118250000D01*
X109535981Y-118250000D01*
X109410402Y-118274979D01*
X109292110Y-118323978D01*
X109185649Y-118395112D01*
X109095112Y-118485649D01*
X109023978Y-118592110D01*
X108974979Y-118710402D01*
X108950000Y-118835981D01*
X108950000Y-118964019D01*
X108974979Y-119089598D01*
X109023978Y-119207890D01*
X109095112Y-119314351D01*
X109185649Y-119404888D01*
X109292110Y-119476022D01*
X109410402Y-119525021D01*
X109535981Y-119550000D01*
X109550000Y-119550000D01*
X109550000Y-120250000D01*
X108100000Y-120250000D01*
X108070736Y-120252882D01*
X108042597Y-120261418D01*
X108016664Y-120275280D01*
X107993934Y-120293934D01*
X107975280Y-120316664D01*
X107961418Y-120342597D01*
X107952882Y-120370736D01*
X107950000Y-120400000D01*
X107950000Y-122450000D01*
X107450000Y-122450000D01*
X107450000Y-119508020D01*
X107468426Y-119520332D01*
X107595818Y-119573099D01*
X107731056Y-119600000D01*
X107868944Y-119600000D01*
X108004182Y-119573099D01*
X108131574Y-119520332D01*
X108246224Y-119443726D01*
X108343726Y-119346224D01*
X108420332Y-119231574D01*
X108473099Y-119104182D01*
X108500000Y-118968944D01*
X108500000Y-118831056D01*
X108473099Y-118695818D01*
X108420332Y-118568426D01*
X108343726Y-118453776D01*
X108246224Y-118356274D01*
X108131574Y-118279668D01*
X108004182Y-118226901D01*
X107868944Y-118200000D01*
X107731056Y-118200000D01*
X107595818Y-118226901D01*
X107468426Y-118279668D01*
X107450000Y-118291980D01*
X107450000Y-117908020D01*
X107468426Y-117920332D01*
X107595818Y-117973099D01*
X107731056Y-118000000D01*
X107868944Y-118000000D01*
X108004182Y-117973099D01*
X108131574Y-117920332D01*
X108246224Y-117843726D01*
X108343726Y-117746224D01*
X108420332Y-117631574D01*
X108473099Y-117504182D01*
X108500000Y-117368944D01*
X108500000Y-117231056D01*
X108473099Y-117095818D01*
X108420332Y-116968426D01*
X108343726Y-116853776D01*
X108246224Y-116756274D01*
X108131574Y-116679668D01*
X108004182Y-116626901D01*
X107868944Y-116600000D01*
X107731056Y-116600000D01*
X107595818Y-116626901D01*
X107468426Y-116679668D01*
X107450000Y-116691980D01*
X107450000Y-114235981D01*
X108250000Y-114235981D01*
X108250000Y-114364019D01*
X108274979Y-114489598D01*
X108323978Y-114607890D01*
X108395112Y-114714351D01*
X108480761Y-114800000D01*
X108395112Y-114885649D01*
X108323978Y-114992110D01*
X108274979Y-115110402D01*
X108250000Y-115235981D01*
X108250000Y-115364019D01*
X108274979Y-115489598D01*
X108323978Y-115607890D01*
X108395112Y-115714351D01*
X108485649Y-115804888D01*
X108592110Y-115876022D01*
X108710402Y-115925021D01*
X108835981Y-115950000D01*
X108964019Y-115950000D01*
X109089598Y-115925021D01*
X109207890Y-115876022D01*
X109314351Y-115804888D01*
X109404888Y-115714351D01*
X109476022Y-115607890D01*
X109525021Y-115489598D01*
X109550000Y-115364019D01*
X109550000Y-115235981D01*
X109525021Y-115110402D01*
X109476022Y-114992110D01*
X109404888Y-114885649D01*
X109319239Y-114800000D01*
X109404888Y-114714351D01*
X109476022Y-114607890D01*
X109525021Y-114489598D01*
X109550000Y-114364019D01*
X109550000Y-114235981D01*
X109525021Y-114110402D01*
X109476022Y-113992110D01*
X109404888Y-113885649D01*
X109314351Y-113795112D01*
X109207890Y-113723978D01*
X109089598Y-113674979D01*
X108964019Y-113650000D01*
X108835981Y-113650000D01*
X108710402Y-113674979D01*
X108592110Y-113723978D01*
X108485649Y-113795112D01*
X108395112Y-113885649D01*
X108323978Y-113992110D01*
X108274979Y-114110402D01*
X108250000Y-114235981D01*
X107450000Y-114235981D01*
X107450000Y-111408020D01*
X107468426Y-111420332D01*
X107595818Y-111473099D01*
X107731056Y-111500000D01*
X107868944Y-111500000D01*
X108004182Y-111473099D01*
X108131574Y-111420332D01*
X108246224Y-111343726D01*
X108343726Y-111246224D01*
X108420332Y-111131574D01*
X108473099Y-111004182D01*
X108500000Y-110868944D01*
X108500000Y-110731056D01*
X108473099Y-110595818D01*
X108420332Y-110468426D01*
X108343726Y-110353776D01*
X108246224Y-110256274D01*
X108131574Y-110179668D01*
X108004182Y-110126901D01*
X107868944Y-110100000D01*
X107731056Y-110100000D01*
X107595818Y-110126901D01*
X107468426Y-110179668D01*
X107450000Y-110191980D01*
X107450000Y-109731056D01*
X108100000Y-109731056D01*
X108100000Y-109868944D01*
X108126901Y-110004182D01*
X108179668Y-110131574D01*
X108256274Y-110246224D01*
X108353776Y-110343726D01*
X108468426Y-110420332D01*
X108595818Y-110473099D01*
X108731056Y-110500000D01*
X108868944Y-110500000D01*
X109004182Y-110473099D01*
X109131574Y-110420332D01*
X109246224Y-110343726D01*
X109343726Y-110246224D01*
X109420332Y-110131574D01*
X109473099Y-110004182D01*
X109500000Y-109868944D01*
X109500000Y-109731056D01*
X109473099Y-109595818D01*
X109420332Y-109468426D01*
X109343726Y-109353776D01*
X109246224Y-109256274D01*
X109131574Y-109179668D01*
X109004182Y-109126901D01*
X108868944Y-109100000D01*
X108731056Y-109100000D01*
X108595818Y-109126901D01*
X108468426Y-109179668D01*
X108353776Y-109256274D01*
X108256274Y-109353776D01*
X108179668Y-109468426D01*
X108126901Y-109595818D01*
X108100000Y-109731056D01*
X107450000Y-109731056D01*
X107450000Y-106431056D01*
X107500000Y-106431056D01*
X107500000Y-106568944D01*
X107526901Y-106704182D01*
X107579668Y-106831574D01*
X107656274Y-106946224D01*
X107753776Y-107043726D01*
X107868426Y-107120332D01*
X107995818Y-107173099D01*
X108131056Y-107200000D01*
X108268944Y-107200000D01*
X108404182Y-107173099D01*
X108531574Y-107120332D01*
X108646224Y-107043726D01*
X108743726Y-106946224D01*
X108820332Y-106831574D01*
X108873099Y-106704182D01*
X108900000Y-106568944D01*
X108900000Y-106431056D01*
X108873099Y-106295818D01*
X108820332Y-106168426D01*
X108743726Y-106053776D01*
X108646224Y-105956274D01*
X108531574Y-105879668D01*
X108404182Y-105826901D01*
X108268944Y-105800000D01*
X108131056Y-105800000D01*
X107995818Y-105826901D01*
X107868426Y-105879668D01*
X107753776Y-105956274D01*
X107656274Y-106053776D01*
X107579668Y-106168426D01*
X107526901Y-106295818D01*
X107500000Y-106431056D01*
X107450000Y-106431056D01*
X107450000Y-101150000D01*
X107545879Y-101150000D01*
X107526901Y-101195818D01*
X107526901Y-101195818D01*
G37*
X107526901Y-101195818D02*
X107500000Y-101331056D01*
X107500000Y-101468944D01*
X107526901Y-101604182D01*
X107579668Y-101731574D01*
X107656274Y-101846224D01*
X107753776Y-101943726D01*
X107868426Y-102020332D01*
X107995818Y-102073099D01*
X108131056Y-102100000D01*
X108268944Y-102100000D01*
X108404182Y-102073099D01*
X108531574Y-102020332D01*
X108646224Y-101943726D01*
X108743726Y-101846224D01*
X108820332Y-101731574D01*
X108873099Y-101604182D01*
X108900000Y-101468944D01*
X108900000Y-101331056D01*
X108873099Y-101195818D01*
X108854121Y-101150000D01*
X109045879Y-101150000D01*
X109026901Y-101195818D01*
X109000000Y-101331056D01*
X109000000Y-101468944D01*
X109026901Y-101604182D01*
X109079668Y-101731574D01*
X109156274Y-101846224D01*
X109253776Y-101943726D01*
X109368426Y-102020332D01*
X109495818Y-102073099D01*
X109631056Y-102100000D01*
X109768944Y-102100000D01*
X109904182Y-102073099D01*
X110031574Y-102020332D01*
X110146224Y-101943726D01*
X110243726Y-101846224D01*
X110320332Y-101731574D01*
X110373099Y-101604182D01*
X110400000Y-101468944D01*
X110400000Y-101331056D01*
X110373099Y-101195818D01*
X110354121Y-101150000D01*
X114250000Y-101150000D01*
X114250000Y-102950000D01*
X110400000Y-102950000D01*
X110370736Y-102952882D01*
X110342597Y-102961418D01*
X110316664Y-102975280D01*
X110293934Y-102993934D01*
X110275280Y-103016664D01*
X110261418Y-103042597D01*
X110252882Y-103070736D01*
X110250000Y-103100000D01*
X110250000Y-106063166D01*
X110243726Y-106053776D01*
X110146224Y-105956274D01*
X110031574Y-105879668D01*
X109904182Y-105826901D01*
X109768944Y-105800000D01*
X109631056Y-105800000D01*
X109495818Y-105826901D01*
X109368426Y-105879668D01*
X109253776Y-105956274D01*
X109156274Y-106053776D01*
X109079668Y-106168426D01*
X109026901Y-106295818D01*
X109000000Y-106431056D01*
X109000000Y-106568944D01*
X109026901Y-106704182D01*
X109079668Y-106831574D01*
X109156274Y-106946224D01*
X109253776Y-107043726D01*
X109368426Y-107120332D01*
X109495818Y-107173099D01*
X109631056Y-107200000D01*
X109768944Y-107200000D01*
X109904182Y-107173099D01*
X110031574Y-107120332D01*
X110146224Y-107043726D01*
X110243726Y-106946224D01*
X110250000Y-106936834D01*
X110250000Y-111560050D01*
X110246224Y-111556274D01*
X110131574Y-111479668D01*
X110004182Y-111426901D01*
X109868944Y-111400000D01*
X109731056Y-111400000D01*
X109595818Y-111426901D01*
X109468426Y-111479668D01*
X109353776Y-111556274D01*
X109256274Y-111653776D01*
X109179668Y-111768426D01*
X109165596Y-111802400D01*
X109131574Y-111779668D01*
X109004182Y-111726901D01*
X108868944Y-111700000D01*
X108731056Y-111700000D01*
X108595818Y-111726901D01*
X108468426Y-111779668D01*
X108353776Y-111856274D01*
X108256274Y-111953776D01*
X108179668Y-112068426D01*
X108126901Y-112195818D01*
X108100000Y-112331056D01*
X108100000Y-112468944D01*
X108126901Y-112604182D01*
X108179668Y-112731574D01*
X108256274Y-112846224D01*
X108353776Y-112943726D01*
X108468426Y-113020332D01*
X108595818Y-113073099D01*
X108731056Y-113100000D01*
X108868944Y-113100000D01*
X109004182Y-113073099D01*
X109131574Y-113020332D01*
X109246224Y-112943726D01*
X109343726Y-112846224D01*
X109420332Y-112731574D01*
X109434404Y-112697600D01*
X109468426Y-112720332D01*
X109595818Y-112773099D01*
X109731056Y-112800000D01*
X109868944Y-112800000D01*
X110004182Y-112773099D01*
X110131574Y-112720332D01*
X110246224Y-112643726D01*
X110250000Y-112639950D01*
X110250000Y-115750000D01*
X109700000Y-115750000D01*
X109670736Y-115752882D01*
X109642597Y-115761418D01*
X109616664Y-115775280D01*
X109593934Y-115793934D01*
X109575280Y-115816664D01*
X109561418Y-115842597D01*
X109552882Y-115870736D01*
X109550000Y-115900000D01*
X109550000Y-116170761D01*
X109495112Y-116225649D01*
X109423978Y-116332110D01*
X109374979Y-116450402D01*
X109350000Y-116575981D01*
X109350000Y-116704019D01*
X109374979Y-116829598D01*
X109423978Y-116947890D01*
X109485523Y-117040000D01*
X109423978Y-117132110D01*
X109374979Y-117250402D01*
X109350000Y-117375981D01*
X109350000Y-117504019D01*
X109374979Y-117629598D01*
X109423978Y-117747890D01*
X109495112Y-117854351D01*
X109550000Y-117909239D01*
X109550000Y-118250000D01*
X109535981Y-118250000D01*
X109410402Y-118274979D01*
X109292110Y-118323978D01*
X109185649Y-118395112D01*
X109095112Y-118485649D01*
X109023978Y-118592110D01*
X108974979Y-118710402D01*
X108950000Y-118835981D01*
X108950000Y-118964019D01*
X108974979Y-119089598D01*
X109023978Y-119207890D01*
X109095112Y-119314351D01*
X109185649Y-119404888D01*
X109292110Y-119476022D01*
X109410402Y-119525021D01*
X109535981Y-119550000D01*
X109550000Y-119550000D01*
X109550000Y-120250000D01*
X108100000Y-120250000D01*
X108070736Y-120252882D01*
X108042597Y-120261418D01*
X108016664Y-120275280D01*
X107993934Y-120293934D01*
X107975280Y-120316664D01*
X107961418Y-120342597D01*
X107952882Y-120370736D01*
X107950000Y-120400000D01*
X107950000Y-122450000D01*
X107450000Y-122450000D01*
X107450000Y-119508020D01*
X107468426Y-119520332D01*
X107595818Y-119573099D01*
X107731056Y-119600000D01*
X107868944Y-119600000D01*
X108004182Y-119573099D01*
X108131574Y-119520332D01*
X108246224Y-119443726D01*
X108343726Y-119346224D01*
X108420332Y-119231574D01*
X108473099Y-119104182D01*
X108500000Y-118968944D01*
X108500000Y-118831056D01*
X108473099Y-118695818D01*
X108420332Y-118568426D01*
X108343726Y-118453776D01*
X108246224Y-118356274D01*
X108131574Y-118279668D01*
X108004182Y-118226901D01*
X107868944Y-118200000D01*
X107731056Y-118200000D01*
X107595818Y-118226901D01*
X107468426Y-118279668D01*
X107450000Y-118291980D01*
X107450000Y-117908020D01*
X107468426Y-117920332D01*
X107595818Y-117973099D01*
X107731056Y-118000000D01*
X107868944Y-118000000D01*
X108004182Y-117973099D01*
X108131574Y-117920332D01*
X108246224Y-117843726D01*
X108343726Y-117746224D01*
X108420332Y-117631574D01*
X108473099Y-117504182D01*
X108500000Y-117368944D01*
X108500000Y-117231056D01*
X108473099Y-117095818D01*
X108420332Y-116968426D01*
X108343726Y-116853776D01*
X108246224Y-116756274D01*
X108131574Y-116679668D01*
X108004182Y-116626901D01*
X107868944Y-116600000D01*
X107731056Y-116600000D01*
X107595818Y-116626901D01*
X107468426Y-116679668D01*
X107450000Y-116691980D01*
X107450000Y-114235981D01*
X108250000Y-114235981D01*
X108250000Y-114364019D01*
X108274979Y-114489598D01*
X108323978Y-114607890D01*
X108395112Y-114714351D01*
X108480761Y-114800000D01*
X108395112Y-114885649D01*
X108323978Y-114992110D01*
X108274979Y-115110402D01*
X108250000Y-115235981D01*
X108250000Y-115364019D01*
X108274979Y-115489598D01*
X108323978Y-115607890D01*
X108395112Y-115714351D01*
X108485649Y-115804888D01*
X108592110Y-115876022D01*
X108710402Y-115925021D01*
X108835981Y-115950000D01*
X108964019Y-115950000D01*
X109089598Y-115925021D01*
X109207890Y-115876022D01*
X109314351Y-115804888D01*
X109404888Y-115714351D01*
X109476022Y-115607890D01*
X109525021Y-115489598D01*
X109550000Y-115364019D01*
X109550000Y-115235981D01*
X109525021Y-115110402D01*
X109476022Y-114992110D01*
X109404888Y-114885649D01*
X109319239Y-114800000D01*
X109404888Y-114714351D01*
X109476022Y-114607890D01*
X109525021Y-114489598D01*
X109550000Y-114364019D01*
X109550000Y-114235981D01*
X109525021Y-114110402D01*
X109476022Y-113992110D01*
X109404888Y-113885649D01*
X109314351Y-113795112D01*
X109207890Y-113723978D01*
X109089598Y-113674979D01*
X108964019Y-113650000D01*
X108835981Y-113650000D01*
X108710402Y-113674979D01*
X108592110Y-113723978D01*
X108485649Y-113795112D01*
X108395112Y-113885649D01*
X108323978Y-113992110D01*
X108274979Y-114110402D01*
X108250000Y-114235981D01*
X107450000Y-114235981D01*
X107450000Y-111408020D01*
X107468426Y-111420332D01*
X107595818Y-111473099D01*
X107731056Y-111500000D01*
X107868944Y-111500000D01*
X108004182Y-111473099D01*
X108131574Y-111420332D01*
X108246224Y-111343726D01*
X108343726Y-111246224D01*
X108420332Y-111131574D01*
X108473099Y-111004182D01*
X108500000Y-110868944D01*
X108500000Y-110731056D01*
X108473099Y-110595818D01*
X108420332Y-110468426D01*
X108343726Y-110353776D01*
X108246224Y-110256274D01*
X108131574Y-110179668D01*
X108004182Y-110126901D01*
X107868944Y-110100000D01*
X107731056Y-110100000D01*
X107595818Y-110126901D01*
X107468426Y-110179668D01*
X107450000Y-110191980D01*
X107450000Y-109731056D01*
X108100000Y-109731056D01*
X108100000Y-109868944D01*
X108126901Y-110004182D01*
X108179668Y-110131574D01*
X108256274Y-110246224D01*
X108353776Y-110343726D01*
X108468426Y-110420332D01*
X108595818Y-110473099D01*
X108731056Y-110500000D01*
X108868944Y-110500000D01*
X109004182Y-110473099D01*
X109131574Y-110420332D01*
X109246224Y-110343726D01*
X109343726Y-110246224D01*
X109420332Y-110131574D01*
X109473099Y-110004182D01*
X109500000Y-109868944D01*
X109500000Y-109731056D01*
X109473099Y-109595818D01*
X109420332Y-109468426D01*
X109343726Y-109353776D01*
X109246224Y-109256274D01*
X109131574Y-109179668D01*
X109004182Y-109126901D01*
X108868944Y-109100000D01*
X108731056Y-109100000D01*
X108595818Y-109126901D01*
X108468426Y-109179668D01*
X108353776Y-109256274D01*
X108256274Y-109353776D01*
X108179668Y-109468426D01*
X108126901Y-109595818D01*
X108100000Y-109731056D01*
X107450000Y-109731056D01*
X107450000Y-106431056D01*
X107500000Y-106431056D01*
X107500000Y-106568944D01*
X107526901Y-106704182D01*
X107579668Y-106831574D01*
X107656274Y-106946224D01*
X107753776Y-107043726D01*
X107868426Y-107120332D01*
X107995818Y-107173099D01*
X108131056Y-107200000D01*
X108268944Y-107200000D01*
X108404182Y-107173099D01*
X108531574Y-107120332D01*
X108646224Y-107043726D01*
X108743726Y-106946224D01*
X108820332Y-106831574D01*
X108873099Y-106704182D01*
X108900000Y-106568944D01*
X108900000Y-106431056D01*
X108873099Y-106295818D01*
X108820332Y-106168426D01*
X108743726Y-106053776D01*
X108646224Y-105956274D01*
X108531574Y-105879668D01*
X108404182Y-105826901D01*
X108268944Y-105800000D01*
X108131056Y-105800000D01*
X107995818Y-105826901D01*
X107868426Y-105879668D01*
X107753776Y-105956274D01*
X107656274Y-106053776D01*
X107579668Y-106168426D01*
X107526901Y-106295818D01*
X107500000Y-106431056D01*
X107450000Y-106431056D01*
X107450000Y-101150000D01*
X107545879Y-101150000D01*
X107526901Y-101195818D01*
G36*
X100878955Y-109174807D02*
G01*
X101079142Y-109257727D01*
X101291659Y-109300000D01*
X101508341Y-109300000D01*
X101720858Y-109257727D01*
X101921045Y-109174807D01*
X101958171Y-109150000D01*
X103450001Y-109150000D01*
X103450001Y-110150000D01*
X102900000Y-110150000D01*
X102870736Y-110152882D01*
X102842597Y-110161418D01*
X102816664Y-110175280D01*
X102793934Y-110193934D01*
X102775280Y-110216664D01*
X102761418Y-110242597D01*
X102752882Y-110270736D01*
X102750000Y-110300000D01*
X102750000Y-117700000D01*
X102752882Y-117729264D01*
X102761418Y-117757403D01*
X102775280Y-117783336D01*
X102793934Y-117806066D01*
X102816664Y-117824720D01*
X102842597Y-117838582D01*
X102870736Y-117847118D01*
X102900000Y-117850000D01*
X103350000Y-117850000D01*
X103350000Y-118850000D01*
X101558171Y-118850000D01*
X101521045Y-118825193D01*
X101320858Y-118742273D01*
X101108341Y-118700000D01*
X100891659Y-118700000D01*
X100775000Y-118723205D01*
X100775000Y-109150000D01*
X100841829Y-109150000D01*
X100878955Y-109174807D01*
X100878955Y-109174807D01*
G37*
X100878955Y-109174807D02*
X101079142Y-109257727D01*
X101291659Y-109300000D01*
X101508341Y-109300000D01*
X101720858Y-109257727D01*
X101921045Y-109174807D01*
X101958171Y-109150000D01*
X103450001Y-109150000D01*
X103450001Y-110150000D01*
X102900000Y-110150000D01*
X102870736Y-110152882D01*
X102842597Y-110161418D01*
X102816664Y-110175280D01*
X102793934Y-110193934D01*
X102775280Y-110216664D01*
X102761418Y-110242597D01*
X102752882Y-110270736D01*
X102750000Y-110300000D01*
X102750000Y-117700000D01*
X102752882Y-117729264D01*
X102761418Y-117757403D01*
X102775280Y-117783336D01*
X102793934Y-117806066D01*
X102816664Y-117824720D01*
X102842597Y-117838582D01*
X102870736Y-117847118D01*
X102900000Y-117850000D01*
X103350000Y-117850000D01*
X103350000Y-118850000D01*
X101558171Y-118850000D01*
X101521045Y-118825193D01*
X101320858Y-118742273D01*
X101108341Y-118700000D01*
X100891659Y-118700000D01*
X100775000Y-118723205D01*
X100775000Y-109150000D01*
X100841829Y-109150000D01*
X100878955Y-109174807D01*
D28*
G36*
X125417437Y-102378097D02*
G01*
X125521903Y-102482563D01*
X125644742Y-102564641D01*
X125781233Y-102621178D01*
X125862631Y-102637369D01*
X125878822Y-102718767D01*
X125935359Y-102855258D01*
X126017437Y-102978097D01*
X126121903Y-103082563D01*
X126244742Y-103164641D01*
X126381233Y-103221178D01*
X126526131Y-103250000D01*
X126673869Y-103250000D01*
X126818767Y-103221178D01*
X126955258Y-103164641D01*
X127078097Y-103082563D01*
X127150000Y-103010660D01*
X127221903Y-103082563D01*
X127344742Y-103164641D01*
X127481233Y-103221178D01*
X127626131Y-103250000D01*
X127773869Y-103250000D01*
X127918767Y-103221178D01*
X128055258Y-103164641D01*
X128178097Y-103082563D01*
X128282563Y-102978097D01*
X128364641Y-102855258D01*
X128421178Y-102718767D01*
X128450000Y-102573869D01*
X128450000Y-102426131D01*
X128424911Y-102300000D01*
X131825388Y-102300000D01*
X131779668Y-102368426D01*
X131726901Y-102495818D01*
X131700000Y-102631056D01*
X131700000Y-102768944D01*
X131726901Y-102904182D01*
X131779668Y-103031574D01*
X131856274Y-103146224D01*
X131953776Y-103243726D01*
X132068426Y-103320332D01*
X132195818Y-103373099D01*
X132331056Y-103400000D01*
X132468944Y-103400000D01*
X132604182Y-103373099D01*
X132731574Y-103320332D01*
X132846224Y-103243726D01*
X132943726Y-103146224D01*
X133020332Y-103031574D01*
X133073099Y-102904182D01*
X133100000Y-102768944D01*
X133100000Y-102631056D01*
X133073099Y-102495818D01*
X133020332Y-102368426D01*
X132974612Y-102300000D01*
X134300000Y-102300000D01*
X134300000Y-102970526D01*
X134297097Y-103000000D01*
X134300000Y-103029473D01*
X134308682Y-103117620D01*
X134342990Y-103230720D01*
X134398704Y-103334954D01*
X134473683Y-103426317D01*
X134496586Y-103445113D01*
X134754887Y-103703414D01*
X134773683Y-103726317D01*
X134865045Y-103801296D01*
X134969279Y-103857010D01*
X135082379Y-103891318D01*
X135199999Y-103902903D01*
X135229473Y-103900000D01*
X135266590Y-103900000D01*
X135226901Y-103995818D01*
X135200000Y-104131056D01*
X135200000Y-104268944D01*
X135226901Y-104404182D01*
X135279668Y-104531574D01*
X135356274Y-104646224D01*
X135453776Y-104743726D01*
X135487707Y-104766398D01*
X135435359Y-104844742D01*
X135378822Y-104981233D01*
X135350000Y-105126131D01*
X135350000Y-105273869D01*
X135378822Y-105418767D01*
X135435359Y-105555258D01*
X135517437Y-105678097D01*
X135621903Y-105782563D01*
X135744742Y-105864641D01*
X135881233Y-105921178D01*
X136026131Y-105950000D01*
X136173869Y-105950000D01*
X136318767Y-105921178D01*
X136455258Y-105864641D01*
X136578097Y-105782563D01*
X136612760Y-105747900D01*
X136616853Y-105755557D01*
X136629289Y-105770711D01*
X136644443Y-105783147D01*
X136654875Y-105788723D01*
X136553776Y-105856274D01*
X136456274Y-105953776D01*
X136379668Y-106068426D01*
X136326901Y-106195818D01*
X136300000Y-106331056D01*
X136300000Y-106468944D01*
X136326901Y-106604182D01*
X136379668Y-106731574D01*
X136456274Y-106846224D01*
X136553776Y-106943726D01*
X136668426Y-107020332D01*
X136795818Y-107073099D01*
X136931056Y-107100000D01*
X137068944Y-107100000D01*
X137204182Y-107073099D01*
X137331574Y-107020332D01*
X137446224Y-106943726D01*
X137543726Y-106846224D01*
X137548752Y-106838702D01*
X137553776Y-106843726D01*
X137668426Y-106920332D01*
X137795818Y-106973099D01*
X137931056Y-107000000D01*
X138068944Y-107000000D01*
X138204182Y-106973099D01*
X138331574Y-106920332D01*
X138446224Y-106843726D01*
X138543726Y-106746224D01*
X138620332Y-106631574D01*
X138673099Y-106504182D01*
X138700000Y-106368944D01*
X138700000Y-106231056D01*
X138673099Y-106095818D01*
X138620332Y-105968426D01*
X138543726Y-105853776D01*
X138489950Y-105800000D01*
X138600000Y-105800000D01*
X138619509Y-105798079D01*
X138638268Y-105792388D01*
X138655557Y-105783147D01*
X138670711Y-105770711D01*
X138683147Y-105755557D01*
X138692388Y-105738268D01*
X138698079Y-105719509D01*
X138700000Y-105700000D01*
X138700000Y-105200000D01*
X139126069Y-105200000D01*
X139126901Y-105204182D01*
X139179668Y-105331574D01*
X139256274Y-105446224D01*
X139353776Y-105543726D01*
X139468426Y-105620332D01*
X139595818Y-105673099D01*
X139731056Y-105700000D01*
X139868944Y-105700000D01*
X140004182Y-105673099D01*
X140131574Y-105620332D01*
X140246224Y-105543726D01*
X140343726Y-105446224D01*
X140420332Y-105331574D01*
X140473099Y-105204182D01*
X140473931Y-105200000D01*
X144500000Y-105200000D01*
X144500000Y-105725388D01*
X144453776Y-105756274D01*
X144356274Y-105853776D01*
X144279668Y-105968426D01*
X144226901Y-106095818D01*
X144206178Y-106200000D01*
X144131056Y-106200000D01*
X143995818Y-106226901D01*
X143868426Y-106279668D01*
X143753776Y-106356274D01*
X143656274Y-106453776D01*
X143579668Y-106568426D01*
X143526901Y-106695818D01*
X143500000Y-106831056D01*
X143500000Y-106968944D01*
X143526901Y-107104182D01*
X143579668Y-107231574D01*
X143656274Y-107346224D01*
X143679319Y-107369269D01*
X143626901Y-107495818D01*
X143600000Y-107631056D01*
X143600000Y-107768944D01*
X143626901Y-107904182D01*
X143679668Y-108031574D01*
X143756274Y-108146224D01*
X143853776Y-108243726D01*
X143968426Y-108320332D01*
X144095818Y-108373099D01*
X144231056Y-108400000D01*
X144368944Y-108400000D01*
X144500000Y-108373931D01*
X144500000Y-109166590D01*
X144468426Y-109179668D01*
X144353776Y-109256274D01*
X144350000Y-109260050D01*
X144346224Y-109256274D01*
X144231574Y-109179668D01*
X144104182Y-109126901D01*
X143968944Y-109100000D01*
X143831056Y-109100000D01*
X143695818Y-109126901D01*
X143568426Y-109179668D01*
X143453776Y-109256274D01*
X143356274Y-109353776D01*
X143279668Y-109468426D01*
X143226901Y-109595818D01*
X143200000Y-109731056D01*
X143200000Y-109868944D01*
X143226901Y-110004182D01*
X143279668Y-110131574D01*
X143302400Y-110165596D01*
X143268426Y-110179668D01*
X143153776Y-110256274D01*
X143056274Y-110353776D01*
X142979668Y-110468426D01*
X142926901Y-110595818D01*
X142900000Y-110731056D01*
X142900000Y-110868944D01*
X142926901Y-111004182D01*
X142979668Y-111131574D01*
X143056274Y-111246224D01*
X143153776Y-111343726D01*
X143268426Y-111420332D01*
X143395818Y-111473099D01*
X143531056Y-111500000D01*
X143668944Y-111500000D01*
X143718766Y-111490090D01*
X143756274Y-111546224D01*
X143853776Y-111643726D01*
X143968426Y-111720332D01*
X144095818Y-111773099D01*
X144231056Y-111800000D01*
X144368944Y-111800000D01*
X144500000Y-111773931D01*
X144500000Y-113106178D01*
X144468944Y-113100000D01*
X144331056Y-113100000D01*
X144195818Y-113126901D01*
X144068426Y-113179668D01*
X143953776Y-113256274D01*
X143856274Y-113353776D01*
X143779668Y-113468426D01*
X143726901Y-113595818D01*
X143700000Y-113731056D01*
X143700000Y-113868944D01*
X143726901Y-114004182D01*
X143753506Y-114068413D01*
X143743726Y-114053776D01*
X143646224Y-113956274D01*
X143531574Y-113879668D01*
X143404182Y-113826901D01*
X143268944Y-113800000D01*
X143131056Y-113800000D01*
X142995818Y-113826901D01*
X142868426Y-113879668D01*
X142753776Y-113956274D01*
X142656274Y-114053776D01*
X142579668Y-114168426D01*
X142526901Y-114295818D01*
X142500000Y-114431056D01*
X142500000Y-114568944D01*
X142526901Y-114704182D01*
X142579668Y-114831574D01*
X142656274Y-114946224D01*
X142753776Y-115043726D01*
X142868426Y-115120332D01*
X142995818Y-115173099D01*
X143131056Y-115200000D01*
X143268944Y-115200000D01*
X143404182Y-115173099D01*
X143531574Y-115120332D01*
X143600995Y-115073947D01*
X143626901Y-115204182D01*
X143679668Y-115331574D01*
X143756274Y-115446224D01*
X143853776Y-115543726D01*
X143968426Y-115620332D01*
X144095818Y-115673099D01*
X144231056Y-115700000D01*
X144368944Y-115700000D01*
X144500000Y-115673931D01*
X144500000Y-117637997D01*
X144443726Y-117553776D01*
X144346224Y-117456274D01*
X144231574Y-117379668D01*
X144104182Y-117326901D01*
X143968944Y-117300000D01*
X143831056Y-117300000D01*
X143695818Y-117326901D01*
X143568426Y-117379668D01*
X143453776Y-117456274D01*
X143356274Y-117553776D01*
X143279668Y-117668426D01*
X143226901Y-117795818D01*
X143200000Y-117931056D01*
X143200000Y-118068944D01*
X143221167Y-118175357D01*
X143104182Y-118126901D01*
X142968944Y-118100000D01*
X142831056Y-118100000D01*
X142695818Y-118126901D01*
X142568426Y-118179668D01*
X142453776Y-118256274D01*
X142356274Y-118353776D01*
X142279668Y-118468426D01*
X142226901Y-118595818D01*
X142200000Y-118731056D01*
X142200000Y-118868944D01*
X142226901Y-119004182D01*
X142279668Y-119131574D01*
X142356274Y-119246224D01*
X142453776Y-119343726D01*
X142568426Y-119420332D01*
X142695818Y-119473099D01*
X142831056Y-119500000D01*
X142968944Y-119500000D01*
X143104182Y-119473099D01*
X143231574Y-119420332D01*
X143346224Y-119343726D01*
X143443726Y-119246224D01*
X143520332Y-119131574D01*
X143573099Y-119004182D01*
X143600000Y-118868944D01*
X143600000Y-118731056D01*
X143578833Y-118624643D01*
X143695818Y-118673099D01*
X143831056Y-118700000D01*
X143968944Y-118700000D01*
X144104182Y-118673099D01*
X144231574Y-118620332D01*
X144346224Y-118543726D01*
X144443726Y-118446224D01*
X144500000Y-118362003D01*
X144500000Y-118826069D01*
X144368944Y-118800000D01*
X144231056Y-118800000D01*
X144095818Y-118826901D01*
X143968426Y-118879668D01*
X143853776Y-118956274D01*
X143756274Y-119053776D01*
X143679668Y-119168426D01*
X143626901Y-119295818D01*
X143600000Y-119431056D01*
X143600000Y-119568944D01*
X143626901Y-119704182D01*
X143679668Y-119831574D01*
X143756274Y-119946224D01*
X143853776Y-120043726D01*
X143968426Y-120120332D01*
X144095818Y-120173099D01*
X144231056Y-120200000D01*
X144368944Y-120200000D01*
X144500000Y-120173931D01*
X144500000Y-120926069D01*
X144495818Y-120926901D01*
X144368426Y-120979668D01*
X144253776Y-121056274D01*
X144156274Y-121153776D01*
X144079668Y-121268426D01*
X144026901Y-121395818D01*
X144000000Y-121531056D01*
X144000000Y-121668944D01*
X144026901Y-121804182D01*
X144079668Y-121931574D01*
X144156274Y-122046224D01*
X144253776Y-122143726D01*
X144368426Y-122220332D01*
X144495818Y-122273099D01*
X144500000Y-122273931D01*
X144500000Y-122510050D01*
X144456274Y-122553776D01*
X144379668Y-122668426D01*
X144326901Y-122795818D01*
X144300000Y-122931056D01*
X144300000Y-123068944D01*
X144326901Y-123204182D01*
X144379668Y-123331574D01*
X144384050Y-123338132D01*
X143072183Y-124650000D01*
X142354121Y-124650000D01*
X142373099Y-124604182D01*
X142400000Y-124468944D01*
X142400000Y-124331056D01*
X142373099Y-124195818D01*
X142320332Y-124068426D01*
X142243726Y-123953776D01*
X142146224Y-123856274D01*
X142072051Y-123806713D01*
X142073099Y-123804182D01*
X142100000Y-123668944D01*
X142100000Y-123531056D01*
X142073099Y-123395818D01*
X142033410Y-123300000D01*
X142068944Y-123300000D01*
X142204182Y-123273099D01*
X142331574Y-123220332D01*
X142446224Y-123143726D01*
X142543726Y-123046224D01*
X142620332Y-122931574D01*
X142673099Y-122804182D01*
X142700000Y-122668944D01*
X142700000Y-122531056D01*
X142673099Y-122395818D01*
X142620332Y-122268426D01*
X142543726Y-122153776D01*
X142446224Y-122056274D01*
X142331574Y-121979668D01*
X142204182Y-121926901D01*
X142068944Y-121900000D01*
X141931056Y-121900000D01*
X141795818Y-121926901D01*
X141668426Y-121979668D01*
X141553776Y-122056274D01*
X141456274Y-122153776D01*
X141379668Y-122268426D01*
X141326901Y-122395818D01*
X141300000Y-122531056D01*
X141300000Y-122668944D01*
X141326901Y-122804182D01*
X141366590Y-122900000D01*
X141331056Y-122900000D01*
X141195818Y-122926901D01*
X141068426Y-122979668D01*
X140953776Y-123056274D01*
X140856274Y-123153776D01*
X140779668Y-123268426D01*
X140726901Y-123395818D01*
X140700000Y-123531056D01*
X140700000Y-123668944D01*
X140726901Y-123804182D01*
X140779668Y-123931574D01*
X140856274Y-124046224D01*
X140953776Y-124143726D01*
X141027949Y-124193287D01*
X141026901Y-124195818D01*
X141000000Y-124331056D01*
X141000000Y-124468944D01*
X141026901Y-124604182D01*
X141045879Y-124650000D01*
X139727011Y-124650000D01*
X139700000Y-124647340D01*
X139672989Y-124650000D01*
X139672982Y-124650000D01*
X139592181Y-124657958D01*
X139488506Y-124689408D01*
X139468690Y-124700000D01*
X138389950Y-124700000D01*
X138443726Y-124646224D01*
X138520332Y-124531574D01*
X138573099Y-124404182D01*
X138600000Y-124268944D01*
X138600000Y-124131056D01*
X138573099Y-123995818D01*
X138520332Y-123868426D01*
X138443726Y-123753776D01*
X138346224Y-123656274D01*
X138231574Y-123579668D01*
X138104182Y-123526901D01*
X137968944Y-123500000D01*
X137831056Y-123500000D01*
X137695818Y-123526901D01*
X137568426Y-123579668D01*
X137453776Y-123656274D01*
X137356274Y-123753776D01*
X137279668Y-123868426D01*
X137226901Y-123995818D01*
X137200000Y-124131056D01*
X137200000Y-124268944D01*
X137226901Y-124404182D01*
X137279668Y-124531574D01*
X137356274Y-124646224D01*
X137410050Y-124700000D01*
X136633410Y-124700000D01*
X136620332Y-124668426D01*
X136543726Y-124553776D01*
X136446224Y-124456274D01*
X136331574Y-124379668D01*
X136204182Y-124326901D01*
X136068944Y-124300000D01*
X135931056Y-124300000D01*
X135795818Y-124326901D01*
X135668426Y-124379668D01*
X135553776Y-124456274D01*
X135456274Y-124553776D01*
X135379668Y-124668426D01*
X135369878Y-124692061D01*
X134908012Y-124230195D01*
X134890790Y-124209210D01*
X134807042Y-124140479D01*
X134711494Y-124089408D01*
X134607819Y-124057958D01*
X134527018Y-124050000D01*
X134527008Y-124050000D01*
X134500000Y-124047340D01*
X134472992Y-124050000D01*
X133683877Y-124050000D01*
X133700000Y-123968944D01*
X133700000Y-123831056D01*
X133673099Y-123695818D01*
X133620332Y-123568426D01*
X133543726Y-123453776D01*
X133446224Y-123356274D01*
X133331574Y-123279668D01*
X133204182Y-123226901D01*
X133068944Y-123200000D01*
X132931056Y-123200000D01*
X132795818Y-123226901D01*
X132668426Y-123279668D01*
X132553776Y-123356274D01*
X132550000Y-123360050D01*
X132546224Y-123356274D01*
X132431574Y-123279668D01*
X132304182Y-123226901D01*
X132168944Y-123200000D01*
X132031056Y-123200000D01*
X131895818Y-123226901D01*
X131768426Y-123279668D01*
X131700000Y-123325388D01*
X131631574Y-123279668D01*
X131504182Y-123226901D01*
X131368944Y-123200000D01*
X131231056Y-123200000D01*
X131095818Y-123226901D01*
X130988153Y-123271497D01*
X130973099Y-123195818D01*
X130920332Y-123068426D01*
X130843726Y-122953776D01*
X130746224Y-122856274D01*
X130631574Y-122779668D01*
X130504182Y-122726901D01*
X130392876Y-122704760D01*
X130400000Y-122668944D01*
X130400000Y-122531056D01*
X130373099Y-122395818D01*
X130320332Y-122268426D01*
X130243726Y-122153776D01*
X130221006Y-122131056D01*
X131400000Y-122131056D01*
X131400000Y-122268944D01*
X131426901Y-122404182D01*
X131479668Y-122531574D01*
X131556274Y-122646224D01*
X131653776Y-122743726D01*
X131768426Y-122820332D01*
X131895818Y-122873099D01*
X132031056Y-122900000D01*
X132168944Y-122900000D01*
X132304182Y-122873099D01*
X132431574Y-122820332D01*
X132490805Y-122780755D01*
X132553776Y-122843726D01*
X132668426Y-122920332D01*
X132795818Y-122973099D01*
X132931056Y-123000000D01*
X133068944Y-123000000D01*
X133204182Y-122973099D01*
X133331574Y-122920332D01*
X133446224Y-122843726D01*
X133543726Y-122746224D01*
X133620332Y-122631574D01*
X133673099Y-122504182D01*
X133700000Y-122368944D01*
X133700000Y-122231056D01*
X133673099Y-122095818D01*
X133620332Y-121968426D01*
X133543726Y-121853776D01*
X133446224Y-121756274D01*
X133331574Y-121679668D01*
X133214214Y-121631056D01*
X137100000Y-121631056D01*
X137100000Y-121768944D01*
X137126901Y-121904182D01*
X137179668Y-122031574D01*
X137256274Y-122146224D01*
X137353776Y-122243726D01*
X137468426Y-122320332D01*
X137595818Y-122373099D01*
X137731056Y-122400000D01*
X137868944Y-122400000D01*
X138004182Y-122373099D01*
X138131574Y-122320332D01*
X138246224Y-122243726D01*
X138343726Y-122146224D01*
X138420332Y-122031574D01*
X138473099Y-121904182D01*
X138500000Y-121768944D01*
X138500000Y-121908039D01*
X138549958Y-122159196D01*
X138647955Y-122395781D01*
X138790224Y-122608702D01*
X138971298Y-122789776D01*
X139184219Y-122932045D01*
X139420804Y-123030042D01*
X139671961Y-123080000D01*
X139928039Y-123080000D01*
X140179196Y-123030042D01*
X140415781Y-122932045D01*
X140628702Y-122789776D01*
X140809776Y-122608702D01*
X140952045Y-122395781D01*
X141050042Y-122159196D01*
X141100000Y-121908039D01*
X141100000Y-121651961D01*
X141050042Y-121400804D01*
X140952045Y-121164219D01*
X140809776Y-120951298D01*
X140628702Y-120770224D01*
X140415781Y-120627955D01*
X140179196Y-120529958D01*
X139928039Y-120480000D01*
X139671961Y-120480000D01*
X139420804Y-120529958D01*
X139184219Y-120627955D01*
X138971298Y-120770224D01*
X138790224Y-120951298D01*
X138647955Y-121164219D01*
X138549958Y-121400804D01*
X138500000Y-121651961D01*
X138500000Y-121631056D01*
X138473099Y-121495818D01*
X138420332Y-121368426D01*
X138343726Y-121253776D01*
X138246224Y-121156274D01*
X138131574Y-121079668D01*
X138004182Y-121026901D01*
X137868944Y-121000000D01*
X137731056Y-121000000D01*
X137595818Y-121026901D01*
X137468426Y-121079668D01*
X137353776Y-121156274D01*
X137256274Y-121253776D01*
X137179668Y-121368426D01*
X137126901Y-121495818D01*
X137100000Y-121631056D01*
X133214214Y-121631056D01*
X133204182Y-121626901D01*
X133068944Y-121600000D01*
X132931056Y-121600000D01*
X132795818Y-121626901D01*
X132668426Y-121679668D01*
X132609195Y-121719245D01*
X132546224Y-121656274D01*
X132431574Y-121579668D01*
X132304182Y-121526901D01*
X132168944Y-121500000D01*
X132031056Y-121500000D01*
X131895818Y-121526901D01*
X131768426Y-121579668D01*
X131653776Y-121656274D01*
X131556274Y-121753776D01*
X131479668Y-121868426D01*
X131426901Y-121995818D01*
X131400000Y-122131056D01*
X130221006Y-122131056D01*
X130146224Y-122056274D01*
X130031574Y-121979668D01*
X129904182Y-121926901D01*
X129768944Y-121900000D01*
X129631056Y-121900000D01*
X129495818Y-121926901D01*
X129368426Y-121979668D01*
X129253776Y-122056274D01*
X129156274Y-122153776D01*
X129079668Y-122268426D01*
X129026901Y-122395818D01*
X129000000Y-122531056D01*
X129000000Y-122668944D01*
X129026901Y-122804182D01*
X129079668Y-122931574D01*
X129156274Y-123046224D01*
X129253776Y-123143726D01*
X129368426Y-123220332D01*
X129495818Y-123273099D01*
X129607124Y-123295240D01*
X129600000Y-123331056D01*
X129600000Y-123468944D01*
X129626901Y-123604182D01*
X129679668Y-123731574D01*
X129756274Y-123846224D01*
X129853776Y-123943726D01*
X129968426Y-124020332D01*
X130040052Y-124050000D01*
X129627817Y-124050000D01*
X129397797Y-123819980D01*
X129373099Y-123695818D01*
X129320332Y-123568426D01*
X129243726Y-123453776D01*
X129146224Y-123356274D01*
X129031574Y-123279668D01*
X128904182Y-123226901D01*
X128768944Y-123200000D01*
X128700000Y-123200000D01*
X128700000Y-122724549D01*
X128702418Y-122699999D01*
X128700000Y-122675449D01*
X128700000Y-122675440D01*
X128692765Y-122601983D01*
X128664175Y-122507733D01*
X128617746Y-122420871D01*
X128555264Y-122344736D01*
X128536186Y-122329079D01*
X128170928Y-121963823D01*
X128155264Y-121944736D01*
X128079129Y-121882254D01*
X127992267Y-121835825D01*
X127898017Y-121807235D01*
X127824560Y-121800000D01*
X127800000Y-121797581D01*
X127775440Y-121800000D01*
X127389950Y-121800000D01*
X127346224Y-121756274D01*
X127231574Y-121679668D01*
X127104182Y-121626901D01*
X126968944Y-121600000D01*
X126831056Y-121600000D01*
X126695818Y-121626901D01*
X126568426Y-121679668D01*
X126453776Y-121756274D01*
X126356274Y-121853776D01*
X126279668Y-121968426D01*
X126226901Y-122095818D01*
X126200000Y-122231056D01*
X126200000Y-122368944D01*
X126226901Y-122504182D01*
X126265870Y-122598263D01*
X126265045Y-122598704D01*
X126173683Y-122673683D01*
X126154891Y-122696581D01*
X125696581Y-123154892D01*
X125673684Y-123173683D01*
X125598705Y-123265045D01*
X125554718Y-123347340D01*
X125551243Y-123353841D01*
X125552419Y-123050000D01*
X125542765Y-122951983D01*
X125514175Y-122857733D01*
X125467746Y-122770871D01*
X125405264Y-122694736D01*
X125329129Y-122632254D01*
X125242267Y-122585825D01*
X125148017Y-122557235D01*
X125050000Y-122547581D01*
X124425000Y-122550000D01*
X124300000Y-122675000D01*
X124300000Y-123800000D01*
X124320000Y-123800000D01*
X124320000Y-124000000D01*
X124300000Y-124000000D01*
X124300000Y-124020000D01*
X124100000Y-124020000D01*
X124100000Y-124000000D01*
X124080000Y-124000000D01*
X124080000Y-123800000D01*
X124100000Y-123800000D01*
X124100000Y-122675000D01*
X123975000Y-122550000D01*
X123500000Y-122548162D01*
X123500000Y-121431056D01*
X124200000Y-121431056D01*
X124200000Y-121568944D01*
X124226901Y-121704182D01*
X124279668Y-121831574D01*
X124356274Y-121946224D01*
X124453776Y-122043726D01*
X124568426Y-122120332D01*
X124695818Y-122173099D01*
X124831056Y-122200000D01*
X124968944Y-122200000D01*
X125104182Y-122173099D01*
X125231574Y-122120332D01*
X125346224Y-122043726D01*
X125443726Y-121946224D01*
X125520332Y-121831574D01*
X125573099Y-121704182D01*
X125600000Y-121568944D01*
X125600000Y-121431056D01*
X125573099Y-121295818D01*
X125520332Y-121168426D01*
X125443726Y-121053776D01*
X125346224Y-120956274D01*
X125231574Y-120879668D01*
X125104182Y-120826901D01*
X124968944Y-120800000D01*
X124831056Y-120800000D01*
X124695818Y-120826901D01*
X124568426Y-120879668D01*
X124453776Y-120956274D01*
X124356274Y-121053776D01*
X124279668Y-121168426D01*
X124226901Y-121295818D01*
X124200000Y-121431056D01*
X123500000Y-121431056D01*
X123500000Y-120729473D01*
X123502903Y-120699999D01*
X123491318Y-120582379D01*
X123457010Y-120469279D01*
X123401296Y-120365045D01*
X123326317Y-120273683D01*
X123303420Y-120254892D01*
X122900000Y-119851472D01*
X122900000Y-119031056D01*
X129000000Y-119031056D01*
X129000000Y-119168944D01*
X129026901Y-119304182D01*
X129079668Y-119431574D01*
X129156274Y-119546224D01*
X129253776Y-119643726D01*
X129368426Y-119720332D01*
X129495818Y-119773099D01*
X129631056Y-119800000D01*
X129768944Y-119800000D01*
X129904182Y-119773099D01*
X130031574Y-119720332D01*
X130146224Y-119643726D01*
X130243726Y-119546224D01*
X130320332Y-119431574D01*
X130373099Y-119304182D01*
X130400000Y-119168944D01*
X130400000Y-119131056D01*
X131100000Y-119131056D01*
X131100000Y-119268944D01*
X131126901Y-119404182D01*
X131179668Y-119531574D01*
X131256274Y-119646224D01*
X131353776Y-119743726D01*
X131468426Y-119820332D01*
X131595818Y-119873099D01*
X131731056Y-119900000D01*
X131868944Y-119900000D01*
X132004182Y-119873099D01*
X132131574Y-119820332D01*
X132246224Y-119743726D01*
X132343726Y-119646224D01*
X132420332Y-119531574D01*
X132473099Y-119404182D01*
X132500000Y-119268944D01*
X132500000Y-119262003D01*
X132556274Y-119346224D01*
X132653776Y-119443726D01*
X132768426Y-119520332D01*
X132895818Y-119573099D01*
X133031056Y-119600000D01*
X133168944Y-119600000D01*
X133304182Y-119573099D01*
X133405683Y-119531056D01*
X134500000Y-119531056D01*
X134500000Y-119668944D01*
X134526901Y-119804182D01*
X134579668Y-119931574D01*
X134656274Y-120046224D01*
X134753776Y-120143726D01*
X134868426Y-120220332D01*
X134995818Y-120273099D01*
X135131056Y-120300000D01*
X135268944Y-120300000D01*
X135404182Y-120273099D01*
X135531574Y-120220332D01*
X135646224Y-120143726D01*
X135658894Y-120131056D01*
X141100000Y-120131056D01*
X141100000Y-120268944D01*
X141126901Y-120404182D01*
X141179668Y-120531574D01*
X141256274Y-120646224D01*
X141353776Y-120743726D01*
X141468426Y-120820332D01*
X141595818Y-120873099D01*
X141731056Y-120900000D01*
X141868944Y-120900000D01*
X142004182Y-120873099D01*
X142131574Y-120820332D01*
X142246224Y-120743726D01*
X142343726Y-120646224D01*
X142420332Y-120531574D01*
X142473099Y-120404182D01*
X142500000Y-120268944D01*
X142500000Y-120131056D01*
X142473099Y-119995818D01*
X142420332Y-119868426D01*
X142343726Y-119753776D01*
X142246224Y-119656274D01*
X142131574Y-119579668D01*
X142004182Y-119526901D01*
X141868944Y-119500000D01*
X141731056Y-119500000D01*
X141595818Y-119526901D01*
X141468426Y-119579668D01*
X141353776Y-119656274D01*
X141256274Y-119753776D01*
X141179668Y-119868426D01*
X141126901Y-119995818D01*
X141100000Y-120131056D01*
X135658894Y-120131056D01*
X135743726Y-120046224D01*
X135820332Y-119931574D01*
X135873099Y-119804182D01*
X135900000Y-119668944D01*
X135900000Y-119531056D01*
X135873099Y-119395818D01*
X135820332Y-119268426D01*
X135743726Y-119153776D01*
X135646224Y-119056274D01*
X135531574Y-118979668D01*
X135404182Y-118926901D01*
X135268944Y-118900000D01*
X135131056Y-118900000D01*
X134995818Y-118926901D01*
X134868426Y-118979668D01*
X134753776Y-119056274D01*
X134656274Y-119153776D01*
X134579668Y-119268426D01*
X134526901Y-119395818D01*
X134500000Y-119531056D01*
X133405683Y-119531056D01*
X133431574Y-119520332D01*
X133546224Y-119443726D01*
X133643726Y-119346224D01*
X133720332Y-119231574D01*
X133773099Y-119104182D01*
X133800000Y-118968944D01*
X133800000Y-118831056D01*
X133773099Y-118695818D01*
X133720332Y-118568426D01*
X133643726Y-118453776D01*
X133546224Y-118356274D01*
X133431574Y-118279668D01*
X133304182Y-118226901D01*
X133168944Y-118200000D01*
X133031056Y-118200000D01*
X132895818Y-118226901D01*
X132768426Y-118279668D01*
X132653776Y-118356274D01*
X132556274Y-118453776D01*
X132479668Y-118568426D01*
X132426901Y-118695818D01*
X132400000Y-118831056D01*
X132400000Y-118837997D01*
X132343726Y-118753776D01*
X132246224Y-118656274D01*
X132131574Y-118579668D01*
X132004182Y-118526901D01*
X131868944Y-118500000D01*
X131731056Y-118500000D01*
X131595818Y-118526901D01*
X131468426Y-118579668D01*
X131353776Y-118656274D01*
X131256274Y-118753776D01*
X131179668Y-118868426D01*
X131126901Y-118995818D01*
X131100000Y-119131056D01*
X130400000Y-119131056D01*
X130400000Y-119031056D01*
X130373099Y-118895818D01*
X130320332Y-118768426D01*
X130243726Y-118653776D01*
X130146224Y-118556274D01*
X130031574Y-118479668D01*
X129904182Y-118426901D01*
X129768944Y-118400000D01*
X129631056Y-118400000D01*
X129495818Y-118426901D01*
X129368426Y-118479668D01*
X129253776Y-118556274D01*
X129156274Y-118653776D01*
X129079668Y-118768426D01*
X129026901Y-118895818D01*
X129000000Y-119031056D01*
X122900000Y-119031056D01*
X122900000Y-117831056D01*
X137200000Y-117831056D01*
X137200000Y-117968944D01*
X137226901Y-118104182D01*
X137279668Y-118231574D01*
X137356274Y-118346224D01*
X137453776Y-118443726D01*
X137568426Y-118520332D01*
X137617945Y-118540843D01*
X137600000Y-118631056D01*
X137600000Y-118768944D01*
X137626901Y-118904182D01*
X137679668Y-119031574D01*
X137756274Y-119146224D01*
X137853776Y-119243726D01*
X137968426Y-119320332D01*
X138095818Y-119373099D01*
X138231056Y-119400000D01*
X138368944Y-119400000D01*
X138504182Y-119373099D01*
X138631574Y-119320332D01*
X138746224Y-119243726D01*
X138843726Y-119146224D01*
X138920332Y-119031574D01*
X138973099Y-118904182D01*
X139000000Y-118768944D01*
X139000000Y-118631056D01*
X138973099Y-118495818D01*
X138920332Y-118368426D01*
X138843726Y-118253776D01*
X138746224Y-118156274D01*
X138631574Y-118079668D01*
X138582055Y-118059157D01*
X138600000Y-117968944D01*
X138600000Y-117864972D01*
X138615789Y-117884211D01*
X138676697Y-117934197D01*
X138746186Y-117971340D01*
X138821586Y-117994212D01*
X138900000Y-118001935D01*
X140700000Y-118001935D01*
X140778414Y-117994212D01*
X140853814Y-117971340D01*
X140923303Y-117934197D01*
X140984211Y-117884211D01*
X141034197Y-117823303D01*
X141071340Y-117753814D01*
X141094212Y-117678414D01*
X141101935Y-117600000D01*
X141101935Y-115800000D01*
X141094212Y-115721586D01*
X141071340Y-115646186D01*
X141070944Y-115645445D01*
X141131574Y-115620332D01*
X141246224Y-115543726D01*
X141343726Y-115446224D01*
X141420332Y-115331574D01*
X141473099Y-115204182D01*
X141500000Y-115068944D01*
X141500000Y-114931056D01*
X141473099Y-114795818D01*
X141420332Y-114668426D01*
X141343726Y-114553776D01*
X141246224Y-114456274D01*
X141131574Y-114379668D01*
X141004182Y-114326901D01*
X140868944Y-114300000D01*
X140731056Y-114300000D01*
X140595818Y-114326901D01*
X140468426Y-114379668D01*
X140353776Y-114456274D01*
X140256274Y-114553776D01*
X140179668Y-114668426D01*
X140126901Y-114795818D01*
X140100000Y-114931056D01*
X140100000Y-115068944D01*
X140126901Y-115204182D01*
X140179668Y-115331574D01*
X140224095Y-115398065D01*
X138900000Y-115398065D01*
X138821586Y-115405788D01*
X138746186Y-115428660D01*
X138676697Y-115465803D01*
X138615789Y-115515789D01*
X138565803Y-115576697D01*
X138528660Y-115646186D01*
X138505788Y-115721586D01*
X138498065Y-115800000D01*
X138498065Y-117535101D01*
X138443726Y-117453776D01*
X138346224Y-117356274D01*
X138231574Y-117279668D01*
X138104182Y-117226901D01*
X137968944Y-117200000D01*
X137831056Y-117200000D01*
X137695818Y-117226901D01*
X137568426Y-117279668D01*
X137453776Y-117356274D01*
X137356274Y-117453776D01*
X137279668Y-117568426D01*
X137226901Y-117695818D01*
X137200000Y-117831056D01*
X122900000Y-117831056D01*
X122900000Y-114631056D01*
X123000000Y-114631056D01*
X123000000Y-114768944D01*
X123026901Y-114904182D01*
X123079668Y-115031574D01*
X123156274Y-115146224D01*
X123253776Y-115243726D01*
X123368426Y-115320332D01*
X123495818Y-115373099D01*
X123631056Y-115400000D01*
X123768944Y-115400000D01*
X123904182Y-115373099D01*
X124031574Y-115320332D01*
X124146224Y-115243726D01*
X124243726Y-115146224D01*
X124320332Y-115031574D01*
X124373099Y-114904182D01*
X124400000Y-114768944D01*
X124400000Y-114631056D01*
X124373099Y-114495818D01*
X124320332Y-114368426D01*
X124243726Y-114253776D01*
X124221006Y-114231056D01*
X125900000Y-114231056D01*
X125900000Y-114368944D01*
X125926901Y-114504182D01*
X125979668Y-114631574D01*
X126025388Y-114700000D01*
X125979668Y-114768426D01*
X125926901Y-114895818D01*
X125900000Y-115031056D01*
X125900000Y-115168944D01*
X125926901Y-115304182D01*
X125979668Y-115431574D01*
X126056274Y-115546224D01*
X126110050Y-115600000D01*
X126056274Y-115653776D01*
X125979668Y-115768426D01*
X125926901Y-115895818D01*
X125900000Y-116031056D01*
X125900000Y-116168944D01*
X125926901Y-116304182D01*
X125979668Y-116431574D01*
X126056274Y-116546224D01*
X126153776Y-116643726D01*
X126268426Y-116720332D01*
X126395818Y-116773099D01*
X126531056Y-116800000D01*
X126668944Y-116800000D01*
X126804182Y-116773099D01*
X126931574Y-116720332D01*
X127046224Y-116643726D01*
X127143726Y-116546224D01*
X127220332Y-116431574D01*
X127273099Y-116304182D01*
X127300000Y-116168944D01*
X127300000Y-116031056D01*
X127273099Y-115895818D01*
X127220332Y-115768426D01*
X127143726Y-115653776D01*
X127089950Y-115600000D01*
X127143726Y-115546224D01*
X127220332Y-115431574D01*
X127273099Y-115304182D01*
X127300000Y-115168944D01*
X127300000Y-115031056D01*
X133100000Y-115031056D01*
X133100000Y-115168944D01*
X133126901Y-115304182D01*
X133179668Y-115431574D01*
X133256274Y-115546224D01*
X133353776Y-115643726D01*
X133468426Y-115720332D01*
X133595818Y-115773099D01*
X133731056Y-115800000D01*
X133868944Y-115800000D01*
X134004182Y-115773099D01*
X134131574Y-115720332D01*
X134246224Y-115643726D01*
X134343726Y-115546224D01*
X134420332Y-115431574D01*
X134473099Y-115304182D01*
X134500000Y-115168944D01*
X134500000Y-115031056D01*
X134473099Y-114895818D01*
X134420332Y-114768426D01*
X134343726Y-114653776D01*
X134246224Y-114556274D01*
X134131574Y-114479668D01*
X134004182Y-114426901D01*
X133868944Y-114400000D01*
X133731056Y-114400000D01*
X133595818Y-114426901D01*
X133468426Y-114479668D01*
X133353776Y-114556274D01*
X133256274Y-114653776D01*
X133179668Y-114768426D01*
X133126901Y-114895818D01*
X133100000Y-115031056D01*
X127300000Y-115031056D01*
X127273099Y-114895818D01*
X127220332Y-114768426D01*
X127174612Y-114700000D01*
X127220332Y-114631574D01*
X127273099Y-114504182D01*
X127300000Y-114368944D01*
X127300000Y-114231056D01*
X127273099Y-114095818D01*
X127220332Y-113968426D01*
X127143726Y-113853776D01*
X127046224Y-113756274D01*
X126931574Y-113679668D01*
X126804182Y-113626901D01*
X126668944Y-113600000D01*
X126531056Y-113600000D01*
X126395818Y-113626901D01*
X126268426Y-113679668D01*
X126153776Y-113756274D01*
X126056274Y-113853776D01*
X125979668Y-113968426D01*
X125926901Y-114095818D01*
X125900000Y-114231056D01*
X124221006Y-114231056D01*
X124146224Y-114156274D01*
X124031574Y-114079668D01*
X123904182Y-114026901D01*
X123768944Y-114000000D01*
X123631056Y-114000000D01*
X123495818Y-114026901D01*
X123368426Y-114079668D01*
X123253776Y-114156274D01*
X123156274Y-114253776D01*
X123079668Y-114368426D01*
X123026901Y-114495818D01*
X123000000Y-114631056D01*
X122900000Y-114631056D01*
X122900000Y-112744802D01*
X123018767Y-112721178D01*
X123155258Y-112664641D01*
X123278097Y-112582563D01*
X123329604Y-112531056D01*
X129200000Y-112531056D01*
X129200000Y-112668944D01*
X129226901Y-112804182D01*
X129279668Y-112931574D01*
X129356274Y-113046224D01*
X129453776Y-113143726D01*
X129568426Y-113220332D01*
X129695818Y-113273099D01*
X129831056Y-113300000D01*
X129968944Y-113300000D01*
X130104182Y-113273099D01*
X130231574Y-113220332D01*
X130346224Y-113143726D01*
X130443726Y-113046224D01*
X130520332Y-112931574D01*
X130550000Y-112859948D01*
X130579668Y-112931574D01*
X130656274Y-113046224D01*
X130753776Y-113143726D01*
X130868426Y-113220332D01*
X130995818Y-113273099D01*
X131131056Y-113300000D01*
X131268944Y-113300000D01*
X131404182Y-113273099D01*
X131531574Y-113220332D01*
X131577095Y-113189916D01*
X131550000Y-113326131D01*
X131550000Y-113473869D01*
X131578822Y-113618767D01*
X131635359Y-113755258D01*
X131717437Y-113878097D01*
X131821903Y-113982563D01*
X131944742Y-114064641D01*
X132081233Y-114121178D01*
X132226131Y-114150000D01*
X132373869Y-114150000D01*
X132518767Y-114121178D01*
X132655258Y-114064641D01*
X132778097Y-113982563D01*
X132882563Y-113878097D01*
X132964641Y-113755258D01*
X133021178Y-113618767D01*
X133050000Y-113473869D01*
X133050000Y-113326131D01*
X133021178Y-113181233D01*
X132964641Y-113044742D01*
X132882563Y-112921903D01*
X132778097Y-112817437D01*
X132656416Y-112736133D01*
X132726131Y-112750000D01*
X132873869Y-112750000D01*
X133018767Y-112721178D01*
X133155258Y-112664641D01*
X133278097Y-112582563D01*
X133382563Y-112478097D01*
X133464641Y-112355258D01*
X133521178Y-112218767D01*
X133525021Y-112199449D01*
X133556274Y-112246224D01*
X133653776Y-112343726D01*
X133768426Y-112420332D01*
X133895818Y-112473099D01*
X134013535Y-112496515D01*
X133956274Y-112553776D01*
X133879668Y-112668426D01*
X133826901Y-112795818D01*
X133800000Y-112931056D01*
X133800000Y-113068944D01*
X133826901Y-113204182D01*
X133879668Y-113331574D01*
X133956274Y-113446224D01*
X134053776Y-113543726D01*
X134168426Y-113620332D01*
X134295818Y-113673099D01*
X134431056Y-113700000D01*
X134568944Y-113700000D01*
X134634040Y-113687051D01*
X134579668Y-113768426D01*
X134526901Y-113895818D01*
X134500000Y-114031056D01*
X134500000Y-114168944D01*
X134526901Y-114304182D01*
X134579668Y-114431574D01*
X134656274Y-114546224D01*
X134753776Y-114643726D01*
X134868426Y-114720332D01*
X134995818Y-114773099D01*
X135131056Y-114800000D01*
X135268944Y-114800000D01*
X135404182Y-114773099D01*
X135505683Y-114731056D01*
X137500000Y-114731056D01*
X137500000Y-114868944D01*
X137526901Y-115004182D01*
X137579668Y-115131574D01*
X137656274Y-115246224D01*
X137753776Y-115343726D01*
X137868426Y-115420332D01*
X137995818Y-115473099D01*
X138131056Y-115500000D01*
X138268944Y-115500000D01*
X138404182Y-115473099D01*
X138531574Y-115420332D01*
X138646224Y-115343726D01*
X138743726Y-115246224D01*
X138820332Y-115131574D01*
X138873099Y-115004182D01*
X138900000Y-114868944D01*
X138900000Y-114731056D01*
X138873099Y-114595818D01*
X138820332Y-114468426D01*
X138743726Y-114353776D01*
X138646224Y-114256274D01*
X138531574Y-114179668D01*
X138404182Y-114126901D01*
X138268944Y-114100000D01*
X138131056Y-114100000D01*
X137995818Y-114126901D01*
X137868426Y-114179668D01*
X137753776Y-114256274D01*
X137656274Y-114353776D01*
X137579668Y-114468426D01*
X137526901Y-114595818D01*
X137500000Y-114731056D01*
X135505683Y-114731056D01*
X135531574Y-114720332D01*
X135646224Y-114643726D01*
X135743726Y-114546224D01*
X135820332Y-114431574D01*
X135873099Y-114304182D01*
X135900000Y-114168944D01*
X135900000Y-114031056D01*
X135873099Y-113895818D01*
X135820332Y-113768426D01*
X135743726Y-113653776D01*
X135646224Y-113556274D01*
X135531574Y-113479668D01*
X135404182Y-113426901D01*
X135268944Y-113400000D01*
X135131056Y-113400000D01*
X135065960Y-113412949D01*
X135120332Y-113331574D01*
X135173099Y-113204182D01*
X135200000Y-113068944D01*
X135200000Y-112931056D01*
X135173099Y-112795818D01*
X135120332Y-112668426D01*
X135043726Y-112553776D01*
X134946224Y-112456274D01*
X134831574Y-112379668D01*
X134704182Y-112326901D01*
X134586465Y-112303485D01*
X134643726Y-112246224D01*
X134720332Y-112131574D01*
X134773099Y-112004182D01*
X134800000Y-111868944D01*
X134800000Y-111731056D01*
X134773099Y-111595818D01*
X134720332Y-111468426D01*
X134643726Y-111353776D01*
X134546224Y-111256274D01*
X134431574Y-111179668D01*
X134304182Y-111126901D01*
X134168944Y-111100000D01*
X134031056Y-111100000D01*
X133895818Y-111126901D01*
X133768426Y-111179668D01*
X133653776Y-111256274D01*
X133556274Y-111353776D01*
X133479668Y-111468426D01*
X133428834Y-111591152D01*
X133382563Y-111521903D01*
X133278097Y-111417437D01*
X133155258Y-111335359D01*
X133018767Y-111278822D01*
X132873869Y-111250000D01*
X132726131Y-111250000D01*
X132581233Y-111278822D01*
X132444742Y-111335359D01*
X132396075Y-111367877D01*
X132420332Y-111331574D01*
X132473099Y-111204182D01*
X132500000Y-111068944D01*
X132500000Y-110931056D01*
X132473099Y-110795818D01*
X132420332Y-110668426D01*
X132343726Y-110553776D01*
X132246224Y-110456274D01*
X132208483Y-110431056D01*
X136200000Y-110431056D01*
X136200000Y-110568944D01*
X136226901Y-110704182D01*
X136279668Y-110831574D01*
X136356274Y-110946224D01*
X136453776Y-111043726D01*
X136568426Y-111120332D01*
X136695818Y-111173099D01*
X136831056Y-111200000D01*
X136968944Y-111200000D01*
X137104182Y-111173099D01*
X137231574Y-111120332D01*
X137346224Y-111043726D01*
X137443726Y-110946224D01*
X137520332Y-110831574D01*
X137573099Y-110704182D01*
X137600000Y-110568944D01*
X137600000Y-110431056D01*
X137592289Y-110392289D01*
X137631056Y-110400000D01*
X137768944Y-110400000D01*
X137904182Y-110373099D01*
X138031574Y-110320332D01*
X138146224Y-110243726D01*
X138243726Y-110146224D01*
X138320332Y-110031574D01*
X138373099Y-109904182D01*
X138400000Y-109768944D01*
X138400000Y-109631056D01*
X138373099Y-109495818D01*
X138349970Y-109439980D01*
X138443726Y-109346224D01*
X138520332Y-109231574D01*
X138573099Y-109104182D01*
X138600000Y-108968944D01*
X138600000Y-108831056D01*
X138580109Y-108731056D01*
X139100000Y-108731056D01*
X139100000Y-108868944D01*
X139126901Y-109004182D01*
X139179668Y-109131574D01*
X139256274Y-109246224D01*
X139353776Y-109343726D01*
X139468426Y-109420332D01*
X139595818Y-109473099D01*
X139610931Y-109476105D01*
X139600000Y-109531056D01*
X139600000Y-109668944D01*
X139626901Y-109804182D01*
X139679668Y-109931574D01*
X139756274Y-110046224D01*
X139853776Y-110143726D01*
X139968426Y-110220332D01*
X140095818Y-110273099D01*
X140231056Y-110300000D01*
X140368944Y-110300000D01*
X140504182Y-110273099D01*
X140631574Y-110220332D01*
X140746224Y-110143726D01*
X140843726Y-110046224D01*
X140920332Y-109931574D01*
X140973099Y-109804182D01*
X141000000Y-109668944D01*
X141000000Y-109531056D01*
X140980109Y-109431056D01*
X141100000Y-109431056D01*
X141100000Y-109568944D01*
X141126901Y-109704182D01*
X141179668Y-109831574D01*
X141256274Y-109946224D01*
X141353776Y-110043726D01*
X141468426Y-110120332D01*
X141595818Y-110173099D01*
X141731056Y-110200000D01*
X141868944Y-110200000D01*
X142004182Y-110173099D01*
X142131574Y-110120332D01*
X142246224Y-110043726D01*
X142343726Y-109946224D01*
X142420332Y-109831574D01*
X142473099Y-109704182D01*
X142500000Y-109568944D01*
X142500000Y-109431056D01*
X142473099Y-109295818D01*
X142420332Y-109168426D01*
X142343726Y-109053776D01*
X142246224Y-108956274D01*
X142131574Y-108879668D01*
X142004182Y-108826901D01*
X141868944Y-108800000D01*
X141731056Y-108800000D01*
X141595818Y-108826901D01*
X141468426Y-108879668D01*
X141353776Y-108956274D01*
X141256274Y-109053776D01*
X141179668Y-109168426D01*
X141126901Y-109295818D01*
X141100000Y-109431056D01*
X140980109Y-109431056D01*
X140973099Y-109395818D01*
X140920332Y-109268426D01*
X140843726Y-109153776D01*
X140746224Y-109056274D01*
X140631574Y-108979668D01*
X140504182Y-108926901D01*
X140489069Y-108923895D01*
X140500000Y-108868944D01*
X140500000Y-108731056D01*
X140473099Y-108595818D01*
X140420332Y-108468426D01*
X140343726Y-108353776D01*
X140246224Y-108256274D01*
X140131574Y-108179668D01*
X140004182Y-108126901D01*
X139868944Y-108100000D01*
X139731056Y-108100000D01*
X139595818Y-108126901D01*
X139468426Y-108179668D01*
X139353776Y-108256274D01*
X139256274Y-108353776D01*
X139179668Y-108468426D01*
X139126901Y-108595818D01*
X139100000Y-108731056D01*
X138580109Y-108731056D01*
X138573099Y-108695818D01*
X138520332Y-108568426D01*
X138474612Y-108500000D01*
X138520332Y-108431574D01*
X138573099Y-108304182D01*
X138600000Y-108168944D01*
X138600000Y-108031056D01*
X138573099Y-107895818D01*
X138520332Y-107768426D01*
X138443726Y-107653776D01*
X138346224Y-107556274D01*
X138231574Y-107479668D01*
X138104182Y-107426901D01*
X137968944Y-107400000D01*
X137831056Y-107400000D01*
X137695818Y-107426901D01*
X137568426Y-107479668D01*
X137453776Y-107556274D01*
X137356274Y-107653776D01*
X137279668Y-107768426D01*
X137226901Y-107895818D01*
X137200000Y-108031056D01*
X137200000Y-108168944D01*
X137226901Y-108304182D01*
X137279668Y-108431574D01*
X137325388Y-108500000D01*
X137279668Y-108568426D01*
X137226901Y-108695818D01*
X137200000Y-108831056D01*
X137200000Y-108968944D01*
X137226901Y-109104182D01*
X137250030Y-109160020D01*
X137156274Y-109253776D01*
X137079668Y-109368426D01*
X137026901Y-109495818D01*
X137000000Y-109631056D01*
X137000000Y-109768944D01*
X137007711Y-109807711D01*
X136968944Y-109800000D01*
X136831056Y-109800000D01*
X136695818Y-109826901D01*
X136568426Y-109879668D01*
X136453776Y-109956274D01*
X136356274Y-110053776D01*
X136279668Y-110168426D01*
X136226901Y-110295818D01*
X136200000Y-110431056D01*
X132208483Y-110431056D01*
X132131574Y-110379668D01*
X132004182Y-110326901D01*
X131874136Y-110301033D01*
X131873099Y-110295818D01*
X131820332Y-110168426D01*
X131743726Y-110053776D01*
X131646224Y-109956274D01*
X131531574Y-109879668D01*
X131404182Y-109826901D01*
X131268944Y-109800000D01*
X131131056Y-109800000D01*
X130995818Y-109826901D01*
X130868426Y-109879668D01*
X130753776Y-109956274D01*
X130656274Y-110053776D01*
X130579668Y-110168426D01*
X130526901Y-110295818D01*
X130500000Y-110431056D01*
X130500000Y-110568944D01*
X130526901Y-110704182D01*
X130579668Y-110831574D01*
X130656274Y-110946224D01*
X130753776Y-111043726D01*
X130868426Y-111120332D01*
X130995818Y-111173099D01*
X131125864Y-111198967D01*
X131126901Y-111204182D01*
X131179668Y-111331574D01*
X131256274Y-111446224D01*
X131353776Y-111543726D01*
X131468426Y-111620332D01*
X131595818Y-111673099D01*
X131731056Y-111700000D01*
X131868944Y-111700000D01*
X132004182Y-111673099D01*
X132131574Y-111620332D01*
X132167877Y-111596075D01*
X132135359Y-111644742D01*
X132078822Y-111781233D01*
X132050000Y-111926131D01*
X132050000Y-112073869D01*
X132078822Y-112218767D01*
X132135359Y-112355258D01*
X132217437Y-112478097D01*
X132321903Y-112582563D01*
X132443584Y-112663867D01*
X132373869Y-112650000D01*
X132226131Y-112650000D01*
X132081233Y-112678822D01*
X131944742Y-112735359D01*
X131877906Y-112780017D01*
X131900000Y-112668944D01*
X131900000Y-112531056D01*
X131873099Y-112395818D01*
X131820332Y-112268426D01*
X131743726Y-112153776D01*
X131646224Y-112056274D01*
X131531574Y-111979668D01*
X131404182Y-111926901D01*
X131268944Y-111900000D01*
X131131056Y-111900000D01*
X130995818Y-111926901D01*
X130868426Y-111979668D01*
X130753776Y-112056274D01*
X130656274Y-112153776D01*
X130579668Y-112268426D01*
X130550000Y-112340052D01*
X130520332Y-112268426D01*
X130443726Y-112153776D01*
X130346224Y-112056274D01*
X130231574Y-111979668D01*
X130104182Y-111926901D01*
X129968944Y-111900000D01*
X129831056Y-111900000D01*
X129695818Y-111926901D01*
X129568426Y-111979668D01*
X129453776Y-112056274D01*
X129356274Y-112153776D01*
X129279668Y-112268426D01*
X129226901Y-112395818D01*
X129200000Y-112531056D01*
X123329604Y-112531056D01*
X123382563Y-112478097D01*
X123464641Y-112355258D01*
X123521178Y-112218767D01*
X123550000Y-112073869D01*
X123550000Y-111926131D01*
X123521178Y-111781233D01*
X123464641Y-111644742D01*
X123382563Y-111521903D01*
X123278097Y-111417437D01*
X123155258Y-111335359D01*
X123018767Y-111278822D01*
X122900000Y-111255198D01*
X122900000Y-110031056D01*
X124400000Y-110031056D01*
X124400000Y-110168944D01*
X124426901Y-110304182D01*
X124479668Y-110431574D01*
X124556274Y-110546224D01*
X124653776Y-110643726D01*
X124768426Y-110720332D01*
X124895818Y-110773099D01*
X125031056Y-110800000D01*
X125168944Y-110800000D01*
X125304182Y-110773099D01*
X125431574Y-110720332D01*
X125546224Y-110643726D01*
X125643726Y-110546224D01*
X125720332Y-110431574D01*
X125720546Y-110431056D01*
X127200000Y-110431056D01*
X127200000Y-110568944D01*
X127226901Y-110704182D01*
X127279668Y-110831574D01*
X127356274Y-110946224D01*
X127453776Y-111043726D01*
X127568426Y-111120332D01*
X127695818Y-111173099D01*
X127831056Y-111200000D01*
X127968944Y-111200000D01*
X128104182Y-111173099D01*
X128231574Y-111120332D01*
X128346224Y-111043726D01*
X128400000Y-110989950D01*
X128453776Y-111043726D01*
X128568426Y-111120332D01*
X128695818Y-111173099D01*
X128831056Y-111200000D01*
X128968944Y-111200000D01*
X129104182Y-111173099D01*
X129231574Y-111120332D01*
X129346224Y-111043726D01*
X129443726Y-110946224D01*
X129520332Y-110831574D01*
X129573099Y-110704182D01*
X129600000Y-110568944D01*
X129600000Y-110431056D01*
X129573099Y-110295818D01*
X129520332Y-110168426D01*
X129443726Y-110053776D01*
X129346224Y-109956274D01*
X129231574Y-109879668D01*
X129104182Y-109826901D01*
X128968944Y-109800000D01*
X128831056Y-109800000D01*
X128695818Y-109826901D01*
X128568426Y-109879668D01*
X128453776Y-109956274D01*
X128400000Y-110010050D01*
X128346224Y-109956274D01*
X128231574Y-109879668D01*
X128104182Y-109826901D01*
X127968944Y-109800000D01*
X127831056Y-109800000D01*
X127695818Y-109826901D01*
X127568426Y-109879668D01*
X127453776Y-109956274D01*
X127356274Y-110053776D01*
X127279668Y-110168426D01*
X127226901Y-110295818D01*
X127200000Y-110431056D01*
X125720546Y-110431056D01*
X125773099Y-110304182D01*
X125800000Y-110168944D01*
X125800000Y-110031056D01*
X125773099Y-109895818D01*
X125720332Y-109768426D01*
X125643726Y-109653776D01*
X125546224Y-109556274D01*
X125431574Y-109479668D01*
X125304182Y-109426901D01*
X125168944Y-109400000D01*
X125031056Y-109400000D01*
X124895818Y-109426901D01*
X124768426Y-109479668D01*
X124653776Y-109556274D01*
X124556274Y-109653776D01*
X124479668Y-109768426D01*
X124426901Y-109895818D01*
X124400000Y-110031056D01*
X122900000Y-110031056D01*
X122900000Y-109162003D01*
X122956274Y-109246224D01*
X123053776Y-109343726D01*
X123168426Y-109420332D01*
X123295818Y-109473099D01*
X123431056Y-109500000D01*
X123568944Y-109500000D01*
X123704182Y-109473099D01*
X123831574Y-109420332D01*
X123946224Y-109343726D01*
X124043726Y-109246224D01*
X124120332Y-109131574D01*
X124173099Y-109004182D01*
X124200000Y-108868944D01*
X124200000Y-108731056D01*
X124173099Y-108595818D01*
X124120332Y-108468426D01*
X124043726Y-108353776D01*
X123946224Y-108256274D01*
X123831574Y-108179668D01*
X123704182Y-108126901D01*
X123568944Y-108100000D01*
X123431056Y-108100000D01*
X123295818Y-108126901D01*
X123168426Y-108179668D01*
X123053776Y-108256274D01*
X122956274Y-108353776D01*
X122900000Y-108437997D01*
X122900000Y-107531056D01*
X129200000Y-107531056D01*
X129200000Y-107668944D01*
X129226901Y-107804182D01*
X129279668Y-107931574D01*
X129356274Y-108046224D01*
X129453776Y-108143726D01*
X129568426Y-108220332D01*
X129695818Y-108273099D01*
X129831056Y-108300000D01*
X129968944Y-108300000D01*
X130104182Y-108273099D01*
X130231574Y-108220332D01*
X130346224Y-108143726D01*
X130443726Y-108046224D01*
X130520332Y-107931574D01*
X130573099Y-107804182D01*
X130600000Y-107668944D01*
X130600000Y-107631056D01*
X135700000Y-107631056D01*
X135700000Y-107768944D01*
X135726901Y-107904182D01*
X135779668Y-108031574D01*
X135856274Y-108146224D01*
X135953776Y-108243726D01*
X136068426Y-108320332D01*
X136195818Y-108373099D01*
X136331056Y-108400000D01*
X136468944Y-108400000D01*
X136604182Y-108373099D01*
X136731574Y-108320332D01*
X136846224Y-108243726D01*
X136943726Y-108146224D01*
X137020332Y-108031574D01*
X137073099Y-107904182D01*
X137100000Y-107768944D01*
X137100000Y-107631056D01*
X137073099Y-107495818D01*
X137020332Y-107368426D01*
X136943726Y-107253776D01*
X136846224Y-107156274D01*
X136731574Y-107079668D01*
X136604182Y-107026901D01*
X136468944Y-107000000D01*
X136331056Y-107000000D01*
X136195818Y-107026901D01*
X136068426Y-107079668D01*
X135953776Y-107156274D01*
X135856274Y-107253776D01*
X135779668Y-107368426D01*
X135726901Y-107495818D01*
X135700000Y-107631056D01*
X130600000Y-107631056D01*
X130600000Y-107531056D01*
X130573099Y-107395818D01*
X130520332Y-107268426D01*
X130443726Y-107153776D01*
X130346224Y-107056274D01*
X130231574Y-106979668D01*
X130104182Y-106926901D01*
X129968944Y-106900000D01*
X129831056Y-106900000D01*
X129695818Y-106926901D01*
X129568426Y-106979668D01*
X129453776Y-107056274D01*
X129356274Y-107153776D01*
X129279668Y-107268426D01*
X129226901Y-107395818D01*
X129200000Y-107531056D01*
X122900000Y-107531056D01*
X122900000Y-106431056D01*
X123500000Y-106431056D01*
X123500000Y-106568944D01*
X123526901Y-106704182D01*
X123579668Y-106831574D01*
X123656274Y-106946224D01*
X123753776Y-107043726D01*
X123868426Y-107120332D01*
X123995818Y-107173099D01*
X124131056Y-107200000D01*
X124268944Y-107200000D01*
X124404182Y-107173099D01*
X124531574Y-107120332D01*
X124646224Y-107043726D01*
X124743726Y-106946224D01*
X124820332Y-106831574D01*
X124873099Y-106704182D01*
X124900000Y-106568944D01*
X124900000Y-106526131D01*
X125450000Y-106526131D01*
X125450000Y-106673869D01*
X125478822Y-106818767D01*
X125535359Y-106955258D01*
X125617437Y-107078097D01*
X125721903Y-107182563D01*
X125844742Y-107264641D01*
X125981233Y-107321178D01*
X126126131Y-107350000D01*
X126273869Y-107350000D01*
X126418767Y-107321178D01*
X126555258Y-107264641D01*
X126678097Y-107182563D01*
X126782563Y-107078097D01*
X126864641Y-106955258D01*
X126921178Y-106818767D01*
X126938624Y-106731056D01*
X133600000Y-106731056D01*
X133600000Y-106868944D01*
X133626901Y-107004182D01*
X133679668Y-107131574D01*
X133756274Y-107246224D01*
X133853776Y-107343726D01*
X133968426Y-107420332D01*
X134095818Y-107473099D01*
X134231056Y-107500000D01*
X134368944Y-107500000D01*
X134504182Y-107473099D01*
X134631574Y-107420332D01*
X134746224Y-107343726D01*
X134843726Y-107246224D01*
X134920332Y-107131574D01*
X134973099Y-107004182D01*
X135000000Y-106868944D01*
X135000000Y-106731056D01*
X134973099Y-106595818D01*
X134920332Y-106468426D01*
X134843726Y-106353776D01*
X134746224Y-106256274D01*
X134631574Y-106179668D01*
X134504182Y-106126901D01*
X134368944Y-106100000D01*
X134231056Y-106100000D01*
X134095818Y-106126901D01*
X133968426Y-106179668D01*
X133853776Y-106256274D01*
X133756274Y-106353776D01*
X133679668Y-106468426D01*
X133626901Y-106595818D01*
X133600000Y-106731056D01*
X126938624Y-106731056D01*
X126950000Y-106673869D01*
X126950000Y-106526131D01*
X126921178Y-106381233D01*
X126864641Y-106244742D01*
X126782563Y-106121903D01*
X126678097Y-106017437D01*
X126555258Y-105935359D01*
X126544870Y-105931056D01*
X129100000Y-105931056D01*
X129100000Y-106068944D01*
X129126901Y-106204182D01*
X129179668Y-106331574D01*
X129256274Y-106446224D01*
X129353776Y-106543726D01*
X129468426Y-106620332D01*
X129595818Y-106673099D01*
X129731056Y-106700000D01*
X129868944Y-106700000D01*
X130004182Y-106673099D01*
X130131574Y-106620332D01*
X130246224Y-106543726D01*
X130343726Y-106446224D01*
X130420332Y-106331574D01*
X130434404Y-106297600D01*
X130468426Y-106320332D01*
X130595818Y-106373099D01*
X130731056Y-106400000D01*
X130868944Y-106400000D01*
X131004182Y-106373099D01*
X131131574Y-106320332D01*
X131246224Y-106243726D01*
X131343726Y-106146224D01*
X131420332Y-106031574D01*
X131473099Y-105904182D01*
X131500000Y-105768944D01*
X131500000Y-105631056D01*
X131473099Y-105495818D01*
X131420332Y-105368426D01*
X131343726Y-105253776D01*
X131321006Y-105231056D01*
X131800000Y-105231056D01*
X131800000Y-105368944D01*
X131826901Y-105504182D01*
X131879668Y-105631574D01*
X131956274Y-105746224D01*
X132053776Y-105843726D01*
X132168426Y-105920332D01*
X132295818Y-105973099D01*
X132431056Y-106000000D01*
X132568944Y-106000000D01*
X132704182Y-105973099D01*
X132831574Y-105920332D01*
X132946224Y-105843726D01*
X133043726Y-105746224D01*
X133120332Y-105631574D01*
X133173099Y-105504182D01*
X133200000Y-105368944D01*
X133200000Y-105231056D01*
X133173099Y-105095818D01*
X133120332Y-104968426D01*
X133043726Y-104853776D01*
X132946224Y-104756274D01*
X132831574Y-104679668D01*
X132704182Y-104626901D01*
X132568944Y-104600000D01*
X132431056Y-104600000D01*
X132295818Y-104626901D01*
X132168426Y-104679668D01*
X132053776Y-104756274D01*
X131956274Y-104853776D01*
X131879668Y-104968426D01*
X131826901Y-105095818D01*
X131800000Y-105231056D01*
X131321006Y-105231056D01*
X131246224Y-105156274D01*
X131131574Y-105079668D01*
X131004182Y-105026901D01*
X130868944Y-105000000D01*
X130731056Y-105000000D01*
X130595818Y-105026901D01*
X130587816Y-105030215D01*
X130600000Y-104968964D01*
X130600000Y-104831076D01*
X130573099Y-104695838D01*
X130520332Y-104568446D01*
X130443726Y-104453796D01*
X130346224Y-104356294D01*
X130231574Y-104279688D01*
X130104182Y-104226921D01*
X129968944Y-104200020D01*
X129831056Y-104200020D01*
X129695818Y-104226921D01*
X129568426Y-104279688D01*
X129453776Y-104356294D01*
X129356274Y-104453796D01*
X129279668Y-104568446D01*
X129226901Y-104695838D01*
X129200000Y-104831076D01*
X129200000Y-104968964D01*
X129226901Y-105104202D01*
X129279668Y-105231594D01*
X129356274Y-105346244D01*
X129421232Y-105411202D01*
X129353776Y-105456274D01*
X129256274Y-105553776D01*
X129179668Y-105668426D01*
X129126901Y-105795818D01*
X129100000Y-105931056D01*
X126544870Y-105931056D01*
X126418767Y-105878822D01*
X126273869Y-105850000D01*
X126126131Y-105850000D01*
X125981233Y-105878822D01*
X125844742Y-105935359D01*
X125721903Y-106017437D01*
X125617437Y-106121903D01*
X125535359Y-106244742D01*
X125478822Y-106381233D01*
X125450000Y-106526131D01*
X124900000Y-106526131D01*
X124900000Y-106431056D01*
X124873099Y-106295818D01*
X124820332Y-106168426D01*
X124743726Y-106053776D01*
X124646224Y-105956274D01*
X124531574Y-105879668D01*
X124404182Y-105826901D01*
X124268944Y-105800000D01*
X124131056Y-105800000D01*
X123995818Y-105826901D01*
X123868426Y-105879668D01*
X123753776Y-105956274D01*
X123656274Y-106053776D01*
X123579668Y-106168426D01*
X123526901Y-106295818D01*
X123500000Y-106431056D01*
X122900000Y-106431056D01*
X122900000Y-104531056D01*
X123800000Y-104531056D01*
X123800000Y-104668944D01*
X123826901Y-104804182D01*
X123879668Y-104931574D01*
X123956274Y-105046224D01*
X124053776Y-105143726D01*
X124168426Y-105220332D01*
X124295818Y-105273099D01*
X124431056Y-105300000D01*
X124568944Y-105300000D01*
X124704182Y-105273099D01*
X124831574Y-105220332D01*
X124946224Y-105143726D01*
X125043726Y-105046224D01*
X125120332Y-104931574D01*
X125173099Y-104804182D01*
X125200000Y-104668944D01*
X125200000Y-104531056D01*
X125173099Y-104395818D01*
X125120332Y-104268426D01*
X125043726Y-104153776D01*
X124946224Y-104056274D01*
X124831574Y-103979668D01*
X124704182Y-103926901D01*
X124568944Y-103900000D01*
X124431056Y-103900000D01*
X124295818Y-103926901D01*
X124168426Y-103979668D01*
X124053776Y-104056274D01*
X123956274Y-104153776D01*
X123879668Y-104268426D01*
X123826901Y-104395818D01*
X123800000Y-104531056D01*
X122900000Y-104531056D01*
X122900000Y-102300000D01*
X125365255Y-102300000D01*
X125417437Y-102378097D01*
X125417437Y-102378097D01*
G37*
X125417437Y-102378097D02*
X125521903Y-102482563D01*
X125644742Y-102564641D01*
X125781233Y-102621178D01*
X125862631Y-102637369D01*
X125878822Y-102718767D01*
X125935359Y-102855258D01*
X126017437Y-102978097D01*
X126121903Y-103082563D01*
X126244742Y-103164641D01*
X126381233Y-103221178D01*
X126526131Y-103250000D01*
X126673869Y-103250000D01*
X126818767Y-103221178D01*
X126955258Y-103164641D01*
X127078097Y-103082563D01*
X127150000Y-103010660D01*
X127221903Y-103082563D01*
X127344742Y-103164641D01*
X127481233Y-103221178D01*
X127626131Y-103250000D01*
X127773869Y-103250000D01*
X127918767Y-103221178D01*
X128055258Y-103164641D01*
X128178097Y-103082563D01*
X128282563Y-102978097D01*
X128364641Y-102855258D01*
X128421178Y-102718767D01*
X128450000Y-102573869D01*
X128450000Y-102426131D01*
X128424911Y-102300000D01*
X131825388Y-102300000D01*
X131779668Y-102368426D01*
X131726901Y-102495818D01*
X131700000Y-102631056D01*
X131700000Y-102768944D01*
X131726901Y-102904182D01*
X131779668Y-103031574D01*
X131856274Y-103146224D01*
X131953776Y-103243726D01*
X132068426Y-103320332D01*
X132195818Y-103373099D01*
X132331056Y-103400000D01*
X132468944Y-103400000D01*
X132604182Y-103373099D01*
X132731574Y-103320332D01*
X132846224Y-103243726D01*
X132943726Y-103146224D01*
X133020332Y-103031574D01*
X133073099Y-102904182D01*
X133100000Y-102768944D01*
X133100000Y-102631056D01*
X133073099Y-102495818D01*
X133020332Y-102368426D01*
X132974612Y-102300000D01*
X134300000Y-102300000D01*
X134300000Y-102970526D01*
X134297097Y-103000000D01*
X134300000Y-103029473D01*
X134308682Y-103117620D01*
X134342990Y-103230720D01*
X134398704Y-103334954D01*
X134473683Y-103426317D01*
X134496586Y-103445113D01*
X134754887Y-103703414D01*
X134773683Y-103726317D01*
X134865045Y-103801296D01*
X134969279Y-103857010D01*
X135082379Y-103891318D01*
X135199999Y-103902903D01*
X135229473Y-103900000D01*
X135266590Y-103900000D01*
X135226901Y-103995818D01*
X135200000Y-104131056D01*
X135200000Y-104268944D01*
X135226901Y-104404182D01*
X135279668Y-104531574D01*
X135356274Y-104646224D01*
X135453776Y-104743726D01*
X135487707Y-104766398D01*
X135435359Y-104844742D01*
X135378822Y-104981233D01*
X135350000Y-105126131D01*
X135350000Y-105273869D01*
X135378822Y-105418767D01*
X135435359Y-105555258D01*
X135517437Y-105678097D01*
X135621903Y-105782563D01*
X135744742Y-105864641D01*
X135881233Y-105921178D01*
X136026131Y-105950000D01*
X136173869Y-105950000D01*
X136318767Y-105921178D01*
X136455258Y-105864641D01*
X136578097Y-105782563D01*
X136612760Y-105747900D01*
X136616853Y-105755557D01*
X136629289Y-105770711D01*
X136644443Y-105783147D01*
X136654875Y-105788723D01*
X136553776Y-105856274D01*
X136456274Y-105953776D01*
X136379668Y-106068426D01*
X136326901Y-106195818D01*
X136300000Y-106331056D01*
X136300000Y-106468944D01*
X136326901Y-106604182D01*
X136379668Y-106731574D01*
X136456274Y-106846224D01*
X136553776Y-106943726D01*
X136668426Y-107020332D01*
X136795818Y-107073099D01*
X136931056Y-107100000D01*
X137068944Y-107100000D01*
X137204182Y-107073099D01*
X137331574Y-107020332D01*
X137446224Y-106943726D01*
X137543726Y-106846224D01*
X137548752Y-106838702D01*
X137553776Y-106843726D01*
X137668426Y-106920332D01*
X137795818Y-106973099D01*
X137931056Y-107000000D01*
X138068944Y-107000000D01*
X138204182Y-106973099D01*
X138331574Y-106920332D01*
X138446224Y-106843726D01*
X138543726Y-106746224D01*
X138620332Y-106631574D01*
X138673099Y-106504182D01*
X138700000Y-106368944D01*
X138700000Y-106231056D01*
X138673099Y-106095818D01*
X138620332Y-105968426D01*
X138543726Y-105853776D01*
X138489950Y-105800000D01*
X138600000Y-105800000D01*
X138619509Y-105798079D01*
X138638268Y-105792388D01*
X138655557Y-105783147D01*
X138670711Y-105770711D01*
X138683147Y-105755557D01*
X138692388Y-105738268D01*
X138698079Y-105719509D01*
X138700000Y-105700000D01*
X138700000Y-105200000D01*
X139126069Y-105200000D01*
X139126901Y-105204182D01*
X139179668Y-105331574D01*
X139256274Y-105446224D01*
X139353776Y-105543726D01*
X139468426Y-105620332D01*
X139595818Y-105673099D01*
X139731056Y-105700000D01*
X139868944Y-105700000D01*
X140004182Y-105673099D01*
X140131574Y-105620332D01*
X140246224Y-105543726D01*
X140343726Y-105446224D01*
X140420332Y-105331574D01*
X140473099Y-105204182D01*
X140473931Y-105200000D01*
X144500000Y-105200000D01*
X144500000Y-105725388D01*
X144453776Y-105756274D01*
X144356274Y-105853776D01*
X144279668Y-105968426D01*
X144226901Y-106095818D01*
X144206178Y-106200000D01*
X144131056Y-106200000D01*
X143995818Y-106226901D01*
X143868426Y-106279668D01*
X143753776Y-106356274D01*
X143656274Y-106453776D01*
X143579668Y-106568426D01*
X143526901Y-106695818D01*
X143500000Y-106831056D01*
X143500000Y-106968944D01*
X143526901Y-107104182D01*
X143579668Y-107231574D01*
X143656274Y-107346224D01*
X143679319Y-107369269D01*
X143626901Y-107495818D01*
X143600000Y-107631056D01*
X143600000Y-107768944D01*
X143626901Y-107904182D01*
X143679668Y-108031574D01*
X143756274Y-108146224D01*
X143853776Y-108243726D01*
X143968426Y-108320332D01*
X144095818Y-108373099D01*
X144231056Y-108400000D01*
X144368944Y-108400000D01*
X144500000Y-108373931D01*
X144500000Y-109166590D01*
X144468426Y-109179668D01*
X144353776Y-109256274D01*
X144350000Y-109260050D01*
X144346224Y-109256274D01*
X144231574Y-109179668D01*
X144104182Y-109126901D01*
X143968944Y-109100000D01*
X143831056Y-109100000D01*
X143695818Y-109126901D01*
X143568426Y-109179668D01*
X143453776Y-109256274D01*
X143356274Y-109353776D01*
X143279668Y-109468426D01*
X143226901Y-109595818D01*
X143200000Y-109731056D01*
X143200000Y-109868944D01*
X143226901Y-110004182D01*
X143279668Y-110131574D01*
X143302400Y-110165596D01*
X143268426Y-110179668D01*
X143153776Y-110256274D01*
X143056274Y-110353776D01*
X142979668Y-110468426D01*
X142926901Y-110595818D01*
X142900000Y-110731056D01*
X142900000Y-110868944D01*
X142926901Y-111004182D01*
X142979668Y-111131574D01*
X143056274Y-111246224D01*
X143153776Y-111343726D01*
X143268426Y-111420332D01*
X143395818Y-111473099D01*
X143531056Y-111500000D01*
X143668944Y-111500000D01*
X143718766Y-111490090D01*
X143756274Y-111546224D01*
X143853776Y-111643726D01*
X143968426Y-111720332D01*
X144095818Y-111773099D01*
X144231056Y-111800000D01*
X144368944Y-111800000D01*
X144500000Y-111773931D01*
X144500000Y-113106178D01*
X144468944Y-113100000D01*
X144331056Y-113100000D01*
X144195818Y-113126901D01*
X144068426Y-113179668D01*
X143953776Y-113256274D01*
X143856274Y-113353776D01*
X143779668Y-113468426D01*
X143726901Y-113595818D01*
X143700000Y-113731056D01*
X143700000Y-113868944D01*
X143726901Y-114004182D01*
X143753506Y-114068413D01*
X143743726Y-114053776D01*
X143646224Y-113956274D01*
X143531574Y-113879668D01*
X143404182Y-113826901D01*
X143268944Y-113800000D01*
X143131056Y-113800000D01*
X142995818Y-113826901D01*
X142868426Y-113879668D01*
X142753776Y-113956274D01*
X142656274Y-114053776D01*
X142579668Y-114168426D01*
X142526901Y-114295818D01*
X142500000Y-114431056D01*
X142500000Y-114568944D01*
X142526901Y-114704182D01*
X142579668Y-114831574D01*
X142656274Y-114946224D01*
X142753776Y-115043726D01*
X142868426Y-115120332D01*
X142995818Y-115173099D01*
X143131056Y-115200000D01*
X143268944Y-115200000D01*
X143404182Y-115173099D01*
X143531574Y-115120332D01*
X143600995Y-115073947D01*
X143626901Y-115204182D01*
X143679668Y-115331574D01*
X143756274Y-115446224D01*
X143853776Y-115543726D01*
X143968426Y-115620332D01*
X144095818Y-115673099D01*
X144231056Y-115700000D01*
X144368944Y-115700000D01*
X144500000Y-115673931D01*
X144500000Y-117637997D01*
X144443726Y-117553776D01*
X144346224Y-117456274D01*
X144231574Y-117379668D01*
X144104182Y-117326901D01*
X143968944Y-117300000D01*
X143831056Y-117300000D01*
X143695818Y-117326901D01*
X143568426Y-117379668D01*
X143453776Y-117456274D01*
X143356274Y-117553776D01*
X143279668Y-117668426D01*
X143226901Y-117795818D01*
X143200000Y-117931056D01*
X143200000Y-118068944D01*
X143221167Y-118175357D01*
X143104182Y-118126901D01*
X142968944Y-118100000D01*
X142831056Y-118100000D01*
X142695818Y-118126901D01*
X142568426Y-118179668D01*
X142453776Y-118256274D01*
X142356274Y-118353776D01*
X142279668Y-118468426D01*
X142226901Y-118595818D01*
X142200000Y-118731056D01*
X142200000Y-118868944D01*
X142226901Y-119004182D01*
X142279668Y-119131574D01*
X142356274Y-119246224D01*
X142453776Y-119343726D01*
X142568426Y-119420332D01*
X142695818Y-119473099D01*
X142831056Y-119500000D01*
X142968944Y-119500000D01*
X143104182Y-119473099D01*
X143231574Y-119420332D01*
X143346224Y-119343726D01*
X143443726Y-119246224D01*
X143520332Y-119131574D01*
X143573099Y-119004182D01*
X143600000Y-118868944D01*
X143600000Y-118731056D01*
X143578833Y-118624643D01*
X143695818Y-118673099D01*
X143831056Y-118700000D01*
X143968944Y-118700000D01*
X144104182Y-118673099D01*
X144231574Y-118620332D01*
X144346224Y-118543726D01*
X144443726Y-118446224D01*
X144500000Y-118362003D01*
X144500000Y-118826069D01*
X144368944Y-118800000D01*
X144231056Y-118800000D01*
X144095818Y-118826901D01*
X143968426Y-118879668D01*
X143853776Y-118956274D01*
X143756274Y-119053776D01*
X143679668Y-119168426D01*
X143626901Y-119295818D01*
X143600000Y-119431056D01*
X143600000Y-119568944D01*
X143626901Y-119704182D01*
X143679668Y-119831574D01*
X143756274Y-119946224D01*
X143853776Y-120043726D01*
X143968426Y-120120332D01*
X144095818Y-120173099D01*
X144231056Y-120200000D01*
X144368944Y-120200000D01*
X144500000Y-120173931D01*
X144500000Y-120926069D01*
X144495818Y-120926901D01*
X144368426Y-120979668D01*
X144253776Y-121056274D01*
X144156274Y-121153776D01*
X144079668Y-121268426D01*
X144026901Y-121395818D01*
X144000000Y-121531056D01*
X144000000Y-121668944D01*
X144026901Y-121804182D01*
X144079668Y-121931574D01*
X144156274Y-122046224D01*
X144253776Y-122143726D01*
X144368426Y-122220332D01*
X144495818Y-122273099D01*
X144500000Y-122273931D01*
X144500000Y-122510050D01*
X144456274Y-122553776D01*
X144379668Y-122668426D01*
X144326901Y-122795818D01*
X144300000Y-122931056D01*
X144300000Y-123068944D01*
X144326901Y-123204182D01*
X144379668Y-123331574D01*
X144384050Y-123338132D01*
X143072183Y-124650000D01*
X142354121Y-124650000D01*
X142373099Y-124604182D01*
X142400000Y-124468944D01*
X142400000Y-124331056D01*
X142373099Y-124195818D01*
X142320332Y-124068426D01*
X142243726Y-123953776D01*
X142146224Y-123856274D01*
X142072051Y-123806713D01*
X142073099Y-123804182D01*
X142100000Y-123668944D01*
X142100000Y-123531056D01*
X142073099Y-123395818D01*
X142033410Y-123300000D01*
X142068944Y-123300000D01*
X142204182Y-123273099D01*
X142331574Y-123220332D01*
X142446224Y-123143726D01*
X142543726Y-123046224D01*
X142620332Y-122931574D01*
X142673099Y-122804182D01*
X142700000Y-122668944D01*
X142700000Y-122531056D01*
X142673099Y-122395818D01*
X142620332Y-122268426D01*
X142543726Y-122153776D01*
X142446224Y-122056274D01*
X142331574Y-121979668D01*
X142204182Y-121926901D01*
X142068944Y-121900000D01*
X141931056Y-121900000D01*
X141795818Y-121926901D01*
X141668426Y-121979668D01*
X141553776Y-122056274D01*
X141456274Y-122153776D01*
X141379668Y-122268426D01*
X141326901Y-122395818D01*
X141300000Y-122531056D01*
X141300000Y-122668944D01*
X141326901Y-122804182D01*
X141366590Y-122900000D01*
X141331056Y-122900000D01*
X141195818Y-122926901D01*
X141068426Y-122979668D01*
X140953776Y-123056274D01*
X140856274Y-123153776D01*
X140779668Y-123268426D01*
X140726901Y-123395818D01*
X140700000Y-123531056D01*
X140700000Y-123668944D01*
X140726901Y-123804182D01*
X140779668Y-123931574D01*
X140856274Y-124046224D01*
X140953776Y-124143726D01*
X141027949Y-124193287D01*
X141026901Y-124195818D01*
X141000000Y-124331056D01*
X141000000Y-124468944D01*
X141026901Y-124604182D01*
X141045879Y-124650000D01*
X139727011Y-124650000D01*
X139700000Y-124647340D01*
X139672989Y-124650000D01*
X139672982Y-124650000D01*
X139592181Y-124657958D01*
X139488506Y-124689408D01*
X139468690Y-124700000D01*
X138389950Y-124700000D01*
X138443726Y-124646224D01*
X138520332Y-124531574D01*
X138573099Y-124404182D01*
X138600000Y-124268944D01*
X138600000Y-124131056D01*
X138573099Y-123995818D01*
X138520332Y-123868426D01*
X138443726Y-123753776D01*
X138346224Y-123656274D01*
X138231574Y-123579668D01*
X138104182Y-123526901D01*
X137968944Y-123500000D01*
X137831056Y-123500000D01*
X137695818Y-123526901D01*
X137568426Y-123579668D01*
X137453776Y-123656274D01*
X137356274Y-123753776D01*
X137279668Y-123868426D01*
X137226901Y-123995818D01*
X137200000Y-124131056D01*
X137200000Y-124268944D01*
X137226901Y-124404182D01*
X137279668Y-124531574D01*
X137356274Y-124646224D01*
X137410050Y-124700000D01*
X136633410Y-124700000D01*
X136620332Y-124668426D01*
X136543726Y-124553776D01*
X136446224Y-124456274D01*
X136331574Y-124379668D01*
X136204182Y-124326901D01*
X136068944Y-124300000D01*
X135931056Y-124300000D01*
X135795818Y-124326901D01*
X135668426Y-124379668D01*
X135553776Y-124456274D01*
X135456274Y-124553776D01*
X135379668Y-124668426D01*
X135369878Y-124692061D01*
X134908012Y-124230195D01*
X134890790Y-124209210D01*
X134807042Y-124140479D01*
X134711494Y-124089408D01*
X134607819Y-124057958D01*
X134527018Y-124050000D01*
X134527008Y-124050000D01*
X134500000Y-124047340D01*
X134472992Y-124050000D01*
X133683877Y-124050000D01*
X133700000Y-123968944D01*
X133700000Y-123831056D01*
X133673099Y-123695818D01*
X133620332Y-123568426D01*
X133543726Y-123453776D01*
X133446224Y-123356274D01*
X133331574Y-123279668D01*
X133204182Y-123226901D01*
X133068944Y-123200000D01*
X132931056Y-123200000D01*
X132795818Y-123226901D01*
X132668426Y-123279668D01*
X132553776Y-123356274D01*
X132550000Y-123360050D01*
X132546224Y-123356274D01*
X132431574Y-123279668D01*
X132304182Y-123226901D01*
X132168944Y-123200000D01*
X132031056Y-123200000D01*
X131895818Y-123226901D01*
X131768426Y-123279668D01*
X131700000Y-123325388D01*
X131631574Y-123279668D01*
X131504182Y-123226901D01*
X131368944Y-123200000D01*
X131231056Y-123200000D01*
X131095818Y-123226901D01*
X130988153Y-123271497D01*
X130973099Y-123195818D01*
X130920332Y-123068426D01*
X130843726Y-122953776D01*
X130746224Y-122856274D01*
X130631574Y-122779668D01*
X130504182Y-122726901D01*
X130392876Y-122704760D01*
X130400000Y-122668944D01*
X130400000Y-122531056D01*
X130373099Y-122395818D01*
X130320332Y-122268426D01*
X130243726Y-122153776D01*
X130221006Y-122131056D01*
X131400000Y-122131056D01*
X131400000Y-122268944D01*
X131426901Y-122404182D01*
X131479668Y-122531574D01*
X131556274Y-122646224D01*
X131653776Y-122743726D01*
X131768426Y-122820332D01*
X131895818Y-122873099D01*
X132031056Y-122900000D01*
X132168944Y-122900000D01*
X132304182Y-122873099D01*
X132431574Y-122820332D01*
X132490805Y-122780755D01*
X132553776Y-122843726D01*
X132668426Y-122920332D01*
X132795818Y-122973099D01*
X132931056Y-123000000D01*
X133068944Y-123000000D01*
X133204182Y-122973099D01*
X133331574Y-122920332D01*
X133446224Y-122843726D01*
X133543726Y-122746224D01*
X133620332Y-122631574D01*
X133673099Y-122504182D01*
X133700000Y-122368944D01*
X133700000Y-122231056D01*
X133673099Y-122095818D01*
X133620332Y-121968426D01*
X133543726Y-121853776D01*
X133446224Y-121756274D01*
X133331574Y-121679668D01*
X133214214Y-121631056D01*
X137100000Y-121631056D01*
X137100000Y-121768944D01*
X137126901Y-121904182D01*
X137179668Y-122031574D01*
X137256274Y-122146224D01*
X137353776Y-122243726D01*
X137468426Y-122320332D01*
X137595818Y-122373099D01*
X137731056Y-122400000D01*
X137868944Y-122400000D01*
X138004182Y-122373099D01*
X138131574Y-122320332D01*
X138246224Y-122243726D01*
X138343726Y-122146224D01*
X138420332Y-122031574D01*
X138473099Y-121904182D01*
X138500000Y-121768944D01*
X138500000Y-121908039D01*
X138549958Y-122159196D01*
X138647955Y-122395781D01*
X138790224Y-122608702D01*
X138971298Y-122789776D01*
X139184219Y-122932045D01*
X139420804Y-123030042D01*
X139671961Y-123080000D01*
X139928039Y-123080000D01*
X140179196Y-123030042D01*
X140415781Y-122932045D01*
X140628702Y-122789776D01*
X140809776Y-122608702D01*
X140952045Y-122395781D01*
X141050042Y-122159196D01*
X141100000Y-121908039D01*
X141100000Y-121651961D01*
X141050042Y-121400804D01*
X140952045Y-121164219D01*
X140809776Y-120951298D01*
X140628702Y-120770224D01*
X140415781Y-120627955D01*
X140179196Y-120529958D01*
X139928039Y-120480000D01*
X139671961Y-120480000D01*
X139420804Y-120529958D01*
X139184219Y-120627955D01*
X138971298Y-120770224D01*
X138790224Y-120951298D01*
X138647955Y-121164219D01*
X138549958Y-121400804D01*
X138500000Y-121651961D01*
X138500000Y-121631056D01*
X138473099Y-121495818D01*
X138420332Y-121368426D01*
X138343726Y-121253776D01*
X138246224Y-121156274D01*
X138131574Y-121079668D01*
X138004182Y-121026901D01*
X137868944Y-121000000D01*
X137731056Y-121000000D01*
X137595818Y-121026901D01*
X137468426Y-121079668D01*
X137353776Y-121156274D01*
X137256274Y-121253776D01*
X137179668Y-121368426D01*
X137126901Y-121495818D01*
X137100000Y-121631056D01*
X133214214Y-121631056D01*
X133204182Y-121626901D01*
X133068944Y-121600000D01*
X132931056Y-121600000D01*
X132795818Y-121626901D01*
X132668426Y-121679668D01*
X132609195Y-121719245D01*
X132546224Y-121656274D01*
X132431574Y-121579668D01*
X132304182Y-121526901D01*
X132168944Y-121500000D01*
X132031056Y-121500000D01*
X131895818Y-121526901D01*
X131768426Y-121579668D01*
X131653776Y-121656274D01*
X131556274Y-121753776D01*
X131479668Y-121868426D01*
X131426901Y-121995818D01*
X131400000Y-122131056D01*
X130221006Y-122131056D01*
X130146224Y-122056274D01*
X130031574Y-121979668D01*
X129904182Y-121926901D01*
X129768944Y-121900000D01*
X129631056Y-121900000D01*
X129495818Y-121926901D01*
X129368426Y-121979668D01*
X129253776Y-122056274D01*
X129156274Y-122153776D01*
X129079668Y-122268426D01*
X129026901Y-122395818D01*
X129000000Y-122531056D01*
X129000000Y-122668944D01*
X129026901Y-122804182D01*
X129079668Y-122931574D01*
X129156274Y-123046224D01*
X129253776Y-123143726D01*
X129368426Y-123220332D01*
X129495818Y-123273099D01*
X129607124Y-123295240D01*
X129600000Y-123331056D01*
X129600000Y-123468944D01*
X129626901Y-123604182D01*
X129679668Y-123731574D01*
X129756274Y-123846224D01*
X129853776Y-123943726D01*
X129968426Y-124020332D01*
X130040052Y-124050000D01*
X129627817Y-124050000D01*
X129397797Y-123819980D01*
X129373099Y-123695818D01*
X129320332Y-123568426D01*
X129243726Y-123453776D01*
X129146224Y-123356274D01*
X129031574Y-123279668D01*
X128904182Y-123226901D01*
X128768944Y-123200000D01*
X128700000Y-123200000D01*
X128700000Y-122724549D01*
X128702418Y-122699999D01*
X128700000Y-122675449D01*
X128700000Y-122675440D01*
X128692765Y-122601983D01*
X128664175Y-122507733D01*
X128617746Y-122420871D01*
X128555264Y-122344736D01*
X128536186Y-122329079D01*
X128170928Y-121963823D01*
X128155264Y-121944736D01*
X128079129Y-121882254D01*
X127992267Y-121835825D01*
X127898017Y-121807235D01*
X127824560Y-121800000D01*
X127800000Y-121797581D01*
X127775440Y-121800000D01*
X127389950Y-121800000D01*
X127346224Y-121756274D01*
X127231574Y-121679668D01*
X127104182Y-121626901D01*
X126968944Y-121600000D01*
X126831056Y-121600000D01*
X126695818Y-121626901D01*
X126568426Y-121679668D01*
X126453776Y-121756274D01*
X126356274Y-121853776D01*
X126279668Y-121968426D01*
X126226901Y-122095818D01*
X126200000Y-122231056D01*
X126200000Y-122368944D01*
X126226901Y-122504182D01*
X126265870Y-122598263D01*
X126265045Y-122598704D01*
X126173683Y-122673683D01*
X126154891Y-122696581D01*
X125696581Y-123154892D01*
X125673684Y-123173683D01*
X125598705Y-123265045D01*
X125554718Y-123347340D01*
X125551243Y-123353841D01*
X125552419Y-123050000D01*
X125542765Y-122951983D01*
X125514175Y-122857733D01*
X125467746Y-122770871D01*
X125405264Y-122694736D01*
X125329129Y-122632254D01*
X125242267Y-122585825D01*
X125148017Y-122557235D01*
X125050000Y-122547581D01*
X124425000Y-122550000D01*
X124300000Y-122675000D01*
X124300000Y-123800000D01*
X124320000Y-123800000D01*
X124320000Y-124000000D01*
X124300000Y-124000000D01*
X124300000Y-124020000D01*
X124100000Y-124020000D01*
X124100000Y-124000000D01*
X124080000Y-124000000D01*
X124080000Y-123800000D01*
X124100000Y-123800000D01*
X124100000Y-122675000D01*
X123975000Y-122550000D01*
X123500000Y-122548162D01*
X123500000Y-121431056D01*
X124200000Y-121431056D01*
X124200000Y-121568944D01*
X124226901Y-121704182D01*
X124279668Y-121831574D01*
X124356274Y-121946224D01*
X124453776Y-122043726D01*
X124568426Y-122120332D01*
X124695818Y-122173099D01*
X124831056Y-122200000D01*
X124968944Y-122200000D01*
X125104182Y-122173099D01*
X125231574Y-122120332D01*
X125346224Y-122043726D01*
X125443726Y-121946224D01*
X125520332Y-121831574D01*
X125573099Y-121704182D01*
X125600000Y-121568944D01*
X125600000Y-121431056D01*
X125573099Y-121295818D01*
X125520332Y-121168426D01*
X125443726Y-121053776D01*
X125346224Y-120956274D01*
X125231574Y-120879668D01*
X125104182Y-120826901D01*
X124968944Y-120800000D01*
X124831056Y-120800000D01*
X124695818Y-120826901D01*
X124568426Y-120879668D01*
X124453776Y-120956274D01*
X124356274Y-121053776D01*
X124279668Y-121168426D01*
X124226901Y-121295818D01*
X124200000Y-121431056D01*
X123500000Y-121431056D01*
X123500000Y-120729473D01*
X123502903Y-120699999D01*
X123491318Y-120582379D01*
X123457010Y-120469279D01*
X123401296Y-120365045D01*
X123326317Y-120273683D01*
X123303420Y-120254892D01*
X122900000Y-119851472D01*
X122900000Y-119031056D01*
X129000000Y-119031056D01*
X129000000Y-119168944D01*
X129026901Y-119304182D01*
X129079668Y-119431574D01*
X129156274Y-119546224D01*
X129253776Y-119643726D01*
X129368426Y-119720332D01*
X129495818Y-119773099D01*
X129631056Y-119800000D01*
X129768944Y-119800000D01*
X129904182Y-119773099D01*
X130031574Y-119720332D01*
X130146224Y-119643726D01*
X130243726Y-119546224D01*
X130320332Y-119431574D01*
X130373099Y-119304182D01*
X130400000Y-119168944D01*
X130400000Y-119131056D01*
X131100000Y-119131056D01*
X131100000Y-119268944D01*
X131126901Y-119404182D01*
X131179668Y-119531574D01*
X131256274Y-119646224D01*
X131353776Y-119743726D01*
X131468426Y-119820332D01*
X131595818Y-119873099D01*
X131731056Y-119900000D01*
X131868944Y-119900000D01*
X132004182Y-119873099D01*
X132131574Y-119820332D01*
X132246224Y-119743726D01*
X132343726Y-119646224D01*
X132420332Y-119531574D01*
X132473099Y-119404182D01*
X132500000Y-119268944D01*
X132500000Y-119262003D01*
X132556274Y-119346224D01*
X132653776Y-119443726D01*
X132768426Y-119520332D01*
X132895818Y-119573099D01*
X133031056Y-119600000D01*
X133168944Y-119600000D01*
X133304182Y-119573099D01*
X133405683Y-119531056D01*
X134500000Y-119531056D01*
X134500000Y-119668944D01*
X134526901Y-119804182D01*
X134579668Y-119931574D01*
X134656274Y-120046224D01*
X134753776Y-120143726D01*
X134868426Y-120220332D01*
X134995818Y-120273099D01*
X135131056Y-120300000D01*
X135268944Y-120300000D01*
X135404182Y-120273099D01*
X135531574Y-120220332D01*
X135646224Y-120143726D01*
X135658894Y-120131056D01*
X141100000Y-120131056D01*
X141100000Y-120268944D01*
X141126901Y-120404182D01*
X141179668Y-120531574D01*
X141256274Y-120646224D01*
X141353776Y-120743726D01*
X141468426Y-120820332D01*
X141595818Y-120873099D01*
X141731056Y-120900000D01*
X141868944Y-120900000D01*
X142004182Y-120873099D01*
X142131574Y-120820332D01*
X142246224Y-120743726D01*
X142343726Y-120646224D01*
X142420332Y-120531574D01*
X142473099Y-120404182D01*
X142500000Y-120268944D01*
X142500000Y-120131056D01*
X142473099Y-119995818D01*
X142420332Y-119868426D01*
X142343726Y-119753776D01*
X142246224Y-119656274D01*
X142131574Y-119579668D01*
X142004182Y-119526901D01*
X141868944Y-119500000D01*
X141731056Y-119500000D01*
X141595818Y-119526901D01*
X141468426Y-119579668D01*
X141353776Y-119656274D01*
X141256274Y-119753776D01*
X141179668Y-119868426D01*
X141126901Y-119995818D01*
X141100000Y-120131056D01*
X135658894Y-120131056D01*
X135743726Y-120046224D01*
X135820332Y-119931574D01*
X135873099Y-119804182D01*
X135900000Y-119668944D01*
X135900000Y-119531056D01*
X135873099Y-119395818D01*
X135820332Y-119268426D01*
X135743726Y-119153776D01*
X135646224Y-119056274D01*
X135531574Y-118979668D01*
X135404182Y-118926901D01*
X135268944Y-118900000D01*
X135131056Y-118900000D01*
X134995818Y-118926901D01*
X134868426Y-118979668D01*
X134753776Y-119056274D01*
X134656274Y-119153776D01*
X134579668Y-119268426D01*
X134526901Y-119395818D01*
X134500000Y-119531056D01*
X133405683Y-119531056D01*
X133431574Y-119520332D01*
X133546224Y-119443726D01*
X133643726Y-119346224D01*
X133720332Y-119231574D01*
X133773099Y-119104182D01*
X133800000Y-118968944D01*
X133800000Y-118831056D01*
X133773099Y-118695818D01*
X133720332Y-118568426D01*
X133643726Y-118453776D01*
X133546224Y-118356274D01*
X133431574Y-118279668D01*
X133304182Y-118226901D01*
X133168944Y-118200000D01*
X133031056Y-118200000D01*
X132895818Y-118226901D01*
X132768426Y-118279668D01*
X132653776Y-118356274D01*
X132556274Y-118453776D01*
X132479668Y-118568426D01*
X132426901Y-118695818D01*
X132400000Y-118831056D01*
X132400000Y-118837997D01*
X132343726Y-118753776D01*
X132246224Y-118656274D01*
X132131574Y-118579668D01*
X132004182Y-118526901D01*
X131868944Y-118500000D01*
X131731056Y-118500000D01*
X131595818Y-118526901D01*
X131468426Y-118579668D01*
X131353776Y-118656274D01*
X131256274Y-118753776D01*
X131179668Y-118868426D01*
X131126901Y-118995818D01*
X131100000Y-119131056D01*
X130400000Y-119131056D01*
X130400000Y-119031056D01*
X130373099Y-118895818D01*
X130320332Y-118768426D01*
X130243726Y-118653776D01*
X130146224Y-118556274D01*
X130031574Y-118479668D01*
X129904182Y-118426901D01*
X129768944Y-118400000D01*
X129631056Y-118400000D01*
X129495818Y-118426901D01*
X129368426Y-118479668D01*
X129253776Y-118556274D01*
X129156274Y-118653776D01*
X129079668Y-118768426D01*
X129026901Y-118895818D01*
X129000000Y-119031056D01*
X122900000Y-119031056D01*
X122900000Y-117831056D01*
X137200000Y-117831056D01*
X137200000Y-117968944D01*
X137226901Y-118104182D01*
X137279668Y-118231574D01*
X137356274Y-118346224D01*
X137453776Y-118443726D01*
X137568426Y-118520332D01*
X137617945Y-118540843D01*
X137600000Y-118631056D01*
X137600000Y-118768944D01*
X137626901Y-118904182D01*
X137679668Y-119031574D01*
X137756274Y-119146224D01*
X137853776Y-119243726D01*
X137968426Y-119320332D01*
X138095818Y-119373099D01*
X138231056Y-119400000D01*
X138368944Y-119400000D01*
X138504182Y-119373099D01*
X138631574Y-119320332D01*
X138746224Y-119243726D01*
X138843726Y-119146224D01*
X138920332Y-119031574D01*
X138973099Y-118904182D01*
X139000000Y-118768944D01*
X139000000Y-118631056D01*
X138973099Y-118495818D01*
X138920332Y-118368426D01*
X138843726Y-118253776D01*
X138746224Y-118156274D01*
X138631574Y-118079668D01*
X138582055Y-118059157D01*
X138600000Y-117968944D01*
X138600000Y-117864972D01*
X138615789Y-117884211D01*
X138676697Y-117934197D01*
X138746186Y-117971340D01*
X138821586Y-117994212D01*
X138900000Y-118001935D01*
X140700000Y-118001935D01*
X140778414Y-117994212D01*
X140853814Y-117971340D01*
X140923303Y-117934197D01*
X140984211Y-117884211D01*
X141034197Y-117823303D01*
X141071340Y-117753814D01*
X141094212Y-117678414D01*
X141101935Y-117600000D01*
X141101935Y-115800000D01*
X141094212Y-115721586D01*
X141071340Y-115646186D01*
X141070944Y-115645445D01*
X141131574Y-115620332D01*
X141246224Y-115543726D01*
X141343726Y-115446224D01*
X141420332Y-115331574D01*
X141473099Y-115204182D01*
X141500000Y-115068944D01*
X141500000Y-114931056D01*
X141473099Y-114795818D01*
X141420332Y-114668426D01*
X141343726Y-114553776D01*
X141246224Y-114456274D01*
X141131574Y-114379668D01*
X141004182Y-114326901D01*
X140868944Y-114300000D01*
X140731056Y-114300000D01*
X140595818Y-114326901D01*
X140468426Y-114379668D01*
X140353776Y-114456274D01*
X140256274Y-114553776D01*
X140179668Y-114668426D01*
X140126901Y-114795818D01*
X140100000Y-114931056D01*
X140100000Y-115068944D01*
X140126901Y-115204182D01*
X140179668Y-115331574D01*
X140224095Y-115398065D01*
X138900000Y-115398065D01*
X138821586Y-115405788D01*
X138746186Y-115428660D01*
X138676697Y-115465803D01*
X138615789Y-115515789D01*
X138565803Y-115576697D01*
X138528660Y-115646186D01*
X138505788Y-115721586D01*
X138498065Y-115800000D01*
X138498065Y-117535101D01*
X138443726Y-117453776D01*
X138346224Y-117356274D01*
X138231574Y-117279668D01*
X138104182Y-117226901D01*
X137968944Y-117200000D01*
X137831056Y-117200000D01*
X137695818Y-117226901D01*
X137568426Y-117279668D01*
X137453776Y-117356274D01*
X137356274Y-117453776D01*
X137279668Y-117568426D01*
X137226901Y-117695818D01*
X137200000Y-117831056D01*
X122900000Y-117831056D01*
X122900000Y-114631056D01*
X123000000Y-114631056D01*
X123000000Y-114768944D01*
X123026901Y-114904182D01*
X123079668Y-115031574D01*
X123156274Y-115146224D01*
X123253776Y-115243726D01*
X123368426Y-115320332D01*
X123495818Y-115373099D01*
X123631056Y-115400000D01*
X123768944Y-115400000D01*
X123904182Y-115373099D01*
X124031574Y-115320332D01*
X124146224Y-115243726D01*
X124243726Y-115146224D01*
X124320332Y-115031574D01*
X124373099Y-114904182D01*
X124400000Y-114768944D01*
X124400000Y-114631056D01*
X124373099Y-114495818D01*
X124320332Y-114368426D01*
X124243726Y-114253776D01*
X124221006Y-114231056D01*
X125900000Y-114231056D01*
X125900000Y-114368944D01*
X125926901Y-114504182D01*
X125979668Y-114631574D01*
X126025388Y-114700000D01*
X125979668Y-114768426D01*
X125926901Y-114895818D01*
X125900000Y-115031056D01*
X125900000Y-115168944D01*
X125926901Y-115304182D01*
X125979668Y-115431574D01*
X126056274Y-115546224D01*
X126110050Y-115600000D01*
X126056274Y-115653776D01*
X125979668Y-115768426D01*
X125926901Y-115895818D01*
X125900000Y-116031056D01*
X125900000Y-116168944D01*
X125926901Y-116304182D01*
X125979668Y-116431574D01*
X126056274Y-116546224D01*
X126153776Y-116643726D01*
X126268426Y-116720332D01*
X126395818Y-116773099D01*
X126531056Y-116800000D01*
X126668944Y-116800000D01*
X126804182Y-116773099D01*
X126931574Y-116720332D01*
X127046224Y-116643726D01*
X127143726Y-116546224D01*
X127220332Y-116431574D01*
X127273099Y-116304182D01*
X127300000Y-116168944D01*
X127300000Y-116031056D01*
X127273099Y-115895818D01*
X127220332Y-115768426D01*
X127143726Y-115653776D01*
X127089950Y-115600000D01*
X127143726Y-115546224D01*
X127220332Y-115431574D01*
X127273099Y-115304182D01*
X127300000Y-115168944D01*
X127300000Y-115031056D01*
X133100000Y-115031056D01*
X133100000Y-115168944D01*
X133126901Y-115304182D01*
X133179668Y-115431574D01*
X133256274Y-115546224D01*
X133353776Y-115643726D01*
X133468426Y-115720332D01*
X133595818Y-115773099D01*
X133731056Y-115800000D01*
X133868944Y-115800000D01*
X134004182Y-115773099D01*
X134131574Y-115720332D01*
X134246224Y-115643726D01*
X134343726Y-115546224D01*
X134420332Y-115431574D01*
X134473099Y-115304182D01*
X134500000Y-115168944D01*
X134500000Y-115031056D01*
X134473099Y-114895818D01*
X134420332Y-114768426D01*
X134343726Y-114653776D01*
X134246224Y-114556274D01*
X134131574Y-114479668D01*
X134004182Y-114426901D01*
X133868944Y-114400000D01*
X133731056Y-114400000D01*
X133595818Y-114426901D01*
X133468426Y-114479668D01*
X133353776Y-114556274D01*
X133256274Y-114653776D01*
X133179668Y-114768426D01*
X133126901Y-114895818D01*
X133100000Y-115031056D01*
X127300000Y-115031056D01*
X127273099Y-114895818D01*
X127220332Y-114768426D01*
X127174612Y-114700000D01*
X127220332Y-114631574D01*
X127273099Y-114504182D01*
X127300000Y-114368944D01*
X127300000Y-114231056D01*
X127273099Y-114095818D01*
X127220332Y-113968426D01*
X127143726Y-113853776D01*
X127046224Y-113756274D01*
X126931574Y-113679668D01*
X126804182Y-113626901D01*
X126668944Y-113600000D01*
X126531056Y-113600000D01*
X126395818Y-113626901D01*
X126268426Y-113679668D01*
X126153776Y-113756274D01*
X126056274Y-113853776D01*
X125979668Y-113968426D01*
X125926901Y-114095818D01*
X125900000Y-114231056D01*
X124221006Y-114231056D01*
X124146224Y-114156274D01*
X124031574Y-114079668D01*
X123904182Y-114026901D01*
X123768944Y-114000000D01*
X123631056Y-114000000D01*
X123495818Y-114026901D01*
X123368426Y-114079668D01*
X123253776Y-114156274D01*
X123156274Y-114253776D01*
X123079668Y-114368426D01*
X123026901Y-114495818D01*
X123000000Y-114631056D01*
X122900000Y-114631056D01*
X122900000Y-112744802D01*
X123018767Y-112721178D01*
X123155258Y-112664641D01*
X123278097Y-112582563D01*
X123329604Y-112531056D01*
X129200000Y-112531056D01*
X129200000Y-112668944D01*
X129226901Y-112804182D01*
X129279668Y-112931574D01*
X129356274Y-113046224D01*
X129453776Y-113143726D01*
X129568426Y-113220332D01*
X129695818Y-113273099D01*
X129831056Y-113300000D01*
X129968944Y-113300000D01*
X130104182Y-113273099D01*
X130231574Y-113220332D01*
X130346224Y-113143726D01*
X130443726Y-113046224D01*
X130520332Y-112931574D01*
X130550000Y-112859948D01*
X130579668Y-112931574D01*
X130656274Y-113046224D01*
X130753776Y-113143726D01*
X130868426Y-113220332D01*
X130995818Y-113273099D01*
X131131056Y-113300000D01*
X131268944Y-113300000D01*
X131404182Y-113273099D01*
X131531574Y-113220332D01*
X131577095Y-113189916D01*
X131550000Y-113326131D01*
X131550000Y-113473869D01*
X131578822Y-113618767D01*
X131635359Y-113755258D01*
X131717437Y-113878097D01*
X131821903Y-113982563D01*
X131944742Y-114064641D01*
X132081233Y-114121178D01*
X132226131Y-114150000D01*
X132373869Y-114150000D01*
X132518767Y-114121178D01*
X132655258Y-114064641D01*
X132778097Y-113982563D01*
X132882563Y-113878097D01*
X132964641Y-113755258D01*
X133021178Y-113618767D01*
X133050000Y-113473869D01*
X133050000Y-113326131D01*
X133021178Y-113181233D01*
X132964641Y-113044742D01*
X132882563Y-112921903D01*
X132778097Y-112817437D01*
X132656416Y-112736133D01*
X132726131Y-112750000D01*
X132873869Y-112750000D01*
X133018767Y-112721178D01*
X133155258Y-112664641D01*
X133278097Y-112582563D01*
X133382563Y-112478097D01*
X133464641Y-112355258D01*
X133521178Y-112218767D01*
X133525021Y-112199449D01*
X133556274Y-112246224D01*
X133653776Y-112343726D01*
X133768426Y-112420332D01*
X133895818Y-112473099D01*
X134013535Y-112496515D01*
X133956274Y-112553776D01*
X133879668Y-112668426D01*
X133826901Y-112795818D01*
X133800000Y-112931056D01*
X133800000Y-113068944D01*
X133826901Y-113204182D01*
X133879668Y-113331574D01*
X133956274Y-113446224D01*
X134053776Y-113543726D01*
X134168426Y-113620332D01*
X134295818Y-113673099D01*
X134431056Y-113700000D01*
X134568944Y-113700000D01*
X134634040Y-113687051D01*
X134579668Y-113768426D01*
X134526901Y-113895818D01*
X134500000Y-114031056D01*
X134500000Y-114168944D01*
X134526901Y-114304182D01*
X134579668Y-114431574D01*
X134656274Y-114546224D01*
X134753776Y-114643726D01*
X134868426Y-114720332D01*
X134995818Y-114773099D01*
X135131056Y-114800000D01*
X135268944Y-114800000D01*
X135404182Y-114773099D01*
X135505683Y-114731056D01*
X137500000Y-114731056D01*
X137500000Y-114868944D01*
X137526901Y-115004182D01*
X137579668Y-115131574D01*
X137656274Y-115246224D01*
X137753776Y-115343726D01*
X137868426Y-115420332D01*
X137995818Y-115473099D01*
X138131056Y-115500000D01*
X138268944Y-115500000D01*
X138404182Y-115473099D01*
X138531574Y-115420332D01*
X138646224Y-115343726D01*
X138743726Y-115246224D01*
X138820332Y-115131574D01*
X138873099Y-115004182D01*
X138900000Y-114868944D01*
X138900000Y-114731056D01*
X138873099Y-114595818D01*
X138820332Y-114468426D01*
X138743726Y-114353776D01*
X138646224Y-114256274D01*
X138531574Y-114179668D01*
X138404182Y-114126901D01*
X138268944Y-114100000D01*
X138131056Y-114100000D01*
X137995818Y-114126901D01*
X137868426Y-114179668D01*
X137753776Y-114256274D01*
X137656274Y-114353776D01*
X137579668Y-114468426D01*
X137526901Y-114595818D01*
X137500000Y-114731056D01*
X135505683Y-114731056D01*
X135531574Y-114720332D01*
X135646224Y-114643726D01*
X135743726Y-114546224D01*
X135820332Y-114431574D01*
X135873099Y-114304182D01*
X135900000Y-114168944D01*
X135900000Y-114031056D01*
X135873099Y-113895818D01*
X135820332Y-113768426D01*
X135743726Y-113653776D01*
X135646224Y-113556274D01*
X135531574Y-113479668D01*
X135404182Y-113426901D01*
X135268944Y-113400000D01*
X135131056Y-113400000D01*
X135065960Y-113412949D01*
X135120332Y-113331574D01*
X135173099Y-113204182D01*
X135200000Y-113068944D01*
X135200000Y-112931056D01*
X135173099Y-112795818D01*
X135120332Y-112668426D01*
X135043726Y-112553776D01*
X134946224Y-112456274D01*
X134831574Y-112379668D01*
X134704182Y-112326901D01*
X134586465Y-112303485D01*
X134643726Y-112246224D01*
X134720332Y-112131574D01*
X134773099Y-112004182D01*
X134800000Y-111868944D01*
X134800000Y-111731056D01*
X134773099Y-111595818D01*
X134720332Y-111468426D01*
X134643726Y-111353776D01*
X134546224Y-111256274D01*
X134431574Y-111179668D01*
X134304182Y-111126901D01*
X134168944Y-111100000D01*
X134031056Y-111100000D01*
X133895818Y-111126901D01*
X133768426Y-111179668D01*
X133653776Y-111256274D01*
X133556274Y-111353776D01*
X133479668Y-111468426D01*
X133428834Y-111591152D01*
X133382563Y-111521903D01*
X133278097Y-111417437D01*
X133155258Y-111335359D01*
X133018767Y-111278822D01*
X132873869Y-111250000D01*
X132726131Y-111250000D01*
X132581233Y-111278822D01*
X132444742Y-111335359D01*
X132396075Y-111367877D01*
X132420332Y-111331574D01*
X132473099Y-111204182D01*
X132500000Y-111068944D01*
X132500000Y-110931056D01*
X132473099Y-110795818D01*
X132420332Y-110668426D01*
X132343726Y-110553776D01*
X132246224Y-110456274D01*
X132208483Y-110431056D01*
X136200000Y-110431056D01*
X136200000Y-110568944D01*
X136226901Y-110704182D01*
X136279668Y-110831574D01*
X136356274Y-110946224D01*
X136453776Y-111043726D01*
X136568426Y-111120332D01*
X136695818Y-111173099D01*
X136831056Y-111200000D01*
X136968944Y-111200000D01*
X137104182Y-111173099D01*
X137231574Y-111120332D01*
X137346224Y-111043726D01*
X137443726Y-110946224D01*
X137520332Y-110831574D01*
X137573099Y-110704182D01*
X137600000Y-110568944D01*
X137600000Y-110431056D01*
X137592289Y-110392289D01*
X137631056Y-110400000D01*
X137768944Y-110400000D01*
X137904182Y-110373099D01*
X138031574Y-110320332D01*
X138146224Y-110243726D01*
X138243726Y-110146224D01*
X138320332Y-110031574D01*
X138373099Y-109904182D01*
X138400000Y-109768944D01*
X138400000Y-109631056D01*
X138373099Y-109495818D01*
X138349970Y-109439980D01*
X138443726Y-109346224D01*
X138520332Y-109231574D01*
X138573099Y-109104182D01*
X138600000Y-108968944D01*
X138600000Y-108831056D01*
X138580109Y-108731056D01*
X139100000Y-108731056D01*
X139100000Y-108868944D01*
X139126901Y-109004182D01*
X139179668Y-109131574D01*
X139256274Y-109246224D01*
X139353776Y-109343726D01*
X139468426Y-109420332D01*
X139595818Y-109473099D01*
X139610931Y-109476105D01*
X139600000Y-109531056D01*
X139600000Y-109668944D01*
X139626901Y-109804182D01*
X139679668Y-109931574D01*
X139756274Y-110046224D01*
X139853776Y-110143726D01*
X139968426Y-110220332D01*
X140095818Y-110273099D01*
X140231056Y-110300000D01*
X140368944Y-110300000D01*
X140504182Y-110273099D01*
X140631574Y-110220332D01*
X140746224Y-110143726D01*
X140843726Y-110046224D01*
X140920332Y-109931574D01*
X140973099Y-109804182D01*
X141000000Y-109668944D01*
X141000000Y-109531056D01*
X140980109Y-109431056D01*
X141100000Y-109431056D01*
X141100000Y-109568944D01*
X141126901Y-109704182D01*
X141179668Y-109831574D01*
X141256274Y-109946224D01*
X141353776Y-110043726D01*
X141468426Y-110120332D01*
X141595818Y-110173099D01*
X141731056Y-110200000D01*
X141868944Y-110200000D01*
X142004182Y-110173099D01*
X142131574Y-110120332D01*
X142246224Y-110043726D01*
X142343726Y-109946224D01*
X142420332Y-109831574D01*
X142473099Y-109704182D01*
X142500000Y-109568944D01*
X142500000Y-109431056D01*
X142473099Y-109295818D01*
X142420332Y-109168426D01*
X142343726Y-109053776D01*
X142246224Y-108956274D01*
X142131574Y-108879668D01*
X142004182Y-108826901D01*
X141868944Y-108800000D01*
X141731056Y-108800000D01*
X141595818Y-108826901D01*
X141468426Y-108879668D01*
X141353776Y-108956274D01*
X141256274Y-109053776D01*
X141179668Y-109168426D01*
X141126901Y-109295818D01*
X141100000Y-109431056D01*
X140980109Y-109431056D01*
X140973099Y-109395818D01*
X140920332Y-109268426D01*
X140843726Y-109153776D01*
X140746224Y-109056274D01*
X140631574Y-108979668D01*
X140504182Y-108926901D01*
X140489069Y-108923895D01*
X140500000Y-108868944D01*
X140500000Y-108731056D01*
X140473099Y-108595818D01*
X140420332Y-108468426D01*
X140343726Y-108353776D01*
X140246224Y-108256274D01*
X140131574Y-108179668D01*
X140004182Y-108126901D01*
X139868944Y-108100000D01*
X139731056Y-108100000D01*
X139595818Y-108126901D01*
X139468426Y-108179668D01*
X139353776Y-108256274D01*
X139256274Y-108353776D01*
X139179668Y-108468426D01*
X139126901Y-108595818D01*
X139100000Y-108731056D01*
X138580109Y-108731056D01*
X138573099Y-108695818D01*
X138520332Y-108568426D01*
X138474612Y-108500000D01*
X138520332Y-108431574D01*
X138573099Y-108304182D01*
X138600000Y-108168944D01*
X138600000Y-108031056D01*
X138573099Y-107895818D01*
X138520332Y-107768426D01*
X138443726Y-107653776D01*
X138346224Y-107556274D01*
X138231574Y-107479668D01*
X138104182Y-107426901D01*
X137968944Y-107400000D01*
X137831056Y-107400000D01*
X137695818Y-107426901D01*
X137568426Y-107479668D01*
X137453776Y-107556274D01*
X137356274Y-107653776D01*
X137279668Y-107768426D01*
X137226901Y-107895818D01*
X137200000Y-108031056D01*
X137200000Y-108168944D01*
X137226901Y-108304182D01*
X137279668Y-108431574D01*
X137325388Y-108500000D01*
X137279668Y-108568426D01*
X137226901Y-108695818D01*
X137200000Y-108831056D01*
X137200000Y-108968944D01*
X137226901Y-109104182D01*
X137250030Y-109160020D01*
X137156274Y-109253776D01*
X137079668Y-109368426D01*
X137026901Y-109495818D01*
X137000000Y-109631056D01*
X137000000Y-109768944D01*
X137007711Y-109807711D01*
X136968944Y-109800000D01*
X136831056Y-109800000D01*
X136695818Y-109826901D01*
X136568426Y-109879668D01*
X136453776Y-109956274D01*
X136356274Y-110053776D01*
X136279668Y-110168426D01*
X136226901Y-110295818D01*
X136200000Y-110431056D01*
X132208483Y-110431056D01*
X132131574Y-110379668D01*
X132004182Y-110326901D01*
X131874136Y-110301033D01*
X131873099Y-110295818D01*
X131820332Y-110168426D01*
X131743726Y-110053776D01*
X131646224Y-109956274D01*
X131531574Y-109879668D01*
X131404182Y-109826901D01*
X131268944Y-109800000D01*
X131131056Y-109800000D01*
X130995818Y-109826901D01*
X130868426Y-109879668D01*
X130753776Y-109956274D01*
X130656274Y-110053776D01*
X130579668Y-110168426D01*
X130526901Y-110295818D01*
X130500000Y-110431056D01*
X130500000Y-110568944D01*
X130526901Y-110704182D01*
X130579668Y-110831574D01*
X130656274Y-110946224D01*
X130753776Y-111043726D01*
X130868426Y-111120332D01*
X130995818Y-111173099D01*
X131125864Y-111198967D01*
X131126901Y-111204182D01*
X131179668Y-111331574D01*
X131256274Y-111446224D01*
X131353776Y-111543726D01*
X131468426Y-111620332D01*
X131595818Y-111673099D01*
X131731056Y-111700000D01*
X131868944Y-111700000D01*
X132004182Y-111673099D01*
X132131574Y-111620332D01*
X132167877Y-111596075D01*
X132135359Y-111644742D01*
X132078822Y-111781233D01*
X132050000Y-111926131D01*
X132050000Y-112073869D01*
X132078822Y-112218767D01*
X132135359Y-112355258D01*
X132217437Y-112478097D01*
X132321903Y-112582563D01*
X132443584Y-112663867D01*
X132373869Y-112650000D01*
X132226131Y-112650000D01*
X132081233Y-112678822D01*
X131944742Y-112735359D01*
X131877906Y-112780017D01*
X131900000Y-112668944D01*
X131900000Y-112531056D01*
X131873099Y-112395818D01*
X131820332Y-112268426D01*
X131743726Y-112153776D01*
X131646224Y-112056274D01*
X131531574Y-111979668D01*
X131404182Y-111926901D01*
X131268944Y-111900000D01*
X131131056Y-111900000D01*
X130995818Y-111926901D01*
X130868426Y-111979668D01*
X130753776Y-112056274D01*
X130656274Y-112153776D01*
X130579668Y-112268426D01*
X130550000Y-112340052D01*
X130520332Y-112268426D01*
X130443726Y-112153776D01*
X130346224Y-112056274D01*
X130231574Y-111979668D01*
X130104182Y-111926901D01*
X129968944Y-111900000D01*
X129831056Y-111900000D01*
X129695818Y-111926901D01*
X129568426Y-111979668D01*
X129453776Y-112056274D01*
X129356274Y-112153776D01*
X129279668Y-112268426D01*
X129226901Y-112395818D01*
X129200000Y-112531056D01*
X123329604Y-112531056D01*
X123382563Y-112478097D01*
X123464641Y-112355258D01*
X123521178Y-112218767D01*
X123550000Y-112073869D01*
X123550000Y-111926131D01*
X123521178Y-111781233D01*
X123464641Y-111644742D01*
X123382563Y-111521903D01*
X123278097Y-111417437D01*
X123155258Y-111335359D01*
X123018767Y-111278822D01*
X122900000Y-111255198D01*
X122900000Y-110031056D01*
X124400000Y-110031056D01*
X124400000Y-110168944D01*
X124426901Y-110304182D01*
X124479668Y-110431574D01*
X124556274Y-110546224D01*
X124653776Y-110643726D01*
X124768426Y-110720332D01*
X124895818Y-110773099D01*
X125031056Y-110800000D01*
X125168944Y-110800000D01*
X125304182Y-110773099D01*
X125431574Y-110720332D01*
X125546224Y-110643726D01*
X125643726Y-110546224D01*
X125720332Y-110431574D01*
X125720546Y-110431056D01*
X127200000Y-110431056D01*
X127200000Y-110568944D01*
X127226901Y-110704182D01*
X127279668Y-110831574D01*
X127356274Y-110946224D01*
X127453776Y-111043726D01*
X127568426Y-111120332D01*
X127695818Y-111173099D01*
X127831056Y-111200000D01*
X127968944Y-111200000D01*
X128104182Y-111173099D01*
X128231574Y-111120332D01*
X128346224Y-111043726D01*
X128400000Y-110989950D01*
X128453776Y-111043726D01*
X128568426Y-111120332D01*
X128695818Y-111173099D01*
X128831056Y-111200000D01*
X128968944Y-111200000D01*
X129104182Y-111173099D01*
X129231574Y-111120332D01*
X129346224Y-111043726D01*
X129443726Y-110946224D01*
X129520332Y-110831574D01*
X129573099Y-110704182D01*
X129600000Y-110568944D01*
X129600000Y-110431056D01*
X129573099Y-110295818D01*
X129520332Y-110168426D01*
X129443726Y-110053776D01*
X129346224Y-109956274D01*
X129231574Y-109879668D01*
X129104182Y-109826901D01*
X128968944Y-109800000D01*
X128831056Y-109800000D01*
X128695818Y-109826901D01*
X128568426Y-109879668D01*
X128453776Y-109956274D01*
X128400000Y-110010050D01*
X128346224Y-109956274D01*
X128231574Y-109879668D01*
X128104182Y-109826901D01*
X127968944Y-109800000D01*
X127831056Y-109800000D01*
X127695818Y-109826901D01*
X127568426Y-109879668D01*
X127453776Y-109956274D01*
X127356274Y-110053776D01*
X127279668Y-110168426D01*
X127226901Y-110295818D01*
X127200000Y-110431056D01*
X125720546Y-110431056D01*
X125773099Y-110304182D01*
X125800000Y-110168944D01*
X125800000Y-110031056D01*
X125773099Y-109895818D01*
X125720332Y-109768426D01*
X125643726Y-109653776D01*
X125546224Y-109556274D01*
X125431574Y-109479668D01*
X125304182Y-109426901D01*
X125168944Y-109400000D01*
X125031056Y-109400000D01*
X124895818Y-109426901D01*
X124768426Y-109479668D01*
X124653776Y-109556274D01*
X124556274Y-109653776D01*
X124479668Y-109768426D01*
X124426901Y-109895818D01*
X124400000Y-110031056D01*
X122900000Y-110031056D01*
X122900000Y-109162003D01*
X122956274Y-109246224D01*
X123053776Y-109343726D01*
X123168426Y-109420332D01*
X123295818Y-109473099D01*
X123431056Y-109500000D01*
X123568944Y-109500000D01*
X123704182Y-109473099D01*
X123831574Y-109420332D01*
X123946224Y-109343726D01*
X124043726Y-109246224D01*
X124120332Y-109131574D01*
X124173099Y-109004182D01*
X124200000Y-108868944D01*
X124200000Y-108731056D01*
X124173099Y-108595818D01*
X124120332Y-108468426D01*
X124043726Y-108353776D01*
X123946224Y-108256274D01*
X123831574Y-108179668D01*
X123704182Y-108126901D01*
X123568944Y-108100000D01*
X123431056Y-108100000D01*
X123295818Y-108126901D01*
X123168426Y-108179668D01*
X123053776Y-108256274D01*
X122956274Y-108353776D01*
X122900000Y-108437997D01*
X122900000Y-107531056D01*
X129200000Y-107531056D01*
X129200000Y-107668944D01*
X129226901Y-107804182D01*
X129279668Y-107931574D01*
X129356274Y-108046224D01*
X129453776Y-108143726D01*
X129568426Y-108220332D01*
X129695818Y-108273099D01*
X129831056Y-108300000D01*
X129968944Y-108300000D01*
X130104182Y-108273099D01*
X130231574Y-108220332D01*
X130346224Y-108143726D01*
X130443726Y-108046224D01*
X130520332Y-107931574D01*
X130573099Y-107804182D01*
X130600000Y-107668944D01*
X130600000Y-107631056D01*
X135700000Y-107631056D01*
X135700000Y-107768944D01*
X135726901Y-107904182D01*
X135779668Y-108031574D01*
X135856274Y-108146224D01*
X135953776Y-108243726D01*
X136068426Y-108320332D01*
X136195818Y-108373099D01*
X136331056Y-108400000D01*
X136468944Y-108400000D01*
X136604182Y-108373099D01*
X136731574Y-108320332D01*
X136846224Y-108243726D01*
X136943726Y-108146224D01*
X137020332Y-108031574D01*
X137073099Y-107904182D01*
X137100000Y-107768944D01*
X137100000Y-107631056D01*
X137073099Y-107495818D01*
X137020332Y-107368426D01*
X136943726Y-107253776D01*
X136846224Y-107156274D01*
X136731574Y-107079668D01*
X136604182Y-107026901D01*
X136468944Y-107000000D01*
X136331056Y-107000000D01*
X136195818Y-107026901D01*
X136068426Y-107079668D01*
X135953776Y-107156274D01*
X135856274Y-107253776D01*
X135779668Y-107368426D01*
X135726901Y-107495818D01*
X135700000Y-107631056D01*
X130600000Y-107631056D01*
X130600000Y-107531056D01*
X130573099Y-107395818D01*
X130520332Y-107268426D01*
X130443726Y-107153776D01*
X130346224Y-107056274D01*
X130231574Y-106979668D01*
X130104182Y-106926901D01*
X129968944Y-106900000D01*
X129831056Y-106900000D01*
X129695818Y-106926901D01*
X129568426Y-106979668D01*
X129453776Y-107056274D01*
X129356274Y-107153776D01*
X129279668Y-107268426D01*
X129226901Y-107395818D01*
X129200000Y-107531056D01*
X122900000Y-107531056D01*
X122900000Y-106431056D01*
X123500000Y-106431056D01*
X123500000Y-106568944D01*
X123526901Y-106704182D01*
X123579668Y-106831574D01*
X123656274Y-106946224D01*
X123753776Y-107043726D01*
X123868426Y-107120332D01*
X123995818Y-107173099D01*
X124131056Y-107200000D01*
X124268944Y-107200000D01*
X124404182Y-107173099D01*
X124531574Y-107120332D01*
X124646224Y-107043726D01*
X124743726Y-106946224D01*
X124820332Y-106831574D01*
X124873099Y-106704182D01*
X124900000Y-106568944D01*
X124900000Y-106526131D01*
X125450000Y-106526131D01*
X125450000Y-106673869D01*
X125478822Y-106818767D01*
X125535359Y-106955258D01*
X125617437Y-107078097D01*
X125721903Y-107182563D01*
X125844742Y-107264641D01*
X125981233Y-107321178D01*
X126126131Y-107350000D01*
X126273869Y-107350000D01*
X126418767Y-107321178D01*
X126555258Y-107264641D01*
X126678097Y-107182563D01*
X126782563Y-107078097D01*
X126864641Y-106955258D01*
X126921178Y-106818767D01*
X126938624Y-106731056D01*
X133600000Y-106731056D01*
X133600000Y-106868944D01*
X133626901Y-107004182D01*
X133679668Y-107131574D01*
X133756274Y-107246224D01*
X133853776Y-107343726D01*
X133968426Y-107420332D01*
X134095818Y-107473099D01*
X134231056Y-107500000D01*
X134368944Y-107500000D01*
X134504182Y-107473099D01*
X134631574Y-107420332D01*
X134746224Y-107343726D01*
X134843726Y-107246224D01*
X134920332Y-107131574D01*
X134973099Y-107004182D01*
X135000000Y-106868944D01*
X135000000Y-106731056D01*
X134973099Y-106595818D01*
X134920332Y-106468426D01*
X134843726Y-106353776D01*
X134746224Y-106256274D01*
X134631574Y-106179668D01*
X134504182Y-106126901D01*
X134368944Y-106100000D01*
X134231056Y-106100000D01*
X134095818Y-106126901D01*
X133968426Y-106179668D01*
X133853776Y-106256274D01*
X133756274Y-106353776D01*
X133679668Y-106468426D01*
X133626901Y-106595818D01*
X133600000Y-106731056D01*
X126938624Y-106731056D01*
X126950000Y-106673869D01*
X126950000Y-106526131D01*
X126921178Y-106381233D01*
X126864641Y-106244742D01*
X126782563Y-106121903D01*
X126678097Y-106017437D01*
X126555258Y-105935359D01*
X126544870Y-105931056D01*
X129100000Y-105931056D01*
X129100000Y-106068944D01*
X129126901Y-106204182D01*
X129179668Y-106331574D01*
X129256274Y-106446224D01*
X129353776Y-106543726D01*
X129468426Y-106620332D01*
X129595818Y-106673099D01*
X129731056Y-106700000D01*
X129868944Y-106700000D01*
X130004182Y-106673099D01*
X130131574Y-106620332D01*
X130246224Y-106543726D01*
X130343726Y-106446224D01*
X130420332Y-106331574D01*
X130434404Y-106297600D01*
X130468426Y-106320332D01*
X130595818Y-106373099D01*
X130731056Y-106400000D01*
X130868944Y-106400000D01*
X131004182Y-106373099D01*
X131131574Y-106320332D01*
X131246224Y-106243726D01*
X131343726Y-106146224D01*
X131420332Y-106031574D01*
X131473099Y-105904182D01*
X131500000Y-105768944D01*
X131500000Y-105631056D01*
X131473099Y-105495818D01*
X131420332Y-105368426D01*
X131343726Y-105253776D01*
X131321006Y-105231056D01*
X131800000Y-105231056D01*
X131800000Y-105368944D01*
X131826901Y-105504182D01*
X131879668Y-105631574D01*
X131956274Y-105746224D01*
X132053776Y-105843726D01*
X132168426Y-105920332D01*
X132295818Y-105973099D01*
X132431056Y-106000000D01*
X132568944Y-106000000D01*
X132704182Y-105973099D01*
X132831574Y-105920332D01*
X132946224Y-105843726D01*
X133043726Y-105746224D01*
X133120332Y-105631574D01*
X133173099Y-105504182D01*
X133200000Y-105368944D01*
X133200000Y-105231056D01*
X133173099Y-105095818D01*
X133120332Y-104968426D01*
X133043726Y-104853776D01*
X132946224Y-104756274D01*
X132831574Y-104679668D01*
X132704182Y-104626901D01*
X132568944Y-104600000D01*
X132431056Y-104600000D01*
X132295818Y-104626901D01*
X132168426Y-104679668D01*
X132053776Y-104756274D01*
X131956274Y-104853776D01*
X131879668Y-104968426D01*
X131826901Y-105095818D01*
X131800000Y-105231056D01*
X131321006Y-105231056D01*
X131246224Y-105156274D01*
X131131574Y-105079668D01*
X131004182Y-105026901D01*
X130868944Y-105000000D01*
X130731056Y-105000000D01*
X130595818Y-105026901D01*
X130587816Y-105030215D01*
X130600000Y-104968964D01*
X130600000Y-104831076D01*
X130573099Y-104695838D01*
X130520332Y-104568446D01*
X130443726Y-104453796D01*
X130346224Y-104356294D01*
X130231574Y-104279688D01*
X130104182Y-104226921D01*
X129968944Y-104200020D01*
X129831056Y-104200020D01*
X129695818Y-104226921D01*
X129568426Y-104279688D01*
X129453776Y-104356294D01*
X129356274Y-104453796D01*
X129279668Y-104568446D01*
X129226901Y-104695838D01*
X129200000Y-104831076D01*
X129200000Y-104968964D01*
X129226901Y-105104202D01*
X129279668Y-105231594D01*
X129356274Y-105346244D01*
X129421232Y-105411202D01*
X129353776Y-105456274D01*
X129256274Y-105553776D01*
X129179668Y-105668426D01*
X129126901Y-105795818D01*
X129100000Y-105931056D01*
X126544870Y-105931056D01*
X126418767Y-105878822D01*
X126273869Y-105850000D01*
X126126131Y-105850000D01*
X125981233Y-105878822D01*
X125844742Y-105935359D01*
X125721903Y-106017437D01*
X125617437Y-106121903D01*
X125535359Y-106244742D01*
X125478822Y-106381233D01*
X125450000Y-106526131D01*
X124900000Y-106526131D01*
X124900000Y-106431056D01*
X124873099Y-106295818D01*
X124820332Y-106168426D01*
X124743726Y-106053776D01*
X124646224Y-105956274D01*
X124531574Y-105879668D01*
X124404182Y-105826901D01*
X124268944Y-105800000D01*
X124131056Y-105800000D01*
X123995818Y-105826901D01*
X123868426Y-105879668D01*
X123753776Y-105956274D01*
X123656274Y-106053776D01*
X123579668Y-106168426D01*
X123526901Y-106295818D01*
X123500000Y-106431056D01*
X122900000Y-106431056D01*
X122900000Y-104531056D01*
X123800000Y-104531056D01*
X123800000Y-104668944D01*
X123826901Y-104804182D01*
X123879668Y-104931574D01*
X123956274Y-105046224D01*
X124053776Y-105143726D01*
X124168426Y-105220332D01*
X124295818Y-105273099D01*
X124431056Y-105300000D01*
X124568944Y-105300000D01*
X124704182Y-105273099D01*
X124831574Y-105220332D01*
X124946224Y-105143726D01*
X125043726Y-105046224D01*
X125120332Y-104931574D01*
X125173099Y-104804182D01*
X125200000Y-104668944D01*
X125200000Y-104531056D01*
X125173099Y-104395818D01*
X125120332Y-104268426D01*
X125043726Y-104153776D01*
X124946224Y-104056274D01*
X124831574Y-103979668D01*
X124704182Y-103926901D01*
X124568944Y-103900000D01*
X124431056Y-103900000D01*
X124295818Y-103926901D01*
X124168426Y-103979668D01*
X124053776Y-104056274D01*
X123956274Y-104153776D01*
X123879668Y-104268426D01*
X123826901Y-104395818D01*
X123800000Y-104531056D01*
X122900000Y-104531056D01*
X122900000Y-102300000D01*
X125365255Y-102300000D01*
X125417437Y-102378097D01*
G36*
X146353776Y-102443726D02*
G01*
X146468426Y-102520332D01*
X146595818Y-102573099D01*
X146731056Y-102600000D01*
X146868944Y-102600000D01*
X147004182Y-102573099D01*
X147131574Y-102520332D01*
X147246224Y-102443726D01*
X147289950Y-102400000D01*
X149200000Y-102400000D01*
X149200000Y-104600000D01*
X147089950Y-104600000D01*
X147046224Y-104556274D01*
X146931574Y-104479668D01*
X146804182Y-104426901D01*
X146668944Y-104400000D01*
X146531056Y-104400000D01*
X146395818Y-104426901D01*
X146268426Y-104479668D01*
X146153776Y-104556274D01*
X146056274Y-104653776D01*
X145979668Y-104768426D01*
X145926901Y-104895818D01*
X145900000Y-105031056D01*
X145900000Y-105168944D01*
X145926901Y-105304182D01*
X145979668Y-105431574D01*
X146056274Y-105546224D01*
X146153776Y-105643726D01*
X146268426Y-105720332D01*
X146395818Y-105773099D01*
X146531056Y-105800000D01*
X146668944Y-105800000D01*
X146700000Y-105793822D01*
X146700000Y-107066590D01*
X146604182Y-107026901D01*
X146468944Y-107000000D01*
X146331056Y-107000000D01*
X146195818Y-107026901D01*
X146068426Y-107079668D01*
X145953776Y-107156274D01*
X145856274Y-107253776D01*
X145779668Y-107368426D01*
X145726901Y-107495818D01*
X145700000Y-107631056D01*
X145700000Y-107768944D01*
X145726901Y-107904182D01*
X145779668Y-108031574D01*
X145856274Y-108146224D01*
X145953776Y-108243726D01*
X146068426Y-108320332D01*
X146195818Y-108373099D01*
X146331056Y-108400000D01*
X146468944Y-108400000D01*
X146604182Y-108373099D01*
X146700000Y-108333410D01*
X146700000Y-108937997D01*
X146679668Y-108968426D01*
X146626901Y-109095818D01*
X146600000Y-109231056D01*
X146600000Y-109368944D01*
X146626901Y-109504182D01*
X146679668Y-109631574D01*
X146700000Y-109662003D01*
X146700000Y-111831056D01*
X146673099Y-111695818D01*
X146620332Y-111568426D01*
X146543726Y-111453776D01*
X146446224Y-111356274D01*
X146331574Y-111279668D01*
X146204182Y-111226901D01*
X146068944Y-111200000D01*
X145931056Y-111200000D01*
X145795818Y-111226901D01*
X145668426Y-111279668D01*
X145553776Y-111356274D01*
X145456274Y-111453776D01*
X145379668Y-111568426D01*
X145326901Y-111695818D01*
X145300000Y-111831056D01*
X145300000Y-111968944D01*
X145326901Y-112104182D01*
X145379668Y-112231574D01*
X145456274Y-112346224D01*
X145553776Y-112443726D01*
X145668426Y-112520332D01*
X145700000Y-112533410D01*
X145700000Y-112668944D01*
X145726901Y-112804182D01*
X145779668Y-112931574D01*
X145856274Y-113046224D01*
X145953776Y-113143726D01*
X146068426Y-113220332D01*
X146195818Y-113273099D01*
X146331056Y-113300000D01*
X146468944Y-113300000D01*
X146604182Y-113273099D01*
X146700000Y-113233410D01*
X146700000Y-114125388D01*
X146631574Y-114079668D01*
X146504182Y-114026901D01*
X146368944Y-114000000D01*
X146231056Y-114000000D01*
X146095818Y-114026901D01*
X145968426Y-114079668D01*
X145853776Y-114156274D01*
X145756274Y-114253776D01*
X145679668Y-114368426D01*
X145626901Y-114495818D01*
X145600000Y-114631056D01*
X145600000Y-114768944D01*
X145626901Y-114904182D01*
X145679668Y-115031574D01*
X145756274Y-115146224D01*
X145853776Y-115243726D01*
X145968426Y-115320332D01*
X146095818Y-115373099D01*
X146231056Y-115400000D01*
X146368944Y-115400000D01*
X146504182Y-115373099D01*
X146631574Y-115320332D01*
X146700000Y-115274612D01*
X146700000Y-116737997D01*
X146679668Y-116768426D01*
X146626901Y-116895818D01*
X146600000Y-117031056D01*
X146600000Y-117168944D01*
X146626901Y-117304182D01*
X146679668Y-117431574D01*
X146700000Y-117462003D01*
X146700000Y-117837997D01*
X146679668Y-117868426D01*
X146626901Y-117995818D01*
X146600000Y-118131056D01*
X146600000Y-118268944D01*
X146626901Y-118404182D01*
X146679668Y-118531574D01*
X146700000Y-118562003D01*
X146700000Y-118737997D01*
X146643726Y-118653776D01*
X146546224Y-118556274D01*
X146431574Y-118479668D01*
X146304182Y-118426901D01*
X146168944Y-118400000D01*
X146031056Y-118400000D01*
X145895818Y-118426901D01*
X145768426Y-118479668D01*
X145653776Y-118556274D01*
X145556274Y-118653776D01*
X145479668Y-118768426D01*
X145426901Y-118895818D01*
X145400000Y-119031056D01*
X145400000Y-119168944D01*
X145426901Y-119304182D01*
X145479668Y-119431574D01*
X145556274Y-119546224D01*
X145653776Y-119643726D01*
X145768426Y-119720332D01*
X145895818Y-119773099D01*
X146031056Y-119800000D01*
X146168944Y-119800000D01*
X146304182Y-119773099D01*
X146431574Y-119720332D01*
X146546224Y-119643726D01*
X146643726Y-119546224D01*
X146700000Y-119462003D01*
X146700000Y-120926069D01*
X146695818Y-120926901D01*
X146568426Y-120979668D01*
X146453776Y-121056274D01*
X146356274Y-121153776D01*
X146279668Y-121268426D01*
X146226901Y-121395818D01*
X146200000Y-121531056D01*
X146200000Y-121668944D01*
X146226901Y-121804182D01*
X146279668Y-121931574D01*
X146356274Y-122046224D01*
X146453776Y-122143726D01*
X146463166Y-122150000D01*
X146453776Y-122156274D01*
X146356274Y-122253776D01*
X146279668Y-122368426D01*
X146226901Y-122495818D01*
X146200000Y-122631056D01*
X146200000Y-122768944D01*
X146226901Y-122904182D01*
X146279668Y-123031574D01*
X146356274Y-123146224D01*
X146453776Y-123243726D01*
X146568426Y-123320332D01*
X146695818Y-123373099D01*
X146700000Y-123373931D01*
X146700000Y-123600000D01*
X145000000Y-123600000D01*
X145000000Y-122233410D01*
X145031574Y-122220332D01*
X145146224Y-122143726D01*
X145243726Y-122046224D01*
X145320332Y-121931574D01*
X145373099Y-121804182D01*
X145400000Y-121668944D01*
X145400000Y-121531056D01*
X145373099Y-121395818D01*
X145320332Y-121268426D01*
X145243726Y-121153776D01*
X145146224Y-121056274D01*
X145031574Y-120979668D01*
X145000000Y-120966590D01*
X145000000Y-114162003D01*
X145020332Y-114131574D01*
X145073099Y-114004182D01*
X145100000Y-113868944D01*
X145100000Y-113731056D01*
X145073099Y-113595818D01*
X145020332Y-113468426D01*
X145000000Y-113437997D01*
X145000000Y-110473931D01*
X145004182Y-110473099D01*
X145131574Y-110420332D01*
X145246224Y-110343726D01*
X145343726Y-110246224D01*
X145420332Y-110131574D01*
X145473099Y-110004182D01*
X145500000Y-109868944D01*
X145500000Y-109731056D01*
X145473099Y-109595818D01*
X145420332Y-109468426D01*
X145343726Y-109353776D01*
X145246224Y-109256274D01*
X145131574Y-109179668D01*
X145004182Y-109126901D01*
X145000000Y-109126069D01*
X145000000Y-106993822D01*
X145104182Y-106973099D01*
X145231574Y-106920332D01*
X145346224Y-106843726D01*
X145443726Y-106746224D01*
X145520332Y-106631574D01*
X145573099Y-106504182D01*
X145600000Y-106368944D01*
X145600000Y-106231056D01*
X145573099Y-106095818D01*
X145520332Y-105968426D01*
X145443726Y-105853776D01*
X145346224Y-105756274D01*
X145231574Y-105679668D01*
X145104182Y-105626901D01*
X145000000Y-105606178D01*
X145000000Y-105100000D01*
X144992314Y-105021964D01*
X144969552Y-104946927D01*
X144932588Y-104877772D01*
X144882843Y-104817157D01*
X144822228Y-104767412D01*
X144753073Y-104730448D01*
X144678036Y-104707686D01*
X144600000Y-104700000D01*
X143600000Y-104700000D01*
X143600000Y-103900000D01*
X143598079Y-103880491D01*
X143592388Y-103861732D01*
X143583147Y-103844443D01*
X143570711Y-103829289D01*
X143555557Y-103816853D01*
X143538268Y-103807612D01*
X143519509Y-103801921D01*
X143500000Y-103800000D01*
X143293822Y-103800000D01*
X143300000Y-103768944D01*
X143300000Y-103631056D01*
X143273099Y-103495818D01*
X143220332Y-103368426D01*
X143143726Y-103253776D01*
X143046224Y-103156274D01*
X142931574Y-103079668D01*
X142804182Y-103026901D01*
X142668944Y-103000000D01*
X142531056Y-103000000D01*
X142395818Y-103026901D01*
X142268426Y-103079668D01*
X142153776Y-103156274D01*
X142056274Y-103253776D01*
X141979668Y-103368426D01*
X141926901Y-103495818D01*
X141900000Y-103631056D01*
X141900000Y-103768944D01*
X141906178Y-103800000D01*
X141674612Y-103800000D01*
X141720332Y-103731574D01*
X141773099Y-103604182D01*
X141800000Y-103468944D01*
X141800000Y-103331056D01*
X141773099Y-103195818D01*
X141720332Y-103068426D01*
X141643726Y-102953776D01*
X141546224Y-102856274D01*
X141431574Y-102779668D01*
X141304182Y-102726901D01*
X141168944Y-102700000D01*
X141031056Y-102700000D01*
X140895818Y-102726901D01*
X140768426Y-102779668D01*
X140653776Y-102856274D01*
X140556274Y-102953776D01*
X140479668Y-103068426D01*
X140426901Y-103195818D01*
X140400000Y-103331056D01*
X140400000Y-103468944D01*
X140426901Y-103604182D01*
X140479668Y-103731574D01*
X140525388Y-103800000D01*
X139573931Y-103800000D01*
X139573099Y-103795818D01*
X139520332Y-103668426D01*
X139443726Y-103553776D01*
X139346224Y-103456274D01*
X139231574Y-103379668D01*
X139104182Y-103326901D01*
X138968944Y-103300000D01*
X138831056Y-103300000D01*
X138695818Y-103326901D01*
X138568426Y-103379668D01*
X138453776Y-103456274D01*
X138356274Y-103553776D01*
X138279668Y-103668426D01*
X138226901Y-103795818D01*
X138200000Y-103931056D01*
X138200000Y-104068944D01*
X138226901Y-104204182D01*
X138279668Y-104331574D01*
X138300000Y-104362003D01*
X138300000Y-104838063D01*
X138267412Y-104877772D01*
X138230448Y-104946927D01*
X138207686Y-105021964D01*
X138200000Y-105100000D01*
X138200000Y-105300000D01*
X137100000Y-105300000D01*
X137100000Y-102400000D01*
X146310050Y-102400000D01*
X146353776Y-102443726D01*
X146353776Y-102443726D01*
G37*
X146353776Y-102443726D02*
X146468426Y-102520332D01*
X146595818Y-102573099D01*
X146731056Y-102600000D01*
X146868944Y-102600000D01*
X147004182Y-102573099D01*
X147131574Y-102520332D01*
X147246224Y-102443726D01*
X147289950Y-102400000D01*
X149200000Y-102400000D01*
X149200000Y-104600000D01*
X147089950Y-104600000D01*
X147046224Y-104556274D01*
X146931574Y-104479668D01*
X146804182Y-104426901D01*
X146668944Y-104400000D01*
X146531056Y-104400000D01*
X146395818Y-104426901D01*
X146268426Y-104479668D01*
X146153776Y-104556274D01*
X146056274Y-104653776D01*
X145979668Y-104768426D01*
X145926901Y-104895818D01*
X145900000Y-105031056D01*
X145900000Y-105168944D01*
X145926901Y-105304182D01*
X145979668Y-105431574D01*
X146056274Y-105546224D01*
X146153776Y-105643726D01*
X146268426Y-105720332D01*
X146395818Y-105773099D01*
X146531056Y-105800000D01*
X146668944Y-105800000D01*
X146700000Y-105793822D01*
X146700000Y-107066590D01*
X146604182Y-107026901D01*
X146468944Y-107000000D01*
X146331056Y-107000000D01*
X146195818Y-107026901D01*
X146068426Y-107079668D01*
X145953776Y-107156274D01*
X145856274Y-107253776D01*
X145779668Y-107368426D01*
X145726901Y-107495818D01*
X145700000Y-107631056D01*
X145700000Y-107768944D01*
X145726901Y-107904182D01*
X145779668Y-108031574D01*
X145856274Y-108146224D01*
X145953776Y-108243726D01*
X146068426Y-108320332D01*
X146195818Y-108373099D01*
X146331056Y-108400000D01*
X146468944Y-108400000D01*
X146604182Y-108373099D01*
X146700000Y-108333410D01*
X146700000Y-108937997D01*
X146679668Y-108968426D01*
X146626901Y-109095818D01*
X146600000Y-109231056D01*
X146600000Y-109368944D01*
X146626901Y-109504182D01*
X146679668Y-109631574D01*
X146700000Y-109662003D01*
X146700000Y-111831056D01*
X146673099Y-111695818D01*
X146620332Y-111568426D01*
X146543726Y-111453776D01*
X146446224Y-111356274D01*
X146331574Y-111279668D01*
X146204182Y-111226901D01*
X146068944Y-111200000D01*
X145931056Y-111200000D01*
X145795818Y-111226901D01*
X145668426Y-111279668D01*
X145553776Y-111356274D01*
X145456274Y-111453776D01*
X145379668Y-111568426D01*
X145326901Y-111695818D01*
X145300000Y-111831056D01*
X145300000Y-111968944D01*
X145326901Y-112104182D01*
X145379668Y-112231574D01*
X145456274Y-112346224D01*
X145553776Y-112443726D01*
X145668426Y-112520332D01*
X145700000Y-112533410D01*
X145700000Y-112668944D01*
X145726901Y-112804182D01*
X145779668Y-112931574D01*
X145856274Y-113046224D01*
X145953776Y-113143726D01*
X146068426Y-113220332D01*
X146195818Y-113273099D01*
X146331056Y-113300000D01*
X146468944Y-113300000D01*
X146604182Y-113273099D01*
X146700000Y-113233410D01*
X146700000Y-114125388D01*
X146631574Y-114079668D01*
X146504182Y-114026901D01*
X146368944Y-114000000D01*
X146231056Y-114000000D01*
X146095818Y-114026901D01*
X145968426Y-114079668D01*
X145853776Y-114156274D01*
X145756274Y-114253776D01*
X145679668Y-114368426D01*
X145626901Y-114495818D01*
X145600000Y-114631056D01*
X145600000Y-114768944D01*
X145626901Y-114904182D01*
X145679668Y-115031574D01*
X145756274Y-115146224D01*
X145853776Y-115243726D01*
X145968426Y-115320332D01*
X146095818Y-115373099D01*
X146231056Y-115400000D01*
X146368944Y-115400000D01*
X146504182Y-115373099D01*
X146631574Y-115320332D01*
X146700000Y-115274612D01*
X146700000Y-116737997D01*
X146679668Y-116768426D01*
X146626901Y-116895818D01*
X146600000Y-117031056D01*
X146600000Y-117168944D01*
X146626901Y-117304182D01*
X146679668Y-117431574D01*
X146700000Y-117462003D01*
X146700000Y-117837997D01*
X146679668Y-117868426D01*
X146626901Y-117995818D01*
X146600000Y-118131056D01*
X146600000Y-118268944D01*
X146626901Y-118404182D01*
X146679668Y-118531574D01*
X146700000Y-118562003D01*
X146700000Y-118737997D01*
X146643726Y-118653776D01*
X146546224Y-118556274D01*
X146431574Y-118479668D01*
X146304182Y-118426901D01*
X146168944Y-118400000D01*
X146031056Y-118400000D01*
X145895818Y-118426901D01*
X145768426Y-118479668D01*
X145653776Y-118556274D01*
X145556274Y-118653776D01*
X145479668Y-118768426D01*
X145426901Y-118895818D01*
X145400000Y-119031056D01*
X145400000Y-119168944D01*
X145426901Y-119304182D01*
X145479668Y-119431574D01*
X145556274Y-119546224D01*
X145653776Y-119643726D01*
X145768426Y-119720332D01*
X145895818Y-119773099D01*
X146031056Y-119800000D01*
X146168944Y-119800000D01*
X146304182Y-119773099D01*
X146431574Y-119720332D01*
X146546224Y-119643726D01*
X146643726Y-119546224D01*
X146700000Y-119462003D01*
X146700000Y-120926069D01*
X146695818Y-120926901D01*
X146568426Y-120979668D01*
X146453776Y-121056274D01*
X146356274Y-121153776D01*
X146279668Y-121268426D01*
X146226901Y-121395818D01*
X146200000Y-121531056D01*
X146200000Y-121668944D01*
X146226901Y-121804182D01*
X146279668Y-121931574D01*
X146356274Y-122046224D01*
X146453776Y-122143726D01*
X146463166Y-122150000D01*
X146453776Y-122156274D01*
X146356274Y-122253776D01*
X146279668Y-122368426D01*
X146226901Y-122495818D01*
X146200000Y-122631056D01*
X146200000Y-122768944D01*
X146226901Y-122904182D01*
X146279668Y-123031574D01*
X146356274Y-123146224D01*
X146453776Y-123243726D01*
X146568426Y-123320332D01*
X146695818Y-123373099D01*
X146700000Y-123373931D01*
X146700000Y-123600000D01*
X145000000Y-123600000D01*
X145000000Y-122233410D01*
X145031574Y-122220332D01*
X145146224Y-122143726D01*
X145243726Y-122046224D01*
X145320332Y-121931574D01*
X145373099Y-121804182D01*
X145400000Y-121668944D01*
X145400000Y-121531056D01*
X145373099Y-121395818D01*
X145320332Y-121268426D01*
X145243726Y-121153776D01*
X145146224Y-121056274D01*
X145031574Y-120979668D01*
X145000000Y-120966590D01*
X145000000Y-114162003D01*
X145020332Y-114131574D01*
X145073099Y-114004182D01*
X145100000Y-113868944D01*
X145100000Y-113731056D01*
X145073099Y-113595818D01*
X145020332Y-113468426D01*
X145000000Y-113437997D01*
X145000000Y-110473931D01*
X145004182Y-110473099D01*
X145131574Y-110420332D01*
X145246224Y-110343726D01*
X145343726Y-110246224D01*
X145420332Y-110131574D01*
X145473099Y-110004182D01*
X145500000Y-109868944D01*
X145500000Y-109731056D01*
X145473099Y-109595818D01*
X145420332Y-109468426D01*
X145343726Y-109353776D01*
X145246224Y-109256274D01*
X145131574Y-109179668D01*
X145004182Y-109126901D01*
X145000000Y-109126069D01*
X145000000Y-106993822D01*
X145104182Y-106973099D01*
X145231574Y-106920332D01*
X145346224Y-106843726D01*
X145443726Y-106746224D01*
X145520332Y-106631574D01*
X145573099Y-106504182D01*
X145600000Y-106368944D01*
X145600000Y-106231056D01*
X145573099Y-106095818D01*
X145520332Y-105968426D01*
X145443726Y-105853776D01*
X145346224Y-105756274D01*
X145231574Y-105679668D01*
X145104182Y-105626901D01*
X145000000Y-105606178D01*
X145000000Y-105100000D01*
X144992314Y-105021964D01*
X144969552Y-104946927D01*
X144932588Y-104877772D01*
X144882843Y-104817157D01*
X144822228Y-104767412D01*
X144753073Y-104730448D01*
X144678036Y-104707686D01*
X144600000Y-104700000D01*
X143600000Y-104700000D01*
X143600000Y-103900000D01*
X143598079Y-103880491D01*
X143592388Y-103861732D01*
X143583147Y-103844443D01*
X143570711Y-103829289D01*
X143555557Y-103816853D01*
X143538268Y-103807612D01*
X143519509Y-103801921D01*
X143500000Y-103800000D01*
X143293822Y-103800000D01*
X143300000Y-103768944D01*
X143300000Y-103631056D01*
X143273099Y-103495818D01*
X143220332Y-103368426D01*
X143143726Y-103253776D01*
X143046224Y-103156274D01*
X142931574Y-103079668D01*
X142804182Y-103026901D01*
X142668944Y-103000000D01*
X142531056Y-103000000D01*
X142395818Y-103026901D01*
X142268426Y-103079668D01*
X142153776Y-103156274D01*
X142056274Y-103253776D01*
X141979668Y-103368426D01*
X141926901Y-103495818D01*
X141900000Y-103631056D01*
X141900000Y-103768944D01*
X141906178Y-103800000D01*
X141674612Y-103800000D01*
X141720332Y-103731574D01*
X141773099Y-103604182D01*
X141800000Y-103468944D01*
X141800000Y-103331056D01*
X141773099Y-103195818D01*
X141720332Y-103068426D01*
X141643726Y-102953776D01*
X141546224Y-102856274D01*
X141431574Y-102779668D01*
X141304182Y-102726901D01*
X141168944Y-102700000D01*
X141031056Y-102700000D01*
X140895818Y-102726901D01*
X140768426Y-102779668D01*
X140653776Y-102856274D01*
X140556274Y-102953776D01*
X140479668Y-103068426D01*
X140426901Y-103195818D01*
X140400000Y-103331056D01*
X140400000Y-103468944D01*
X140426901Y-103604182D01*
X140479668Y-103731574D01*
X140525388Y-103800000D01*
X139573931Y-103800000D01*
X139573099Y-103795818D01*
X139520332Y-103668426D01*
X139443726Y-103553776D01*
X139346224Y-103456274D01*
X139231574Y-103379668D01*
X139104182Y-103326901D01*
X138968944Y-103300000D01*
X138831056Y-103300000D01*
X138695818Y-103326901D01*
X138568426Y-103379668D01*
X138453776Y-103456274D01*
X138356274Y-103553776D01*
X138279668Y-103668426D01*
X138226901Y-103795818D01*
X138200000Y-103931056D01*
X138200000Y-104068944D01*
X138226901Y-104204182D01*
X138279668Y-104331574D01*
X138300000Y-104362003D01*
X138300000Y-104838063D01*
X138267412Y-104877772D01*
X138230448Y-104946927D01*
X138207686Y-105021964D01*
X138200000Y-105100000D01*
X138200000Y-105300000D01*
X137100000Y-105300000D01*
X137100000Y-102400000D01*
X146310050Y-102400000D01*
X146353776Y-102443726D01*
M02*
