G04 #@! TF.GenerationSoftware,KiCad,Pcbnew,5.1.4+dfsg1-1*
G04 #@! TF.CreationDate,2020-04-26T22:09:24+04:00*
G04 #@! TF.ProjectId,RailLink,5261696c-4c69-46e6-9b2e-6b696361645f,rev?*
G04 #@! TF.SameCoordinates,Original*
G04 #@! TF.FileFunction,Legend,Top*
G04 #@! TF.FilePolarity,Positive*
%FSLAX46Y46*%
G04 Gerber Fmt 4.6, Leading zero omitted, Abs format (unit mm)*
G04 Created by KiCad (PCBNEW 5.1.4+dfsg1-1) date 2020-04-26 22:09:24*
%MOMM*%
%LPD*%
G04 APERTURE LIST*
%ADD10C,0.160000*%
%ADD11C,0.150000*%
%ADD12C,0.300000*%
%ADD13C,0.050000*%
%ADD14C,0.120000*%
G04 APERTURE END LIST*
D10*
X127500000Y-122852380D02*
X128119047Y-122852380D01*
X127785714Y-123233333D01*
X127928571Y-123233333D01*
X128023809Y-123280952D01*
X128071428Y-123328571D01*
X128119047Y-123423809D01*
X128119047Y-123661904D01*
X128071428Y-123757142D01*
X128023809Y-123804761D01*
X127928571Y-123852380D01*
X127642857Y-123852380D01*
X127547619Y-123804761D01*
X127500000Y-123757142D01*
X128404761Y-122852380D02*
X128738095Y-123852380D01*
X129071428Y-122852380D01*
X129309523Y-122852380D02*
X129928571Y-122852380D01*
X129595238Y-123233333D01*
X129738095Y-123233333D01*
X129833333Y-123280952D01*
X129880952Y-123328571D01*
X129928571Y-123423809D01*
X129928571Y-123661904D01*
X129880952Y-123757142D01*
X129833333Y-123804761D01*
X129738095Y-123852380D01*
X129452380Y-123852380D01*
X129357142Y-123804761D01*
X129309523Y-123757142D01*
X131690476Y-123852380D02*
X131357142Y-123376190D01*
X131119047Y-123852380D02*
X131119047Y-122852380D01*
X131500000Y-122852380D01*
X131595238Y-122900000D01*
X131642857Y-122947619D01*
X131690476Y-123042857D01*
X131690476Y-123185714D01*
X131642857Y-123280952D01*
X131595238Y-123328571D01*
X131500000Y-123376190D01*
X131119047Y-123376190D01*
X132119047Y-123328571D02*
X132452380Y-123328571D01*
X132595238Y-123852380D02*
X132119047Y-123852380D01*
X132119047Y-122852380D01*
X132595238Y-122852380D01*
X133357142Y-123328571D02*
X133023809Y-123328571D01*
X133023809Y-123852380D02*
X133023809Y-122852380D01*
X133500000Y-122852380D01*
D11*
X127561904Y-114902380D02*
X127561904Y-113902380D01*
X128133333Y-114902380D01*
X128133333Y-113902380D01*
X128752380Y-114902380D02*
X128657142Y-114854761D01*
X128609523Y-114807142D01*
X128561904Y-114711904D01*
X128561904Y-114426190D01*
X128609523Y-114330952D01*
X128657142Y-114283333D01*
X128752380Y-114235714D01*
X128895238Y-114235714D01*
X128990476Y-114283333D01*
X129038095Y-114330952D01*
X129085714Y-114426190D01*
X129085714Y-114711904D01*
X129038095Y-114807142D01*
X128990476Y-114854761D01*
X128895238Y-114902380D01*
X128752380Y-114902380D01*
X129561904Y-114854761D02*
X129561904Y-114902380D01*
X129514285Y-114997619D01*
X129466666Y-115045238D01*
X130657142Y-114235714D02*
X130847619Y-114902380D01*
X131038095Y-114426190D01*
X131228571Y-114902380D01*
X131419047Y-114235714D01*
X132514285Y-113854761D02*
X131657142Y-115140476D01*
X132990476Y-114902380D02*
X132895238Y-114854761D01*
X132847619Y-114807142D01*
X132800000Y-114711904D01*
X132800000Y-114426190D01*
X132847619Y-114330952D01*
X132895238Y-114283333D01*
X132990476Y-114235714D01*
X133133333Y-114235714D01*
X133228571Y-114283333D01*
X133276190Y-114330952D01*
X133323809Y-114426190D01*
X133323809Y-114711904D01*
X133276190Y-114807142D01*
X133228571Y-114854761D01*
X133133333Y-114902380D01*
X132990476Y-114902380D01*
X127514285Y-116552380D02*
X127514285Y-115552380D01*
X127847619Y-116266666D01*
X128180952Y-115552380D01*
X128180952Y-116552380D01*
X129228571Y-116457142D02*
X129180952Y-116504761D01*
X129038095Y-116552380D01*
X128942857Y-116552380D01*
X128800000Y-116504761D01*
X128704761Y-116409523D01*
X128657142Y-116314285D01*
X128609523Y-116123809D01*
X128609523Y-115980952D01*
X128657142Y-115790476D01*
X128704761Y-115695238D01*
X128800000Y-115600000D01*
X128942857Y-115552380D01*
X129038095Y-115552380D01*
X129180952Y-115600000D01*
X129228571Y-115647619D01*
X129657142Y-115552380D02*
X129657142Y-116361904D01*
X129704761Y-116457142D01*
X129752380Y-116504761D01*
X129847619Y-116552380D01*
X130038095Y-116552380D01*
X130133333Y-116504761D01*
X130180952Y-116457142D01*
X130228571Y-116361904D01*
X130228571Y-115552380D01*
X131466666Y-116552380D02*
X131466666Y-115885714D01*
X131466666Y-115552380D02*
X131419047Y-115600000D01*
X131466666Y-115647619D01*
X131514285Y-115600000D01*
X131466666Y-115552380D01*
X131466666Y-115647619D01*
X131800000Y-115885714D02*
X132180952Y-115885714D01*
X131942857Y-115552380D02*
X131942857Y-116409523D01*
X131990476Y-116504761D01*
X132085714Y-116552380D01*
X132180952Y-116552380D01*
X132561904Y-115552380D02*
X132466666Y-115742857D01*
X132942857Y-116504761D02*
X133038095Y-116552380D01*
X133228571Y-116552380D01*
X133323809Y-116504761D01*
X133371428Y-116409523D01*
X133371428Y-116361904D01*
X133323809Y-116266666D01*
X133228571Y-116219047D01*
X133085714Y-116219047D01*
X132990476Y-116171428D01*
X132942857Y-116076190D01*
X132942857Y-116028571D01*
X132990476Y-115933333D01*
X133085714Y-115885714D01*
X133228571Y-115885714D01*
X133323809Y-115933333D01*
X126633333Y-117535714D02*
X126633333Y-118202380D01*
X126633333Y-117630952D02*
X126680952Y-117583333D01*
X126776190Y-117535714D01*
X126919047Y-117535714D01*
X127014285Y-117583333D01*
X127061904Y-117678571D01*
X127061904Y-118202380D01*
X127680952Y-118202380D02*
X127585714Y-118154761D01*
X127538095Y-118107142D01*
X127490476Y-118011904D01*
X127490476Y-117726190D01*
X127538095Y-117630952D01*
X127585714Y-117583333D01*
X127680952Y-117535714D01*
X127823809Y-117535714D01*
X127919047Y-117583333D01*
X127966666Y-117630952D01*
X128014285Y-117726190D01*
X128014285Y-118011904D01*
X127966666Y-118107142D01*
X127919047Y-118154761D01*
X127823809Y-118202380D01*
X127680952Y-118202380D01*
X128300000Y-117535714D02*
X128680952Y-117535714D01*
X128442857Y-117202380D02*
X128442857Y-118059523D01*
X128490476Y-118154761D01*
X128585714Y-118202380D01*
X128680952Y-118202380D01*
X129680952Y-117535714D02*
X129871428Y-118202380D01*
X130061904Y-117726190D01*
X130252380Y-118202380D01*
X130442857Y-117535714D01*
X130966666Y-118202380D02*
X130871428Y-118154761D01*
X130823809Y-118107142D01*
X130776190Y-118011904D01*
X130776190Y-117726190D01*
X130823809Y-117630952D01*
X130871428Y-117583333D01*
X130966666Y-117535714D01*
X131109523Y-117535714D01*
X131204761Y-117583333D01*
X131252380Y-117630952D01*
X131300000Y-117726190D01*
X131300000Y-118011904D01*
X131252380Y-118107142D01*
X131204761Y-118154761D01*
X131109523Y-118202380D01*
X130966666Y-118202380D01*
X131728571Y-118202380D02*
X131728571Y-117535714D01*
X131728571Y-117726190D02*
X131776190Y-117630952D01*
X131823809Y-117583333D01*
X131919047Y-117535714D01*
X132014285Y-117535714D01*
X132347619Y-118202380D02*
X132347619Y-117202380D01*
X132442857Y-117821428D02*
X132728571Y-118202380D01*
X132728571Y-117535714D02*
X132347619Y-117916666D01*
X133157142Y-118202380D02*
X133157142Y-117535714D01*
X133157142Y-117202380D02*
X133109523Y-117250000D01*
X133157142Y-117297619D01*
X133204761Y-117250000D01*
X133157142Y-117202380D01*
X133157142Y-117297619D01*
X133633333Y-117535714D02*
X133633333Y-118202380D01*
X133633333Y-117630952D02*
X133680952Y-117583333D01*
X133776190Y-117535714D01*
X133919047Y-117535714D01*
X134014285Y-117583333D01*
X134061904Y-117678571D01*
X134061904Y-118202380D01*
X134966666Y-117535714D02*
X134966666Y-118345238D01*
X134919047Y-118440476D01*
X134871428Y-118488095D01*
X134776190Y-118535714D01*
X134633333Y-118535714D01*
X134538095Y-118488095D01*
X134966666Y-118154761D02*
X134871428Y-118202380D01*
X134680952Y-118202380D01*
X134585714Y-118154761D01*
X134538095Y-118107142D01*
X134490476Y-118011904D01*
X134490476Y-117726190D01*
X134538095Y-117630952D01*
X134585714Y-117583333D01*
X134680952Y-117535714D01*
X134871428Y-117535714D01*
X134966666Y-117583333D01*
D10*
X155685714Y-100622380D02*
X156257142Y-100622380D01*
X155971428Y-101622380D02*
X155971428Y-100622380D01*
X156542857Y-101336666D02*
X157019047Y-101336666D01*
X156447619Y-101622380D02*
X156780952Y-100622380D01*
X157114285Y-101622380D01*
X158019047Y-101622380D02*
X157685714Y-101146190D01*
X157447619Y-101622380D02*
X157447619Y-100622380D01*
X157828571Y-100622380D01*
X157923809Y-100670000D01*
X157971428Y-100717619D01*
X158019047Y-100812857D01*
X158019047Y-100955714D01*
X157971428Y-101050952D01*
X157923809Y-101098571D01*
X157828571Y-101146190D01*
X157447619Y-101146190D01*
X156328571Y-102330000D02*
X156233333Y-102282380D01*
X156090476Y-102282380D01*
X155947619Y-102330000D01*
X155852380Y-102425238D01*
X155804761Y-102520476D01*
X155757142Y-102710952D01*
X155757142Y-102853809D01*
X155804761Y-103044285D01*
X155852380Y-103139523D01*
X155947619Y-103234761D01*
X156090476Y-103282380D01*
X156185714Y-103282380D01*
X156328571Y-103234761D01*
X156376190Y-103187142D01*
X156376190Y-102853809D01*
X156185714Y-102853809D01*
X156804761Y-102758571D02*
X157138095Y-102758571D01*
X157280952Y-103282380D02*
X156804761Y-103282380D01*
X156804761Y-102282380D01*
X157280952Y-102282380D01*
X157566666Y-102282380D02*
X158138095Y-102282380D01*
X157852380Y-103282380D02*
X157852380Y-102282380D01*
X100538095Y-120252380D02*
X100538095Y-121061904D01*
X100585714Y-121157142D01*
X100633333Y-121204761D01*
X100728571Y-121252380D01*
X100919047Y-121252380D01*
X101014285Y-121204761D01*
X101061904Y-121157142D01*
X101109523Y-121061904D01*
X101109523Y-120252380D01*
X101538095Y-121204761D02*
X101680952Y-121252380D01*
X101919047Y-121252380D01*
X102014285Y-121204761D01*
X102061904Y-121157142D01*
X102109523Y-121061904D01*
X102109523Y-120966666D01*
X102061904Y-120871428D01*
X102014285Y-120823809D01*
X101919047Y-120776190D01*
X101728571Y-120728571D01*
X101633333Y-120680952D01*
X101585714Y-120633333D01*
X101538095Y-120538095D01*
X101538095Y-120442857D01*
X101585714Y-120347619D01*
X101633333Y-120300000D01*
X101728571Y-120252380D01*
X101966666Y-120252380D01*
X102109523Y-120300000D01*
X102871428Y-120728571D02*
X103014285Y-120776190D01*
X103061904Y-120823809D01*
X103109523Y-120919047D01*
X103109523Y-121061904D01*
X103061904Y-121157142D01*
X103014285Y-121204761D01*
X102919047Y-121252380D01*
X102538095Y-121252380D01*
X102538095Y-120252380D01*
X102871428Y-120252380D01*
X102966666Y-120300000D01*
X103014285Y-120347619D01*
X103061904Y-120442857D01*
X103061904Y-120538095D01*
X103014285Y-120633333D01*
X102966666Y-120680952D01*
X102871428Y-120728571D01*
X102538095Y-120728571D01*
X107309523Y-127252380D02*
X107309523Y-126585714D01*
X107309523Y-126776190D02*
X107357142Y-126680952D01*
X107404761Y-126633333D01*
X107500000Y-126585714D01*
X107595238Y-126585714D01*
X108309523Y-127204761D02*
X108214285Y-127252380D01*
X108023809Y-127252380D01*
X107928571Y-127204761D01*
X107880952Y-127109523D01*
X107880952Y-126728571D01*
X107928571Y-126633333D01*
X108023809Y-126585714D01*
X108214285Y-126585714D01*
X108309523Y-126633333D01*
X108357142Y-126728571D01*
X108357142Y-126823809D01*
X107880952Y-126919047D01*
X108690476Y-126585714D02*
X108928571Y-127252380D01*
X109166666Y-126585714D01*
X109547619Y-127157142D02*
X109595238Y-127204761D01*
X109547619Y-127252380D01*
X109500000Y-127204761D01*
X109547619Y-127157142D01*
X109547619Y-127252380D01*
X110976190Y-126252380D02*
X111071428Y-126252380D01*
X111166666Y-126300000D01*
X111214285Y-126347619D01*
X111261904Y-126442857D01*
X111309523Y-126633333D01*
X111309523Y-126871428D01*
X111261904Y-127061904D01*
X111214285Y-127157142D01*
X111166666Y-127204761D01*
X111071428Y-127252380D01*
X110976190Y-127252380D01*
X110880952Y-127204761D01*
X110833333Y-127157142D01*
X110785714Y-127061904D01*
X110738095Y-126871428D01*
X110738095Y-126633333D01*
X110785714Y-126442857D01*
X110833333Y-126347619D01*
X110880952Y-126300000D01*
X110976190Y-126252380D01*
X111738095Y-127157142D02*
X111785714Y-127204761D01*
X111738095Y-127252380D01*
X111690476Y-127204761D01*
X111738095Y-127157142D01*
X111738095Y-127252380D01*
X112738095Y-127252380D02*
X112166666Y-127252380D01*
X112452380Y-127252380D02*
X112452380Y-126252380D01*
X112357142Y-126395238D01*
X112261904Y-126490476D01*
X112166666Y-126538095D01*
D12*
X107285714Y-125778571D02*
X106785714Y-125064285D01*
X106428571Y-125778571D02*
X106428571Y-124278571D01*
X107000000Y-124278571D01*
X107142857Y-124350000D01*
X107214285Y-124421428D01*
X107285714Y-124564285D01*
X107285714Y-124778571D01*
X107214285Y-124921428D01*
X107142857Y-124992857D01*
X107000000Y-125064285D01*
X106428571Y-125064285D01*
X108571428Y-125778571D02*
X108571428Y-124992857D01*
X108500000Y-124850000D01*
X108357142Y-124778571D01*
X108071428Y-124778571D01*
X107928571Y-124850000D01*
X108571428Y-125707142D02*
X108428571Y-125778571D01*
X108071428Y-125778571D01*
X107928571Y-125707142D01*
X107857142Y-125564285D01*
X107857142Y-125421428D01*
X107928571Y-125278571D01*
X108071428Y-125207142D01*
X108428571Y-125207142D01*
X108571428Y-125135714D01*
X109285714Y-125778571D02*
X109285714Y-124778571D01*
X109285714Y-124278571D02*
X109214285Y-124350000D01*
X109285714Y-124421428D01*
X109357142Y-124350000D01*
X109285714Y-124278571D01*
X109285714Y-124421428D01*
X110214285Y-125778571D02*
X110071428Y-125707142D01*
X110000000Y-125564285D01*
X110000000Y-124278571D01*
X111500000Y-125778571D02*
X110785714Y-125778571D01*
X110785714Y-124278571D01*
X112000000Y-125778571D02*
X112000000Y-124778571D01*
X112000000Y-124278571D02*
X111928571Y-124350000D01*
X112000000Y-124421428D01*
X112071428Y-124350000D01*
X112000000Y-124278571D01*
X112000000Y-124421428D01*
X112714285Y-124778571D02*
X112714285Y-125778571D01*
X112714285Y-124921428D02*
X112785714Y-124850000D01*
X112928571Y-124778571D01*
X113142857Y-124778571D01*
X113285714Y-124850000D01*
X113357142Y-124992857D01*
X113357142Y-125778571D01*
X114071428Y-125778571D02*
X114071428Y-124278571D01*
X114214285Y-125207142D02*
X114642857Y-125778571D01*
X114642857Y-124778571D02*
X114071428Y-125350000D01*
D13*
X103000000Y-128000000D02*
G75*
G02X100000000Y-125000000I0J3000000D01*
G01*
X100000000Y-103000000D02*
G75*
G02X103000000Y-100000000I3000000J0D01*
G01*
X157000000Y-100000000D02*
G75*
G02X160000000Y-103000000I0J-3000000D01*
G01*
X160000000Y-125000000D02*
G75*
G02X157000000Y-128000000I-3000000J0D01*
G01*
X157000000Y-100000000D02*
X103000000Y-100000000D01*
X160000000Y-125000000D02*
X160000000Y-103000000D01*
X103000000Y-128000000D02*
X157000000Y-128000000D01*
X100000000Y-103000000D02*
X100000000Y-125000000D01*
D14*
X147500000Y-104850000D02*
X147500000Y-100950000D01*
X149500000Y-104850000D02*
X149500000Y-100950000D01*
X147500000Y-104850000D02*
X149500000Y-104850000D01*
X141800000Y-100680000D02*
X138800000Y-100680000D01*
X142800000Y-103920000D02*
X140800000Y-103920000D01*
X122870000Y-122570000D02*
X124200000Y-122570000D01*
X122870000Y-123900000D02*
X122870000Y-122570000D01*
X122870000Y-125170000D02*
X125530000Y-125170000D01*
X125530000Y-125170000D02*
X125530000Y-127770000D01*
X122870000Y-125170000D02*
X122870000Y-127770000D01*
X122870000Y-127770000D02*
X125530000Y-127770000D01*
X135910000Y-119060000D02*
X137250000Y-119060000D01*
X135910000Y-120010000D02*
X135910000Y-119060000D01*
X134960000Y-120010000D02*
X135910000Y-120010000D01*
X125690000Y-120010000D02*
X125690000Y-119060000D01*
X126640000Y-120010000D02*
X125690000Y-120010000D01*
X135910000Y-109790000D02*
X135910000Y-110740000D01*
X134960000Y-109790000D02*
X135910000Y-109790000D01*
X125690000Y-109790000D02*
X125690000Y-110740000D01*
X126640000Y-109790000D02*
X125690000Y-109790000D01*
X145400000Y-109000000D02*
X142400000Y-109000000D01*
X145400000Y-111200000D02*
X143200000Y-111200000D01*
X99400000Y-109300000D02*
X99400000Y-118700000D01*
X105200000Y-118700000D02*
X103200000Y-118700000D01*
X101300000Y-118700000D02*
X99400000Y-118700000D01*
X105200000Y-109300000D02*
X103200000Y-109300000D01*
X101300000Y-109300000D02*
X99400000Y-109300000D01*
X136100000Y-104850000D02*
X136100000Y-100950000D01*
X138100000Y-104850000D02*
X138100000Y-100950000D01*
X136100000Y-104850000D02*
X138100000Y-104850000D01*
X155730000Y-116250000D02*
X165080000Y-116250000D01*
X155730000Y-111750000D02*
X165080000Y-111750000D01*
X155730000Y-124430000D02*
X155730000Y-103570000D01*
X155730000Y-124430000D02*
X165080000Y-124430000D01*
X155730000Y-103570000D02*
X165080000Y-103570000D01*
X165080000Y-103570000D02*
X165080000Y-124430000D01*
X151600000Y-107650000D02*
X150330000Y-107650000D01*
X150330000Y-107650000D02*
X150330000Y-108920000D01*
X141385000Y-118265000D02*
X139100000Y-118265000D01*
X141385000Y-119735000D02*
X141385000Y-118265000D01*
X139100000Y-119735000D02*
X141385000Y-119735000D01*
X141385000Y-116665000D02*
X139100000Y-116665000D01*
X141385000Y-118135000D02*
X141385000Y-116665000D01*
X139100000Y-118135000D02*
X141385000Y-118135000D01*
X145000000Y-120900000D02*
X142000000Y-120900000D01*
X145000000Y-123100000D02*
X142800000Y-123100000D01*
X145000000Y-116200000D02*
X142000000Y-116200000D01*
X145000000Y-118400000D02*
X142800000Y-118400000D01*
X148300000Y-122280000D02*
X147500000Y-122280000D01*
X148300000Y-125720000D02*
X147500000Y-125720000D01*
X148600000Y-105580000D02*
X147800000Y-105580000D01*
X148600000Y-109020000D02*
X147800000Y-109020000D01*
X148600000Y-109480000D02*
X147800000Y-109480000D01*
X148600000Y-112920000D02*
X147800000Y-112920000D01*
X147800000Y-116820000D02*
X148600000Y-116820000D01*
X147800000Y-113380000D02*
X148600000Y-113380000D01*
X110230000Y-109050000D02*
X111430000Y-109050000D01*
X110230000Y-107850000D02*
X110230000Y-109050000D01*
X122200000Y-102510000D02*
X122200000Y-108850000D01*
X110430000Y-108850000D02*
X122200000Y-108850000D01*
X110430000Y-102510000D02*
X110430000Y-108850000D01*
X110430000Y-102510000D02*
X122200000Y-102510000D01*
X141250000Y-115500000D02*
X141250000Y-111500000D01*
X137950000Y-115500000D02*
X141250000Y-115500000D01*
X145000000Y-124600000D02*
X142000000Y-124600000D01*
X145000000Y-126800000D02*
X142800000Y-126800000D01*
X145000000Y-112600000D02*
X142000000Y-112600000D01*
X145000000Y-114800000D02*
X142800000Y-114800000D01*
X145400000Y-105400000D02*
X142400000Y-105400000D01*
X145400000Y-107600000D02*
X143200000Y-107600000D01*
X125300000Y-102990000D02*
X122850000Y-102990000D01*
X123500000Y-106210000D02*
X125300000Y-106210000D01*
X112440000Y-109495000D02*
X110625000Y-109495000D01*
X112440000Y-109240000D02*
X112440000Y-109495000D01*
X116300000Y-109240000D02*
X112440000Y-109240000D01*
X120160000Y-109240000D02*
X120160000Y-109495000D01*
X116300000Y-109240000D02*
X120160000Y-109240000D01*
X112440000Y-119760000D02*
X112440000Y-119505000D01*
X116300000Y-119760000D02*
X112440000Y-119760000D01*
X120160000Y-119760000D02*
X120160000Y-119505000D01*
X116300000Y-119760000D02*
X120160000Y-119760000D01*
X106900000Y-123810000D02*
X109350000Y-123810000D01*
X108700000Y-120590000D02*
X106900000Y-120590000D01*
X140200000Y-123680000D02*
X139400000Y-123680000D01*
X140200000Y-127120000D02*
X139400000Y-127120000D01*
X140200000Y-106580000D02*
X139400000Y-106580000D01*
X140200000Y-110020000D02*
X139400000Y-110020000D01*
X128500000Y-127720000D02*
X129300000Y-127720000D01*
X128500000Y-124280000D02*
X129300000Y-124280000D01*
X130000000Y-101180000D02*
X129200000Y-101180000D01*
X130000000Y-104620000D02*
X129200000Y-104620000D01*
X134600000Y-101180000D02*
X133800000Y-101180000D01*
X134600000Y-104620000D02*
X133800000Y-104620000D01*
X131700000Y-127720000D02*
X132500000Y-127720000D01*
X131700000Y-124280000D02*
X132500000Y-124280000D01*
X104502064Y-106390000D02*
X103297936Y-106390000D01*
X104502064Y-108210000D02*
X103297936Y-108210000D01*
X136260000Y-127680000D02*
X134800000Y-127680000D01*
X136260000Y-124520000D02*
X134100000Y-124520000D01*
X136260000Y-124520000D02*
X136260000Y-125450000D01*
X136260000Y-127680000D02*
X136260000Y-126750000D01*
X149880000Y-118440000D02*
X149880000Y-119900000D01*
X146720000Y-118440000D02*
X146720000Y-120600000D01*
X146720000Y-118440000D02*
X147650000Y-118440000D01*
X149880000Y-118440000D02*
X148950000Y-118440000D01*
X119070000Y-120070000D02*
X120400000Y-120070000D01*
X119070000Y-121400000D02*
X119070000Y-120070000D01*
X119070000Y-122670000D02*
X121730000Y-122670000D01*
X121730000Y-122670000D02*
X121730000Y-127810000D01*
X119070000Y-122670000D02*
X119070000Y-127810000D01*
X119070000Y-127810000D02*
X121730000Y-127810000D01*
X122590000Y-120437221D02*
X122590000Y-120762779D01*
X123610000Y-120437221D02*
X123610000Y-120762779D01*
X126690000Y-104537221D02*
X126690000Y-104862779D01*
X127710000Y-104537221D02*
X127710000Y-104862779D01*
X125162779Y-107090000D02*
X124837221Y-107090000D01*
X125162779Y-108110000D02*
X124837221Y-108110000D01*
X124162779Y-101390000D02*
X123837221Y-101390000D01*
X124162779Y-102410000D02*
X123837221Y-102410000D01*
X118837221Y-102010000D02*
X119162779Y-102010000D01*
X118837221Y-100990000D02*
X119162779Y-100990000D01*
X111537221Y-102010000D02*
X111862779Y-102010000D01*
X111537221Y-100990000D02*
X111862779Y-100990000D01*
X106490000Y-104113748D02*
X106490000Y-106886252D01*
X109910000Y-104113748D02*
X109910000Y-106886252D01*
M02*
