M48
; DRILL file {KiCad 5.1.4+dfsg1-1} date Вс 26 апр 2020 21:13:59
; FORMAT={-:-/ absolute / inch / decimal}
; #@! TF.CreationDate,2020-04-26T21:13:59+04:00
; #@! TF.GenerationSoftware,Kicad,Pcbnew,5.1.4+dfsg1-1
FMAT,2
INCH
T1C0.0118
T2C0.0157
T3C0.0197
T4C0.0236
T5C0.0394
T6C0.0400
T7C0.0984
T8C0.0256
%
G90
G05
T1
X4.0787Y-4.7441
X4.1102Y-4.7441
X4.1654Y-4.4685
X4.1654Y-4.5039
X4.2402Y-4.811
X4.2913Y-4.5197
X4.3268Y-4.8189
X4.3307Y-4.5921
X4.3307Y-4.6236
X4.3307Y-4.6693
X4.378Y-4.7913
X4.378Y-4.8307
X4.3976Y-4.7244
X4.8071Y-4.2441
X4.811Y-4.1181
X4.8622Y-4.2835
X4.8701Y-4.5157
X4.8898Y-4.1929
X4.8898Y-4.7126
X4.9016Y-4.1181
X4.9173Y-4.7835
X4.9252Y-4.3346
X4.9567Y-4.9882
X4.9843Y-4.5
X4.9843Y-4.5315
X4.9843Y-4.5709
X4.9961Y-4.815
X4.9961Y-4.9764
X5.0039Y-4.9134
X5.0236Y-4.8465
X5.0354Y-4.2362
X5.0354Y-4.3504
X5.0669Y-4.878
X5.0748Y-4.3504
X5.1063Y-4.689
X5.1063Y-4.8268
X5.1102Y-4.1732
X5.1142Y-4.1299
X5.1142Y-4.2362
X5.1142Y-4.4331
X5.1299Y-4.8583
X5.1496Y-4.1614
X5.1654Y-4.3504
X5.1654Y-4.4331
X5.1693Y-4.878
X5.189Y-4.3701
X5.189Y-4.6929
X5.2008Y-4.811
X5.2008Y-4.878
X5.2126Y-4.0433
X5.2165Y-4.1457
X5.2205Y-4.2362
X5.2362Y-4.815
X5.2362Y-4.878
X5.2402Y-4.6811
X5.2677Y-4.5315
X5.2795Y-4.4016
X5.2874Y-4.2047
X5.2953Y-4.4488
X5.3189Y-4.4252
X5.3228Y-4.4921
X5.3307Y-5.0039
X5.3346Y-4.811
X5.3504Y-4.0669
X5.3504Y-4.1024
X5.3543Y-4.9213
X5.3701Y-4.2402
X5.3858Y-4.7953
X5.3898Y-4.3504
X5.4016Y-4.0394
X5.4016Y-4.1417
X5.4016Y-4.2402
X5.4213Y-4.622
X5.4213Y-4.752
X5.4291Y-4.2874
X5.4291Y-4.3228
X5.4291Y-4.815
X5.4291Y-4.8898
X5.4331Y-4.1417
X5.4331Y-4.9528
X5.435Y-4.2205
X5.4409Y-4.5551
X5.4685Y-4.1063
X5.4764Y-5.0118
X5.4921Y-4.7835
X5.5039Y-4.1929
X5.5039Y-4.3307
X5.5079Y-4.6535
X5.5394Y-4.3622
X5.5394Y-4.5748
X5.5551Y-4.0709
X5.563Y-4.6496
X5.5669Y-4.8661
X5.5709Y-4.122
X5.5748Y-4.7559
X5.5787Y-4.6811
X5.5787Y-4.8976
X5.6142Y-4.6772
X5.622Y-3.9882
X5.6378Y-4.5079
X5.6417Y-4.6457
X5.6417Y-4.9803
X5.6457Y-4.811
X5.6535Y-4.3622
X5.6614Y-4.4331
X5.6654Y-4.3228
X5.6654Y-4.5276
X5.6654Y-4.5748
X5.6654Y-4.7126
X5.6654Y-4.7598
X5.6654Y-4.8543
X5.6654Y-4.8976
X5.6772Y-4.0945
X5.6772Y-4.1575
X5.6772Y-4.2087
X5.6811Y-4.2402
X5.6811Y-4.2913
X5.6811Y-4.374
X5.6811Y-4.7874
X5.685Y-4.4803
X5.685Y-4.9764
X5.7008Y-4.3228
X5.7047Y-4.185
X5.748Y-4.4055
X5.7539Y-4.8504
X5.7598Y-4.5315
X5.7598Y-4.7323
X5.7638Y-4.2402
X5.7638Y-4.4567
X5.7717Y-4.1378
X5.7756Y-4.6417
X5.7756Y-4.7874
X5.7795Y-4.0118
X5.7953Y-4.9646
X5.7992Y-4.3031
X5.7992Y-4.6102
X5.8268Y-4.9646
X5.8307Y-4.0669
X5.8543Y-4.9882
X5.8661Y-4.0669
X5.8701Y-4.3031
X5.8701Y-4.4528
X5.9094Y-4.2087
X5.9094Y-4.3386
X5.9094Y-4.3937
X5.9094Y-4.5157
X5.9094Y-4.5472
X5.9094Y-4.5787
X5.9291Y-4.815
X5.9528Y-4.7874
X6.0118Y-4.2126
X6.0827Y-4.1811
T2
X3.9921Y-4.189
X3.9921Y-4.2598
X4.1535Y-4.7244
X4.2008Y-3.9921
X4.2008Y-4.1929
X4.2126Y-4.7244
X4.2598Y-3.9921
X4.2598Y-4.1929
X4.2598Y-4.6811
X4.2677Y-4.2913
X4.2756Y-4.6142
X4.2835Y-4.3543
X4.2835Y-4.3898
X4.2835Y-4.4252
X4.2835Y-4.5709
X4.3189Y-3.9921
X4.3189Y-4.1929
X4.3228Y-4.3071
X4.4409Y-4.0433
X4.4843Y-3.9921
X4.4882Y-4.0433
X4.6142Y-3.9921
X4.6142Y-4.0433
X4.6654Y-4.0433
X4.7165Y-4.0433
X4.7598Y-3.9921
X4.7598Y-4.0433
X4.7598Y-4.7205
X4.8031Y-4.7795
X4.8346Y-4.4094
X4.9606Y-4.0118
X4.9685Y-4.1969
X4.9843Y-4.0354
X5.0276Y-4.0354
X5.0551Y-4.1417
X5.0551Y-4.1811
X5.2087Y-4.4646
X5.2283Y-4.4094
X5.3701Y-4.1575
T3
X4.8031Y-4.2874
X5.9341Y-4.9252
X5.9557Y-4.873
X5.9557Y-4.9774
X6.0079Y-4.8514
X6.0079Y-4.999
X6.0601Y-4.873
X6.0601Y-4.9774
X6.0817Y-4.9252
X5.9341Y-4.0512
X5.9557Y-3.999
X5.9557Y-4.1034
X6.0079Y-3.9774
X6.0079Y-4.125
X6.0601Y-3.999
X6.0601Y-4.1034
X6.0817Y-4.0512
X3.9774Y-4.0512
X3.999Y-3.999
X3.999Y-4.1034
X4.0512Y-3.9774
X4.0512Y-4.125
X4.1034Y-3.999
X4.1034Y-4.1034
X4.125Y-4.0512
X3.9774Y-4.9252
X3.999Y-4.873
X3.999Y-4.9774
X4.0512Y-4.8514
X4.0512Y-4.999
X4.1034Y-4.873
X4.1034Y-4.9774
X4.125Y-4.9252
T5
X4.7402Y-4.7795
X4.7402Y-4.8795
X4.7402Y-4.9795
X4.4291Y-4.2362
X4.5291Y-4.2362
X4.6291Y-4.2362
X4.7291Y-4.2362
X4.8898Y-4.878
X4.8898Y-4.978
T6
X5.9685Y-4.2882
X5.9685Y-4.3882
X5.9685Y-4.4882
X5.9685Y-4.5882
X5.9685Y-4.6882
X6.0685Y-4.2882
X6.0685Y-4.3882
X6.0685Y-4.4882
X6.0685Y-4.5882
X6.0685Y-4.6882
T7
X6.0079Y-4.0512
X4.0512Y-4.0512
X4.0512Y-4.9252
X6.0079Y-4.9252
T8
X4.1693Y-4.3744
X4.1693Y-4.602
T4
G00X4.0374Y-4.3181
M15
G01X4.0138Y-4.3181
M16
G05
G00X4.0374Y-4.6583
M15
G01X4.0138Y-4.6583
M16
G05
G00X4.2118Y-4.3181
M15
G01X4.1685Y-4.3181
M16
G05
G00X4.2118Y-4.6583
M15
G01X4.1685Y-4.6583
M16
G05
T0
M30
