G04 #@! TF.GenerationSoftware,KiCad,Pcbnew,5.1.4+dfsg1-1*
G04 #@! TF.CreationDate,2020-04-26T22:09:24+04:00*
G04 #@! TF.ProjectId,RailLink,5261696c-4c69-46e6-9b2e-6b696361645f,rev?*
G04 #@! TF.SameCoordinates,Original*
G04 #@! TF.FileFunction,Copper,L4,Bot*
G04 #@! TF.FilePolarity,Positive*
%FSLAX46Y46*%
G04 Gerber Fmt 4.6, Leading zero omitted, Abs format (unit mm)*
G04 Created by KiCad (PCBNEW 5.1.4+dfsg1-1) date 2020-04-26 22:09:24*
%MOMM*%
%LPD*%
G04 APERTURE LIST*
%ADD10C,0.050000*%
%ADD11O,1.700000X1.700000*%
%ADD12R,1.700000X1.700000*%
%ADD13C,5.000000*%
%ADD14C,0.800000*%
%ADD15O,2.100000X1.000000*%
%ADD16O,1.600000X1.000000*%
%ADD17O,1.727200X1.727200*%
%ADD18R,1.727200X1.727200*%
%ADD19R,1.400000X1.800000*%
%ADD20O,1.400000X1.800000*%
%ADD21C,0.700000*%
%ADD22C,0.600000*%
%ADD23C,1.000000*%
%ADD24C,0.200000*%
%ADD25C,0.300000*%
%ADD26C,0.350000*%
%ADD27C,0.160000*%
G04 APERTURE END LIST*
D10*
X103000000Y-128000000D02*
G75*
G02X100000000Y-125000000I0J3000000D01*
G01*
X100000000Y-103000000D02*
G75*
G02X103000000Y-100000000I3000000J0D01*
G01*
X157000000Y-100000000D02*
G75*
G02X160000000Y-103000000I0J-3000000D01*
G01*
X160000000Y-125000000D02*
G75*
G02X157000000Y-128000000I-3000000J0D01*
G01*
X157000000Y-100000000D02*
X103000000Y-100000000D01*
X160000000Y-125000000D02*
X160000000Y-103000000D01*
X103000000Y-128000000D02*
X157000000Y-128000000D01*
X100000000Y-103000000D02*
X100000000Y-125000000D01*
D11*
X124200000Y-126440000D03*
D12*
X124200000Y-123900000D03*
D13*
X102900000Y-102900000D03*
D14*
X104775000Y-102900000D03*
X104225825Y-104225825D03*
X102900000Y-104775000D03*
X101574175Y-104225825D03*
X101025000Y-102900000D03*
X101574175Y-101574175D03*
X102900000Y-101025000D03*
X104225825Y-101574175D03*
X104225825Y-123774175D03*
X102900000Y-123225000D03*
X101574175Y-123774175D03*
X101025000Y-125100000D03*
X101574175Y-126425825D03*
X102900000Y-126975000D03*
X104225825Y-126425825D03*
X104775000Y-125100000D03*
D13*
X102900000Y-125100000D03*
D15*
X106430000Y-118320000D03*
X106430000Y-109680000D03*
D16*
X102250000Y-109680000D03*
X102250000Y-118320000D03*
D13*
X152600000Y-125100000D03*
D14*
X154475000Y-125100000D03*
X153925825Y-126425825D03*
X152600000Y-126975000D03*
X151274175Y-126425825D03*
X150725000Y-125100000D03*
X151274175Y-123774175D03*
X152600000Y-123225000D03*
X153925825Y-123774175D03*
D17*
X154140000Y-119080000D03*
X151600000Y-119080000D03*
X154140000Y-116540000D03*
X151600000Y-116540000D03*
X154140000Y-114000000D03*
X151600000Y-114000000D03*
X154140000Y-111460000D03*
X151600000Y-111460000D03*
X154140000Y-108920000D03*
D18*
X151600000Y-108920000D03*
D14*
X153925825Y-101574175D03*
X152600000Y-101025000D03*
X151274175Y-101574175D03*
X150725000Y-102900000D03*
X151274175Y-104225825D03*
X152600000Y-104775000D03*
X153925825Y-104225825D03*
X154475000Y-102900000D03*
D13*
X152600000Y-102900000D03*
D19*
X112500000Y-107600000D03*
D20*
X115040000Y-107600000D03*
X117580000Y-107600000D03*
X120120000Y-107600000D03*
D11*
X120400000Y-126480000D03*
X120400000Y-123940000D03*
D12*
X120400000Y-121400000D03*
D21*
X106700000Y-106500000D03*
X109700000Y-106500000D03*
X108200000Y-106500000D03*
X106700000Y-101400000D03*
X109700000Y-101400000D03*
X108200000Y-101400000D03*
X101400000Y-108200000D03*
X101400000Y-106400000D03*
D22*
X109000000Y-114800000D03*
D21*
X108600000Y-117200000D03*
X108800000Y-110600000D03*
X108200000Y-118900000D03*
X108400000Y-109000000D03*
D22*
X109900000Y-122400000D03*
X110000000Y-118600000D03*
X111700000Y-120000000D03*
D21*
X105500000Y-120000000D03*
X107000000Y-120000000D03*
X108800000Y-112400000D03*
X113900000Y-101400000D03*
X114000000Y-102700000D03*
X112800000Y-102700000D03*
X108800000Y-111500000D03*
X109800000Y-109400000D03*
D22*
X107700000Y-122200000D03*
D21*
X108800000Y-116100000D03*
D22*
X146150000Y-123200000D03*
X141700000Y-124400000D03*
X143400000Y-122200000D03*
X143300000Y-126500000D03*
X146300000Y-120200000D03*
X141600000Y-120800000D03*
X143200000Y-114500000D03*
X146300000Y-115100000D03*
X140700000Y-110800000D03*
X146400000Y-107700000D03*
X146000000Y-111900000D03*
X134500000Y-113000000D03*
X133000000Y-122300000D03*
X134300000Y-106800000D03*
X130800000Y-105700000D03*
X140700000Y-116200000D03*
X132400000Y-102700000D03*
X143600000Y-110800000D03*
D21*
X126000000Y-101900000D03*
X126600000Y-102500000D03*
X127700000Y-102500000D03*
D22*
X144200000Y-106900000D03*
X138200000Y-115700000D03*
X136800000Y-121800000D03*
X124900000Y-121500000D03*
D21*
X122800000Y-112000000D03*
X126200000Y-106600000D03*
D22*
X124200000Y-106500000D03*
X124500000Y-104600000D03*
X122200000Y-104600000D03*
X123500000Y-108800000D03*
X122100000Y-107800000D03*
X143300000Y-118000000D03*
X142600000Y-118800000D03*
X154500000Y-106200000D03*
D21*
X117200000Y-101400000D03*
X118500000Y-102700000D03*
X117200000Y-102700000D03*
X122000000Y-121400000D03*
X120900000Y-119900000D03*
D22*
X133100000Y-118900000D03*
D21*
X132300000Y-113400000D03*
X132800000Y-112000000D03*
D22*
X129900000Y-107600000D03*
X146700000Y-117900000D03*
X139500000Y-121500000D03*
X125900000Y-126700000D03*
X141100000Y-103400000D03*
X141500000Y-104700000D03*
X146800000Y-101900000D03*
X146600000Y-105100000D03*
X142800000Y-101300000D03*
X135400000Y-127100000D03*
D23*
X122000000Y-108900000D03*
D21*
X119800000Y-102700000D03*
X120900000Y-101400000D03*
X120900000Y-102700000D03*
D22*
X127600000Y-123100000D03*
X135900000Y-103300000D03*
X129900000Y-104900020D03*
X132500000Y-105300000D03*
X143900000Y-120900000D03*
X143900000Y-116200000D03*
X143900000Y-124400000D03*
X143800000Y-112600000D03*
X144300000Y-109000000D03*
X137700000Y-120700000D03*
X132600000Y-107600000D03*
X135100000Y-112400000D03*
X144200000Y-105600000D03*
X139900000Y-118200000D03*
D21*
X128400000Y-105200000D03*
X128400000Y-106200000D03*
D22*
X135500000Y-122200000D03*
X124200000Y-119700000D03*
X127900000Y-107600000D03*
X137200000Y-105200000D03*
X138000000Y-105200000D03*
X148100000Y-103300000D03*
X149000000Y-103300000D03*
X143900000Y-119700000D03*
X143900000Y-115000000D03*
X143900000Y-123300000D03*
X144300000Y-107700000D03*
X144200000Y-104000000D03*
X128700000Y-123900000D03*
X137200000Y-102600000D03*
X144300000Y-111100000D03*
X141300000Y-118100000D03*
X139800000Y-110000000D03*
X141400000Y-123600000D03*
X141700000Y-118900000D03*
X105800000Y-114400000D03*
X104400000Y-120500000D03*
X103600000Y-120500000D03*
X105800000Y-113500000D03*
X148700000Y-126700000D03*
X126900000Y-126400000D03*
X139100000Y-127300000D03*
X150600000Y-122300000D03*
X150100000Y-106900000D03*
X150100000Y-110200000D03*
X150100000Y-114700000D03*
X148000000Y-126100000D03*
X149100000Y-113100000D03*
X149100000Y-109300000D03*
X150100000Y-116300000D03*
X150100000Y-115500000D03*
X150100000Y-111600000D03*
X146700000Y-121600000D03*
X136000000Y-125000000D03*
X111200000Y-122700000D03*
X110000000Y-117440000D03*
X111200000Y-121700000D03*
X110000000Y-116640000D03*
X131300000Y-123900000D03*
X135900000Y-104200000D03*
X131800000Y-119200000D03*
X130300000Y-123400000D03*
X127100000Y-124800000D03*
X132100000Y-123900000D03*
X132100000Y-122200000D03*
X139800000Y-106500000D03*
X126600000Y-116100000D03*
X138050000Y-107200000D03*
X126600000Y-114300000D03*
X137900000Y-109800000D03*
X127900000Y-110500000D03*
X137900000Y-108900000D03*
X131800000Y-111000000D03*
X137200000Y-107700000D03*
X125100000Y-110100000D03*
X137900000Y-124200000D03*
X137900000Y-122300000D03*
X133800000Y-115100000D03*
X128900000Y-110500000D03*
X144300000Y-121600000D03*
X138000000Y-125800000D03*
X133000000Y-123900000D03*
X129900000Y-112600000D03*
X131200000Y-112600000D03*
X144800000Y-109800000D03*
X147300000Y-109300000D03*
X146400000Y-113200000D03*
X144900000Y-106300000D03*
X147300000Y-117100000D03*
X147200000Y-126100000D03*
X126600000Y-115100000D03*
D21*
X136400000Y-105600000D03*
D22*
X123700000Y-114700000D03*
X136400000Y-107700000D03*
X129800000Y-106000000D03*
X138900000Y-104300000D03*
X129700000Y-119100000D03*
X129700000Y-122600000D03*
X143900000Y-109800000D03*
X131200000Y-110500000D03*
X144400000Y-113800000D03*
X134100000Y-111800000D03*
X144400000Y-126400000D03*
X136900000Y-110500000D03*
X137700000Y-117400000D03*
X135200000Y-114100000D03*
X152700000Y-107000000D03*
X151200000Y-121600000D03*
X126900000Y-122300000D03*
D24*
X132100020Y-104900020D02*
X130324264Y-104900020D01*
X130324264Y-104900020D02*
X129900000Y-104900020D01*
X132500000Y-105300000D02*
X132100020Y-104900020D01*
X142200000Y-113800000D02*
X141300000Y-114700000D01*
X143900000Y-114400000D02*
X143300000Y-113800000D01*
X141600000Y-110000000D02*
X143300000Y-111700000D01*
X141300000Y-114700000D02*
X141300000Y-118100000D01*
X143300000Y-113800000D02*
X142200000Y-113800000D01*
X145000000Y-114100000D02*
X144700000Y-114400000D01*
X143300000Y-111700000D02*
X144200000Y-111700000D01*
X145000000Y-112500000D02*
X145000000Y-114100000D01*
X144700000Y-114400000D02*
X143900000Y-114400000D01*
X139800000Y-110000000D02*
X141600000Y-110000000D01*
X144200000Y-111700000D02*
X145000000Y-112500000D01*
D25*
X141400000Y-123600000D02*
X141400000Y-121800000D01*
X141400000Y-121800000D02*
X140800000Y-121200000D01*
X140800000Y-121200000D02*
X140800000Y-119800000D01*
X140800000Y-119800000D02*
X141700000Y-118900000D01*
D26*
X104275000Y-120375000D02*
X104400000Y-120500000D01*
X104275000Y-115925000D02*
X104275000Y-120375000D01*
X105713910Y-114486090D02*
X104275000Y-115925000D01*
X103725000Y-120375000D02*
X103600000Y-120500000D01*
X105800000Y-113411090D02*
X103725000Y-115486090D01*
X103725000Y-115486090D02*
X103725000Y-120375000D01*
X105800000Y-113400000D02*
X105800000Y-113411090D01*
D24*
X126900000Y-126400000D02*
X136300000Y-126400000D01*
X136300000Y-126400000D02*
X137200000Y-127300000D01*
X137200000Y-127300000D02*
X139100000Y-127300000D01*
X148700000Y-124700000D02*
X148700000Y-126700000D01*
X150600000Y-122300000D02*
X150600000Y-122800000D01*
X150600000Y-122800000D02*
X148700000Y-124700000D01*
X150100000Y-110200000D02*
X150100000Y-106900000D01*
X149460010Y-110839990D02*
X149460010Y-112560010D01*
X150100000Y-110200000D02*
X149460010Y-110839990D01*
X150100000Y-113200000D02*
X150100000Y-114700000D01*
X149460010Y-112560010D02*
X150100000Y-113200000D01*
D25*
X152900000Y-115240000D02*
X154140000Y-114000000D01*
X152900000Y-115400000D02*
X152900000Y-115240000D01*
D24*
X152900000Y-119700000D02*
X152900000Y-115400000D01*
X150300000Y-120600000D02*
X152000000Y-120600000D01*
X148000000Y-126100000D02*
X148000000Y-122900000D01*
X152000000Y-120600000D02*
X152900000Y-119700000D01*
X148000000Y-122900000D02*
X150300000Y-120600000D01*
X149100000Y-113100000D02*
X149100000Y-109300000D01*
X149100000Y-115600000D02*
X149100000Y-113100000D01*
X150100000Y-116300000D02*
X149800000Y-116300000D01*
X149800000Y-116300000D02*
X149100000Y-115600000D01*
D25*
X154140000Y-108920000D02*
X154080000Y-108920000D01*
X154080000Y-108920000D02*
X153000000Y-110000000D01*
D24*
X153000000Y-112700000D02*
X153000000Y-110000000D01*
X153000000Y-114400000D02*
X153000000Y-112700000D01*
X152100000Y-115300000D02*
X153000000Y-114400000D01*
X150100000Y-115500000D02*
X150300000Y-115300000D01*
X150300000Y-115300000D02*
X152100000Y-115300000D01*
X150600000Y-112700000D02*
X153000000Y-112700000D01*
X150100000Y-111600000D02*
X150100000Y-112200000D01*
X150100000Y-112200000D02*
X150600000Y-112700000D01*
X146800000Y-121700000D02*
X146700000Y-121600000D01*
X139300000Y-125400000D02*
X145000000Y-125400000D01*
X138300000Y-126400000D02*
X139300000Y-125400000D01*
X145000000Y-125400000D02*
X146800000Y-123600000D01*
X136000000Y-125000000D02*
X137000000Y-125000000D01*
X146800000Y-123600000D02*
X146800000Y-121700000D01*
X137000000Y-125000000D02*
X137400000Y-125400000D01*
X137400000Y-125400000D02*
X137400000Y-126100000D01*
X137400000Y-126100000D02*
X137700000Y-126400000D01*
X137700000Y-126400000D02*
X138300000Y-126400000D01*
D26*
X110225000Y-121725000D02*
X110225000Y-119386090D01*
X111200000Y-122700000D02*
X110225000Y-121725000D01*
X110225000Y-119386090D02*
X111225000Y-118386090D01*
X111225000Y-118386090D02*
X111225000Y-117813910D01*
X110726090Y-117315000D02*
X110125000Y-117315000D01*
X111225000Y-117813910D02*
X110726090Y-117315000D01*
X110125000Y-117315000D02*
X110000000Y-117440000D01*
X110977818Y-121700000D02*
X110775000Y-121497182D01*
X111200000Y-121700000D02*
X110977818Y-121700000D01*
X110775000Y-121497182D02*
X110775000Y-119613910D01*
X110775000Y-119613910D02*
X111775000Y-118613910D01*
X111775000Y-118613910D02*
X111775000Y-117586090D01*
X110125000Y-116765000D02*
X110000000Y-116640000D01*
X111775000Y-117586090D02*
X110953910Y-116765000D01*
X110953910Y-116765000D02*
X110125000Y-116765000D01*
D24*
X131300000Y-124900000D02*
X131300000Y-123900000D01*
X130600000Y-125600000D02*
X131300000Y-124900000D01*
X126700000Y-125600000D02*
X130600000Y-125600000D01*
X126400000Y-125300000D02*
X126700000Y-125600000D01*
X126400000Y-122900000D02*
X126400000Y-125300000D01*
X121900000Y-119600000D02*
X124500000Y-122200000D01*
X121900000Y-110500000D02*
X121900000Y-119600000D01*
X122900000Y-109500000D02*
X121900000Y-110500000D01*
X135900000Y-104200000D02*
X137900000Y-104200000D01*
X124500000Y-122200000D02*
X125700000Y-122200000D01*
X139500000Y-102200000D02*
X138500000Y-101200000D01*
X137900000Y-104200000D02*
X138600000Y-104900000D01*
X125700000Y-122200000D02*
X126400000Y-122900000D01*
X138500000Y-101200000D02*
X130300000Y-101200000D01*
X138600000Y-104900000D02*
X139200000Y-104900000D01*
X122900000Y-108600000D02*
X122900000Y-109500000D01*
X130300000Y-101200000D02*
X122900000Y-108600000D01*
X139200000Y-104900000D02*
X139500000Y-104600000D01*
X139500000Y-104600000D02*
X139500000Y-102200000D01*
D27*
X130300000Y-123400000D02*
X130300000Y-124500000D01*
X130300000Y-124500000D02*
X130000000Y-124800000D01*
X130000000Y-124800000D02*
X127100000Y-124800000D01*
D24*
X131800000Y-119200000D02*
X131800000Y-121000000D01*
X130300000Y-122500000D02*
X130300000Y-123400000D01*
X131800000Y-121000000D02*
X130300000Y-122500000D01*
X132100000Y-123900000D02*
X132100000Y-122200000D01*
X139375736Y-106500000D02*
X139800000Y-106500000D01*
X123600000Y-116100000D02*
X122700000Y-115200000D01*
X131000000Y-108239990D02*
X133039990Y-106200000D01*
X139085737Y-106210001D02*
X139375736Y-106500000D01*
X133039990Y-106200000D02*
X136097198Y-106200000D01*
X124500000Y-112200000D02*
X124500000Y-109900000D01*
X126600000Y-116100000D02*
X123600000Y-116100000D01*
X122700000Y-114000000D02*
X124500000Y-112200000D01*
X124500000Y-109900000D02*
X126160010Y-108239990D01*
X126160010Y-108239990D02*
X131000000Y-108239990D01*
X136097198Y-106200000D02*
X136107199Y-106210001D01*
X122700000Y-115200000D02*
X122700000Y-114000000D01*
X136107199Y-106210001D02*
X139085737Y-106210001D01*
X138000000Y-107100000D02*
X138050000Y-107050000D01*
X137989999Y-107139999D02*
X138050000Y-107200000D01*
X135960001Y-107139999D02*
X137989999Y-107139999D01*
X131590870Y-109000000D02*
X131870899Y-108719970D01*
X134380030Y-108719970D02*
X135960001Y-107139999D01*
X123100000Y-115000000D02*
X123100000Y-114200000D01*
X131870899Y-108719970D02*
X134380030Y-108719970D01*
X123900000Y-115300000D02*
X123400000Y-115300000D01*
X124900000Y-114300000D02*
X123900000Y-115300000D01*
X126200000Y-113090870D02*
X126200000Y-110000000D01*
X123400000Y-115300000D02*
X123100000Y-115000000D01*
X123100000Y-114200000D02*
X123800000Y-113500000D01*
X125790870Y-113500000D02*
X126200000Y-113090870D01*
X123800000Y-113500000D02*
X125790870Y-113500000D01*
X126200000Y-110000000D02*
X127200000Y-109000000D01*
X126600000Y-114300000D02*
X124900000Y-114300000D01*
X127200000Y-109000000D02*
X131590870Y-109000000D01*
X137860010Y-109760010D02*
X137900000Y-109800000D01*
X136700000Y-109800000D02*
X137900000Y-109800000D01*
X132100000Y-111600000D02*
X133500000Y-110200000D01*
X129000000Y-111600000D02*
X132100000Y-111600000D01*
X133500000Y-110200000D02*
X136300000Y-110200000D01*
X127900000Y-110500000D02*
X129000000Y-111600000D01*
X136300000Y-110200000D02*
X136700000Y-109800000D01*
X137800000Y-108800000D02*
X137900000Y-108800000D01*
X131800000Y-111000000D02*
X133000000Y-109800000D01*
X133000000Y-109800000D02*
X136109130Y-109800000D01*
X137109130Y-108800000D02*
X137900000Y-108800000D01*
X136109130Y-109800000D02*
X137109130Y-108800000D01*
X138800000Y-107400000D02*
X138400000Y-107800000D01*
X138800000Y-106800000D02*
X138800000Y-107400000D01*
X138400000Y-107800000D02*
X137724264Y-107800000D01*
X137624264Y-107700000D02*
X137200000Y-107700000D01*
X125100000Y-110100000D02*
X126600000Y-108600000D01*
X137724264Y-107800000D02*
X137624264Y-107700000D01*
X138600000Y-106600000D02*
X138800000Y-106800000D01*
X131481739Y-108600000D02*
X131721778Y-108359960D01*
X126600000Y-108600000D02*
X131481739Y-108600000D01*
X131721778Y-108359960D02*
X134230910Y-108359960D01*
X135990870Y-106600000D02*
X138600000Y-106600000D01*
X134230910Y-108359960D02*
X135990870Y-106600000D01*
X137900000Y-124200000D02*
X137900000Y-122300000D01*
X133100000Y-113300000D02*
X133100000Y-114400000D01*
X133100000Y-114400000D02*
X133800000Y-115100000D01*
X128300000Y-112000000D02*
X131800000Y-112000000D01*
X128300000Y-109900000D02*
X127500000Y-109900000D01*
X128900000Y-110500000D02*
X128300000Y-109900000D01*
X131800000Y-112000000D02*
X133100000Y-113300000D01*
X127200000Y-110200000D02*
X127200000Y-110900000D01*
X127500000Y-109900000D02*
X127200000Y-110200000D01*
X127200000Y-110900000D02*
X128300000Y-112000000D01*
X144100000Y-125000000D02*
X144700000Y-124400000D01*
X138000000Y-125800000D02*
X138800000Y-125000000D01*
X144700000Y-122000000D02*
X144300000Y-121600000D01*
X144700000Y-124400000D02*
X144700000Y-122000000D01*
X138800000Y-125000000D02*
X144100000Y-125000000D01*
X133000000Y-123900000D02*
X133000000Y-123400000D01*
X133000000Y-123400000D02*
X133800000Y-122600000D01*
X131200000Y-112600000D02*
X129900000Y-112600000D01*
X133800000Y-122600000D02*
X133800000Y-116300000D01*
X131200000Y-113700000D02*
X131200000Y-112600000D01*
X133800000Y-116300000D02*
X131200000Y-113700000D01*
X146800000Y-109800000D02*
X147300000Y-109300000D01*
X144800000Y-109800000D02*
X146800000Y-109800000D01*
X146400000Y-113200000D02*
X148100000Y-111500000D01*
X148100000Y-111500000D02*
X148100000Y-107100000D01*
X148100000Y-107100000D02*
X147300000Y-106300000D01*
X147300000Y-106300000D02*
X144900000Y-106300000D01*
X147300000Y-126000000D02*
X147200000Y-126100000D01*
X147300000Y-117100000D02*
X147300000Y-126000000D01*
X127000000Y-115100000D02*
X126600000Y-115100000D01*
X127300000Y-116500000D02*
X127300000Y-115400000D01*
X127300000Y-115400000D02*
X127000000Y-115100000D01*
X127000000Y-116800000D02*
X127300000Y-116500000D01*
X124139991Y-109562811D02*
X124139991Y-112050879D01*
X126702802Y-107000000D02*
X124139991Y-109562811D01*
X124139991Y-112050879D02*
X122300000Y-113890870D01*
X131730860Y-107000000D02*
X126702802Y-107000000D01*
X133130860Y-105600000D02*
X131730860Y-107000000D01*
X136400000Y-105600000D02*
X133130860Y-105600000D01*
X122300000Y-113890870D02*
X122300000Y-115309130D01*
X122300000Y-115309130D02*
X123490870Y-116500000D01*
X123490870Y-116500000D02*
X126000000Y-116500000D01*
X126000000Y-116500000D02*
X126300000Y-116800000D01*
X126300000Y-116800000D02*
X127000000Y-116800000D01*
X136400000Y-108100000D02*
X136400000Y-107700000D01*
X131700000Y-109400000D02*
X132020020Y-109079980D01*
X135420020Y-109079980D02*
X136400000Y-108100000D01*
X127400000Y-109400000D02*
X131700000Y-109400000D01*
X124500000Y-113900000D02*
X125900000Y-113900000D01*
X126600000Y-110200000D02*
X127400000Y-109400000D01*
X125900000Y-113900000D02*
X126600000Y-113200000D01*
X132020020Y-109079980D02*
X135420020Y-109079980D01*
X123700000Y-114700000D02*
X124500000Y-113900000D01*
X126600000Y-110200000D02*
X126600000Y-113200000D01*
X129200000Y-105400000D02*
X129800000Y-106000000D01*
X129200000Y-103100000D02*
X129200000Y-105400000D01*
X130300000Y-102000000D02*
X129200000Y-103100000D01*
X138500000Y-102000000D02*
X130300000Y-102000000D01*
X138900000Y-102400000D02*
X138500000Y-102000000D01*
X138900000Y-104300000D02*
X138900000Y-102400000D01*
X129700000Y-122600000D02*
X129700000Y-119100000D01*
X142400000Y-109800000D02*
X143900000Y-109800000D01*
X132260010Y-109439990D02*
X135760010Y-109439990D01*
X131200000Y-110500000D02*
X132260010Y-109439990D01*
X140900000Y-108300000D02*
X142400000Y-109800000D01*
X135760010Y-109439990D02*
X136900000Y-108300000D01*
X136900000Y-108300000D02*
X140900000Y-108300000D01*
X134600000Y-113700000D02*
X134900000Y-113400000D01*
X134200000Y-113700000D02*
X134600000Y-113700000D01*
X133900000Y-113400000D02*
X134200000Y-113700000D01*
X133900000Y-112600000D02*
X133900000Y-113400000D01*
X134100000Y-112400000D02*
X133900000Y-112600000D01*
X134100000Y-111800000D02*
X134100000Y-112400000D01*
X144400000Y-113800000D02*
X144000000Y-113400000D01*
X134900000Y-113400000D02*
X144000000Y-113400000D01*
X143800000Y-125800000D02*
X144400000Y-126400000D01*
X139700000Y-125800000D02*
X143800000Y-125800000D01*
X138700000Y-126800000D02*
X139700000Y-125800000D01*
X134800000Y-122700000D02*
X135400000Y-123300000D01*
X133500000Y-111600000D02*
X133500000Y-113600000D01*
X137500000Y-126800000D02*
X138700000Y-126800000D01*
X134400000Y-110700000D02*
X133500000Y-111600000D01*
X135400000Y-125400000D02*
X135900000Y-125900000D01*
X135900000Y-125900000D02*
X136600000Y-125900000D01*
X136600000Y-125900000D02*
X137500000Y-126800000D01*
X136900000Y-110500000D02*
X136700000Y-110700000D01*
X136700000Y-110700000D02*
X134400000Y-110700000D01*
X134800000Y-114900000D02*
X134800000Y-122700000D01*
X133500000Y-113600000D02*
X134800000Y-114900000D01*
X135400000Y-123300000D02*
X135400000Y-125400000D01*
X137600000Y-117300000D02*
X137700000Y-117400000D01*
X137600000Y-114400000D02*
X137600000Y-117300000D01*
X135200000Y-114100000D02*
X137300000Y-114100000D01*
X137300000Y-114100000D02*
X137600000Y-114400000D01*
D25*
X151600000Y-108920000D02*
X151600000Y-107400000D01*
X151600000Y-107400000D02*
X152000000Y-107000000D01*
X152000000Y-107000000D02*
X152700000Y-107000000D01*
G36*
X109950000Y-108250000D02*
G01*
X108897504Y-108250000D01*
X108826310Y-108202430D01*
X108662520Y-108134586D01*
X108488642Y-108100000D01*
X108311358Y-108100000D01*
X108137480Y-108134586D01*
X107973690Y-108202430D01*
X107902496Y-108250000D01*
X107700000Y-108250000D01*
X107670736Y-108252882D01*
X107642597Y-108261418D01*
X107616664Y-108275280D01*
X107593934Y-108293934D01*
X107575280Y-108316664D01*
X107561418Y-108342597D01*
X107552882Y-108370736D01*
X107550000Y-108400000D01*
X107550000Y-108700267D01*
X107534586Y-108737480D01*
X107500000Y-108911358D01*
X107500000Y-109088642D01*
X107534586Y-109262520D01*
X107550000Y-109299733D01*
X107550000Y-110150000D01*
X105300000Y-110150000D01*
X105270736Y-110152882D01*
X105242597Y-110161418D01*
X105216664Y-110175280D01*
X105193934Y-110193934D01*
X105175280Y-110216664D01*
X105161418Y-110242597D01*
X105152882Y-110270736D01*
X105150000Y-110300000D01*
X105150000Y-110657496D01*
X105124585Y-110695532D01*
X105058626Y-110854772D01*
X105025000Y-111023820D01*
X105025000Y-111196180D01*
X105058626Y-111365228D01*
X105124585Y-111524468D01*
X105150000Y-111562504D01*
X105150000Y-112947918D01*
X105139762Y-112958156D01*
X105046740Y-113097374D01*
X105017274Y-113168511D01*
X103237524Y-114948262D01*
X103209868Y-114970959D01*
X103119269Y-115081354D01*
X103051947Y-115207303D01*
X103010491Y-115343966D01*
X103000000Y-115450484D01*
X103000000Y-115450493D01*
X102996494Y-115486090D01*
X103000000Y-115521687D01*
X103000001Y-118850000D01*
X101150000Y-118850000D01*
X101150000Y-109150000D01*
X104400000Y-109150000D01*
X104429264Y-109147118D01*
X104457403Y-109138582D01*
X104483336Y-109124720D01*
X104506066Y-109106066D01*
X104524720Y-109083336D01*
X104538582Y-109057403D01*
X104547118Y-109029264D01*
X104550000Y-109000000D01*
X104550000Y-106150000D01*
X109950000Y-106150000D01*
X109950000Y-108250000D01*
X109950000Y-108250000D01*
G37*
X109950000Y-108250000D02*
X108897504Y-108250000D01*
X108826310Y-108202430D01*
X108662520Y-108134586D01*
X108488642Y-108100000D01*
X108311358Y-108100000D01*
X108137480Y-108134586D01*
X107973690Y-108202430D01*
X107902496Y-108250000D01*
X107700000Y-108250000D01*
X107670736Y-108252882D01*
X107642597Y-108261418D01*
X107616664Y-108275280D01*
X107593934Y-108293934D01*
X107575280Y-108316664D01*
X107561418Y-108342597D01*
X107552882Y-108370736D01*
X107550000Y-108400000D01*
X107550000Y-108700267D01*
X107534586Y-108737480D01*
X107500000Y-108911358D01*
X107500000Y-109088642D01*
X107534586Y-109262520D01*
X107550000Y-109299733D01*
X107550000Y-110150000D01*
X105300000Y-110150000D01*
X105270736Y-110152882D01*
X105242597Y-110161418D01*
X105216664Y-110175280D01*
X105193934Y-110193934D01*
X105175280Y-110216664D01*
X105161418Y-110242597D01*
X105152882Y-110270736D01*
X105150000Y-110300000D01*
X105150000Y-110657496D01*
X105124585Y-110695532D01*
X105058626Y-110854772D01*
X105025000Y-111023820D01*
X105025000Y-111196180D01*
X105058626Y-111365228D01*
X105124585Y-111524468D01*
X105150000Y-111562504D01*
X105150000Y-112947918D01*
X105139762Y-112958156D01*
X105046740Y-113097374D01*
X105017274Y-113168511D01*
X103237524Y-114948262D01*
X103209868Y-114970959D01*
X103119269Y-115081354D01*
X103051947Y-115207303D01*
X103010491Y-115343966D01*
X103000000Y-115450484D01*
X103000000Y-115450493D01*
X102996494Y-115486090D01*
X103000000Y-115521687D01*
X103000001Y-118850000D01*
X101150000Y-118850000D01*
X101150000Y-109150000D01*
X104400000Y-109150000D01*
X104429264Y-109147118D01*
X104457403Y-109138582D01*
X104483336Y-109124720D01*
X104506066Y-109106066D01*
X104524720Y-109083336D01*
X104538582Y-109057403D01*
X104547118Y-109029264D01*
X104550000Y-109000000D01*
X104550000Y-106150000D01*
X109950000Y-106150000D01*
X109950000Y-108250000D01*
G36*
X105150000Y-116437496D02*
G01*
X105124585Y-116475532D01*
X105058626Y-116634772D01*
X105025000Y-116803820D01*
X105025000Y-116976180D01*
X105058626Y-117145228D01*
X105124585Y-117304468D01*
X105150000Y-117342504D01*
X105150000Y-117700000D01*
X105152882Y-117729264D01*
X105161418Y-117757403D01*
X105175280Y-117783336D01*
X105193934Y-117806066D01*
X105216664Y-117824720D01*
X105242597Y-117838582D01*
X105270736Y-117847118D01*
X105300000Y-117850000D01*
X107550000Y-117850000D01*
X107550000Y-118277207D01*
X107500924Y-118326283D01*
X107402430Y-118473690D01*
X107334586Y-118637480D01*
X107300000Y-118811358D01*
X107300000Y-118850000D01*
X105000000Y-118850000D01*
X105000000Y-116225304D01*
X105150000Y-116075304D01*
X105150000Y-116437496D01*
X105150000Y-116437496D01*
G37*
X105150000Y-116437496D02*
X105124585Y-116475532D01*
X105058626Y-116634772D01*
X105025000Y-116803820D01*
X105025000Y-116976180D01*
X105058626Y-117145228D01*
X105124585Y-117304468D01*
X105150000Y-117342504D01*
X105150000Y-117700000D01*
X105152882Y-117729264D01*
X105161418Y-117757403D01*
X105175280Y-117783336D01*
X105193934Y-117806066D01*
X105216664Y-117824720D01*
X105242597Y-117838582D01*
X105270736Y-117847118D01*
X105300000Y-117850000D01*
X107550000Y-117850000D01*
X107550000Y-118277207D01*
X107500924Y-118326283D01*
X107402430Y-118473690D01*
X107334586Y-118637480D01*
X107300000Y-118811358D01*
X107300000Y-118850000D01*
X105000000Y-118850000D01*
X105000000Y-116225304D01*
X105150000Y-116075304D01*
X105150000Y-116437496D01*
D24*
G36*
X143700000Y-126407105D02*
G01*
X143700000Y-126468944D01*
X143726901Y-126604182D01*
X143779668Y-126731574D01*
X143856274Y-126846224D01*
X143910050Y-126900000D01*
X139674612Y-126900000D01*
X139643726Y-126853776D01*
X139546224Y-126756274D01*
X139489040Y-126718065D01*
X139907107Y-126300000D01*
X143592895Y-126300000D01*
X143700000Y-126407105D01*
X143700000Y-126407105D01*
G37*
X143700000Y-126407105D02*
X143700000Y-126468944D01*
X143726901Y-126604182D01*
X143779668Y-126731574D01*
X143856274Y-126846224D01*
X143910050Y-126900000D01*
X139674612Y-126900000D01*
X139643726Y-126853776D01*
X139546224Y-126756274D01*
X139489040Y-126718065D01*
X139907107Y-126300000D01*
X143592895Y-126300000D01*
X143700000Y-126407105D01*
G36*
X120178822Y-101181233D02*
G01*
X120150000Y-101326131D01*
X120150000Y-101473869D01*
X120178822Y-101618767D01*
X120235359Y-101755258D01*
X120317437Y-101878097D01*
X120421903Y-101982563D01*
X120522830Y-102050000D01*
X120421903Y-102117437D01*
X120350000Y-102189340D01*
X120278097Y-102117437D01*
X120155258Y-102035359D01*
X120018767Y-101978822D01*
X119873869Y-101950000D01*
X119726131Y-101950000D01*
X119581233Y-101978822D01*
X119444742Y-102035359D01*
X119321903Y-102117437D01*
X119217437Y-102221903D01*
X119135359Y-102344742D01*
X119078822Y-102481233D01*
X119050000Y-102626131D01*
X119050000Y-102773869D01*
X119078822Y-102918767D01*
X119135359Y-103055258D01*
X119217437Y-103178097D01*
X119321903Y-103282563D01*
X119444742Y-103364641D01*
X119581233Y-103421178D01*
X119726131Y-103450000D01*
X119873869Y-103450000D01*
X120018767Y-103421178D01*
X120155258Y-103364641D01*
X120278097Y-103282563D01*
X120350000Y-103210660D01*
X120421903Y-103282563D01*
X120544742Y-103364641D01*
X120681233Y-103421178D01*
X120826131Y-103450000D01*
X120973869Y-103450000D01*
X121118767Y-103421178D01*
X121255258Y-103364641D01*
X121378097Y-103282563D01*
X121482563Y-103178097D01*
X121564641Y-103055258D01*
X121621178Y-102918767D01*
X121650000Y-102773869D01*
X121650000Y-102626131D01*
X121621178Y-102481233D01*
X121564641Y-102344742D01*
X121482563Y-102221903D01*
X121378097Y-102117437D01*
X121277170Y-102050000D01*
X121378097Y-101982563D01*
X121482563Y-101878097D01*
X121564641Y-101755258D01*
X121621178Y-101618767D01*
X121650000Y-101473869D01*
X121650000Y-101326131D01*
X121621178Y-101181233D01*
X121587530Y-101100000D01*
X129692893Y-101100000D01*
X122582844Y-108210051D01*
X122573717Y-108200924D01*
X122426310Y-108102430D01*
X122262520Y-108034586D01*
X122088642Y-108000000D01*
X121911358Y-108000000D01*
X121737480Y-108034586D01*
X121573690Y-108102430D01*
X121426283Y-108200924D01*
X121300924Y-108326283D01*
X121202430Y-108473690D01*
X121134586Y-108637480D01*
X121100000Y-108811358D01*
X121100000Y-108988642D01*
X121134586Y-109162520D01*
X121202430Y-109326310D01*
X121300924Y-109473717D01*
X121426283Y-109599076D01*
X121573690Y-109697570D01*
X121737480Y-109765414D01*
X121895958Y-109796937D01*
X121563824Y-110129071D01*
X121544736Y-110144736D01*
X121482254Y-110220871D01*
X121435825Y-110307734D01*
X121421407Y-110355264D01*
X121407235Y-110401983D01*
X121397581Y-110500000D01*
X121400000Y-110524560D01*
X121400001Y-119575430D01*
X121397581Y-119600000D01*
X121407235Y-119698017D01*
X121433747Y-119785415D01*
X121435826Y-119792267D01*
X121482255Y-119879129D01*
X121544737Y-119955264D01*
X121563819Y-119970924D01*
X124129079Y-122536186D01*
X124144736Y-122555264D01*
X124220871Y-122617746D01*
X124277594Y-122648065D01*
X123350000Y-122648065D01*
X123271586Y-122655788D01*
X123196186Y-122678660D01*
X123126697Y-122715803D01*
X123065789Y-122765789D01*
X123015803Y-122826697D01*
X122978660Y-122896186D01*
X122955788Y-122971586D01*
X122948065Y-123050000D01*
X122948065Y-124750000D01*
X122955788Y-124828414D01*
X122978660Y-124903814D01*
X123015803Y-124973303D01*
X123065789Y-125034211D01*
X123126697Y-125084197D01*
X123196186Y-125121340D01*
X123271586Y-125144212D01*
X123350000Y-125151935D01*
X125050000Y-125151935D01*
X125128414Y-125144212D01*
X125203814Y-125121340D01*
X125273303Y-125084197D01*
X125334211Y-125034211D01*
X125384197Y-124973303D01*
X125421340Y-124903814D01*
X125444212Y-124828414D01*
X125451935Y-124750000D01*
X125451935Y-123050000D01*
X125444212Y-122971586D01*
X125421340Y-122896186D01*
X125384197Y-122826697D01*
X125334211Y-122765789D01*
X125273303Y-122715803D01*
X125243738Y-122700000D01*
X125492895Y-122700000D01*
X125900000Y-123107107D01*
X125900001Y-125275430D01*
X125897581Y-125300000D01*
X125907235Y-125398017D01*
X125931784Y-125478942D01*
X125935826Y-125492267D01*
X125982255Y-125579129D01*
X126044737Y-125655264D01*
X126063820Y-125670925D01*
X126329071Y-125936176D01*
X126344736Y-125955264D01*
X126351546Y-125960853D01*
X126279668Y-126068426D01*
X126226901Y-126195818D01*
X126200000Y-126331056D01*
X126200000Y-126468944D01*
X126226901Y-126604182D01*
X126279668Y-126731574D01*
X126356274Y-126846224D01*
X126410050Y-126900000D01*
X125366707Y-126900000D01*
X125431913Y-126685043D01*
X125456048Y-126440000D01*
X125431913Y-126194957D01*
X125360437Y-125959331D01*
X125244366Y-125742177D01*
X125088160Y-125551840D01*
X124897823Y-125395634D01*
X124680669Y-125279563D01*
X124445043Y-125208087D01*
X124261405Y-125190000D01*
X124138595Y-125190000D01*
X123954957Y-125208087D01*
X123719331Y-125279563D01*
X123502177Y-125395634D01*
X123311840Y-125551840D01*
X123155634Y-125742177D01*
X123039563Y-125959331D01*
X122968087Y-126194957D01*
X122943952Y-126440000D01*
X122968087Y-126685043D01*
X123033293Y-126900000D01*
X121578841Y-126900000D01*
X121631913Y-126725043D01*
X121656048Y-126480000D01*
X121631913Y-126234957D01*
X121560437Y-125999331D01*
X121444366Y-125782177D01*
X121288160Y-125591840D01*
X121097823Y-125435634D01*
X120880669Y-125319563D01*
X120645043Y-125248087D01*
X120461405Y-125230000D01*
X120338595Y-125230000D01*
X120154957Y-125248087D01*
X120100000Y-125264758D01*
X120100000Y-125155242D01*
X120154957Y-125171913D01*
X120338595Y-125190000D01*
X120461405Y-125190000D01*
X120645043Y-125171913D01*
X120880669Y-125100437D01*
X121097823Y-124984366D01*
X121288160Y-124828160D01*
X121444366Y-124637823D01*
X121560437Y-124420669D01*
X121631913Y-124185043D01*
X121656048Y-123940000D01*
X121631913Y-123694957D01*
X121560437Y-123459331D01*
X121444366Y-123242177D01*
X121288160Y-123051840D01*
X121097823Y-122895634D01*
X120880669Y-122779563D01*
X120785257Y-122750620D01*
X121250000Y-122752419D01*
X121348017Y-122742765D01*
X121442267Y-122714175D01*
X121529129Y-122667746D01*
X121605264Y-122605264D01*
X121667746Y-122529129D01*
X121714175Y-122442267D01*
X121742765Y-122348017D01*
X121752419Y-122250000D01*
X121750000Y-121625000D01*
X121625000Y-121500000D01*
X120500000Y-121500000D01*
X120500000Y-121520000D01*
X120300000Y-121520000D01*
X120300000Y-121500000D01*
X120280000Y-121500000D01*
X120280000Y-121300000D01*
X120300000Y-121300000D01*
X120300000Y-120175000D01*
X120500000Y-120175000D01*
X120500000Y-121300000D01*
X121625000Y-121300000D01*
X121750000Y-121175000D01*
X121752419Y-120550000D01*
X121742765Y-120451983D01*
X121714175Y-120357733D01*
X121667746Y-120270871D01*
X121605264Y-120194736D01*
X121529129Y-120132254D01*
X121442267Y-120085825D01*
X121348017Y-120057235D01*
X121250000Y-120047581D01*
X120625000Y-120050000D01*
X120500000Y-120175000D01*
X120300000Y-120175000D01*
X120175000Y-120050000D01*
X120100000Y-120049710D01*
X120100000Y-108903352D01*
X120120000Y-108905322D01*
X120335638Y-108884084D01*
X120542988Y-108821184D01*
X120734084Y-108719042D01*
X120901581Y-108581581D01*
X121039042Y-108414084D01*
X121141184Y-108222987D01*
X121204084Y-108015637D01*
X121220000Y-107854035D01*
X121220000Y-107345964D01*
X121204084Y-107184362D01*
X121141184Y-106977012D01*
X121039042Y-106785916D01*
X120901581Y-106618419D01*
X120734084Y-106480958D01*
X120542987Y-106378816D01*
X120335637Y-106315916D01*
X120120000Y-106294678D01*
X119904362Y-106315916D01*
X119697012Y-106378816D01*
X119505916Y-106480958D01*
X119338419Y-106618419D01*
X119200958Y-106785916D01*
X119098816Y-106977013D01*
X119035916Y-107184363D01*
X119020000Y-107345965D01*
X119020000Y-107854036D01*
X119035916Y-108015638D01*
X119098816Y-108222988D01*
X119193431Y-108400000D01*
X117100000Y-108400000D01*
X117100000Y-105700000D01*
X117600000Y-105700000D01*
X117619509Y-105698079D01*
X117638268Y-105692388D01*
X117655557Y-105683147D01*
X117670711Y-105670711D01*
X117683147Y-105655557D01*
X117692388Y-105638268D01*
X117698079Y-105619509D01*
X117700000Y-105600000D01*
X117700000Y-103100000D01*
X117698079Y-103080491D01*
X117692388Y-103061732D01*
X117683147Y-103044443D01*
X117670711Y-103029289D01*
X117655557Y-103016853D01*
X117638268Y-103007612D01*
X117619509Y-103001921D01*
X117600000Y-103000000D01*
X116900000Y-103000000D01*
X116900000Y-101100000D01*
X120212470Y-101100000D01*
X120178822Y-101181233D01*
X120178822Y-101181233D01*
G37*
X120178822Y-101181233D02*
X120150000Y-101326131D01*
X120150000Y-101473869D01*
X120178822Y-101618767D01*
X120235359Y-101755258D01*
X120317437Y-101878097D01*
X120421903Y-101982563D01*
X120522830Y-102050000D01*
X120421903Y-102117437D01*
X120350000Y-102189340D01*
X120278097Y-102117437D01*
X120155258Y-102035359D01*
X120018767Y-101978822D01*
X119873869Y-101950000D01*
X119726131Y-101950000D01*
X119581233Y-101978822D01*
X119444742Y-102035359D01*
X119321903Y-102117437D01*
X119217437Y-102221903D01*
X119135359Y-102344742D01*
X119078822Y-102481233D01*
X119050000Y-102626131D01*
X119050000Y-102773869D01*
X119078822Y-102918767D01*
X119135359Y-103055258D01*
X119217437Y-103178097D01*
X119321903Y-103282563D01*
X119444742Y-103364641D01*
X119581233Y-103421178D01*
X119726131Y-103450000D01*
X119873869Y-103450000D01*
X120018767Y-103421178D01*
X120155258Y-103364641D01*
X120278097Y-103282563D01*
X120350000Y-103210660D01*
X120421903Y-103282563D01*
X120544742Y-103364641D01*
X120681233Y-103421178D01*
X120826131Y-103450000D01*
X120973869Y-103450000D01*
X121118767Y-103421178D01*
X121255258Y-103364641D01*
X121378097Y-103282563D01*
X121482563Y-103178097D01*
X121564641Y-103055258D01*
X121621178Y-102918767D01*
X121650000Y-102773869D01*
X121650000Y-102626131D01*
X121621178Y-102481233D01*
X121564641Y-102344742D01*
X121482563Y-102221903D01*
X121378097Y-102117437D01*
X121277170Y-102050000D01*
X121378097Y-101982563D01*
X121482563Y-101878097D01*
X121564641Y-101755258D01*
X121621178Y-101618767D01*
X121650000Y-101473869D01*
X121650000Y-101326131D01*
X121621178Y-101181233D01*
X121587530Y-101100000D01*
X129692893Y-101100000D01*
X122582844Y-108210051D01*
X122573717Y-108200924D01*
X122426310Y-108102430D01*
X122262520Y-108034586D01*
X122088642Y-108000000D01*
X121911358Y-108000000D01*
X121737480Y-108034586D01*
X121573690Y-108102430D01*
X121426283Y-108200924D01*
X121300924Y-108326283D01*
X121202430Y-108473690D01*
X121134586Y-108637480D01*
X121100000Y-108811358D01*
X121100000Y-108988642D01*
X121134586Y-109162520D01*
X121202430Y-109326310D01*
X121300924Y-109473717D01*
X121426283Y-109599076D01*
X121573690Y-109697570D01*
X121737480Y-109765414D01*
X121895958Y-109796937D01*
X121563824Y-110129071D01*
X121544736Y-110144736D01*
X121482254Y-110220871D01*
X121435825Y-110307734D01*
X121421407Y-110355264D01*
X121407235Y-110401983D01*
X121397581Y-110500000D01*
X121400000Y-110524560D01*
X121400001Y-119575430D01*
X121397581Y-119600000D01*
X121407235Y-119698017D01*
X121433747Y-119785415D01*
X121435826Y-119792267D01*
X121482255Y-119879129D01*
X121544737Y-119955264D01*
X121563819Y-119970924D01*
X124129079Y-122536186D01*
X124144736Y-122555264D01*
X124220871Y-122617746D01*
X124277594Y-122648065D01*
X123350000Y-122648065D01*
X123271586Y-122655788D01*
X123196186Y-122678660D01*
X123126697Y-122715803D01*
X123065789Y-122765789D01*
X123015803Y-122826697D01*
X122978660Y-122896186D01*
X122955788Y-122971586D01*
X122948065Y-123050000D01*
X122948065Y-124750000D01*
X122955788Y-124828414D01*
X122978660Y-124903814D01*
X123015803Y-124973303D01*
X123065789Y-125034211D01*
X123126697Y-125084197D01*
X123196186Y-125121340D01*
X123271586Y-125144212D01*
X123350000Y-125151935D01*
X125050000Y-125151935D01*
X125128414Y-125144212D01*
X125203814Y-125121340D01*
X125273303Y-125084197D01*
X125334211Y-125034211D01*
X125384197Y-124973303D01*
X125421340Y-124903814D01*
X125444212Y-124828414D01*
X125451935Y-124750000D01*
X125451935Y-123050000D01*
X125444212Y-122971586D01*
X125421340Y-122896186D01*
X125384197Y-122826697D01*
X125334211Y-122765789D01*
X125273303Y-122715803D01*
X125243738Y-122700000D01*
X125492895Y-122700000D01*
X125900000Y-123107107D01*
X125900001Y-125275430D01*
X125897581Y-125300000D01*
X125907235Y-125398017D01*
X125931784Y-125478942D01*
X125935826Y-125492267D01*
X125982255Y-125579129D01*
X126044737Y-125655264D01*
X126063820Y-125670925D01*
X126329071Y-125936176D01*
X126344736Y-125955264D01*
X126351546Y-125960853D01*
X126279668Y-126068426D01*
X126226901Y-126195818D01*
X126200000Y-126331056D01*
X126200000Y-126468944D01*
X126226901Y-126604182D01*
X126279668Y-126731574D01*
X126356274Y-126846224D01*
X126410050Y-126900000D01*
X125366707Y-126900000D01*
X125431913Y-126685043D01*
X125456048Y-126440000D01*
X125431913Y-126194957D01*
X125360437Y-125959331D01*
X125244366Y-125742177D01*
X125088160Y-125551840D01*
X124897823Y-125395634D01*
X124680669Y-125279563D01*
X124445043Y-125208087D01*
X124261405Y-125190000D01*
X124138595Y-125190000D01*
X123954957Y-125208087D01*
X123719331Y-125279563D01*
X123502177Y-125395634D01*
X123311840Y-125551840D01*
X123155634Y-125742177D01*
X123039563Y-125959331D01*
X122968087Y-126194957D01*
X122943952Y-126440000D01*
X122968087Y-126685043D01*
X123033293Y-126900000D01*
X121578841Y-126900000D01*
X121631913Y-126725043D01*
X121656048Y-126480000D01*
X121631913Y-126234957D01*
X121560437Y-125999331D01*
X121444366Y-125782177D01*
X121288160Y-125591840D01*
X121097823Y-125435634D01*
X120880669Y-125319563D01*
X120645043Y-125248087D01*
X120461405Y-125230000D01*
X120338595Y-125230000D01*
X120154957Y-125248087D01*
X120100000Y-125264758D01*
X120100000Y-125155242D01*
X120154957Y-125171913D01*
X120338595Y-125190000D01*
X120461405Y-125190000D01*
X120645043Y-125171913D01*
X120880669Y-125100437D01*
X121097823Y-124984366D01*
X121288160Y-124828160D01*
X121444366Y-124637823D01*
X121560437Y-124420669D01*
X121631913Y-124185043D01*
X121656048Y-123940000D01*
X121631913Y-123694957D01*
X121560437Y-123459331D01*
X121444366Y-123242177D01*
X121288160Y-123051840D01*
X121097823Y-122895634D01*
X120880669Y-122779563D01*
X120785257Y-122750620D01*
X121250000Y-122752419D01*
X121348017Y-122742765D01*
X121442267Y-122714175D01*
X121529129Y-122667746D01*
X121605264Y-122605264D01*
X121667746Y-122529129D01*
X121714175Y-122442267D01*
X121742765Y-122348017D01*
X121752419Y-122250000D01*
X121750000Y-121625000D01*
X121625000Y-121500000D01*
X120500000Y-121500000D01*
X120500000Y-121520000D01*
X120300000Y-121520000D01*
X120300000Y-121500000D01*
X120280000Y-121500000D01*
X120280000Y-121300000D01*
X120300000Y-121300000D01*
X120300000Y-120175000D01*
X120500000Y-120175000D01*
X120500000Y-121300000D01*
X121625000Y-121300000D01*
X121750000Y-121175000D01*
X121752419Y-120550000D01*
X121742765Y-120451983D01*
X121714175Y-120357733D01*
X121667746Y-120270871D01*
X121605264Y-120194736D01*
X121529129Y-120132254D01*
X121442267Y-120085825D01*
X121348017Y-120057235D01*
X121250000Y-120047581D01*
X120625000Y-120050000D01*
X120500000Y-120175000D01*
X120300000Y-120175000D01*
X120175000Y-120050000D01*
X120100000Y-120049710D01*
X120100000Y-108903352D01*
X120120000Y-108905322D01*
X120335638Y-108884084D01*
X120542988Y-108821184D01*
X120734084Y-108719042D01*
X120901581Y-108581581D01*
X121039042Y-108414084D01*
X121141184Y-108222987D01*
X121204084Y-108015637D01*
X121220000Y-107854035D01*
X121220000Y-107345964D01*
X121204084Y-107184362D01*
X121141184Y-106977012D01*
X121039042Y-106785916D01*
X120901581Y-106618419D01*
X120734084Y-106480958D01*
X120542987Y-106378816D01*
X120335637Y-106315916D01*
X120120000Y-106294678D01*
X119904362Y-106315916D01*
X119697012Y-106378816D01*
X119505916Y-106480958D01*
X119338419Y-106618419D01*
X119200958Y-106785916D01*
X119098816Y-106977013D01*
X119035916Y-107184363D01*
X119020000Y-107345965D01*
X119020000Y-107854036D01*
X119035916Y-108015638D01*
X119098816Y-108222988D01*
X119193431Y-108400000D01*
X117100000Y-108400000D01*
X117100000Y-105700000D01*
X117600000Y-105700000D01*
X117619509Y-105698079D01*
X117638268Y-105692388D01*
X117655557Y-105683147D01*
X117670711Y-105670711D01*
X117683147Y-105655557D01*
X117692388Y-105638268D01*
X117698079Y-105619509D01*
X117700000Y-105600000D01*
X117700000Y-103100000D01*
X117698079Y-103080491D01*
X117692388Y-103061732D01*
X117683147Y-103044443D01*
X117670711Y-103029289D01*
X117655557Y-103016853D01*
X117638268Y-103007612D01*
X117619509Y-103001921D01*
X117600000Y-103000000D01*
X116900000Y-103000000D01*
X116900000Y-101100000D01*
X120212470Y-101100000D01*
X120178822Y-101181233D01*
G36*
X147600000Y-111292894D02*
G01*
X146392895Y-112500000D01*
X146331056Y-112500000D01*
X146195818Y-112526901D01*
X146068426Y-112579668D01*
X145953776Y-112656274D01*
X145856274Y-112753776D01*
X145779668Y-112868426D01*
X145726901Y-112995818D01*
X145700000Y-113131056D01*
X145700000Y-113268944D01*
X145726901Y-113404182D01*
X145779668Y-113531574D01*
X145856274Y-113646224D01*
X145953776Y-113743726D01*
X146068426Y-113820332D01*
X146195818Y-113873099D01*
X146331056Y-113900000D01*
X146468944Y-113900000D01*
X146604182Y-113873099D01*
X146731574Y-113820332D01*
X146846224Y-113743726D01*
X146943726Y-113646224D01*
X147020332Y-113531574D01*
X147073099Y-113404182D01*
X147100000Y-113268944D01*
X147100000Y-113207105D01*
X148436181Y-111870925D01*
X148455264Y-111855264D01*
X148517746Y-111779129D01*
X148564175Y-111692267D01*
X148592765Y-111598017D01*
X148600000Y-111524560D01*
X148600000Y-112610050D01*
X148556274Y-112653776D01*
X148479668Y-112768426D01*
X148426901Y-112895818D01*
X148400000Y-113031056D01*
X148400000Y-113168944D01*
X148426901Y-113304182D01*
X148479668Y-113431574D01*
X148556274Y-113546224D01*
X148600001Y-113589951D01*
X148600000Y-115575440D01*
X148597581Y-115600000D01*
X148607235Y-115698017D01*
X148609105Y-115704182D01*
X148635825Y-115792266D01*
X148682254Y-115879129D01*
X148744736Y-115955264D01*
X148763824Y-115970929D01*
X149429080Y-116636187D01*
X149444736Y-116655264D01*
X149520871Y-116717746D01*
X149546343Y-116731361D01*
X149556274Y-116746224D01*
X149653776Y-116843726D01*
X149768426Y-116920332D01*
X149895818Y-116973099D01*
X150031056Y-117000000D01*
X150168944Y-117000000D01*
X150304182Y-116973099D01*
X150399006Y-116933822D01*
X150426937Y-117025899D01*
X150544271Y-117245415D01*
X150702177Y-117437823D01*
X150894585Y-117595729D01*
X151114101Y-117713063D01*
X151267526Y-117759604D01*
X151035485Y-117838735D01*
X150804173Y-117972717D01*
X150603444Y-118149251D01*
X150441012Y-118361554D01*
X150323120Y-118601466D01*
X150272458Y-118768492D01*
X150365443Y-118980000D01*
X151500000Y-118980000D01*
X151500000Y-118960000D01*
X151700000Y-118960000D01*
X151700000Y-118980000D01*
X151720000Y-118980000D01*
X151720000Y-119180000D01*
X151700000Y-119180000D01*
X151700000Y-119200000D01*
X151500000Y-119200000D01*
X151500000Y-119180000D01*
X150365443Y-119180000D01*
X150272458Y-119391508D01*
X150323120Y-119558534D01*
X150441012Y-119798446D01*
X150603444Y-120010749D01*
X150704927Y-120100000D01*
X150324557Y-120100000D01*
X150299999Y-120097581D01*
X150275441Y-120100000D01*
X150275440Y-120100000D01*
X150201983Y-120107235D01*
X150107733Y-120135825D01*
X150020871Y-120182254D01*
X149944736Y-120244736D01*
X149929075Y-120263819D01*
X147800000Y-122392895D01*
X147800000Y-117589950D01*
X147843726Y-117546224D01*
X147920332Y-117431574D01*
X147973099Y-117304182D01*
X148000000Y-117168944D01*
X148000000Y-117031056D01*
X147973099Y-116895818D01*
X147920332Y-116768426D01*
X147843726Y-116653776D01*
X147746224Y-116556274D01*
X147631574Y-116479668D01*
X147504182Y-116426901D01*
X147368944Y-116400000D01*
X147231056Y-116400000D01*
X147095818Y-116426901D01*
X146968426Y-116479668D01*
X146853776Y-116556274D01*
X146756274Y-116653776D01*
X146679668Y-116768426D01*
X146626901Y-116895818D01*
X146600000Y-117031056D01*
X146600000Y-117168944D01*
X146626901Y-117304182D01*
X146679668Y-117431574D01*
X146756274Y-117546224D01*
X146800000Y-117589950D01*
X146800000Y-120906178D01*
X146768944Y-120900000D01*
X146631056Y-120900000D01*
X146495818Y-120926901D01*
X146368426Y-120979668D01*
X146253776Y-121056274D01*
X146156274Y-121153776D01*
X146079668Y-121268426D01*
X146026901Y-121395818D01*
X146000000Y-121531056D01*
X146000000Y-121668944D01*
X146026901Y-121804182D01*
X146079668Y-121931574D01*
X146156274Y-122046224D01*
X146253776Y-122143726D01*
X146300001Y-122174612D01*
X146300000Y-123392893D01*
X145191845Y-124501049D01*
X145192765Y-124498017D01*
X145200000Y-124424560D01*
X145200000Y-124424559D01*
X145202419Y-124400001D01*
X145200000Y-124375443D01*
X145200000Y-122024549D01*
X145202418Y-121999999D01*
X145200000Y-121975449D01*
X145200000Y-121975440D01*
X145192765Y-121901983D01*
X145164175Y-121807733D01*
X145117746Y-121720871D01*
X145055264Y-121644736D01*
X145036186Y-121629079D01*
X145000000Y-121592893D01*
X145000000Y-121531056D01*
X144973099Y-121395818D01*
X144920332Y-121268426D01*
X144843726Y-121153776D01*
X144746224Y-121056274D01*
X144631574Y-120979668D01*
X144600000Y-120966590D01*
X144600000Y-120831056D01*
X144573099Y-120695818D01*
X144520332Y-120568426D01*
X144443726Y-120453776D01*
X144346224Y-120356274D01*
X144262003Y-120300000D01*
X144346224Y-120243726D01*
X144443726Y-120146224D01*
X144520332Y-120031574D01*
X144573099Y-119904182D01*
X144600000Y-119768944D01*
X144600000Y-119631056D01*
X144573099Y-119495818D01*
X144520332Y-119368426D01*
X144443726Y-119253776D01*
X144346224Y-119156274D01*
X144231574Y-119079668D01*
X144104182Y-119026901D01*
X143968944Y-119000000D01*
X143831056Y-119000000D01*
X143695818Y-119026901D01*
X143568426Y-119079668D01*
X143453776Y-119156274D01*
X143356274Y-119253776D01*
X143279668Y-119368426D01*
X143226901Y-119495818D01*
X143200000Y-119631056D01*
X143200000Y-119768944D01*
X143226901Y-119904182D01*
X143279668Y-120031574D01*
X143356274Y-120146224D01*
X143453776Y-120243726D01*
X143537997Y-120300000D01*
X143453776Y-120356274D01*
X143356274Y-120453776D01*
X143279668Y-120568426D01*
X143226901Y-120695818D01*
X143200000Y-120831056D01*
X143200000Y-120968944D01*
X143226901Y-121104182D01*
X143279668Y-121231574D01*
X143356274Y-121346224D01*
X143453776Y-121443726D01*
X143568426Y-121520332D01*
X143600000Y-121533410D01*
X143600000Y-121668944D01*
X143626901Y-121804182D01*
X143679668Y-121931574D01*
X143756274Y-122046224D01*
X143853776Y-122143726D01*
X143968426Y-122220332D01*
X144095818Y-122273099D01*
X144200001Y-122293823D01*
X144200001Y-122666590D01*
X144104182Y-122626901D01*
X143968944Y-122600000D01*
X143831056Y-122600000D01*
X143695818Y-122626901D01*
X143568426Y-122679668D01*
X143453776Y-122756274D01*
X143356274Y-122853776D01*
X143279668Y-122968426D01*
X143226901Y-123095818D01*
X143200000Y-123231056D01*
X143200000Y-123368944D01*
X143226901Y-123504182D01*
X143279668Y-123631574D01*
X143356274Y-123746224D01*
X143453776Y-123843726D01*
X143463166Y-123850000D01*
X143453776Y-123856274D01*
X143356274Y-123953776D01*
X143279668Y-124068426D01*
X143226901Y-124195818D01*
X143200000Y-124331056D01*
X143200000Y-124468944D01*
X143206178Y-124500000D01*
X138824560Y-124500000D01*
X138800000Y-124497581D01*
X138775440Y-124500000D01*
X138701983Y-124507235D01*
X138607733Y-124535825D01*
X138520871Y-124582254D01*
X138444736Y-124644736D01*
X138444651Y-124644839D01*
X138520332Y-124531574D01*
X138573099Y-124404182D01*
X138600000Y-124268944D01*
X138600000Y-124131056D01*
X138573099Y-123995818D01*
X138520332Y-123868426D01*
X138443726Y-123753776D01*
X138400000Y-123710050D01*
X138400000Y-122789950D01*
X138443726Y-122746224D01*
X138520332Y-122631574D01*
X138573099Y-122504182D01*
X138600000Y-122368944D01*
X138600000Y-122231056D01*
X138573099Y-122095818D01*
X138520332Y-121968426D01*
X138443726Y-121853776D01*
X138346224Y-121756274D01*
X138231574Y-121679668D01*
X138104182Y-121626901D01*
X137968944Y-121600000D01*
X137831056Y-121600000D01*
X137695818Y-121626901D01*
X137568426Y-121679668D01*
X137453776Y-121756274D01*
X137356274Y-121853776D01*
X137279668Y-121968426D01*
X137226901Y-122095818D01*
X137200000Y-122231056D01*
X137200000Y-122368944D01*
X137226901Y-122504182D01*
X137279668Y-122631574D01*
X137356274Y-122746224D01*
X137400001Y-122789951D01*
X137400000Y-123710050D01*
X137356274Y-123753776D01*
X137279668Y-123868426D01*
X137226901Y-123995818D01*
X137200000Y-124131056D01*
X137200000Y-124268944D01*
X137226901Y-124404182D01*
X137279668Y-124531574D01*
X137355349Y-124644839D01*
X137355264Y-124644736D01*
X137279129Y-124582254D01*
X137192267Y-124535825D01*
X137098017Y-124507235D01*
X137024560Y-124500000D01*
X137000000Y-124497581D01*
X136975440Y-124500000D01*
X136489950Y-124500000D01*
X136446224Y-124456274D01*
X136331574Y-124379668D01*
X136204182Y-124326901D01*
X136068944Y-124300000D01*
X135931056Y-124300000D01*
X135900000Y-124306178D01*
X135900000Y-123324557D01*
X135902419Y-123299999D01*
X135898890Y-123264175D01*
X135892765Y-123201983D01*
X135864175Y-123107733D01*
X135817746Y-123020871D01*
X135755264Y-122944736D01*
X135736181Y-122929075D01*
X135684183Y-122877077D01*
X135704182Y-122873099D01*
X135831574Y-122820332D01*
X135946224Y-122743726D01*
X136043726Y-122646224D01*
X136120332Y-122531574D01*
X136173099Y-122404182D01*
X136200000Y-122268944D01*
X136200000Y-122131056D01*
X136173099Y-121995818D01*
X136120332Y-121868426D01*
X136043726Y-121753776D01*
X135946224Y-121656274D01*
X135831574Y-121579668D01*
X135704182Y-121526901D01*
X135568944Y-121500000D01*
X135431056Y-121500000D01*
X135300000Y-121526069D01*
X135300000Y-120631056D01*
X137000000Y-120631056D01*
X137000000Y-120768944D01*
X137026901Y-120904182D01*
X137079668Y-121031574D01*
X137156274Y-121146224D01*
X137253776Y-121243726D01*
X137368426Y-121320332D01*
X137495818Y-121373099D01*
X137631056Y-121400000D01*
X137768944Y-121400000D01*
X137904182Y-121373099D01*
X138031574Y-121320332D01*
X138146224Y-121243726D01*
X138243726Y-121146224D01*
X138320332Y-121031574D01*
X138373099Y-120904182D01*
X138400000Y-120768944D01*
X138400000Y-120631056D01*
X138373099Y-120495818D01*
X138320332Y-120368426D01*
X138243726Y-120253776D01*
X138146224Y-120156274D01*
X138031574Y-120079668D01*
X137904182Y-120026901D01*
X137768944Y-120000000D01*
X137631056Y-120000000D01*
X137495818Y-120026901D01*
X137368426Y-120079668D01*
X137253776Y-120156274D01*
X137156274Y-120253776D01*
X137079668Y-120368426D01*
X137026901Y-120495818D01*
X137000000Y-120631056D01*
X135300000Y-120631056D01*
X135300000Y-114924560D01*
X135302419Y-114900000D01*
X135292765Y-114801983D01*
X135290842Y-114795644D01*
X135404182Y-114773099D01*
X135531574Y-114720332D01*
X135646224Y-114643726D01*
X135689950Y-114600000D01*
X137092895Y-114600000D01*
X137100000Y-114607105D01*
X137100001Y-117037995D01*
X137079668Y-117068426D01*
X137026901Y-117195818D01*
X137000000Y-117331056D01*
X137000000Y-117468944D01*
X137026901Y-117604182D01*
X137079668Y-117731574D01*
X137156274Y-117846224D01*
X137253776Y-117943726D01*
X137368426Y-118020332D01*
X137495818Y-118073099D01*
X137631056Y-118100000D01*
X137768944Y-118100000D01*
X137904182Y-118073099D01*
X138031574Y-118020332D01*
X138146224Y-117943726D01*
X138243726Y-117846224D01*
X138320332Y-117731574D01*
X138373099Y-117604182D01*
X138400000Y-117468944D01*
X138400000Y-117331056D01*
X138373099Y-117195818D01*
X138320332Y-117068426D01*
X138243726Y-116953776D01*
X138146224Y-116856274D01*
X138100000Y-116825388D01*
X138100000Y-114424557D01*
X138102419Y-114399999D01*
X138098855Y-114363814D01*
X138092765Y-114301983D01*
X138064175Y-114207733D01*
X138017746Y-114120871D01*
X137955264Y-114044736D01*
X137936176Y-114029071D01*
X137807105Y-113900000D01*
X141392895Y-113900000D01*
X140963824Y-114329071D01*
X140944736Y-114344736D01*
X140882254Y-114420871D01*
X140835825Y-114507734D01*
X140821101Y-114556274D01*
X140807235Y-114601983D01*
X140797581Y-114700000D01*
X140800000Y-114724560D01*
X140800001Y-117610049D01*
X140756274Y-117653776D01*
X140679668Y-117768426D01*
X140626901Y-117895818D01*
X140600000Y-118031056D01*
X140600000Y-118131056D01*
X140573099Y-117995818D01*
X140520332Y-117868426D01*
X140443726Y-117753776D01*
X140346224Y-117656274D01*
X140231574Y-117579668D01*
X140104182Y-117526901D01*
X139968944Y-117500000D01*
X139831056Y-117500000D01*
X139695818Y-117526901D01*
X139568426Y-117579668D01*
X139453776Y-117656274D01*
X139356274Y-117753776D01*
X139279668Y-117868426D01*
X139226901Y-117995818D01*
X139200000Y-118131056D01*
X139200000Y-118268944D01*
X139226901Y-118404182D01*
X139279668Y-118531574D01*
X139356274Y-118646224D01*
X139453776Y-118743726D01*
X139568426Y-118820332D01*
X139695818Y-118873099D01*
X139831056Y-118900000D01*
X139968944Y-118900000D01*
X140104182Y-118873099D01*
X140231574Y-118820332D01*
X140346224Y-118743726D01*
X140443726Y-118646224D01*
X140520332Y-118531574D01*
X140573099Y-118404182D01*
X140600000Y-118268944D01*
X140600000Y-118168944D01*
X140626901Y-118304182D01*
X140679668Y-118431574D01*
X140756274Y-118546224D01*
X140853776Y-118643726D01*
X140968426Y-118720332D01*
X141017945Y-118740843D01*
X141002203Y-118819979D01*
X140430191Y-119391992D01*
X140409211Y-119409210D01*
X140391993Y-119430190D01*
X140391987Y-119430196D01*
X140340479Y-119492958D01*
X140297644Y-119573099D01*
X140289409Y-119588506D01*
X140257959Y-119692181D01*
X140254770Y-119724559D01*
X140247340Y-119800000D01*
X140250001Y-119827018D01*
X140250000Y-121172992D01*
X140247340Y-121200000D01*
X140250000Y-121227008D01*
X140250000Y-121227017D01*
X140257958Y-121307818D01*
X140289408Y-121411493D01*
X140340479Y-121507042D01*
X140409210Y-121590790D01*
X140430195Y-121608013D01*
X140850001Y-122027819D01*
X140850000Y-123163165D01*
X140779668Y-123268426D01*
X140726901Y-123395818D01*
X140700000Y-123531056D01*
X140700000Y-123668944D01*
X140726901Y-123804182D01*
X140779668Y-123931574D01*
X140856274Y-124046224D01*
X140953776Y-124143726D01*
X141068426Y-124220332D01*
X141195818Y-124273099D01*
X141331056Y-124300000D01*
X141468944Y-124300000D01*
X141604182Y-124273099D01*
X141731574Y-124220332D01*
X141846224Y-124143726D01*
X141943726Y-124046224D01*
X142020332Y-123931574D01*
X142073099Y-123804182D01*
X142100000Y-123668944D01*
X142100000Y-123531056D01*
X142073099Y-123395818D01*
X142020332Y-123268426D01*
X141950000Y-123163166D01*
X141950000Y-121827007D01*
X141952660Y-121799999D01*
X141950000Y-121772991D01*
X141950000Y-121772982D01*
X141942042Y-121692181D01*
X141910592Y-121588506D01*
X141874153Y-121520332D01*
X141859521Y-121492957D01*
X141808013Y-121430195D01*
X141808008Y-121430190D01*
X141790790Y-121409210D01*
X141769809Y-121391992D01*
X141350000Y-120972183D01*
X141350000Y-120027817D01*
X141780021Y-119597797D01*
X141904182Y-119573099D01*
X142031574Y-119520332D01*
X142146224Y-119443726D01*
X142243726Y-119346224D01*
X142320332Y-119231574D01*
X142373099Y-119104182D01*
X142400000Y-118968944D01*
X142400000Y-118831056D01*
X142373099Y-118695818D01*
X142320332Y-118568426D01*
X142243726Y-118453776D01*
X142146224Y-118356274D01*
X142031574Y-118279668D01*
X141982055Y-118259157D01*
X142000000Y-118168944D01*
X142000000Y-118031056D01*
X141973099Y-117895818D01*
X141920332Y-117768426D01*
X141843726Y-117653776D01*
X141800000Y-117610050D01*
X141800000Y-114907105D01*
X142407106Y-114300000D01*
X143092895Y-114300000D01*
X143352427Y-114559533D01*
X143279668Y-114668426D01*
X143226901Y-114795818D01*
X143200000Y-114931056D01*
X143200000Y-115068944D01*
X143226901Y-115204182D01*
X143279668Y-115331574D01*
X143356274Y-115446224D01*
X143453776Y-115543726D01*
X143537997Y-115600000D01*
X143453776Y-115656274D01*
X143356274Y-115753776D01*
X143279668Y-115868426D01*
X143226901Y-115995818D01*
X143200000Y-116131056D01*
X143200000Y-116268944D01*
X143226901Y-116404182D01*
X143279668Y-116531574D01*
X143356274Y-116646224D01*
X143453776Y-116743726D01*
X143568426Y-116820332D01*
X143695818Y-116873099D01*
X143831056Y-116900000D01*
X143968944Y-116900000D01*
X144104182Y-116873099D01*
X144231574Y-116820332D01*
X144346224Y-116743726D01*
X144443726Y-116646224D01*
X144520332Y-116531574D01*
X144573099Y-116404182D01*
X144600000Y-116268944D01*
X144600000Y-116131056D01*
X144573099Y-115995818D01*
X144520332Y-115868426D01*
X144443726Y-115753776D01*
X144346224Y-115656274D01*
X144262003Y-115600000D01*
X144346224Y-115543726D01*
X144443726Y-115446224D01*
X144520332Y-115331574D01*
X144573099Y-115204182D01*
X144600000Y-115068944D01*
X144600000Y-114931056D01*
X144593822Y-114900000D01*
X144675440Y-114900000D01*
X144700000Y-114902419D01*
X144724560Y-114900000D01*
X144798017Y-114892765D01*
X144892267Y-114864175D01*
X144979129Y-114817746D01*
X145055264Y-114755264D01*
X145070929Y-114736176D01*
X145336176Y-114470929D01*
X145355264Y-114455264D01*
X145417746Y-114379129D01*
X145464175Y-114292267D01*
X145492765Y-114198017D01*
X145500000Y-114124560D01*
X145500000Y-114124559D01*
X145502419Y-114100001D01*
X145500000Y-114075443D01*
X145500000Y-112524560D01*
X145502419Y-112500000D01*
X145492765Y-112401983D01*
X145483342Y-112370919D01*
X145464175Y-112307733D01*
X145417746Y-112220871D01*
X145355264Y-112144736D01*
X145336187Y-112129080D01*
X144798528Y-111591422D01*
X144843726Y-111546224D01*
X144920332Y-111431574D01*
X144973099Y-111304182D01*
X145000000Y-111168944D01*
X145000000Y-111031056D01*
X144973099Y-110895818D01*
X144920332Y-110768426D01*
X144843726Y-110653776D01*
X144746224Y-110556274D01*
X144632732Y-110480442D01*
X144731056Y-110500000D01*
X144868944Y-110500000D01*
X145004182Y-110473099D01*
X145131574Y-110420332D01*
X145246224Y-110343726D01*
X145289950Y-110300000D01*
X146775440Y-110300000D01*
X146800000Y-110302419D01*
X146824560Y-110300000D01*
X146898017Y-110292765D01*
X146992267Y-110264175D01*
X147079129Y-110217746D01*
X147155264Y-110155264D01*
X147170929Y-110136177D01*
X147307106Y-110000000D01*
X147368944Y-110000000D01*
X147504182Y-109973099D01*
X147600000Y-109933410D01*
X147600000Y-111292894D01*
X147600000Y-111292894D01*
G37*
X147600000Y-111292894D02*
X146392895Y-112500000D01*
X146331056Y-112500000D01*
X146195818Y-112526901D01*
X146068426Y-112579668D01*
X145953776Y-112656274D01*
X145856274Y-112753776D01*
X145779668Y-112868426D01*
X145726901Y-112995818D01*
X145700000Y-113131056D01*
X145700000Y-113268944D01*
X145726901Y-113404182D01*
X145779668Y-113531574D01*
X145856274Y-113646224D01*
X145953776Y-113743726D01*
X146068426Y-113820332D01*
X146195818Y-113873099D01*
X146331056Y-113900000D01*
X146468944Y-113900000D01*
X146604182Y-113873099D01*
X146731574Y-113820332D01*
X146846224Y-113743726D01*
X146943726Y-113646224D01*
X147020332Y-113531574D01*
X147073099Y-113404182D01*
X147100000Y-113268944D01*
X147100000Y-113207105D01*
X148436181Y-111870925D01*
X148455264Y-111855264D01*
X148517746Y-111779129D01*
X148564175Y-111692267D01*
X148592765Y-111598017D01*
X148600000Y-111524560D01*
X148600000Y-112610050D01*
X148556274Y-112653776D01*
X148479668Y-112768426D01*
X148426901Y-112895818D01*
X148400000Y-113031056D01*
X148400000Y-113168944D01*
X148426901Y-113304182D01*
X148479668Y-113431574D01*
X148556274Y-113546224D01*
X148600001Y-113589951D01*
X148600000Y-115575440D01*
X148597581Y-115600000D01*
X148607235Y-115698017D01*
X148609105Y-115704182D01*
X148635825Y-115792266D01*
X148682254Y-115879129D01*
X148744736Y-115955264D01*
X148763824Y-115970929D01*
X149429080Y-116636187D01*
X149444736Y-116655264D01*
X149520871Y-116717746D01*
X149546343Y-116731361D01*
X149556274Y-116746224D01*
X149653776Y-116843726D01*
X149768426Y-116920332D01*
X149895818Y-116973099D01*
X150031056Y-117000000D01*
X150168944Y-117000000D01*
X150304182Y-116973099D01*
X150399006Y-116933822D01*
X150426937Y-117025899D01*
X150544271Y-117245415D01*
X150702177Y-117437823D01*
X150894585Y-117595729D01*
X151114101Y-117713063D01*
X151267526Y-117759604D01*
X151035485Y-117838735D01*
X150804173Y-117972717D01*
X150603444Y-118149251D01*
X150441012Y-118361554D01*
X150323120Y-118601466D01*
X150272458Y-118768492D01*
X150365443Y-118980000D01*
X151500000Y-118980000D01*
X151500000Y-118960000D01*
X151700000Y-118960000D01*
X151700000Y-118980000D01*
X151720000Y-118980000D01*
X151720000Y-119180000D01*
X151700000Y-119180000D01*
X151700000Y-119200000D01*
X151500000Y-119200000D01*
X151500000Y-119180000D01*
X150365443Y-119180000D01*
X150272458Y-119391508D01*
X150323120Y-119558534D01*
X150441012Y-119798446D01*
X150603444Y-120010749D01*
X150704927Y-120100000D01*
X150324557Y-120100000D01*
X150299999Y-120097581D01*
X150275441Y-120100000D01*
X150275440Y-120100000D01*
X150201983Y-120107235D01*
X150107733Y-120135825D01*
X150020871Y-120182254D01*
X149944736Y-120244736D01*
X149929075Y-120263819D01*
X147800000Y-122392895D01*
X147800000Y-117589950D01*
X147843726Y-117546224D01*
X147920332Y-117431574D01*
X147973099Y-117304182D01*
X148000000Y-117168944D01*
X148000000Y-117031056D01*
X147973099Y-116895818D01*
X147920332Y-116768426D01*
X147843726Y-116653776D01*
X147746224Y-116556274D01*
X147631574Y-116479668D01*
X147504182Y-116426901D01*
X147368944Y-116400000D01*
X147231056Y-116400000D01*
X147095818Y-116426901D01*
X146968426Y-116479668D01*
X146853776Y-116556274D01*
X146756274Y-116653776D01*
X146679668Y-116768426D01*
X146626901Y-116895818D01*
X146600000Y-117031056D01*
X146600000Y-117168944D01*
X146626901Y-117304182D01*
X146679668Y-117431574D01*
X146756274Y-117546224D01*
X146800000Y-117589950D01*
X146800000Y-120906178D01*
X146768944Y-120900000D01*
X146631056Y-120900000D01*
X146495818Y-120926901D01*
X146368426Y-120979668D01*
X146253776Y-121056274D01*
X146156274Y-121153776D01*
X146079668Y-121268426D01*
X146026901Y-121395818D01*
X146000000Y-121531056D01*
X146000000Y-121668944D01*
X146026901Y-121804182D01*
X146079668Y-121931574D01*
X146156274Y-122046224D01*
X146253776Y-122143726D01*
X146300001Y-122174612D01*
X146300000Y-123392893D01*
X145191845Y-124501049D01*
X145192765Y-124498017D01*
X145200000Y-124424560D01*
X145200000Y-124424559D01*
X145202419Y-124400001D01*
X145200000Y-124375443D01*
X145200000Y-122024549D01*
X145202418Y-121999999D01*
X145200000Y-121975449D01*
X145200000Y-121975440D01*
X145192765Y-121901983D01*
X145164175Y-121807733D01*
X145117746Y-121720871D01*
X145055264Y-121644736D01*
X145036186Y-121629079D01*
X145000000Y-121592893D01*
X145000000Y-121531056D01*
X144973099Y-121395818D01*
X144920332Y-121268426D01*
X144843726Y-121153776D01*
X144746224Y-121056274D01*
X144631574Y-120979668D01*
X144600000Y-120966590D01*
X144600000Y-120831056D01*
X144573099Y-120695818D01*
X144520332Y-120568426D01*
X144443726Y-120453776D01*
X144346224Y-120356274D01*
X144262003Y-120300000D01*
X144346224Y-120243726D01*
X144443726Y-120146224D01*
X144520332Y-120031574D01*
X144573099Y-119904182D01*
X144600000Y-119768944D01*
X144600000Y-119631056D01*
X144573099Y-119495818D01*
X144520332Y-119368426D01*
X144443726Y-119253776D01*
X144346224Y-119156274D01*
X144231574Y-119079668D01*
X144104182Y-119026901D01*
X143968944Y-119000000D01*
X143831056Y-119000000D01*
X143695818Y-119026901D01*
X143568426Y-119079668D01*
X143453776Y-119156274D01*
X143356274Y-119253776D01*
X143279668Y-119368426D01*
X143226901Y-119495818D01*
X143200000Y-119631056D01*
X143200000Y-119768944D01*
X143226901Y-119904182D01*
X143279668Y-120031574D01*
X143356274Y-120146224D01*
X143453776Y-120243726D01*
X143537997Y-120300000D01*
X143453776Y-120356274D01*
X143356274Y-120453776D01*
X143279668Y-120568426D01*
X143226901Y-120695818D01*
X143200000Y-120831056D01*
X143200000Y-120968944D01*
X143226901Y-121104182D01*
X143279668Y-121231574D01*
X143356274Y-121346224D01*
X143453776Y-121443726D01*
X143568426Y-121520332D01*
X143600000Y-121533410D01*
X143600000Y-121668944D01*
X143626901Y-121804182D01*
X143679668Y-121931574D01*
X143756274Y-122046224D01*
X143853776Y-122143726D01*
X143968426Y-122220332D01*
X144095818Y-122273099D01*
X144200001Y-122293823D01*
X144200001Y-122666590D01*
X144104182Y-122626901D01*
X143968944Y-122600000D01*
X143831056Y-122600000D01*
X143695818Y-122626901D01*
X143568426Y-122679668D01*
X143453776Y-122756274D01*
X143356274Y-122853776D01*
X143279668Y-122968426D01*
X143226901Y-123095818D01*
X143200000Y-123231056D01*
X143200000Y-123368944D01*
X143226901Y-123504182D01*
X143279668Y-123631574D01*
X143356274Y-123746224D01*
X143453776Y-123843726D01*
X143463166Y-123850000D01*
X143453776Y-123856274D01*
X143356274Y-123953776D01*
X143279668Y-124068426D01*
X143226901Y-124195818D01*
X143200000Y-124331056D01*
X143200000Y-124468944D01*
X143206178Y-124500000D01*
X138824560Y-124500000D01*
X138800000Y-124497581D01*
X138775440Y-124500000D01*
X138701983Y-124507235D01*
X138607733Y-124535825D01*
X138520871Y-124582254D01*
X138444736Y-124644736D01*
X138444651Y-124644839D01*
X138520332Y-124531574D01*
X138573099Y-124404182D01*
X138600000Y-124268944D01*
X138600000Y-124131056D01*
X138573099Y-123995818D01*
X138520332Y-123868426D01*
X138443726Y-123753776D01*
X138400000Y-123710050D01*
X138400000Y-122789950D01*
X138443726Y-122746224D01*
X138520332Y-122631574D01*
X138573099Y-122504182D01*
X138600000Y-122368944D01*
X138600000Y-122231056D01*
X138573099Y-122095818D01*
X138520332Y-121968426D01*
X138443726Y-121853776D01*
X138346224Y-121756274D01*
X138231574Y-121679668D01*
X138104182Y-121626901D01*
X137968944Y-121600000D01*
X137831056Y-121600000D01*
X137695818Y-121626901D01*
X137568426Y-121679668D01*
X137453776Y-121756274D01*
X137356274Y-121853776D01*
X137279668Y-121968426D01*
X137226901Y-122095818D01*
X137200000Y-122231056D01*
X137200000Y-122368944D01*
X137226901Y-122504182D01*
X137279668Y-122631574D01*
X137356274Y-122746224D01*
X137400001Y-122789951D01*
X137400000Y-123710050D01*
X137356274Y-123753776D01*
X137279668Y-123868426D01*
X137226901Y-123995818D01*
X137200000Y-124131056D01*
X137200000Y-124268944D01*
X137226901Y-124404182D01*
X137279668Y-124531574D01*
X137355349Y-124644839D01*
X137355264Y-124644736D01*
X137279129Y-124582254D01*
X137192267Y-124535825D01*
X137098017Y-124507235D01*
X137024560Y-124500000D01*
X137000000Y-124497581D01*
X136975440Y-124500000D01*
X136489950Y-124500000D01*
X136446224Y-124456274D01*
X136331574Y-124379668D01*
X136204182Y-124326901D01*
X136068944Y-124300000D01*
X135931056Y-124300000D01*
X135900000Y-124306178D01*
X135900000Y-123324557D01*
X135902419Y-123299999D01*
X135898890Y-123264175D01*
X135892765Y-123201983D01*
X135864175Y-123107733D01*
X135817746Y-123020871D01*
X135755264Y-122944736D01*
X135736181Y-122929075D01*
X135684183Y-122877077D01*
X135704182Y-122873099D01*
X135831574Y-122820332D01*
X135946224Y-122743726D01*
X136043726Y-122646224D01*
X136120332Y-122531574D01*
X136173099Y-122404182D01*
X136200000Y-122268944D01*
X136200000Y-122131056D01*
X136173099Y-121995818D01*
X136120332Y-121868426D01*
X136043726Y-121753776D01*
X135946224Y-121656274D01*
X135831574Y-121579668D01*
X135704182Y-121526901D01*
X135568944Y-121500000D01*
X135431056Y-121500000D01*
X135300000Y-121526069D01*
X135300000Y-120631056D01*
X137000000Y-120631056D01*
X137000000Y-120768944D01*
X137026901Y-120904182D01*
X137079668Y-121031574D01*
X137156274Y-121146224D01*
X137253776Y-121243726D01*
X137368426Y-121320332D01*
X137495818Y-121373099D01*
X137631056Y-121400000D01*
X137768944Y-121400000D01*
X137904182Y-121373099D01*
X138031574Y-121320332D01*
X138146224Y-121243726D01*
X138243726Y-121146224D01*
X138320332Y-121031574D01*
X138373099Y-120904182D01*
X138400000Y-120768944D01*
X138400000Y-120631056D01*
X138373099Y-120495818D01*
X138320332Y-120368426D01*
X138243726Y-120253776D01*
X138146224Y-120156274D01*
X138031574Y-120079668D01*
X137904182Y-120026901D01*
X137768944Y-120000000D01*
X137631056Y-120000000D01*
X137495818Y-120026901D01*
X137368426Y-120079668D01*
X137253776Y-120156274D01*
X137156274Y-120253776D01*
X137079668Y-120368426D01*
X137026901Y-120495818D01*
X137000000Y-120631056D01*
X135300000Y-120631056D01*
X135300000Y-114924560D01*
X135302419Y-114900000D01*
X135292765Y-114801983D01*
X135290842Y-114795644D01*
X135404182Y-114773099D01*
X135531574Y-114720332D01*
X135646224Y-114643726D01*
X135689950Y-114600000D01*
X137092895Y-114600000D01*
X137100000Y-114607105D01*
X137100001Y-117037995D01*
X137079668Y-117068426D01*
X137026901Y-117195818D01*
X137000000Y-117331056D01*
X137000000Y-117468944D01*
X137026901Y-117604182D01*
X137079668Y-117731574D01*
X137156274Y-117846224D01*
X137253776Y-117943726D01*
X137368426Y-118020332D01*
X137495818Y-118073099D01*
X137631056Y-118100000D01*
X137768944Y-118100000D01*
X137904182Y-118073099D01*
X138031574Y-118020332D01*
X138146224Y-117943726D01*
X138243726Y-117846224D01*
X138320332Y-117731574D01*
X138373099Y-117604182D01*
X138400000Y-117468944D01*
X138400000Y-117331056D01*
X138373099Y-117195818D01*
X138320332Y-117068426D01*
X138243726Y-116953776D01*
X138146224Y-116856274D01*
X138100000Y-116825388D01*
X138100000Y-114424557D01*
X138102419Y-114399999D01*
X138098855Y-114363814D01*
X138092765Y-114301983D01*
X138064175Y-114207733D01*
X138017746Y-114120871D01*
X137955264Y-114044736D01*
X137936176Y-114029071D01*
X137807105Y-113900000D01*
X141392895Y-113900000D01*
X140963824Y-114329071D01*
X140944736Y-114344736D01*
X140882254Y-114420871D01*
X140835825Y-114507734D01*
X140821101Y-114556274D01*
X140807235Y-114601983D01*
X140797581Y-114700000D01*
X140800000Y-114724560D01*
X140800001Y-117610049D01*
X140756274Y-117653776D01*
X140679668Y-117768426D01*
X140626901Y-117895818D01*
X140600000Y-118031056D01*
X140600000Y-118131056D01*
X140573099Y-117995818D01*
X140520332Y-117868426D01*
X140443726Y-117753776D01*
X140346224Y-117656274D01*
X140231574Y-117579668D01*
X140104182Y-117526901D01*
X139968944Y-117500000D01*
X139831056Y-117500000D01*
X139695818Y-117526901D01*
X139568426Y-117579668D01*
X139453776Y-117656274D01*
X139356274Y-117753776D01*
X139279668Y-117868426D01*
X139226901Y-117995818D01*
X139200000Y-118131056D01*
X139200000Y-118268944D01*
X139226901Y-118404182D01*
X139279668Y-118531574D01*
X139356274Y-118646224D01*
X139453776Y-118743726D01*
X139568426Y-118820332D01*
X139695818Y-118873099D01*
X139831056Y-118900000D01*
X139968944Y-118900000D01*
X140104182Y-118873099D01*
X140231574Y-118820332D01*
X140346224Y-118743726D01*
X140443726Y-118646224D01*
X140520332Y-118531574D01*
X140573099Y-118404182D01*
X140600000Y-118268944D01*
X140600000Y-118168944D01*
X140626901Y-118304182D01*
X140679668Y-118431574D01*
X140756274Y-118546224D01*
X140853776Y-118643726D01*
X140968426Y-118720332D01*
X141017945Y-118740843D01*
X141002203Y-118819979D01*
X140430191Y-119391992D01*
X140409211Y-119409210D01*
X140391993Y-119430190D01*
X140391987Y-119430196D01*
X140340479Y-119492958D01*
X140297644Y-119573099D01*
X140289409Y-119588506D01*
X140257959Y-119692181D01*
X140254770Y-119724559D01*
X140247340Y-119800000D01*
X140250001Y-119827018D01*
X140250000Y-121172992D01*
X140247340Y-121200000D01*
X140250000Y-121227008D01*
X140250000Y-121227017D01*
X140257958Y-121307818D01*
X140289408Y-121411493D01*
X140340479Y-121507042D01*
X140409210Y-121590790D01*
X140430195Y-121608013D01*
X140850001Y-122027819D01*
X140850000Y-123163165D01*
X140779668Y-123268426D01*
X140726901Y-123395818D01*
X140700000Y-123531056D01*
X140700000Y-123668944D01*
X140726901Y-123804182D01*
X140779668Y-123931574D01*
X140856274Y-124046224D01*
X140953776Y-124143726D01*
X141068426Y-124220332D01*
X141195818Y-124273099D01*
X141331056Y-124300000D01*
X141468944Y-124300000D01*
X141604182Y-124273099D01*
X141731574Y-124220332D01*
X141846224Y-124143726D01*
X141943726Y-124046224D01*
X142020332Y-123931574D01*
X142073099Y-123804182D01*
X142100000Y-123668944D01*
X142100000Y-123531056D01*
X142073099Y-123395818D01*
X142020332Y-123268426D01*
X141950000Y-123163166D01*
X141950000Y-121827007D01*
X141952660Y-121799999D01*
X141950000Y-121772991D01*
X141950000Y-121772982D01*
X141942042Y-121692181D01*
X141910592Y-121588506D01*
X141874153Y-121520332D01*
X141859521Y-121492957D01*
X141808013Y-121430195D01*
X141808008Y-121430190D01*
X141790790Y-121409210D01*
X141769809Y-121391992D01*
X141350000Y-120972183D01*
X141350000Y-120027817D01*
X141780021Y-119597797D01*
X141904182Y-119573099D01*
X142031574Y-119520332D01*
X142146224Y-119443726D01*
X142243726Y-119346224D01*
X142320332Y-119231574D01*
X142373099Y-119104182D01*
X142400000Y-118968944D01*
X142400000Y-118831056D01*
X142373099Y-118695818D01*
X142320332Y-118568426D01*
X142243726Y-118453776D01*
X142146224Y-118356274D01*
X142031574Y-118279668D01*
X141982055Y-118259157D01*
X142000000Y-118168944D01*
X142000000Y-118031056D01*
X141973099Y-117895818D01*
X141920332Y-117768426D01*
X141843726Y-117653776D01*
X141800000Y-117610050D01*
X141800000Y-114907105D01*
X142407106Y-114300000D01*
X143092895Y-114300000D01*
X143352427Y-114559533D01*
X143279668Y-114668426D01*
X143226901Y-114795818D01*
X143200000Y-114931056D01*
X143200000Y-115068944D01*
X143226901Y-115204182D01*
X143279668Y-115331574D01*
X143356274Y-115446224D01*
X143453776Y-115543726D01*
X143537997Y-115600000D01*
X143453776Y-115656274D01*
X143356274Y-115753776D01*
X143279668Y-115868426D01*
X143226901Y-115995818D01*
X143200000Y-116131056D01*
X143200000Y-116268944D01*
X143226901Y-116404182D01*
X143279668Y-116531574D01*
X143356274Y-116646224D01*
X143453776Y-116743726D01*
X143568426Y-116820332D01*
X143695818Y-116873099D01*
X143831056Y-116900000D01*
X143968944Y-116900000D01*
X144104182Y-116873099D01*
X144231574Y-116820332D01*
X144346224Y-116743726D01*
X144443726Y-116646224D01*
X144520332Y-116531574D01*
X144573099Y-116404182D01*
X144600000Y-116268944D01*
X144600000Y-116131056D01*
X144573099Y-115995818D01*
X144520332Y-115868426D01*
X144443726Y-115753776D01*
X144346224Y-115656274D01*
X144262003Y-115600000D01*
X144346224Y-115543726D01*
X144443726Y-115446224D01*
X144520332Y-115331574D01*
X144573099Y-115204182D01*
X144600000Y-115068944D01*
X144600000Y-114931056D01*
X144593822Y-114900000D01*
X144675440Y-114900000D01*
X144700000Y-114902419D01*
X144724560Y-114900000D01*
X144798017Y-114892765D01*
X144892267Y-114864175D01*
X144979129Y-114817746D01*
X145055264Y-114755264D01*
X145070929Y-114736176D01*
X145336176Y-114470929D01*
X145355264Y-114455264D01*
X145417746Y-114379129D01*
X145464175Y-114292267D01*
X145492765Y-114198017D01*
X145500000Y-114124560D01*
X145500000Y-114124559D01*
X145502419Y-114100001D01*
X145500000Y-114075443D01*
X145500000Y-112524560D01*
X145502419Y-112500000D01*
X145492765Y-112401983D01*
X145483342Y-112370919D01*
X145464175Y-112307733D01*
X145417746Y-112220871D01*
X145355264Y-112144736D01*
X145336187Y-112129080D01*
X144798528Y-111591422D01*
X144843726Y-111546224D01*
X144920332Y-111431574D01*
X144973099Y-111304182D01*
X145000000Y-111168944D01*
X145000000Y-111031056D01*
X144973099Y-110895818D01*
X144920332Y-110768426D01*
X144843726Y-110653776D01*
X144746224Y-110556274D01*
X144632732Y-110480442D01*
X144731056Y-110500000D01*
X144868944Y-110500000D01*
X145004182Y-110473099D01*
X145131574Y-110420332D01*
X145246224Y-110343726D01*
X145289950Y-110300000D01*
X146775440Y-110300000D01*
X146800000Y-110302419D01*
X146824560Y-110300000D01*
X146898017Y-110292765D01*
X146992267Y-110264175D01*
X147079129Y-110217746D01*
X147155264Y-110155264D01*
X147170929Y-110136177D01*
X147307106Y-110000000D01*
X147368944Y-110000000D01*
X147504182Y-109973099D01*
X147600000Y-109933410D01*
X147600000Y-111292894D01*
G36*
X127929075Y-112336181D02*
G01*
X127944736Y-112355264D01*
X128020871Y-112417746D01*
X128107733Y-112464175D01*
X128201983Y-112492765D01*
X128300000Y-112502419D01*
X128324560Y-112500000D01*
X129206178Y-112500000D01*
X129200000Y-112531056D01*
X129200000Y-112668944D01*
X129226901Y-112804182D01*
X129279668Y-112931574D01*
X129356274Y-113046224D01*
X129453776Y-113143726D01*
X129568426Y-113220332D01*
X129695818Y-113273099D01*
X129831056Y-113300000D01*
X129968944Y-113300000D01*
X130104182Y-113273099D01*
X130231574Y-113220332D01*
X130346224Y-113143726D01*
X130389950Y-113100000D01*
X130700001Y-113100000D01*
X130700000Y-113675439D01*
X130697581Y-113700000D01*
X130707235Y-113798017D01*
X130713220Y-113817746D01*
X130735825Y-113892266D01*
X130782254Y-113979129D01*
X130844736Y-114055264D01*
X130863824Y-114070929D01*
X133300001Y-116507108D01*
X133300000Y-122392893D01*
X132663819Y-123029076D01*
X132644737Y-123044736D01*
X132600000Y-123099249D01*
X132600000Y-122689950D01*
X132643726Y-122646224D01*
X132720332Y-122531574D01*
X132773099Y-122404182D01*
X132800000Y-122268944D01*
X132800000Y-122131056D01*
X132773099Y-121995818D01*
X132720332Y-121868426D01*
X132643726Y-121753776D01*
X132546224Y-121656274D01*
X132431574Y-121579668D01*
X132304182Y-121526901D01*
X132168944Y-121500000D01*
X132031056Y-121500000D01*
X132001160Y-121505947D01*
X132136187Y-121370920D01*
X132155264Y-121355264D01*
X132217746Y-121279129D01*
X132264175Y-121192267D01*
X132292765Y-121098017D01*
X132300000Y-121024560D01*
X132300000Y-121024551D01*
X132302418Y-121000001D01*
X132300000Y-120975451D01*
X132300000Y-119689950D01*
X132343726Y-119646224D01*
X132420332Y-119531574D01*
X132473099Y-119404182D01*
X132500000Y-119268944D01*
X132500000Y-119131056D01*
X132473099Y-118995818D01*
X132420332Y-118868426D01*
X132343726Y-118753776D01*
X132246224Y-118656274D01*
X132131574Y-118579668D01*
X132004182Y-118526901D01*
X131868944Y-118500000D01*
X131731056Y-118500000D01*
X131595818Y-118526901D01*
X131468426Y-118579668D01*
X131353776Y-118656274D01*
X131256274Y-118753776D01*
X131179668Y-118868426D01*
X131126901Y-118995818D01*
X131100000Y-119131056D01*
X131100000Y-119268944D01*
X131126901Y-119404182D01*
X131179668Y-119531574D01*
X131256274Y-119646224D01*
X131300000Y-119689950D01*
X131300001Y-120792892D01*
X130200000Y-121892895D01*
X130200000Y-119589950D01*
X130243726Y-119546224D01*
X130320332Y-119431574D01*
X130373099Y-119304182D01*
X130400000Y-119168944D01*
X130400000Y-119031056D01*
X130373099Y-118895818D01*
X130320332Y-118768426D01*
X130243726Y-118653776D01*
X130146224Y-118556274D01*
X130031574Y-118479668D01*
X129904182Y-118426901D01*
X129768944Y-118400000D01*
X129631056Y-118400000D01*
X129495818Y-118426901D01*
X129368426Y-118479668D01*
X129253776Y-118556274D01*
X129156274Y-118653776D01*
X129079668Y-118768426D01*
X129026901Y-118895818D01*
X129000000Y-119031056D01*
X129000000Y-119168944D01*
X129026901Y-119304182D01*
X129079668Y-119431574D01*
X129156274Y-119546224D01*
X129200001Y-119589951D01*
X129200000Y-122110050D01*
X129156274Y-122153776D01*
X129079668Y-122268426D01*
X129026901Y-122395818D01*
X129000000Y-122531056D01*
X129000000Y-122668944D01*
X129026901Y-122804182D01*
X129079668Y-122931574D01*
X129156274Y-123046224D01*
X129253776Y-123143726D01*
X129368426Y-123220332D01*
X129495818Y-123273099D01*
X129607124Y-123295240D01*
X129600000Y-123331056D01*
X129600000Y-123468944D01*
X129626901Y-123604182D01*
X129679668Y-123731574D01*
X129756274Y-123846224D01*
X129820000Y-123909950D01*
X129820001Y-124301177D01*
X129801178Y-124320000D01*
X129261248Y-124320000D01*
X129320332Y-124231574D01*
X129373099Y-124104182D01*
X129400000Y-123968944D01*
X129400000Y-123831056D01*
X129373099Y-123695818D01*
X129320332Y-123568426D01*
X129243726Y-123453776D01*
X129146224Y-123356274D01*
X129031574Y-123279668D01*
X128904182Y-123226901D01*
X128768944Y-123200000D01*
X128631056Y-123200000D01*
X128495818Y-123226901D01*
X128368426Y-123279668D01*
X128253776Y-123356274D01*
X128249928Y-123360122D01*
X128273099Y-123304182D01*
X128300000Y-123168944D01*
X128300000Y-123031056D01*
X128273099Y-122895818D01*
X128220332Y-122768426D01*
X128143726Y-122653776D01*
X128046224Y-122556274D01*
X127931574Y-122479668D01*
X127804182Y-122426901D01*
X127668944Y-122400000D01*
X127593822Y-122400000D01*
X127600000Y-122368944D01*
X127600000Y-122231056D01*
X127573099Y-122095818D01*
X127520332Y-121968426D01*
X127443726Y-121853776D01*
X127346224Y-121756274D01*
X127231574Y-121679668D01*
X127104182Y-121626901D01*
X126968944Y-121600000D01*
X126831056Y-121600000D01*
X126695818Y-121626901D01*
X126568426Y-121679668D01*
X126453776Y-121756274D01*
X126356274Y-121853776D01*
X126279668Y-121968426D01*
X126249167Y-122042062D01*
X126070929Y-121863824D01*
X126055264Y-121844736D01*
X125979129Y-121782254D01*
X125892267Y-121735825D01*
X125798017Y-121707235D01*
X125724560Y-121700000D01*
X125700000Y-121697581D01*
X125675440Y-121700000D01*
X124707107Y-121700000D01*
X122638162Y-119631056D01*
X123500000Y-119631056D01*
X123500000Y-119768944D01*
X123526901Y-119904182D01*
X123579668Y-120031574D01*
X123656274Y-120146224D01*
X123753776Y-120243726D01*
X123868426Y-120320332D01*
X123995818Y-120373099D01*
X124131056Y-120400000D01*
X124268944Y-120400000D01*
X124404182Y-120373099D01*
X124531574Y-120320332D01*
X124646224Y-120243726D01*
X124743726Y-120146224D01*
X124820332Y-120031574D01*
X124873099Y-119904182D01*
X124900000Y-119768944D01*
X124900000Y-119631056D01*
X124873099Y-119495818D01*
X124820332Y-119368426D01*
X124743726Y-119253776D01*
X124646224Y-119156274D01*
X124531574Y-119079668D01*
X124404182Y-119026901D01*
X124268944Y-119000000D01*
X124131056Y-119000000D01*
X123995818Y-119026901D01*
X123868426Y-119079668D01*
X123753776Y-119156274D01*
X123656274Y-119253776D01*
X123579668Y-119368426D01*
X123526901Y-119495818D01*
X123500000Y-119631056D01*
X122638162Y-119631056D01*
X122400000Y-119392895D01*
X122400000Y-116116236D01*
X123119949Y-116836186D01*
X123135606Y-116855264D01*
X123211741Y-116917746D01*
X123298603Y-116964175D01*
X123391211Y-116992267D01*
X123392853Y-116992765D01*
X123490870Y-117002419D01*
X123515430Y-117000000D01*
X125792895Y-117000000D01*
X125929071Y-117136176D01*
X125944736Y-117155264D01*
X126020871Y-117217746D01*
X126107733Y-117264175D01*
X126201983Y-117292765D01*
X126275440Y-117300000D01*
X126275441Y-117300000D01*
X126299999Y-117302419D01*
X126324557Y-117300000D01*
X126975440Y-117300000D01*
X127000000Y-117302419D01*
X127024560Y-117300000D01*
X127098017Y-117292765D01*
X127192267Y-117264175D01*
X127279129Y-117217746D01*
X127355264Y-117155264D01*
X127370929Y-117136176D01*
X127636176Y-116870929D01*
X127655264Y-116855264D01*
X127717746Y-116779129D01*
X127764175Y-116692267D01*
X127792765Y-116598017D01*
X127800000Y-116524560D01*
X127800000Y-116524559D01*
X127802419Y-116500001D01*
X127800000Y-116475443D01*
X127800000Y-115424557D01*
X127802419Y-115399999D01*
X127799769Y-115373099D01*
X127792765Y-115301983D01*
X127764175Y-115207733D01*
X127717746Y-115120871D01*
X127655264Y-115044736D01*
X127636176Y-115029071D01*
X127370929Y-114763824D01*
X127355264Y-114744736D01*
X127279129Y-114682254D01*
X127210853Y-114645760D01*
X127220332Y-114631574D01*
X127273099Y-114504182D01*
X127300000Y-114368944D01*
X127300000Y-114231056D01*
X127273099Y-114095818D01*
X127220332Y-113968426D01*
X127143726Y-113853776D01*
X127046224Y-113756274D01*
X126931574Y-113679668D01*
X126857939Y-113649168D01*
X126936188Y-113570919D01*
X126955264Y-113555264D01*
X127017746Y-113479129D01*
X127064175Y-113392267D01*
X127092765Y-113298017D01*
X127100000Y-113224560D01*
X127100000Y-113224551D01*
X127102418Y-113200001D01*
X127100000Y-113175451D01*
X127100000Y-111507105D01*
X127929075Y-112336181D01*
X127929075Y-112336181D01*
G37*
X127929075Y-112336181D02*
X127944736Y-112355264D01*
X128020871Y-112417746D01*
X128107733Y-112464175D01*
X128201983Y-112492765D01*
X128300000Y-112502419D01*
X128324560Y-112500000D01*
X129206178Y-112500000D01*
X129200000Y-112531056D01*
X129200000Y-112668944D01*
X129226901Y-112804182D01*
X129279668Y-112931574D01*
X129356274Y-113046224D01*
X129453776Y-113143726D01*
X129568426Y-113220332D01*
X129695818Y-113273099D01*
X129831056Y-113300000D01*
X129968944Y-113300000D01*
X130104182Y-113273099D01*
X130231574Y-113220332D01*
X130346224Y-113143726D01*
X130389950Y-113100000D01*
X130700001Y-113100000D01*
X130700000Y-113675439D01*
X130697581Y-113700000D01*
X130707235Y-113798017D01*
X130713220Y-113817746D01*
X130735825Y-113892266D01*
X130782254Y-113979129D01*
X130844736Y-114055264D01*
X130863824Y-114070929D01*
X133300001Y-116507108D01*
X133300000Y-122392893D01*
X132663819Y-123029076D01*
X132644737Y-123044736D01*
X132600000Y-123099249D01*
X132600000Y-122689950D01*
X132643726Y-122646224D01*
X132720332Y-122531574D01*
X132773099Y-122404182D01*
X132800000Y-122268944D01*
X132800000Y-122131056D01*
X132773099Y-121995818D01*
X132720332Y-121868426D01*
X132643726Y-121753776D01*
X132546224Y-121656274D01*
X132431574Y-121579668D01*
X132304182Y-121526901D01*
X132168944Y-121500000D01*
X132031056Y-121500000D01*
X132001160Y-121505947D01*
X132136187Y-121370920D01*
X132155264Y-121355264D01*
X132217746Y-121279129D01*
X132264175Y-121192267D01*
X132292765Y-121098017D01*
X132300000Y-121024560D01*
X132300000Y-121024551D01*
X132302418Y-121000001D01*
X132300000Y-120975451D01*
X132300000Y-119689950D01*
X132343726Y-119646224D01*
X132420332Y-119531574D01*
X132473099Y-119404182D01*
X132500000Y-119268944D01*
X132500000Y-119131056D01*
X132473099Y-118995818D01*
X132420332Y-118868426D01*
X132343726Y-118753776D01*
X132246224Y-118656274D01*
X132131574Y-118579668D01*
X132004182Y-118526901D01*
X131868944Y-118500000D01*
X131731056Y-118500000D01*
X131595818Y-118526901D01*
X131468426Y-118579668D01*
X131353776Y-118656274D01*
X131256274Y-118753776D01*
X131179668Y-118868426D01*
X131126901Y-118995818D01*
X131100000Y-119131056D01*
X131100000Y-119268944D01*
X131126901Y-119404182D01*
X131179668Y-119531574D01*
X131256274Y-119646224D01*
X131300000Y-119689950D01*
X131300001Y-120792892D01*
X130200000Y-121892895D01*
X130200000Y-119589950D01*
X130243726Y-119546224D01*
X130320332Y-119431574D01*
X130373099Y-119304182D01*
X130400000Y-119168944D01*
X130400000Y-119031056D01*
X130373099Y-118895818D01*
X130320332Y-118768426D01*
X130243726Y-118653776D01*
X130146224Y-118556274D01*
X130031574Y-118479668D01*
X129904182Y-118426901D01*
X129768944Y-118400000D01*
X129631056Y-118400000D01*
X129495818Y-118426901D01*
X129368426Y-118479668D01*
X129253776Y-118556274D01*
X129156274Y-118653776D01*
X129079668Y-118768426D01*
X129026901Y-118895818D01*
X129000000Y-119031056D01*
X129000000Y-119168944D01*
X129026901Y-119304182D01*
X129079668Y-119431574D01*
X129156274Y-119546224D01*
X129200001Y-119589951D01*
X129200000Y-122110050D01*
X129156274Y-122153776D01*
X129079668Y-122268426D01*
X129026901Y-122395818D01*
X129000000Y-122531056D01*
X129000000Y-122668944D01*
X129026901Y-122804182D01*
X129079668Y-122931574D01*
X129156274Y-123046224D01*
X129253776Y-123143726D01*
X129368426Y-123220332D01*
X129495818Y-123273099D01*
X129607124Y-123295240D01*
X129600000Y-123331056D01*
X129600000Y-123468944D01*
X129626901Y-123604182D01*
X129679668Y-123731574D01*
X129756274Y-123846224D01*
X129820000Y-123909950D01*
X129820001Y-124301177D01*
X129801178Y-124320000D01*
X129261248Y-124320000D01*
X129320332Y-124231574D01*
X129373099Y-124104182D01*
X129400000Y-123968944D01*
X129400000Y-123831056D01*
X129373099Y-123695818D01*
X129320332Y-123568426D01*
X129243726Y-123453776D01*
X129146224Y-123356274D01*
X129031574Y-123279668D01*
X128904182Y-123226901D01*
X128768944Y-123200000D01*
X128631056Y-123200000D01*
X128495818Y-123226901D01*
X128368426Y-123279668D01*
X128253776Y-123356274D01*
X128249928Y-123360122D01*
X128273099Y-123304182D01*
X128300000Y-123168944D01*
X128300000Y-123031056D01*
X128273099Y-122895818D01*
X128220332Y-122768426D01*
X128143726Y-122653776D01*
X128046224Y-122556274D01*
X127931574Y-122479668D01*
X127804182Y-122426901D01*
X127668944Y-122400000D01*
X127593822Y-122400000D01*
X127600000Y-122368944D01*
X127600000Y-122231056D01*
X127573099Y-122095818D01*
X127520332Y-121968426D01*
X127443726Y-121853776D01*
X127346224Y-121756274D01*
X127231574Y-121679668D01*
X127104182Y-121626901D01*
X126968944Y-121600000D01*
X126831056Y-121600000D01*
X126695818Y-121626901D01*
X126568426Y-121679668D01*
X126453776Y-121756274D01*
X126356274Y-121853776D01*
X126279668Y-121968426D01*
X126249167Y-122042062D01*
X126070929Y-121863824D01*
X126055264Y-121844736D01*
X125979129Y-121782254D01*
X125892267Y-121735825D01*
X125798017Y-121707235D01*
X125724560Y-121700000D01*
X125700000Y-121697581D01*
X125675440Y-121700000D01*
X124707107Y-121700000D01*
X122638162Y-119631056D01*
X123500000Y-119631056D01*
X123500000Y-119768944D01*
X123526901Y-119904182D01*
X123579668Y-120031574D01*
X123656274Y-120146224D01*
X123753776Y-120243726D01*
X123868426Y-120320332D01*
X123995818Y-120373099D01*
X124131056Y-120400000D01*
X124268944Y-120400000D01*
X124404182Y-120373099D01*
X124531574Y-120320332D01*
X124646224Y-120243726D01*
X124743726Y-120146224D01*
X124820332Y-120031574D01*
X124873099Y-119904182D01*
X124900000Y-119768944D01*
X124900000Y-119631056D01*
X124873099Y-119495818D01*
X124820332Y-119368426D01*
X124743726Y-119253776D01*
X124646224Y-119156274D01*
X124531574Y-119079668D01*
X124404182Y-119026901D01*
X124268944Y-119000000D01*
X124131056Y-119000000D01*
X123995818Y-119026901D01*
X123868426Y-119079668D01*
X123753776Y-119156274D01*
X123656274Y-119253776D01*
X123579668Y-119368426D01*
X123526901Y-119495818D01*
X123500000Y-119631056D01*
X122638162Y-119631056D01*
X122400000Y-119392895D01*
X122400000Y-116116236D01*
X123119949Y-116836186D01*
X123135606Y-116855264D01*
X123211741Y-116917746D01*
X123298603Y-116964175D01*
X123391211Y-116992267D01*
X123392853Y-116992765D01*
X123490870Y-117002419D01*
X123515430Y-117000000D01*
X125792895Y-117000000D01*
X125929071Y-117136176D01*
X125944736Y-117155264D01*
X126020871Y-117217746D01*
X126107733Y-117264175D01*
X126201983Y-117292765D01*
X126275440Y-117300000D01*
X126275441Y-117300000D01*
X126299999Y-117302419D01*
X126324557Y-117300000D01*
X126975440Y-117300000D01*
X127000000Y-117302419D01*
X127024560Y-117300000D01*
X127098017Y-117292765D01*
X127192267Y-117264175D01*
X127279129Y-117217746D01*
X127355264Y-117155264D01*
X127370929Y-117136176D01*
X127636176Y-116870929D01*
X127655264Y-116855264D01*
X127717746Y-116779129D01*
X127764175Y-116692267D01*
X127792765Y-116598017D01*
X127800000Y-116524560D01*
X127800000Y-116524559D01*
X127802419Y-116500001D01*
X127800000Y-116475443D01*
X127800000Y-115424557D01*
X127802419Y-115399999D01*
X127799769Y-115373099D01*
X127792765Y-115301983D01*
X127764175Y-115207733D01*
X127717746Y-115120871D01*
X127655264Y-115044736D01*
X127636176Y-115029071D01*
X127370929Y-114763824D01*
X127355264Y-114744736D01*
X127279129Y-114682254D01*
X127210853Y-114645760D01*
X127220332Y-114631574D01*
X127273099Y-114504182D01*
X127300000Y-114368944D01*
X127300000Y-114231056D01*
X127273099Y-114095818D01*
X127220332Y-113968426D01*
X127143726Y-113853776D01*
X127046224Y-113756274D01*
X126931574Y-113679668D01*
X126857939Y-113649168D01*
X126936188Y-113570919D01*
X126955264Y-113555264D01*
X127017746Y-113479129D01*
X127064175Y-113392267D01*
X127092765Y-113298017D01*
X127100000Y-113224560D01*
X127100000Y-113224551D01*
X127102418Y-113200001D01*
X127100000Y-113175451D01*
X127100000Y-111507105D01*
X127929075Y-112336181D01*
G36*
X132600000Y-113507107D02*
G01*
X132600001Y-114375430D01*
X132598435Y-114391329D01*
X131700000Y-113492895D01*
X131700000Y-113089950D01*
X131743726Y-113046224D01*
X131820332Y-112931574D01*
X131873099Y-112804182D01*
X131877077Y-112784183D01*
X132600000Y-113507107D01*
X132600000Y-113507107D01*
G37*
X132600000Y-113507107D02*
X132600001Y-114375430D01*
X132598435Y-114391329D01*
X131700000Y-113492895D01*
X131700000Y-113089950D01*
X131743726Y-113046224D01*
X131820332Y-112931574D01*
X131873099Y-112804182D01*
X131877077Y-112784183D01*
X132600000Y-113507107D01*
G36*
X151700000Y-113900000D02*
G01*
X151720000Y-113900000D01*
X151720000Y-114100000D01*
X151700000Y-114100000D01*
X151700000Y-114120000D01*
X151500000Y-114120000D01*
X151500000Y-114100000D01*
X151480000Y-114100000D01*
X151480000Y-113900000D01*
X151500000Y-113900000D01*
X151500000Y-113880000D01*
X151700000Y-113880000D01*
X151700000Y-113900000D01*
X151700000Y-113900000D01*
G37*
X151700000Y-113900000D02*
X151720000Y-113900000D01*
X151720000Y-114100000D01*
X151700000Y-114100000D01*
X151700000Y-114120000D01*
X151500000Y-114120000D01*
X151500000Y-114100000D01*
X151480000Y-114100000D01*
X151480000Y-113900000D01*
X151500000Y-113900000D01*
X151500000Y-113880000D01*
X151700000Y-113880000D01*
X151700000Y-113900000D01*
G36*
X134479668Y-112731574D02*
G01*
X134556274Y-112846224D01*
X134653776Y-112943726D01*
X134671187Y-112955359D01*
X134620871Y-112982254D01*
X134544736Y-113044736D01*
X134529071Y-113063824D01*
X134400000Y-113192895D01*
X134400000Y-112807106D01*
X134436181Y-112770925D01*
X134455264Y-112755264D01*
X134478004Y-112727556D01*
X134479668Y-112731574D01*
X134479668Y-112731574D01*
G37*
X134479668Y-112731574D02*
X134556274Y-112846224D01*
X134653776Y-112943726D01*
X134671187Y-112955359D01*
X134620871Y-112982254D01*
X134544736Y-113044736D01*
X134529071Y-113063824D01*
X134400000Y-113192895D01*
X134400000Y-112807106D01*
X134436181Y-112770925D01*
X134455264Y-112755264D01*
X134478004Y-112727556D01*
X134479668Y-112731574D01*
G36*
X128700001Y-104512470D02*
G01*
X128618767Y-104478822D01*
X128473869Y-104450000D01*
X128326131Y-104450000D01*
X128181233Y-104478822D01*
X128044742Y-104535359D01*
X127921903Y-104617437D01*
X127817437Y-104721903D01*
X127735359Y-104844742D01*
X127678822Y-104981233D01*
X127650000Y-105126131D01*
X127650000Y-105273869D01*
X127678822Y-105418767D01*
X127735359Y-105555258D01*
X127817437Y-105678097D01*
X127839340Y-105700000D01*
X127817437Y-105721903D01*
X127735359Y-105844742D01*
X127678822Y-105981233D01*
X127650000Y-106126131D01*
X127650000Y-106273869D01*
X127678822Y-106418767D01*
X127712470Y-106500000D01*
X126727359Y-106500000D01*
X126702801Y-106497581D01*
X126678243Y-106500000D01*
X126678242Y-106500000D01*
X126604785Y-106507235D01*
X126510535Y-106535825D01*
X126510533Y-106535826D01*
X126509858Y-106536187D01*
X126423673Y-106582254D01*
X126347538Y-106644736D01*
X126331877Y-106663819D01*
X123803815Y-109191882D01*
X123784727Y-109207547D01*
X123722245Y-109283682D01*
X123675816Y-109370545D01*
X123664686Y-109407236D01*
X123647226Y-109464794D01*
X123637572Y-109562811D01*
X123639991Y-109587371D01*
X123639992Y-111843771D01*
X122400000Y-113083764D01*
X122400000Y-110707105D01*
X123236187Y-109870920D01*
X123255264Y-109855264D01*
X123317746Y-109779129D01*
X123364175Y-109692267D01*
X123392765Y-109598017D01*
X123400000Y-109524560D01*
X123402419Y-109500000D01*
X123400000Y-109475440D01*
X123400000Y-108807105D01*
X128700000Y-103507106D01*
X128700001Y-104512470D01*
X128700001Y-104512470D01*
G37*
X128700001Y-104512470D02*
X128618767Y-104478822D01*
X128473869Y-104450000D01*
X128326131Y-104450000D01*
X128181233Y-104478822D01*
X128044742Y-104535359D01*
X127921903Y-104617437D01*
X127817437Y-104721903D01*
X127735359Y-104844742D01*
X127678822Y-104981233D01*
X127650000Y-105126131D01*
X127650000Y-105273869D01*
X127678822Y-105418767D01*
X127735359Y-105555258D01*
X127817437Y-105678097D01*
X127839340Y-105700000D01*
X127817437Y-105721903D01*
X127735359Y-105844742D01*
X127678822Y-105981233D01*
X127650000Y-106126131D01*
X127650000Y-106273869D01*
X127678822Y-106418767D01*
X127712470Y-106500000D01*
X126727359Y-106500000D01*
X126702801Y-106497581D01*
X126678243Y-106500000D01*
X126678242Y-106500000D01*
X126604785Y-106507235D01*
X126510535Y-106535825D01*
X126510533Y-106535826D01*
X126509858Y-106536187D01*
X126423673Y-106582254D01*
X126347538Y-106644736D01*
X126331877Y-106663819D01*
X123803815Y-109191882D01*
X123784727Y-109207547D01*
X123722245Y-109283682D01*
X123675816Y-109370545D01*
X123664686Y-109407236D01*
X123647226Y-109464794D01*
X123637572Y-109562811D01*
X123639991Y-109587371D01*
X123639992Y-111843771D01*
X122400000Y-113083764D01*
X122400000Y-110707105D01*
X123236187Y-109870920D01*
X123255264Y-109855264D01*
X123317746Y-109779129D01*
X123364175Y-109692267D01*
X123392765Y-109598017D01*
X123400000Y-109524560D01*
X123402419Y-109500000D01*
X123400000Y-109475440D01*
X123400000Y-108807105D01*
X128700000Y-103507106D01*
X128700001Y-104512470D01*
G36*
X141392894Y-109500000D02*
G01*
X140289950Y-109500000D01*
X140246224Y-109456274D01*
X140131574Y-109379668D01*
X140004182Y-109326901D01*
X139868944Y-109300000D01*
X139731056Y-109300000D01*
X139595818Y-109326901D01*
X139468426Y-109379668D01*
X139353776Y-109456274D01*
X139256274Y-109553776D01*
X139179668Y-109668426D01*
X139126901Y-109795818D01*
X139100000Y-109931056D01*
X139100000Y-110068944D01*
X139126901Y-110204182D01*
X139179668Y-110331574D01*
X139256274Y-110446224D01*
X139353776Y-110543726D01*
X139468426Y-110620332D01*
X139595818Y-110673099D01*
X139731056Y-110700000D01*
X139868944Y-110700000D01*
X140004182Y-110673099D01*
X140131574Y-110620332D01*
X140246224Y-110543726D01*
X140289950Y-110500000D01*
X141392895Y-110500000D01*
X142929075Y-112036181D01*
X142944736Y-112055264D01*
X143020871Y-112117746D01*
X143107733Y-112164175D01*
X143201983Y-112192765D01*
X143228479Y-112195375D01*
X143179668Y-112268426D01*
X143126901Y-112395818D01*
X143100000Y-112531056D01*
X143100000Y-112668944D01*
X143126901Y-112804182D01*
X143166590Y-112900000D01*
X135589950Y-112900000D01*
X135643726Y-112846224D01*
X135720332Y-112731574D01*
X135773099Y-112604182D01*
X135800000Y-112468944D01*
X135800000Y-112331056D01*
X135773099Y-112195818D01*
X135720332Y-112068426D01*
X135643726Y-111953776D01*
X135546224Y-111856274D01*
X135431574Y-111779668D01*
X135304182Y-111726901D01*
X135168944Y-111700000D01*
X135031056Y-111700000D01*
X134895818Y-111726901D01*
X134800000Y-111766590D01*
X134800000Y-111731056D01*
X134773099Y-111595818D01*
X134720332Y-111468426D01*
X134643726Y-111353776D01*
X134548528Y-111258578D01*
X134607106Y-111200000D01*
X136675440Y-111200000D01*
X136700000Y-111202419D01*
X136724560Y-111200000D01*
X136795788Y-111192985D01*
X136831056Y-111200000D01*
X136968944Y-111200000D01*
X137104182Y-111173099D01*
X137231574Y-111120332D01*
X137346224Y-111043726D01*
X137443726Y-110946224D01*
X137520332Y-110831574D01*
X137573099Y-110704182D01*
X137600000Y-110568944D01*
X137600000Y-110433410D01*
X137695818Y-110473099D01*
X137831056Y-110500000D01*
X137968944Y-110500000D01*
X138104182Y-110473099D01*
X138231574Y-110420332D01*
X138346224Y-110343726D01*
X138443726Y-110246224D01*
X138520332Y-110131574D01*
X138573099Y-110004182D01*
X138600000Y-109868944D01*
X138600000Y-109731056D01*
X138573099Y-109595818D01*
X138520332Y-109468426D01*
X138443726Y-109353776D01*
X138439950Y-109350000D01*
X138443726Y-109346224D01*
X138520332Y-109231574D01*
X138573099Y-109104182D01*
X138600000Y-108968944D01*
X138600000Y-108831056D01*
X138593822Y-108800000D01*
X140692895Y-108800000D01*
X141392894Y-109500000D01*
X141392894Y-109500000D01*
G37*
X141392894Y-109500000D02*
X140289950Y-109500000D01*
X140246224Y-109456274D01*
X140131574Y-109379668D01*
X140004182Y-109326901D01*
X139868944Y-109300000D01*
X139731056Y-109300000D01*
X139595818Y-109326901D01*
X139468426Y-109379668D01*
X139353776Y-109456274D01*
X139256274Y-109553776D01*
X139179668Y-109668426D01*
X139126901Y-109795818D01*
X139100000Y-109931056D01*
X139100000Y-110068944D01*
X139126901Y-110204182D01*
X139179668Y-110331574D01*
X139256274Y-110446224D01*
X139353776Y-110543726D01*
X139468426Y-110620332D01*
X139595818Y-110673099D01*
X139731056Y-110700000D01*
X139868944Y-110700000D01*
X140004182Y-110673099D01*
X140131574Y-110620332D01*
X140246224Y-110543726D01*
X140289950Y-110500000D01*
X141392895Y-110500000D01*
X142929075Y-112036181D01*
X142944736Y-112055264D01*
X143020871Y-112117746D01*
X143107733Y-112164175D01*
X143201983Y-112192765D01*
X143228479Y-112195375D01*
X143179668Y-112268426D01*
X143126901Y-112395818D01*
X143100000Y-112531056D01*
X143100000Y-112668944D01*
X143126901Y-112804182D01*
X143166590Y-112900000D01*
X135589950Y-112900000D01*
X135643726Y-112846224D01*
X135720332Y-112731574D01*
X135773099Y-112604182D01*
X135800000Y-112468944D01*
X135800000Y-112331056D01*
X135773099Y-112195818D01*
X135720332Y-112068426D01*
X135643726Y-111953776D01*
X135546224Y-111856274D01*
X135431574Y-111779668D01*
X135304182Y-111726901D01*
X135168944Y-111700000D01*
X135031056Y-111700000D01*
X134895818Y-111726901D01*
X134800000Y-111766590D01*
X134800000Y-111731056D01*
X134773099Y-111595818D01*
X134720332Y-111468426D01*
X134643726Y-111353776D01*
X134548528Y-111258578D01*
X134607106Y-111200000D01*
X136675440Y-111200000D01*
X136700000Y-111202419D01*
X136724560Y-111200000D01*
X136795788Y-111192985D01*
X136831056Y-111200000D01*
X136968944Y-111200000D01*
X137104182Y-111173099D01*
X137231574Y-111120332D01*
X137346224Y-111043726D01*
X137443726Y-110946224D01*
X137520332Y-110831574D01*
X137573099Y-110704182D01*
X137600000Y-110568944D01*
X137600000Y-110433410D01*
X137695818Y-110473099D01*
X137831056Y-110500000D01*
X137968944Y-110500000D01*
X138104182Y-110473099D01*
X138231574Y-110420332D01*
X138346224Y-110343726D01*
X138443726Y-110246224D01*
X138520332Y-110131574D01*
X138573099Y-110004182D01*
X138600000Y-109868944D01*
X138600000Y-109731056D01*
X138573099Y-109595818D01*
X138520332Y-109468426D01*
X138443726Y-109353776D01*
X138439950Y-109350000D01*
X138443726Y-109346224D01*
X138520332Y-109231574D01*
X138573099Y-109104182D01*
X138600000Y-108968944D01*
X138600000Y-108831056D01*
X138593822Y-108800000D01*
X140692895Y-108800000D01*
X141392894Y-109500000D01*
G36*
X133035825Y-111407734D02*
G01*
X133019971Y-111460000D01*
X133007235Y-111501983D01*
X132997581Y-111600000D01*
X133000000Y-111624560D01*
X133000000Y-112492894D01*
X132458467Y-111951361D01*
X132470929Y-111936176D01*
X133077683Y-111329422D01*
X133035825Y-111407734D01*
X133035825Y-111407734D01*
G37*
X133035825Y-111407734D02*
X133019971Y-111460000D01*
X133007235Y-111501983D01*
X132997581Y-111600000D01*
X133000000Y-111624560D01*
X133000000Y-112492894D01*
X132458467Y-111951361D01*
X132470929Y-111936176D01*
X133077683Y-111329422D01*
X133035825Y-111407734D01*
G36*
X151700000Y-111360000D02*
G01*
X151720000Y-111360000D01*
X151720000Y-111560000D01*
X151700000Y-111560000D01*
X151700000Y-111580000D01*
X151500000Y-111580000D01*
X151500000Y-111560000D01*
X151480000Y-111560000D01*
X151480000Y-111360000D01*
X151500000Y-111360000D01*
X151500000Y-111340000D01*
X151700000Y-111340000D01*
X151700000Y-111360000D01*
X151700000Y-111360000D01*
G37*
X151700000Y-111360000D02*
X151720000Y-111360000D01*
X151720000Y-111560000D01*
X151700000Y-111560000D01*
X151700000Y-111580000D01*
X151500000Y-111580000D01*
X151500000Y-111560000D01*
X151480000Y-111560000D01*
X151480000Y-111360000D01*
X151500000Y-111360000D01*
X151500000Y-111340000D01*
X151700000Y-111340000D01*
X151700000Y-111360000D01*
G36*
X143453776Y-110343726D02*
G01*
X143568426Y-110420332D01*
X143695818Y-110473099D01*
X143831056Y-110500000D01*
X143937997Y-110500000D01*
X143853776Y-110556274D01*
X143756274Y-110653776D01*
X143679668Y-110768426D01*
X143626901Y-110895818D01*
X143600000Y-111031056D01*
X143600000Y-111168944D01*
X143606178Y-111200000D01*
X143507106Y-111200000D01*
X142607105Y-110300000D01*
X143410050Y-110300000D01*
X143453776Y-110343726D01*
X143453776Y-110343726D01*
G37*
X143453776Y-110343726D02*
X143568426Y-110420332D01*
X143695818Y-110473099D01*
X143831056Y-110500000D01*
X143937997Y-110500000D01*
X143853776Y-110556274D01*
X143756274Y-110653776D01*
X143679668Y-110768426D01*
X143626901Y-110895818D01*
X143600000Y-111031056D01*
X143600000Y-111168944D01*
X143606178Y-111200000D01*
X143507106Y-111200000D01*
X142607105Y-110300000D01*
X143410050Y-110300000D01*
X143453776Y-110343726D01*
G36*
X142100000Y-101231056D02*
G01*
X142100000Y-101368944D01*
X142126901Y-101504182D01*
X142179668Y-101631574D01*
X142256274Y-101746224D01*
X142353776Y-101843726D01*
X142468426Y-101920332D01*
X142595818Y-101973099D01*
X142731056Y-102000000D01*
X142868944Y-102000000D01*
X143004182Y-101973099D01*
X143131574Y-101920332D01*
X143246224Y-101843726D01*
X143343726Y-101746224D01*
X143420332Y-101631574D01*
X143473099Y-101504182D01*
X143500000Y-101368944D01*
X143500000Y-101231056D01*
X143473931Y-101100000D01*
X148900000Y-101100000D01*
X148900000Y-102606178D01*
X148795818Y-102626901D01*
X148668426Y-102679668D01*
X148553776Y-102756274D01*
X148550000Y-102760050D01*
X148546224Y-102756274D01*
X148431574Y-102679668D01*
X148304182Y-102626901D01*
X148168944Y-102600000D01*
X148031056Y-102600000D01*
X147895818Y-102626901D01*
X147768426Y-102679668D01*
X147653776Y-102756274D01*
X147556274Y-102853776D01*
X147479668Y-102968426D01*
X147426901Y-103095818D01*
X147400000Y-103231056D01*
X147400000Y-103368944D01*
X147426901Y-103504182D01*
X147479668Y-103631574D01*
X147556274Y-103746224D01*
X147653776Y-103843726D01*
X147768426Y-103920332D01*
X147895818Y-103973099D01*
X148031056Y-104000000D01*
X148168944Y-104000000D01*
X148304182Y-103973099D01*
X148431574Y-103920332D01*
X148546224Y-103843726D01*
X148550000Y-103839950D01*
X148553776Y-103843726D01*
X148668426Y-103920332D01*
X148795818Y-103973099D01*
X148900000Y-103993822D01*
X148900000Y-106000000D01*
X148901921Y-106019509D01*
X148907612Y-106038268D01*
X148916853Y-106055557D01*
X148929289Y-106070711D01*
X148944443Y-106083147D01*
X148961732Y-106092388D01*
X148980491Y-106098079D01*
X149000000Y-106100000D01*
X154900000Y-106100000D01*
X154900000Y-107909068D01*
X154845415Y-107864271D01*
X154625899Y-107746937D01*
X154387709Y-107674683D01*
X154202077Y-107656400D01*
X154077923Y-107656400D01*
X153892291Y-107674683D01*
X153654101Y-107746937D01*
X153434585Y-107864271D01*
X153242177Y-108022177D01*
X153084271Y-108214585D01*
X152966937Y-108434101D01*
X152894683Y-108672291D01*
X152870286Y-108920000D01*
X152894683Y-109167709D01*
X152931873Y-109290310D01*
X152865535Y-109356648D01*
X152865535Y-108056400D01*
X152857812Y-107977986D01*
X152834940Y-107902586D01*
X152797797Y-107833097D01*
X152747811Y-107772189D01*
X152686903Y-107722203D01*
X152645365Y-107700000D01*
X152768944Y-107700000D01*
X152904182Y-107673099D01*
X153031574Y-107620332D01*
X153146224Y-107543726D01*
X153243726Y-107446224D01*
X153320332Y-107331574D01*
X153373099Y-107204182D01*
X153400000Y-107068944D01*
X153400000Y-106931056D01*
X153373099Y-106795818D01*
X153320332Y-106668426D01*
X153243726Y-106553776D01*
X153146224Y-106456274D01*
X153031574Y-106379668D01*
X152904182Y-106326901D01*
X152768944Y-106300000D01*
X152631056Y-106300000D01*
X152495818Y-106326901D01*
X152368426Y-106379668D01*
X152263166Y-106450000D01*
X152027007Y-106450000D01*
X151999999Y-106447340D01*
X151972991Y-106450000D01*
X151972982Y-106450000D01*
X151892181Y-106457958D01*
X151788506Y-106489408D01*
X151692958Y-106540479D01*
X151692956Y-106540480D01*
X151692957Y-106540480D01*
X151630195Y-106591987D01*
X151630190Y-106591992D01*
X151609210Y-106609210D01*
X151591991Y-106630191D01*
X151230191Y-106991992D01*
X151209211Y-107009210D01*
X151191993Y-107030190D01*
X151191987Y-107030196D01*
X151140479Y-107092958D01*
X151111051Y-107148016D01*
X151089409Y-107188506D01*
X151057959Y-107292181D01*
X151057384Y-107298016D01*
X151047340Y-107400000D01*
X151050001Y-107427018D01*
X151050001Y-107654465D01*
X150736400Y-107654465D01*
X150657986Y-107662188D01*
X150600000Y-107679778D01*
X150600000Y-107389950D01*
X150643726Y-107346224D01*
X150720332Y-107231574D01*
X150773099Y-107104182D01*
X150800000Y-106968944D01*
X150800000Y-106831056D01*
X150773099Y-106695818D01*
X150720332Y-106568426D01*
X150643726Y-106453776D01*
X150546224Y-106356274D01*
X150431574Y-106279668D01*
X150304182Y-106226901D01*
X150168944Y-106200000D01*
X150031056Y-106200000D01*
X149895818Y-106226901D01*
X149768426Y-106279668D01*
X149653776Y-106356274D01*
X149556274Y-106453776D01*
X149479668Y-106568426D01*
X149426901Y-106695818D01*
X149400000Y-106831056D01*
X149400000Y-106968944D01*
X149426901Y-107104182D01*
X149479668Y-107231574D01*
X149556274Y-107346224D01*
X149600001Y-107389951D01*
X149600000Y-108810050D01*
X149546224Y-108756274D01*
X149431574Y-108679668D01*
X149304182Y-108626901D01*
X149168944Y-108600000D01*
X149031056Y-108600000D01*
X148895818Y-108626901D01*
X148768426Y-108679668D01*
X148653776Y-108756274D01*
X148600000Y-108810050D01*
X148600000Y-107124560D01*
X148602419Y-107100000D01*
X148592765Y-107001983D01*
X148585996Y-106979668D01*
X148564175Y-106907733D01*
X148517746Y-106820871D01*
X148455264Y-106744736D01*
X148436187Y-106729080D01*
X147670929Y-105963824D01*
X147655264Y-105944736D01*
X147579129Y-105882254D01*
X147492267Y-105835825D01*
X147398017Y-105807235D01*
X147324560Y-105800000D01*
X147300000Y-105797581D01*
X147275440Y-105800000D01*
X145389950Y-105800000D01*
X145346224Y-105756274D01*
X145231574Y-105679668D01*
X145104182Y-105626901D01*
X144968944Y-105600000D01*
X144900000Y-105600000D01*
X144900000Y-105531056D01*
X144873099Y-105395818D01*
X144820332Y-105268426D01*
X144743726Y-105153776D01*
X144646224Y-105056274D01*
X144531574Y-104979668D01*
X144404182Y-104926901D01*
X144268944Y-104900000D01*
X144131056Y-104900000D01*
X143995818Y-104926901D01*
X143868426Y-104979668D01*
X143753776Y-105056274D01*
X143656274Y-105153776D01*
X143579668Y-105268426D01*
X143526901Y-105395818D01*
X143500000Y-105531056D01*
X143500000Y-105668944D01*
X143526901Y-105804182D01*
X143579668Y-105931574D01*
X143656274Y-106046224D01*
X143753776Y-106143726D01*
X143868426Y-106220332D01*
X143995818Y-106273099D01*
X144131056Y-106300000D01*
X144200000Y-106300000D01*
X144200000Y-106368944D01*
X144226901Y-106504182D01*
X144279668Y-106631574D01*
X144356274Y-106746224D01*
X144453776Y-106843726D01*
X144568426Y-106920332D01*
X144695818Y-106973099D01*
X144831056Y-107000000D01*
X144968944Y-107000000D01*
X145104182Y-106973099D01*
X145231574Y-106920332D01*
X145346224Y-106843726D01*
X145389950Y-106800000D01*
X147092895Y-106800000D01*
X147600001Y-107307108D01*
X147600001Y-108666590D01*
X147504182Y-108626901D01*
X147368944Y-108600000D01*
X147231056Y-108600000D01*
X147095818Y-108626901D01*
X146968426Y-108679668D01*
X146853776Y-108756274D01*
X146756274Y-108853776D01*
X146679668Y-108968426D01*
X146626901Y-109095818D01*
X146600000Y-109231056D01*
X146600000Y-109292894D01*
X146592894Y-109300000D01*
X145289950Y-109300000D01*
X145246224Y-109256274D01*
X145131574Y-109179668D01*
X145004182Y-109126901D01*
X144989069Y-109123895D01*
X145000000Y-109068944D01*
X145000000Y-108931056D01*
X144973099Y-108795818D01*
X144920332Y-108668426D01*
X144843726Y-108553776D01*
X144746224Y-108456274D01*
X144631574Y-108379668D01*
X144559948Y-108350000D01*
X144631574Y-108320332D01*
X144746224Y-108243726D01*
X144843726Y-108146224D01*
X144920332Y-108031574D01*
X144973099Y-107904182D01*
X145000000Y-107768944D01*
X145000000Y-107631056D01*
X144973099Y-107495818D01*
X144920332Y-107368426D01*
X144843726Y-107253776D01*
X144746224Y-107156274D01*
X144631574Y-107079668D01*
X144504182Y-107026901D01*
X144368944Y-107000000D01*
X144231056Y-107000000D01*
X144095818Y-107026901D01*
X143968426Y-107079668D01*
X143853776Y-107156274D01*
X143756274Y-107253776D01*
X143679668Y-107368426D01*
X143626901Y-107495818D01*
X143600000Y-107631056D01*
X143600000Y-107768944D01*
X143626901Y-107904182D01*
X143679668Y-108031574D01*
X143756274Y-108146224D01*
X143853776Y-108243726D01*
X143968426Y-108320332D01*
X144040052Y-108350000D01*
X143968426Y-108379668D01*
X143853776Y-108456274D01*
X143756274Y-108553776D01*
X143679668Y-108668426D01*
X143626901Y-108795818D01*
X143600000Y-108931056D01*
X143600000Y-109068944D01*
X143617945Y-109159157D01*
X143568426Y-109179668D01*
X143453776Y-109256274D01*
X143410050Y-109300000D01*
X142607107Y-109300000D01*
X141270929Y-107963824D01*
X141255264Y-107944736D01*
X141179129Y-107882254D01*
X141092267Y-107835825D01*
X140998017Y-107807235D01*
X140924560Y-107800000D01*
X140900000Y-107797581D01*
X140875440Y-107800000D01*
X139107107Y-107800000D01*
X139136186Y-107770921D01*
X139155264Y-107755264D01*
X139217746Y-107679129D01*
X139264175Y-107592267D01*
X139292765Y-107498017D01*
X139300000Y-107424560D01*
X139300000Y-107424551D01*
X139302418Y-107400001D01*
X139300000Y-107375451D01*
X139300000Y-106994960D01*
X139305557Y-106995507D01*
X139353776Y-107043726D01*
X139468426Y-107120332D01*
X139595818Y-107173099D01*
X139731056Y-107200000D01*
X139868944Y-107200000D01*
X140004182Y-107173099D01*
X140131574Y-107120332D01*
X140246224Y-107043726D01*
X140343726Y-106946224D01*
X140420332Y-106831574D01*
X140473099Y-106704182D01*
X140500000Y-106568944D01*
X140500000Y-106431056D01*
X140473099Y-106295818D01*
X140420332Y-106168426D01*
X140343726Y-106053776D01*
X140246224Y-105956274D01*
X140131574Y-105879668D01*
X140004182Y-105826901D01*
X139868944Y-105800000D01*
X139731056Y-105800000D01*
X139595818Y-105826901D01*
X139468426Y-105879668D01*
X139464879Y-105882038D01*
X139456666Y-105873825D01*
X139441001Y-105854737D01*
X139364866Y-105792255D01*
X139278004Y-105745826D01*
X139183754Y-105717236D01*
X139110297Y-105710001D01*
X139085737Y-105707582D01*
X139061177Y-105710001D01*
X138479949Y-105710001D01*
X138543726Y-105646224D01*
X138620332Y-105531574D01*
X138673099Y-105404182D01*
X138673931Y-105400000D01*
X139175440Y-105400000D01*
X139200000Y-105402419D01*
X139224560Y-105400000D01*
X139298017Y-105392765D01*
X139392267Y-105364175D01*
X139479129Y-105317746D01*
X139555264Y-105255264D01*
X139570929Y-105236176D01*
X139836176Y-104970929D01*
X139855264Y-104955264D01*
X139917746Y-104879129D01*
X139964175Y-104792267D01*
X139992765Y-104698017D01*
X140000000Y-104624560D01*
X140000000Y-104624559D01*
X140002419Y-104600001D01*
X140000000Y-104575443D01*
X140000000Y-103931056D01*
X143500000Y-103931056D01*
X143500000Y-104068944D01*
X143526901Y-104204182D01*
X143579668Y-104331574D01*
X143656274Y-104446224D01*
X143753776Y-104543726D01*
X143868426Y-104620332D01*
X143995818Y-104673099D01*
X144131056Y-104700000D01*
X144268944Y-104700000D01*
X144404182Y-104673099D01*
X144531574Y-104620332D01*
X144646224Y-104543726D01*
X144743726Y-104446224D01*
X144820332Y-104331574D01*
X144873099Y-104204182D01*
X144900000Y-104068944D01*
X144900000Y-103931056D01*
X144873099Y-103795818D01*
X144820332Y-103668426D01*
X144743726Y-103553776D01*
X144646224Y-103456274D01*
X144531574Y-103379668D01*
X144404182Y-103326901D01*
X144268944Y-103300000D01*
X144131056Y-103300000D01*
X143995818Y-103326901D01*
X143868426Y-103379668D01*
X143753776Y-103456274D01*
X143656274Y-103553776D01*
X143579668Y-103668426D01*
X143526901Y-103795818D01*
X143500000Y-103931056D01*
X140000000Y-103931056D01*
X140000000Y-102224560D01*
X140002419Y-102200000D01*
X139992765Y-102101983D01*
X139987354Y-102084145D01*
X139964175Y-102007733D01*
X139917746Y-101920871D01*
X139898633Y-101897581D01*
X139870920Y-101863813D01*
X139855264Y-101844736D01*
X139836187Y-101829080D01*
X139107105Y-101100000D01*
X142126069Y-101100000D01*
X142100000Y-101231056D01*
X142100000Y-101231056D01*
G37*
X142100000Y-101231056D02*
X142100000Y-101368944D01*
X142126901Y-101504182D01*
X142179668Y-101631574D01*
X142256274Y-101746224D01*
X142353776Y-101843726D01*
X142468426Y-101920332D01*
X142595818Y-101973099D01*
X142731056Y-102000000D01*
X142868944Y-102000000D01*
X143004182Y-101973099D01*
X143131574Y-101920332D01*
X143246224Y-101843726D01*
X143343726Y-101746224D01*
X143420332Y-101631574D01*
X143473099Y-101504182D01*
X143500000Y-101368944D01*
X143500000Y-101231056D01*
X143473931Y-101100000D01*
X148900000Y-101100000D01*
X148900000Y-102606178D01*
X148795818Y-102626901D01*
X148668426Y-102679668D01*
X148553776Y-102756274D01*
X148550000Y-102760050D01*
X148546224Y-102756274D01*
X148431574Y-102679668D01*
X148304182Y-102626901D01*
X148168944Y-102600000D01*
X148031056Y-102600000D01*
X147895818Y-102626901D01*
X147768426Y-102679668D01*
X147653776Y-102756274D01*
X147556274Y-102853776D01*
X147479668Y-102968426D01*
X147426901Y-103095818D01*
X147400000Y-103231056D01*
X147400000Y-103368944D01*
X147426901Y-103504182D01*
X147479668Y-103631574D01*
X147556274Y-103746224D01*
X147653776Y-103843726D01*
X147768426Y-103920332D01*
X147895818Y-103973099D01*
X148031056Y-104000000D01*
X148168944Y-104000000D01*
X148304182Y-103973099D01*
X148431574Y-103920332D01*
X148546224Y-103843726D01*
X148550000Y-103839950D01*
X148553776Y-103843726D01*
X148668426Y-103920332D01*
X148795818Y-103973099D01*
X148900000Y-103993822D01*
X148900000Y-106000000D01*
X148901921Y-106019509D01*
X148907612Y-106038268D01*
X148916853Y-106055557D01*
X148929289Y-106070711D01*
X148944443Y-106083147D01*
X148961732Y-106092388D01*
X148980491Y-106098079D01*
X149000000Y-106100000D01*
X154900000Y-106100000D01*
X154900000Y-107909068D01*
X154845415Y-107864271D01*
X154625899Y-107746937D01*
X154387709Y-107674683D01*
X154202077Y-107656400D01*
X154077923Y-107656400D01*
X153892291Y-107674683D01*
X153654101Y-107746937D01*
X153434585Y-107864271D01*
X153242177Y-108022177D01*
X153084271Y-108214585D01*
X152966937Y-108434101D01*
X152894683Y-108672291D01*
X152870286Y-108920000D01*
X152894683Y-109167709D01*
X152931873Y-109290310D01*
X152865535Y-109356648D01*
X152865535Y-108056400D01*
X152857812Y-107977986D01*
X152834940Y-107902586D01*
X152797797Y-107833097D01*
X152747811Y-107772189D01*
X152686903Y-107722203D01*
X152645365Y-107700000D01*
X152768944Y-107700000D01*
X152904182Y-107673099D01*
X153031574Y-107620332D01*
X153146224Y-107543726D01*
X153243726Y-107446224D01*
X153320332Y-107331574D01*
X153373099Y-107204182D01*
X153400000Y-107068944D01*
X153400000Y-106931056D01*
X153373099Y-106795818D01*
X153320332Y-106668426D01*
X153243726Y-106553776D01*
X153146224Y-106456274D01*
X153031574Y-106379668D01*
X152904182Y-106326901D01*
X152768944Y-106300000D01*
X152631056Y-106300000D01*
X152495818Y-106326901D01*
X152368426Y-106379668D01*
X152263166Y-106450000D01*
X152027007Y-106450000D01*
X151999999Y-106447340D01*
X151972991Y-106450000D01*
X151972982Y-106450000D01*
X151892181Y-106457958D01*
X151788506Y-106489408D01*
X151692958Y-106540479D01*
X151692956Y-106540480D01*
X151692957Y-106540480D01*
X151630195Y-106591987D01*
X151630190Y-106591992D01*
X151609210Y-106609210D01*
X151591991Y-106630191D01*
X151230191Y-106991992D01*
X151209211Y-107009210D01*
X151191993Y-107030190D01*
X151191987Y-107030196D01*
X151140479Y-107092958D01*
X151111051Y-107148016D01*
X151089409Y-107188506D01*
X151057959Y-107292181D01*
X151057384Y-107298016D01*
X151047340Y-107400000D01*
X151050001Y-107427018D01*
X151050001Y-107654465D01*
X150736400Y-107654465D01*
X150657986Y-107662188D01*
X150600000Y-107679778D01*
X150600000Y-107389950D01*
X150643726Y-107346224D01*
X150720332Y-107231574D01*
X150773099Y-107104182D01*
X150800000Y-106968944D01*
X150800000Y-106831056D01*
X150773099Y-106695818D01*
X150720332Y-106568426D01*
X150643726Y-106453776D01*
X150546224Y-106356274D01*
X150431574Y-106279668D01*
X150304182Y-106226901D01*
X150168944Y-106200000D01*
X150031056Y-106200000D01*
X149895818Y-106226901D01*
X149768426Y-106279668D01*
X149653776Y-106356274D01*
X149556274Y-106453776D01*
X149479668Y-106568426D01*
X149426901Y-106695818D01*
X149400000Y-106831056D01*
X149400000Y-106968944D01*
X149426901Y-107104182D01*
X149479668Y-107231574D01*
X149556274Y-107346224D01*
X149600001Y-107389951D01*
X149600000Y-108810050D01*
X149546224Y-108756274D01*
X149431574Y-108679668D01*
X149304182Y-108626901D01*
X149168944Y-108600000D01*
X149031056Y-108600000D01*
X148895818Y-108626901D01*
X148768426Y-108679668D01*
X148653776Y-108756274D01*
X148600000Y-108810050D01*
X148600000Y-107124560D01*
X148602419Y-107100000D01*
X148592765Y-107001983D01*
X148585996Y-106979668D01*
X148564175Y-106907733D01*
X148517746Y-106820871D01*
X148455264Y-106744736D01*
X148436187Y-106729080D01*
X147670929Y-105963824D01*
X147655264Y-105944736D01*
X147579129Y-105882254D01*
X147492267Y-105835825D01*
X147398017Y-105807235D01*
X147324560Y-105800000D01*
X147300000Y-105797581D01*
X147275440Y-105800000D01*
X145389950Y-105800000D01*
X145346224Y-105756274D01*
X145231574Y-105679668D01*
X145104182Y-105626901D01*
X144968944Y-105600000D01*
X144900000Y-105600000D01*
X144900000Y-105531056D01*
X144873099Y-105395818D01*
X144820332Y-105268426D01*
X144743726Y-105153776D01*
X144646224Y-105056274D01*
X144531574Y-104979668D01*
X144404182Y-104926901D01*
X144268944Y-104900000D01*
X144131056Y-104900000D01*
X143995818Y-104926901D01*
X143868426Y-104979668D01*
X143753776Y-105056274D01*
X143656274Y-105153776D01*
X143579668Y-105268426D01*
X143526901Y-105395818D01*
X143500000Y-105531056D01*
X143500000Y-105668944D01*
X143526901Y-105804182D01*
X143579668Y-105931574D01*
X143656274Y-106046224D01*
X143753776Y-106143726D01*
X143868426Y-106220332D01*
X143995818Y-106273099D01*
X144131056Y-106300000D01*
X144200000Y-106300000D01*
X144200000Y-106368944D01*
X144226901Y-106504182D01*
X144279668Y-106631574D01*
X144356274Y-106746224D01*
X144453776Y-106843726D01*
X144568426Y-106920332D01*
X144695818Y-106973099D01*
X144831056Y-107000000D01*
X144968944Y-107000000D01*
X145104182Y-106973099D01*
X145231574Y-106920332D01*
X145346224Y-106843726D01*
X145389950Y-106800000D01*
X147092895Y-106800000D01*
X147600001Y-107307108D01*
X147600001Y-108666590D01*
X147504182Y-108626901D01*
X147368944Y-108600000D01*
X147231056Y-108600000D01*
X147095818Y-108626901D01*
X146968426Y-108679668D01*
X146853776Y-108756274D01*
X146756274Y-108853776D01*
X146679668Y-108968426D01*
X146626901Y-109095818D01*
X146600000Y-109231056D01*
X146600000Y-109292894D01*
X146592894Y-109300000D01*
X145289950Y-109300000D01*
X145246224Y-109256274D01*
X145131574Y-109179668D01*
X145004182Y-109126901D01*
X144989069Y-109123895D01*
X145000000Y-109068944D01*
X145000000Y-108931056D01*
X144973099Y-108795818D01*
X144920332Y-108668426D01*
X144843726Y-108553776D01*
X144746224Y-108456274D01*
X144631574Y-108379668D01*
X144559948Y-108350000D01*
X144631574Y-108320332D01*
X144746224Y-108243726D01*
X144843726Y-108146224D01*
X144920332Y-108031574D01*
X144973099Y-107904182D01*
X145000000Y-107768944D01*
X145000000Y-107631056D01*
X144973099Y-107495818D01*
X144920332Y-107368426D01*
X144843726Y-107253776D01*
X144746224Y-107156274D01*
X144631574Y-107079668D01*
X144504182Y-107026901D01*
X144368944Y-107000000D01*
X144231056Y-107000000D01*
X144095818Y-107026901D01*
X143968426Y-107079668D01*
X143853776Y-107156274D01*
X143756274Y-107253776D01*
X143679668Y-107368426D01*
X143626901Y-107495818D01*
X143600000Y-107631056D01*
X143600000Y-107768944D01*
X143626901Y-107904182D01*
X143679668Y-108031574D01*
X143756274Y-108146224D01*
X143853776Y-108243726D01*
X143968426Y-108320332D01*
X144040052Y-108350000D01*
X143968426Y-108379668D01*
X143853776Y-108456274D01*
X143756274Y-108553776D01*
X143679668Y-108668426D01*
X143626901Y-108795818D01*
X143600000Y-108931056D01*
X143600000Y-109068944D01*
X143617945Y-109159157D01*
X143568426Y-109179668D01*
X143453776Y-109256274D01*
X143410050Y-109300000D01*
X142607107Y-109300000D01*
X141270929Y-107963824D01*
X141255264Y-107944736D01*
X141179129Y-107882254D01*
X141092267Y-107835825D01*
X140998017Y-107807235D01*
X140924560Y-107800000D01*
X140900000Y-107797581D01*
X140875440Y-107800000D01*
X139107107Y-107800000D01*
X139136186Y-107770921D01*
X139155264Y-107755264D01*
X139217746Y-107679129D01*
X139264175Y-107592267D01*
X139292765Y-107498017D01*
X139300000Y-107424560D01*
X139300000Y-107424551D01*
X139302418Y-107400001D01*
X139300000Y-107375451D01*
X139300000Y-106994960D01*
X139305557Y-106995507D01*
X139353776Y-107043726D01*
X139468426Y-107120332D01*
X139595818Y-107173099D01*
X139731056Y-107200000D01*
X139868944Y-107200000D01*
X140004182Y-107173099D01*
X140131574Y-107120332D01*
X140246224Y-107043726D01*
X140343726Y-106946224D01*
X140420332Y-106831574D01*
X140473099Y-106704182D01*
X140500000Y-106568944D01*
X140500000Y-106431056D01*
X140473099Y-106295818D01*
X140420332Y-106168426D01*
X140343726Y-106053776D01*
X140246224Y-105956274D01*
X140131574Y-105879668D01*
X140004182Y-105826901D01*
X139868944Y-105800000D01*
X139731056Y-105800000D01*
X139595818Y-105826901D01*
X139468426Y-105879668D01*
X139464879Y-105882038D01*
X139456666Y-105873825D01*
X139441001Y-105854737D01*
X139364866Y-105792255D01*
X139278004Y-105745826D01*
X139183754Y-105717236D01*
X139110297Y-105710001D01*
X139085737Y-105707582D01*
X139061177Y-105710001D01*
X138479949Y-105710001D01*
X138543726Y-105646224D01*
X138620332Y-105531574D01*
X138673099Y-105404182D01*
X138673931Y-105400000D01*
X139175440Y-105400000D01*
X139200000Y-105402419D01*
X139224560Y-105400000D01*
X139298017Y-105392765D01*
X139392267Y-105364175D01*
X139479129Y-105317746D01*
X139555264Y-105255264D01*
X139570929Y-105236176D01*
X139836176Y-104970929D01*
X139855264Y-104955264D01*
X139917746Y-104879129D01*
X139964175Y-104792267D01*
X139992765Y-104698017D01*
X140000000Y-104624560D01*
X140000000Y-104624559D01*
X140002419Y-104600001D01*
X140000000Y-104575443D01*
X140000000Y-103931056D01*
X143500000Y-103931056D01*
X143500000Y-104068944D01*
X143526901Y-104204182D01*
X143579668Y-104331574D01*
X143656274Y-104446224D01*
X143753776Y-104543726D01*
X143868426Y-104620332D01*
X143995818Y-104673099D01*
X144131056Y-104700000D01*
X144268944Y-104700000D01*
X144404182Y-104673099D01*
X144531574Y-104620332D01*
X144646224Y-104543726D01*
X144743726Y-104446224D01*
X144820332Y-104331574D01*
X144873099Y-104204182D01*
X144900000Y-104068944D01*
X144900000Y-103931056D01*
X144873099Y-103795818D01*
X144820332Y-103668426D01*
X144743726Y-103553776D01*
X144646224Y-103456274D01*
X144531574Y-103379668D01*
X144404182Y-103326901D01*
X144268944Y-103300000D01*
X144131056Y-103300000D01*
X143995818Y-103326901D01*
X143868426Y-103379668D01*
X143753776Y-103456274D01*
X143656274Y-103553776D01*
X143579668Y-103668426D01*
X143526901Y-103795818D01*
X143500000Y-103931056D01*
X140000000Y-103931056D01*
X140000000Y-102224560D01*
X140002419Y-102200000D01*
X139992765Y-102101983D01*
X139987354Y-102084145D01*
X139964175Y-102007733D01*
X139917746Y-101920871D01*
X139898633Y-101897581D01*
X139870920Y-101863813D01*
X139855264Y-101844736D01*
X139836187Y-101829080D01*
X139107105Y-101100000D01*
X142126069Y-101100000D01*
X142100000Y-101231056D01*
G36*
X134023805Y-107859960D02*
G01*
X133249995Y-107859960D01*
X133273099Y-107804182D01*
X133300000Y-107668944D01*
X133300000Y-107531056D01*
X133273099Y-107395818D01*
X133220332Y-107268426D01*
X133143726Y-107153776D01*
X133046224Y-107056274D01*
X132953067Y-106994029D01*
X133247097Y-106700000D01*
X135183764Y-106700000D01*
X134023805Y-107859960D01*
X134023805Y-107859960D01*
G37*
X134023805Y-107859960D02*
X133249995Y-107859960D01*
X133273099Y-107804182D01*
X133300000Y-107668944D01*
X133300000Y-107531056D01*
X133273099Y-107395818D01*
X133220332Y-107268426D01*
X133143726Y-107153776D01*
X133046224Y-107056274D01*
X132953067Y-106994029D01*
X133247097Y-106700000D01*
X135183764Y-106700000D01*
X134023805Y-107859960D01*
G36*
X130792895Y-107739990D02*
G01*
X128585868Y-107739990D01*
X128600000Y-107668944D01*
X128600000Y-107531056D01*
X128593822Y-107500000D01*
X131032885Y-107500000D01*
X130792895Y-107739990D01*
X130792895Y-107739990D01*
G37*
X130792895Y-107739990D02*
X128585868Y-107739990D01*
X128600000Y-107668944D01*
X128600000Y-107531056D01*
X128593822Y-107500000D01*
X131032885Y-107500000D01*
X130792895Y-107739990D01*
G36*
X131826901Y-105504182D02*
G01*
X131879668Y-105631574D01*
X131956274Y-105746224D01*
X132053776Y-105843726D01*
X132129459Y-105894295D01*
X131523755Y-106500000D01*
X130289950Y-106500000D01*
X130343726Y-106446224D01*
X130420332Y-106331574D01*
X130473099Y-106204182D01*
X130500000Y-106068944D01*
X130500000Y-105931056D01*
X130473099Y-105795818D01*
X130420332Y-105668426D01*
X130343726Y-105553776D01*
X130278768Y-105488818D01*
X130346224Y-105443746D01*
X130389950Y-105400020D01*
X131806182Y-105400020D01*
X131826901Y-105504182D01*
X131826901Y-105504182D01*
G37*
X131826901Y-105504182D02*
X131879668Y-105631574D01*
X131956274Y-105746224D01*
X132053776Y-105843726D01*
X132129459Y-105894295D01*
X131523755Y-106500000D01*
X130289950Y-106500000D01*
X130343726Y-106446224D01*
X130420332Y-106331574D01*
X130473099Y-106204182D01*
X130500000Y-106068944D01*
X130500000Y-105931056D01*
X130473099Y-105795818D01*
X130420332Y-105668426D01*
X130343726Y-105553776D01*
X130278768Y-105488818D01*
X130346224Y-105443746D01*
X130389950Y-105400020D01*
X131806182Y-105400020D01*
X131826901Y-105504182D01*
G36*
X136500000Y-102531056D02*
G01*
X136500000Y-102668944D01*
X136526901Y-102804182D01*
X136579668Y-102931574D01*
X136656274Y-103046224D01*
X136753776Y-103143726D01*
X136868426Y-103220332D01*
X136995818Y-103273099D01*
X137131056Y-103300000D01*
X137268944Y-103300000D01*
X137404182Y-103273099D01*
X137531574Y-103220332D01*
X137646224Y-103143726D01*
X137743726Y-103046224D01*
X137820332Y-102931574D01*
X137873099Y-102804182D01*
X137900000Y-102668944D01*
X137900000Y-102531056D01*
X137893822Y-102500000D01*
X138292894Y-102500000D01*
X138400001Y-102607107D01*
X138400000Y-103810050D01*
X138356274Y-103853776D01*
X138318065Y-103910960D01*
X138270929Y-103863824D01*
X138255264Y-103844736D01*
X138179129Y-103782254D01*
X138092267Y-103735825D01*
X137998017Y-103707235D01*
X137924560Y-103700000D01*
X137900000Y-103697581D01*
X137875440Y-103700000D01*
X136474612Y-103700000D01*
X136520332Y-103631574D01*
X136573099Y-103504182D01*
X136600000Y-103368944D01*
X136600000Y-103231056D01*
X136573099Y-103095818D01*
X136520332Y-102968426D01*
X136443726Y-102853776D01*
X136346224Y-102756274D01*
X136231574Y-102679668D01*
X136104182Y-102626901D01*
X135968944Y-102600000D01*
X135831056Y-102600000D01*
X135695818Y-102626901D01*
X135568426Y-102679668D01*
X135453776Y-102756274D01*
X135356274Y-102853776D01*
X135279668Y-102968426D01*
X135226901Y-103095818D01*
X135200000Y-103231056D01*
X135200000Y-103368944D01*
X135226901Y-103504182D01*
X135279668Y-103631574D01*
X135356274Y-103746224D01*
X135360050Y-103750000D01*
X135356274Y-103753776D01*
X135279668Y-103868426D01*
X135226901Y-103995818D01*
X135200000Y-104131056D01*
X135200000Y-104268944D01*
X135226901Y-104404182D01*
X135279668Y-104531574D01*
X135356274Y-104646224D01*
X135453776Y-104743726D01*
X135568426Y-104820332D01*
X135695818Y-104873099D01*
X135831056Y-104900000D01*
X135968944Y-104900000D01*
X136104182Y-104873099D01*
X136231574Y-104820332D01*
X136346224Y-104743726D01*
X136389950Y-104700000D01*
X136710050Y-104700000D01*
X136656274Y-104753776D01*
X136579668Y-104868426D01*
X136578666Y-104870845D01*
X136473869Y-104850000D01*
X136326131Y-104850000D01*
X136181233Y-104878822D01*
X136044742Y-104935359D01*
X135921903Y-105017437D01*
X135839340Y-105100000D01*
X133173931Y-105100000D01*
X133173099Y-105095818D01*
X133120332Y-104968426D01*
X133043726Y-104853776D01*
X132946224Y-104756274D01*
X132831574Y-104679668D01*
X132704182Y-104626901D01*
X132568944Y-104600000D01*
X132507105Y-104600000D01*
X132470949Y-104563844D01*
X132455284Y-104544756D01*
X132379149Y-104482274D01*
X132292287Y-104435845D01*
X132198037Y-104407255D01*
X132124580Y-104400020D01*
X132100020Y-104397601D01*
X132075460Y-104400020D01*
X130389950Y-104400020D01*
X130346224Y-104356294D01*
X130231574Y-104279688D01*
X130104182Y-104226921D01*
X129968944Y-104200020D01*
X129831056Y-104200020D01*
X129700000Y-104226089D01*
X129700000Y-103307105D01*
X130507106Y-102500000D01*
X136506178Y-102500000D01*
X136500000Y-102531056D01*
X136500000Y-102531056D01*
G37*
X136500000Y-102531056D02*
X136500000Y-102668944D01*
X136526901Y-102804182D01*
X136579668Y-102931574D01*
X136656274Y-103046224D01*
X136753776Y-103143726D01*
X136868426Y-103220332D01*
X136995818Y-103273099D01*
X137131056Y-103300000D01*
X137268944Y-103300000D01*
X137404182Y-103273099D01*
X137531574Y-103220332D01*
X137646224Y-103143726D01*
X137743726Y-103046224D01*
X137820332Y-102931574D01*
X137873099Y-102804182D01*
X137900000Y-102668944D01*
X137900000Y-102531056D01*
X137893822Y-102500000D01*
X138292894Y-102500000D01*
X138400001Y-102607107D01*
X138400000Y-103810050D01*
X138356274Y-103853776D01*
X138318065Y-103910960D01*
X138270929Y-103863824D01*
X138255264Y-103844736D01*
X138179129Y-103782254D01*
X138092267Y-103735825D01*
X137998017Y-103707235D01*
X137924560Y-103700000D01*
X137900000Y-103697581D01*
X137875440Y-103700000D01*
X136474612Y-103700000D01*
X136520332Y-103631574D01*
X136573099Y-103504182D01*
X136600000Y-103368944D01*
X136600000Y-103231056D01*
X136573099Y-103095818D01*
X136520332Y-102968426D01*
X136443726Y-102853776D01*
X136346224Y-102756274D01*
X136231574Y-102679668D01*
X136104182Y-102626901D01*
X135968944Y-102600000D01*
X135831056Y-102600000D01*
X135695818Y-102626901D01*
X135568426Y-102679668D01*
X135453776Y-102756274D01*
X135356274Y-102853776D01*
X135279668Y-102968426D01*
X135226901Y-103095818D01*
X135200000Y-103231056D01*
X135200000Y-103368944D01*
X135226901Y-103504182D01*
X135279668Y-103631574D01*
X135356274Y-103746224D01*
X135360050Y-103750000D01*
X135356274Y-103753776D01*
X135279668Y-103868426D01*
X135226901Y-103995818D01*
X135200000Y-104131056D01*
X135200000Y-104268944D01*
X135226901Y-104404182D01*
X135279668Y-104531574D01*
X135356274Y-104646224D01*
X135453776Y-104743726D01*
X135568426Y-104820332D01*
X135695818Y-104873099D01*
X135831056Y-104900000D01*
X135968944Y-104900000D01*
X136104182Y-104873099D01*
X136231574Y-104820332D01*
X136346224Y-104743726D01*
X136389950Y-104700000D01*
X136710050Y-104700000D01*
X136656274Y-104753776D01*
X136579668Y-104868426D01*
X136578666Y-104870845D01*
X136473869Y-104850000D01*
X136326131Y-104850000D01*
X136181233Y-104878822D01*
X136044742Y-104935359D01*
X135921903Y-105017437D01*
X135839340Y-105100000D01*
X133173931Y-105100000D01*
X133173099Y-105095818D01*
X133120332Y-104968426D01*
X133043726Y-104853776D01*
X132946224Y-104756274D01*
X132831574Y-104679668D01*
X132704182Y-104626901D01*
X132568944Y-104600000D01*
X132507105Y-104600000D01*
X132470949Y-104563844D01*
X132455284Y-104544756D01*
X132379149Y-104482274D01*
X132292287Y-104435845D01*
X132198037Y-104407255D01*
X132124580Y-104400020D01*
X132100020Y-104397601D01*
X132075460Y-104400020D01*
X130389950Y-104400020D01*
X130346224Y-104356294D01*
X130231574Y-104279688D01*
X130104182Y-104226921D01*
X129968944Y-104200020D01*
X129831056Y-104200020D01*
X129700000Y-104226089D01*
X129700000Y-103307105D01*
X130507106Y-102500000D01*
X136506178Y-102500000D01*
X136500000Y-102531056D01*
D25*
G36*
X113226901Y-101195818D02*
G01*
X113200000Y-101331056D01*
X113200000Y-101468944D01*
X113226901Y-101604182D01*
X113279668Y-101731574D01*
X113356274Y-101846224D01*
X113453776Y-101943726D01*
X113568426Y-102020332D01*
X113690052Y-102070710D01*
X113668426Y-102079668D01*
X113553776Y-102156274D01*
X113456274Y-102253776D01*
X113400000Y-102337997D01*
X113343726Y-102253776D01*
X113246224Y-102156274D01*
X113131574Y-102079668D01*
X113004182Y-102026901D01*
X112868944Y-102000000D01*
X112731056Y-102000000D01*
X112595818Y-102026901D01*
X112468426Y-102079668D01*
X112353776Y-102156274D01*
X112256274Y-102253776D01*
X112179668Y-102368426D01*
X112126901Y-102495818D01*
X112100000Y-102631056D01*
X112100000Y-102768944D01*
X112126901Y-102904182D01*
X112179668Y-103031574D01*
X112256274Y-103146224D01*
X112353776Y-103243726D01*
X112468426Y-103320332D01*
X112595818Y-103373099D01*
X112731056Y-103400000D01*
X112868944Y-103400000D01*
X113004182Y-103373099D01*
X113131574Y-103320332D01*
X113246224Y-103243726D01*
X113343726Y-103146224D01*
X113400000Y-103062003D01*
X113456274Y-103146224D01*
X113553776Y-103243726D01*
X113668426Y-103320332D01*
X113795818Y-103373099D01*
X113850000Y-103383877D01*
X113850000Y-108850000D01*
X112000000Y-108850000D01*
X111970736Y-108852882D01*
X111942597Y-108861418D01*
X111916664Y-108875280D01*
X111893934Y-108893934D01*
X111875280Y-108916664D01*
X111861418Y-108942597D01*
X111852882Y-108970736D01*
X111850000Y-109000000D01*
X111850000Y-116918628D01*
X111343381Y-116412010D01*
X111326937Y-116391973D01*
X111246996Y-116326367D01*
X111155791Y-116277617D01*
X111056828Y-116247597D01*
X110979698Y-116240000D01*
X110979690Y-116240000D01*
X110953910Y-116237461D01*
X110928130Y-116240000D01*
X110514477Y-116240000D01*
X110504888Y-116225649D01*
X110414351Y-116135112D01*
X110307890Y-116063978D01*
X110189598Y-116014979D01*
X110064019Y-115990000D01*
X109935981Y-115990000D01*
X109810402Y-116014979D01*
X109692110Y-116063978D01*
X109585649Y-116135112D01*
X109495112Y-116225649D01*
X109486011Y-116239270D01*
X109500000Y-116168944D01*
X109500000Y-116031056D01*
X109473099Y-115895818D01*
X109420332Y-115768426D01*
X109343726Y-115653776D01*
X109246224Y-115556274D01*
X109131574Y-115479668D01*
X109004182Y-115426901D01*
X108868944Y-115400000D01*
X108731056Y-115400000D01*
X108595818Y-115426901D01*
X108468426Y-115479668D01*
X108353776Y-115556274D01*
X108256274Y-115653776D01*
X108179668Y-115768426D01*
X108126901Y-115895818D01*
X108100000Y-116031056D01*
X108100000Y-116168944D01*
X108126901Y-116304182D01*
X108179668Y-116431574D01*
X108256274Y-116546224D01*
X108353776Y-116643726D01*
X108468426Y-116720332D01*
X108595818Y-116773099D01*
X108731056Y-116800000D01*
X108868944Y-116800000D01*
X109004182Y-116773099D01*
X109131574Y-116720332D01*
X109246224Y-116643726D01*
X109343726Y-116546224D01*
X109361087Y-116520241D01*
X109350000Y-116575981D01*
X109350000Y-116704019D01*
X109374979Y-116829598D01*
X109423978Y-116947890D01*
X109485523Y-117040000D01*
X109423978Y-117132110D01*
X109374979Y-117250402D01*
X109350000Y-117375981D01*
X109350000Y-117504019D01*
X109374979Y-117629598D01*
X109423978Y-117747890D01*
X109495112Y-117854351D01*
X109585649Y-117944888D01*
X109692110Y-118016022D01*
X109810402Y-118065021D01*
X109935981Y-118090000D01*
X110064019Y-118090000D01*
X110189598Y-118065021D01*
X110307890Y-118016022D01*
X110414351Y-117944888D01*
X110504888Y-117854351D01*
X110512134Y-117843506D01*
X110700000Y-118031372D01*
X110700000Y-118168628D01*
X109872005Y-118996624D01*
X109851974Y-119013063D01*
X109835535Y-119033094D01*
X109786367Y-119093005D01*
X109737617Y-119184210D01*
X109707597Y-119283173D01*
X109697461Y-119386090D01*
X109700001Y-119411880D01*
X109700000Y-121699220D01*
X109697461Y-121725000D01*
X109700000Y-121750780D01*
X109700000Y-121750787D01*
X109707597Y-121827917D01*
X109737617Y-121926880D01*
X109786367Y-122018086D01*
X109851973Y-122098027D01*
X109872010Y-122114471D01*
X110557062Y-122799524D01*
X110574979Y-122889598D01*
X110623978Y-123007890D01*
X110695112Y-123114351D01*
X110785649Y-123204888D01*
X110892110Y-123276022D01*
X111010402Y-123325021D01*
X111135981Y-123350000D01*
X111264019Y-123350000D01*
X111389598Y-123325021D01*
X111507890Y-123276022D01*
X111614351Y-123204888D01*
X111704888Y-123114351D01*
X111776022Y-123007890D01*
X111825021Y-122889598D01*
X111850000Y-122764019D01*
X111850000Y-123850000D01*
X106150000Y-123850000D01*
X106150000Y-122135981D01*
X107050000Y-122135981D01*
X107050000Y-122264019D01*
X107074979Y-122389598D01*
X107123978Y-122507890D01*
X107195112Y-122614351D01*
X107285649Y-122704888D01*
X107392110Y-122776022D01*
X107510402Y-122825021D01*
X107635981Y-122850000D01*
X107764019Y-122850000D01*
X107889598Y-122825021D01*
X108007890Y-122776022D01*
X108114351Y-122704888D01*
X108204888Y-122614351D01*
X108276022Y-122507890D01*
X108325021Y-122389598D01*
X108350000Y-122264019D01*
X108350000Y-122135981D01*
X108325021Y-122010402D01*
X108276022Y-121892110D01*
X108204888Y-121785649D01*
X108114351Y-121695112D01*
X108007890Y-121623978D01*
X107889598Y-121574979D01*
X107764019Y-121550000D01*
X107635981Y-121550000D01*
X107510402Y-121574979D01*
X107392110Y-121623978D01*
X107285649Y-121695112D01*
X107195112Y-121785649D01*
X107123978Y-121892110D01*
X107074979Y-122010402D01*
X107050000Y-122135981D01*
X106150000Y-122135981D01*
X106150000Y-122000000D01*
X106147118Y-121970736D01*
X106138582Y-121942597D01*
X106124720Y-121916664D01*
X106106066Y-121893934D01*
X106083336Y-121875280D01*
X106057403Y-121861418D01*
X106029264Y-121852882D01*
X106000000Y-121850000D01*
X101150000Y-121850000D01*
X101150000Y-119550000D01*
X103200001Y-119550000D01*
X103200001Y-119985522D01*
X103185649Y-119995112D01*
X103095112Y-120085649D01*
X103023978Y-120192110D01*
X102974979Y-120310402D01*
X102950000Y-120435981D01*
X102950000Y-120564019D01*
X102974979Y-120689598D01*
X103023978Y-120807890D01*
X103095112Y-120914351D01*
X103185649Y-121004888D01*
X103292110Y-121076022D01*
X103410402Y-121125021D01*
X103535981Y-121150000D01*
X103664019Y-121150000D01*
X103789598Y-121125021D01*
X103907890Y-121076022D01*
X104000000Y-121014477D01*
X104092110Y-121076022D01*
X104210402Y-121125021D01*
X104335981Y-121150000D01*
X104464019Y-121150000D01*
X104589598Y-121125021D01*
X104707890Y-121076022D01*
X104814351Y-121004888D01*
X104904888Y-120914351D01*
X104976022Y-120807890D01*
X105025021Y-120689598D01*
X105050000Y-120564019D01*
X105050000Y-120435981D01*
X105025021Y-120310402D01*
X104976022Y-120192110D01*
X104904888Y-120085649D01*
X104814351Y-119995112D01*
X104800000Y-119985523D01*
X104800000Y-119550000D01*
X107700000Y-119550000D01*
X107807300Y-119539432D01*
X107910476Y-119508134D01*
X108005564Y-119457308D01*
X108088909Y-119388909D01*
X108157308Y-119305564D01*
X108208134Y-119210476D01*
X108239432Y-119107300D01*
X108250000Y-119000000D01*
X108250000Y-117700000D01*
X108239432Y-117592700D01*
X108208134Y-117489524D01*
X108157308Y-117394436D01*
X108088909Y-117311091D01*
X108005564Y-117242692D01*
X107910476Y-117191866D01*
X107807300Y-117160568D01*
X107700000Y-117150000D01*
X106522919Y-117150000D01*
X106549060Y-117086890D01*
X106575000Y-116956482D01*
X106575000Y-116823518D01*
X106549060Y-116693110D01*
X106498177Y-116570268D01*
X106424307Y-116459713D01*
X106330287Y-116365693D01*
X106219732Y-116291823D01*
X106096890Y-116240940D01*
X105966482Y-116215000D01*
X105850000Y-116215000D01*
X105850000Y-115092462D01*
X105899524Y-115042938D01*
X105989598Y-115025021D01*
X106107890Y-114976022D01*
X106214351Y-114904888D01*
X106304888Y-114814351D01*
X106376022Y-114707890D01*
X106425021Y-114589598D01*
X106450000Y-114464019D01*
X106450000Y-114335981D01*
X106425021Y-114210402D01*
X106376022Y-114092110D01*
X106304888Y-113985649D01*
X106269239Y-113950000D01*
X106304888Y-113914351D01*
X106376022Y-113807890D01*
X106425021Y-113689598D01*
X106450000Y-113564019D01*
X106450000Y-113435981D01*
X106425021Y-113310402D01*
X106376022Y-113192110D01*
X106304888Y-113085649D01*
X106214351Y-112995112D01*
X106107890Y-112923978D01*
X105989598Y-112874979D01*
X105864019Y-112850000D01*
X105850000Y-112850000D01*
X105850000Y-111785000D01*
X105966482Y-111785000D01*
X106096890Y-111759060D01*
X106219732Y-111708177D01*
X106330287Y-111634307D01*
X106424307Y-111540287D01*
X106497292Y-111431056D01*
X108100000Y-111431056D01*
X108100000Y-111568944D01*
X108126901Y-111704182D01*
X108179668Y-111831574D01*
X108256274Y-111946224D01*
X108353776Y-112043726D01*
X108468426Y-112120332D01*
X108595818Y-112173099D01*
X108731056Y-112200000D01*
X108868944Y-112200000D01*
X109004182Y-112173099D01*
X109131574Y-112120332D01*
X109246224Y-112043726D01*
X109343726Y-111946224D01*
X109420332Y-111831574D01*
X109473099Y-111704182D01*
X109500000Y-111568944D01*
X109500000Y-111431056D01*
X109473099Y-111295818D01*
X109420332Y-111168426D01*
X109343726Y-111053776D01*
X109246224Y-110956274D01*
X109131574Y-110879668D01*
X109004182Y-110826901D01*
X108868944Y-110800000D01*
X108731056Y-110800000D01*
X108595818Y-110826901D01*
X108468426Y-110879668D01*
X108353776Y-110956274D01*
X108256274Y-111053776D01*
X108179668Y-111168426D01*
X108126901Y-111295818D01*
X108100000Y-111431056D01*
X106497292Y-111431056D01*
X106498177Y-111429732D01*
X106549060Y-111306890D01*
X106575000Y-111176482D01*
X106575000Y-111043518D01*
X106549060Y-110913110D01*
X106522919Y-110850000D01*
X107700000Y-110850000D01*
X107807300Y-110839432D01*
X107910476Y-110808134D01*
X108005564Y-110757308D01*
X108088909Y-110688909D01*
X108157308Y-110605564D01*
X108208134Y-110510476D01*
X108239432Y-110407300D01*
X108250000Y-110300000D01*
X108250000Y-108950000D01*
X109260050Y-108950000D01*
X109256274Y-108953776D01*
X109179668Y-109068426D01*
X109126901Y-109195818D01*
X109100000Y-109331056D01*
X109100000Y-109468944D01*
X109126901Y-109604182D01*
X109179668Y-109731574D01*
X109256274Y-109846224D01*
X109353776Y-109943726D01*
X109468426Y-110020332D01*
X109595818Y-110073099D01*
X109731056Y-110100000D01*
X109868944Y-110100000D01*
X110004182Y-110073099D01*
X110131574Y-110020332D01*
X110246224Y-109943726D01*
X110343726Y-109846224D01*
X110420332Y-109731574D01*
X110473099Y-109604182D01*
X110500000Y-109468944D01*
X110500000Y-109331056D01*
X110473099Y-109195818D01*
X110420332Y-109068426D01*
X110343726Y-108953776D01*
X110300968Y-108911018D01*
X110310476Y-108908134D01*
X110405564Y-108857308D01*
X110488909Y-108788909D01*
X110557308Y-108705564D01*
X110608134Y-108610476D01*
X110639432Y-108507300D01*
X110650000Y-108400000D01*
X110650000Y-106000000D01*
X110639432Y-105892700D01*
X110608134Y-105789524D01*
X110557308Y-105694436D01*
X110488909Y-105611091D01*
X110405564Y-105542692D01*
X110310476Y-105491866D01*
X110207300Y-105460568D01*
X110100000Y-105450000D01*
X106150000Y-105450000D01*
X106150000Y-101150000D01*
X113245879Y-101150000D01*
X113226901Y-101195818D01*
X113226901Y-101195818D01*
G37*
X113226901Y-101195818D02*
X113200000Y-101331056D01*
X113200000Y-101468944D01*
X113226901Y-101604182D01*
X113279668Y-101731574D01*
X113356274Y-101846224D01*
X113453776Y-101943726D01*
X113568426Y-102020332D01*
X113690052Y-102070710D01*
X113668426Y-102079668D01*
X113553776Y-102156274D01*
X113456274Y-102253776D01*
X113400000Y-102337997D01*
X113343726Y-102253776D01*
X113246224Y-102156274D01*
X113131574Y-102079668D01*
X113004182Y-102026901D01*
X112868944Y-102000000D01*
X112731056Y-102000000D01*
X112595818Y-102026901D01*
X112468426Y-102079668D01*
X112353776Y-102156274D01*
X112256274Y-102253776D01*
X112179668Y-102368426D01*
X112126901Y-102495818D01*
X112100000Y-102631056D01*
X112100000Y-102768944D01*
X112126901Y-102904182D01*
X112179668Y-103031574D01*
X112256274Y-103146224D01*
X112353776Y-103243726D01*
X112468426Y-103320332D01*
X112595818Y-103373099D01*
X112731056Y-103400000D01*
X112868944Y-103400000D01*
X113004182Y-103373099D01*
X113131574Y-103320332D01*
X113246224Y-103243726D01*
X113343726Y-103146224D01*
X113400000Y-103062003D01*
X113456274Y-103146224D01*
X113553776Y-103243726D01*
X113668426Y-103320332D01*
X113795818Y-103373099D01*
X113850000Y-103383877D01*
X113850000Y-108850000D01*
X112000000Y-108850000D01*
X111970736Y-108852882D01*
X111942597Y-108861418D01*
X111916664Y-108875280D01*
X111893934Y-108893934D01*
X111875280Y-108916664D01*
X111861418Y-108942597D01*
X111852882Y-108970736D01*
X111850000Y-109000000D01*
X111850000Y-116918628D01*
X111343381Y-116412010D01*
X111326937Y-116391973D01*
X111246996Y-116326367D01*
X111155791Y-116277617D01*
X111056828Y-116247597D01*
X110979698Y-116240000D01*
X110979690Y-116240000D01*
X110953910Y-116237461D01*
X110928130Y-116240000D01*
X110514477Y-116240000D01*
X110504888Y-116225649D01*
X110414351Y-116135112D01*
X110307890Y-116063978D01*
X110189598Y-116014979D01*
X110064019Y-115990000D01*
X109935981Y-115990000D01*
X109810402Y-116014979D01*
X109692110Y-116063978D01*
X109585649Y-116135112D01*
X109495112Y-116225649D01*
X109486011Y-116239270D01*
X109500000Y-116168944D01*
X109500000Y-116031056D01*
X109473099Y-115895818D01*
X109420332Y-115768426D01*
X109343726Y-115653776D01*
X109246224Y-115556274D01*
X109131574Y-115479668D01*
X109004182Y-115426901D01*
X108868944Y-115400000D01*
X108731056Y-115400000D01*
X108595818Y-115426901D01*
X108468426Y-115479668D01*
X108353776Y-115556274D01*
X108256274Y-115653776D01*
X108179668Y-115768426D01*
X108126901Y-115895818D01*
X108100000Y-116031056D01*
X108100000Y-116168944D01*
X108126901Y-116304182D01*
X108179668Y-116431574D01*
X108256274Y-116546224D01*
X108353776Y-116643726D01*
X108468426Y-116720332D01*
X108595818Y-116773099D01*
X108731056Y-116800000D01*
X108868944Y-116800000D01*
X109004182Y-116773099D01*
X109131574Y-116720332D01*
X109246224Y-116643726D01*
X109343726Y-116546224D01*
X109361087Y-116520241D01*
X109350000Y-116575981D01*
X109350000Y-116704019D01*
X109374979Y-116829598D01*
X109423978Y-116947890D01*
X109485523Y-117040000D01*
X109423978Y-117132110D01*
X109374979Y-117250402D01*
X109350000Y-117375981D01*
X109350000Y-117504019D01*
X109374979Y-117629598D01*
X109423978Y-117747890D01*
X109495112Y-117854351D01*
X109585649Y-117944888D01*
X109692110Y-118016022D01*
X109810402Y-118065021D01*
X109935981Y-118090000D01*
X110064019Y-118090000D01*
X110189598Y-118065021D01*
X110307890Y-118016022D01*
X110414351Y-117944888D01*
X110504888Y-117854351D01*
X110512134Y-117843506D01*
X110700000Y-118031372D01*
X110700000Y-118168628D01*
X109872005Y-118996624D01*
X109851974Y-119013063D01*
X109835535Y-119033094D01*
X109786367Y-119093005D01*
X109737617Y-119184210D01*
X109707597Y-119283173D01*
X109697461Y-119386090D01*
X109700001Y-119411880D01*
X109700000Y-121699220D01*
X109697461Y-121725000D01*
X109700000Y-121750780D01*
X109700000Y-121750787D01*
X109707597Y-121827917D01*
X109737617Y-121926880D01*
X109786367Y-122018086D01*
X109851973Y-122098027D01*
X109872010Y-122114471D01*
X110557062Y-122799524D01*
X110574979Y-122889598D01*
X110623978Y-123007890D01*
X110695112Y-123114351D01*
X110785649Y-123204888D01*
X110892110Y-123276022D01*
X111010402Y-123325021D01*
X111135981Y-123350000D01*
X111264019Y-123350000D01*
X111389598Y-123325021D01*
X111507890Y-123276022D01*
X111614351Y-123204888D01*
X111704888Y-123114351D01*
X111776022Y-123007890D01*
X111825021Y-122889598D01*
X111850000Y-122764019D01*
X111850000Y-123850000D01*
X106150000Y-123850000D01*
X106150000Y-122135981D01*
X107050000Y-122135981D01*
X107050000Y-122264019D01*
X107074979Y-122389598D01*
X107123978Y-122507890D01*
X107195112Y-122614351D01*
X107285649Y-122704888D01*
X107392110Y-122776022D01*
X107510402Y-122825021D01*
X107635981Y-122850000D01*
X107764019Y-122850000D01*
X107889598Y-122825021D01*
X108007890Y-122776022D01*
X108114351Y-122704888D01*
X108204888Y-122614351D01*
X108276022Y-122507890D01*
X108325021Y-122389598D01*
X108350000Y-122264019D01*
X108350000Y-122135981D01*
X108325021Y-122010402D01*
X108276022Y-121892110D01*
X108204888Y-121785649D01*
X108114351Y-121695112D01*
X108007890Y-121623978D01*
X107889598Y-121574979D01*
X107764019Y-121550000D01*
X107635981Y-121550000D01*
X107510402Y-121574979D01*
X107392110Y-121623978D01*
X107285649Y-121695112D01*
X107195112Y-121785649D01*
X107123978Y-121892110D01*
X107074979Y-122010402D01*
X107050000Y-122135981D01*
X106150000Y-122135981D01*
X106150000Y-122000000D01*
X106147118Y-121970736D01*
X106138582Y-121942597D01*
X106124720Y-121916664D01*
X106106066Y-121893934D01*
X106083336Y-121875280D01*
X106057403Y-121861418D01*
X106029264Y-121852882D01*
X106000000Y-121850000D01*
X101150000Y-121850000D01*
X101150000Y-119550000D01*
X103200001Y-119550000D01*
X103200001Y-119985522D01*
X103185649Y-119995112D01*
X103095112Y-120085649D01*
X103023978Y-120192110D01*
X102974979Y-120310402D01*
X102950000Y-120435981D01*
X102950000Y-120564019D01*
X102974979Y-120689598D01*
X103023978Y-120807890D01*
X103095112Y-120914351D01*
X103185649Y-121004888D01*
X103292110Y-121076022D01*
X103410402Y-121125021D01*
X103535981Y-121150000D01*
X103664019Y-121150000D01*
X103789598Y-121125021D01*
X103907890Y-121076022D01*
X104000000Y-121014477D01*
X104092110Y-121076022D01*
X104210402Y-121125021D01*
X104335981Y-121150000D01*
X104464019Y-121150000D01*
X104589598Y-121125021D01*
X104707890Y-121076022D01*
X104814351Y-121004888D01*
X104904888Y-120914351D01*
X104976022Y-120807890D01*
X105025021Y-120689598D01*
X105050000Y-120564019D01*
X105050000Y-120435981D01*
X105025021Y-120310402D01*
X104976022Y-120192110D01*
X104904888Y-120085649D01*
X104814351Y-119995112D01*
X104800000Y-119985523D01*
X104800000Y-119550000D01*
X107700000Y-119550000D01*
X107807300Y-119539432D01*
X107910476Y-119508134D01*
X108005564Y-119457308D01*
X108088909Y-119388909D01*
X108157308Y-119305564D01*
X108208134Y-119210476D01*
X108239432Y-119107300D01*
X108250000Y-119000000D01*
X108250000Y-117700000D01*
X108239432Y-117592700D01*
X108208134Y-117489524D01*
X108157308Y-117394436D01*
X108088909Y-117311091D01*
X108005564Y-117242692D01*
X107910476Y-117191866D01*
X107807300Y-117160568D01*
X107700000Y-117150000D01*
X106522919Y-117150000D01*
X106549060Y-117086890D01*
X106575000Y-116956482D01*
X106575000Y-116823518D01*
X106549060Y-116693110D01*
X106498177Y-116570268D01*
X106424307Y-116459713D01*
X106330287Y-116365693D01*
X106219732Y-116291823D01*
X106096890Y-116240940D01*
X105966482Y-116215000D01*
X105850000Y-116215000D01*
X105850000Y-115092462D01*
X105899524Y-115042938D01*
X105989598Y-115025021D01*
X106107890Y-114976022D01*
X106214351Y-114904888D01*
X106304888Y-114814351D01*
X106376022Y-114707890D01*
X106425021Y-114589598D01*
X106450000Y-114464019D01*
X106450000Y-114335981D01*
X106425021Y-114210402D01*
X106376022Y-114092110D01*
X106304888Y-113985649D01*
X106269239Y-113950000D01*
X106304888Y-113914351D01*
X106376022Y-113807890D01*
X106425021Y-113689598D01*
X106450000Y-113564019D01*
X106450000Y-113435981D01*
X106425021Y-113310402D01*
X106376022Y-113192110D01*
X106304888Y-113085649D01*
X106214351Y-112995112D01*
X106107890Y-112923978D01*
X105989598Y-112874979D01*
X105864019Y-112850000D01*
X105850000Y-112850000D01*
X105850000Y-111785000D01*
X105966482Y-111785000D01*
X106096890Y-111759060D01*
X106219732Y-111708177D01*
X106330287Y-111634307D01*
X106424307Y-111540287D01*
X106497292Y-111431056D01*
X108100000Y-111431056D01*
X108100000Y-111568944D01*
X108126901Y-111704182D01*
X108179668Y-111831574D01*
X108256274Y-111946224D01*
X108353776Y-112043726D01*
X108468426Y-112120332D01*
X108595818Y-112173099D01*
X108731056Y-112200000D01*
X108868944Y-112200000D01*
X109004182Y-112173099D01*
X109131574Y-112120332D01*
X109246224Y-112043726D01*
X109343726Y-111946224D01*
X109420332Y-111831574D01*
X109473099Y-111704182D01*
X109500000Y-111568944D01*
X109500000Y-111431056D01*
X109473099Y-111295818D01*
X109420332Y-111168426D01*
X109343726Y-111053776D01*
X109246224Y-110956274D01*
X109131574Y-110879668D01*
X109004182Y-110826901D01*
X108868944Y-110800000D01*
X108731056Y-110800000D01*
X108595818Y-110826901D01*
X108468426Y-110879668D01*
X108353776Y-110956274D01*
X108256274Y-111053776D01*
X108179668Y-111168426D01*
X108126901Y-111295818D01*
X108100000Y-111431056D01*
X106497292Y-111431056D01*
X106498177Y-111429732D01*
X106549060Y-111306890D01*
X106575000Y-111176482D01*
X106575000Y-111043518D01*
X106549060Y-110913110D01*
X106522919Y-110850000D01*
X107700000Y-110850000D01*
X107807300Y-110839432D01*
X107910476Y-110808134D01*
X108005564Y-110757308D01*
X108088909Y-110688909D01*
X108157308Y-110605564D01*
X108208134Y-110510476D01*
X108239432Y-110407300D01*
X108250000Y-110300000D01*
X108250000Y-108950000D01*
X109260050Y-108950000D01*
X109256274Y-108953776D01*
X109179668Y-109068426D01*
X109126901Y-109195818D01*
X109100000Y-109331056D01*
X109100000Y-109468944D01*
X109126901Y-109604182D01*
X109179668Y-109731574D01*
X109256274Y-109846224D01*
X109353776Y-109943726D01*
X109468426Y-110020332D01*
X109595818Y-110073099D01*
X109731056Y-110100000D01*
X109868944Y-110100000D01*
X110004182Y-110073099D01*
X110131574Y-110020332D01*
X110246224Y-109943726D01*
X110343726Y-109846224D01*
X110420332Y-109731574D01*
X110473099Y-109604182D01*
X110500000Y-109468944D01*
X110500000Y-109331056D01*
X110473099Y-109195818D01*
X110420332Y-109068426D01*
X110343726Y-108953776D01*
X110300968Y-108911018D01*
X110310476Y-108908134D01*
X110405564Y-108857308D01*
X110488909Y-108788909D01*
X110557308Y-108705564D01*
X110608134Y-108610476D01*
X110639432Y-108507300D01*
X110650000Y-108400000D01*
X110650000Y-106000000D01*
X110639432Y-105892700D01*
X110608134Y-105789524D01*
X110557308Y-105694436D01*
X110488909Y-105611091D01*
X110405564Y-105542692D01*
X110310476Y-105491866D01*
X110207300Y-105460568D01*
X110100000Y-105450000D01*
X106150000Y-105450000D01*
X106150000Y-101150000D01*
X113245879Y-101150000D01*
X113226901Y-101195818D01*
G36*
X111850000Y-121635981D02*
G01*
X111825021Y-121510402D01*
X111776022Y-121392110D01*
X111704888Y-121285649D01*
X111614351Y-121195112D01*
X111507890Y-121123978D01*
X111389598Y-121074979D01*
X111300000Y-121057157D01*
X111300000Y-119831371D01*
X111850000Y-119281372D01*
X111850000Y-121635981D01*
X111850000Y-121635981D01*
G37*
X111850000Y-121635981D02*
X111825021Y-121510402D01*
X111776022Y-121392110D01*
X111704888Y-121285649D01*
X111614351Y-121195112D01*
X111507890Y-121123978D01*
X111389598Y-121074979D01*
X111300000Y-121057157D01*
X111300000Y-119831371D01*
X111850000Y-119281372D01*
X111850000Y-121635981D01*
G36*
X103850000Y-108450000D02*
G01*
X101150000Y-108450000D01*
X101150000Y-106150000D01*
X103850000Y-106150000D01*
X103850000Y-108450000D01*
X103850000Y-108450000D01*
G37*
X103850000Y-108450000D02*
X101150000Y-108450000D01*
X101150000Y-106150000D01*
X103850000Y-106150000D01*
X103850000Y-108450000D01*
M02*
