G04 #@! TF.GenerationSoftware,KiCad,Pcbnew,5.1.4+dfsg1-1*
G04 #@! TF.CreationDate,2020-04-26T21:13:55+04:00*
G04 #@! TF.ProjectId,RailLink,5261696c-4c69-46e6-9b2e-6b696361645f,rev?*
G04 #@! TF.SameCoordinates,Original*
G04 #@! TF.FileFunction,Soldermask,Bot*
G04 #@! TF.FilePolarity,Negative*
%FSLAX46Y46*%
G04 Gerber Fmt 4.6, Leading zero omitted, Abs format (unit mm)*
G04 Created by KiCad (PCBNEW 5.1.4+dfsg1-1) date 2020-04-26 21:13:55*
%MOMM*%
%LPD*%
G04 APERTURE LIST*
%ADD10C,0.050000*%
%ADD11C,0.160000*%
G04 APERTURE END LIST*
D10*
X103000000Y-128000000D02*
G75*
G02X100000000Y-125000000I0J3000000D01*
G01*
X100000000Y-103000000D02*
G75*
G02X103000000Y-100000000I3000000J0D01*
G01*
X157000000Y-100000000D02*
G75*
G02X160000000Y-103000000I0J-3000000D01*
G01*
X160000000Y-125000000D02*
G75*
G02X157000000Y-128000000I-3000000J0D01*
G01*
X157000000Y-100000000D02*
X103000000Y-100000000D01*
X160000000Y-125000000D02*
X160000000Y-103000000D01*
X103000000Y-128000000D02*
X157000000Y-128000000D01*
X100000000Y-103000000D02*
X100000000Y-125000000D01*
D11*
G36*
X153343807Y-122647995D02*
G01*
X153343809Y-122647996D01*
X153343810Y-122647996D01*
X153479734Y-122704298D01*
X153807878Y-122840220D01*
X153807879Y-122840221D01*
X154203381Y-123104486D01*
X154225530Y-123119286D01*
X154580714Y-123474470D01*
X154859780Y-123892122D01*
X155052005Y-124356193D01*
X155150000Y-124848847D01*
X155150000Y-125351153D01*
X155052005Y-125843807D01*
X154859780Y-126307878D01*
X154771499Y-126440000D01*
X154626885Y-126656431D01*
X154580714Y-126725530D01*
X154225530Y-127080714D01*
X153807878Y-127359780D01*
X153650423Y-127425000D01*
X153343810Y-127552004D01*
X153343809Y-127552004D01*
X153343807Y-127552005D01*
X152851153Y-127650000D01*
X152348847Y-127650000D01*
X151856193Y-127552005D01*
X151856191Y-127552004D01*
X151856190Y-127552004D01*
X151549577Y-127425000D01*
X151392122Y-127359780D01*
X150974470Y-127080714D01*
X150619286Y-126725530D01*
X150573116Y-126656431D01*
X150428501Y-126440000D01*
X150340220Y-126307878D01*
X150147995Y-125843807D01*
X150050000Y-125351153D01*
X150050000Y-124848847D01*
X150147995Y-124356193D01*
X150340220Y-123892122D01*
X150619286Y-123474470D01*
X150974470Y-123119286D01*
X150996620Y-123104486D01*
X151392121Y-122840221D01*
X151392122Y-122840220D01*
X151720266Y-122704298D01*
X151856190Y-122647996D01*
X151856191Y-122647996D01*
X151856193Y-122647995D01*
X152348847Y-122550000D01*
X152851153Y-122550000D01*
X153343807Y-122647995D01*
X153343807Y-122647995D01*
G37*
G36*
X103643807Y-122647995D02*
G01*
X103643809Y-122647996D01*
X103643810Y-122647996D01*
X103779734Y-122704298D01*
X104107878Y-122840220D01*
X104107879Y-122840221D01*
X104503381Y-123104486D01*
X104525530Y-123119286D01*
X104880714Y-123474470D01*
X105159780Y-123892122D01*
X105352005Y-124356193D01*
X105450000Y-124848847D01*
X105450000Y-125351153D01*
X105352005Y-125843807D01*
X105159780Y-126307878D01*
X105071499Y-126440000D01*
X104926885Y-126656431D01*
X104880714Y-126725530D01*
X104525530Y-127080714D01*
X104107878Y-127359780D01*
X103950423Y-127425000D01*
X103643810Y-127552004D01*
X103643809Y-127552004D01*
X103643807Y-127552005D01*
X103151153Y-127650000D01*
X102648847Y-127650000D01*
X102156193Y-127552005D01*
X102156191Y-127552004D01*
X102156190Y-127552004D01*
X101849577Y-127425000D01*
X101692122Y-127359780D01*
X101274470Y-127080714D01*
X100919286Y-126725530D01*
X100873116Y-126656431D01*
X100728501Y-126440000D01*
X100640220Y-126307878D01*
X100447995Y-125843807D01*
X100350000Y-125351153D01*
X100350000Y-124848847D01*
X100447995Y-124356193D01*
X100640220Y-123892122D01*
X100919286Y-123474470D01*
X101274470Y-123119286D01*
X101296620Y-123104486D01*
X101692121Y-122840221D01*
X101692122Y-122840220D01*
X102020266Y-122704298D01*
X102156190Y-122647996D01*
X102156191Y-122647996D01*
X102156193Y-122647995D01*
X102648847Y-122550000D01*
X103151153Y-122550000D01*
X103643807Y-122647995D01*
X103643807Y-122647995D01*
G37*
G36*
X120576429Y-125593022D02*
G01*
X120746082Y-125644486D01*
X120902432Y-125728057D01*
X121039475Y-125840525D01*
X121151943Y-125977568D01*
X121235514Y-126133918D01*
X121286978Y-126303571D01*
X121304355Y-126480000D01*
X121286978Y-126656429D01*
X121235514Y-126826082D01*
X121151943Y-126982432D01*
X121039475Y-127119475D01*
X120902432Y-127231943D01*
X120746082Y-127315514D01*
X120576429Y-127366978D01*
X120444212Y-127380000D01*
X120355788Y-127380000D01*
X120223571Y-127366978D01*
X120053918Y-127315514D01*
X119897568Y-127231943D01*
X119760525Y-127119475D01*
X119648057Y-126982432D01*
X119564486Y-126826082D01*
X119513022Y-126656429D01*
X119495645Y-126480000D01*
X119513022Y-126303571D01*
X119564486Y-126133918D01*
X119648057Y-125977568D01*
X119760525Y-125840525D01*
X119897568Y-125728057D01*
X120053918Y-125644486D01*
X120223571Y-125593022D01*
X120355788Y-125580000D01*
X120444212Y-125580000D01*
X120576429Y-125593022D01*
X120576429Y-125593022D01*
G37*
G36*
X124376429Y-125553022D02*
G01*
X124546082Y-125604486D01*
X124702432Y-125688057D01*
X124839475Y-125800525D01*
X124951943Y-125937568D01*
X125035514Y-126093918D01*
X125086978Y-126263571D01*
X125104355Y-126440000D01*
X125086978Y-126616429D01*
X125035514Y-126786082D01*
X124951943Y-126942432D01*
X124839475Y-127079475D01*
X124702432Y-127191943D01*
X124546082Y-127275514D01*
X124376429Y-127326978D01*
X124244212Y-127340000D01*
X124155788Y-127340000D01*
X124023571Y-127326978D01*
X123853918Y-127275514D01*
X123697568Y-127191943D01*
X123560525Y-127079475D01*
X123448057Y-126942432D01*
X123364486Y-126786082D01*
X123313022Y-126616429D01*
X123295645Y-126440000D01*
X123313022Y-126263571D01*
X123364486Y-126093918D01*
X123448057Y-125937568D01*
X123560525Y-125800525D01*
X123697568Y-125688057D01*
X123853918Y-125604486D01*
X124023571Y-125553022D01*
X124155788Y-125540000D01*
X124244212Y-125540000D01*
X124376429Y-125553022D01*
X124376429Y-125553022D01*
G37*
G36*
X120576429Y-123053022D02*
G01*
X120746082Y-123104486D01*
X120902432Y-123188057D01*
X121039475Y-123300525D01*
X121151943Y-123437568D01*
X121235514Y-123593918D01*
X121286978Y-123763571D01*
X121304355Y-123940000D01*
X121286978Y-124116429D01*
X121235514Y-124286082D01*
X121151943Y-124442432D01*
X121039475Y-124579475D01*
X120902432Y-124691943D01*
X120746082Y-124775514D01*
X120576429Y-124826978D01*
X120444212Y-124840000D01*
X120355788Y-124840000D01*
X120223571Y-124826978D01*
X120053918Y-124775514D01*
X119897568Y-124691943D01*
X119760525Y-124579475D01*
X119648057Y-124442432D01*
X119564486Y-124286082D01*
X119513022Y-124116429D01*
X119495645Y-123940000D01*
X119513022Y-123763571D01*
X119564486Y-123593918D01*
X119648057Y-123437568D01*
X119760525Y-123300525D01*
X119897568Y-123188057D01*
X120053918Y-123104486D01*
X120223571Y-123053022D01*
X120355788Y-123040000D01*
X120444212Y-123040000D01*
X120576429Y-123053022D01*
X120576429Y-123053022D01*
G37*
G36*
X125100000Y-124800000D02*
G01*
X123300000Y-124800000D01*
X123300000Y-123000000D01*
X125100000Y-123000000D01*
X125100000Y-124800000D01*
X125100000Y-124800000D01*
G37*
G36*
X121300000Y-122300000D02*
G01*
X119500000Y-122300000D01*
X119500000Y-120500000D01*
X121300000Y-120500000D01*
X121300000Y-122300000D01*
X121300000Y-122300000D01*
G37*
G36*
X154285542Y-118176314D02*
G01*
X154319097Y-118179619D01*
X154426445Y-118212183D01*
X154491312Y-118231860D01*
X154631873Y-118306992D01*
X154650025Y-118316694D01*
X154789138Y-118430862D01*
X154903306Y-118569975D01*
X154903307Y-118569977D01*
X154988140Y-118728688D01*
X155040382Y-118900905D01*
X155058021Y-119080000D01*
X155040382Y-119259095D01*
X154988140Y-119431312D01*
X154913008Y-119571873D01*
X154903306Y-119590025D01*
X154789138Y-119729138D01*
X154650025Y-119843306D01*
X154650023Y-119843307D01*
X154491312Y-119928140D01*
X154433906Y-119945554D01*
X154319097Y-119980381D01*
X154285542Y-119983686D01*
X154184884Y-119993600D01*
X154095116Y-119993600D01*
X153994458Y-119983686D01*
X153960903Y-119980381D01*
X153846094Y-119945554D01*
X153788688Y-119928140D01*
X153629977Y-119843307D01*
X153629975Y-119843306D01*
X153490862Y-119729138D01*
X153376694Y-119590025D01*
X153366992Y-119571873D01*
X153291860Y-119431312D01*
X153239618Y-119259095D01*
X153221979Y-119080000D01*
X153239618Y-118900905D01*
X153291860Y-118728688D01*
X153376693Y-118569977D01*
X153376694Y-118569975D01*
X153490862Y-118430862D01*
X153629975Y-118316694D01*
X153648127Y-118306992D01*
X153788688Y-118231860D01*
X153853555Y-118212183D01*
X153960903Y-118179619D01*
X153994458Y-118176314D01*
X154095116Y-118166400D01*
X154184884Y-118166400D01*
X154285542Y-118176314D01*
X154285542Y-118176314D01*
G37*
G36*
X151745542Y-118176314D02*
G01*
X151779097Y-118179619D01*
X151886445Y-118212183D01*
X151951312Y-118231860D01*
X152091873Y-118306992D01*
X152110025Y-118316694D01*
X152249138Y-118430862D01*
X152363306Y-118569975D01*
X152363307Y-118569977D01*
X152448140Y-118728688D01*
X152500382Y-118900905D01*
X152518021Y-119080000D01*
X152500382Y-119259095D01*
X152448140Y-119431312D01*
X152373008Y-119571873D01*
X152363306Y-119590025D01*
X152249138Y-119729138D01*
X152110025Y-119843306D01*
X152110023Y-119843307D01*
X151951312Y-119928140D01*
X151893906Y-119945554D01*
X151779097Y-119980381D01*
X151745542Y-119983686D01*
X151644884Y-119993600D01*
X151555116Y-119993600D01*
X151454458Y-119983686D01*
X151420903Y-119980381D01*
X151306094Y-119945554D01*
X151248688Y-119928140D01*
X151089977Y-119843307D01*
X151089975Y-119843306D01*
X150950862Y-119729138D01*
X150836694Y-119590025D01*
X150826992Y-119571873D01*
X150751860Y-119431312D01*
X150699618Y-119259095D01*
X150681979Y-119080000D01*
X150699618Y-118900905D01*
X150751860Y-118728688D01*
X150836693Y-118569977D01*
X150836694Y-118569975D01*
X150950862Y-118430862D01*
X151089975Y-118316694D01*
X151108127Y-118306992D01*
X151248688Y-118231860D01*
X151313555Y-118212183D01*
X151420903Y-118179619D01*
X151454458Y-118176314D01*
X151555116Y-118166400D01*
X151644884Y-118166400D01*
X151745542Y-118176314D01*
X151745542Y-118176314D01*
G37*
G36*
X107087817Y-117777957D02*
G01*
X107191495Y-117809408D01*
X107276114Y-117854638D01*
X107287042Y-117860479D01*
X107308857Y-117878383D01*
X107370791Y-117929209D01*
X107421617Y-117991143D01*
X107439521Y-118012958D01*
X107439522Y-118012960D01*
X107490592Y-118108505D01*
X107522043Y-118212183D01*
X107532662Y-118320000D01*
X107522043Y-118427817D01*
X107490592Y-118531495D01*
X107470024Y-118569975D01*
X107439521Y-118627042D01*
X107421617Y-118648857D01*
X107370791Y-118710791D01*
X107308857Y-118761617D01*
X107287042Y-118779521D01*
X107287040Y-118779522D01*
X107191495Y-118830592D01*
X107087817Y-118862043D01*
X107007024Y-118870000D01*
X105852976Y-118870000D01*
X105772183Y-118862043D01*
X105668505Y-118830592D01*
X105572960Y-118779522D01*
X105572958Y-118779521D01*
X105551143Y-118761617D01*
X105489209Y-118710791D01*
X105438383Y-118648857D01*
X105420479Y-118627042D01*
X105389976Y-118569975D01*
X105369408Y-118531495D01*
X105337957Y-118427817D01*
X105327338Y-118320000D01*
X105337957Y-118212183D01*
X105369408Y-118108505D01*
X105420478Y-118012960D01*
X105420479Y-118012958D01*
X105438383Y-117991143D01*
X105489209Y-117929209D01*
X105551143Y-117878383D01*
X105572958Y-117860479D01*
X105583886Y-117854638D01*
X105668505Y-117809408D01*
X105772183Y-117777957D01*
X105852976Y-117770000D01*
X107007024Y-117770000D01*
X107087817Y-117777957D01*
X107087817Y-117777957D01*
G37*
G36*
X102657817Y-117777957D02*
G01*
X102761495Y-117809408D01*
X102846114Y-117854638D01*
X102857042Y-117860479D01*
X102878857Y-117878383D01*
X102940791Y-117929209D01*
X102991617Y-117991143D01*
X103009521Y-118012958D01*
X103009522Y-118012960D01*
X103060592Y-118108505D01*
X103092043Y-118212183D01*
X103102662Y-118320000D01*
X103092043Y-118427817D01*
X103060592Y-118531495D01*
X103040024Y-118569975D01*
X103009521Y-118627042D01*
X102991617Y-118648857D01*
X102940791Y-118710791D01*
X102878857Y-118761617D01*
X102857042Y-118779521D01*
X102857040Y-118779522D01*
X102761495Y-118830592D01*
X102657817Y-118862043D01*
X102577024Y-118870000D01*
X101922976Y-118870000D01*
X101842183Y-118862043D01*
X101738505Y-118830592D01*
X101642960Y-118779522D01*
X101642958Y-118779521D01*
X101621143Y-118761617D01*
X101559209Y-118710791D01*
X101508383Y-118648857D01*
X101490479Y-118627042D01*
X101459976Y-118569975D01*
X101439408Y-118531495D01*
X101407957Y-118427817D01*
X101397338Y-118320000D01*
X101407957Y-118212183D01*
X101439408Y-118108505D01*
X101490478Y-118012960D01*
X101490479Y-118012958D01*
X101508383Y-117991143D01*
X101559209Y-117929209D01*
X101621143Y-117878383D01*
X101642958Y-117860479D01*
X101653886Y-117854638D01*
X101738505Y-117809408D01*
X101842183Y-117777957D01*
X101922976Y-117770000D01*
X102577024Y-117770000D01*
X102657817Y-117777957D01*
X102657817Y-117777957D01*
G37*
G36*
X151745542Y-115636314D02*
G01*
X151779097Y-115639619D01*
X151893906Y-115674446D01*
X151951312Y-115691860D01*
X152091873Y-115766992D01*
X152110025Y-115776694D01*
X152249138Y-115890862D01*
X152363306Y-116029975D01*
X152363307Y-116029977D01*
X152448140Y-116188688D01*
X152500382Y-116360905D01*
X152518021Y-116540000D01*
X152500382Y-116719095D01*
X152448140Y-116891312D01*
X152390375Y-116999383D01*
X152363306Y-117050025D01*
X152249138Y-117189138D01*
X152110025Y-117303306D01*
X152110023Y-117303307D01*
X151951312Y-117388140D01*
X151893906Y-117405554D01*
X151779097Y-117440381D01*
X151745542Y-117443686D01*
X151644884Y-117453600D01*
X151555116Y-117453600D01*
X151454458Y-117443686D01*
X151420903Y-117440381D01*
X151306094Y-117405554D01*
X151248688Y-117388140D01*
X151089977Y-117303307D01*
X151089975Y-117303306D01*
X150950862Y-117189138D01*
X150836694Y-117050025D01*
X150809625Y-116999383D01*
X150751860Y-116891312D01*
X150699618Y-116719095D01*
X150681979Y-116540000D01*
X150699618Y-116360905D01*
X150751860Y-116188688D01*
X150836693Y-116029977D01*
X150836694Y-116029975D01*
X150950862Y-115890862D01*
X151089975Y-115776694D01*
X151108127Y-115766992D01*
X151248688Y-115691860D01*
X151306094Y-115674446D01*
X151420903Y-115639619D01*
X151454458Y-115636314D01*
X151555116Y-115626400D01*
X151644884Y-115626400D01*
X151745542Y-115636314D01*
X151745542Y-115636314D01*
G37*
G36*
X154285542Y-115636314D02*
G01*
X154319097Y-115639619D01*
X154433906Y-115674446D01*
X154491312Y-115691860D01*
X154631873Y-115766992D01*
X154650025Y-115776694D01*
X154789138Y-115890862D01*
X154903306Y-116029975D01*
X154903307Y-116029977D01*
X154988140Y-116188688D01*
X155040382Y-116360905D01*
X155058021Y-116540000D01*
X155040382Y-116719095D01*
X154988140Y-116891312D01*
X154930375Y-116999383D01*
X154903306Y-117050025D01*
X154789138Y-117189138D01*
X154650025Y-117303306D01*
X154650023Y-117303307D01*
X154491312Y-117388140D01*
X154433906Y-117405554D01*
X154319097Y-117440381D01*
X154285542Y-117443686D01*
X154184884Y-117453600D01*
X154095116Y-117453600D01*
X153994458Y-117443686D01*
X153960903Y-117440381D01*
X153846094Y-117405554D01*
X153788688Y-117388140D01*
X153629977Y-117303307D01*
X153629975Y-117303306D01*
X153490862Y-117189138D01*
X153376694Y-117050025D01*
X153349625Y-116999383D01*
X153291860Y-116891312D01*
X153239618Y-116719095D01*
X153221979Y-116540000D01*
X153239618Y-116360905D01*
X153291860Y-116188688D01*
X153376693Y-116029977D01*
X153376694Y-116029975D01*
X153490862Y-115890862D01*
X153629975Y-115776694D01*
X153648127Y-115766992D01*
X153788688Y-115691860D01*
X153846094Y-115674446D01*
X153960903Y-115639619D01*
X153994458Y-115636314D01*
X154095116Y-115626400D01*
X154184884Y-115626400D01*
X154285542Y-115636314D01*
X154285542Y-115636314D01*
G37*
G36*
X106009383Y-116529411D02*
G01*
X106077629Y-116557680D01*
X106118483Y-116584978D01*
X106139050Y-116598720D01*
X106191280Y-116650950D01*
X106191281Y-116650952D01*
X106232320Y-116712371D01*
X106260589Y-116780617D01*
X106275000Y-116853066D01*
X106275000Y-116926934D01*
X106260589Y-116999383D01*
X106232320Y-117067629D01*
X106205022Y-117108483D01*
X106191280Y-117129050D01*
X106139050Y-117181280D01*
X106127289Y-117189138D01*
X106077629Y-117222320D01*
X106009383Y-117250589D01*
X105936934Y-117265000D01*
X105863066Y-117265000D01*
X105790617Y-117250589D01*
X105722371Y-117222320D01*
X105672711Y-117189138D01*
X105660950Y-117181280D01*
X105608720Y-117129050D01*
X105594978Y-117108483D01*
X105567680Y-117067629D01*
X105539411Y-116999383D01*
X105525000Y-116926934D01*
X105525000Y-116853066D01*
X105539411Y-116780617D01*
X105567680Y-116712371D01*
X105608719Y-116650952D01*
X105608720Y-116650950D01*
X105660950Y-116598720D01*
X105681517Y-116584978D01*
X105722371Y-116557680D01*
X105790617Y-116529411D01*
X105863066Y-116515000D01*
X105936934Y-116515000D01*
X106009383Y-116529411D01*
X106009383Y-116529411D01*
G37*
G36*
X151745542Y-113096314D02*
G01*
X151779097Y-113099619D01*
X151893906Y-113134446D01*
X151951312Y-113151860D01*
X152091873Y-113226992D01*
X152110025Y-113236694D01*
X152249138Y-113350862D01*
X152363306Y-113489975D01*
X152363307Y-113489977D01*
X152448140Y-113648688D01*
X152500382Y-113820905D01*
X152518021Y-114000000D01*
X152500382Y-114179095D01*
X152448140Y-114351312D01*
X152373008Y-114491873D01*
X152363306Y-114510025D01*
X152249138Y-114649138D01*
X152110025Y-114763306D01*
X152110023Y-114763307D01*
X151951312Y-114848140D01*
X151893906Y-114865554D01*
X151779097Y-114900381D01*
X151745542Y-114903686D01*
X151644884Y-114913600D01*
X151555116Y-114913600D01*
X151454458Y-114903686D01*
X151420903Y-114900381D01*
X151306094Y-114865554D01*
X151248688Y-114848140D01*
X151089977Y-114763307D01*
X151089975Y-114763306D01*
X150950862Y-114649138D01*
X150836694Y-114510025D01*
X150826992Y-114491873D01*
X150751860Y-114351312D01*
X150699618Y-114179095D01*
X150681979Y-114000000D01*
X150699618Y-113820905D01*
X150751860Y-113648688D01*
X150836693Y-113489977D01*
X150836694Y-113489975D01*
X150950862Y-113350862D01*
X151089975Y-113236694D01*
X151108127Y-113226992D01*
X151248688Y-113151860D01*
X151306094Y-113134446D01*
X151420903Y-113099619D01*
X151454458Y-113096314D01*
X151555116Y-113086400D01*
X151644884Y-113086400D01*
X151745542Y-113096314D01*
X151745542Y-113096314D01*
G37*
G36*
X154285542Y-113096314D02*
G01*
X154319097Y-113099619D01*
X154433906Y-113134446D01*
X154491312Y-113151860D01*
X154631873Y-113226992D01*
X154650025Y-113236694D01*
X154789138Y-113350862D01*
X154903306Y-113489975D01*
X154903307Y-113489977D01*
X154988140Y-113648688D01*
X155040382Y-113820905D01*
X155058021Y-114000000D01*
X155040382Y-114179095D01*
X154988140Y-114351312D01*
X154913008Y-114491873D01*
X154903306Y-114510025D01*
X154789138Y-114649138D01*
X154650025Y-114763306D01*
X154650023Y-114763307D01*
X154491312Y-114848140D01*
X154433906Y-114865554D01*
X154319097Y-114900381D01*
X154285542Y-114903686D01*
X154184884Y-114913600D01*
X154095116Y-114913600D01*
X153994458Y-114903686D01*
X153960903Y-114900381D01*
X153846094Y-114865554D01*
X153788688Y-114848140D01*
X153629977Y-114763307D01*
X153629975Y-114763306D01*
X153490862Y-114649138D01*
X153376694Y-114510025D01*
X153366992Y-114491873D01*
X153291860Y-114351312D01*
X153239618Y-114179095D01*
X153221979Y-114000000D01*
X153239618Y-113820905D01*
X153291860Y-113648688D01*
X153376693Y-113489977D01*
X153376694Y-113489975D01*
X153490862Y-113350862D01*
X153629975Y-113236694D01*
X153648127Y-113226992D01*
X153788688Y-113151860D01*
X153846094Y-113134446D01*
X153960903Y-113099619D01*
X153994458Y-113096314D01*
X154095116Y-113086400D01*
X154184884Y-113086400D01*
X154285542Y-113096314D01*
X154285542Y-113096314D01*
G37*
G36*
X151745542Y-110556314D02*
G01*
X151779097Y-110559619D01*
X151893906Y-110594446D01*
X151951312Y-110611860D01*
X152091873Y-110686992D01*
X152110025Y-110696694D01*
X152249138Y-110810862D01*
X152363306Y-110949975D01*
X152363307Y-110949977D01*
X152448140Y-111108688D01*
X152500382Y-111280905D01*
X152518021Y-111460000D01*
X152500382Y-111639095D01*
X152448140Y-111811312D01*
X152373008Y-111951873D01*
X152363306Y-111970025D01*
X152249138Y-112109138D01*
X152110025Y-112223306D01*
X152110023Y-112223307D01*
X151951312Y-112308140D01*
X151893906Y-112325554D01*
X151779097Y-112360381D01*
X151745542Y-112363686D01*
X151644884Y-112373600D01*
X151555116Y-112373600D01*
X151454458Y-112363686D01*
X151420903Y-112360381D01*
X151306094Y-112325554D01*
X151248688Y-112308140D01*
X151089977Y-112223307D01*
X151089975Y-112223306D01*
X150950862Y-112109138D01*
X150836694Y-111970025D01*
X150826992Y-111951873D01*
X150751860Y-111811312D01*
X150699618Y-111639095D01*
X150681979Y-111460000D01*
X150699618Y-111280905D01*
X150751860Y-111108688D01*
X150836693Y-110949977D01*
X150836694Y-110949975D01*
X150950862Y-110810862D01*
X151089975Y-110696694D01*
X151108127Y-110686992D01*
X151248688Y-110611860D01*
X151306094Y-110594446D01*
X151420903Y-110559619D01*
X151454458Y-110556314D01*
X151555116Y-110546400D01*
X151644884Y-110546400D01*
X151745542Y-110556314D01*
X151745542Y-110556314D01*
G37*
G36*
X154285542Y-110556314D02*
G01*
X154319097Y-110559619D01*
X154433906Y-110594446D01*
X154491312Y-110611860D01*
X154631873Y-110686992D01*
X154650025Y-110696694D01*
X154789138Y-110810862D01*
X154903306Y-110949975D01*
X154903307Y-110949977D01*
X154988140Y-111108688D01*
X155040382Y-111280905D01*
X155058021Y-111460000D01*
X155040382Y-111639095D01*
X154988140Y-111811312D01*
X154913008Y-111951873D01*
X154903306Y-111970025D01*
X154789138Y-112109138D01*
X154650025Y-112223306D01*
X154650023Y-112223307D01*
X154491312Y-112308140D01*
X154433906Y-112325554D01*
X154319097Y-112360381D01*
X154285542Y-112363686D01*
X154184884Y-112373600D01*
X154095116Y-112373600D01*
X153994458Y-112363686D01*
X153960903Y-112360381D01*
X153846094Y-112325554D01*
X153788688Y-112308140D01*
X153629977Y-112223307D01*
X153629975Y-112223306D01*
X153490862Y-112109138D01*
X153376694Y-111970025D01*
X153366992Y-111951873D01*
X153291860Y-111811312D01*
X153239618Y-111639095D01*
X153221979Y-111460000D01*
X153239618Y-111280905D01*
X153291860Y-111108688D01*
X153376693Y-110949977D01*
X153376694Y-110949975D01*
X153490862Y-110810862D01*
X153629975Y-110696694D01*
X153648127Y-110686992D01*
X153788688Y-110611860D01*
X153846094Y-110594446D01*
X153960903Y-110559619D01*
X153994458Y-110556314D01*
X154095116Y-110546400D01*
X154184884Y-110546400D01*
X154285542Y-110556314D01*
X154285542Y-110556314D01*
G37*
G36*
X106009383Y-110749411D02*
G01*
X106077629Y-110777680D01*
X106118483Y-110804978D01*
X106139050Y-110818720D01*
X106191280Y-110870950D01*
X106191281Y-110870952D01*
X106232320Y-110932371D01*
X106260589Y-111000617D01*
X106275000Y-111073066D01*
X106275000Y-111146934D01*
X106260589Y-111219383D01*
X106232320Y-111287629D01*
X106205022Y-111328483D01*
X106191280Y-111349050D01*
X106139050Y-111401280D01*
X106118483Y-111415022D01*
X106077629Y-111442320D01*
X106009383Y-111470589D01*
X105936934Y-111485000D01*
X105863066Y-111485000D01*
X105790617Y-111470589D01*
X105722371Y-111442320D01*
X105681517Y-111415022D01*
X105660950Y-111401280D01*
X105608720Y-111349050D01*
X105594978Y-111328483D01*
X105567680Y-111287629D01*
X105539411Y-111219383D01*
X105525000Y-111146934D01*
X105525000Y-111073066D01*
X105539411Y-111000617D01*
X105567680Y-110932371D01*
X105608719Y-110870952D01*
X105608720Y-110870950D01*
X105660950Y-110818720D01*
X105681517Y-110804978D01*
X105722371Y-110777680D01*
X105790617Y-110749411D01*
X105863066Y-110735000D01*
X105936934Y-110735000D01*
X106009383Y-110749411D01*
X106009383Y-110749411D01*
G37*
G36*
X107087817Y-109137957D02*
G01*
X107191495Y-109169408D01*
X107276114Y-109214638D01*
X107287042Y-109220479D01*
X107308857Y-109238383D01*
X107370791Y-109289209D01*
X107421617Y-109351143D01*
X107439521Y-109372958D01*
X107439522Y-109372960D01*
X107490592Y-109468505D01*
X107522043Y-109572183D01*
X107532662Y-109680000D01*
X107522043Y-109787817D01*
X107490592Y-109891495D01*
X107445362Y-109976114D01*
X107439521Y-109987042D01*
X107421617Y-110008857D01*
X107370791Y-110070791D01*
X107308857Y-110121617D01*
X107287042Y-110139521D01*
X107287040Y-110139522D01*
X107191495Y-110190592D01*
X107087817Y-110222043D01*
X107007024Y-110230000D01*
X105852976Y-110230000D01*
X105772183Y-110222043D01*
X105668505Y-110190592D01*
X105572960Y-110139522D01*
X105572958Y-110139521D01*
X105551143Y-110121617D01*
X105489209Y-110070791D01*
X105438383Y-110008857D01*
X105420479Y-109987042D01*
X105414638Y-109976114D01*
X105369408Y-109891495D01*
X105337957Y-109787817D01*
X105327338Y-109680000D01*
X105337957Y-109572183D01*
X105369408Y-109468505D01*
X105420478Y-109372960D01*
X105420479Y-109372958D01*
X105438383Y-109351143D01*
X105489209Y-109289209D01*
X105551143Y-109238383D01*
X105572958Y-109220479D01*
X105583886Y-109214638D01*
X105668505Y-109169408D01*
X105772183Y-109137957D01*
X105852976Y-109130000D01*
X107007024Y-109130000D01*
X107087817Y-109137957D01*
X107087817Y-109137957D01*
G37*
G36*
X102657817Y-109137957D02*
G01*
X102761495Y-109169408D01*
X102846114Y-109214638D01*
X102857042Y-109220479D01*
X102878857Y-109238383D01*
X102940791Y-109289209D01*
X102991617Y-109351143D01*
X103009521Y-109372958D01*
X103009522Y-109372960D01*
X103060592Y-109468505D01*
X103092043Y-109572183D01*
X103102662Y-109680000D01*
X103092043Y-109787817D01*
X103060592Y-109891495D01*
X103015362Y-109976114D01*
X103009521Y-109987042D01*
X102991617Y-110008857D01*
X102940791Y-110070791D01*
X102878857Y-110121617D01*
X102857042Y-110139521D01*
X102857040Y-110139522D01*
X102761495Y-110190592D01*
X102657817Y-110222043D01*
X102577024Y-110230000D01*
X101922976Y-110230000D01*
X101842183Y-110222043D01*
X101738505Y-110190592D01*
X101642960Y-110139522D01*
X101642958Y-110139521D01*
X101621143Y-110121617D01*
X101559209Y-110070791D01*
X101508383Y-110008857D01*
X101490479Y-109987042D01*
X101484638Y-109976114D01*
X101439408Y-109891495D01*
X101407957Y-109787817D01*
X101397338Y-109680000D01*
X101407957Y-109572183D01*
X101439408Y-109468505D01*
X101490478Y-109372960D01*
X101490479Y-109372958D01*
X101508383Y-109351143D01*
X101559209Y-109289209D01*
X101621143Y-109238383D01*
X101642958Y-109220479D01*
X101653886Y-109214638D01*
X101738505Y-109169408D01*
X101842183Y-109137957D01*
X101922976Y-109130000D01*
X102577024Y-109130000D01*
X102657817Y-109137957D01*
X102657817Y-109137957D01*
G37*
G36*
X152513600Y-109833600D02*
G01*
X150686400Y-109833600D01*
X150686400Y-108006400D01*
X152513600Y-108006400D01*
X152513600Y-109833600D01*
X152513600Y-109833600D01*
G37*
G36*
X154285542Y-108016314D02*
G01*
X154319097Y-108019619D01*
X154433906Y-108054446D01*
X154491312Y-108071860D01*
X154631873Y-108146992D01*
X154650025Y-108156694D01*
X154789138Y-108270862D01*
X154903306Y-108409975D01*
X154903307Y-108409977D01*
X154988140Y-108568688D01*
X155040382Y-108740905D01*
X155058021Y-108920000D01*
X155040382Y-109099095D01*
X154988140Y-109271312D01*
X154978573Y-109289210D01*
X154903306Y-109430025D01*
X154789138Y-109569138D01*
X154650025Y-109683306D01*
X154650023Y-109683307D01*
X154491312Y-109768140D01*
X154433906Y-109785554D01*
X154319097Y-109820381D01*
X154285542Y-109823686D01*
X154184884Y-109833600D01*
X154095116Y-109833600D01*
X153994458Y-109823686D01*
X153960903Y-109820381D01*
X153846094Y-109785554D01*
X153788688Y-109768140D01*
X153629977Y-109683307D01*
X153629975Y-109683306D01*
X153490862Y-109569138D01*
X153376694Y-109430025D01*
X153301427Y-109289210D01*
X153291860Y-109271312D01*
X153239618Y-109099095D01*
X153221979Y-108920000D01*
X153239618Y-108740905D01*
X153291860Y-108568688D01*
X153376693Y-108409977D01*
X153376694Y-108409975D01*
X153490862Y-108270862D01*
X153629975Y-108156694D01*
X153648127Y-108146992D01*
X153788688Y-108071860D01*
X153846094Y-108054446D01*
X153960903Y-108019619D01*
X153994458Y-108016314D01*
X154095116Y-108006400D01*
X154184884Y-108006400D01*
X154285542Y-108016314D01*
X154285542Y-108016314D01*
G37*
G36*
X120267023Y-106660852D02*
G01*
X120408401Y-106703738D01*
X120538691Y-106773380D01*
X120652899Y-106867107D01*
X120746618Y-106981305D01*
X120816262Y-107111598D01*
X120859148Y-107252976D01*
X120870000Y-107363159D01*
X120870000Y-107836840D01*
X120861860Y-107919478D01*
X120859147Y-107947026D01*
X120845525Y-107991931D01*
X120816262Y-108088402D01*
X120746618Y-108218695D01*
X120652896Y-108332896D01*
X120538695Y-108426618D01*
X120408402Y-108496262D01*
X120267024Y-108539148D01*
X120120000Y-108553629D01*
X119972977Y-108539148D01*
X119831599Y-108496262D01*
X119701306Y-108426618D01*
X119587107Y-108332898D01*
X119493380Y-108218692D01*
X119423738Y-108088402D01*
X119380852Y-107947024D01*
X119370000Y-107836841D01*
X119370000Y-107363160D01*
X119380852Y-107252977D01*
X119423738Y-107111599D01*
X119493380Y-106981309D01*
X119587107Y-106867101D01*
X119701305Y-106773382D01*
X119831598Y-106703738D01*
X119972976Y-106660852D01*
X120120000Y-106646371D01*
X120267023Y-106660852D01*
X120267023Y-106660852D01*
G37*
G36*
X117727023Y-106660852D02*
G01*
X117868401Y-106703738D01*
X117998691Y-106773380D01*
X118112899Y-106867107D01*
X118206618Y-106981305D01*
X118276262Y-107111598D01*
X118319148Y-107252976D01*
X118330000Y-107363159D01*
X118330000Y-107836840D01*
X118321860Y-107919478D01*
X118319147Y-107947026D01*
X118305525Y-107991931D01*
X118276262Y-108088402D01*
X118206618Y-108218695D01*
X118112896Y-108332896D01*
X117998695Y-108426618D01*
X117868402Y-108496262D01*
X117727024Y-108539148D01*
X117580000Y-108553629D01*
X117432977Y-108539148D01*
X117291599Y-108496262D01*
X117161306Y-108426618D01*
X117047107Y-108332898D01*
X116953380Y-108218692D01*
X116883738Y-108088402D01*
X116840852Y-107947024D01*
X116830000Y-107836841D01*
X116830000Y-107363160D01*
X116840852Y-107252977D01*
X116883738Y-107111599D01*
X116953380Y-106981309D01*
X117047107Y-106867101D01*
X117161305Y-106773382D01*
X117291598Y-106703738D01*
X117432976Y-106660852D01*
X117580000Y-106646371D01*
X117727023Y-106660852D01*
X117727023Y-106660852D01*
G37*
G36*
X115187023Y-106660852D02*
G01*
X115328401Y-106703738D01*
X115458691Y-106773380D01*
X115572899Y-106867107D01*
X115666618Y-106981305D01*
X115736262Y-107111598D01*
X115779148Y-107252976D01*
X115790000Y-107363159D01*
X115790000Y-107836840D01*
X115781860Y-107919478D01*
X115779147Y-107947026D01*
X115765525Y-107991931D01*
X115736262Y-108088402D01*
X115666618Y-108218695D01*
X115572896Y-108332896D01*
X115458695Y-108426618D01*
X115328402Y-108496262D01*
X115187024Y-108539148D01*
X115040000Y-108553629D01*
X114892977Y-108539148D01*
X114751599Y-108496262D01*
X114621306Y-108426618D01*
X114507107Y-108332898D01*
X114413380Y-108218692D01*
X114343738Y-108088402D01*
X114300852Y-107947024D01*
X114290000Y-107836841D01*
X114290000Y-107363160D01*
X114300852Y-107252977D01*
X114343738Y-107111599D01*
X114413380Y-106981309D01*
X114507107Y-106867101D01*
X114621305Y-106773382D01*
X114751598Y-106703738D01*
X114892976Y-106660852D01*
X115040000Y-106646371D01*
X115187023Y-106660852D01*
X115187023Y-106660852D01*
G37*
G36*
X113250000Y-108550000D02*
G01*
X111750000Y-108550000D01*
X111750000Y-106650000D01*
X113250000Y-106650000D01*
X113250000Y-108550000D01*
X113250000Y-108550000D01*
G37*
G36*
X153343807Y-100447995D02*
G01*
X153343809Y-100447996D01*
X153343810Y-100447996D01*
X153479734Y-100504298D01*
X153807878Y-100640220D01*
X154225530Y-100919286D01*
X154580714Y-101274470D01*
X154859780Y-101692122D01*
X155052005Y-102156193D01*
X155150000Y-102648847D01*
X155150000Y-103151153D01*
X155052005Y-103643807D01*
X154859780Y-104107878D01*
X154580714Y-104525530D01*
X154225530Y-104880714D01*
X153807878Y-105159780D01*
X153650423Y-105225000D01*
X153343810Y-105352004D01*
X153343809Y-105352004D01*
X153343807Y-105352005D01*
X152851153Y-105450000D01*
X152348847Y-105450000D01*
X151856193Y-105352005D01*
X151856191Y-105352004D01*
X151856190Y-105352004D01*
X151549577Y-105225000D01*
X151392122Y-105159780D01*
X150974470Y-104880714D01*
X150619286Y-104525530D01*
X150340220Y-104107878D01*
X150147995Y-103643807D01*
X150050000Y-103151153D01*
X150050000Y-102648847D01*
X150147995Y-102156193D01*
X150340220Y-101692122D01*
X150619286Y-101274470D01*
X150974470Y-100919286D01*
X151392122Y-100640220D01*
X151720266Y-100504298D01*
X151856190Y-100447996D01*
X151856191Y-100447996D01*
X151856193Y-100447995D01*
X152348847Y-100350000D01*
X152851153Y-100350000D01*
X153343807Y-100447995D01*
X153343807Y-100447995D01*
G37*
G36*
X103643807Y-100447995D02*
G01*
X103643809Y-100447996D01*
X103643810Y-100447996D01*
X103779734Y-100504298D01*
X104107878Y-100640220D01*
X104525530Y-100919286D01*
X104880714Y-101274470D01*
X105159780Y-101692122D01*
X105352005Y-102156193D01*
X105450000Y-102648847D01*
X105450000Y-103151153D01*
X105352005Y-103643807D01*
X105159780Y-104107878D01*
X104880714Y-104525530D01*
X104525530Y-104880714D01*
X104107878Y-105159780D01*
X103950423Y-105225000D01*
X103643810Y-105352004D01*
X103643809Y-105352004D01*
X103643807Y-105352005D01*
X103151153Y-105450000D01*
X102648847Y-105450000D01*
X102156193Y-105352005D01*
X102156191Y-105352004D01*
X102156190Y-105352004D01*
X101849577Y-105225000D01*
X101692122Y-105159780D01*
X101274470Y-104880714D01*
X100919286Y-104525530D01*
X100640220Y-104107878D01*
X100447995Y-103643807D01*
X100350000Y-103151153D01*
X100350000Y-102648847D01*
X100447995Y-102156193D01*
X100640220Y-101692122D01*
X100919286Y-101274470D01*
X101274470Y-100919286D01*
X101692122Y-100640220D01*
X102020266Y-100504298D01*
X102156190Y-100447996D01*
X102156191Y-100447996D01*
X102156193Y-100447995D01*
X102648847Y-100350000D01*
X103151153Y-100350000D01*
X103643807Y-100447995D01*
X103643807Y-100447995D01*
G37*
M02*
