G04 #@! TF.GenerationSoftware,KiCad,Pcbnew,5.1.4+dfsg1-1*
G04 #@! TF.CreationDate,2020-04-28T18:39:56+04:00*
G04 #@! TF.ProjectId,RailLink,5261696c-4c69-46e6-9b2e-6b696361645f,rev?*
G04 #@! TF.SameCoordinates,Original*
G04 #@! TF.FileFunction,Copper,L4,Bot*
G04 #@! TF.FilePolarity,Positive*
%FSLAX46Y46*%
G04 Gerber Fmt 4.6, Leading zero omitted, Abs format (unit mm)*
G04 Created by KiCad (PCBNEW 5.1.4+dfsg1-1) date 2020-04-28 18:39:56*
%MOMM*%
%LPD*%
G04 APERTURE LIST*
%ADD10C,0.050000*%
%ADD11C,1.800000*%
%ADD12R,1.800000X1.800000*%
%ADD13O,1.700000X1.700000*%
%ADD14R,1.700000X1.700000*%
%ADD15C,5.000000*%
%ADD16C,0.800000*%
%ADD17O,2.100000X1.000000*%
%ADD18O,1.600000X1.000000*%
%ADD19O,1.727200X1.727200*%
%ADD20R,1.727200X1.727200*%
%ADD21R,1.400000X1.800000*%
%ADD22O,1.400000X1.800000*%
%ADD23C,0.700000*%
%ADD24C,0.600000*%
%ADD25C,1.000000*%
%ADD26C,0.200000*%
%ADD27C,0.300000*%
%ADD28C,0.350000*%
%ADD29C,0.160000*%
G04 APERTURE END LIST*
D10*
X103000000Y-128000000D02*
G75*
G02X100000000Y-125000000I0J3000000D01*
G01*
X100000000Y-103000000D02*
G75*
G02X103000000Y-100000000I3000000J0D01*
G01*
X157000000Y-100000000D02*
G75*
G02X160000000Y-103000000I0J-3000000D01*
G01*
X160000000Y-125000000D02*
G75*
G02X157000000Y-128000000I-3000000J0D01*
G01*
X157000000Y-100000000D02*
X103000000Y-100000000D01*
X160000000Y-125000000D02*
X160000000Y-103000000D01*
X103000000Y-128000000D02*
X157000000Y-128000000D01*
X100000000Y-103000000D02*
X100000000Y-125000000D01*
D11*
X139800000Y-121780000D03*
X139800000Y-119240000D03*
D12*
X139800000Y-116700000D03*
D13*
X124200000Y-126440000D03*
D14*
X124200000Y-123900000D03*
D15*
X102900000Y-102900000D03*
D16*
X104775000Y-102900000D03*
X104225825Y-104225825D03*
X102900000Y-104775000D03*
X101574175Y-104225825D03*
X101025000Y-102900000D03*
X101574175Y-101574175D03*
X102900000Y-101025000D03*
X104225825Y-101574175D03*
X104225825Y-123774175D03*
X102900000Y-123225000D03*
X101574175Y-123774175D03*
X101025000Y-125100000D03*
X101574175Y-126425825D03*
X102900000Y-126975000D03*
X104225825Y-126425825D03*
X104775000Y-125100000D03*
D15*
X102900000Y-125100000D03*
D17*
X105280000Y-118320000D03*
X105280000Y-109680000D03*
D18*
X101100000Y-109680000D03*
X101100000Y-118320000D03*
D15*
X152600000Y-125100000D03*
D16*
X154475000Y-125100000D03*
X153925825Y-126425825D03*
X152600000Y-126975000D03*
X151274175Y-126425825D03*
X150725000Y-125100000D03*
X151274175Y-123774175D03*
X152600000Y-123225000D03*
X153925825Y-123774175D03*
D19*
X154140000Y-119080000D03*
X151600000Y-119080000D03*
X154140000Y-116540000D03*
X151600000Y-116540000D03*
X154140000Y-114000000D03*
X151600000Y-114000000D03*
X154140000Y-111460000D03*
X151600000Y-111460000D03*
X154140000Y-108920000D03*
D20*
X151600000Y-108920000D03*
D16*
X153925825Y-101574175D03*
X152600000Y-101025000D03*
X151274175Y-101574175D03*
X150725000Y-102900000D03*
X151274175Y-104225825D03*
X152600000Y-104775000D03*
X153925825Y-104225825D03*
X154475000Y-102900000D03*
D15*
X152600000Y-102900000D03*
D21*
X112500000Y-107600000D03*
D22*
X115040000Y-107600000D03*
X117580000Y-107600000D03*
X120120000Y-107600000D03*
D13*
X120400000Y-126480000D03*
X120400000Y-123940000D03*
D14*
X120400000Y-121400000D03*
D23*
X106700000Y-106500000D03*
X109700000Y-106500000D03*
X108200000Y-106500000D03*
X106900000Y-101400000D03*
X109500000Y-101400000D03*
X108200000Y-101400000D03*
X107800000Y-110800000D03*
D24*
X109900000Y-122400000D03*
X111700000Y-120000000D03*
D23*
X108800000Y-112400000D03*
D24*
X108900000Y-114300000D03*
X108900000Y-115300000D03*
D23*
X109800000Y-112100000D03*
D24*
X109600000Y-118900000D03*
D23*
X108800000Y-109800000D03*
X101000000Y-119800000D03*
X101000000Y-121600000D03*
X102600000Y-121600000D03*
X107800000Y-118900000D03*
X107800000Y-117300000D03*
X106000000Y-119800000D03*
X101000000Y-107800000D03*
X101000000Y-106800000D03*
X113900000Y-101400000D03*
X107800000Y-111800000D03*
X109800000Y-109400000D03*
D24*
X107700000Y-122200000D03*
D23*
X107700000Y-116300000D03*
X113900000Y-102700000D03*
D24*
X141700000Y-124400000D03*
X143200000Y-114500000D03*
X146400000Y-107700000D03*
X146000000Y-111900000D03*
X134500000Y-113000000D03*
X133000000Y-122300000D03*
X134300000Y-106800000D03*
X130800000Y-105700000D03*
X140800000Y-115000000D03*
X132400000Y-102700000D03*
X143600000Y-110800000D03*
D23*
X126000000Y-101900000D03*
X126600000Y-102500000D03*
X127700000Y-102500000D03*
D24*
X144200000Y-106900000D03*
X138200000Y-114800000D03*
X124900000Y-121500000D03*
D23*
X122800000Y-112000000D03*
X126200000Y-106600000D03*
D24*
X124200000Y-106500000D03*
X124500000Y-104600000D03*
X122200000Y-104600000D03*
X123500000Y-108800000D03*
X122100000Y-107800000D03*
X142900000Y-118800000D03*
D23*
X117200000Y-101400000D03*
X118500000Y-102700000D03*
X117200000Y-102700000D03*
X122000000Y-121400000D03*
X120900000Y-119900000D03*
D24*
X133100000Y-118900000D03*
D23*
X132300000Y-113400000D03*
X132800000Y-112000000D03*
D24*
X129900000Y-107600000D03*
X125900000Y-126700000D03*
X141100000Y-103400000D03*
X146800000Y-101900000D03*
X146600000Y-105100000D03*
X143200000Y-126500000D03*
X146300000Y-114700000D03*
X142000000Y-122600000D03*
X141800000Y-120200000D03*
X140300000Y-109600000D03*
X146900000Y-122700000D03*
X137800000Y-121700000D03*
X138300000Y-118700000D03*
X146100000Y-119100000D03*
X147300000Y-118200000D03*
X149500000Y-119000000D03*
X142600000Y-103700000D03*
X143900000Y-118000000D03*
X154500000Y-106300000D03*
X142800000Y-101300000D03*
X135400000Y-127100000D03*
D25*
X122000000Y-108900000D03*
D23*
X119800000Y-102700000D03*
X120900000Y-101400000D03*
X120900000Y-102700000D03*
D24*
X127600000Y-123100000D03*
X135900000Y-103300000D03*
X129900000Y-104900020D03*
X132500000Y-105300000D03*
X143800000Y-112600000D03*
X144300000Y-109000000D03*
X132600000Y-107600000D03*
X135100000Y-112400000D03*
X144200000Y-105600000D03*
D23*
X128400000Y-105200000D03*
X128400000Y-106200000D03*
D24*
X124200000Y-119700000D03*
X127900000Y-107600000D03*
X135600000Y-122600000D03*
X136500000Y-119900000D03*
X144300000Y-116100000D03*
X144300000Y-120700000D03*
X143900000Y-123500000D03*
X137200000Y-105200000D03*
X148100000Y-103300000D03*
X149000000Y-103300000D03*
X144300000Y-107700000D03*
X144200000Y-104000000D03*
X128700000Y-123900000D03*
X137200000Y-102600000D03*
X144300000Y-111100000D03*
X144300000Y-115000000D03*
X144300000Y-119500000D03*
X145000000Y-123000000D03*
X139800000Y-108800000D03*
X104400000Y-120500000D03*
X104882843Y-114382843D03*
X104800000Y-113000000D03*
X103600000Y-120500000D03*
X104317157Y-113817157D03*
X126900000Y-126400000D03*
X139100000Y-127300000D03*
X148700000Y-127300000D03*
X151000000Y-121000000D03*
X150100000Y-106900000D03*
X150100000Y-110200000D03*
X150100000Y-114700000D03*
X147900000Y-126900000D03*
X149100000Y-113100000D03*
X149100000Y-109300000D03*
X150100000Y-116300000D03*
X150100000Y-115500000D03*
X150100000Y-111600000D03*
X136000000Y-125000000D03*
X146900000Y-121600000D03*
X111200000Y-122700000D03*
X110000000Y-117440000D03*
X111200000Y-121700000D03*
X110000000Y-116640000D03*
X131300000Y-123900000D03*
X135900000Y-104200000D03*
X131800000Y-119200000D03*
X130300000Y-123400000D03*
X127100000Y-124800000D03*
X132100000Y-123900000D03*
X132100000Y-122200000D03*
X126600000Y-116100000D03*
X139800000Y-105000000D03*
X126600000Y-114300000D03*
X138000000Y-106300000D03*
X127900000Y-110500000D03*
X137900000Y-108900000D03*
X131800000Y-111000000D03*
X137900000Y-108100000D03*
X125100000Y-110100000D03*
X137000000Y-106400000D03*
X137900000Y-124200000D03*
X133800000Y-115100000D03*
X128900000Y-110500000D03*
X135200000Y-119600000D03*
X138000000Y-125800000D03*
X144700000Y-121600000D03*
X133000000Y-123900000D03*
X129900000Y-112600000D03*
X131200000Y-112600000D03*
X144800000Y-109800000D03*
X147300000Y-109300000D03*
X144900000Y-106300000D03*
X146400000Y-112600000D03*
X147300000Y-117100000D03*
X144400000Y-125600000D03*
X126600000Y-115100000D03*
D23*
X136100000Y-105200000D03*
D24*
X123700000Y-114700000D03*
X141800000Y-109500000D03*
X136400000Y-107700000D03*
X137700000Y-109700000D03*
X129800000Y-106000000D03*
X138900000Y-104000000D03*
X129700000Y-119100000D03*
X129700000Y-122600000D03*
X143900000Y-109800000D03*
X131200000Y-110500000D03*
X144400000Y-113800000D03*
X134100000Y-111800000D03*
X136900000Y-110500000D03*
X144100000Y-126400000D03*
X135200000Y-114100000D03*
X137900000Y-117900000D03*
X141400000Y-123600000D03*
X152700000Y-107000000D03*
X126900000Y-122300000D03*
X151800000Y-121600000D03*
D26*
X132100020Y-104900020D02*
X130324264Y-104900020D01*
X130324264Y-104900020D02*
X129900000Y-104900020D01*
X132500000Y-105300000D02*
X132100020Y-104900020D01*
D27*
X141400000Y-116000000D02*
X141400000Y-116500000D01*
X141200000Y-116700000D02*
X139800000Y-116700000D01*
X141400000Y-116500000D02*
X141200000Y-116700000D01*
D26*
X144200000Y-114400000D02*
X144700000Y-114400000D01*
X143700000Y-113900000D02*
X144200000Y-114400000D01*
X142100000Y-113900000D02*
X143700000Y-113900000D01*
X141400000Y-114600000D02*
X142100000Y-113900000D01*
X141400000Y-116000000D02*
X141400000Y-114600000D01*
X144700000Y-114400000D02*
X145000000Y-114100000D01*
X145000000Y-114100000D02*
X145000000Y-112500000D01*
X145000000Y-112500000D02*
X144400000Y-111900000D01*
X144400000Y-111900000D02*
X140400000Y-111900000D01*
X139500000Y-109100000D02*
X139800000Y-108800000D01*
X140400000Y-111900000D02*
X139500000Y-111000000D01*
X139500000Y-111000000D02*
X139500000Y-109100000D01*
D28*
X104275000Y-120375000D02*
X104275000Y-119986090D01*
X104400000Y-120500000D02*
X104275000Y-120375000D01*
X104275000Y-119986090D02*
X103275000Y-118986090D01*
X104706066Y-114382843D02*
X104882843Y-114382843D01*
X103275000Y-118986090D02*
X103275000Y-115813909D01*
X103275000Y-115813909D02*
X104706066Y-114382843D01*
D26*
X104882843Y-114382843D02*
X104917157Y-114382843D01*
X104917157Y-114382843D02*
X105100000Y-114200000D01*
X105100000Y-114200000D02*
X105100000Y-113300000D01*
X105100000Y-113300000D02*
X104800000Y-113000000D01*
D28*
X103600000Y-120500000D02*
X103725000Y-120375000D01*
X103725000Y-120375000D02*
X103725000Y-120213910D01*
X103725000Y-120213910D02*
X102725000Y-119213910D01*
X102725000Y-119213910D02*
X102725000Y-115586091D01*
X102725000Y-115586091D02*
X104317157Y-113993934D01*
X104317157Y-113993934D02*
X104317157Y-113817157D01*
D26*
X126900000Y-126400000D02*
X136300000Y-126400000D01*
X136300000Y-126400000D02*
X137200000Y-127300000D01*
X137200000Y-127300000D02*
X139100000Y-127300000D01*
X148700000Y-124700000D02*
X148700000Y-127300000D01*
X151000000Y-122400000D02*
X148700000Y-124700000D01*
X151000000Y-121000000D02*
X151000000Y-122400000D01*
X150100000Y-110200000D02*
X150100000Y-106900000D01*
X149460010Y-110839990D02*
X149460010Y-112560010D01*
X150100000Y-110200000D02*
X149460010Y-110839990D01*
X150100000Y-113200000D02*
X150100000Y-114700000D01*
X149460010Y-112560010D02*
X150100000Y-113200000D01*
D27*
X152900000Y-115240000D02*
X154140000Y-114000000D01*
X152900000Y-115400000D02*
X152900000Y-115240000D01*
D26*
X148000000Y-126800000D02*
X148000000Y-122900000D01*
X152900000Y-119700000D02*
X152900000Y-115400000D01*
X152300000Y-120300000D02*
X152900000Y-119700000D01*
X147900000Y-126900000D02*
X148000000Y-126800000D01*
X150600000Y-120300000D02*
X152300000Y-120300000D01*
X148000000Y-122900000D02*
X150600000Y-120300000D01*
X149100000Y-113100000D02*
X149100000Y-109300000D01*
X149100000Y-115600000D02*
X149100000Y-113100000D01*
X150100000Y-116300000D02*
X149800000Y-116300000D01*
X149800000Y-116300000D02*
X149100000Y-115600000D01*
D27*
X154140000Y-108920000D02*
X154080000Y-108920000D01*
X154080000Y-108920000D02*
X153000000Y-110000000D01*
D26*
X153000000Y-112700000D02*
X153000000Y-110000000D01*
X153000000Y-114400000D02*
X153000000Y-112700000D01*
X152100000Y-115300000D02*
X153000000Y-114400000D01*
X150100000Y-115500000D02*
X150300000Y-115300000D01*
X150300000Y-115300000D02*
X152100000Y-115300000D01*
X150600000Y-112700000D02*
X153000000Y-112700000D01*
X150100000Y-111600000D02*
X150100000Y-112200000D01*
X150100000Y-112200000D02*
X150600000Y-112700000D01*
X137400000Y-125400000D02*
X137000000Y-125000000D01*
X137400000Y-126100000D02*
X137400000Y-125400000D01*
X139300000Y-125400000D02*
X138300000Y-126400000D01*
X138300000Y-126400000D02*
X137700000Y-126400000D01*
X142300000Y-125400000D02*
X139300000Y-125400000D01*
X137700000Y-126400000D02*
X137400000Y-126100000D01*
X146200000Y-122300000D02*
X143400000Y-122300000D01*
X146800000Y-121700000D02*
X146900000Y-121600000D01*
X146900000Y-121600000D02*
X146200000Y-122300000D01*
X143400000Y-122300000D02*
X142900000Y-122800000D01*
X137000000Y-125000000D02*
X136000000Y-125000000D01*
X142900000Y-124800000D02*
X142300000Y-125400000D01*
X142900000Y-122800000D02*
X142900000Y-124800000D01*
D28*
X110225000Y-121725000D02*
X110225000Y-119386090D01*
X111200000Y-122700000D02*
X110225000Y-121725000D01*
X110225000Y-119386090D02*
X111225000Y-118386090D01*
X111225000Y-118386090D02*
X111225000Y-117813910D01*
X110726090Y-117315000D02*
X110125000Y-117315000D01*
X111225000Y-117813910D02*
X110726090Y-117315000D01*
X110125000Y-117315000D02*
X110000000Y-117440000D01*
X110977818Y-121700000D02*
X110775000Y-121497182D01*
X111200000Y-121700000D02*
X110977818Y-121700000D01*
X110775000Y-121497182D02*
X110775000Y-119613910D01*
X110775000Y-119613910D02*
X111775000Y-118613910D01*
X111775000Y-118613910D02*
X111775000Y-117586090D01*
X110125000Y-116765000D02*
X110000000Y-116640000D01*
X111775000Y-117586090D02*
X110953910Y-116765000D01*
X110953910Y-116765000D02*
X110125000Y-116765000D01*
D26*
X130600000Y-125600000D02*
X131300000Y-124900000D01*
X126700000Y-125600000D02*
X130600000Y-125600000D01*
X126400000Y-125300000D02*
X126700000Y-125600000D01*
X125700000Y-122200000D02*
X126400000Y-122900000D01*
X124500000Y-122200000D02*
X125700000Y-122200000D01*
X139100000Y-104600000D02*
X139500000Y-104200000D01*
X135900000Y-104200000D02*
X137900000Y-104200000D01*
X121900000Y-119600000D02*
X124500000Y-122200000D01*
X139500000Y-102200000D02*
X138500000Y-101200000D01*
X131300000Y-124900000D02*
X131300000Y-123900000D01*
X138300000Y-104600000D02*
X139100000Y-104600000D01*
X122900000Y-108600000D02*
X122900000Y-109500000D01*
X139500000Y-104200000D02*
X139500000Y-102200000D01*
X138500000Y-101200000D02*
X130300000Y-101200000D01*
X126400000Y-122900000D02*
X126400000Y-125300000D01*
X137900000Y-104200000D02*
X138300000Y-104600000D01*
X130300000Y-101200000D02*
X122900000Y-108600000D01*
X122900000Y-109500000D02*
X121900000Y-110500000D01*
X121900000Y-110500000D02*
X121900000Y-119600000D01*
D29*
X130300000Y-123400000D02*
X130300000Y-124500000D01*
X130300000Y-124500000D02*
X130000000Y-124800000D01*
X130000000Y-124800000D02*
X127100000Y-124800000D01*
D26*
X131800000Y-119200000D02*
X131800000Y-121000000D01*
X130300000Y-122500000D02*
X130300000Y-123400000D01*
X131800000Y-121000000D02*
X130300000Y-122500000D01*
X132100000Y-123900000D02*
X132100000Y-122200000D01*
X138200000Y-105000000D02*
X139800000Y-105000000D01*
X137400000Y-105800000D02*
X138200000Y-105000000D01*
X124500000Y-112200000D02*
X124500000Y-109900000D01*
X136400000Y-105800000D02*
X137400000Y-105800000D01*
X122700000Y-114000000D02*
X124500000Y-112200000D01*
X126600000Y-116100000D02*
X123600000Y-116100000D01*
X123600000Y-116100000D02*
X122700000Y-115200000D01*
X126160010Y-108239990D02*
X131000000Y-108239990D01*
X124500000Y-109900000D02*
X126160010Y-108239990D01*
X122700000Y-115200000D02*
X122700000Y-114000000D01*
X136200000Y-106000000D02*
X136400000Y-105800000D01*
X131000000Y-108239990D02*
X133239990Y-106000000D01*
X133239990Y-106000000D02*
X136200000Y-106000000D01*
X138000000Y-106900000D02*
X138000000Y-106300000D01*
X137800000Y-107100000D02*
X138000000Y-106900000D01*
X136200000Y-107100000D02*
X137800000Y-107100000D01*
X131870899Y-108719970D02*
X134580030Y-108719970D01*
X131590870Y-109000000D02*
X131870899Y-108719970D01*
X125790870Y-113500000D02*
X126200000Y-113090870D01*
X123800000Y-113500000D02*
X125790870Y-113500000D01*
X123400000Y-115300000D02*
X123100000Y-115000000D01*
X127200000Y-109000000D02*
X131590870Y-109000000D01*
X123900000Y-115300000D02*
X123400000Y-115300000D01*
X126600000Y-114300000D02*
X124900000Y-114300000D01*
X124900000Y-114300000D02*
X123900000Y-115300000D01*
X123100000Y-115000000D02*
X123100000Y-114200000D01*
X123100000Y-114200000D02*
X123800000Y-113500000D01*
X126200000Y-113090870D02*
X126200000Y-110000000D01*
X126200000Y-110000000D02*
X127200000Y-109000000D01*
X134580030Y-108719970D02*
X136200000Y-107100000D01*
X129000000Y-111600000D02*
X127900000Y-110500000D01*
X132100000Y-111600000D02*
X129000000Y-111600000D01*
X133500000Y-110200000D02*
X132100000Y-111600000D01*
X133500000Y-110200000D02*
X135918260Y-110200000D01*
X137218260Y-108900000D02*
X137900000Y-108900000D01*
X135918260Y-110200000D02*
X137218260Y-108900000D01*
X133000000Y-109800000D02*
X135809130Y-109800000D01*
X131800000Y-111000000D02*
X133000000Y-109800000D01*
X137509130Y-108100000D02*
X137900000Y-108100000D01*
X135809130Y-109800000D02*
X137509130Y-108100000D01*
X136300000Y-106400000D02*
X137000000Y-106400000D01*
X126600000Y-108600000D02*
X131481739Y-108600000D01*
X125100000Y-110100000D02*
X126600000Y-108600000D01*
X131481739Y-108600000D02*
X131721778Y-108359960D01*
X131721778Y-108359960D02*
X134340040Y-108359960D01*
X134340040Y-108359960D02*
X136300000Y-106400000D01*
X133100000Y-113300000D02*
X133100000Y-114400000D01*
X133100000Y-114400000D02*
X133800000Y-115100000D01*
X128300000Y-112000000D02*
X131800000Y-112000000D01*
X128300000Y-109900000D02*
X127500000Y-109900000D01*
X128900000Y-110500000D02*
X128300000Y-109900000D01*
X131800000Y-112000000D02*
X133100000Y-113300000D01*
X127200000Y-110200000D02*
X127200000Y-110900000D01*
X127500000Y-109900000D02*
X127200000Y-110200000D01*
X127200000Y-110900000D02*
X128300000Y-112000000D01*
X135200000Y-121100000D02*
X135200000Y-119600000D01*
X137900000Y-124200000D02*
X137900000Y-123800000D01*
X137900000Y-123800000D02*
X135200000Y-121100000D01*
X141500000Y-121600000D02*
X144700000Y-121600000D01*
X138500000Y-125300000D02*
X138500000Y-121100000D01*
X138000000Y-125800000D02*
X138500000Y-125300000D01*
X138500000Y-121100000D02*
X139100000Y-120500000D01*
X139100000Y-120500000D02*
X140400000Y-120500000D01*
X140400000Y-120500000D02*
X141500000Y-121600000D01*
X133000000Y-123900000D02*
X133000000Y-123400000D01*
X133000000Y-123400000D02*
X133800000Y-122600000D01*
X131200000Y-112600000D02*
X129900000Y-112600000D01*
X133800000Y-122600000D02*
X133800000Y-116300000D01*
X131200000Y-113700000D02*
X131200000Y-112600000D01*
X133800000Y-116300000D02*
X131200000Y-113700000D01*
X146800000Y-109800000D02*
X147300000Y-109300000D01*
X144800000Y-109800000D02*
X146800000Y-109800000D01*
X148100000Y-107100000D02*
X147300000Y-106300000D01*
X147300000Y-106300000D02*
X144900000Y-106300000D01*
X148100000Y-110900000D02*
X148100000Y-107100000D01*
X146400000Y-112600000D02*
X148100000Y-110900000D01*
X147400000Y-117200000D02*
X147300000Y-117100000D01*
X147900000Y-117700000D02*
X147300000Y-117100000D01*
X146100000Y-125600000D02*
X147600000Y-124100000D01*
X147600000Y-124100000D02*
X147600000Y-118900000D01*
X147600000Y-118900000D02*
X147900000Y-118600000D01*
X144400000Y-125600000D02*
X146100000Y-125600000D01*
X147900000Y-118600000D02*
X147900000Y-117700000D01*
X123490870Y-116500000D02*
X126000000Y-116500000D01*
X122300000Y-115309130D02*
X123490870Y-116500000D01*
X127000000Y-115100000D02*
X126600000Y-115100000D01*
X122300000Y-113890870D02*
X122300000Y-115309130D01*
X124139991Y-112050879D02*
X122300000Y-113890870D01*
X136100000Y-105200000D02*
X135700000Y-105600000D01*
X127300000Y-116500000D02*
X127300000Y-115400000D01*
X124139991Y-109562811D02*
X124139991Y-112050879D01*
X135700000Y-105600000D02*
X133130860Y-105600000D01*
X131730860Y-107000000D02*
X126702802Y-107000000D01*
X133130860Y-105600000D02*
X131730860Y-107000000D01*
X126000000Y-116500000D02*
X126300000Y-116800000D01*
X126300000Y-116800000D02*
X127000000Y-116800000D01*
X127000000Y-116800000D02*
X127300000Y-116500000D01*
X127300000Y-115400000D02*
X127000000Y-115100000D01*
X126702802Y-107000000D02*
X124139991Y-109562811D01*
X125900000Y-113900000D02*
X126600000Y-113200000D01*
X127400000Y-109400000D02*
X131700000Y-109400000D01*
X135420020Y-109079980D02*
X136400000Y-108100000D01*
X136400000Y-108100000D02*
X136400000Y-107700000D01*
X124500000Y-113900000D02*
X125900000Y-113900000D01*
X126600000Y-110200000D02*
X126600000Y-113200000D01*
X126600000Y-110200000D02*
X127400000Y-109400000D01*
X131700000Y-109400000D02*
X132020020Y-109079980D01*
X132020020Y-109079980D02*
X135420020Y-109079980D01*
X123700000Y-114700000D02*
X124500000Y-113900000D01*
X141800000Y-109000000D02*
X140700000Y-107900000D01*
X138900000Y-107900000D02*
X138600000Y-108200000D01*
X141800000Y-109500000D02*
X141800000Y-109000000D01*
X140700000Y-107900000D02*
X138900000Y-107900000D01*
X138600000Y-108200000D02*
X138600000Y-109300000D01*
X138200000Y-109700000D02*
X137700000Y-109700000D01*
X138600000Y-109300000D02*
X138200000Y-109700000D01*
X130300000Y-102000000D02*
X129200000Y-103100000D01*
X138900000Y-102400000D02*
X138500000Y-102000000D01*
X138900000Y-104000000D02*
X138900000Y-102400000D01*
X138500000Y-102000000D02*
X130300000Y-102000000D01*
X129200000Y-105400000D02*
X129800000Y-106000000D01*
X129200000Y-103100000D02*
X129200000Y-105400000D01*
X129700000Y-122600000D02*
X129700000Y-119100000D01*
X140900000Y-107500000D02*
X143200000Y-109800000D01*
X135660010Y-109439990D02*
X137600000Y-107500000D01*
X131200000Y-110500000D02*
X132260010Y-109439990D01*
X137600000Y-107500000D02*
X140900000Y-107500000D01*
X132260010Y-109439990D02*
X135660010Y-109439990D01*
X143200000Y-109800000D02*
X143900000Y-109800000D01*
X134600000Y-113700000D02*
X134900000Y-113400000D01*
X134200000Y-113700000D02*
X134600000Y-113700000D01*
X133900000Y-113400000D02*
X134200000Y-113700000D01*
X133900000Y-112600000D02*
X133900000Y-113400000D01*
X134100000Y-112400000D02*
X133900000Y-112600000D01*
X134100000Y-111800000D02*
X134100000Y-112400000D01*
X144400000Y-113800000D02*
X144000000Y-113400000D01*
X134900000Y-113400000D02*
X144000000Y-113400000D01*
X133500000Y-113600000D02*
X133500000Y-111600000D01*
X134400000Y-114500000D02*
X133500000Y-113600000D01*
X134400000Y-122300000D02*
X134400000Y-114500000D01*
X135400000Y-123300000D02*
X134400000Y-122300000D01*
X143500000Y-125800000D02*
X139700000Y-125800000D01*
X136700000Y-110700000D02*
X136900000Y-110500000D01*
X144100000Y-126400000D02*
X143500000Y-125800000D01*
X139700000Y-125800000D02*
X138700000Y-126800000D01*
X133500000Y-111600000D02*
X134400000Y-110700000D01*
X138700000Y-126800000D02*
X137500000Y-126800000D01*
X134400000Y-110700000D02*
X136700000Y-110700000D01*
X137500000Y-126800000D02*
X136600000Y-125900000D01*
X136600000Y-125900000D02*
X135900000Y-125900000D01*
X135400000Y-125400000D02*
X135400000Y-123300000D01*
X135900000Y-125900000D02*
X135400000Y-125400000D01*
X137300000Y-114100000D02*
X135200000Y-114100000D01*
X137600000Y-114400000D02*
X137300000Y-114100000D01*
X137900000Y-117900000D02*
X137600000Y-117600000D01*
X137600000Y-117600000D02*
X137600000Y-114400000D01*
D27*
X139800000Y-121780000D02*
X139800000Y-122800000D01*
X140600000Y-123600000D02*
X141400000Y-123600000D01*
X139800000Y-122800000D02*
X140600000Y-123600000D01*
X151600000Y-108920000D02*
X151600000Y-107400000D01*
X151600000Y-107400000D02*
X152000000Y-107000000D01*
X152000000Y-107000000D02*
X152700000Y-107000000D01*
G36*
X109750000Y-107250000D02*
G01*
X107700000Y-107250000D01*
X107670736Y-107252882D01*
X107642597Y-107261418D01*
X107616664Y-107275280D01*
X107593934Y-107293934D01*
X107575280Y-107316664D01*
X107561418Y-107342597D01*
X107552882Y-107370736D01*
X107550000Y-107400000D01*
X107550000Y-109932096D01*
X107537480Y-109934586D01*
X107373690Y-110002430D01*
X107226283Y-110100924D01*
X107177207Y-110150000D01*
X105300000Y-110150000D01*
X105270736Y-110152882D01*
X105242597Y-110161418D01*
X105216664Y-110175280D01*
X105193934Y-110193934D01*
X105175280Y-110216664D01*
X105161418Y-110242597D01*
X105152882Y-110270736D01*
X105150000Y-110300000D01*
X105150000Y-110328592D01*
X105005228Y-110268626D01*
X104836180Y-110235000D01*
X104663820Y-110235000D01*
X104494772Y-110268626D01*
X104335532Y-110334585D01*
X104192220Y-110430343D01*
X104070343Y-110552220D01*
X103974585Y-110695532D01*
X103908626Y-110854772D01*
X103875000Y-111023820D01*
X103875000Y-111196180D01*
X103908626Y-111365228D01*
X103974585Y-111524468D01*
X104070343Y-111667780D01*
X104192220Y-111789657D01*
X104335532Y-111885415D01*
X104494772Y-111951374D01*
X104663820Y-111985000D01*
X104836180Y-111985000D01*
X105005228Y-111951374D01*
X105150000Y-111891408D01*
X105150000Y-112224941D01*
X105047936Y-112182665D01*
X104883718Y-112150000D01*
X104716282Y-112150000D01*
X104552064Y-112182665D01*
X104397374Y-112246740D01*
X104258156Y-112339762D01*
X104139762Y-112458156D01*
X104046740Y-112597374D01*
X103982665Y-112752064D01*
X103950000Y-112916282D01*
X103950000Y-113049205D01*
X103914531Y-113063897D01*
X103775313Y-113156919D01*
X103656919Y-113275313D01*
X103563897Y-113414531D01*
X103499822Y-113569221D01*
X103467157Y-113733439D01*
X103467157Y-113818629D01*
X102237523Y-115048264D01*
X102209869Y-115070959D01*
X102187173Y-115098614D01*
X102187170Y-115098617D01*
X102119269Y-115181355D01*
X102051947Y-115307304D01*
X102046144Y-115326435D01*
X102013338Y-115434586D01*
X102010492Y-115443967D01*
X101996494Y-115586091D01*
X102000001Y-115621698D01*
X102000000Y-118850000D01*
X100575000Y-118850000D01*
X100575000Y-109150000D01*
X100850000Y-109150000D01*
X100850000Y-109200000D01*
X100852882Y-109229264D01*
X100861418Y-109257403D01*
X100875280Y-109283336D01*
X100893934Y-109306066D01*
X100916664Y-109324720D01*
X100942597Y-109338582D01*
X100970736Y-109347118D01*
X101000000Y-109350000D01*
X104600000Y-109350000D01*
X104629264Y-109347118D01*
X104657403Y-109338582D01*
X104683336Y-109324720D01*
X104706066Y-109306066D01*
X104724720Y-109283336D01*
X104738582Y-109257403D01*
X104747118Y-109229264D01*
X104750000Y-109200000D01*
X104750000Y-109150000D01*
X106300000Y-109150000D01*
X106329264Y-109147118D01*
X106357403Y-109138582D01*
X106383336Y-109124720D01*
X106406066Y-109106066D01*
X106424720Y-109083336D01*
X106438582Y-109057403D01*
X106447118Y-109029264D01*
X106450000Y-109000000D01*
X106450000Y-106150000D01*
X109750000Y-106150000D01*
X109750000Y-107250000D01*
X109750000Y-107250000D01*
G37*
X109750000Y-107250000D02*
X107700000Y-107250000D01*
X107670736Y-107252882D01*
X107642597Y-107261418D01*
X107616664Y-107275280D01*
X107593934Y-107293934D01*
X107575280Y-107316664D01*
X107561418Y-107342597D01*
X107552882Y-107370736D01*
X107550000Y-107400000D01*
X107550000Y-109932096D01*
X107537480Y-109934586D01*
X107373690Y-110002430D01*
X107226283Y-110100924D01*
X107177207Y-110150000D01*
X105300000Y-110150000D01*
X105270736Y-110152882D01*
X105242597Y-110161418D01*
X105216664Y-110175280D01*
X105193934Y-110193934D01*
X105175280Y-110216664D01*
X105161418Y-110242597D01*
X105152882Y-110270736D01*
X105150000Y-110300000D01*
X105150000Y-110328592D01*
X105005228Y-110268626D01*
X104836180Y-110235000D01*
X104663820Y-110235000D01*
X104494772Y-110268626D01*
X104335532Y-110334585D01*
X104192220Y-110430343D01*
X104070343Y-110552220D01*
X103974585Y-110695532D01*
X103908626Y-110854772D01*
X103875000Y-111023820D01*
X103875000Y-111196180D01*
X103908626Y-111365228D01*
X103974585Y-111524468D01*
X104070343Y-111667780D01*
X104192220Y-111789657D01*
X104335532Y-111885415D01*
X104494772Y-111951374D01*
X104663820Y-111985000D01*
X104836180Y-111985000D01*
X105005228Y-111951374D01*
X105150000Y-111891408D01*
X105150000Y-112224941D01*
X105047936Y-112182665D01*
X104883718Y-112150000D01*
X104716282Y-112150000D01*
X104552064Y-112182665D01*
X104397374Y-112246740D01*
X104258156Y-112339762D01*
X104139762Y-112458156D01*
X104046740Y-112597374D01*
X103982665Y-112752064D01*
X103950000Y-112916282D01*
X103950000Y-113049205D01*
X103914531Y-113063897D01*
X103775313Y-113156919D01*
X103656919Y-113275313D01*
X103563897Y-113414531D01*
X103499822Y-113569221D01*
X103467157Y-113733439D01*
X103467157Y-113818629D01*
X102237523Y-115048264D01*
X102209869Y-115070959D01*
X102187173Y-115098614D01*
X102187170Y-115098617D01*
X102119269Y-115181355D01*
X102051947Y-115307304D01*
X102046144Y-115326435D01*
X102013338Y-115434586D01*
X102010492Y-115443967D01*
X101996494Y-115586091D01*
X102000001Y-115621698D01*
X102000000Y-118850000D01*
X100575000Y-118850000D01*
X100575000Y-109150000D01*
X100850000Y-109150000D01*
X100850000Y-109200000D01*
X100852882Y-109229264D01*
X100861418Y-109257403D01*
X100875280Y-109283336D01*
X100893934Y-109306066D01*
X100916664Y-109324720D01*
X100942597Y-109338582D01*
X100970736Y-109347118D01*
X101000000Y-109350000D01*
X104600000Y-109350000D01*
X104629264Y-109347118D01*
X104657403Y-109338582D01*
X104683336Y-109324720D01*
X104706066Y-109306066D01*
X104724720Y-109283336D01*
X104738582Y-109257403D01*
X104747118Y-109229264D01*
X104750000Y-109200000D01*
X104750000Y-109150000D01*
X106300000Y-109150000D01*
X106329264Y-109147118D01*
X106357403Y-109138582D01*
X106383336Y-109124720D01*
X106406066Y-109106066D01*
X106424720Y-109083336D01*
X106438582Y-109057403D01*
X106447118Y-109029264D01*
X106450000Y-109000000D01*
X106450000Y-106150000D01*
X109750000Y-106150000D01*
X109750000Y-107250000D01*
G36*
X104070343Y-117447780D02*
G01*
X104192220Y-117569657D01*
X104335532Y-117665415D01*
X104494772Y-117731374D01*
X104663820Y-117765000D01*
X104836180Y-117765000D01*
X105005228Y-117731374D01*
X105150000Y-117671408D01*
X105150000Y-117700000D01*
X105152882Y-117729264D01*
X105161418Y-117757403D01*
X105175280Y-117783336D01*
X105193934Y-117806066D01*
X105216664Y-117824720D01*
X105242597Y-117838582D01*
X105270736Y-117847118D01*
X105300000Y-117850000D01*
X107085077Y-117850000D01*
X107100924Y-117873717D01*
X107226283Y-117999076D01*
X107373690Y-118097570D01*
X107379557Y-118100000D01*
X107373690Y-118102430D01*
X107226283Y-118200924D01*
X107100924Y-118326283D01*
X107002430Y-118473690D01*
X106934586Y-118637480D01*
X106900000Y-118811358D01*
X106900000Y-118850000D01*
X104164214Y-118850000D01*
X104000000Y-118685786D01*
X104000000Y-117342504D01*
X104070343Y-117447780D01*
X104070343Y-117447780D01*
G37*
X104070343Y-117447780D02*
X104192220Y-117569657D01*
X104335532Y-117665415D01*
X104494772Y-117731374D01*
X104663820Y-117765000D01*
X104836180Y-117765000D01*
X105005228Y-117731374D01*
X105150000Y-117671408D01*
X105150000Y-117700000D01*
X105152882Y-117729264D01*
X105161418Y-117757403D01*
X105175280Y-117783336D01*
X105193934Y-117806066D01*
X105216664Y-117824720D01*
X105242597Y-117838582D01*
X105270736Y-117847118D01*
X105300000Y-117850000D01*
X107085077Y-117850000D01*
X107100924Y-117873717D01*
X107226283Y-117999076D01*
X107373690Y-118097570D01*
X107379557Y-118100000D01*
X107373690Y-118102430D01*
X107226283Y-118200924D01*
X107100924Y-118326283D01*
X107002430Y-118473690D01*
X106934586Y-118637480D01*
X106900000Y-118811358D01*
X106900000Y-118850000D01*
X104164214Y-118850000D01*
X104000000Y-118685786D01*
X104000000Y-117342504D01*
X104070343Y-117447780D01*
D26*
G36*
X120178822Y-101181233D02*
G01*
X120150000Y-101326131D01*
X120150000Y-101473869D01*
X120178822Y-101618767D01*
X120235359Y-101755258D01*
X120317437Y-101878097D01*
X120421903Y-101982563D01*
X120522830Y-102050000D01*
X120421903Y-102117437D01*
X120350000Y-102189340D01*
X120278097Y-102117437D01*
X120155258Y-102035359D01*
X120018767Y-101978822D01*
X119873869Y-101950000D01*
X119726131Y-101950000D01*
X119581233Y-101978822D01*
X119444742Y-102035359D01*
X119321903Y-102117437D01*
X119217437Y-102221903D01*
X119135359Y-102344742D01*
X119078822Y-102481233D01*
X119050000Y-102626131D01*
X119050000Y-102773869D01*
X119078822Y-102918767D01*
X119135359Y-103055258D01*
X119217437Y-103178097D01*
X119321903Y-103282563D01*
X119444742Y-103364641D01*
X119581233Y-103421178D01*
X119726131Y-103450000D01*
X119873869Y-103450000D01*
X120018767Y-103421178D01*
X120155258Y-103364641D01*
X120278097Y-103282563D01*
X120350000Y-103210660D01*
X120421903Y-103282563D01*
X120544742Y-103364641D01*
X120681233Y-103421178D01*
X120826131Y-103450000D01*
X120973869Y-103450000D01*
X121118767Y-103421178D01*
X121255258Y-103364641D01*
X121378097Y-103282563D01*
X121482563Y-103178097D01*
X121564641Y-103055258D01*
X121621178Y-102918767D01*
X121650000Y-102773869D01*
X121650000Y-102626131D01*
X121621178Y-102481233D01*
X121564641Y-102344742D01*
X121482563Y-102221903D01*
X121378097Y-102117437D01*
X121277170Y-102050000D01*
X121378097Y-101982563D01*
X121482563Y-101878097D01*
X121564641Y-101755258D01*
X121621178Y-101618767D01*
X121650000Y-101473869D01*
X121650000Y-101326131D01*
X121621178Y-101181233D01*
X121587530Y-101100000D01*
X129692893Y-101100000D01*
X122582844Y-108210051D01*
X122573717Y-108200924D01*
X122426310Y-108102430D01*
X122262520Y-108034586D01*
X122088642Y-108000000D01*
X121911358Y-108000000D01*
X121737480Y-108034586D01*
X121573690Y-108102430D01*
X121426283Y-108200924D01*
X121300924Y-108326283D01*
X121202430Y-108473690D01*
X121134586Y-108637480D01*
X121100000Y-108811358D01*
X121100000Y-108988642D01*
X121134586Y-109162520D01*
X121202430Y-109326310D01*
X121300924Y-109473717D01*
X121426283Y-109599076D01*
X121573690Y-109697570D01*
X121737480Y-109765414D01*
X121895958Y-109796937D01*
X121563824Y-110129071D01*
X121544736Y-110144736D01*
X121482254Y-110220871D01*
X121435825Y-110307734D01*
X121418814Y-110363814D01*
X121407235Y-110401983D01*
X121397581Y-110500000D01*
X121400000Y-110524560D01*
X121400001Y-119575430D01*
X121397581Y-119600000D01*
X121407235Y-119698017D01*
X121433747Y-119785415D01*
X121435826Y-119792267D01*
X121482255Y-119879129D01*
X121544737Y-119955264D01*
X121563819Y-119970924D01*
X124129079Y-122536186D01*
X124144736Y-122555264D01*
X124220871Y-122617746D01*
X124277594Y-122648065D01*
X123350000Y-122648065D01*
X123271586Y-122655788D01*
X123196186Y-122678660D01*
X123126697Y-122715803D01*
X123065789Y-122765789D01*
X123015803Y-122826697D01*
X122978660Y-122896186D01*
X122955788Y-122971586D01*
X122948065Y-123050000D01*
X122948065Y-124750000D01*
X122955788Y-124828414D01*
X122978660Y-124903814D01*
X123015803Y-124973303D01*
X123065789Y-125034211D01*
X123126697Y-125084197D01*
X123196186Y-125121340D01*
X123271586Y-125144212D01*
X123350000Y-125151935D01*
X125050000Y-125151935D01*
X125128414Y-125144212D01*
X125203814Y-125121340D01*
X125273303Y-125084197D01*
X125334211Y-125034211D01*
X125384197Y-124973303D01*
X125421340Y-124903814D01*
X125444212Y-124828414D01*
X125451935Y-124750000D01*
X125451935Y-123050000D01*
X125444212Y-122971586D01*
X125421340Y-122896186D01*
X125384197Y-122826697D01*
X125334211Y-122765789D01*
X125273303Y-122715803D01*
X125243738Y-122700000D01*
X125492895Y-122700000D01*
X125900000Y-123107107D01*
X125900001Y-125275430D01*
X125897581Y-125300000D01*
X125907235Y-125398017D01*
X125931784Y-125478942D01*
X125935826Y-125492267D01*
X125982255Y-125579129D01*
X126044737Y-125655264D01*
X126063820Y-125670925D01*
X126329071Y-125936176D01*
X126344736Y-125955264D01*
X126351546Y-125960853D01*
X126279668Y-126068426D01*
X126226901Y-126195818D01*
X126200000Y-126331056D01*
X126200000Y-126468944D01*
X126226901Y-126604182D01*
X126279668Y-126731574D01*
X126356274Y-126846224D01*
X126410050Y-126900000D01*
X125366707Y-126900000D01*
X125431913Y-126685043D01*
X125456048Y-126440000D01*
X125431913Y-126194957D01*
X125360437Y-125959331D01*
X125244366Y-125742177D01*
X125088160Y-125551840D01*
X124897823Y-125395634D01*
X124680669Y-125279563D01*
X124445043Y-125208087D01*
X124261405Y-125190000D01*
X124138595Y-125190000D01*
X123954957Y-125208087D01*
X123719331Y-125279563D01*
X123502177Y-125395634D01*
X123311840Y-125551840D01*
X123155634Y-125742177D01*
X123039563Y-125959331D01*
X122968087Y-126194957D01*
X122943952Y-126440000D01*
X122968087Y-126685043D01*
X123033293Y-126900000D01*
X121578841Y-126900000D01*
X121631913Y-126725043D01*
X121656048Y-126480000D01*
X121631913Y-126234957D01*
X121560437Y-125999331D01*
X121444366Y-125782177D01*
X121288160Y-125591840D01*
X121097823Y-125435634D01*
X120880669Y-125319563D01*
X120645043Y-125248087D01*
X120461405Y-125230000D01*
X120338595Y-125230000D01*
X120154957Y-125248087D01*
X120100000Y-125264758D01*
X120100000Y-125155242D01*
X120154957Y-125171913D01*
X120338595Y-125190000D01*
X120461405Y-125190000D01*
X120645043Y-125171913D01*
X120880669Y-125100437D01*
X121097823Y-124984366D01*
X121288160Y-124828160D01*
X121444366Y-124637823D01*
X121560437Y-124420669D01*
X121631913Y-124185043D01*
X121656048Y-123940000D01*
X121631913Y-123694957D01*
X121560437Y-123459331D01*
X121444366Y-123242177D01*
X121288160Y-123051840D01*
X121097823Y-122895634D01*
X120880669Y-122779563D01*
X120785257Y-122750620D01*
X121250000Y-122752419D01*
X121348017Y-122742765D01*
X121442267Y-122714175D01*
X121529129Y-122667746D01*
X121605264Y-122605264D01*
X121667746Y-122529129D01*
X121714175Y-122442267D01*
X121742765Y-122348017D01*
X121752419Y-122250000D01*
X121750000Y-121625000D01*
X121625000Y-121500000D01*
X120500000Y-121500000D01*
X120500000Y-121520000D01*
X120300000Y-121520000D01*
X120300000Y-121500000D01*
X120280000Y-121500000D01*
X120280000Y-121300000D01*
X120300000Y-121300000D01*
X120300000Y-120175000D01*
X120500000Y-120175000D01*
X120500000Y-121300000D01*
X121625000Y-121300000D01*
X121750000Y-121175000D01*
X121752419Y-120550000D01*
X121742765Y-120451983D01*
X121714175Y-120357733D01*
X121667746Y-120270871D01*
X121605264Y-120194736D01*
X121529129Y-120132254D01*
X121442267Y-120085825D01*
X121348017Y-120057235D01*
X121250000Y-120047581D01*
X120625000Y-120050000D01*
X120500000Y-120175000D01*
X120300000Y-120175000D01*
X120175000Y-120050000D01*
X120100000Y-120049710D01*
X120100000Y-108903352D01*
X120120000Y-108905322D01*
X120335638Y-108884084D01*
X120542988Y-108821184D01*
X120734084Y-108719042D01*
X120901581Y-108581581D01*
X121039042Y-108414084D01*
X121141184Y-108222987D01*
X121204084Y-108015637D01*
X121220000Y-107854035D01*
X121220000Y-107345964D01*
X121204084Y-107184362D01*
X121141184Y-106977012D01*
X121039042Y-106785916D01*
X120901581Y-106618419D01*
X120734084Y-106480958D01*
X120542987Y-106378816D01*
X120335637Y-106315916D01*
X120120000Y-106294678D01*
X119904362Y-106315916D01*
X119697012Y-106378816D01*
X119505916Y-106480958D01*
X119338419Y-106618419D01*
X119200958Y-106785916D01*
X119098816Y-106977013D01*
X119035916Y-107184363D01*
X119020000Y-107345965D01*
X119020000Y-107854036D01*
X119035916Y-108015638D01*
X119098816Y-108222988D01*
X119193431Y-108400000D01*
X117100000Y-108400000D01*
X117100000Y-105700000D01*
X117600000Y-105700000D01*
X117619509Y-105698079D01*
X117638268Y-105692388D01*
X117655557Y-105683147D01*
X117670711Y-105670711D01*
X117683147Y-105655557D01*
X117692388Y-105638268D01*
X117698079Y-105619509D01*
X117700000Y-105600000D01*
X117700000Y-103100000D01*
X117698079Y-103080491D01*
X117692388Y-103061732D01*
X117683147Y-103044443D01*
X117670711Y-103029289D01*
X117655557Y-103016853D01*
X117638268Y-103007612D01*
X117619509Y-103001921D01*
X117600000Y-103000000D01*
X116900000Y-103000000D01*
X116900000Y-101100000D01*
X120212470Y-101100000D01*
X120178822Y-101181233D01*
X120178822Y-101181233D01*
G37*
X120178822Y-101181233D02*
X120150000Y-101326131D01*
X120150000Y-101473869D01*
X120178822Y-101618767D01*
X120235359Y-101755258D01*
X120317437Y-101878097D01*
X120421903Y-101982563D01*
X120522830Y-102050000D01*
X120421903Y-102117437D01*
X120350000Y-102189340D01*
X120278097Y-102117437D01*
X120155258Y-102035359D01*
X120018767Y-101978822D01*
X119873869Y-101950000D01*
X119726131Y-101950000D01*
X119581233Y-101978822D01*
X119444742Y-102035359D01*
X119321903Y-102117437D01*
X119217437Y-102221903D01*
X119135359Y-102344742D01*
X119078822Y-102481233D01*
X119050000Y-102626131D01*
X119050000Y-102773869D01*
X119078822Y-102918767D01*
X119135359Y-103055258D01*
X119217437Y-103178097D01*
X119321903Y-103282563D01*
X119444742Y-103364641D01*
X119581233Y-103421178D01*
X119726131Y-103450000D01*
X119873869Y-103450000D01*
X120018767Y-103421178D01*
X120155258Y-103364641D01*
X120278097Y-103282563D01*
X120350000Y-103210660D01*
X120421903Y-103282563D01*
X120544742Y-103364641D01*
X120681233Y-103421178D01*
X120826131Y-103450000D01*
X120973869Y-103450000D01*
X121118767Y-103421178D01*
X121255258Y-103364641D01*
X121378097Y-103282563D01*
X121482563Y-103178097D01*
X121564641Y-103055258D01*
X121621178Y-102918767D01*
X121650000Y-102773869D01*
X121650000Y-102626131D01*
X121621178Y-102481233D01*
X121564641Y-102344742D01*
X121482563Y-102221903D01*
X121378097Y-102117437D01*
X121277170Y-102050000D01*
X121378097Y-101982563D01*
X121482563Y-101878097D01*
X121564641Y-101755258D01*
X121621178Y-101618767D01*
X121650000Y-101473869D01*
X121650000Y-101326131D01*
X121621178Y-101181233D01*
X121587530Y-101100000D01*
X129692893Y-101100000D01*
X122582844Y-108210051D01*
X122573717Y-108200924D01*
X122426310Y-108102430D01*
X122262520Y-108034586D01*
X122088642Y-108000000D01*
X121911358Y-108000000D01*
X121737480Y-108034586D01*
X121573690Y-108102430D01*
X121426283Y-108200924D01*
X121300924Y-108326283D01*
X121202430Y-108473690D01*
X121134586Y-108637480D01*
X121100000Y-108811358D01*
X121100000Y-108988642D01*
X121134586Y-109162520D01*
X121202430Y-109326310D01*
X121300924Y-109473717D01*
X121426283Y-109599076D01*
X121573690Y-109697570D01*
X121737480Y-109765414D01*
X121895958Y-109796937D01*
X121563824Y-110129071D01*
X121544736Y-110144736D01*
X121482254Y-110220871D01*
X121435825Y-110307734D01*
X121418814Y-110363814D01*
X121407235Y-110401983D01*
X121397581Y-110500000D01*
X121400000Y-110524560D01*
X121400001Y-119575430D01*
X121397581Y-119600000D01*
X121407235Y-119698017D01*
X121433747Y-119785415D01*
X121435826Y-119792267D01*
X121482255Y-119879129D01*
X121544737Y-119955264D01*
X121563819Y-119970924D01*
X124129079Y-122536186D01*
X124144736Y-122555264D01*
X124220871Y-122617746D01*
X124277594Y-122648065D01*
X123350000Y-122648065D01*
X123271586Y-122655788D01*
X123196186Y-122678660D01*
X123126697Y-122715803D01*
X123065789Y-122765789D01*
X123015803Y-122826697D01*
X122978660Y-122896186D01*
X122955788Y-122971586D01*
X122948065Y-123050000D01*
X122948065Y-124750000D01*
X122955788Y-124828414D01*
X122978660Y-124903814D01*
X123015803Y-124973303D01*
X123065789Y-125034211D01*
X123126697Y-125084197D01*
X123196186Y-125121340D01*
X123271586Y-125144212D01*
X123350000Y-125151935D01*
X125050000Y-125151935D01*
X125128414Y-125144212D01*
X125203814Y-125121340D01*
X125273303Y-125084197D01*
X125334211Y-125034211D01*
X125384197Y-124973303D01*
X125421340Y-124903814D01*
X125444212Y-124828414D01*
X125451935Y-124750000D01*
X125451935Y-123050000D01*
X125444212Y-122971586D01*
X125421340Y-122896186D01*
X125384197Y-122826697D01*
X125334211Y-122765789D01*
X125273303Y-122715803D01*
X125243738Y-122700000D01*
X125492895Y-122700000D01*
X125900000Y-123107107D01*
X125900001Y-125275430D01*
X125897581Y-125300000D01*
X125907235Y-125398017D01*
X125931784Y-125478942D01*
X125935826Y-125492267D01*
X125982255Y-125579129D01*
X126044737Y-125655264D01*
X126063820Y-125670925D01*
X126329071Y-125936176D01*
X126344736Y-125955264D01*
X126351546Y-125960853D01*
X126279668Y-126068426D01*
X126226901Y-126195818D01*
X126200000Y-126331056D01*
X126200000Y-126468944D01*
X126226901Y-126604182D01*
X126279668Y-126731574D01*
X126356274Y-126846224D01*
X126410050Y-126900000D01*
X125366707Y-126900000D01*
X125431913Y-126685043D01*
X125456048Y-126440000D01*
X125431913Y-126194957D01*
X125360437Y-125959331D01*
X125244366Y-125742177D01*
X125088160Y-125551840D01*
X124897823Y-125395634D01*
X124680669Y-125279563D01*
X124445043Y-125208087D01*
X124261405Y-125190000D01*
X124138595Y-125190000D01*
X123954957Y-125208087D01*
X123719331Y-125279563D01*
X123502177Y-125395634D01*
X123311840Y-125551840D01*
X123155634Y-125742177D01*
X123039563Y-125959331D01*
X122968087Y-126194957D01*
X122943952Y-126440000D01*
X122968087Y-126685043D01*
X123033293Y-126900000D01*
X121578841Y-126900000D01*
X121631913Y-126725043D01*
X121656048Y-126480000D01*
X121631913Y-126234957D01*
X121560437Y-125999331D01*
X121444366Y-125782177D01*
X121288160Y-125591840D01*
X121097823Y-125435634D01*
X120880669Y-125319563D01*
X120645043Y-125248087D01*
X120461405Y-125230000D01*
X120338595Y-125230000D01*
X120154957Y-125248087D01*
X120100000Y-125264758D01*
X120100000Y-125155242D01*
X120154957Y-125171913D01*
X120338595Y-125190000D01*
X120461405Y-125190000D01*
X120645043Y-125171913D01*
X120880669Y-125100437D01*
X121097823Y-124984366D01*
X121288160Y-124828160D01*
X121444366Y-124637823D01*
X121560437Y-124420669D01*
X121631913Y-124185043D01*
X121656048Y-123940000D01*
X121631913Y-123694957D01*
X121560437Y-123459331D01*
X121444366Y-123242177D01*
X121288160Y-123051840D01*
X121097823Y-122895634D01*
X120880669Y-122779563D01*
X120785257Y-122750620D01*
X121250000Y-122752419D01*
X121348017Y-122742765D01*
X121442267Y-122714175D01*
X121529129Y-122667746D01*
X121605264Y-122605264D01*
X121667746Y-122529129D01*
X121714175Y-122442267D01*
X121742765Y-122348017D01*
X121752419Y-122250000D01*
X121750000Y-121625000D01*
X121625000Y-121500000D01*
X120500000Y-121500000D01*
X120500000Y-121520000D01*
X120300000Y-121520000D01*
X120300000Y-121500000D01*
X120280000Y-121500000D01*
X120280000Y-121300000D01*
X120300000Y-121300000D01*
X120300000Y-120175000D01*
X120500000Y-120175000D01*
X120500000Y-121300000D01*
X121625000Y-121300000D01*
X121750000Y-121175000D01*
X121752419Y-120550000D01*
X121742765Y-120451983D01*
X121714175Y-120357733D01*
X121667746Y-120270871D01*
X121605264Y-120194736D01*
X121529129Y-120132254D01*
X121442267Y-120085825D01*
X121348017Y-120057235D01*
X121250000Y-120047581D01*
X120625000Y-120050000D01*
X120500000Y-120175000D01*
X120300000Y-120175000D01*
X120175000Y-120050000D01*
X120100000Y-120049710D01*
X120100000Y-108903352D01*
X120120000Y-108905322D01*
X120335638Y-108884084D01*
X120542988Y-108821184D01*
X120734084Y-108719042D01*
X120901581Y-108581581D01*
X121039042Y-108414084D01*
X121141184Y-108222987D01*
X121204084Y-108015637D01*
X121220000Y-107854035D01*
X121220000Y-107345964D01*
X121204084Y-107184362D01*
X121141184Y-106977012D01*
X121039042Y-106785916D01*
X120901581Y-106618419D01*
X120734084Y-106480958D01*
X120542987Y-106378816D01*
X120335637Y-106315916D01*
X120120000Y-106294678D01*
X119904362Y-106315916D01*
X119697012Y-106378816D01*
X119505916Y-106480958D01*
X119338419Y-106618419D01*
X119200958Y-106785916D01*
X119098816Y-106977013D01*
X119035916Y-107184363D01*
X119020000Y-107345965D01*
X119020000Y-107854036D01*
X119035916Y-108015638D01*
X119098816Y-108222988D01*
X119193431Y-108400000D01*
X117100000Y-108400000D01*
X117100000Y-105700000D01*
X117600000Y-105700000D01*
X117619509Y-105698079D01*
X117638268Y-105692388D01*
X117655557Y-105683147D01*
X117670711Y-105670711D01*
X117683147Y-105655557D01*
X117692388Y-105638268D01*
X117698079Y-105619509D01*
X117700000Y-105600000D01*
X117700000Y-103100000D01*
X117698079Y-103080491D01*
X117692388Y-103061732D01*
X117683147Y-103044443D01*
X117670711Y-103029289D01*
X117655557Y-103016853D01*
X117638268Y-103007612D01*
X117619509Y-103001921D01*
X117600000Y-103000000D01*
X116900000Y-103000000D01*
X116900000Y-101100000D01*
X120212470Y-101100000D01*
X120178822Y-101181233D01*
G36*
X143400000Y-126407105D02*
G01*
X143400000Y-126468944D01*
X143426901Y-126604182D01*
X143479668Y-126731574D01*
X143556274Y-126846224D01*
X143610050Y-126900000D01*
X139674612Y-126900000D01*
X139643726Y-126853776D01*
X139546224Y-126756274D01*
X139489040Y-126718065D01*
X139907107Y-126300000D01*
X143292895Y-126300000D01*
X143400000Y-126407105D01*
X143400000Y-126407105D01*
G37*
X143400000Y-126407105D02*
X143400000Y-126468944D01*
X143426901Y-126604182D01*
X143479668Y-126731574D01*
X143556274Y-126846224D01*
X143610050Y-126900000D01*
X139674612Y-126900000D01*
X139643726Y-126853776D01*
X139546224Y-126756274D01*
X139489040Y-126718065D01*
X139907107Y-126300000D01*
X143292895Y-126300000D01*
X143400000Y-126407105D01*
G36*
X147100000Y-123892893D02*
G01*
X145892895Y-125100000D01*
X144889950Y-125100000D01*
X144846224Y-125056274D01*
X144731574Y-124979668D01*
X144604182Y-124926901D01*
X144468944Y-124900000D01*
X144331056Y-124900000D01*
X144195818Y-124926901D01*
X144068426Y-124979668D01*
X143953776Y-125056274D01*
X143856274Y-125153776D01*
X143779668Y-125268426D01*
X143740968Y-125361856D01*
X143692267Y-125335825D01*
X143598017Y-125307235D01*
X143524560Y-125300000D01*
X143500000Y-125297581D01*
X143475440Y-125300000D01*
X143107106Y-125300000D01*
X143236181Y-125170925D01*
X143255264Y-125155264D01*
X143317746Y-125079129D01*
X143364175Y-124992267D01*
X143392765Y-124898017D01*
X143400000Y-124824560D01*
X143400000Y-124824559D01*
X143402419Y-124800001D01*
X143400000Y-124775443D01*
X143400000Y-123989950D01*
X143453776Y-124043726D01*
X143568426Y-124120332D01*
X143695818Y-124173099D01*
X143831056Y-124200000D01*
X143968944Y-124200000D01*
X144104182Y-124173099D01*
X144231574Y-124120332D01*
X144346224Y-124043726D01*
X144443726Y-123946224D01*
X144520332Y-123831574D01*
X144573099Y-123704182D01*
X144599005Y-123573947D01*
X144668426Y-123620332D01*
X144795818Y-123673099D01*
X144931056Y-123700000D01*
X145068944Y-123700000D01*
X145204182Y-123673099D01*
X145331574Y-123620332D01*
X145446224Y-123543726D01*
X145543726Y-123446224D01*
X145620332Y-123331574D01*
X145673099Y-123204182D01*
X145700000Y-123068944D01*
X145700000Y-122931056D01*
X145673931Y-122800000D01*
X146175440Y-122800000D01*
X146200000Y-122802419D01*
X146224560Y-122800000D01*
X146298017Y-122792765D01*
X146392267Y-122764175D01*
X146479129Y-122717746D01*
X146555264Y-122655264D01*
X146570929Y-122636176D01*
X146907106Y-122300000D01*
X146968944Y-122300000D01*
X147100000Y-122273931D01*
X147100000Y-123892893D01*
X147100000Y-123892893D01*
G37*
X147100000Y-123892893D02*
X145892895Y-125100000D01*
X144889950Y-125100000D01*
X144846224Y-125056274D01*
X144731574Y-124979668D01*
X144604182Y-124926901D01*
X144468944Y-124900000D01*
X144331056Y-124900000D01*
X144195818Y-124926901D01*
X144068426Y-124979668D01*
X143953776Y-125056274D01*
X143856274Y-125153776D01*
X143779668Y-125268426D01*
X143740968Y-125361856D01*
X143692267Y-125335825D01*
X143598017Y-125307235D01*
X143524560Y-125300000D01*
X143500000Y-125297581D01*
X143475440Y-125300000D01*
X143107106Y-125300000D01*
X143236181Y-125170925D01*
X143255264Y-125155264D01*
X143317746Y-125079129D01*
X143364175Y-124992267D01*
X143392765Y-124898017D01*
X143400000Y-124824560D01*
X143400000Y-124824559D01*
X143402419Y-124800001D01*
X143400000Y-124775443D01*
X143400000Y-123989950D01*
X143453776Y-124043726D01*
X143568426Y-124120332D01*
X143695818Y-124173099D01*
X143831056Y-124200000D01*
X143968944Y-124200000D01*
X144104182Y-124173099D01*
X144231574Y-124120332D01*
X144346224Y-124043726D01*
X144443726Y-123946224D01*
X144520332Y-123831574D01*
X144573099Y-123704182D01*
X144599005Y-123573947D01*
X144668426Y-123620332D01*
X144795818Y-123673099D01*
X144931056Y-123700000D01*
X145068944Y-123700000D01*
X145204182Y-123673099D01*
X145331574Y-123620332D01*
X145446224Y-123543726D01*
X145543726Y-123446224D01*
X145620332Y-123331574D01*
X145673099Y-123204182D01*
X145700000Y-123068944D01*
X145700000Y-122931056D01*
X145673931Y-122800000D01*
X146175440Y-122800000D01*
X146200000Y-122802419D01*
X146224560Y-122800000D01*
X146298017Y-122792765D01*
X146392267Y-122764175D01*
X146479129Y-122717746D01*
X146555264Y-122655264D01*
X146570929Y-122636176D01*
X146907106Y-122300000D01*
X146968944Y-122300000D01*
X147100000Y-122273931D01*
X147100000Y-123892893D01*
G36*
X141129075Y-121936181D02*
G01*
X141144736Y-121955264D01*
X141220871Y-122017746D01*
X141307733Y-122064175D01*
X141401983Y-122092765D01*
X141500000Y-122102419D01*
X141524560Y-122100000D01*
X142892894Y-122100000D01*
X142563823Y-122429071D01*
X142544736Y-122444736D01*
X142482254Y-122520871D01*
X142435825Y-122607734D01*
X142421407Y-122655264D01*
X142407235Y-122701983D01*
X142397581Y-122800000D01*
X142400000Y-122824560D01*
X142400001Y-124592893D01*
X142092895Y-124900000D01*
X139324560Y-124900000D01*
X139300000Y-124897581D01*
X139275440Y-124900000D01*
X139201983Y-124907235D01*
X139107733Y-124935825D01*
X139020871Y-124982254D01*
X139000000Y-124999382D01*
X139000000Y-122808954D01*
X139184219Y-122932045D01*
X139276961Y-122970460D01*
X139283728Y-122992765D01*
X139289409Y-123011494D01*
X139340479Y-123107042D01*
X139391987Y-123169804D01*
X139391993Y-123169810D01*
X139409211Y-123190790D01*
X139430191Y-123208008D01*
X140191992Y-123969810D01*
X140209210Y-123990790D01*
X140230190Y-124008008D01*
X140230195Y-124008013D01*
X140292958Y-124059521D01*
X140388505Y-124110592D01*
X140492181Y-124142042D01*
X140572982Y-124150000D01*
X140572989Y-124150000D01*
X140600000Y-124152660D01*
X140627011Y-124150000D01*
X140963166Y-124150000D01*
X141068426Y-124220332D01*
X141195818Y-124273099D01*
X141331056Y-124300000D01*
X141468944Y-124300000D01*
X141604182Y-124273099D01*
X141731574Y-124220332D01*
X141846224Y-124143726D01*
X141943726Y-124046224D01*
X142020332Y-123931574D01*
X142073099Y-123804182D01*
X142100000Y-123668944D01*
X142100000Y-123531056D01*
X142073099Y-123395818D01*
X142020332Y-123268426D01*
X141943726Y-123153776D01*
X141846224Y-123056274D01*
X141731574Y-122979668D01*
X141604182Y-122926901D01*
X141468944Y-122900000D01*
X141331056Y-122900000D01*
X141195818Y-122926901D01*
X141068426Y-122979668D01*
X140963166Y-123050000D01*
X140827818Y-123050000D01*
X140592070Y-122814253D01*
X140628702Y-122789776D01*
X140809776Y-122608702D01*
X140952045Y-122395781D01*
X141050042Y-122159196D01*
X141100000Y-121908039D01*
X141100000Y-121907106D01*
X141129075Y-121936181D01*
X141129075Y-121936181D01*
G37*
X141129075Y-121936181D02*
X141144736Y-121955264D01*
X141220871Y-122017746D01*
X141307733Y-122064175D01*
X141401983Y-122092765D01*
X141500000Y-122102419D01*
X141524560Y-122100000D01*
X142892894Y-122100000D01*
X142563823Y-122429071D01*
X142544736Y-122444736D01*
X142482254Y-122520871D01*
X142435825Y-122607734D01*
X142421407Y-122655264D01*
X142407235Y-122701983D01*
X142397581Y-122800000D01*
X142400000Y-122824560D01*
X142400001Y-124592893D01*
X142092895Y-124900000D01*
X139324560Y-124900000D01*
X139300000Y-124897581D01*
X139275440Y-124900000D01*
X139201983Y-124907235D01*
X139107733Y-124935825D01*
X139020871Y-124982254D01*
X139000000Y-124999382D01*
X139000000Y-122808954D01*
X139184219Y-122932045D01*
X139276961Y-122970460D01*
X139283728Y-122992765D01*
X139289409Y-123011494D01*
X139340479Y-123107042D01*
X139391987Y-123169804D01*
X139391993Y-123169810D01*
X139409211Y-123190790D01*
X139430191Y-123208008D01*
X140191992Y-123969810D01*
X140209210Y-123990790D01*
X140230190Y-124008008D01*
X140230195Y-124008013D01*
X140292958Y-124059521D01*
X140388505Y-124110592D01*
X140492181Y-124142042D01*
X140572982Y-124150000D01*
X140572989Y-124150000D01*
X140600000Y-124152660D01*
X140627011Y-124150000D01*
X140963166Y-124150000D01*
X141068426Y-124220332D01*
X141195818Y-124273099D01*
X141331056Y-124300000D01*
X141468944Y-124300000D01*
X141604182Y-124273099D01*
X141731574Y-124220332D01*
X141846224Y-124143726D01*
X141943726Y-124046224D01*
X142020332Y-123931574D01*
X142073099Y-123804182D01*
X142100000Y-123668944D01*
X142100000Y-123531056D01*
X142073099Y-123395818D01*
X142020332Y-123268426D01*
X141943726Y-123153776D01*
X141846224Y-123056274D01*
X141731574Y-122979668D01*
X141604182Y-122926901D01*
X141468944Y-122900000D01*
X141331056Y-122900000D01*
X141195818Y-122926901D01*
X141068426Y-122979668D01*
X140963166Y-123050000D01*
X140827818Y-123050000D01*
X140592070Y-122814253D01*
X140628702Y-122789776D01*
X140809776Y-122608702D01*
X140952045Y-122395781D01*
X141050042Y-122159196D01*
X141100000Y-121908039D01*
X141100000Y-121907106D01*
X141129075Y-121936181D01*
G36*
X127929075Y-112336181D02*
G01*
X127944736Y-112355264D01*
X128020871Y-112417746D01*
X128107733Y-112464175D01*
X128201983Y-112492765D01*
X128300000Y-112502419D01*
X128324560Y-112500000D01*
X129206178Y-112500000D01*
X129200000Y-112531056D01*
X129200000Y-112668944D01*
X129226901Y-112804182D01*
X129279668Y-112931574D01*
X129356274Y-113046224D01*
X129453776Y-113143726D01*
X129568426Y-113220332D01*
X129695818Y-113273099D01*
X129831056Y-113300000D01*
X129968944Y-113300000D01*
X130104182Y-113273099D01*
X130231574Y-113220332D01*
X130346224Y-113143726D01*
X130389950Y-113100000D01*
X130700001Y-113100000D01*
X130700000Y-113675439D01*
X130697581Y-113700000D01*
X130707235Y-113798017D01*
X130713220Y-113817746D01*
X130735825Y-113892266D01*
X130782254Y-113979129D01*
X130844736Y-114055264D01*
X130863824Y-114070929D01*
X133300001Y-116507108D01*
X133300000Y-122392893D01*
X132663819Y-123029076D01*
X132644737Y-123044736D01*
X132600000Y-123099249D01*
X132600000Y-122689950D01*
X132643726Y-122646224D01*
X132720332Y-122531574D01*
X132773099Y-122404182D01*
X132800000Y-122268944D01*
X132800000Y-122131056D01*
X132773099Y-121995818D01*
X132720332Y-121868426D01*
X132643726Y-121753776D01*
X132546224Y-121656274D01*
X132431574Y-121579668D01*
X132304182Y-121526901D01*
X132168944Y-121500000D01*
X132031056Y-121500000D01*
X132001160Y-121505947D01*
X132136187Y-121370920D01*
X132155264Y-121355264D01*
X132217746Y-121279129D01*
X132264175Y-121192267D01*
X132292765Y-121098017D01*
X132300000Y-121024560D01*
X132300000Y-121024551D01*
X132302418Y-121000001D01*
X132300000Y-120975451D01*
X132300000Y-119689950D01*
X132343726Y-119646224D01*
X132420332Y-119531574D01*
X132473099Y-119404182D01*
X132500000Y-119268944D01*
X132500000Y-119131056D01*
X132473099Y-118995818D01*
X132420332Y-118868426D01*
X132343726Y-118753776D01*
X132246224Y-118656274D01*
X132131574Y-118579668D01*
X132004182Y-118526901D01*
X131868944Y-118500000D01*
X131731056Y-118500000D01*
X131595818Y-118526901D01*
X131468426Y-118579668D01*
X131353776Y-118656274D01*
X131256274Y-118753776D01*
X131179668Y-118868426D01*
X131126901Y-118995818D01*
X131100000Y-119131056D01*
X131100000Y-119268944D01*
X131126901Y-119404182D01*
X131179668Y-119531574D01*
X131256274Y-119646224D01*
X131300000Y-119689950D01*
X131300001Y-120792892D01*
X130200000Y-121892895D01*
X130200000Y-119589950D01*
X130243726Y-119546224D01*
X130320332Y-119431574D01*
X130373099Y-119304182D01*
X130400000Y-119168944D01*
X130400000Y-119031056D01*
X130373099Y-118895818D01*
X130320332Y-118768426D01*
X130243726Y-118653776D01*
X130146224Y-118556274D01*
X130031574Y-118479668D01*
X129904182Y-118426901D01*
X129768944Y-118400000D01*
X129631056Y-118400000D01*
X129495818Y-118426901D01*
X129368426Y-118479668D01*
X129253776Y-118556274D01*
X129156274Y-118653776D01*
X129079668Y-118768426D01*
X129026901Y-118895818D01*
X129000000Y-119031056D01*
X129000000Y-119168944D01*
X129026901Y-119304182D01*
X129079668Y-119431574D01*
X129156274Y-119546224D01*
X129200001Y-119589951D01*
X129200000Y-122110050D01*
X129156274Y-122153776D01*
X129079668Y-122268426D01*
X129026901Y-122395818D01*
X129000000Y-122531056D01*
X129000000Y-122668944D01*
X129026901Y-122804182D01*
X129079668Y-122931574D01*
X129156274Y-123046224D01*
X129253776Y-123143726D01*
X129368426Y-123220332D01*
X129495818Y-123273099D01*
X129607124Y-123295240D01*
X129600000Y-123331056D01*
X129600000Y-123468944D01*
X129626901Y-123604182D01*
X129679668Y-123731574D01*
X129756274Y-123846224D01*
X129820000Y-123909950D01*
X129820001Y-124301177D01*
X129801178Y-124320000D01*
X129261248Y-124320000D01*
X129320332Y-124231574D01*
X129373099Y-124104182D01*
X129400000Y-123968944D01*
X129400000Y-123831056D01*
X129373099Y-123695818D01*
X129320332Y-123568426D01*
X129243726Y-123453776D01*
X129146224Y-123356274D01*
X129031574Y-123279668D01*
X128904182Y-123226901D01*
X128768944Y-123200000D01*
X128631056Y-123200000D01*
X128495818Y-123226901D01*
X128368426Y-123279668D01*
X128253776Y-123356274D01*
X128249928Y-123360122D01*
X128273099Y-123304182D01*
X128300000Y-123168944D01*
X128300000Y-123031056D01*
X128273099Y-122895818D01*
X128220332Y-122768426D01*
X128143726Y-122653776D01*
X128046224Y-122556274D01*
X127931574Y-122479668D01*
X127804182Y-122426901D01*
X127668944Y-122400000D01*
X127593822Y-122400000D01*
X127600000Y-122368944D01*
X127600000Y-122231056D01*
X127573099Y-122095818D01*
X127520332Y-121968426D01*
X127443726Y-121853776D01*
X127346224Y-121756274D01*
X127231574Y-121679668D01*
X127104182Y-121626901D01*
X126968944Y-121600000D01*
X126831056Y-121600000D01*
X126695818Y-121626901D01*
X126568426Y-121679668D01*
X126453776Y-121756274D01*
X126356274Y-121853776D01*
X126279668Y-121968426D01*
X126249167Y-122042062D01*
X126070929Y-121863824D01*
X126055264Y-121844736D01*
X125979129Y-121782254D01*
X125892267Y-121735825D01*
X125798017Y-121707235D01*
X125724560Y-121700000D01*
X125700000Y-121697581D01*
X125675440Y-121700000D01*
X124707107Y-121700000D01*
X122638162Y-119631056D01*
X123500000Y-119631056D01*
X123500000Y-119768944D01*
X123526901Y-119904182D01*
X123579668Y-120031574D01*
X123656274Y-120146224D01*
X123753776Y-120243726D01*
X123868426Y-120320332D01*
X123995818Y-120373099D01*
X124131056Y-120400000D01*
X124268944Y-120400000D01*
X124404182Y-120373099D01*
X124531574Y-120320332D01*
X124646224Y-120243726D01*
X124743726Y-120146224D01*
X124820332Y-120031574D01*
X124873099Y-119904182D01*
X124900000Y-119768944D01*
X124900000Y-119631056D01*
X124873099Y-119495818D01*
X124820332Y-119368426D01*
X124743726Y-119253776D01*
X124646224Y-119156274D01*
X124531574Y-119079668D01*
X124404182Y-119026901D01*
X124268944Y-119000000D01*
X124131056Y-119000000D01*
X123995818Y-119026901D01*
X123868426Y-119079668D01*
X123753776Y-119156274D01*
X123656274Y-119253776D01*
X123579668Y-119368426D01*
X123526901Y-119495818D01*
X123500000Y-119631056D01*
X122638162Y-119631056D01*
X122400000Y-119392895D01*
X122400000Y-116116236D01*
X123119949Y-116836186D01*
X123135606Y-116855264D01*
X123211741Y-116917746D01*
X123298603Y-116964175D01*
X123391211Y-116992267D01*
X123392853Y-116992765D01*
X123490870Y-117002419D01*
X123515430Y-117000000D01*
X125792895Y-117000000D01*
X125929071Y-117136176D01*
X125944736Y-117155264D01*
X126020871Y-117217746D01*
X126107733Y-117264175D01*
X126201983Y-117292765D01*
X126275440Y-117300000D01*
X126275441Y-117300000D01*
X126299999Y-117302419D01*
X126324557Y-117300000D01*
X126975440Y-117300000D01*
X127000000Y-117302419D01*
X127024560Y-117300000D01*
X127098017Y-117292765D01*
X127192267Y-117264175D01*
X127279129Y-117217746D01*
X127355264Y-117155264D01*
X127370929Y-117136176D01*
X127636176Y-116870929D01*
X127655264Y-116855264D01*
X127717746Y-116779129D01*
X127764175Y-116692267D01*
X127792765Y-116598017D01*
X127800000Y-116524560D01*
X127800000Y-116524559D01*
X127802419Y-116500001D01*
X127800000Y-116475443D01*
X127800000Y-115424557D01*
X127802419Y-115399999D01*
X127799769Y-115373099D01*
X127792765Y-115301983D01*
X127764175Y-115207733D01*
X127717746Y-115120871D01*
X127655264Y-115044736D01*
X127636176Y-115029071D01*
X127370929Y-114763824D01*
X127355264Y-114744736D01*
X127279129Y-114682254D01*
X127210853Y-114645760D01*
X127220332Y-114631574D01*
X127273099Y-114504182D01*
X127300000Y-114368944D01*
X127300000Y-114231056D01*
X127273099Y-114095818D01*
X127220332Y-113968426D01*
X127143726Y-113853776D01*
X127046224Y-113756274D01*
X126931574Y-113679668D01*
X126857939Y-113649168D01*
X126936187Y-113570920D01*
X126955264Y-113555264D01*
X127017746Y-113479129D01*
X127064175Y-113392267D01*
X127092765Y-113298017D01*
X127100000Y-113224560D01*
X127100000Y-113224551D01*
X127102418Y-113200001D01*
X127100000Y-113175451D01*
X127100000Y-111507105D01*
X127929075Y-112336181D01*
X127929075Y-112336181D01*
G37*
X127929075Y-112336181D02*
X127944736Y-112355264D01*
X128020871Y-112417746D01*
X128107733Y-112464175D01*
X128201983Y-112492765D01*
X128300000Y-112502419D01*
X128324560Y-112500000D01*
X129206178Y-112500000D01*
X129200000Y-112531056D01*
X129200000Y-112668944D01*
X129226901Y-112804182D01*
X129279668Y-112931574D01*
X129356274Y-113046224D01*
X129453776Y-113143726D01*
X129568426Y-113220332D01*
X129695818Y-113273099D01*
X129831056Y-113300000D01*
X129968944Y-113300000D01*
X130104182Y-113273099D01*
X130231574Y-113220332D01*
X130346224Y-113143726D01*
X130389950Y-113100000D01*
X130700001Y-113100000D01*
X130700000Y-113675439D01*
X130697581Y-113700000D01*
X130707235Y-113798017D01*
X130713220Y-113817746D01*
X130735825Y-113892266D01*
X130782254Y-113979129D01*
X130844736Y-114055264D01*
X130863824Y-114070929D01*
X133300001Y-116507108D01*
X133300000Y-122392893D01*
X132663819Y-123029076D01*
X132644737Y-123044736D01*
X132600000Y-123099249D01*
X132600000Y-122689950D01*
X132643726Y-122646224D01*
X132720332Y-122531574D01*
X132773099Y-122404182D01*
X132800000Y-122268944D01*
X132800000Y-122131056D01*
X132773099Y-121995818D01*
X132720332Y-121868426D01*
X132643726Y-121753776D01*
X132546224Y-121656274D01*
X132431574Y-121579668D01*
X132304182Y-121526901D01*
X132168944Y-121500000D01*
X132031056Y-121500000D01*
X132001160Y-121505947D01*
X132136187Y-121370920D01*
X132155264Y-121355264D01*
X132217746Y-121279129D01*
X132264175Y-121192267D01*
X132292765Y-121098017D01*
X132300000Y-121024560D01*
X132300000Y-121024551D01*
X132302418Y-121000001D01*
X132300000Y-120975451D01*
X132300000Y-119689950D01*
X132343726Y-119646224D01*
X132420332Y-119531574D01*
X132473099Y-119404182D01*
X132500000Y-119268944D01*
X132500000Y-119131056D01*
X132473099Y-118995818D01*
X132420332Y-118868426D01*
X132343726Y-118753776D01*
X132246224Y-118656274D01*
X132131574Y-118579668D01*
X132004182Y-118526901D01*
X131868944Y-118500000D01*
X131731056Y-118500000D01*
X131595818Y-118526901D01*
X131468426Y-118579668D01*
X131353776Y-118656274D01*
X131256274Y-118753776D01*
X131179668Y-118868426D01*
X131126901Y-118995818D01*
X131100000Y-119131056D01*
X131100000Y-119268944D01*
X131126901Y-119404182D01*
X131179668Y-119531574D01*
X131256274Y-119646224D01*
X131300000Y-119689950D01*
X131300001Y-120792892D01*
X130200000Y-121892895D01*
X130200000Y-119589950D01*
X130243726Y-119546224D01*
X130320332Y-119431574D01*
X130373099Y-119304182D01*
X130400000Y-119168944D01*
X130400000Y-119031056D01*
X130373099Y-118895818D01*
X130320332Y-118768426D01*
X130243726Y-118653776D01*
X130146224Y-118556274D01*
X130031574Y-118479668D01*
X129904182Y-118426901D01*
X129768944Y-118400000D01*
X129631056Y-118400000D01*
X129495818Y-118426901D01*
X129368426Y-118479668D01*
X129253776Y-118556274D01*
X129156274Y-118653776D01*
X129079668Y-118768426D01*
X129026901Y-118895818D01*
X129000000Y-119031056D01*
X129000000Y-119168944D01*
X129026901Y-119304182D01*
X129079668Y-119431574D01*
X129156274Y-119546224D01*
X129200001Y-119589951D01*
X129200000Y-122110050D01*
X129156274Y-122153776D01*
X129079668Y-122268426D01*
X129026901Y-122395818D01*
X129000000Y-122531056D01*
X129000000Y-122668944D01*
X129026901Y-122804182D01*
X129079668Y-122931574D01*
X129156274Y-123046224D01*
X129253776Y-123143726D01*
X129368426Y-123220332D01*
X129495818Y-123273099D01*
X129607124Y-123295240D01*
X129600000Y-123331056D01*
X129600000Y-123468944D01*
X129626901Y-123604182D01*
X129679668Y-123731574D01*
X129756274Y-123846224D01*
X129820000Y-123909950D01*
X129820001Y-124301177D01*
X129801178Y-124320000D01*
X129261248Y-124320000D01*
X129320332Y-124231574D01*
X129373099Y-124104182D01*
X129400000Y-123968944D01*
X129400000Y-123831056D01*
X129373099Y-123695818D01*
X129320332Y-123568426D01*
X129243726Y-123453776D01*
X129146224Y-123356274D01*
X129031574Y-123279668D01*
X128904182Y-123226901D01*
X128768944Y-123200000D01*
X128631056Y-123200000D01*
X128495818Y-123226901D01*
X128368426Y-123279668D01*
X128253776Y-123356274D01*
X128249928Y-123360122D01*
X128273099Y-123304182D01*
X128300000Y-123168944D01*
X128300000Y-123031056D01*
X128273099Y-122895818D01*
X128220332Y-122768426D01*
X128143726Y-122653776D01*
X128046224Y-122556274D01*
X127931574Y-122479668D01*
X127804182Y-122426901D01*
X127668944Y-122400000D01*
X127593822Y-122400000D01*
X127600000Y-122368944D01*
X127600000Y-122231056D01*
X127573099Y-122095818D01*
X127520332Y-121968426D01*
X127443726Y-121853776D01*
X127346224Y-121756274D01*
X127231574Y-121679668D01*
X127104182Y-121626901D01*
X126968944Y-121600000D01*
X126831056Y-121600000D01*
X126695818Y-121626901D01*
X126568426Y-121679668D01*
X126453776Y-121756274D01*
X126356274Y-121853776D01*
X126279668Y-121968426D01*
X126249167Y-122042062D01*
X126070929Y-121863824D01*
X126055264Y-121844736D01*
X125979129Y-121782254D01*
X125892267Y-121735825D01*
X125798017Y-121707235D01*
X125724560Y-121700000D01*
X125700000Y-121697581D01*
X125675440Y-121700000D01*
X124707107Y-121700000D01*
X122638162Y-119631056D01*
X123500000Y-119631056D01*
X123500000Y-119768944D01*
X123526901Y-119904182D01*
X123579668Y-120031574D01*
X123656274Y-120146224D01*
X123753776Y-120243726D01*
X123868426Y-120320332D01*
X123995818Y-120373099D01*
X124131056Y-120400000D01*
X124268944Y-120400000D01*
X124404182Y-120373099D01*
X124531574Y-120320332D01*
X124646224Y-120243726D01*
X124743726Y-120146224D01*
X124820332Y-120031574D01*
X124873099Y-119904182D01*
X124900000Y-119768944D01*
X124900000Y-119631056D01*
X124873099Y-119495818D01*
X124820332Y-119368426D01*
X124743726Y-119253776D01*
X124646224Y-119156274D01*
X124531574Y-119079668D01*
X124404182Y-119026901D01*
X124268944Y-119000000D01*
X124131056Y-119000000D01*
X123995818Y-119026901D01*
X123868426Y-119079668D01*
X123753776Y-119156274D01*
X123656274Y-119253776D01*
X123579668Y-119368426D01*
X123526901Y-119495818D01*
X123500000Y-119631056D01*
X122638162Y-119631056D01*
X122400000Y-119392895D01*
X122400000Y-116116236D01*
X123119949Y-116836186D01*
X123135606Y-116855264D01*
X123211741Y-116917746D01*
X123298603Y-116964175D01*
X123391211Y-116992267D01*
X123392853Y-116992765D01*
X123490870Y-117002419D01*
X123515430Y-117000000D01*
X125792895Y-117000000D01*
X125929071Y-117136176D01*
X125944736Y-117155264D01*
X126020871Y-117217746D01*
X126107733Y-117264175D01*
X126201983Y-117292765D01*
X126275440Y-117300000D01*
X126275441Y-117300000D01*
X126299999Y-117302419D01*
X126324557Y-117300000D01*
X126975440Y-117300000D01*
X127000000Y-117302419D01*
X127024560Y-117300000D01*
X127098017Y-117292765D01*
X127192267Y-117264175D01*
X127279129Y-117217746D01*
X127355264Y-117155264D01*
X127370929Y-117136176D01*
X127636176Y-116870929D01*
X127655264Y-116855264D01*
X127717746Y-116779129D01*
X127764175Y-116692267D01*
X127792765Y-116598017D01*
X127800000Y-116524560D01*
X127800000Y-116524559D01*
X127802419Y-116500001D01*
X127800000Y-116475443D01*
X127800000Y-115424557D01*
X127802419Y-115399999D01*
X127799769Y-115373099D01*
X127792765Y-115301983D01*
X127764175Y-115207733D01*
X127717746Y-115120871D01*
X127655264Y-115044736D01*
X127636176Y-115029071D01*
X127370929Y-114763824D01*
X127355264Y-114744736D01*
X127279129Y-114682254D01*
X127210853Y-114645760D01*
X127220332Y-114631574D01*
X127273099Y-114504182D01*
X127300000Y-114368944D01*
X127300000Y-114231056D01*
X127273099Y-114095818D01*
X127220332Y-113968426D01*
X127143726Y-113853776D01*
X127046224Y-113756274D01*
X126931574Y-113679668D01*
X126857939Y-113649168D01*
X126936187Y-113570920D01*
X126955264Y-113555264D01*
X127017746Y-113479129D01*
X127064175Y-113392267D01*
X127092765Y-113298017D01*
X127100000Y-113224560D01*
X127100000Y-113224551D01*
X127102418Y-113200001D01*
X127100000Y-113175451D01*
X127100000Y-111507105D01*
X127929075Y-112336181D01*
G36*
X137100001Y-114607106D02*
G01*
X137100000Y-117575440D01*
X137097581Y-117600000D01*
X137107235Y-117698017D01*
X137108570Y-117702418D01*
X137135825Y-117792266D01*
X137182254Y-117879129D01*
X137200000Y-117900753D01*
X137200000Y-117968944D01*
X137226901Y-118104182D01*
X137279668Y-118231574D01*
X137356274Y-118346224D01*
X137453776Y-118443726D01*
X137568426Y-118520332D01*
X137695818Y-118573099D01*
X137831056Y-118600000D01*
X137968944Y-118600000D01*
X138104182Y-118573099D01*
X138231574Y-118520332D01*
X138346224Y-118443726D01*
X138443726Y-118346224D01*
X138520332Y-118231574D01*
X138573099Y-118104182D01*
X138600000Y-117968944D01*
X138600000Y-117864972D01*
X138615789Y-117884211D01*
X138676697Y-117934197D01*
X138746186Y-117971340D01*
X138821586Y-117994212D01*
X138900000Y-118001935D01*
X139391889Y-118001935D01*
X139184219Y-118087955D01*
X138971298Y-118230224D01*
X138790224Y-118411298D01*
X138647955Y-118624219D01*
X138549958Y-118860804D01*
X138500000Y-119111961D01*
X138500000Y-119368039D01*
X138549958Y-119619196D01*
X138647955Y-119855781D01*
X138790224Y-120068702D01*
X138811482Y-120089960D01*
X138744736Y-120144736D01*
X138729075Y-120163819D01*
X138163819Y-120729076D01*
X138144737Y-120744736D01*
X138082255Y-120820871D01*
X138039959Y-120900000D01*
X138035826Y-120907733D01*
X138007235Y-121001983D01*
X137997581Y-121100000D01*
X138000001Y-121124570D01*
X138000001Y-123192894D01*
X135700000Y-120892895D01*
X135700000Y-120089950D01*
X135743726Y-120046224D01*
X135800000Y-119962003D01*
X135800000Y-119968944D01*
X135826901Y-120104182D01*
X135879668Y-120231574D01*
X135956274Y-120346224D01*
X136053776Y-120443726D01*
X136168426Y-120520332D01*
X136295818Y-120573099D01*
X136431056Y-120600000D01*
X136568944Y-120600000D01*
X136704182Y-120573099D01*
X136831574Y-120520332D01*
X136946224Y-120443726D01*
X137043726Y-120346224D01*
X137120332Y-120231574D01*
X137173099Y-120104182D01*
X137200000Y-119968944D01*
X137200000Y-119831056D01*
X137173099Y-119695818D01*
X137120332Y-119568426D01*
X137043726Y-119453776D01*
X136946224Y-119356274D01*
X136831574Y-119279668D01*
X136704182Y-119226901D01*
X136568944Y-119200000D01*
X136431056Y-119200000D01*
X136295818Y-119226901D01*
X136168426Y-119279668D01*
X136053776Y-119356274D01*
X135956274Y-119453776D01*
X135900000Y-119537997D01*
X135900000Y-119531056D01*
X135873099Y-119395818D01*
X135820332Y-119268426D01*
X135743726Y-119153776D01*
X135646224Y-119056274D01*
X135531574Y-118979668D01*
X135404182Y-118926901D01*
X135268944Y-118900000D01*
X135131056Y-118900000D01*
X134995818Y-118926901D01*
X134900000Y-118966590D01*
X134900000Y-114733410D01*
X134995818Y-114773099D01*
X135131056Y-114800000D01*
X135268944Y-114800000D01*
X135404182Y-114773099D01*
X135531574Y-114720332D01*
X135646224Y-114643726D01*
X135689950Y-114600000D01*
X137092895Y-114600000D01*
X137100001Y-114607106D01*
X137100001Y-114607106D01*
G37*
X137100001Y-114607106D02*
X137100000Y-117575440D01*
X137097581Y-117600000D01*
X137107235Y-117698017D01*
X137108570Y-117702418D01*
X137135825Y-117792266D01*
X137182254Y-117879129D01*
X137200000Y-117900753D01*
X137200000Y-117968944D01*
X137226901Y-118104182D01*
X137279668Y-118231574D01*
X137356274Y-118346224D01*
X137453776Y-118443726D01*
X137568426Y-118520332D01*
X137695818Y-118573099D01*
X137831056Y-118600000D01*
X137968944Y-118600000D01*
X138104182Y-118573099D01*
X138231574Y-118520332D01*
X138346224Y-118443726D01*
X138443726Y-118346224D01*
X138520332Y-118231574D01*
X138573099Y-118104182D01*
X138600000Y-117968944D01*
X138600000Y-117864972D01*
X138615789Y-117884211D01*
X138676697Y-117934197D01*
X138746186Y-117971340D01*
X138821586Y-117994212D01*
X138900000Y-118001935D01*
X139391889Y-118001935D01*
X139184219Y-118087955D01*
X138971298Y-118230224D01*
X138790224Y-118411298D01*
X138647955Y-118624219D01*
X138549958Y-118860804D01*
X138500000Y-119111961D01*
X138500000Y-119368039D01*
X138549958Y-119619196D01*
X138647955Y-119855781D01*
X138790224Y-120068702D01*
X138811482Y-120089960D01*
X138744736Y-120144736D01*
X138729075Y-120163819D01*
X138163819Y-120729076D01*
X138144737Y-120744736D01*
X138082255Y-120820871D01*
X138039959Y-120900000D01*
X138035826Y-120907733D01*
X138007235Y-121001983D01*
X137997581Y-121100000D01*
X138000001Y-121124570D01*
X138000001Y-123192894D01*
X135700000Y-120892895D01*
X135700000Y-120089950D01*
X135743726Y-120046224D01*
X135800000Y-119962003D01*
X135800000Y-119968944D01*
X135826901Y-120104182D01*
X135879668Y-120231574D01*
X135956274Y-120346224D01*
X136053776Y-120443726D01*
X136168426Y-120520332D01*
X136295818Y-120573099D01*
X136431056Y-120600000D01*
X136568944Y-120600000D01*
X136704182Y-120573099D01*
X136831574Y-120520332D01*
X136946224Y-120443726D01*
X137043726Y-120346224D01*
X137120332Y-120231574D01*
X137173099Y-120104182D01*
X137200000Y-119968944D01*
X137200000Y-119831056D01*
X137173099Y-119695818D01*
X137120332Y-119568426D01*
X137043726Y-119453776D01*
X136946224Y-119356274D01*
X136831574Y-119279668D01*
X136704182Y-119226901D01*
X136568944Y-119200000D01*
X136431056Y-119200000D01*
X136295818Y-119226901D01*
X136168426Y-119279668D01*
X136053776Y-119356274D01*
X135956274Y-119453776D01*
X135900000Y-119537997D01*
X135900000Y-119531056D01*
X135873099Y-119395818D01*
X135820332Y-119268426D01*
X135743726Y-119153776D01*
X135646224Y-119056274D01*
X135531574Y-118979668D01*
X135404182Y-118926901D01*
X135268944Y-118900000D01*
X135131056Y-118900000D01*
X134995818Y-118926901D01*
X134900000Y-118966590D01*
X134900000Y-114733410D01*
X134995818Y-114773099D01*
X135131056Y-114800000D01*
X135268944Y-114800000D01*
X135404182Y-114773099D01*
X135531574Y-114720332D01*
X135646224Y-114643726D01*
X135689950Y-114600000D01*
X137092895Y-114600000D01*
X137100001Y-114607106D01*
G36*
X147600000Y-110692894D02*
G01*
X146392895Y-111900000D01*
X146331056Y-111900000D01*
X146195818Y-111926901D01*
X146068426Y-111979668D01*
X145953776Y-112056274D01*
X145856274Y-112153776D01*
X145779668Y-112268426D01*
X145726901Y-112395818D01*
X145700000Y-112531056D01*
X145700000Y-112668944D01*
X145726901Y-112804182D01*
X145779668Y-112931574D01*
X145856274Y-113046224D01*
X145953776Y-113143726D01*
X146068426Y-113220332D01*
X146195818Y-113273099D01*
X146331056Y-113300000D01*
X146468944Y-113300000D01*
X146604182Y-113273099D01*
X146731574Y-113220332D01*
X146846224Y-113143726D01*
X146943726Y-113046224D01*
X147020332Y-112931574D01*
X147073099Y-112804182D01*
X147100000Y-112668944D01*
X147100000Y-112607105D01*
X148436181Y-111270925D01*
X148455264Y-111255264D01*
X148517746Y-111179129D01*
X148564175Y-111092267D01*
X148592765Y-110998017D01*
X148600000Y-110924560D01*
X148600000Y-110924559D01*
X148600001Y-110924553D01*
X148600000Y-112610050D01*
X148556274Y-112653776D01*
X148479668Y-112768426D01*
X148426901Y-112895818D01*
X148400000Y-113031056D01*
X148400000Y-113168944D01*
X148426901Y-113304182D01*
X148479668Y-113431574D01*
X148556274Y-113546224D01*
X148600001Y-113589951D01*
X148600000Y-115575440D01*
X148597581Y-115600000D01*
X148607235Y-115698017D01*
X148609105Y-115704182D01*
X148635825Y-115792266D01*
X148682254Y-115879129D01*
X148744736Y-115955264D01*
X148763824Y-115970929D01*
X149429080Y-116636187D01*
X149444736Y-116655264D01*
X149520871Y-116717746D01*
X149546343Y-116731361D01*
X149556274Y-116746224D01*
X149653776Y-116843726D01*
X149768426Y-116920332D01*
X149895818Y-116973099D01*
X150031056Y-117000000D01*
X150168944Y-117000000D01*
X150304182Y-116973099D01*
X150399006Y-116933822D01*
X150426937Y-117025899D01*
X150544271Y-117245415D01*
X150702177Y-117437823D01*
X150894585Y-117595729D01*
X151114101Y-117713063D01*
X151267526Y-117759604D01*
X151035485Y-117838735D01*
X150804173Y-117972717D01*
X150603444Y-118149251D01*
X150441012Y-118361554D01*
X150323120Y-118601466D01*
X150272458Y-118768492D01*
X150365443Y-118980000D01*
X151500000Y-118980000D01*
X151500000Y-118960000D01*
X151700000Y-118960000D01*
X151700000Y-118980000D01*
X151720000Y-118980000D01*
X151720000Y-119180000D01*
X151700000Y-119180000D01*
X151700000Y-119200000D01*
X151500000Y-119200000D01*
X151500000Y-119180000D01*
X150365443Y-119180000D01*
X150272458Y-119391508D01*
X150323120Y-119558534D01*
X150441012Y-119798446D01*
X150457955Y-119820591D01*
X150407733Y-119835825D01*
X150320871Y-119882254D01*
X150244736Y-119944736D01*
X150229080Y-119963813D01*
X148100000Y-122092895D01*
X148100000Y-119107105D01*
X148236176Y-118970929D01*
X148255264Y-118955264D01*
X148317746Y-118879129D01*
X148364175Y-118792267D01*
X148392765Y-118698017D01*
X148400000Y-118624560D01*
X148400000Y-118624559D01*
X148402419Y-118600001D01*
X148400000Y-118575443D01*
X148400000Y-117724557D01*
X148402419Y-117699999D01*
X148396876Y-117643726D01*
X148392765Y-117601983D01*
X148364175Y-117507733D01*
X148317746Y-117420871D01*
X148255264Y-117344736D01*
X148236181Y-117329075D01*
X148000000Y-117092894D01*
X148000000Y-117031056D01*
X147973099Y-116895818D01*
X147920332Y-116768426D01*
X147843726Y-116653776D01*
X147746224Y-116556274D01*
X147631574Y-116479668D01*
X147504182Y-116426901D01*
X147368944Y-116400000D01*
X147231056Y-116400000D01*
X147095818Y-116426901D01*
X146968426Y-116479668D01*
X146853776Y-116556274D01*
X146756274Y-116653776D01*
X146679668Y-116768426D01*
X146626901Y-116895818D01*
X146600000Y-117031056D01*
X146600000Y-117168944D01*
X146626901Y-117304182D01*
X146679668Y-117431574D01*
X146756274Y-117546224D01*
X146853776Y-117643726D01*
X146968426Y-117720332D01*
X147095818Y-117773099D01*
X147231056Y-117800000D01*
X147292894Y-117800000D01*
X147400001Y-117907106D01*
X147400000Y-118392895D01*
X147263820Y-118529075D01*
X147244737Y-118544736D01*
X147182255Y-118620871D01*
X147174262Y-118635825D01*
X147135826Y-118707733D01*
X147107235Y-118801983D01*
X147097581Y-118900000D01*
X147100001Y-118924570D01*
X147100001Y-120926069D01*
X146968944Y-120900000D01*
X146831056Y-120900000D01*
X146695818Y-120926901D01*
X146568426Y-120979668D01*
X146453776Y-121056274D01*
X146356274Y-121153776D01*
X146279668Y-121268426D01*
X146226901Y-121395818D01*
X146200000Y-121531056D01*
X146200000Y-121592894D01*
X145992895Y-121800000D01*
X145373931Y-121800000D01*
X145400000Y-121668944D01*
X145400000Y-121531056D01*
X145373099Y-121395818D01*
X145320332Y-121268426D01*
X145243726Y-121153776D01*
X145146224Y-121056274D01*
X145031574Y-120979668D01*
X144954974Y-120947940D01*
X144973099Y-120904182D01*
X145000000Y-120768944D01*
X145000000Y-120631056D01*
X144973099Y-120495818D01*
X144920332Y-120368426D01*
X144843726Y-120253776D01*
X144746224Y-120156274D01*
X144662003Y-120100000D01*
X144746224Y-120043726D01*
X144843726Y-119946224D01*
X144920332Y-119831574D01*
X144973099Y-119704182D01*
X145000000Y-119568944D01*
X145000000Y-119431056D01*
X144973099Y-119295818D01*
X144920332Y-119168426D01*
X144843726Y-119053776D01*
X144746224Y-118956274D01*
X144631574Y-118879668D01*
X144504182Y-118826901D01*
X144368944Y-118800000D01*
X144231056Y-118800000D01*
X144095818Y-118826901D01*
X143968426Y-118879668D01*
X143853776Y-118956274D01*
X143756274Y-119053776D01*
X143679668Y-119168426D01*
X143626901Y-119295818D01*
X143600000Y-119431056D01*
X143600000Y-119568944D01*
X143626901Y-119704182D01*
X143679668Y-119831574D01*
X143756274Y-119946224D01*
X143853776Y-120043726D01*
X143937997Y-120100000D01*
X143853776Y-120156274D01*
X143756274Y-120253776D01*
X143679668Y-120368426D01*
X143626901Y-120495818D01*
X143600000Y-120631056D01*
X143600000Y-120768944D01*
X143626901Y-120904182D01*
X143679668Y-121031574D01*
X143725388Y-121100000D01*
X141707106Y-121100000D01*
X140770929Y-120163824D01*
X140755264Y-120144736D01*
X140743443Y-120135035D01*
X140809776Y-120068702D01*
X140952045Y-119855781D01*
X141050042Y-119619196D01*
X141100000Y-119368039D01*
X141100000Y-119111961D01*
X141050042Y-118860804D01*
X140952045Y-118624219D01*
X140809776Y-118411298D01*
X140628702Y-118230224D01*
X140415781Y-118087955D01*
X140208111Y-118001935D01*
X140700000Y-118001935D01*
X140778414Y-117994212D01*
X140853814Y-117971340D01*
X140923303Y-117934197D01*
X140984211Y-117884211D01*
X141034197Y-117823303D01*
X141071340Y-117753814D01*
X141094212Y-117678414D01*
X141101935Y-117600000D01*
X141101935Y-117250000D01*
X141172992Y-117250000D01*
X141200000Y-117252660D01*
X141227008Y-117250000D01*
X141227018Y-117250000D01*
X141307819Y-117242042D01*
X141411494Y-117210592D01*
X141507042Y-117159521D01*
X141590790Y-117090790D01*
X141608014Y-117069803D01*
X141769800Y-116908017D01*
X141790790Y-116890790D01*
X141859521Y-116807042D01*
X141910592Y-116711494D01*
X141942042Y-116607819D01*
X141950000Y-116527018D01*
X141950000Y-116527011D01*
X141952660Y-116500000D01*
X141950000Y-116472989D01*
X141950000Y-115972982D01*
X141942042Y-115892181D01*
X141910592Y-115788506D01*
X141900000Y-115768690D01*
X141900000Y-114807105D01*
X142307107Y-114400000D01*
X143492894Y-114400000D01*
X143712373Y-114619479D01*
X143679668Y-114668426D01*
X143626901Y-114795818D01*
X143600000Y-114931056D01*
X143600000Y-115068944D01*
X143626901Y-115204182D01*
X143679668Y-115331574D01*
X143756274Y-115446224D01*
X143853776Y-115543726D01*
X143863166Y-115550000D01*
X143853776Y-115556274D01*
X143756274Y-115653776D01*
X143679668Y-115768426D01*
X143626901Y-115895818D01*
X143600000Y-116031056D01*
X143600000Y-116168944D01*
X143626901Y-116304182D01*
X143679668Y-116431574D01*
X143756274Y-116546224D01*
X143853776Y-116643726D01*
X143968426Y-116720332D01*
X144095818Y-116773099D01*
X144231056Y-116800000D01*
X144368944Y-116800000D01*
X144504182Y-116773099D01*
X144631574Y-116720332D01*
X144746224Y-116643726D01*
X144843726Y-116546224D01*
X144920332Y-116431574D01*
X144973099Y-116304182D01*
X145000000Y-116168944D01*
X145000000Y-116031056D01*
X144973099Y-115895818D01*
X144920332Y-115768426D01*
X144843726Y-115653776D01*
X144746224Y-115556274D01*
X144736834Y-115550000D01*
X144746224Y-115543726D01*
X144843726Y-115446224D01*
X144920332Y-115331574D01*
X144973099Y-115204182D01*
X145000000Y-115068944D01*
X145000000Y-114931056D01*
X144977621Y-114818552D01*
X144979129Y-114817746D01*
X145055264Y-114755264D01*
X145070929Y-114736176D01*
X145336176Y-114470929D01*
X145355264Y-114455264D01*
X145417746Y-114379129D01*
X145464175Y-114292267D01*
X145492765Y-114198017D01*
X145500000Y-114124560D01*
X145500000Y-114124559D01*
X145502419Y-114100001D01*
X145500000Y-114075443D01*
X145500000Y-112524557D01*
X145502419Y-112499999D01*
X145498890Y-112464174D01*
X145492765Y-112401983D01*
X145464175Y-112307733D01*
X145417746Y-112220871D01*
X145355264Y-112144736D01*
X145336181Y-112129075D01*
X144798528Y-111591422D01*
X144843726Y-111546224D01*
X144920332Y-111431574D01*
X144973099Y-111304182D01*
X145000000Y-111168944D01*
X145000000Y-111031056D01*
X144973099Y-110895818D01*
X144920332Y-110768426D01*
X144843726Y-110653776D01*
X144746224Y-110556274D01*
X144632732Y-110480442D01*
X144731056Y-110500000D01*
X144868944Y-110500000D01*
X145004182Y-110473099D01*
X145131574Y-110420332D01*
X145246224Y-110343726D01*
X145289950Y-110300000D01*
X146775440Y-110300000D01*
X146800000Y-110302419D01*
X146824560Y-110300000D01*
X146898017Y-110292765D01*
X146992267Y-110264175D01*
X147079129Y-110217746D01*
X147155264Y-110155264D01*
X147170929Y-110136177D01*
X147307106Y-110000000D01*
X147368944Y-110000000D01*
X147504182Y-109973099D01*
X147600000Y-109933410D01*
X147600000Y-110692894D01*
X147600000Y-110692894D01*
G37*
X147600000Y-110692894D02*
X146392895Y-111900000D01*
X146331056Y-111900000D01*
X146195818Y-111926901D01*
X146068426Y-111979668D01*
X145953776Y-112056274D01*
X145856274Y-112153776D01*
X145779668Y-112268426D01*
X145726901Y-112395818D01*
X145700000Y-112531056D01*
X145700000Y-112668944D01*
X145726901Y-112804182D01*
X145779668Y-112931574D01*
X145856274Y-113046224D01*
X145953776Y-113143726D01*
X146068426Y-113220332D01*
X146195818Y-113273099D01*
X146331056Y-113300000D01*
X146468944Y-113300000D01*
X146604182Y-113273099D01*
X146731574Y-113220332D01*
X146846224Y-113143726D01*
X146943726Y-113046224D01*
X147020332Y-112931574D01*
X147073099Y-112804182D01*
X147100000Y-112668944D01*
X147100000Y-112607105D01*
X148436181Y-111270925D01*
X148455264Y-111255264D01*
X148517746Y-111179129D01*
X148564175Y-111092267D01*
X148592765Y-110998017D01*
X148600000Y-110924560D01*
X148600000Y-110924559D01*
X148600001Y-110924553D01*
X148600000Y-112610050D01*
X148556274Y-112653776D01*
X148479668Y-112768426D01*
X148426901Y-112895818D01*
X148400000Y-113031056D01*
X148400000Y-113168944D01*
X148426901Y-113304182D01*
X148479668Y-113431574D01*
X148556274Y-113546224D01*
X148600001Y-113589951D01*
X148600000Y-115575440D01*
X148597581Y-115600000D01*
X148607235Y-115698017D01*
X148609105Y-115704182D01*
X148635825Y-115792266D01*
X148682254Y-115879129D01*
X148744736Y-115955264D01*
X148763824Y-115970929D01*
X149429080Y-116636187D01*
X149444736Y-116655264D01*
X149520871Y-116717746D01*
X149546343Y-116731361D01*
X149556274Y-116746224D01*
X149653776Y-116843726D01*
X149768426Y-116920332D01*
X149895818Y-116973099D01*
X150031056Y-117000000D01*
X150168944Y-117000000D01*
X150304182Y-116973099D01*
X150399006Y-116933822D01*
X150426937Y-117025899D01*
X150544271Y-117245415D01*
X150702177Y-117437823D01*
X150894585Y-117595729D01*
X151114101Y-117713063D01*
X151267526Y-117759604D01*
X151035485Y-117838735D01*
X150804173Y-117972717D01*
X150603444Y-118149251D01*
X150441012Y-118361554D01*
X150323120Y-118601466D01*
X150272458Y-118768492D01*
X150365443Y-118980000D01*
X151500000Y-118980000D01*
X151500000Y-118960000D01*
X151700000Y-118960000D01*
X151700000Y-118980000D01*
X151720000Y-118980000D01*
X151720000Y-119180000D01*
X151700000Y-119180000D01*
X151700000Y-119200000D01*
X151500000Y-119200000D01*
X151500000Y-119180000D01*
X150365443Y-119180000D01*
X150272458Y-119391508D01*
X150323120Y-119558534D01*
X150441012Y-119798446D01*
X150457955Y-119820591D01*
X150407733Y-119835825D01*
X150320871Y-119882254D01*
X150244736Y-119944736D01*
X150229080Y-119963813D01*
X148100000Y-122092895D01*
X148100000Y-119107105D01*
X148236176Y-118970929D01*
X148255264Y-118955264D01*
X148317746Y-118879129D01*
X148364175Y-118792267D01*
X148392765Y-118698017D01*
X148400000Y-118624560D01*
X148400000Y-118624559D01*
X148402419Y-118600001D01*
X148400000Y-118575443D01*
X148400000Y-117724557D01*
X148402419Y-117699999D01*
X148396876Y-117643726D01*
X148392765Y-117601983D01*
X148364175Y-117507733D01*
X148317746Y-117420871D01*
X148255264Y-117344736D01*
X148236181Y-117329075D01*
X148000000Y-117092894D01*
X148000000Y-117031056D01*
X147973099Y-116895818D01*
X147920332Y-116768426D01*
X147843726Y-116653776D01*
X147746224Y-116556274D01*
X147631574Y-116479668D01*
X147504182Y-116426901D01*
X147368944Y-116400000D01*
X147231056Y-116400000D01*
X147095818Y-116426901D01*
X146968426Y-116479668D01*
X146853776Y-116556274D01*
X146756274Y-116653776D01*
X146679668Y-116768426D01*
X146626901Y-116895818D01*
X146600000Y-117031056D01*
X146600000Y-117168944D01*
X146626901Y-117304182D01*
X146679668Y-117431574D01*
X146756274Y-117546224D01*
X146853776Y-117643726D01*
X146968426Y-117720332D01*
X147095818Y-117773099D01*
X147231056Y-117800000D01*
X147292894Y-117800000D01*
X147400001Y-117907106D01*
X147400000Y-118392895D01*
X147263820Y-118529075D01*
X147244737Y-118544736D01*
X147182255Y-118620871D01*
X147174262Y-118635825D01*
X147135826Y-118707733D01*
X147107235Y-118801983D01*
X147097581Y-118900000D01*
X147100001Y-118924570D01*
X147100001Y-120926069D01*
X146968944Y-120900000D01*
X146831056Y-120900000D01*
X146695818Y-120926901D01*
X146568426Y-120979668D01*
X146453776Y-121056274D01*
X146356274Y-121153776D01*
X146279668Y-121268426D01*
X146226901Y-121395818D01*
X146200000Y-121531056D01*
X146200000Y-121592894D01*
X145992895Y-121800000D01*
X145373931Y-121800000D01*
X145400000Y-121668944D01*
X145400000Y-121531056D01*
X145373099Y-121395818D01*
X145320332Y-121268426D01*
X145243726Y-121153776D01*
X145146224Y-121056274D01*
X145031574Y-120979668D01*
X144954974Y-120947940D01*
X144973099Y-120904182D01*
X145000000Y-120768944D01*
X145000000Y-120631056D01*
X144973099Y-120495818D01*
X144920332Y-120368426D01*
X144843726Y-120253776D01*
X144746224Y-120156274D01*
X144662003Y-120100000D01*
X144746224Y-120043726D01*
X144843726Y-119946224D01*
X144920332Y-119831574D01*
X144973099Y-119704182D01*
X145000000Y-119568944D01*
X145000000Y-119431056D01*
X144973099Y-119295818D01*
X144920332Y-119168426D01*
X144843726Y-119053776D01*
X144746224Y-118956274D01*
X144631574Y-118879668D01*
X144504182Y-118826901D01*
X144368944Y-118800000D01*
X144231056Y-118800000D01*
X144095818Y-118826901D01*
X143968426Y-118879668D01*
X143853776Y-118956274D01*
X143756274Y-119053776D01*
X143679668Y-119168426D01*
X143626901Y-119295818D01*
X143600000Y-119431056D01*
X143600000Y-119568944D01*
X143626901Y-119704182D01*
X143679668Y-119831574D01*
X143756274Y-119946224D01*
X143853776Y-120043726D01*
X143937997Y-120100000D01*
X143853776Y-120156274D01*
X143756274Y-120253776D01*
X143679668Y-120368426D01*
X143626901Y-120495818D01*
X143600000Y-120631056D01*
X143600000Y-120768944D01*
X143626901Y-120904182D01*
X143679668Y-121031574D01*
X143725388Y-121100000D01*
X141707106Y-121100000D01*
X140770929Y-120163824D01*
X140755264Y-120144736D01*
X140743443Y-120135035D01*
X140809776Y-120068702D01*
X140952045Y-119855781D01*
X141050042Y-119619196D01*
X141100000Y-119368039D01*
X141100000Y-119111961D01*
X141050042Y-118860804D01*
X140952045Y-118624219D01*
X140809776Y-118411298D01*
X140628702Y-118230224D01*
X140415781Y-118087955D01*
X140208111Y-118001935D01*
X140700000Y-118001935D01*
X140778414Y-117994212D01*
X140853814Y-117971340D01*
X140923303Y-117934197D01*
X140984211Y-117884211D01*
X141034197Y-117823303D01*
X141071340Y-117753814D01*
X141094212Y-117678414D01*
X141101935Y-117600000D01*
X141101935Y-117250000D01*
X141172992Y-117250000D01*
X141200000Y-117252660D01*
X141227008Y-117250000D01*
X141227018Y-117250000D01*
X141307819Y-117242042D01*
X141411494Y-117210592D01*
X141507042Y-117159521D01*
X141590790Y-117090790D01*
X141608014Y-117069803D01*
X141769800Y-116908017D01*
X141790790Y-116890790D01*
X141859521Y-116807042D01*
X141910592Y-116711494D01*
X141942042Y-116607819D01*
X141950000Y-116527018D01*
X141950000Y-116527011D01*
X141952660Y-116500000D01*
X141950000Y-116472989D01*
X141950000Y-115972982D01*
X141942042Y-115892181D01*
X141910592Y-115788506D01*
X141900000Y-115768690D01*
X141900000Y-114807105D01*
X142307107Y-114400000D01*
X143492894Y-114400000D01*
X143712373Y-114619479D01*
X143679668Y-114668426D01*
X143626901Y-114795818D01*
X143600000Y-114931056D01*
X143600000Y-115068944D01*
X143626901Y-115204182D01*
X143679668Y-115331574D01*
X143756274Y-115446224D01*
X143853776Y-115543726D01*
X143863166Y-115550000D01*
X143853776Y-115556274D01*
X143756274Y-115653776D01*
X143679668Y-115768426D01*
X143626901Y-115895818D01*
X143600000Y-116031056D01*
X143600000Y-116168944D01*
X143626901Y-116304182D01*
X143679668Y-116431574D01*
X143756274Y-116546224D01*
X143853776Y-116643726D01*
X143968426Y-116720332D01*
X144095818Y-116773099D01*
X144231056Y-116800000D01*
X144368944Y-116800000D01*
X144504182Y-116773099D01*
X144631574Y-116720332D01*
X144746224Y-116643726D01*
X144843726Y-116546224D01*
X144920332Y-116431574D01*
X144973099Y-116304182D01*
X145000000Y-116168944D01*
X145000000Y-116031056D01*
X144973099Y-115895818D01*
X144920332Y-115768426D01*
X144843726Y-115653776D01*
X144746224Y-115556274D01*
X144736834Y-115550000D01*
X144746224Y-115543726D01*
X144843726Y-115446224D01*
X144920332Y-115331574D01*
X144973099Y-115204182D01*
X145000000Y-115068944D01*
X145000000Y-114931056D01*
X144977621Y-114818552D01*
X144979129Y-114817746D01*
X145055264Y-114755264D01*
X145070929Y-114736176D01*
X145336176Y-114470929D01*
X145355264Y-114455264D01*
X145417746Y-114379129D01*
X145464175Y-114292267D01*
X145492765Y-114198017D01*
X145500000Y-114124560D01*
X145500000Y-114124559D01*
X145502419Y-114100001D01*
X145500000Y-114075443D01*
X145500000Y-112524557D01*
X145502419Y-112499999D01*
X145498890Y-112464174D01*
X145492765Y-112401983D01*
X145464175Y-112307733D01*
X145417746Y-112220871D01*
X145355264Y-112144736D01*
X145336181Y-112129075D01*
X144798528Y-111591422D01*
X144843726Y-111546224D01*
X144920332Y-111431574D01*
X144973099Y-111304182D01*
X145000000Y-111168944D01*
X145000000Y-111031056D01*
X144973099Y-110895818D01*
X144920332Y-110768426D01*
X144843726Y-110653776D01*
X144746224Y-110556274D01*
X144632732Y-110480442D01*
X144731056Y-110500000D01*
X144868944Y-110500000D01*
X145004182Y-110473099D01*
X145131574Y-110420332D01*
X145246224Y-110343726D01*
X145289950Y-110300000D01*
X146775440Y-110300000D01*
X146800000Y-110302419D01*
X146824560Y-110300000D01*
X146898017Y-110292765D01*
X146992267Y-110264175D01*
X147079129Y-110217746D01*
X147155264Y-110155264D01*
X147170929Y-110136177D01*
X147307106Y-110000000D01*
X147368944Y-110000000D01*
X147504182Y-109973099D01*
X147600000Y-109933410D01*
X147600000Y-110692894D01*
G36*
X141063819Y-114229076D02*
G01*
X141044737Y-114244736D01*
X140982255Y-114320871D01*
X140956100Y-114369804D01*
X140935826Y-114407733D01*
X140907235Y-114501983D01*
X140897581Y-114600000D01*
X140900001Y-114624570D01*
X140900000Y-115453347D01*
X140853814Y-115428660D01*
X140778414Y-115405788D01*
X140700000Y-115398065D01*
X138900000Y-115398065D01*
X138821586Y-115405788D01*
X138746186Y-115428660D01*
X138676697Y-115465803D01*
X138615789Y-115515789D01*
X138565803Y-115576697D01*
X138528660Y-115646186D01*
X138505788Y-115721586D01*
X138498065Y-115800000D01*
X138498065Y-117535101D01*
X138443726Y-117453776D01*
X138346224Y-117356274D01*
X138231574Y-117279668D01*
X138104182Y-117226901D01*
X138100000Y-117226069D01*
X138100000Y-114424557D01*
X138102419Y-114399999D01*
X138098855Y-114363814D01*
X138092765Y-114301983D01*
X138064175Y-114207733D01*
X138017746Y-114120871D01*
X137955264Y-114044736D01*
X137936176Y-114029071D01*
X137807105Y-113900000D01*
X141392894Y-113900000D01*
X141063819Y-114229076D01*
X141063819Y-114229076D01*
G37*
X141063819Y-114229076D02*
X141044737Y-114244736D01*
X140982255Y-114320871D01*
X140956100Y-114369804D01*
X140935826Y-114407733D01*
X140907235Y-114501983D01*
X140897581Y-114600000D01*
X140900001Y-114624570D01*
X140900000Y-115453347D01*
X140853814Y-115428660D01*
X140778414Y-115405788D01*
X140700000Y-115398065D01*
X138900000Y-115398065D01*
X138821586Y-115405788D01*
X138746186Y-115428660D01*
X138676697Y-115465803D01*
X138615789Y-115515789D01*
X138565803Y-115576697D01*
X138528660Y-115646186D01*
X138505788Y-115721586D01*
X138498065Y-115800000D01*
X138498065Y-117535101D01*
X138443726Y-117453776D01*
X138346224Y-117356274D01*
X138231574Y-117279668D01*
X138104182Y-117226901D01*
X138100000Y-117226069D01*
X138100000Y-114424557D01*
X138102419Y-114399999D01*
X138098855Y-114363814D01*
X138092765Y-114301983D01*
X138064175Y-114207733D01*
X138017746Y-114120871D01*
X137955264Y-114044736D01*
X137936176Y-114029071D01*
X137807105Y-113900000D01*
X141392894Y-113900000D01*
X141063819Y-114229076D01*
G36*
X132600000Y-113507107D02*
G01*
X132600001Y-114375430D01*
X132598435Y-114391329D01*
X131700000Y-113492895D01*
X131700000Y-113089950D01*
X131743726Y-113046224D01*
X131820332Y-112931574D01*
X131873099Y-112804182D01*
X131877077Y-112784183D01*
X132600000Y-113507107D01*
X132600000Y-113507107D01*
G37*
X132600000Y-113507107D02*
X132600001Y-114375430D01*
X132598435Y-114391329D01*
X131700000Y-113492895D01*
X131700000Y-113089950D01*
X131743726Y-113046224D01*
X131820332Y-112931574D01*
X131873099Y-112804182D01*
X131877077Y-112784183D01*
X132600000Y-113507107D01*
G36*
X151700000Y-113900000D02*
G01*
X151720000Y-113900000D01*
X151720000Y-114100000D01*
X151700000Y-114100000D01*
X151700000Y-114120000D01*
X151500000Y-114120000D01*
X151500000Y-114100000D01*
X151480000Y-114100000D01*
X151480000Y-113900000D01*
X151500000Y-113900000D01*
X151500000Y-113880000D01*
X151700000Y-113880000D01*
X151700000Y-113900000D01*
X151700000Y-113900000D01*
G37*
X151700000Y-113900000D02*
X151720000Y-113900000D01*
X151720000Y-114100000D01*
X151700000Y-114100000D01*
X151700000Y-114120000D01*
X151500000Y-114120000D01*
X151500000Y-114100000D01*
X151480000Y-114100000D01*
X151480000Y-113900000D01*
X151500000Y-113900000D01*
X151500000Y-113880000D01*
X151700000Y-113880000D01*
X151700000Y-113900000D01*
G36*
X134479668Y-112731574D02*
G01*
X134556274Y-112846224D01*
X134653776Y-112943726D01*
X134671187Y-112955359D01*
X134620871Y-112982254D01*
X134544736Y-113044736D01*
X134529071Y-113063824D01*
X134400000Y-113192895D01*
X134400000Y-112807106D01*
X134436181Y-112770925D01*
X134455264Y-112755264D01*
X134478004Y-112727556D01*
X134479668Y-112731574D01*
X134479668Y-112731574D01*
G37*
X134479668Y-112731574D02*
X134556274Y-112846224D01*
X134653776Y-112943726D01*
X134671187Y-112955359D01*
X134620871Y-112982254D01*
X134544736Y-113044736D01*
X134529071Y-113063824D01*
X134400000Y-113192895D01*
X134400000Y-112807106D01*
X134436181Y-112770925D01*
X134455264Y-112755264D01*
X134478004Y-112727556D01*
X134479668Y-112731574D01*
G36*
X128700001Y-104512470D02*
G01*
X128618767Y-104478822D01*
X128473869Y-104450000D01*
X128326131Y-104450000D01*
X128181233Y-104478822D01*
X128044742Y-104535359D01*
X127921903Y-104617437D01*
X127817437Y-104721903D01*
X127735359Y-104844742D01*
X127678822Y-104981233D01*
X127650000Y-105126131D01*
X127650000Y-105273869D01*
X127678822Y-105418767D01*
X127735359Y-105555258D01*
X127817437Y-105678097D01*
X127839340Y-105700000D01*
X127817437Y-105721903D01*
X127735359Y-105844742D01*
X127678822Y-105981233D01*
X127650000Y-106126131D01*
X127650000Y-106273869D01*
X127678822Y-106418767D01*
X127712470Y-106500000D01*
X126727359Y-106500000D01*
X126702801Y-106497581D01*
X126678243Y-106500000D01*
X126678242Y-106500000D01*
X126604785Y-106507235D01*
X126510535Y-106535825D01*
X126423673Y-106582254D01*
X126347538Y-106644736D01*
X126331877Y-106663819D01*
X123803815Y-109191882D01*
X123784727Y-109207547D01*
X123722245Y-109283682D01*
X123675816Y-109370545D01*
X123656190Y-109435243D01*
X123647226Y-109464794D01*
X123637572Y-109562811D01*
X123639991Y-109587371D01*
X123639992Y-111843771D01*
X122400000Y-113083764D01*
X122400000Y-110707105D01*
X123236187Y-109870920D01*
X123255264Y-109855264D01*
X123317746Y-109779129D01*
X123364175Y-109692267D01*
X123392765Y-109598017D01*
X123400000Y-109524560D01*
X123400000Y-109524559D01*
X123402419Y-109500000D01*
X123400000Y-109475440D01*
X123400000Y-108807105D01*
X128700000Y-103507106D01*
X128700001Y-104512470D01*
X128700001Y-104512470D01*
G37*
X128700001Y-104512470D02*
X128618767Y-104478822D01*
X128473869Y-104450000D01*
X128326131Y-104450000D01*
X128181233Y-104478822D01*
X128044742Y-104535359D01*
X127921903Y-104617437D01*
X127817437Y-104721903D01*
X127735359Y-104844742D01*
X127678822Y-104981233D01*
X127650000Y-105126131D01*
X127650000Y-105273869D01*
X127678822Y-105418767D01*
X127735359Y-105555258D01*
X127817437Y-105678097D01*
X127839340Y-105700000D01*
X127817437Y-105721903D01*
X127735359Y-105844742D01*
X127678822Y-105981233D01*
X127650000Y-106126131D01*
X127650000Y-106273869D01*
X127678822Y-106418767D01*
X127712470Y-106500000D01*
X126727359Y-106500000D01*
X126702801Y-106497581D01*
X126678243Y-106500000D01*
X126678242Y-106500000D01*
X126604785Y-106507235D01*
X126510535Y-106535825D01*
X126423673Y-106582254D01*
X126347538Y-106644736D01*
X126331877Y-106663819D01*
X123803815Y-109191882D01*
X123784727Y-109207547D01*
X123722245Y-109283682D01*
X123675816Y-109370545D01*
X123656190Y-109435243D01*
X123647226Y-109464794D01*
X123637572Y-109562811D01*
X123639991Y-109587371D01*
X123639992Y-111843771D01*
X122400000Y-113083764D01*
X122400000Y-110707105D01*
X123236187Y-109870920D01*
X123255264Y-109855264D01*
X123317746Y-109779129D01*
X123364175Y-109692267D01*
X123392765Y-109598017D01*
X123400000Y-109524560D01*
X123400000Y-109524559D01*
X123402419Y-109500000D01*
X123400000Y-109475440D01*
X123400000Y-108807105D01*
X128700000Y-103507106D01*
X128700001Y-104512470D01*
G36*
X133055504Y-111370919D02*
G01*
X133035826Y-111407733D01*
X133007235Y-111501983D01*
X132997581Y-111600000D01*
X133000001Y-111624570D01*
X133000001Y-112492894D01*
X132458467Y-111951361D01*
X132470929Y-111936176D01*
X133077685Y-111329420D01*
X133055504Y-111370919D01*
X133055504Y-111370919D01*
G37*
X133055504Y-111370919D02*
X133035826Y-111407733D01*
X133007235Y-111501983D01*
X132997581Y-111600000D01*
X133000001Y-111624570D01*
X133000001Y-112492894D01*
X132458467Y-111951361D01*
X132470929Y-111936176D01*
X133077685Y-111329420D01*
X133055504Y-111370919D01*
G36*
X151700000Y-111360000D02*
G01*
X151720000Y-111360000D01*
X151720000Y-111560000D01*
X151700000Y-111560000D01*
X151700000Y-111580000D01*
X151500000Y-111580000D01*
X151500000Y-111560000D01*
X151480000Y-111560000D01*
X151480000Y-111360000D01*
X151500000Y-111360000D01*
X151500000Y-111340000D01*
X151700000Y-111340000D01*
X151700000Y-111360000D01*
X151700000Y-111360000D01*
G37*
X151700000Y-111360000D02*
X151720000Y-111360000D01*
X151720000Y-111560000D01*
X151700000Y-111560000D01*
X151700000Y-111580000D01*
X151500000Y-111580000D01*
X151500000Y-111560000D01*
X151480000Y-111560000D01*
X151480000Y-111360000D01*
X151500000Y-111360000D01*
X151500000Y-111340000D01*
X151700000Y-111340000D01*
X151700000Y-111360000D01*
G36*
X141212373Y-109119479D02*
G01*
X141179668Y-109168426D01*
X141126901Y-109295818D01*
X141100000Y-109431056D01*
X141100000Y-109568944D01*
X141126901Y-109704182D01*
X141179668Y-109831574D01*
X141256274Y-109946224D01*
X141353776Y-110043726D01*
X141468426Y-110120332D01*
X141595818Y-110173099D01*
X141731056Y-110200000D01*
X141868944Y-110200000D01*
X142004182Y-110173099D01*
X142131574Y-110120332D01*
X142246224Y-110043726D01*
X142343726Y-109946224D01*
X142420332Y-109831574D01*
X142450833Y-109757938D01*
X142829075Y-110136181D01*
X142844736Y-110155264D01*
X142920871Y-110217746D01*
X143007733Y-110264175D01*
X143101983Y-110292765D01*
X143175440Y-110300000D01*
X143175441Y-110300000D01*
X143199999Y-110302419D01*
X143224557Y-110300000D01*
X143410050Y-110300000D01*
X143453776Y-110343726D01*
X143568426Y-110420332D01*
X143695818Y-110473099D01*
X143831056Y-110500000D01*
X143937997Y-110500000D01*
X143853776Y-110556274D01*
X143756274Y-110653776D01*
X143679668Y-110768426D01*
X143626901Y-110895818D01*
X143600000Y-111031056D01*
X143600000Y-111168944D01*
X143626901Y-111304182D01*
X143666590Y-111400000D01*
X140607106Y-111400000D01*
X140000000Y-110792895D01*
X140000000Y-109473931D01*
X140004182Y-109473099D01*
X140131574Y-109420332D01*
X140246224Y-109343726D01*
X140343726Y-109246224D01*
X140420332Y-109131574D01*
X140473099Y-109004182D01*
X140500000Y-108868944D01*
X140500000Y-108731056D01*
X140473099Y-108595818D01*
X140420332Y-108468426D01*
X140374612Y-108400000D01*
X140492895Y-108400000D01*
X141212373Y-109119479D01*
X141212373Y-109119479D01*
G37*
X141212373Y-109119479D02*
X141179668Y-109168426D01*
X141126901Y-109295818D01*
X141100000Y-109431056D01*
X141100000Y-109568944D01*
X141126901Y-109704182D01*
X141179668Y-109831574D01*
X141256274Y-109946224D01*
X141353776Y-110043726D01*
X141468426Y-110120332D01*
X141595818Y-110173099D01*
X141731056Y-110200000D01*
X141868944Y-110200000D01*
X142004182Y-110173099D01*
X142131574Y-110120332D01*
X142246224Y-110043726D01*
X142343726Y-109946224D01*
X142420332Y-109831574D01*
X142450833Y-109757938D01*
X142829075Y-110136181D01*
X142844736Y-110155264D01*
X142920871Y-110217746D01*
X143007733Y-110264175D01*
X143101983Y-110292765D01*
X143175440Y-110300000D01*
X143175441Y-110300000D01*
X143199999Y-110302419D01*
X143224557Y-110300000D01*
X143410050Y-110300000D01*
X143453776Y-110343726D01*
X143568426Y-110420332D01*
X143695818Y-110473099D01*
X143831056Y-110500000D01*
X143937997Y-110500000D01*
X143853776Y-110556274D01*
X143756274Y-110653776D01*
X143679668Y-110768426D01*
X143626901Y-110895818D01*
X143600000Y-111031056D01*
X143600000Y-111168944D01*
X143626901Y-111304182D01*
X143666590Y-111400000D01*
X140607106Y-111400000D01*
X140000000Y-110792895D01*
X140000000Y-109473931D01*
X140004182Y-109473099D01*
X140131574Y-109420332D01*
X140246224Y-109343726D01*
X140343726Y-109246224D01*
X140420332Y-109131574D01*
X140473099Y-109004182D01*
X140500000Y-108868944D01*
X140500000Y-108731056D01*
X140473099Y-108595818D01*
X140420332Y-108468426D01*
X140374612Y-108400000D01*
X140492895Y-108400000D01*
X141212373Y-109119479D01*
G36*
X142100000Y-101231056D02*
G01*
X142100000Y-101368944D01*
X142126901Y-101504182D01*
X142179668Y-101631574D01*
X142256274Y-101746224D01*
X142353776Y-101843726D01*
X142468426Y-101920332D01*
X142595818Y-101973099D01*
X142731056Y-102000000D01*
X142868944Y-102000000D01*
X143004182Y-101973099D01*
X143131574Y-101920332D01*
X143246224Y-101843726D01*
X143343726Y-101746224D01*
X143420332Y-101631574D01*
X143473099Y-101504182D01*
X143500000Y-101368944D01*
X143500000Y-101231056D01*
X143473931Y-101100000D01*
X148900000Y-101100000D01*
X148900000Y-102606178D01*
X148795818Y-102626901D01*
X148668426Y-102679668D01*
X148553776Y-102756274D01*
X148550000Y-102760050D01*
X148546224Y-102756274D01*
X148431574Y-102679668D01*
X148304182Y-102626901D01*
X148168944Y-102600000D01*
X148031056Y-102600000D01*
X147895818Y-102626901D01*
X147768426Y-102679668D01*
X147653776Y-102756274D01*
X147556274Y-102853776D01*
X147479668Y-102968426D01*
X147426901Y-103095818D01*
X147400000Y-103231056D01*
X147400000Y-103368944D01*
X147426901Y-103504182D01*
X147479668Y-103631574D01*
X147556274Y-103746224D01*
X147653776Y-103843726D01*
X147768426Y-103920332D01*
X147895818Y-103973099D01*
X148031056Y-104000000D01*
X148168944Y-104000000D01*
X148304182Y-103973099D01*
X148431574Y-103920332D01*
X148546224Y-103843726D01*
X148550000Y-103839950D01*
X148553776Y-103843726D01*
X148668426Y-103920332D01*
X148795818Y-103973099D01*
X148900000Y-103993822D01*
X148900000Y-106000000D01*
X148901921Y-106019509D01*
X148907612Y-106038268D01*
X148916853Y-106055557D01*
X148929289Y-106070711D01*
X148944443Y-106083147D01*
X148961732Y-106092388D01*
X148980491Y-106098079D01*
X149000000Y-106100000D01*
X154900000Y-106100000D01*
X154900000Y-107909068D01*
X154845415Y-107864271D01*
X154625899Y-107746937D01*
X154387709Y-107674683D01*
X154202077Y-107656400D01*
X154077923Y-107656400D01*
X153892291Y-107674683D01*
X153654101Y-107746937D01*
X153434585Y-107864271D01*
X153242177Y-108022177D01*
X153084271Y-108214585D01*
X152966937Y-108434101D01*
X152894683Y-108672291D01*
X152870286Y-108920000D01*
X152894683Y-109167709D01*
X152931873Y-109290310D01*
X152865535Y-109356648D01*
X152865535Y-108056400D01*
X152857812Y-107977986D01*
X152834940Y-107902586D01*
X152797797Y-107833097D01*
X152747811Y-107772189D01*
X152686903Y-107722203D01*
X152645365Y-107700000D01*
X152768944Y-107700000D01*
X152904182Y-107673099D01*
X153031574Y-107620332D01*
X153146224Y-107543726D01*
X153243726Y-107446224D01*
X153320332Y-107331574D01*
X153373099Y-107204182D01*
X153400000Y-107068944D01*
X153400000Y-106931056D01*
X153373099Y-106795818D01*
X153320332Y-106668426D01*
X153243726Y-106553776D01*
X153146224Y-106456274D01*
X153031574Y-106379668D01*
X152904182Y-106326901D01*
X152768944Y-106300000D01*
X152631056Y-106300000D01*
X152495818Y-106326901D01*
X152368426Y-106379668D01*
X152263166Y-106450000D01*
X152027007Y-106450000D01*
X151999999Y-106447340D01*
X151972991Y-106450000D01*
X151972982Y-106450000D01*
X151892181Y-106457958D01*
X151788506Y-106489408D01*
X151692958Y-106540479D01*
X151692956Y-106540480D01*
X151692957Y-106540480D01*
X151630195Y-106591987D01*
X151630190Y-106591992D01*
X151609210Y-106609210D01*
X151591991Y-106630191D01*
X151230191Y-106991992D01*
X151209211Y-107009210D01*
X151191993Y-107030190D01*
X151191987Y-107030196D01*
X151140479Y-107092958D01*
X151107972Y-107153776D01*
X151089409Y-107188506D01*
X151057959Y-107292181D01*
X151056495Y-107307042D01*
X151047340Y-107400000D01*
X151050001Y-107427018D01*
X151050001Y-107654465D01*
X150736400Y-107654465D01*
X150657986Y-107662188D01*
X150600000Y-107679778D01*
X150600000Y-107389950D01*
X150643726Y-107346224D01*
X150720332Y-107231574D01*
X150773099Y-107104182D01*
X150800000Y-106968944D01*
X150800000Y-106831056D01*
X150773099Y-106695818D01*
X150720332Y-106568426D01*
X150643726Y-106453776D01*
X150546224Y-106356274D01*
X150431574Y-106279668D01*
X150304182Y-106226901D01*
X150168944Y-106200000D01*
X150031056Y-106200000D01*
X149895818Y-106226901D01*
X149768426Y-106279668D01*
X149653776Y-106356274D01*
X149556274Y-106453776D01*
X149479668Y-106568426D01*
X149426901Y-106695818D01*
X149400000Y-106831056D01*
X149400000Y-106968944D01*
X149426901Y-107104182D01*
X149479668Y-107231574D01*
X149556274Y-107346224D01*
X149600001Y-107389951D01*
X149600000Y-108810050D01*
X149546224Y-108756274D01*
X149431574Y-108679668D01*
X149304182Y-108626901D01*
X149168944Y-108600000D01*
X149031056Y-108600000D01*
X148895818Y-108626901D01*
X148768426Y-108679668D01*
X148653776Y-108756274D01*
X148600000Y-108810050D01*
X148600000Y-107124560D01*
X148602419Y-107100000D01*
X148592765Y-107001983D01*
X148585996Y-106979668D01*
X148564175Y-106907733D01*
X148517746Y-106820871D01*
X148455264Y-106744736D01*
X148436187Y-106729080D01*
X147670929Y-105963824D01*
X147655264Y-105944736D01*
X147579129Y-105882254D01*
X147492267Y-105835825D01*
X147398017Y-105807235D01*
X147324560Y-105800000D01*
X147300000Y-105797581D01*
X147275440Y-105800000D01*
X145389950Y-105800000D01*
X145346224Y-105756274D01*
X145231574Y-105679668D01*
X145104182Y-105626901D01*
X144968944Y-105600000D01*
X144900000Y-105600000D01*
X144900000Y-105531056D01*
X144873099Y-105395818D01*
X144820332Y-105268426D01*
X144743726Y-105153776D01*
X144646224Y-105056274D01*
X144531574Y-104979668D01*
X144404182Y-104926901D01*
X144268944Y-104900000D01*
X144131056Y-104900000D01*
X143995818Y-104926901D01*
X143868426Y-104979668D01*
X143753776Y-105056274D01*
X143656274Y-105153776D01*
X143579668Y-105268426D01*
X143526901Y-105395818D01*
X143500000Y-105531056D01*
X143500000Y-105668944D01*
X143526901Y-105804182D01*
X143579668Y-105931574D01*
X143656274Y-106046224D01*
X143753776Y-106143726D01*
X143868426Y-106220332D01*
X143995818Y-106273099D01*
X144131056Y-106300000D01*
X144200000Y-106300000D01*
X144200000Y-106368944D01*
X144226901Y-106504182D01*
X144279668Y-106631574D01*
X144356274Y-106746224D01*
X144453776Y-106843726D01*
X144568426Y-106920332D01*
X144695818Y-106973099D01*
X144831056Y-107000000D01*
X144968944Y-107000000D01*
X145104182Y-106973099D01*
X145231574Y-106920332D01*
X145346224Y-106843726D01*
X145389950Y-106800000D01*
X147092895Y-106800000D01*
X147600001Y-107307108D01*
X147600001Y-108666590D01*
X147504182Y-108626901D01*
X147368944Y-108600000D01*
X147231056Y-108600000D01*
X147095818Y-108626901D01*
X146968426Y-108679668D01*
X146853776Y-108756274D01*
X146756274Y-108853776D01*
X146679668Y-108968426D01*
X146626901Y-109095818D01*
X146600000Y-109231056D01*
X146600000Y-109292894D01*
X146592894Y-109300000D01*
X145289950Y-109300000D01*
X145246224Y-109256274D01*
X145131574Y-109179668D01*
X145004182Y-109126901D01*
X144989069Y-109123895D01*
X145000000Y-109068944D01*
X145000000Y-108931056D01*
X144973099Y-108795818D01*
X144920332Y-108668426D01*
X144843726Y-108553776D01*
X144746224Y-108456274D01*
X144631574Y-108379668D01*
X144559948Y-108350000D01*
X144631574Y-108320332D01*
X144746224Y-108243726D01*
X144843726Y-108146224D01*
X144920332Y-108031574D01*
X144973099Y-107904182D01*
X145000000Y-107768944D01*
X145000000Y-107631056D01*
X144973099Y-107495818D01*
X144920332Y-107368426D01*
X144843726Y-107253776D01*
X144746224Y-107156274D01*
X144631574Y-107079668D01*
X144504182Y-107026901D01*
X144368944Y-107000000D01*
X144231056Y-107000000D01*
X144095818Y-107026901D01*
X143968426Y-107079668D01*
X143853776Y-107156274D01*
X143756274Y-107253776D01*
X143679668Y-107368426D01*
X143626901Y-107495818D01*
X143600000Y-107631056D01*
X143600000Y-107768944D01*
X143626901Y-107904182D01*
X143679668Y-108031574D01*
X143756274Y-108146224D01*
X143853776Y-108243726D01*
X143968426Y-108320332D01*
X144040052Y-108350000D01*
X143968426Y-108379668D01*
X143853776Y-108456274D01*
X143756274Y-108553776D01*
X143679668Y-108668426D01*
X143626901Y-108795818D01*
X143600000Y-108931056D01*
X143600000Y-109068944D01*
X143617945Y-109159157D01*
X143568426Y-109179668D01*
X143453776Y-109256274D01*
X143410050Y-109300000D01*
X143407106Y-109300000D01*
X141270929Y-107163824D01*
X141255264Y-107144736D01*
X141179129Y-107082254D01*
X141092267Y-107035825D01*
X140998017Y-107007235D01*
X140924560Y-107000000D01*
X140900000Y-106997581D01*
X140875440Y-107000000D01*
X138492163Y-107000000D01*
X138492765Y-106998017D01*
X138500000Y-106924560D01*
X138500000Y-106924559D01*
X138502419Y-106900000D01*
X138500000Y-106875440D01*
X138500000Y-106789950D01*
X138543726Y-106746224D01*
X138620332Y-106631574D01*
X138673099Y-106504182D01*
X138700000Y-106368944D01*
X138700000Y-106231056D01*
X138673099Y-106095818D01*
X138620332Y-105968426D01*
X138543726Y-105853776D01*
X138446224Y-105756274D01*
X138331574Y-105679668D01*
X138257939Y-105649168D01*
X138407107Y-105500000D01*
X139310050Y-105500000D01*
X139353776Y-105543726D01*
X139468426Y-105620332D01*
X139595818Y-105673099D01*
X139731056Y-105700000D01*
X139868944Y-105700000D01*
X140004182Y-105673099D01*
X140131574Y-105620332D01*
X140246224Y-105543726D01*
X140343726Y-105446224D01*
X140420332Y-105331574D01*
X140473099Y-105204182D01*
X140500000Y-105068944D01*
X140500000Y-104931056D01*
X140473099Y-104795818D01*
X140420332Y-104668426D01*
X140343726Y-104553776D01*
X140246224Y-104456274D01*
X140131574Y-104379668D01*
X140004182Y-104326901D01*
X139985152Y-104323116D01*
X139992765Y-104298017D01*
X140000000Y-104224560D01*
X140000000Y-104224551D01*
X140002418Y-104200001D01*
X140000000Y-104175451D01*
X140000000Y-103931056D01*
X143500000Y-103931056D01*
X143500000Y-104068944D01*
X143526901Y-104204182D01*
X143579668Y-104331574D01*
X143656274Y-104446224D01*
X143753776Y-104543726D01*
X143868426Y-104620332D01*
X143995818Y-104673099D01*
X144131056Y-104700000D01*
X144268944Y-104700000D01*
X144404182Y-104673099D01*
X144531574Y-104620332D01*
X144646224Y-104543726D01*
X144743726Y-104446224D01*
X144820332Y-104331574D01*
X144873099Y-104204182D01*
X144900000Y-104068944D01*
X144900000Y-103931056D01*
X144873099Y-103795818D01*
X144820332Y-103668426D01*
X144743726Y-103553776D01*
X144646224Y-103456274D01*
X144531574Y-103379668D01*
X144404182Y-103326901D01*
X144268944Y-103300000D01*
X144131056Y-103300000D01*
X143995818Y-103326901D01*
X143868426Y-103379668D01*
X143753776Y-103456274D01*
X143656274Y-103553776D01*
X143579668Y-103668426D01*
X143526901Y-103795818D01*
X143500000Y-103931056D01*
X140000000Y-103931056D01*
X140000000Y-102224560D01*
X140002419Y-102200000D01*
X139992765Y-102101983D01*
X139987354Y-102084145D01*
X139964175Y-102007733D01*
X139917746Y-101920871D01*
X139898633Y-101897581D01*
X139870920Y-101863813D01*
X139855264Y-101844736D01*
X139836187Y-101829080D01*
X139107105Y-101100000D01*
X142126069Y-101100000D01*
X142100000Y-101231056D01*
X142100000Y-101231056D01*
G37*
X142100000Y-101231056D02*
X142100000Y-101368944D01*
X142126901Y-101504182D01*
X142179668Y-101631574D01*
X142256274Y-101746224D01*
X142353776Y-101843726D01*
X142468426Y-101920332D01*
X142595818Y-101973099D01*
X142731056Y-102000000D01*
X142868944Y-102000000D01*
X143004182Y-101973099D01*
X143131574Y-101920332D01*
X143246224Y-101843726D01*
X143343726Y-101746224D01*
X143420332Y-101631574D01*
X143473099Y-101504182D01*
X143500000Y-101368944D01*
X143500000Y-101231056D01*
X143473931Y-101100000D01*
X148900000Y-101100000D01*
X148900000Y-102606178D01*
X148795818Y-102626901D01*
X148668426Y-102679668D01*
X148553776Y-102756274D01*
X148550000Y-102760050D01*
X148546224Y-102756274D01*
X148431574Y-102679668D01*
X148304182Y-102626901D01*
X148168944Y-102600000D01*
X148031056Y-102600000D01*
X147895818Y-102626901D01*
X147768426Y-102679668D01*
X147653776Y-102756274D01*
X147556274Y-102853776D01*
X147479668Y-102968426D01*
X147426901Y-103095818D01*
X147400000Y-103231056D01*
X147400000Y-103368944D01*
X147426901Y-103504182D01*
X147479668Y-103631574D01*
X147556274Y-103746224D01*
X147653776Y-103843726D01*
X147768426Y-103920332D01*
X147895818Y-103973099D01*
X148031056Y-104000000D01*
X148168944Y-104000000D01*
X148304182Y-103973099D01*
X148431574Y-103920332D01*
X148546224Y-103843726D01*
X148550000Y-103839950D01*
X148553776Y-103843726D01*
X148668426Y-103920332D01*
X148795818Y-103973099D01*
X148900000Y-103993822D01*
X148900000Y-106000000D01*
X148901921Y-106019509D01*
X148907612Y-106038268D01*
X148916853Y-106055557D01*
X148929289Y-106070711D01*
X148944443Y-106083147D01*
X148961732Y-106092388D01*
X148980491Y-106098079D01*
X149000000Y-106100000D01*
X154900000Y-106100000D01*
X154900000Y-107909068D01*
X154845415Y-107864271D01*
X154625899Y-107746937D01*
X154387709Y-107674683D01*
X154202077Y-107656400D01*
X154077923Y-107656400D01*
X153892291Y-107674683D01*
X153654101Y-107746937D01*
X153434585Y-107864271D01*
X153242177Y-108022177D01*
X153084271Y-108214585D01*
X152966937Y-108434101D01*
X152894683Y-108672291D01*
X152870286Y-108920000D01*
X152894683Y-109167709D01*
X152931873Y-109290310D01*
X152865535Y-109356648D01*
X152865535Y-108056400D01*
X152857812Y-107977986D01*
X152834940Y-107902586D01*
X152797797Y-107833097D01*
X152747811Y-107772189D01*
X152686903Y-107722203D01*
X152645365Y-107700000D01*
X152768944Y-107700000D01*
X152904182Y-107673099D01*
X153031574Y-107620332D01*
X153146224Y-107543726D01*
X153243726Y-107446224D01*
X153320332Y-107331574D01*
X153373099Y-107204182D01*
X153400000Y-107068944D01*
X153400000Y-106931056D01*
X153373099Y-106795818D01*
X153320332Y-106668426D01*
X153243726Y-106553776D01*
X153146224Y-106456274D01*
X153031574Y-106379668D01*
X152904182Y-106326901D01*
X152768944Y-106300000D01*
X152631056Y-106300000D01*
X152495818Y-106326901D01*
X152368426Y-106379668D01*
X152263166Y-106450000D01*
X152027007Y-106450000D01*
X151999999Y-106447340D01*
X151972991Y-106450000D01*
X151972982Y-106450000D01*
X151892181Y-106457958D01*
X151788506Y-106489408D01*
X151692958Y-106540479D01*
X151692956Y-106540480D01*
X151692957Y-106540480D01*
X151630195Y-106591987D01*
X151630190Y-106591992D01*
X151609210Y-106609210D01*
X151591991Y-106630191D01*
X151230191Y-106991992D01*
X151209211Y-107009210D01*
X151191993Y-107030190D01*
X151191987Y-107030196D01*
X151140479Y-107092958D01*
X151107972Y-107153776D01*
X151089409Y-107188506D01*
X151057959Y-107292181D01*
X151056495Y-107307042D01*
X151047340Y-107400000D01*
X151050001Y-107427018D01*
X151050001Y-107654465D01*
X150736400Y-107654465D01*
X150657986Y-107662188D01*
X150600000Y-107679778D01*
X150600000Y-107389950D01*
X150643726Y-107346224D01*
X150720332Y-107231574D01*
X150773099Y-107104182D01*
X150800000Y-106968944D01*
X150800000Y-106831056D01*
X150773099Y-106695818D01*
X150720332Y-106568426D01*
X150643726Y-106453776D01*
X150546224Y-106356274D01*
X150431574Y-106279668D01*
X150304182Y-106226901D01*
X150168944Y-106200000D01*
X150031056Y-106200000D01*
X149895818Y-106226901D01*
X149768426Y-106279668D01*
X149653776Y-106356274D01*
X149556274Y-106453776D01*
X149479668Y-106568426D01*
X149426901Y-106695818D01*
X149400000Y-106831056D01*
X149400000Y-106968944D01*
X149426901Y-107104182D01*
X149479668Y-107231574D01*
X149556274Y-107346224D01*
X149600001Y-107389951D01*
X149600000Y-108810050D01*
X149546224Y-108756274D01*
X149431574Y-108679668D01*
X149304182Y-108626901D01*
X149168944Y-108600000D01*
X149031056Y-108600000D01*
X148895818Y-108626901D01*
X148768426Y-108679668D01*
X148653776Y-108756274D01*
X148600000Y-108810050D01*
X148600000Y-107124560D01*
X148602419Y-107100000D01*
X148592765Y-107001983D01*
X148585996Y-106979668D01*
X148564175Y-106907733D01*
X148517746Y-106820871D01*
X148455264Y-106744736D01*
X148436187Y-106729080D01*
X147670929Y-105963824D01*
X147655264Y-105944736D01*
X147579129Y-105882254D01*
X147492267Y-105835825D01*
X147398017Y-105807235D01*
X147324560Y-105800000D01*
X147300000Y-105797581D01*
X147275440Y-105800000D01*
X145389950Y-105800000D01*
X145346224Y-105756274D01*
X145231574Y-105679668D01*
X145104182Y-105626901D01*
X144968944Y-105600000D01*
X144900000Y-105600000D01*
X144900000Y-105531056D01*
X144873099Y-105395818D01*
X144820332Y-105268426D01*
X144743726Y-105153776D01*
X144646224Y-105056274D01*
X144531574Y-104979668D01*
X144404182Y-104926901D01*
X144268944Y-104900000D01*
X144131056Y-104900000D01*
X143995818Y-104926901D01*
X143868426Y-104979668D01*
X143753776Y-105056274D01*
X143656274Y-105153776D01*
X143579668Y-105268426D01*
X143526901Y-105395818D01*
X143500000Y-105531056D01*
X143500000Y-105668944D01*
X143526901Y-105804182D01*
X143579668Y-105931574D01*
X143656274Y-106046224D01*
X143753776Y-106143726D01*
X143868426Y-106220332D01*
X143995818Y-106273099D01*
X144131056Y-106300000D01*
X144200000Y-106300000D01*
X144200000Y-106368944D01*
X144226901Y-106504182D01*
X144279668Y-106631574D01*
X144356274Y-106746224D01*
X144453776Y-106843726D01*
X144568426Y-106920332D01*
X144695818Y-106973099D01*
X144831056Y-107000000D01*
X144968944Y-107000000D01*
X145104182Y-106973099D01*
X145231574Y-106920332D01*
X145346224Y-106843726D01*
X145389950Y-106800000D01*
X147092895Y-106800000D01*
X147600001Y-107307108D01*
X147600001Y-108666590D01*
X147504182Y-108626901D01*
X147368944Y-108600000D01*
X147231056Y-108600000D01*
X147095818Y-108626901D01*
X146968426Y-108679668D01*
X146853776Y-108756274D01*
X146756274Y-108853776D01*
X146679668Y-108968426D01*
X146626901Y-109095818D01*
X146600000Y-109231056D01*
X146600000Y-109292894D01*
X146592894Y-109300000D01*
X145289950Y-109300000D01*
X145246224Y-109256274D01*
X145131574Y-109179668D01*
X145004182Y-109126901D01*
X144989069Y-109123895D01*
X145000000Y-109068944D01*
X145000000Y-108931056D01*
X144973099Y-108795818D01*
X144920332Y-108668426D01*
X144843726Y-108553776D01*
X144746224Y-108456274D01*
X144631574Y-108379668D01*
X144559948Y-108350000D01*
X144631574Y-108320332D01*
X144746224Y-108243726D01*
X144843726Y-108146224D01*
X144920332Y-108031574D01*
X144973099Y-107904182D01*
X145000000Y-107768944D01*
X145000000Y-107631056D01*
X144973099Y-107495818D01*
X144920332Y-107368426D01*
X144843726Y-107253776D01*
X144746224Y-107156274D01*
X144631574Y-107079668D01*
X144504182Y-107026901D01*
X144368944Y-107000000D01*
X144231056Y-107000000D01*
X144095818Y-107026901D01*
X143968426Y-107079668D01*
X143853776Y-107156274D01*
X143756274Y-107253776D01*
X143679668Y-107368426D01*
X143626901Y-107495818D01*
X143600000Y-107631056D01*
X143600000Y-107768944D01*
X143626901Y-107904182D01*
X143679668Y-108031574D01*
X143756274Y-108146224D01*
X143853776Y-108243726D01*
X143968426Y-108320332D01*
X144040052Y-108350000D01*
X143968426Y-108379668D01*
X143853776Y-108456274D01*
X143756274Y-108553776D01*
X143679668Y-108668426D01*
X143626901Y-108795818D01*
X143600000Y-108931056D01*
X143600000Y-109068944D01*
X143617945Y-109159157D01*
X143568426Y-109179668D01*
X143453776Y-109256274D01*
X143410050Y-109300000D01*
X143407106Y-109300000D01*
X141270929Y-107163824D01*
X141255264Y-107144736D01*
X141179129Y-107082254D01*
X141092267Y-107035825D01*
X140998017Y-107007235D01*
X140924560Y-107000000D01*
X140900000Y-106997581D01*
X140875440Y-107000000D01*
X138492163Y-107000000D01*
X138492765Y-106998017D01*
X138500000Y-106924560D01*
X138500000Y-106924559D01*
X138502419Y-106900000D01*
X138500000Y-106875440D01*
X138500000Y-106789950D01*
X138543726Y-106746224D01*
X138620332Y-106631574D01*
X138673099Y-106504182D01*
X138700000Y-106368944D01*
X138700000Y-106231056D01*
X138673099Y-106095818D01*
X138620332Y-105968426D01*
X138543726Y-105853776D01*
X138446224Y-105756274D01*
X138331574Y-105679668D01*
X138257939Y-105649168D01*
X138407107Y-105500000D01*
X139310050Y-105500000D01*
X139353776Y-105543726D01*
X139468426Y-105620332D01*
X139595818Y-105673099D01*
X139731056Y-105700000D01*
X139868944Y-105700000D01*
X140004182Y-105673099D01*
X140131574Y-105620332D01*
X140246224Y-105543726D01*
X140343726Y-105446224D01*
X140420332Y-105331574D01*
X140473099Y-105204182D01*
X140500000Y-105068944D01*
X140500000Y-104931056D01*
X140473099Y-104795818D01*
X140420332Y-104668426D01*
X140343726Y-104553776D01*
X140246224Y-104456274D01*
X140131574Y-104379668D01*
X140004182Y-104326901D01*
X139985152Y-104323116D01*
X139992765Y-104298017D01*
X140000000Y-104224560D01*
X140000000Y-104224551D01*
X140002418Y-104200001D01*
X140000000Y-104175451D01*
X140000000Y-103931056D01*
X143500000Y-103931056D01*
X143500000Y-104068944D01*
X143526901Y-104204182D01*
X143579668Y-104331574D01*
X143656274Y-104446224D01*
X143753776Y-104543726D01*
X143868426Y-104620332D01*
X143995818Y-104673099D01*
X144131056Y-104700000D01*
X144268944Y-104700000D01*
X144404182Y-104673099D01*
X144531574Y-104620332D01*
X144646224Y-104543726D01*
X144743726Y-104446224D01*
X144820332Y-104331574D01*
X144873099Y-104204182D01*
X144900000Y-104068944D01*
X144900000Y-103931056D01*
X144873099Y-103795818D01*
X144820332Y-103668426D01*
X144743726Y-103553776D01*
X144646224Y-103456274D01*
X144531574Y-103379668D01*
X144404182Y-103326901D01*
X144268944Y-103300000D01*
X144131056Y-103300000D01*
X143995818Y-103326901D01*
X143868426Y-103379668D01*
X143753776Y-103456274D01*
X143656274Y-103553776D01*
X143579668Y-103668426D01*
X143526901Y-103795818D01*
X143500000Y-103931056D01*
X140000000Y-103931056D01*
X140000000Y-102224560D01*
X140002419Y-102200000D01*
X139992765Y-102101983D01*
X139987354Y-102084145D01*
X139964175Y-102007733D01*
X139917746Y-101920871D01*
X139898633Y-101897581D01*
X139870920Y-101863813D01*
X139855264Y-101844736D01*
X139836187Y-101829080D01*
X139107105Y-101100000D01*
X142126069Y-101100000D01*
X142100000Y-101231056D01*
G36*
X134132935Y-107859960D02*
G01*
X133249995Y-107859960D01*
X133273099Y-107804182D01*
X133300000Y-107668944D01*
X133300000Y-107531056D01*
X133273099Y-107395818D01*
X133220332Y-107268426D01*
X133143726Y-107153776D01*
X133046224Y-107056274D01*
X132953067Y-106994029D01*
X133447097Y-106500000D01*
X135492894Y-106500000D01*
X134132935Y-107859960D01*
X134132935Y-107859960D01*
G37*
X134132935Y-107859960D02*
X133249995Y-107859960D01*
X133273099Y-107804182D01*
X133300000Y-107668944D01*
X133300000Y-107531056D01*
X133273099Y-107395818D01*
X133220332Y-107268426D01*
X133143726Y-107153776D01*
X133046224Y-107056274D01*
X132953067Y-106994029D01*
X133447097Y-106500000D01*
X135492894Y-106500000D01*
X134132935Y-107859960D01*
G36*
X130792895Y-107739990D02*
G01*
X128585868Y-107739990D01*
X128600000Y-107668944D01*
X128600000Y-107531056D01*
X128593822Y-107500000D01*
X131032885Y-107500000D01*
X130792895Y-107739990D01*
X130792895Y-107739990D01*
G37*
X130792895Y-107739990D02*
X128585868Y-107739990D01*
X128600000Y-107668944D01*
X128600000Y-107531056D01*
X128593822Y-107500000D01*
X131032885Y-107500000D01*
X130792895Y-107739990D01*
G36*
X131826901Y-105504182D02*
G01*
X131879668Y-105631574D01*
X131956274Y-105746224D01*
X132053776Y-105843726D01*
X132129459Y-105894295D01*
X131523755Y-106500000D01*
X130289950Y-106500000D01*
X130343726Y-106446224D01*
X130420332Y-106331574D01*
X130473099Y-106204182D01*
X130500000Y-106068944D01*
X130500000Y-105931056D01*
X130473099Y-105795818D01*
X130420332Y-105668426D01*
X130343726Y-105553776D01*
X130278768Y-105488818D01*
X130346224Y-105443746D01*
X130389950Y-105400020D01*
X131806182Y-105400020D01*
X131826901Y-105504182D01*
X131826901Y-105504182D01*
G37*
X131826901Y-105504182D02*
X131879668Y-105631574D01*
X131956274Y-105746224D01*
X132053776Y-105843726D01*
X132129459Y-105894295D01*
X131523755Y-106500000D01*
X130289950Y-106500000D01*
X130343726Y-106446224D01*
X130420332Y-106331574D01*
X130473099Y-106204182D01*
X130500000Y-106068944D01*
X130500000Y-105931056D01*
X130473099Y-105795818D01*
X130420332Y-105668426D01*
X130343726Y-105553776D01*
X130278768Y-105488818D01*
X130346224Y-105443746D01*
X130389950Y-105400020D01*
X131806182Y-105400020D01*
X131826901Y-105504182D01*
G36*
X136500000Y-102531056D02*
G01*
X136500000Y-102668944D01*
X136526901Y-102804182D01*
X136579668Y-102931574D01*
X136656274Y-103046224D01*
X136753776Y-103143726D01*
X136868426Y-103220332D01*
X136995818Y-103273099D01*
X137131056Y-103300000D01*
X137268944Y-103300000D01*
X137404182Y-103273099D01*
X137531574Y-103220332D01*
X137646224Y-103143726D01*
X137743726Y-103046224D01*
X137820332Y-102931574D01*
X137873099Y-102804182D01*
X137900000Y-102668944D01*
X137900000Y-102531056D01*
X137893822Y-102500000D01*
X138292894Y-102500000D01*
X138400001Y-102607107D01*
X138400000Y-103510050D01*
X138356274Y-103553776D01*
X138279668Y-103668426D01*
X138226901Y-103795818D01*
X138222516Y-103817861D01*
X138179129Y-103782254D01*
X138092267Y-103735825D01*
X137998017Y-103707235D01*
X137924560Y-103700000D01*
X137900000Y-103697581D01*
X137875440Y-103700000D01*
X136474612Y-103700000D01*
X136520332Y-103631574D01*
X136573099Y-103504182D01*
X136600000Y-103368944D01*
X136600000Y-103231056D01*
X136573099Y-103095818D01*
X136520332Y-102968426D01*
X136443726Y-102853776D01*
X136346224Y-102756274D01*
X136231574Y-102679668D01*
X136104182Y-102626901D01*
X135968944Y-102600000D01*
X135831056Y-102600000D01*
X135695818Y-102626901D01*
X135568426Y-102679668D01*
X135453776Y-102756274D01*
X135356274Y-102853776D01*
X135279668Y-102968426D01*
X135226901Y-103095818D01*
X135200000Y-103231056D01*
X135200000Y-103368944D01*
X135226901Y-103504182D01*
X135279668Y-103631574D01*
X135356274Y-103746224D01*
X135360050Y-103750000D01*
X135356274Y-103753776D01*
X135279668Y-103868426D01*
X135226901Y-103995818D01*
X135200000Y-104131056D01*
X135200000Y-104268944D01*
X135226901Y-104404182D01*
X135279668Y-104531574D01*
X135356274Y-104646224D01*
X135453776Y-104743726D01*
X135487707Y-104766398D01*
X135435359Y-104844742D01*
X135378822Y-104981233D01*
X135355198Y-105100000D01*
X133173931Y-105100000D01*
X133173099Y-105095818D01*
X133120332Y-104968426D01*
X133043726Y-104853776D01*
X132946224Y-104756274D01*
X132831574Y-104679668D01*
X132704182Y-104626901D01*
X132568944Y-104600000D01*
X132507105Y-104600000D01*
X132470949Y-104563844D01*
X132455284Y-104544756D01*
X132379149Y-104482274D01*
X132292287Y-104435845D01*
X132198037Y-104407255D01*
X132124580Y-104400020D01*
X132100020Y-104397601D01*
X132075460Y-104400020D01*
X130389950Y-104400020D01*
X130346224Y-104356294D01*
X130231574Y-104279688D01*
X130104182Y-104226921D01*
X129968944Y-104200020D01*
X129831056Y-104200020D01*
X129700000Y-104226089D01*
X129700000Y-103307105D01*
X130507106Y-102500000D01*
X136506178Y-102500000D01*
X136500000Y-102531056D01*
X136500000Y-102531056D01*
G37*
X136500000Y-102531056D02*
X136500000Y-102668944D01*
X136526901Y-102804182D01*
X136579668Y-102931574D01*
X136656274Y-103046224D01*
X136753776Y-103143726D01*
X136868426Y-103220332D01*
X136995818Y-103273099D01*
X137131056Y-103300000D01*
X137268944Y-103300000D01*
X137404182Y-103273099D01*
X137531574Y-103220332D01*
X137646224Y-103143726D01*
X137743726Y-103046224D01*
X137820332Y-102931574D01*
X137873099Y-102804182D01*
X137900000Y-102668944D01*
X137900000Y-102531056D01*
X137893822Y-102500000D01*
X138292894Y-102500000D01*
X138400001Y-102607107D01*
X138400000Y-103510050D01*
X138356274Y-103553776D01*
X138279668Y-103668426D01*
X138226901Y-103795818D01*
X138222516Y-103817861D01*
X138179129Y-103782254D01*
X138092267Y-103735825D01*
X137998017Y-103707235D01*
X137924560Y-103700000D01*
X137900000Y-103697581D01*
X137875440Y-103700000D01*
X136474612Y-103700000D01*
X136520332Y-103631574D01*
X136573099Y-103504182D01*
X136600000Y-103368944D01*
X136600000Y-103231056D01*
X136573099Y-103095818D01*
X136520332Y-102968426D01*
X136443726Y-102853776D01*
X136346224Y-102756274D01*
X136231574Y-102679668D01*
X136104182Y-102626901D01*
X135968944Y-102600000D01*
X135831056Y-102600000D01*
X135695818Y-102626901D01*
X135568426Y-102679668D01*
X135453776Y-102756274D01*
X135356274Y-102853776D01*
X135279668Y-102968426D01*
X135226901Y-103095818D01*
X135200000Y-103231056D01*
X135200000Y-103368944D01*
X135226901Y-103504182D01*
X135279668Y-103631574D01*
X135356274Y-103746224D01*
X135360050Y-103750000D01*
X135356274Y-103753776D01*
X135279668Y-103868426D01*
X135226901Y-103995818D01*
X135200000Y-104131056D01*
X135200000Y-104268944D01*
X135226901Y-104404182D01*
X135279668Y-104531574D01*
X135356274Y-104646224D01*
X135453776Y-104743726D01*
X135487707Y-104766398D01*
X135435359Y-104844742D01*
X135378822Y-104981233D01*
X135355198Y-105100000D01*
X133173931Y-105100000D01*
X133173099Y-105095818D01*
X133120332Y-104968426D01*
X133043726Y-104853776D01*
X132946224Y-104756274D01*
X132831574Y-104679668D01*
X132704182Y-104626901D01*
X132568944Y-104600000D01*
X132507105Y-104600000D01*
X132470949Y-104563844D01*
X132455284Y-104544756D01*
X132379149Y-104482274D01*
X132292287Y-104435845D01*
X132198037Y-104407255D01*
X132124580Y-104400020D01*
X132100020Y-104397601D01*
X132075460Y-104400020D01*
X130389950Y-104400020D01*
X130346224Y-104356294D01*
X130231574Y-104279688D01*
X130104182Y-104226921D01*
X129968944Y-104200020D01*
X129831056Y-104200020D01*
X129700000Y-104226089D01*
X129700000Y-103307105D01*
X130507106Y-102500000D01*
X136506178Y-102500000D01*
X136500000Y-102531056D01*
D27*
G36*
X113226901Y-101195818D02*
G01*
X113200000Y-101331056D01*
X113200000Y-101468944D01*
X113226901Y-101604182D01*
X113279668Y-101731574D01*
X113356274Y-101846224D01*
X113453776Y-101943726D01*
X113568426Y-102020332D01*
X113640052Y-102050000D01*
X113568426Y-102079668D01*
X113453776Y-102156274D01*
X113356274Y-102253776D01*
X113279668Y-102368426D01*
X113226901Y-102495818D01*
X113200000Y-102631056D01*
X113200000Y-102768944D01*
X113226901Y-102904182D01*
X113279668Y-103031574D01*
X113356274Y-103146224D01*
X113453776Y-103243726D01*
X113568426Y-103320332D01*
X113695818Y-103373099D01*
X113831056Y-103400000D01*
X113850000Y-103400000D01*
X113850000Y-108850000D01*
X112000000Y-108850000D01*
X111970736Y-108852882D01*
X111942597Y-108861418D01*
X111916664Y-108875280D01*
X111893934Y-108893934D01*
X111875280Y-108916664D01*
X111861418Y-108942597D01*
X111852882Y-108970736D01*
X111850000Y-109000000D01*
X111850000Y-116918628D01*
X111343381Y-116412010D01*
X111326937Y-116391973D01*
X111246996Y-116326367D01*
X111155791Y-116277617D01*
X111056828Y-116247597D01*
X110979698Y-116240000D01*
X110979690Y-116240000D01*
X110953910Y-116237461D01*
X110928130Y-116240000D01*
X110514477Y-116240000D01*
X110504888Y-116225649D01*
X110414351Y-116135112D01*
X110307890Y-116063978D01*
X110189598Y-116014979D01*
X110064019Y-115990000D01*
X109935981Y-115990000D01*
X109810402Y-116014979D01*
X109692110Y-116063978D01*
X109585649Y-116135112D01*
X109495112Y-116225649D01*
X109423978Y-116332110D01*
X109374979Y-116450402D01*
X109350000Y-116575981D01*
X109350000Y-116704019D01*
X109374979Y-116829598D01*
X109423978Y-116947890D01*
X109485523Y-117040000D01*
X109423978Y-117132110D01*
X109374979Y-117250402D01*
X109350000Y-117375981D01*
X109350000Y-117504019D01*
X109374979Y-117629598D01*
X109423978Y-117747890D01*
X109495112Y-117854351D01*
X109585649Y-117944888D01*
X109692110Y-118016022D01*
X109810402Y-118065021D01*
X109935981Y-118090000D01*
X110064019Y-118090000D01*
X110189598Y-118065021D01*
X110307890Y-118016022D01*
X110414351Y-117944888D01*
X110504888Y-117854351D01*
X110512134Y-117843506D01*
X110700000Y-118031372D01*
X110700000Y-118168628D01*
X109872005Y-118996624D01*
X109851974Y-119013063D01*
X109835535Y-119033094D01*
X109786367Y-119093005D01*
X109737617Y-119184210D01*
X109707597Y-119283173D01*
X109697461Y-119386090D01*
X109700001Y-119411880D01*
X109700000Y-121699220D01*
X109697461Y-121725000D01*
X109700000Y-121750780D01*
X109700000Y-121750787D01*
X109707597Y-121827917D01*
X109737617Y-121926880D01*
X109786367Y-122018086D01*
X109851973Y-122098027D01*
X109872010Y-122114471D01*
X110557062Y-122799524D01*
X110574979Y-122889598D01*
X110623978Y-123007890D01*
X110695112Y-123114351D01*
X110785649Y-123204888D01*
X110892110Y-123276022D01*
X111010402Y-123325021D01*
X111135981Y-123350000D01*
X111264019Y-123350000D01*
X111389598Y-123325021D01*
X111507890Y-123276022D01*
X111614351Y-123204888D01*
X111704888Y-123114351D01*
X111776022Y-123007890D01*
X111825021Y-122889598D01*
X111850000Y-122764019D01*
X111850000Y-123850000D01*
X106150000Y-123850000D01*
X106150000Y-122135981D01*
X107050000Y-122135981D01*
X107050000Y-122264019D01*
X107074979Y-122389598D01*
X107123978Y-122507890D01*
X107195112Y-122614351D01*
X107285649Y-122704888D01*
X107392110Y-122776022D01*
X107510402Y-122825021D01*
X107635981Y-122850000D01*
X107764019Y-122850000D01*
X107889598Y-122825021D01*
X108007890Y-122776022D01*
X108114351Y-122704888D01*
X108204888Y-122614351D01*
X108276022Y-122507890D01*
X108325021Y-122389598D01*
X108350000Y-122264019D01*
X108350000Y-122135981D01*
X108325021Y-122010402D01*
X108276022Y-121892110D01*
X108204888Y-121785649D01*
X108114351Y-121695112D01*
X108007890Y-121623978D01*
X107889598Y-121574979D01*
X107764019Y-121550000D01*
X107635981Y-121550000D01*
X107510402Y-121574979D01*
X107392110Y-121623978D01*
X107285649Y-121695112D01*
X107195112Y-121785649D01*
X107123978Y-121892110D01*
X107074979Y-122010402D01*
X107050000Y-122135981D01*
X106150000Y-122135981D01*
X106150000Y-122000000D01*
X106147118Y-121970736D01*
X106138582Y-121942597D01*
X106124720Y-121916664D01*
X106106066Y-121893934D01*
X106083336Y-121875280D01*
X106057403Y-121861418D01*
X106029264Y-121852882D01*
X106000000Y-121850000D01*
X100550000Y-121850000D01*
X100550000Y-119550000D01*
X102321660Y-119550000D01*
X102351973Y-119586937D01*
X102372010Y-119603381D01*
X103005455Y-120236827D01*
X102974979Y-120310402D01*
X102950000Y-120435981D01*
X102950000Y-120564019D01*
X102974979Y-120689598D01*
X103023978Y-120807890D01*
X103095112Y-120914351D01*
X103185649Y-121004888D01*
X103292110Y-121076022D01*
X103410402Y-121125021D01*
X103535981Y-121150000D01*
X103664019Y-121150000D01*
X103789598Y-121125021D01*
X103907890Y-121076022D01*
X104000000Y-121014477D01*
X104092110Y-121076022D01*
X104210402Y-121125021D01*
X104335981Y-121150000D01*
X104464019Y-121150000D01*
X104589598Y-121125021D01*
X104707890Y-121076022D01*
X104814351Y-121004888D01*
X104904888Y-120914351D01*
X104976022Y-120807890D01*
X105025021Y-120689598D01*
X105050000Y-120564019D01*
X105050000Y-120435981D01*
X105025021Y-120310402D01*
X104976022Y-120192110D01*
X104904888Y-120085649D01*
X104814351Y-119995112D01*
X104802436Y-119987150D01*
X104802540Y-119986090D01*
X104792403Y-119883173D01*
X104762383Y-119784209D01*
X104739528Y-119741450D01*
X104713633Y-119693004D01*
X104648027Y-119613063D01*
X104627996Y-119596624D01*
X104581372Y-119550000D01*
X107700000Y-119550000D01*
X107807300Y-119539432D01*
X107910476Y-119508134D01*
X108005564Y-119457308D01*
X108088909Y-119388909D01*
X108157308Y-119305564D01*
X108208134Y-119210476D01*
X108239432Y-119107300D01*
X108250000Y-119000000D01*
X108250000Y-117700000D01*
X108239432Y-117592700D01*
X108208134Y-117489524D01*
X108157308Y-117394436D01*
X108088909Y-117311091D01*
X108005564Y-117242692D01*
X107910476Y-117191866D01*
X107807300Y-117160568D01*
X107700000Y-117150000D01*
X105850000Y-117150000D01*
X105850000Y-116231056D01*
X107000000Y-116231056D01*
X107000000Y-116368944D01*
X107026901Y-116504182D01*
X107079668Y-116631574D01*
X107156274Y-116746224D01*
X107253776Y-116843726D01*
X107368426Y-116920332D01*
X107495818Y-116973099D01*
X107631056Y-117000000D01*
X107768944Y-117000000D01*
X107904182Y-116973099D01*
X108031574Y-116920332D01*
X108146224Y-116843726D01*
X108243726Y-116746224D01*
X108320332Y-116631574D01*
X108373099Y-116504182D01*
X108400000Y-116368944D01*
X108400000Y-116231056D01*
X108373099Y-116095818D01*
X108320332Y-115968426D01*
X108243726Y-115853776D01*
X108146224Y-115756274D01*
X108031574Y-115679668D01*
X107904182Y-115626901D01*
X107768944Y-115600000D01*
X107631056Y-115600000D01*
X107495818Y-115626901D01*
X107368426Y-115679668D01*
X107253776Y-115756274D01*
X107156274Y-115853776D01*
X107079668Y-115968426D01*
X107026901Y-116095818D01*
X107000000Y-116231056D01*
X105850000Y-116231056D01*
X105850000Y-111731056D01*
X107100000Y-111731056D01*
X107100000Y-111868944D01*
X107126901Y-112004182D01*
X107179668Y-112131574D01*
X107256274Y-112246224D01*
X107353776Y-112343726D01*
X107468426Y-112420332D01*
X107595818Y-112473099D01*
X107731056Y-112500000D01*
X107868944Y-112500000D01*
X108004182Y-112473099D01*
X108131574Y-112420332D01*
X108246224Y-112343726D01*
X108343726Y-112246224D01*
X108420332Y-112131574D01*
X108473099Y-112004182D01*
X108500000Y-111868944D01*
X108500000Y-111731056D01*
X108473099Y-111595818D01*
X108420332Y-111468426D01*
X108343726Y-111353776D01*
X108246224Y-111256274D01*
X108131574Y-111179668D01*
X108004182Y-111126901D01*
X107868944Y-111100000D01*
X107731056Y-111100000D01*
X107595818Y-111126901D01*
X107468426Y-111179668D01*
X107353776Y-111256274D01*
X107256274Y-111353776D01*
X107179668Y-111468426D01*
X107126901Y-111595818D01*
X107100000Y-111731056D01*
X105850000Y-111731056D01*
X105850000Y-110850000D01*
X107700000Y-110850000D01*
X107807300Y-110839432D01*
X107910476Y-110808134D01*
X108005564Y-110757308D01*
X108088909Y-110688909D01*
X108157308Y-110605564D01*
X108208134Y-110510476D01*
X108239432Y-110407300D01*
X108250000Y-110300000D01*
X108250000Y-109450000D01*
X109100000Y-109450000D01*
X109100000Y-109468944D01*
X109126901Y-109604182D01*
X109179668Y-109731574D01*
X109256274Y-109846224D01*
X109353776Y-109943726D01*
X109468426Y-110020332D01*
X109595818Y-110073099D01*
X109731056Y-110100000D01*
X109868944Y-110100000D01*
X110004182Y-110073099D01*
X110131574Y-110020332D01*
X110246224Y-109943726D01*
X110343726Y-109846224D01*
X110420332Y-109731574D01*
X110473099Y-109604182D01*
X110500000Y-109468944D01*
X110500000Y-109450000D01*
X110900000Y-109450000D01*
X110929264Y-109447118D01*
X110957403Y-109438582D01*
X110983336Y-109424720D01*
X111006066Y-109406066D01*
X111024720Y-109383336D01*
X111038582Y-109357403D01*
X111047118Y-109329264D01*
X111050000Y-109300000D01*
X111050000Y-104100000D01*
X111047118Y-104070736D01*
X111038582Y-104042597D01*
X111024720Y-104016664D01*
X111006066Y-103993934D01*
X110983336Y-103975280D01*
X110957403Y-103961418D01*
X110929264Y-103952882D01*
X110900000Y-103950000D01*
X106650000Y-103950000D01*
X106650000Y-101150000D01*
X113245879Y-101150000D01*
X113226901Y-101195818D01*
X113226901Y-101195818D01*
G37*
X113226901Y-101195818D02*
X113200000Y-101331056D01*
X113200000Y-101468944D01*
X113226901Y-101604182D01*
X113279668Y-101731574D01*
X113356274Y-101846224D01*
X113453776Y-101943726D01*
X113568426Y-102020332D01*
X113640052Y-102050000D01*
X113568426Y-102079668D01*
X113453776Y-102156274D01*
X113356274Y-102253776D01*
X113279668Y-102368426D01*
X113226901Y-102495818D01*
X113200000Y-102631056D01*
X113200000Y-102768944D01*
X113226901Y-102904182D01*
X113279668Y-103031574D01*
X113356274Y-103146224D01*
X113453776Y-103243726D01*
X113568426Y-103320332D01*
X113695818Y-103373099D01*
X113831056Y-103400000D01*
X113850000Y-103400000D01*
X113850000Y-108850000D01*
X112000000Y-108850000D01*
X111970736Y-108852882D01*
X111942597Y-108861418D01*
X111916664Y-108875280D01*
X111893934Y-108893934D01*
X111875280Y-108916664D01*
X111861418Y-108942597D01*
X111852882Y-108970736D01*
X111850000Y-109000000D01*
X111850000Y-116918628D01*
X111343381Y-116412010D01*
X111326937Y-116391973D01*
X111246996Y-116326367D01*
X111155791Y-116277617D01*
X111056828Y-116247597D01*
X110979698Y-116240000D01*
X110979690Y-116240000D01*
X110953910Y-116237461D01*
X110928130Y-116240000D01*
X110514477Y-116240000D01*
X110504888Y-116225649D01*
X110414351Y-116135112D01*
X110307890Y-116063978D01*
X110189598Y-116014979D01*
X110064019Y-115990000D01*
X109935981Y-115990000D01*
X109810402Y-116014979D01*
X109692110Y-116063978D01*
X109585649Y-116135112D01*
X109495112Y-116225649D01*
X109423978Y-116332110D01*
X109374979Y-116450402D01*
X109350000Y-116575981D01*
X109350000Y-116704019D01*
X109374979Y-116829598D01*
X109423978Y-116947890D01*
X109485523Y-117040000D01*
X109423978Y-117132110D01*
X109374979Y-117250402D01*
X109350000Y-117375981D01*
X109350000Y-117504019D01*
X109374979Y-117629598D01*
X109423978Y-117747890D01*
X109495112Y-117854351D01*
X109585649Y-117944888D01*
X109692110Y-118016022D01*
X109810402Y-118065021D01*
X109935981Y-118090000D01*
X110064019Y-118090000D01*
X110189598Y-118065021D01*
X110307890Y-118016022D01*
X110414351Y-117944888D01*
X110504888Y-117854351D01*
X110512134Y-117843506D01*
X110700000Y-118031372D01*
X110700000Y-118168628D01*
X109872005Y-118996624D01*
X109851974Y-119013063D01*
X109835535Y-119033094D01*
X109786367Y-119093005D01*
X109737617Y-119184210D01*
X109707597Y-119283173D01*
X109697461Y-119386090D01*
X109700001Y-119411880D01*
X109700000Y-121699220D01*
X109697461Y-121725000D01*
X109700000Y-121750780D01*
X109700000Y-121750787D01*
X109707597Y-121827917D01*
X109737617Y-121926880D01*
X109786367Y-122018086D01*
X109851973Y-122098027D01*
X109872010Y-122114471D01*
X110557062Y-122799524D01*
X110574979Y-122889598D01*
X110623978Y-123007890D01*
X110695112Y-123114351D01*
X110785649Y-123204888D01*
X110892110Y-123276022D01*
X111010402Y-123325021D01*
X111135981Y-123350000D01*
X111264019Y-123350000D01*
X111389598Y-123325021D01*
X111507890Y-123276022D01*
X111614351Y-123204888D01*
X111704888Y-123114351D01*
X111776022Y-123007890D01*
X111825021Y-122889598D01*
X111850000Y-122764019D01*
X111850000Y-123850000D01*
X106150000Y-123850000D01*
X106150000Y-122135981D01*
X107050000Y-122135981D01*
X107050000Y-122264019D01*
X107074979Y-122389598D01*
X107123978Y-122507890D01*
X107195112Y-122614351D01*
X107285649Y-122704888D01*
X107392110Y-122776022D01*
X107510402Y-122825021D01*
X107635981Y-122850000D01*
X107764019Y-122850000D01*
X107889598Y-122825021D01*
X108007890Y-122776022D01*
X108114351Y-122704888D01*
X108204888Y-122614351D01*
X108276022Y-122507890D01*
X108325021Y-122389598D01*
X108350000Y-122264019D01*
X108350000Y-122135981D01*
X108325021Y-122010402D01*
X108276022Y-121892110D01*
X108204888Y-121785649D01*
X108114351Y-121695112D01*
X108007890Y-121623978D01*
X107889598Y-121574979D01*
X107764019Y-121550000D01*
X107635981Y-121550000D01*
X107510402Y-121574979D01*
X107392110Y-121623978D01*
X107285649Y-121695112D01*
X107195112Y-121785649D01*
X107123978Y-121892110D01*
X107074979Y-122010402D01*
X107050000Y-122135981D01*
X106150000Y-122135981D01*
X106150000Y-122000000D01*
X106147118Y-121970736D01*
X106138582Y-121942597D01*
X106124720Y-121916664D01*
X106106066Y-121893934D01*
X106083336Y-121875280D01*
X106057403Y-121861418D01*
X106029264Y-121852882D01*
X106000000Y-121850000D01*
X100550000Y-121850000D01*
X100550000Y-119550000D01*
X102321660Y-119550000D01*
X102351973Y-119586937D01*
X102372010Y-119603381D01*
X103005455Y-120236827D01*
X102974979Y-120310402D01*
X102950000Y-120435981D01*
X102950000Y-120564019D01*
X102974979Y-120689598D01*
X103023978Y-120807890D01*
X103095112Y-120914351D01*
X103185649Y-121004888D01*
X103292110Y-121076022D01*
X103410402Y-121125021D01*
X103535981Y-121150000D01*
X103664019Y-121150000D01*
X103789598Y-121125021D01*
X103907890Y-121076022D01*
X104000000Y-121014477D01*
X104092110Y-121076022D01*
X104210402Y-121125021D01*
X104335981Y-121150000D01*
X104464019Y-121150000D01*
X104589598Y-121125021D01*
X104707890Y-121076022D01*
X104814351Y-121004888D01*
X104904888Y-120914351D01*
X104976022Y-120807890D01*
X105025021Y-120689598D01*
X105050000Y-120564019D01*
X105050000Y-120435981D01*
X105025021Y-120310402D01*
X104976022Y-120192110D01*
X104904888Y-120085649D01*
X104814351Y-119995112D01*
X104802436Y-119987150D01*
X104802540Y-119986090D01*
X104792403Y-119883173D01*
X104762383Y-119784209D01*
X104739528Y-119741450D01*
X104713633Y-119693004D01*
X104648027Y-119613063D01*
X104627996Y-119596624D01*
X104581372Y-119550000D01*
X107700000Y-119550000D01*
X107807300Y-119539432D01*
X107910476Y-119508134D01*
X108005564Y-119457308D01*
X108088909Y-119388909D01*
X108157308Y-119305564D01*
X108208134Y-119210476D01*
X108239432Y-119107300D01*
X108250000Y-119000000D01*
X108250000Y-117700000D01*
X108239432Y-117592700D01*
X108208134Y-117489524D01*
X108157308Y-117394436D01*
X108088909Y-117311091D01*
X108005564Y-117242692D01*
X107910476Y-117191866D01*
X107807300Y-117160568D01*
X107700000Y-117150000D01*
X105850000Y-117150000D01*
X105850000Y-116231056D01*
X107000000Y-116231056D01*
X107000000Y-116368944D01*
X107026901Y-116504182D01*
X107079668Y-116631574D01*
X107156274Y-116746224D01*
X107253776Y-116843726D01*
X107368426Y-116920332D01*
X107495818Y-116973099D01*
X107631056Y-117000000D01*
X107768944Y-117000000D01*
X107904182Y-116973099D01*
X108031574Y-116920332D01*
X108146224Y-116843726D01*
X108243726Y-116746224D01*
X108320332Y-116631574D01*
X108373099Y-116504182D01*
X108400000Y-116368944D01*
X108400000Y-116231056D01*
X108373099Y-116095818D01*
X108320332Y-115968426D01*
X108243726Y-115853776D01*
X108146224Y-115756274D01*
X108031574Y-115679668D01*
X107904182Y-115626901D01*
X107768944Y-115600000D01*
X107631056Y-115600000D01*
X107495818Y-115626901D01*
X107368426Y-115679668D01*
X107253776Y-115756274D01*
X107156274Y-115853776D01*
X107079668Y-115968426D01*
X107026901Y-116095818D01*
X107000000Y-116231056D01*
X105850000Y-116231056D01*
X105850000Y-111731056D01*
X107100000Y-111731056D01*
X107100000Y-111868944D01*
X107126901Y-112004182D01*
X107179668Y-112131574D01*
X107256274Y-112246224D01*
X107353776Y-112343726D01*
X107468426Y-112420332D01*
X107595818Y-112473099D01*
X107731056Y-112500000D01*
X107868944Y-112500000D01*
X108004182Y-112473099D01*
X108131574Y-112420332D01*
X108246224Y-112343726D01*
X108343726Y-112246224D01*
X108420332Y-112131574D01*
X108473099Y-112004182D01*
X108500000Y-111868944D01*
X108500000Y-111731056D01*
X108473099Y-111595818D01*
X108420332Y-111468426D01*
X108343726Y-111353776D01*
X108246224Y-111256274D01*
X108131574Y-111179668D01*
X108004182Y-111126901D01*
X107868944Y-111100000D01*
X107731056Y-111100000D01*
X107595818Y-111126901D01*
X107468426Y-111179668D01*
X107353776Y-111256274D01*
X107256274Y-111353776D01*
X107179668Y-111468426D01*
X107126901Y-111595818D01*
X107100000Y-111731056D01*
X105850000Y-111731056D01*
X105850000Y-110850000D01*
X107700000Y-110850000D01*
X107807300Y-110839432D01*
X107910476Y-110808134D01*
X108005564Y-110757308D01*
X108088909Y-110688909D01*
X108157308Y-110605564D01*
X108208134Y-110510476D01*
X108239432Y-110407300D01*
X108250000Y-110300000D01*
X108250000Y-109450000D01*
X109100000Y-109450000D01*
X109100000Y-109468944D01*
X109126901Y-109604182D01*
X109179668Y-109731574D01*
X109256274Y-109846224D01*
X109353776Y-109943726D01*
X109468426Y-110020332D01*
X109595818Y-110073099D01*
X109731056Y-110100000D01*
X109868944Y-110100000D01*
X110004182Y-110073099D01*
X110131574Y-110020332D01*
X110246224Y-109943726D01*
X110343726Y-109846224D01*
X110420332Y-109731574D01*
X110473099Y-109604182D01*
X110500000Y-109468944D01*
X110500000Y-109450000D01*
X110900000Y-109450000D01*
X110929264Y-109447118D01*
X110957403Y-109438582D01*
X110983336Y-109424720D01*
X111006066Y-109406066D01*
X111024720Y-109383336D01*
X111038582Y-109357403D01*
X111047118Y-109329264D01*
X111050000Y-109300000D01*
X111050000Y-104100000D01*
X111047118Y-104070736D01*
X111038582Y-104042597D01*
X111024720Y-104016664D01*
X111006066Y-103993934D01*
X110983336Y-103975280D01*
X110957403Y-103961418D01*
X110929264Y-103952882D01*
X110900000Y-103950000D01*
X106650000Y-103950000D01*
X106650000Y-101150000D01*
X113245879Y-101150000D01*
X113226901Y-101195818D01*
G36*
X111850000Y-121635981D02*
G01*
X111825021Y-121510402D01*
X111776022Y-121392110D01*
X111704888Y-121285649D01*
X111614351Y-121195112D01*
X111507890Y-121123978D01*
X111389598Y-121074979D01*
X111300000Y-121057157D01*
X111300000Y-119831371D01*
X111850000Y-119281372D01*
X111850000Y-121635981D01*
X111850000Y-121635981D01*
G37*
X111850000Y-121635981D02*
X111825021Y-121510402D01*
X111776022Y-121392110D01*
X111704888Y-121285649D01*
X111614351Y-121195112D01*
X111507890Y-121123978D01*
X111389598Y-121074979D01*
X111300000Y-121057157D01*
X111300000Y-119831371D01*
X111850000Y-119281372D01*
X111850000Y-121635981D01*
G36*
X103150000Y-108350000D02*
G01*
X101000000Y-108350000D01*
X100970736Y-108352882D01*
X100942597Y-108361418D01*
X100916664Y-108375280D01*
X100893934Y-108393934D01*
X100875280Y-108416664D01*
X100861418Y-108442597D01*
X100859172Y-108450000D01*
X100550000Y-108450000D01*
X100550000Y-106550000D01*
X103150000Y-106550000D01*
X103150000Y-108350000D01*
X103150000Y-108350000D01*
G37*
X103150000Y-108350000D02*
X101000000Y-108350000D01*
X100970736Y-108352882D01*
X100942597Y-108361418D01*
X100916664Y-108375280D01*
X100893934Y-108393934D01*
X100875280Y-108416664D01*
X100861418Y-108442597D01*
X100859172Y-108450000D01*
X100550000Y-108450000D01*
X100550000Y-106550000D01*
X103150000Y-106550000D01*
X103150000Y-108350000D01*
M02*
