G04 #@! TF.GenerationSoftware,KiCad,Pcbnew,5.1.5+dfsg1-2build2*
G04 #@! TF.CreationDate,2020-09-23T01:19:26+04:00*
G04 #@! TF.ProjectId,RailLink,5261696c-4c69-46e6-9b2e-6b696361645f,rev?*
G04 #@! TF.SameCoordinates,PX5f5e100PY7a12000*
G04 #@! TF.FileFunction,Soldermask,Bot*
G04 #@! TF.FilePolarity,Negative*
%FSLAX46Y46*%
G04 Gerber Fmt 4.6, Leading zero omitted, Abs format (unit mm)*
G04 Created by KiCad (PCBNEW 5.1.5+dfsg1-2build2) date 2020-09-23 01:19:26*
%MOMM*%
%LPD*%
G04 APERTURE LIST*
%ADD10C,0.050000*%
%ADD11C,0.160000*%
G04 APERTURE END LIST*
D10*
X3000000Y0D02*
G75*
G02X0Y3000000I0J3000000D01*
G01*
X0Y25000000D02*
G75*
G02X3000000Y28000000I3000000J0D01*
G01*
X57000000Y28000000D02*
G75*
G02X60000000Y25000000I0J-3000000D01*
G01*
X60000000Y3000000D02*
G75*
G02X57000000Y0I-3000000J0D01*
G01*
X57000000Y28000000D02*
X3000000Y28000000D01*
X60000000Y3000000D02*
X60000000Y25000000D01*
X3000000Y0D02*
X57000000Y0D01*
X0Y25000000D02*
X0Y3000000D01*
D11*
G36*
X53179589Y5384670D02*
G01*
X53343807Y5352005D01*
X53807878Y5159780D01*
X53860621Y5124538D01*
X54225529Y4880715D01*
X54580715Y4525529D01*
X54638545Y4438980D01*
X54810585Y4181504D01*
X54859781Y4107876D01*
X55052005Y3643806D01*
X55150000Y3151155D01*
X55150000Y2648845D01*
X55097600Y2385414D01*
X55052005Y2156193D01*
X54955708Y1923713D01*
X54865295Y1705435D01*
X54859780Y1692122D01*
X54804002Y1608644D01*
X54596090Y1297481D01*
X54580714Y1274470D01*
X54225530Y919286D01*
X53807878Y640220D01*
X53343807Y447995D01*
X53179589Y415330D01*
X52851155Y350000D01*
X52348845Y350000D01*
X52020411Y415330D01*
X51856193Y447995D01*
X51392122Y640220D01*
X50974470Y919286D01*
X50619286Y1274470D01*
X50603911Y1297481D01*
X50395998Y1608644D01*
X50340220Y1692122D01*
X50334706Y1705435D01*
X50244292Y1923713D01*
X50147995Y2156193D01*
X50102400Y2385414D01*
X50050000Y2648845D01*
X50050000Y3151155D01*
X50147995Y3643806D01*
X50340219Y4107876D01*
X50389416Y4181504D01*
X50561455Y4438980D01*
X50619285Y4525529D01*
X50974471Y4880715D01*
X51339379Y5124538D01*
X51392122Y5159780D01*
X51856193Y5352005D01*
X52020411Y5384670D01*
X52348845Y5450000D01*
X52851155Y5450000D01*
X53179589Y5384670D01*
G37*
G36*
X3479589Y5384670D02*
G01*
X3643807Y5352005D01*
X4107878Y5159780D01*
X4160621Y5124538D01*
X4525529Y4880715D01*
X4880715Y4525529D01*
X4938545Y4438980D01*
X5110585Y4181504D01*
X5159781Y4107876D01*
X5352005Y3643806D01*
X5450000Y3151155D01*
X5450000Y2648845D01*
X5397600Y2385414D01*
X5352005Y2156193D01*
X5255708Y1923713D01*
X5165295Y1705435D01*
X5159780Y1692122D01*
X5104002Y1608644D01*
X4896090Y1297481D01*
X4880714Y1274470D01*
X4525530Y919286D01*
X4107878Y640220D01*
X3643807Y447995D01*
X3479589Y415330D01*
X3151155Y350000D01*
X2648845Y350000D01*
X2320411Y415330D01*
X2156193Y447995D01*
X1692122Y640220D01*
X1274470Y919286D01*
X919286Y1274470D01*
X903911Y1297481D01*
X695998Y1608644D01*
X640220Y1692122D01*
X634706Y1705435D01*
X544292Y1923713D01*
X447995Y2156193D01*
X402400Y2385414D01*
X350000Y2648845D01*
X350000Y3151155D01*
X447995Y3643806D01*
X640219Y4107876D01*
X689416Y4181504D01*
X861455Y4438980D01*
X919285Y4525529D01*
X1274471Y4880715D01*
X1639379Y5124538D01*
X1692122Y5159780D01*
X2156193Y5352005D01*
X2320411Y5384670D01*
X2648845Y5450000D01*
X3151155Y5450000D01*
X3479589Y5384670D01*
G37*
G36*
X20604561Y2396943D02*
G01*
X20662520Y2385414D01*
X20826310Y2317570D01*
X20973717Y2219076D01*
X21099076Y2093717D01*
X21197570Y1946310D01*
X21265414Y1782520D01*
X21300000Y1608642D01*
X21300000Y1431358D01*
X21265414Y1257480D01*
X21197570Y1093690D01*
X21099076Y946283D01*
X20973717Y820924D01*
X20826310Y722430D01*
X20662520Y654586D01*
X20604561Y643057D01*
X20488644Y620000D01*
X20311356Y620000D01*
X20195439Y643057D01*
X20137480Y654586D01*
X19973690Y722430D01*
X19826283Y820924D01*
X19700924Y946283D01*
X19602430Y1093690D01*
X19534586Y1257480D01*
X19500000Y1431358D01*
X19500000Y1608642D01*
X19534586Y1782520D01*
X19602430Y1946310D01*
X19700924Y2093717D01*
X19826283Y2219076D01*
X19973690Y2317570D01*
X20137480Y2385414D01*
X20195439Y2396943D01*
X20311356Y2420000D01*
X20488644Y2420000D01*
X20604561Y2396943D01*
G37*
G36*
X24404561Y2436943D02*
G01*
X24462520Y2425414D01*
X24626310Y2357570D01*
X24773717Y2259076D01*
X24899076Y2133717D01*
X24997570Y1986310D01*
X25023499Y1923713D01*
X25065414Y1822519D01*
X25100000Y1648644D01*
X25100000Y1471356D01*
X25080742Y1374538D01*
X25065414Y1297480D01*
X24997570Y1133690D01*
X24899076Y986283D01*
X24773717Y860924D01*
X24626310Y762430D01*
X24462520Y694586D01*
X24404561Y683057D01*
X24288644Y660000D01*
X24111356Y660000D01*
X23995439Y683057D01*
X23937480Y694586D01*
X23773690Y762430D01*
X23626283Y860924D01*
X23500924Y986283D01*
X23402430Y1133690D01*
X23334586Y1297480D01*
X23319258Y1374538D01*
X23300000Y1471356D01*
X23300000Y1648644D01*
X23334586Y1822519D01*
X23376502Y1923713D01*
X23402430Y1986310D01*
X23500924Y2133717D01*
X23626283Y2259076D01*
X23773690Y2357570D01*
X23937480Y2425414D01*
X23995439Y2436943D01*
X24111356Y2460000D01*
X24288644Y2460000D01*
X24404561Y2436943D01*
G37*
G36*
X20604561Y4936943D02*
G01*
X20662520Y4925414D01*
X20826310Y4857570D01*
X20973717Y4759076D01*
X21099076Y4633717D01*
X21197570Y4486310D01*
X21264387Y4325000D01*
X21265414Y4322519D01*
X21300000Y4148644D01*
X21300000Y3971356D01*
X21276943Y3855439D01*
X21265414Y3797480D01*
X21197570Y3633690D01*
X21099076Y3486283D01*
X20973717Y3360924D01*
X20826310Y3262430D01*
X20662520Y3194586D01*
X20623668Y3186858D01*
X20488644Y3160000D01*
X20311356Y3160000D01*
X20176332Y3186858D01*
X20137480Y3194586D01*
X19973690Y3262430D01*
X19826283Y3360924D01*
X19700924Y3486283D01*
X19602430Y3633690D01*
X19534586Y3797480D01*
X19523057Y3855439D01*
X19500000Y3971356D01*
X19500000Y4148644D01*
X19534586Y4322519D01*
X19535614Y4325000D01*
X19602430Y4486310D01*
X19700924Y4633717D01*
X19826283Y4759076D01*
X19973690Y4857570D01*
X20137480Y4925414D01*
X20195439Y4936943D01*
X20311356Y4960000D01*
X20488644Y4960000D01*
X20604561Y4936943D01*
G37*
G36*
X25100000Y3200000D02*
G01*
X23300000Y3200000D01*
X23300000Y5000000D01*
X25100000Y5000000D01*
X25100000Y3200000D01*
G37*
G36*
X40077103Y7133493D02*
G01*
X40077106Y7133492D01*
X40077105Y7133492D01*
X40249994Y7061879D01*
X40405590Y6957913D01*
X40537913Y6825590D01*
X40537914Y6825588D01*
X40641880Y6669992D01*
X40713493Y6497103D01*
X40750000Y6313568D01*
X40750000Y6126432D01*
X40713493Y5942897D01*
X40713492Y5942895D01*
X40641879Y5770006D01*
X40537913Y5614410D01*
X40405590Y5482087D01*
X40249994Y5378121D01*
X40249993Y5378120D01*
X40249992Y5378120D01*
X40077103Y5306507D01*
X39893568Y5270000D01*
X39706432Y5270000D01*
X39522897Y5306507D01*
X39350008Y5378120D01*
X39350007Y5378120D01*
X39350006Y5378121D01*
X39194410Y5482087D01*
X39062087Y5614410D01*
X38958121Y5770006D01*
X38886508Y5942895D01*
X38886507Y5942897D01*
X38850000Y6126432D01*
X38850000Y6313568D01*
X38886507Y6497103D01*
X38958120Y6669992D01*
X39062086Y6825588D01*
X39062087Y6825590D01*
X39194410Y6957913D01*
X39350006Y7061879D01*
X39522895Y7133492D01*
X39522894Y7133492D01*
X39522897Y7133493D01*
X39706432Y7170000D01*
X39893568Y7170000D01*
X40077103Y7133493D01*
G37*
G36*
X21300000Y5700000D02*
G01*
X19500000Y5700000D01*
X19500000Y7500000D01*
X21300000Y7500000D01*
X21300000Y5700000D01*
G37*
G36*
X40077103Y9673493D02*
G01*
X40077106Y9673492D01*
X40077105Y9673492D01*
X40249994Y9601879D01*
X40405590Y9497913D01*
X40537913Y9365590D01*
X40634873Y9220479D01*
X40641880Y9209992D01*
X40713493Y9037103D01*
X40750000Y8853568D01*
X40750000Y8666432D01*
X40713493Y8482897D01*
X40653315Y8337614D01*
X40641879Y8310006D01*
X40537913Y8154410D01*
X40405590Y8022087D01*
X40249994Y7918121D01*
X40249993Y7918120D01*
X40249992Y7918120D01*
X40077103Y7846507D01*
X39893568Y7810000D01*
X39706432Y7810000D01*
X39522897Y7846507D01*
X39350008Y7918120D01*
X39350007Y7918120D01*
X39350006Y7918121D01*
X39194410Y8022087D01*
X39062087Y8154410D01*
X38958121Y8310006D01*
X38946685Y8337614D01*
X38886507Y8482897D01*
X38850000Y8666432D01*
X38850000Y8853568D01*
X38886507Y9037103D01*
X38958120Y9209992D01*
X38965127Y9220479D01*
X39062087Y9365590D01*
X39194410Y9497913D01*
X39350006Y9601879D01*
X39522895Y9673492D01*
X39522894Y9673492D01*
X39522897Y9673493D01*
X39706432Y9710000D01*
X39893568Y9710000D01*
X40077103Y9673493D01*
G37*
G36*
X54288817Y9821897D02*
G01*
X54406487Y9798491D01*
X54572752Y9729622D01*
X54722386Y9629640D01*
X54849640Y9502386D01*
X54949622Y9352752D01*
X55018491Y9186487D01*
X55053600Y9009982D01*
X55053600Y8830018D01*
X55018491Y8653513D01*
X54949622Y8487248D01*
X54849640Y8337614D01*
X54722386Y8210360D01*
X54572752Y8110378D01*
X54406487Y8041509D01*
X54308846Y8022087D01*
X54229983Y8006400D01*
X54050017Y8006400D01*
X53971154Y8022087D01*
X53873513Y8041509D01*
X53707248Y8110378D01*
X53557614Y8210360D01*
X53430360Y8337614D01*
X53330378Y8487248D01*
X53261509Y8653513D01*
X53226400Y8830018D01*
X53226400Y9009982D01*
X53261509Y9186487D01*
X53330378Y9352752D01*
X53430360Y9502386D01*
X53557614Y9629640D01*
X53707248Y9729622D01*
X53873513Y9798491D01*
X53991183Y9821897D01*
X54050017Y9833600D01*
X54229983Y9833600D01*
X54288817Y9821897D01*
G37*
G36*
X51748817Y9821897D02*
G01*
X51866487Y9798491D01*
X52032752Y9729622D01*
X52182386Y9629640D01*
X52309640Y9502386D01*
X52409622Y9352752D01*
X52478491Y9186487D01*
X52513600Y9009982D01*
X52513600Y8830018D01*
X52478491Y8653513D01*
X52409622Y8487248D01*
X52309640Y8337614D01*
X52182386Y8210360D01*
X52032752Y8110378D01*
X51866487Y8041509D01*
X51768846Y8022087D01*
X51689983Y8006400D01*
X51510017Y8006400D01*
X51431154Y8022087D01*
X51333513Y8041509D01*
X51167248Y8110378D01*
X51017614Y8210360D01*
X50890360Y8337614D01*
X50790378Y8487248D01*
X50721509Y8653513D01*
X50686400Y8830018D01*
X50686400Y9009982D01*
X50721509Y9186487D01*
X50790378Y9352752D01*
X50890360Y9502386D01*
X51017614Y9629640D01*
X51167248Y9729622D01*
X51333513Y9798491D01*
X51451183Y9821897D01*
X51510017Y9833600D01*
X51689983Y9833600D01*
X51748817Y9821897D01*
G37*
G36*
X5910885Y10224695D02*
G01*
X5937819Y10222042D01*
X5972377Y10211559D01*
X6041496Y10190592D01*
X6137039Y10139523D01*
X6137040Y10139522D01*
X6137042Y10139521D01*
X6220790Y10070790D01*
X6289523Y9987039D01*
X6340592Y9891496D01*
X6358154Y9833600D01*
X6368805Y9798491D01*
X6372042Y9787818D01*
X6382661Y9680000D01*
X6372042Y9572182D01*
X6340592Y9468504D01*
X6289523Y9372961D01*
X6289521Y9372958D01*
X6220790Y9289210D01*
X6137042Y9220479D01*
X6137040Y9220478D01*
X6137039Y9220477D01*
X6041496Y9169408D01*
X5972377Y9148441D01*
X5937819Y9137958D01*
X5910885Y9135305D01*
X5857020Y9130000D01*
X4702980Y9130000D01*
X4649115Y9135305D01*
X4622181Y9137958D01*
X4587623Y9148441D01*
X4518504Y9169408D01*
X4422961Y9220477D01*
X4422960Y9220478D01*
X4422958Y9220479D01*
X4339210Y9289210D01*
X4270479Y9372958D01*
X4270477Y9372961D01*
X4219408Y9468504D01*
X4187958Y9572182D01*
X4177339Y9680000D01*
X4187958Y9787818D01*
X4191196Y9798491D01*
X4201846Y9833600D01*
X4219408Y9891496D01*
X4270477Y9987039D01*
X4339210Y10070790D01*
X4422958Y10139521D01*
X4422960Y10139522D01*
X4422961Y10139523D01*
X4518504Y10190592D01*
X4587623Y10211559D01*
X4622181Y10222042D01*
X4649115Y10224695D01*
X4702980Y10230000D01*
X5857020Y10230000D01*
X5910885Y10224695D01*
G37*
G36*
X1480885Y10224695D02*
G01*
X1507819Y10222042D01*
X1542377Y10211559D01*
X1611496Y10190592D01*
X1707039Y10139523D01*
X1707040Y10139522D01*
X1707042Y10139521D01*
X1790790Y10070790D01*
X1859523Y9987039D01*
X1910592Y9891496D01*
X1928154Y9833600D01*
X1938805Y9798491D01*
X1942042Y9787818D01*
X1952661Y9680000D01*
X1942042Y9572182D01*
X1910592Y9468504D01*
X1859523Y9372961D01*
X1859521Y9372958D01*
X1790790Y9289210D01*
X1707042Y9220479D01*
X1707040Y9220478D01*
X1707039Y9220477D01*
X1611496Y9169408D01*
X1542377Y9148441D01*
X1507819Y9137958D01*
X1480885Y9135305D01*
X1427020Y9130000D01*
X772980Y9130000D01*
X719115Y9135305D01*
X692181Y9137958D01*
X657623Y9148441D01*
X588504Y9169408D01*
X492961Y9220477D01*
X492960Y9220478D01*
X492958Y9220479D01*
X409210Y9289210D01*
X340479Y9372958D01*
X340477Y9372961D01*
X289408Y9468504D01*
X257958Y9572182D01*
X247339Y9680000D01*
X257958Y9787818D01*
X261196Y9798491D01*
X271846Y9833600D01*
X289408Y9891496D01*
X340477Y9987039D01*
X409210Y10070790D01*
X492958Y10139521D01*
X492960Y10139522D01*
X492961Y10139523D01*
X588504Y10190592D01*
X657623Y10211559D01*
X692181Y10222042D01*
X719115Y10224695D01*
X772980Y10230000D01*
X1427020Y10230000D01*
X1480885Y10224695D01*
G37*
G36*
X40750000Y10350000D02*
G01*
X38850000Y10350000D01*
X38850000Y12250000D01*
X40750000Y12250000D01*
X40750000Y10350000D01*
G37*
G36*
X54288817Y12361897D02*
G01*
X54406487Y12338491D01*
X54572752Y12269622D01*
X54722386Y12169640D01*
X54849640Y12042386D01*
X54949622Y11892752D01*
X55018491Y11726487D01*
X55053600Y11549982D01*
X55053600Y11370018D01*
X55018491Y11193513D01*
X54949622Y11027248D01*
X54849640Y10877614D01*
X54722386Y10750360D01*
X54572752Y10650378D01*
X54406487Y10581509D01*
X54288817Y10558103D01*
X54229983Y10546400D01*
X54050017Y10546400D01*
X53991183Y10558103D01*
X53873513Y10581509D01*
X53707248Y10650378D01*
X53557614Y10750360D01*
X53430360Y10877614D01*
X53330378Y11027248D01*
X53261509Y11193513D01*
X53226400Y11370018D01*
X53226400Y11549982D01*
X53261509Y11726487D01*
X53330378Y11892752D01*
X53430360Y12042386D01*
X53557614Y12169640D01*
X53707248Y12269622D01*
X53873513Y12338491D01*
X53991183Y12361897D01*
X54050017Y12373600D01*
X54229983Y12373600D01*
X54288817Y12361897D01*
G37*
G36*
X51748817Y12361897D02*
G01*
X51866487Y12338491D01*
X52032752Y12269622D01*
X52182386Y12169640D01*
X52309640Y12042386D01*
X52409622Y11892752D01*
X52478491Y11726487D01*
X52513600Y11549982D01*
X52513600Y11370018D01*
X52478491Y11193513D01*
X52409622Y11027248D01*
X52309640Y10877614D01*
X52182386Y10750360D01*
X52032752Y10650378D01*
X51866487Y10581509D01*
X51748817Y10558103D01*
X51689983Y10546400D01*
X51510017Y10546400D01*
X51451183Y10558103D01*
X51333513Y10581509D01*
X51167248Y10650378D01*
X51017614Y10750360D01*
X50890360Y10877614D01*
X50790378Y11027248D01*
X50721509Y11193513D01*
X50686400Y11370018D01*
X50686400Y11549982D01*
X50721509Y11726487D01*
X50790378Y11892752D01*
X50890360Y12042386D01*
X51017614Y12169640D01*
X51167248Y12269622D01*
X51333513Y12338491D01*
X51451183Y12361897D01*
X51510017Y12373600D01*
X51689983Y12373600D01*
X51748817Y12361897D01*
G37*
G36*
X4859383Y11470589D02*
G01*
X4927629Y11442320D01*
X4958546Y11421662D01*
X4989047Y11401282D01*
X5041282Y11349047D01*
X5082321Y11287627D01*
X5110589Y11219383D01*
X5125000Y11146935D01*
X5125000Y11073065D01*
X5110589Y11000617D01*
X5082321Y10932373D01*
X5045733Y10877614D01*
X5041281Y10870952D01*
X4989048Y10818719D01*
X4927629Y10777680D01*
X4927628Y10777679D01*
X4927627Y10777679D01*
X4859383Y10749411D01*
X4786935Y10735000D01*
X4713065Y10735000D01*
X4640617Y10749411D01*
X4572373Y10777679D01*
X4572372Y10777679D01*
X4572371Y10777680D01*
X4510952Y10818719D01*
X4458719Y10870952D01*
X4454268Y10877614D01*
X4417679Y10932373D01*
X4389411Y11000617D01*
X4375000Y11073065D01*
X4375000Y11146935D01*
X4389411Y11219383D01*
X4417679Y11287627D01*
X4458718Y11349047D01*
X4510953Y11401282D01*
X4541454Y11421662D01*
X4572371Y11442320D01*
X4640617Y11470589D01*
X4713065Y11485000D01*
X4786935Y11485000D01*
X4859383Y11470589D01*
G37*
G36*
X54288817Y14901897D02*
G01*
X54406487Y14878491D01*
X54572752Y14809622D01*
X54722386Y14709640D01*
X54849640Y14582386D01*
X54949622Y14432752D01*
X55018491Y14266487D01*
X55053600Y14089982D01*
X55053600Y13910018D01*
X55018491Y13733513D01*
X54949622Y13567248D01*
X54849640Y13417614D01*
X54722386Y13290360D01*
X54572752Y13190378D01*
X54406487Y13121509D01*
X54288817Y13098103D01*
X54229983Y13086400D01*
X54050017Y13086400D01*
X53991183Y13098103D01*
X53873513Y13121509D01*
X53707248Y13190378D01*
X53557614Y13290360D01*
X53430360Y13417614D01*
X53330378Y13567248D01*
X53261509Y13733513D01*
X53226400Y13910018D01*
X53226400Y14089982D01*
X53261509Y14266487D01*
X53330378Y14432752D01*
X53430360Y14582386D01*
X53557614Y14709640D01*
X53707248Y14809622D01*
X53873513Y14878491D01*
X53991183Y14901897D01*
X54050017Y14913600D01*
X54229983Y14913600D01*
X54288817Y14901897D01*
G37*
G36*
X51748817Y14901897D02*
G01*
X51866487Y14878491D01*
X52032752Y14809622D01*
X52182386Y14709640D01*
X52309640Y14582386D01*
X52409622Y14432752D01*
X52478491Y14266487D01*
X52513600Y14089982D01*
X52513600Y13910018D01*
X52478491Y13733513D01*
X52409622Y13567248D01*
X52309640Y13417614D01*
X52182386Y13290360D01*
X52032752Y13190378D01*
X51866487Y13121509D01*
X51748817Y13098103D01*
X51689983Y13086400D01*
X51510017Y13086400D01*
X51451183Y13098103D01*
X51333513Y13121509D01*
X51167248Y13190378D01*
X51017614Y13290360D01*
X50890360Y13417614D01*
X50790378Y13567248D01*
X50721509Y13733513D01*
X50686400Y13910018D01*
X50686400Y14089982D01*
X50721509Y14266487D01*
X50790378Y14432752D01*
X50890360Y14582386D01*
X51017614Y14709640D01*
X51167248Y14809622D01*
X51333513Y14878491D01*
X51451183Y14901897D01*
X51510017Y14913600D01*
X51689983Y14913600D01*
X51748817Y14901897D01*
G37*
G36*
X51748817Y17441897D02*
G01*
X51866487Y17418491D01*
X52032752Y17349622D01*
X52182386Y17249640D01*
X52309640Y17122386D01*
X52409622Y16972752D01*
X52478491Y16806487D01*
X52513600Y16629982D01*
X52513600Y16450018D01*
X52478491Y16273513D01*
X52409622Y16107248D01*
X52309640Y15957614D01*
X52182386Y15830360D01*
X52032752Y15730378D01*
X51866487Y15661509D01*
X51748817Y15638103D01*
X51689983Y15626400D01*
X51510017Y15626400D01*
X51451183Y15638103D01*
X51333513Y15661509D01*
X51167248Y15730378D01*
X51017614Y15830360D01*
X50890360Y15957614D01*
X50790378Y16107248D01*
X50721509Y16273513D01*
X50686400Y16450018D01*
X50686400Y16629982D01*
X50721509Y16806487D01*
X50790378Y16972752D01*
X50890360Y17122386D01*
X51017614Y17249640D01*
X51167248Y17349622D01*
X51333513Y17418491D01*
X51451183Y17441897D01*
X51510017Y17453600D01*
X51689983Y17453600D01*
X51748817Y17441897D01*
G37*
G36*
X54288817Y17441897D02*
G01*
X54406487Y17418491D01*
X54572752Y17349622D01*
X54722386Y17249640D01*
X54849640Y17122386D01*
X54949622Y16972752D01*
X55018491Y16806487D01*
X55053600Y16629982D01*
X55053600Y16450018D01*
X55018491Y16273513D01*
X54949622Y16107248D01*
X54849640Y15957614D01*
X54722386Y15830360D01*
X54572752Y15730378D01*
X54406487Y15661509D01*
X54288817Y15638103D01*
X54229983Y15626400D01*
X54050017Y15626400D01*
X53991183Y15638103D01*
X53873513Y15661509D01*
X53707248Y15730378D01*
X53557614Y15830360D01*
X53430360Y15957614D01*
X53330378Y16107248D01*
X53261509Y16273513D01*
X53226400Y16450018D01*
X53226400Y16629982D01*
X53261509Y16806487D01*
X53330378Y16972752D01*
X53430360Y17122386D01*
X53557614Y17249640D01*
X53707248Y17349622D01*
X53873513Y17418491D01*
X53991183Y17441897D01*
X54050017Y17453600D01*
X54229983Y17453600D01*
X54288817Y17441897D01*
G37*
G36*
X4859383Y17250589D02*
G01*
X4927629Y17222320D01*
X4958546Y17201662D01*
X4989047Y17181282D01*
X5041282Y17129047D01*
X5082321Y17067627D01*
X5110589Y16999383D01*
X5125000Y16926935D01*
X5125000Y16853065D01*
X5110589Y16780617D01*
X5082320Y16712371D01*
X5041281Y16650952D01*
X4989048Y16598719D01*
X4927629Y16557680D01*
X4927628Y16557679D01*
X4927627Y16557679D01*
X4859383Y16529411D01*
X4786935Y16515000D01*
X4713065Y16515000D01*
X4640617Y16529411D01*
X4572373Y16557679D01*
X4572372Y16557679D01*
X4572371Y16557680D01*
X4510952Y16598719D01*
X4458719Y16650952D01*
X4417680Y16712371D01*
X4389411Y16780617D01*
X4375000Y16853065D01*
X4375000Y16926935D01*
X4389411Y16999383D01*
X4417679Y17067627D01*
X4458718Y17129047D01*
X4510953Y17181282D01*
X4541454Y17201662D01*
X4572371Y17222320D01*
X4640617Y17250589D01*
X4713065Y17265000D01*
X4786935Y17265000D01*
X4859383Y17250589D01*
G37*
G36*
X5910885Y18864695D02*
G01*
X5937819Y18862042D01*
X5972377Y18851559D01*
X6041496Y18830592D01*
X6137039Y18779523D01*
X6137040Y18779522D01*
X6137042Y18779521D01*
X6220790Y18710790D01*
X6272937Y18647250D01*
X6289523Y18627039D01*
X6340592Y18531496D01*
X6350869Y18497616D01*
X6372042Y18427819D01*
X6382661Y18320000D01*
X6372042Y18212181D01*
X6361559Y18177623D01*
X6340592Y18108504D01*
X6289523Y18012961D01*
X6289521Y18012958D01*
X6220790Y17929210D01*
X6137042Y17860479D01*
X6137040Y17860478D01*
X6137039Y17860477D01*
X6041496Y17809408D01*
X5972377Y17788441D01*
X5937819Y17777958D01*
X5910885Y17775305D01*
X5857020Y17770000D01*
X4702980Y17770000D01*
X4649115Y17775305D01*
X4622181Y17777958D01*
X4587623Y17788441D01*
X4518504Y17809408D01*
X4422961Y17860477D01*
X4422960Y17860478D01*
X4422958Y17860479D01*
X4339210Y17929210D01*
X4270479Y18012958D01*
X4270477Y18012961D01*
X4219408Y18108504D01*
X4198441Y18177623D01*
X4187958Y18212181D01*
X4177339Y18320000D01*
X4187958Y18427819D01*
X4209131Y18497616D01*
X4219408Y18531496D01*
X4270477Y18627039D01*
X4287064Y18647250D01*
X4339210Y18710790D01*
X4422958Y18779521D01*
X4422960Y18779522D01*
X4422961Y18779523D01*
X4518504Y18830592D01*
X4587623Y18851559D01*
X4622181Y18862042D01*
X4649115Y18864695D01*
X4702980Y18870000D01*
X5857020Y18870000D01*
X5910885Y18864695D01*
G37*
G36*
X1480885Y18864695D02*
G01*
X1507819Y18862042D01*
X1542377Y18851559D01*
X1611496Y18830592D01*
X1707039Y18779523D01*
X1707040Y18779522D01*
X1707042Y18779521D01*
X1790790Y18710790D01*
X1842937Y18647250D01*
X1859523Y18627039D01*
X1910592Y18531496D01*
X1920869Y18497616D01*
X1942042Y18427819D01*
X1952661Y18320000D01*
X1942042Y18212181D01*
X1931559Y18177623D01*
X1910592Y18108504D01*
X1859523Y18012961D01*
X1859521Y18012958D01*
X1790790Y17929210D01*
X1707042Y17860479D01*
X1707040Y17860478D01*
X1707039Y17860477D01*
X1611496Y17809408D01*
X1542377Y17788441D01*
X1507819Y17777958D01*
X1480885Y17775305D01*
X1427020Y17770000D01*
X772980Y17770000D01*
X719115Y17775305D01*
X692181Y17777958D01*
X657623Y17788441D01*
X588504Y17809408D01*
X492961Y17860477D01*
X492960Y17860478D01*
X492958Y17860479D01*
X409210Y17929210D01*
X340479Y18012958D01*
X340477Y18012961D01*
X289408Y18108504D01*
X268441Y18177623D01*
X257958Y18212181D01*
X247339Y18320000D01*
X257958Y18427819D01*
X279131Y18497616D01*
X289408Y18531496D01*
X340477Y18627039D01*
X357064Y18647250D01*
X409210Y18710790D01*
X492958Y18779521D01*
X492960Y18779522D01*
X492961Y18779523D01*
X588504Y18830592D01*
X657623Y18851559D01*
X692181Y18862042D01*
X719115Y18864695D01*
X772980Y18870000D01*
X1427020Y18870000D01*
X1480885Y18864695D01*
G37*
G36*
X54288817Y19981897D02*
G01*
X54406487Y19958491D01*
X54572752Y19889622D01*
X54722386Y19789640D01*
X54849640Y19662386D01*
X54949622Y19512752D01*
X55018491Y19346487D01*
X55053600Y19169982D01*
X55053600Y18990018D01*
X55018491Y18813513D01*
X54949622Y18647248D01*
X54849640Y18497614D01*
X54722386Y18370360D01*
X54572752Y18270378D01*
X54406487Y18201509D01*
X54288817Y18178103D01*
X54229983Y18166400D01*
X54050017Y18166400D01*
X53991183Y18178103D01*
X53873513Y18201509D01*
X53707248Y18270378D01*
X53557614Y18370360D01*
X53430360Y18497614D01*
X53330378Y18647248D01*
X53261509Y18813513D01*
X53226400Y18990018D01*
X53226400Y19169982D01*
X53261509Y19346487D01*
X53330378Y19512752D01*
X53430360Y19662386D01*
X53557614Y19789640D01*
X53707248Y19889622D01*
X53873513Y19958491D01*
X53991183Y19981897D01*
X54050017Y19993600D01*
X54229983Y19993600D01*
X54288817Y19981897D01*
G37*
G36*
X52513600Y18166400D02*
G01*
X50686400Y18166400D01*
X50686400Y19993600D01*
X52513600Y19993600D01*
X52513600Y18166400D01*
G37*
G36*
X20276826Y21438424D02*
G01*
X20427628Y21392679D01*
X20566604Y21318395D01*
X20688422Y21218422D01*
X20788395Y21096605D01*
X20862679Y20957629D01*
X20908424Y20806827D01*
X20920000Y20689295D01*
X20920000Y20110705D01*
X20908424Y19993173D01*
X20862679Y19842371D01*
X20788395Y19703395D01*
X20688422Y19581578D01*
X20566605Y19481605D01*
X20427629Y19407321D01*
X20276827Y19361576D01*
X20120000Y19346130D01*
X19963174Y19361576D01*
X19812372Y19407321D01*
X19673396Y19481605D01*
X19551579Y19581578D01*
X19451607Y19703394D01*
X19400916Y19798229D01*
X19377320Y19842373D01*
X19331576Y19993173D01*
X19320000Y20110705D01*
X19320000Y20689294D01*
X19331576Y20806826D01*
X19377321Y20957628D01*
X19451605Y21096604D01*
X19551578Y21218422D01*
X19673395Y21318395D01*
X19812371Y21392679D01*
X19963173Y21438424D01*
X20120000Y21453870D01*
X20276826Y21438424D01*
G37*
G36*
X17736826Y21438424D02*
G01*
X17887628Y21392679D01*
X18026604Y21318395D01*
X18148422Y21218422D01*
X18248395Y21096605D01*
X18322679Y20957629D01*
X18368424Y20806827D01*
X18380000Y20689295D01*
X18380000Y20110705D01*
X18368424Y19993173D01*
X18322679Y19842371D01*
X18248395Y19703395D01*
X18148422Y19581578D01*
X18026605Y19481605D01*
X17887629Y19407321D01*
X17736827Y19361576D01*
X17580000Y19346130D01*
X17423174Y19361576D01*
X17272372Y19407321D01*
X17133396Y19481605D01*
X17011579Y19581578D01*
X16911607Y19703394D01*
X16860916Y19798229D01*
X16837320Y19842373D01*
X16791576Y19993173D01*
X16780000Y20110705D01*
X16780000Y20689294D01*
X16791576Y20806826D01*
X16837321Y20957628D01*
X16911605Y21096604D01*
X17011578Y21218422D01*
X17133395Y21318395D01*
X17272371Y21392679D01*
X17423173Y21438424D01*
X17580000Y21453870D01*
X17736826Y21438424D01*
G37*
G36*
X15196826Y21438424D02*
G01*
X15347628Y21392679D01*
X15486604Y21318395D01*
X15608422Y21218422D01*
X15708395Y21096605D01*
X15782679Y20957629D01*
X15828424Y20806827D01*
X15840000Y20689295D01*
X15840000Y20110705D01*
X15828424Y19993173D01*
X15782679Y19842371D01*
X15708395Y19703395D01*
X15608422Y19581578D01*
X15486605Y19481605D01*
X15347629Y19407321D01*
X15196827Y19361576D01*
X15040000Y19346130D01*
X14883174Y19361576D01*
X14732372Y19407321D01*
X14593396Y19481605D01*
X14471579Y19581578D01*
X14371607Y19703394D01*
X14320916Y19798229D01*
X14297320Y19842373D01*
X14251576Y19993173D01*
X14240000Y20110705D01*
X14240000Y20689294D01*
X14251576Y20806826D01*
X14297321Y20957628D01*
X14371605Y21096604D01*
X14471578Y21218422D01*
X14593395Y21318395D01*
X14732371Y21392679D01*
X14883173Y21438424D01*
X15040000Y21453870D01*
X15196826Y21438424D01*
G37*
G36*
X13300000Y19350000D02*
G01*
X11700000Y19350000D01*
X11700000Y21450000D01*
X13300000Y21450000D01*
X13300000Y19350000D01*
G37*
G36*
X53179589Y27584670D02*
G01*
X53343807Y27552005D01*
X53807878Y27359780D01*
X54225530Y27080714D01*
X54580714Y26725530D01*
X54810585Y26381504D01*
X54859781Y26307876D01*
X55052005Y25843806D01*
X55150000Y25351155D01*
X55150000Y24848845D01*
X55052005Y24356194D01*
X54865295Y23905435D01*
X54859780Y23892122D01*
X54580714Y23474470D01*
X54225530Y23119286D01*
X53807878Y22840220D01*
X53343807Y22647995D01*
X53179589Y22615330D01*
X52851155Y22550000D01*
X52348845Y22550000D01*
X52020411Y22615330D01*
X51856193Y22647995D01*
X51392122Y22840220D01*
X50974470Y23119286D01*
X50619286Y23474470D01*
X50340220Y23892122D01*
X50334706Y23905435D01*
X50147995Y24356194D01*
X50050000Y24848845D01*
X50050000Y25351155D01*
X50147995Y25843806D01*
X50340219Y26307876D01*
X50389416Y26381504D01*
X50619286Y26725530D01*
X50974470Y27080714D01*
X51392122Y27359780D01*
X51856193Y27552005D01*
X52020411Y27584670D01*
X52348845Y27650000D01*
X52851155Y27650000D01*
X53179589Y27584670D01*
G37*
G36*
X3479589Y27584670D02*
G01*
X3643807Y27552005D01*
X4107878Y27359780D01*
X4525530Y27080714D01*
X4880714Y26725530D01*
X5110585Y26381504D01*
X5159781Y26307876D01*
X5352005Y25843806D01*
X5450000Y25351155D01*
X5450000Y24848845D01*
X5352005Y24356194D01*
X5165295Y23905435D01*
X5159780Y23892122D01*
X4880714Y23474470D01*
X4525530Y23119286D01*
X4107878Y22840220D01*
X3643807Y22647995D01*
X3479589Y22615330D01*
X3151155Y22550000D01*
X2648845Y22550000D01*
X2320411Y22615330D01*
X2156193Y22647995D01*
X1692122Y22840220D01*
X1274470Y23119286D01*
X919286Y23474470D01*
X640220Y23892122D01*
X634706Y23905435D01*
X447995Y24356194D01*
X350000Y24848845D01*
X350000Y25351155D01*
X447995Y25843806D01*
X640219Y26307876D01*
X689416Y26381504D01*
X919286Y26725530D01*
X1274470Y27080714D01*
X1692122Y27359780D01*
X2156193Y27552005D01*
X2320411Y27584670D01*
X2648845Y27650000D01*
X3151155Y27650000D01*
X3479589Y27584670D01*
G37*
M02*
