M48
; DRILL file {KiCad 5.1.5+dfsg1-2build2} date Wed 23 Sep 2020 01:19:37 +04
; FORMAT={-:-/ absolute / inch / decimal}
; #@! TF.CreationDate,2020-09-23T01:19:37+04:00
; #@! TF.GenerationSoftware,Kicad,Pcbnew,5.1.5+dfsg1-2build2
FMAT,2
INCH
T1C0.0118
T2C0.0157
T3C0.0197
T4C0.0236
T5C0.0276
T6C0.0354
T7C0.0394
T8C0.0400
T9C0.0984
T10C0.0256
%
G90
G05
T1
X0.1417Y0.2953
X0.17Y0.5584
X0.1732Y0.2953
X0.189Y0.5906
X0.1922Y0.5361
X0.3031Y0.2283
X0.3504Y0.5394
X0.3504Y0.5
X0.378Y0.3583
X0.3898Y0.2205
X0.3937Y0.4472
X0.3937Y0.4157
X0.4409Y0.248
X0.4409Y0.2087
X0.4606Y0.315
X0.8701Y0.7953
X0.874Y0.9213
X0.9252Y0.7559
X0.9331Y0.5236
X0.9528Y0.8465
X0.9528Y0.3268
X0.9646Y0.9213
X0.9803Y0.2559
X0.9882Y0.7047
X1.0197Y0.0512
X1.0472Y0.5394
X1.0472Y0.5079
X1.0472Y0.4685
X1.0591Y0.2244
X1.0591Y0.063
X1.0669Y0.126
X1.0866Y0.1929
X1.0984Y0.8031
X1.0984Y0.689
X1.1299Y0.1614
X1.1378Y0.689
X1.1693Y0.3504
X1.1693Y0.2126
X1.1732Y0.8661
X1.1772Y0.9094
X1.1772Y0.8031
X1.1772Y0.6063
X1.1929Y0.1811
X1.2126Y0.878
X1.2283Y0.689
X1.2283Y0.6063
X1.2323Y0.1614
X1.252Y0.6693
X1.252Y0.3465
X1.2638Y0.2283
X1.2638Y0.1614
X1.2756Y0.9961
X1.2795Y0.8937
X1.2835Y0.8031
X1.2992Y0.2244
X1.2992Y0.1614
X1.3031Y0.3583
X1.3307Y0.5079
X1.3425Y0.6378
X1.3504Y0.8346
X1.3583Y0.5906
X1.3819Y0.6142
X1.3858Y0.5472
X1.3858Y0.3307
X1.3937Y0.0354
X1.4016Y0.2126
X1.4134Y0.9724
X1.4134Y0.937
X1.4173Y0.1181
X1.4331Y0.7992
X1.437Y0.3189
X1.4528Y0.689
X1.4567Y0.8504
X1.4646Y1.0
X1.4646Y0.8976
X1.4843Y0.7205
X1.4882Y0.248
X1.4921Y0.7835
X1.4921Y0.752
X1.4921Y0.3976
X1.4921Y0.1496
X1.4961Y0.8543
X1.4961Y0.0866
X1.5039Y0.5197
X1.5079Y0.3661
X1.5315Y0.9449
X1.5394Y0.0276
X1.5669Y0.9055
X1.5669Y0.7559
X1.5866Y0.7244
X1.6063Y0.5118
X1.6181Y0.9685
X1.6299Y0.1732
X1.6417Y0.1417
X1.6457Y0.7283
X1.6457Y0.3071
X1.6535Y0.2126
X1.6772Y0.9567
X1.685Y1.0512
X1.689Y0.3622
X1.7008Y0.5315
X1.7008Y0.0591
X1.7165Y0.6772
X1.7244Y0.6063
X1.7283Y0.7165
X1.7283Y0.3937
X1.7283Y0.1772
X1.7362Y0.063
X1.7402Y0.9449
X1.7402Y0.8819
X1.7402Y0.8307
X1.7441Y0.7992
X1.7441Y0.748
X1.7441Y0.6654
X1.7441Y0.5118
X1.7441Y0.4685
X1.7441Y0.3346
X1.7441Y0.2874
X1.748Y0.5591
X1.748Y0.0945
X1.7598Y0.252
X1.7638Y0.7165
X1.7677Y0.8543
X1.7717Y0.1969
X1.811Y0.6339
X1.815Y0.3504
X1.8228Y0.5236
X1.8268Y0.7992
X1.8268Y0.6063
X1.8346Y0.9016
X1.8425Y1.0276
X1.8465Y0.252
X1.8465Y0.2087
X1.8622Y0.7362
X1.8622Y0.4291
X1.8622Y0.3858
X1.8858Y0.0433
X1.8937Y0.9724
X1.9173Y0.0276
X1.9291Y0.9724
X1.9331Y0.7362
X1.9331Y0.5866
X1.9488Y0.3543
X1.9724Y0.8307
X1.9724Y0.7008
X1.9724Y0.6457
X1.9724Y0.5236
X1.9724Y0.4921
X1.9724Y0.4606
X2.0079Y0.2756
X2.0394Y0.252
X2.0748Y0.8268
X2.1457Y0.8543
T2
X0.0394Y0.8346
X0.0394Y0.7953
X0.0394Y0.3228
X0.0394Y0.252
X0.1024Y0.252
X0.2362Y0.3228
X0.2638Y0.8465
X0.2717Y1.0472
X0.3031Y0.4606
X0.3071Y0.6772
X0.3071Y0.6378
X0.3071Y0.4213
X0.3071Y0.3583
X0.3228Y1.0472
X0.3228Y0.8465
X0.3465Y0.7165
X0.3465Y0.6142
X0.374Y1.0472
X0.3819Y0.8465
X0.3858Y0.7323
X0.3858Y0.626
X0.5472Y1.0472
X0.5472Y0.9961
X0.6772Y1.0472
X0.6772Y0.9961
X0.7283Y0.9961
X0.7795Y0.9961
X0.8228Y1.0472
X0.8228Y0.9961
X0.8228Y0.3189
X0.8661Y0.2598
X0.8976Y0.6299
X1.0236Y1.0276
X1.0315Y0.8425
X1.0472Y1.0039
X1.0906Y1.0039
X1.1181Y0.8976
X1.1181Y0.8583
X1.2717Y0.5748
X1.2913Y0.6299
X1.4213Y0.8976
T3
X0.8661Y0.752
X1.997Y0.9882
X2.0187Y1.0404
X2.0187Y0.936
X2.0709Y1.062
X2.0709Y0.9144
X2.1231Y1.0404
X2.1231Y0.936
X2.1447Y0.9882
X1.997Y0.1142
X2.0187Y0.1664
X2.0187Y0.062
X2.0709Y0.188
X2.0709Y0.0404
X2.1231Y0.1664
X2.1231Y0.062
X2.1447Y0.1142
X0.0404Y0.1142
X0.062Y0.1664
X0.062Y0.062
X0.1142Y0.188
X0.1142Y0.0404
X0.1664Y0.1664
X0.1664Y0.062
X0.188Y0.1142
X0.0404Y0.9882
X0.062Y1.0404
X0.062Y0.936
X0.1142Y1.062
X0.1142Y0.9144
X0.1664Y1.0404
X0.1664Y0.936
X0.188Y0.9882
T5
X0.4921Y0.8031
X0.5921Y0.8031
X0.6921Y0.8031
X0.7921Y0.8031
T6
X1.5669Y0.4449
X1.5669Y0.3449
X1.5669Y0.2449
T7
X0.8031Y0.2598
X0.8031Y0.1598
X0.8031Y0.0598
X0.9528Y0.1614
X0.9528Y0.0614
T8
X2.0315Y0.7512
X2.0315Y0.6512
X2.0315Y0.5512
X2.0315Y0.4512
X2.0315Y0.3512
X2.1315Y0.7512
X2.1315Y0.6512
X2.1315Y0.5512
X2.1315Y0.4512
X2.1315Y0.3512
T9
X2.0709Y0.9882
X2.0709Y0.1142
X0.1142Y0.1142
X0.1142Y0.9882
T10
X0.187Y0.665
X0.187Y0.4374
T4
G00X0.0551Y0.7213
M15
G01X0.0315Y0.7213
M16
G05
G00X0.0551Y0.3811
M15
G01X0.0315Y0.3811
M16
G05
G00X0.2295Y0.7213
M15
G01X0.1862Y0.7213
M16
G05
G00X0.2295Y0.3811
M15
G01X0.1862Y0.3811
M16
G05
T0
M30
