G04 #@! TF.GenerationSoftware,KiCad,Pcbnew,5.1.5+dfsg1-2build2*
G04 #@! TF.CreationDate,2020-09-23T01:19:26+04:00*
G04 #@! TF.ProjectId,RailLink,5261696c-4c69-46e6-9b2e-6b696361645f,rev?*
G04 #@! TF.SameCoordinates,PX5f5e100PY7a12000*
G04 #@! TF.FileFunction,Legend,Bot*
G04 #@! TF.FilePolarity,Positive*
%FSLAX46Y46*%
G04 Gerber Fmt 4.6, Leading zero omitted, Abs format (unit mm)*
G04 Created by KiCad (PCBNEW 5.1.5+dfsg1-2build2) date 2020-09-23 01:19:26*
%MOMM*%
%LPD*%
G04 APERTURE LIST*
%ADD10C,0.160000*%
%ADD11C,0.050000*%
%ADD12R,1.600000X2.100000*%
%ADD13O,1.600000X2.100000*%
%ADD14C,1.900000*%
%ADD15R,1.900000X1.900000*%
%ADD16O,1.800000X1.800000*%
%ADD17R,1.800000X1.800000*%
%ADD18C,5.100000*%
%ADD19C,0.900000*%
%ADD20O,2.200000X1.100000*%
%ADD21C,0.750000*%
%ADD22O,1.700000X1.100000*%
%ADD23O,1.827200X1.827200*%
%ADD24R,1.827200X1.827200*%
G04 APERTURE END LIST*
D10*
X31819047Y3318096D02*
X31552380Y2518096D01*
X31285714Y3318096D01*
X31133333Y3051429D02*
X30828571Y3051429D01*
X31019047Y3318096D02*
X31019047Y2632381D01*
X30980952Y2556191D01*
X30904761Y2518096D01*
X30828571Y2518096D01*
X30561904Y2518096D02*
X30561904Y3051429D01*
X30561904Y2899048D02*
X30523809Y2975239D01*
X30485714Y3013334D01*
X30409523Y3051429D01*
X30333333Y3051429D01*
X29761904Y2556191D02*
X29838095Y2518096D01*
X29990476Y2518096D01*
X30066666Y2556191D01*
X30104761Y2632381D01*
X30104761Y2937143D01*
X30066666Y3013334D01*
X29990476Y3051429D01*
X29838095Y3051429D01*
X29761904Y3013334D01*
X29723809Y2937143D01*
X29723809Y2860953D01*
X30104761Y2784762D01*
X29495238Y3051429D02*
X29190476Y3051429D01*
X29380952Y2518096D02*
X29380952Y3203810D01*
X29342857Y3280000D01*
X29266666Y3318096D01*
X29190476Y3318096D01*
X28314285Y2937143D02*
X27704761Y2937143D01*
X27704761Y2708572D02*
X28314285Y2708572D01*
X30580952Y1958096D02*
X30085714Y1958096D01*
X30352380Y1653334D01*
X30238095Y1653334D01*
X30161904Y1615239D01*
X30123809Y1577143D01*
X30085714Y1500953D01*
X30085714Y1310477D01*
X30123809Y1234286D01*
X30161904Y1196191D01*
X30238095Y1158096D01*
X30466666Y1158096D01*
X30542857Y1196191D01*
X30580952Y1234286D01*
X29742857Y1234286D02*
X29704761Y1196191D01*
X29742857Y1158096D01*
X29780952Y1196191D01*
X29742857Y1234286D01*
X29742857Y1158096D01*
X29438095Y1958096D02*
X28942857Y1958096D01*
X29209523Y1653334D01*
X29095238Y1653334D01*
X29019047Y1615239D01*
X28980952Y1577143D01*
X28942857Y1500953D01*
X28942857Y1310477D01*
X28980952Y1234286D01*
X29019047Y1196191D01*
X29095238Y1158096D01*
X29323809Y1158096D01*
X29400000Y1196191D01*
X29438095Y1234286D01*
X28714285Y1958096D02*
X28447619Y1158096D01*
X28180952Y1958096D01*
X32600000Y400000D02*
X22900000Y400000D01*
X32600000Y7900000D02*
X32600000Y400000D01*
X23000000Y7900000D02*
X32600000Y7900000D01*
X22900000Y400000D02*
X23000000Y7900000D01*
X31300000Y6794286D02*
X31338095Y6756191D01*
X31452380Y6718096D01*
X31528571Y6718096D01*
X31642857Y6756191D01*
X31719047Y6832381D01*
X31757142Y6908572D01*
X31795238Y7060953D01*
X31795238Y7175239D01*
X31757142Y7327620D01*
X31719047Y7403810D01*
X31642857Y7480000D01*
X31528571Y7518096D01*
X31452380Y7518096D01*
X31338095Y7480000D01*
X31300000Y7441905D01*
X30842857Y6718096D02*
X30919047Y6756191D01*
X30957142Y6832381D01*
X30957142Y7518096D01*
X30423809Y6718096D02*
X30500000Y6756191D01*
X30538095Y6794286D01*
X30576190Y6870477D01*
X30576190Y7099048D01*
X30538095Y7175239D01*
X30500000Y7213334D01*
X30423809Y7251429D01*
X30309523Y7251429D01*
X30233333Y7213334D01*
X30195238Y7175239D01*
X30157142Y7099048D01*
X30157142Y6870477D01*
X30195238Y6794286D01*
X30233333Y6756191D01*
X30309523Y6718096D01*
X30423809Y6718096D01*
X29852380Y6756191D02*
X29776190Y6718096D01*
X29623809Y6718096D01*
X29547619Y6756191D01*
X29509523Y6832381D01*
X29509523Y6870477D01*
X29547619Y6946667D01*
X29623809Y6984762D01*
X29738095Y6984762D01*
X29814285Y7022858D01*
X29852380Y7099048D01*
X29852380Y7137143D01*
X29814285Y7213334D01*
X29738095Y7251429D01*
X29623809Y7251429D01*
X29547619Y7213334D01*
X28861904Y6756191D02*
X28938095Y6718096D01*
X29090476Y6718096D01*
X29166666Y6756191D01*
X29204761Y6832381D01*
X29204761Y7137143D01*
X29166666Y7213334D01*
X29090476Y7251429D01*
X28938095Y7251429D01*
X28861904Y7213334D01*
X28823809Y7137143D01*
X28823809Y7060953D01*
X29204761Y6984762D01*
X28442857Y6756191D02*
X28442857Y6718096D01*
X28480952Y6641905D01*
X28519047Y6603810D01*
X27490476Y6718096D02*
X27490476Y7251429D01*
X27490476Y7518096D02*
X27528571Y7480000D01*
X27490476Y7441905D01*
X27452380Y7480000D01*
X27490476Y7518096D01*
X27490476Y7441905D01*
X27223809Y7251429D02*
X26919047Y7251429D01*
X27109523Y6718096D02*
X27109523Y7403810D01*
X27071428Y7480000D01*
X26995238Y7518096D01*
X26919047Y7518096D01*
X26157142Y7518096D02*
X25890476Y6718096D01*
X25623809Y7518096D01*
X25471428Y7251429D02*
X25166666Y7251429D01*
X25357142Y7518096D02*
X25357142Y6832381D01*
X25319047Y6756191D01*
X25242857Y6718096D01*
X25166666Y6718096D01*
X24900000Y6718096D02*
X24900000Y7251429D01*
X24900000Y7099048D02*
X24861904Y7175239D01*
X24823809Y7213334D01*
X24747619Y7251429D01*
X24671428Y7251429D01*
X24100000Y6756191D02*
X24176190Y6718096D01*
X24328571Y6718096D01*
X24404761Y6756191D01*
X24442857Y6832381D01*
X24442857Y7137143D01*
X24404761Y7213334D01*
X24328571Y7251429D01*
X24176190Y7251429D01*
X24100000Y7213334D01*
X24061904Y7137143D01*
X24061904Y7060953D01*
X24442857Y6984762D01*
X23833333Y7251429D02*
X23528571Y7251429D01*
X23719047Y6718096D02*
X23719047Y7403810D01*
X23680952Y7480000D01*
X23604761Y7518096D01*
X23528571Y7518096D01*
X31795238Y5358096D02*
X31795238Y5891429D01*
X31795238Y6158096D02*
X31833333Y6120000D01*
X31795238Y6081905D01*
X31757142Y6120000D01*
X31795238Y6158096D01*
X31795238Y6081905D01*
X31452380Y5396191D02*
X31376190Y5358096D01*
X31223809Y5358096D01*
X31147619Y5396191D01*
X31109523Y5472381D01*
X31109523Y5510477D01*
X31147619Y5586667D01*
X31223809Y5624762D01*
X31338095Y5624762D01*
X31414285Y5662858D01*
X31452380Y5739048D01*
X31452380Y5777143D01*
X31414285Y5853334D01*
X31338095Y5891429D01*
X31223809Y5891429D01*
X31147619Y5853334D01*
X30157142Y5891429D02*
X30157142Y5358096D01*
X30157142Y5815239D02*
X30119047Y5853334D01*
X30042857Y5891429D01*
X29928571Y5891429D01*
X29852380Y5853334D01*
X29814285Y5777143D01*
X29814285Y5358096D01*
X29319047Y5358096D02*
X29395238Y5396191D01*
X29433333Y5434286D01*
X29471428Y5510477D01*
X29471428Y5739048D01*
X29433333Y5815239D01*
X29395238Y5853334D01*
X29319047Y5891429D01*
X29204761Y5891429D01*
X29128571Y5853334D01*
X29090476Y5815239D01*
X29052380Y5739048D01*
X29052380Y5510477D01*
X29090476Y5434286D01*
X29128571Y5396191D01*
X29204761Y5358096D01*
X29319047Y5358096D01*
X28823809Y5891429D02*
X28519047Y5891429D01*
X28709523Y6158096D02*
X28709523Y5472381D01*
X28671428Y5396191D01*
X28595238Y5358096D01*
X28519047Y5358096D01*
X27642857Y5891429D02*
X27642857Y5091429D01*
X27642857Y5853334D02*
X27566666Y5891429D01*
X27414285Y5891429D01*
X27338095Y5853334D01*
X27300000Y5815239D01*
X27261904Y5739048D01*
X27261904Y5510477D01*
X27300000Y5434286D01*
X27338095Y5396191D01*
X27414285Y5358096D01*
X27566666Y5358096D01*
X27642857Y5396191D01*
X26919047Y5358096D02*
X26919047Y5891429D01*
X26919047Y5739048D02*
X26880952Y5815239D01*
X26842857Y5853334D01*
X26766666Y5891429D01*
X26690476Y5891429D01*
X26119047Y5396191D02*
X26195238Y5358096D01*
X26347619Y5358096D01*
X26423809Y5396191D01*
X26461904Y5472381D01*
X26461904Y5777143D01*
X26423809Y5853334D01*
X26347619Y5891429D01*
X26195238Y5891429D01*
X26119047Y5853334D01*
X26080952Y5777143D01*
X26080952Y5700953D01*
X26461904Y5624762D01*
X25776190Y5396191D02*
X25700000Y5358096D01*
X25547619Y5358096D01*
X25471428Y5396191D01*
X25433333Y5472381D01*
X25433333Y5510477D01*
X25471428Y5586667D01*
X25547619Y5624762D01*
X25661904Y5624762D01*
X25738095Y5662858D01*
X25776190Y5739048D01*
X25776190Y5777143D01*
X25738095Y5853334D01*
X25661904Y5891429D01*
X25547619Y5891429D01*
X25471428Y5853334D01*
X24785714Y5396191D02*
X24861904Y5358096D01*
X25014285Y5358096D01*
X25090476Y5396191D01*
X25128571Y5472381D01*
X25128571Y5777143D01*
X25090476Y5853334D01*
X25014285Y5891429D01*
X24861904Y5891429D01*
X24785714Y5853334D01*
X24747619Y5777143D01*
X24747619Y5700953D01*
X25128571Y5624762D01*
X24404761Y5891429D02*
X24404761Y5358096D01*
X24404761Y5815239D02*
X24366666Y5853334D01*
X24290476Y5891429D01*
X24176190Y5891429D01*
X24100000Y5853334D01*
X24061904Y5777143D01*
X24061904Y5358096D01*
X23795238Y5891429D02*
X23490476Y5891429D01*
X23680952Y6158096D02*
X23680952Y5472381D01*
X23642857Y5396191D01*
X23566666Y5358096D01*
X23490476Y5358096D01*
X44200000Y19900000D02*
X43900000Y20200000D01*
X43900000Y20200000D02*
X43600000Y19900000D01*
X43900000Y19200000D02*
X43900000Y20200000D01*
X43900000Y9100000D02*
X43600000Y8800000D01*
X44200000Y8800000D02*
X43900000Y9100000D01*
X43900000Y8100000D02*
X43900000Y9100000D01*
X48358095Y14880191D02*
X48358095Y15337334D01*
X47558095Y15108762D02*
X48358095Y15108762D01*
X47558095Y15604000D02*
X48358095Y15604000D01*
X47786666Y15870667D01*
X48358095Y16137334D01*
X47558095Y16137334D01*
X47596190Y16480191D02*
X47558095Y16594477D01*
X47558095Y16784953D01*
X47596190Y16861143D01*
X47634285Y16899239D01*
X47710476Y16937334D01*
X47786666Y16937334D01*
X47862857Y16899239D01*
X47900952Y16861143D01*
X47939047Y16784953D01*
X47977142Y16632572D01*
X48015238Y16556381D01*
X48053333Y16518286D01*
X48129523Y16480191D01*
X48205714Y16480191D01*
X48281904Y16518286D01*
X48320000Y16556381D01*
X48358095Y16632572D01*
X48358095Y16823048D01*
X48320000Y16937334D01*
X48396190Y17851620D02*
X47367619Y17165905D01*
X47596190Y18080191D02*
X47558095Y18194477D01*
X47558095Y18384953D01*
X47596190Y18461143D01*
X47634285Y18499239D01*
X47710476Y18537334D01*
X47786666Y18537334D01*
X47862857Y18499239D01*
X47900952Y18461143D01*
X47939047Y18384953D01*
X47977142Y18232572D01*
X48015238Y18156381D01*
X48053333Y18118286D01*
X48129523Y18080191D01*
X48205714Y18080191D01*
X48281904Y18118286D01*
X48320000Y18156381D01*
X48358095Y18232572D01*
X48358095Y18423048D01*
X48320000Y18537334D01*
X48358095Y18804000D02*
X47558095Y18994477D01*
X48129523Y19146858D01*
X47558095Y19299239D01*
X48358095Y19489715D01*
X47558095Y19794477D02*
X48358095Y19794477D01*
X48358095Y19984953D01*
X48320000Y20099239D01*
X48243809Y20175429D01*
X48167619Y20213524D01*
X48015238Y20251620D01*
X47900952Y20251620D01*
X47748571Y20213524D01*
X47672380Y20175429D01*
X47596190Y20099239D01*
X47558095Y19984953D01*
X47558095Y19794477D01*
X47558095Y20594477D02*
X48358095Y20594477D01*
X48358095Y21127810D02*
X48358095Y21280191D01*
X48320000Y21356381D01*
X48243809Y21432572D01*
X48091428Y21470667D01*
X47824761Y21470667D01*
X47672380Y21432572D01*
X47596190Y21356381D01*
X47558095Y21280191D01*
X47558095Y21127810D01*
X47596190Y21051620D01*
X47672380Y20975429D01*
X47824761Y20937334D01*
X48091428Y20937334D01*
X48243809Y20975429D01*
X48320000Y21051620D01*
X48358095Y21127810D01*
X46998095Y14880191D02*
X46998095Y15337334D01*
X46198095Y15108762D02*
X46998095Y15108762D01*
X46274285Y16061143D02*
X46236190Y16023048D01*
X46198095Y15908762D01*
X46198095Y15832572D01*
X46236190Y15718286D01*
X46312380Y15642096D01*
X46388571Y15604000D01*
X46540952Y15565905D01*
X46655238Y15565905D01*
X46807619Y15604000D01*
X46883809Y15642096D01*
X46960000Y15718286D01*
X46998095Y15832572D01*
X46998095Y15908762D01*
X46960000Y16023048D01*
X46921904Y16061143D01*
X46198095Y16404000D02*
X46998095Y16404000D01*
X46198095Y16861143D02*
X46655238Y16518286D01*
X46998095Y16861143D02*
X46540952Y16404000D01*
X47036190Y17775429D02*
X46007619Y17089715D01*
X46236190Y18004000D02*
X46198095Y18118286D01*
X46198095Y18308762D01*
X46236190Y18384953D01*
X46274285Y18423048D01*
X46350476Y18461143D01*
X46426666Y18461143D01*
X46502857Y18423048D01*
X46540952Y18384953D01*
X46579047Y18308762D01*
X46617142Y18156381D01*
X46655238Y18080191D01*
X46693333Y18042096D01*
X46769523Y18004000D01*
X46845714Y18004000D01*
X46921904Y18042096D01*
X46960000Y18080191D01*
X46998095Y18156381D01*
X46998095Y18346858D01*
X46960000Y18461143D01*
X46998095Y18727810D02*
X46198095Y18918286D01*
X46769523Y19070667D01*
X46198095Y19223048D01*
X46998095Y19413524D01*
X46274285Y20175429D02*
X46236190Y20137334D01*
X46198095Y20023048D01*
X46198095Y19946858D01*
X46236190Y19832572D01*
X46312380Y19756381D01*
X46388571Y19718286D01*
X46540952Y19680191D01*
X46655238Y19680191D01*
X46807619Y19718286D01*
X46883809Y19756381D01*
X46960000Y19832572D01*
X46998095Y19946858D01*
X46998095Y20023048D01*
X46960000Y20137334D01*
X46921904Y20175429D01*
X46198095Y20899239D02*
X46198095Y20518286D01*
X46998095Y20518286D01*
X46198095Y21165905D02*
X46998095Y21165905D01*
X46198095Y21623048D02*
X46655238Y21280191D01*
X46998095Y21623048D02*
X46540952Y21165905D01*
X45638095Y14880191D02*
X45638095Y15337334D01*
X44838095Y15108762D02*
X45638095Y15108762D01*
X44838095Y15604000D02*
X45638095Y15604000D01*
X45638095Y15794477D01*
X45600000Y15908762D01*
X45523809Y15984953D01*
X45447619Y16023048D01*
X45295238Y16061143D01*
X45180952Y16061143D01*
X45028571Y16023048D01*
X44952380Y15984953D01*
X44876190Y15908762D01*
X44838095Y15794477D01*
X44838095Y15604000D01*
X45638095Y16556381D02*
X45638095Y16708762D01*
X45600000Y16784953D01*
X45523809Y16861143D01*
X45371428Y16899239D01*
X45104761Y16899239D01*
X44952380Y16861143D01*
X44876190Y16784953D01*
X44838095Y16708762D01*
X44838095Y16556381D01*
X44876190Y16480191D01*
X44952380Y16404000D01*
X45104761Y16365905D01*
X45371428Y16365905D01*
X45523809Y16404000D01*
X45600000Y16480191D01*
X45638095Y16556381D01*
X45676190Y17813524D02*
X44647619Y17127810D01*
X44876190Y18042096D02*
X44838095Y18156381D01*
X44838095Y18346858D01*
X44876190Y18423048D01*
X44914285Y18461143D01*
X44990476Y18499239D01*
X45066666Y18499239D01*
X45142857Y18461143D01*
X45180952Y18423048D01*
X45219047Y18346858D01*
X45257142Y18194477D01*
X45295238Y18118286D01*
X45333333Y18080191D01*
X45409523Y18042096D01*
X45485714Y18042096D01*
X45561904Y18080191D01*
X45600000Y18118286D01*
X45638095Y18194477D01*
X45638095Y18384953D01*
X45600000Y18499239D01*
X45638095Y18765905D02*
X44838095Y18956381D01*
X45409523Y19108762D01*
X44838095Y19261143D01*
X45638095Y19451620D01*
X45638095Y19908762D02*
X45638095Y20061143D01*
X45600000Y20137334D01*
X45523809Y20213524D01*
X45371428Y20251620D01*
X45104761Y20251620D01*
X44952380Y20213524D01*
X44876190Y20137334D01*
X44838095Y20061143D01*
X44838095Y19908762D01*
X44876190Y19832572D01*
X44952380Y19756381D01*
X45104761Y19718286D01*
X45371428Y19718286D01*
X45523809Y19756381D01*
X45600000Y19832572D01*
X45638095Y19908762D01*
X44278095Y14880191D02*
X44278095Y15337334D01*
X43478095Y15108762D02*
X44278095Y15108762D01*
X43478095Y15604000D02*
X44278095Y15604000D01*
X44278095Y15794477D01*
X44240000Y15908762D01*
X44163809Y15984953D01*
X44087619Y16023048D01*
X43935238Y16061143D01*
X43820952Y16061143D01*
X43668571Y16023048D01*
X43592380Y15984953D01*
X43516190Y15908762D01*
X43478095Y15794477D01*
X43478095Y15604000D01*
X43478095Y16404000D02*
X44278095Y16404000D01*
X44316190Y17356381D02*
X43287619Y16670667D01*
X44278095Y17508762D02*
X44278095Y17965905D01*
X43478095Y17737334D02*
X44278095Y17737334D01*
X44278095Y18156381D02*
X43478095Y18689715D01*
X44278095Y18689715D02*
X43478095Y18156381D01*
X43264000Y14804000D02*
X43264000Y15604000D01*
X42118095Y15451620D02*
X42499047Y15184953D01*
X42118095Y14994477D02*
X42918095Y14994477D01*
X42918095Y15299239D01*
X42880000Y15375429D01*
X42841904Y15413524D01*
X42765714Y15451620D01*
X42651428Y15451620D01*
X42575238Y15413524D01*
X42537142Y15375429D01*
X42499047Y15299239D01*
X42499047Y14994477D01*
X43264000Y15604000D02*
X43264000Y16327810D01*
X42537142Y15794477D02*
X42537142Y16061143D01*
X42118095Y16175429D02*
X42118095Y15794477D01*
X42918095Y15794477D01*
X42918095Y16175429D01*
X43264000Y16327810D02*
X43264000Y17089715D01*
X42156190Y16480191D02*
X42118095Y16594477D01*
X42118095Y16784953D01*
X42156190Y16861143D01*
X42194285Y16899239D01*
X42270476Y16937334D01*
X42346666Y16937334D01*
X42422857Y16899239D01*
X42460952Y16861143D01*
X42499047Y16784953D01*
X42537142Y16632572D01*
X42575238Y16556381D01*
X42613333Y16518286D01*
X42689523Y16480191D01*
X42765714Y16480191D01*
X42841904Y16518286D01*
X42880000Y16556381D01*
X42918095Y16632572D01*
X42918095Y16823048D01*
X42880000Y16937334D01*
X43264000Y17089715D02*
X43264000Y17813524D01*
X42537142Y17280191D02*
X42537142Y17546858D01*
X42118095Y17661143D02*
X42118095Y17280191D01*
X42918095Y17280191D01*
X42918095Y17661143D01*
X43264000Y17813524D02*
X43264000Y18423048D01*
X42918095Y17889715D02*
X42918095Y18346858D01*
X42118095Y18118286D02*
X42918095Y18118286D01*
X48358095Y8191239D02*
X47558095Y8457905D01*
X48358095Y8724572D01*
X48091428Y8876953D02*
X48091428Y9181715D01*
X48358095Y8991239D02*
X47672380Y8991239D01*
X47596190Y9029334D01*
X47558095Y9105524D01*
X47558095Y9181715D01*
X47558095Y9448381D02*
X48091428Y9448381D01*
X47939047Y9448381D02*
X48015238Y9486477D01*
X48053333Y9524572D01*
X48091428Y9600762D01*
X48091428Y9676953D01*
X47596190Y10248381D02*
X47558095Y10172191D01*
X47558095Y10019810D01*
X47596190Y9943620D01*
X47672380Y9905524D01*
X47977142Y9905524D01*
X48053333Y9943620D01*
X48091428Y10019810D01*
X48091428Y10172191D01*
X48053333Y10248381D01*
X47977142Y10286477D01*
X47900952Y10286477D01*
X47824761Y9905524D01*
X48091428Y10515048D02*
X48091428Y10819810D01*
X47558095Y10629334D02*
X48243809Y10629334D01*
X48320000Y10667429D01*
X48358095Y10743620D01*
X48358095Y10819810D01*
X46960000Y9067429D02*
X46998095Y8991239D01*
X46998095Y8876953D01*
X46960000Y8762667D01*
X46883809Y8686477D01*
X46807619Y8648381D01*
X46655238Y8610286D01*
X46540952Y8610286D01*
X46388571Y8648381D01*
X46312380Y8686477D01*
X46236190Y8762667D01*
X46198095Y8876953D01*
X46198095Y8953143D01*
X46236190Y9067429D01*
X46274285Y9105524D01*
X46540952Y9105524D01*
X46540952Y8953143D01*
X46198095Y9448381D02*
X46998095Y9448381D01*
X46198095Y9905524D01*
X46998095Y9905524D01*
X46198095Y10286477D02*
X46998095Y10286477D01*
X46998095Y10476953D01*
X46960000Y10591239D01*
X46883809Y10667429D01*
X46807619Y10705524D01*
X46655238Y10743620D01*
X46540952Y10743620D01*
X46388571Y10705524D01*
X46312380Y10667429D01*
X46236190Y10591239D01*
X46198095Y10476953D01*
X46198095Y10286477D01*
X45600000Y9067429D02*
X45638095Y8991239D01*
X45638095Y8876953D01*
X45600000Y8762667D01*
X45523809Y8686477D01*
X45447619Y8648381D01*
X45295238Y8610286D01*
X45180952Y8610286D01*
X45028571Y8648381D01*
X44952380Y8686477D01*
X44876190Y8762667D01*
X44838095Y8876953D01*
X44838095Y8953143D01*
X44876190Y9067429D01*
X44914285Y9105524D01*
X45180952Y9105524D01*
X45180952Y8953143D01*
X44838095Y9448381D02*
X45638095Y9448381D01*
X44838095Y9905524D01*
X45638095Y9905524D01*
X44838095Y10286477D02*
X45638095Y10286477D01*
X45638095Y10476953D01*
X45600000Y10591239D01*
X45523809Y10667429D01*
X45447619Y10705524D01*
X45295238Y10743620D01*
X45180952Y10743620D01*
X45028571Y10705524D01*
X44952380Y10667429D01*
X44876190Y10591239D01*
X44838095Y10476953D01*
X44838095Y10286477D01*
X43478095Y9981715D02*
X43859047Y9715048D01*
X43478095Y9524572D02*
X44278095Y9524572D01*
X44278095Y9829334D01*
X44240000Y9905524D01*
X44201904Y9943620D01*
X44125714Y9981715D01*
X44011428Y9981715D01*
X43935238Y9943620D01*
X43897142Y9905524D01*
X43859047Y9829334D01*
X43859047Y9524572D01*
X44278095Y10248381D02*
X43478095Y10781715D01*
X44278095Y10781715D02*
X43478095Y10248381D01*
X42880000Y9067429D02*
X42918095Y8991239D01*
X42918095Y8876953D01*
X42880000Y8762667D01*
X42803809Y8686477D01*
X42727619Y8648381D01*
X42575238Y8610286D01*
X42460952Y8610286D01*
X42308571Y8648381D01*
X42232380Y8686477D01*
X42156190Y8762667D01*
X42118095Y8876953D01*
X42118095Y8953143D01*
X42156190Y9067429D01*
X42194285Y9105524D01*
X42460952Y9105524D01*
X42460952Y8953143D01*
X42118095Y9448381D02*
X42918095Y9448381D01*
X42118095Y9905524D01*
X42918095Y9905524D01*
X42118095Y10286477D02*
X42918095Y10286477D01*
X42918095Y10476953D01*
X42880000Y10591239D01*
X42803809Y10667429D01*
X42727619Y10705524D01*
X42575238Y10743620D01*
X42460952Y10743620D01*
X42308571Y10705524D01*
X42232380Y10667429D01*
X42156190Y10591239D01*
X42118095Y10476953D01*
X42118095Y10286477D01*
X48800000Y14500000D02*
X48800000Y11500000D01*
X41800000Y14500000D02*
X48800000Y14500000D01*
X41800000Y11500000D02*
X41800000Y14500000D01*
X41800000Y11500000D02*
X44300000Y11500000D01*
X47658095Y12542858D02*
X47658095Y12085715D01*
X47658095Y12314286D02*
X48458095Y12314286D01*
X48343809Y12238096D01*
X48267619Y12161905D01*
X48229523Y12085715D01*
X48381904Y13457143D02*
X48420000Y13495239D01*
X48458095Y13571429D01*
X48458095Y13761905D01*
X48420000Y13838096D01*
X48381904Y13876191D01*
X48305714Y13914286D01*
X48229523Y13914286D01*
X48115238Y13876191D01*
X47658095Y13419048D01*
X47658095Y13914286D01*
X47098095Y12047620D02*
X47098095Y12542858D01*
X46793333Y12276191D01*
X46793333Y12390477D01*
X46755238Y12466667D01*
X46717142Y12504762D01*
X46640952Y12542858D01*
X46450476Y12542858D01*
X46374285Y12504762D01*
X46336190Y12466667D01*
X46298095Y12390477D01*
X46298095Y12161905D01*
X46336190Y12085715D01*
X46374285Y12047620D01*
X46831428Y13838096D02*
X46298095Y13838096D01*
X47136190Y13647620D02*
X46564761Y13457143D01*
X46564761Y13952381D01*
X45738095Y12504762D02*
X45738095Y12123810D01*
X45357142Y12085715D01*
X45395238Y12123810D01*
X45433333Y12200000D01*
X45433333Y12390477D01*
X45395238Y12466667D01*
X45357142Y12504762D01*
X45280952Y12542858D01*
X45090476Y12542858D01*
X45014285Y12504762D01*
X44976190Y12466667D01*
X44938095Y12390477D01*
X44938095Y12200000D01*
X44976190Y12123810D01*
X45014285Y12085715D01*
X45738095Y13838096D02*
X45738095Y13685715D01*
X45700000Y13609524D01*
X45661904Y13571429D01*
X45547619Y13495239D01*
X45395238Y13457143D01*
X45090476Y13457143D01*
X45014285Y13495239D01*
X44976190Y13533334D01*
X44938095Y13609524D01*
X44938095Y13761905D01*
X44976190Y13838096D01*
X45014285Y13876191D01*
X45090476Y13914286D01*
X45280952Y13914286D01*
X45357142Y13876191D01*
X45395238Y13838096D01*
X45433333Y13761905D01*
X45433333Y13609524D01*
X45395238Y13533334D01*
X45357142Y13495239D01*
X45280952Y13457143D01*
X44378095Y12047620D02*
X44378095Y12580953D01*
X43578095Y12238096D01*
X44035238Y13609524D02*
X44073333Y13533334D01*
X44111428Y13495239D01*
X44187619Y13457143D01*
X44225714Y13457143D01*
X44301904Y13495239D01*
X44340000Y13533334D01*
X44378095Y13609524D01*
X44378095Y13761905D01*
X44340000Y13838096D01*
X44301904Y13876191D01*
X44225714Y13914286D01*
X44187619Y13914286D01*
X44111428Y13876191D01*
X44073333Y13838096D01*
X44035238Y13761905D01*
X44035238Y13609524D01*
X43997142Y13533334D01*
X43959047Y13495239D01*
X43882857Y13457143D01*
X43730476Y13457143D01*
X43654285Y13495239D01*
X43616190Y13533334D01*
X43578095Y13609524D01*
X43578095Y13761905D01*
X43616190Y13838096D01*
X43654285Y13876191D01*
X43730476Y13914286D01*
X43882857Y13914286D01*
X43959047Y13876191D01*
X43997142Y13838096D01*
X44035238Y13761905D01*
X42218095Y11780953D02*
X42218095Y11933334D01*
X42256190Y12009524D01*
X42294285Y12047620D01*
X42408571Y12123810D01*
X42560952Y12161905D01*
X42865714Y12161905D01*
X42941904Y12123810D01*
X42980000Y12085715D01*
X43018095Y12009524D01*
X43018095Y11857143D01*
X42980000Y11780953D01*
X42941904Y11742858D01*
X42865714Y11704762D01*
X42675238Y11704762D01*
X42599047Y11742858D01*
X42560952Y11780953D01*
X42522857Y11857143D01*
X42522857Y12009524D01*
X42560952Y12085715D01*
X42599047Y12123810D01*
X42675238Y12161905D01*
X42218095Y13533334D02*
X42218095Y13076191D01*
X42218095Y13304762D02*
X43018095Y13304762D01*
X42903809Y13228572D01*
X42827619Y13152381D01*
X42789523Y13076191D01*
X43018095Y14028572D02*
X43018095Y14104762D01*
X42980000Y14180953D01*
X42941904Y14219048D01*
X42865714Y14257143D01*
X42713333Y14295239D01*
X42522857Y14295239D01*
X42370476Y14257143D01*
X42294285Y14219048D01*
X42256190Y14180953D01*
X42218095Y14104762D01*
X42218095Y14028572D01*
X42256190Y13952381D01*
X42294285Y13914286D01*
X42370476Y13876191D01*
X42522857Y13838096D01*
X42713333Y13838096D01*
X42865714Y13876191D01*
X42941904Y13914286D01*
X42980000Y13952381D01*
X43018095Y14028572D01*
X46300000Y11500000D02*
X48800000Y11500000D01*
D11*
X3000000Y0D02*
G75*
G02X0Y3000000I0J3000000D01*
G01*
X0Y25000000D02*
G75*
G02X3000000Y28000000I3000000J0D01*
G01*
X57000000Y28000000D02*
G75*
G02X60000000Y25000000I0J-3000000D01*
G01*
X60000000Y3000000D02*
G75*
G02X57000000Y0I-3000000J0D01*
G01*
X57000000Y28000000D02*
X3000000Y28000000D01*
X60000000Y3000000D02*
X60000000Y25000000D01*
X3000000Y0D02*
X57000000Y0D01*
X0Y25000000D02*
X0Y3000000D01*
%LPC*%
D12*
X12500000Y20400000D03*
D13*
X15040000Y20400000D03*
X17580000Y20400000D03*
X20120000Y20400000D03*
D14*
X39800000Y6220000D03*
X39800000Y8760000D03*
D15*
X39800000Y11300000D03*
D16*
X24200000Y1560000D03*
D17*
X24200000Y4100000D03*
D18*
X2900000Y25100000D03*
D19*
X4775000Y25100000D03*
X4225825Y23774175D03*
X2900000Y23225000D03*
X1574175Y23774175D03*
X1025000Y25100000D03*
X1574175Y26425825D03*
X2900000Y26975000D03*
X4225825Y26425825D03*
X4225825Y4225825D03*
X2900000Y4775000D03*
X1574175Y4225825D03*
X1025000Y2900000D03*
X1574175Y1574175D03*
X2900000Y1025000D03*
X4225825Y1574175D03*
X4775000Y2900000D03*
D18*
X2900000Y2900000D03*
D20*
X5280000Y9680000D03*
X5280000Y18320000D03*
D21*
X4750000Y16890000D03*
D22*
X1100000Y18320000D03*
D21*
X4750000Y11110000D03*
D22*
X1100000Y9680000D03*
D18*
X52600000Y2900000D03*
D19*
X54475000Y2900000D03*
X53925825Y1574175D03*
X52600000Y1025000D03*
X51274175Y1574175D03*
X50725000Y2900000D03*
X51274175Y4225825D03*
X52600000Y4775000D03*
X53925825Y4225825D03*
D23*
X54140000Y8920000D03*
X51600000Y8920000D03*
X54140000Y11460000D03*
X51600000Y11460000D03*
X54140000Y14000000D03*
X51600000Y14000000D03*
X54140000Y16540000D03*
X51600000Y16540000D03*
X54140000Y19080000D03*
D24*
X51600000Y19080000D03*
D19*
X53925825Y26425825D03*
X52600000Y26975000D03*
X51274175Y26425825D03*
X50725000Y25100000D03*
X51274175Y23774175D03*
X52600000Y23225000D03*
X53925825Y23774175D03*
X54475000Y25100000D03*
D18*
X52600000Y25100000D03*
D16*
X20400000Y1520000D03*
X20400000Y4060000D03*
D17*
X20400000Y6600000D03*
M02*
