G04 #@! TF.GenerationSoftware,KiCad,Pcbnew,5.1.5+dfsg1-2build2*
G04 #@! TF.CreationDate,2020-07-23T00:46:52+04:00*
G04 #@! TF.ProjectId,RailLink_Elsys_Adapter,5261696c-4c69-46e6-9b5f-456c7379735f,rev?*
G04 #@! TF.SameCoordinates,Original*
G04 #@! TF.FileFunction,Copper,L2,Bot*
G04 #@! TF.FilePolarity,Positive*
%FSLAX46Y46*%
G04 Gerber Fmt 4.6, Leading zero omitted, Abs format (unit mm)*
G04 Created by KiCad (PCBNEW 5.1.5+dfsg1-2build2) date 2020-07-23 00:46:52*
%MOMM*%
%LPD*%
G04 APERTURE LIST*
%ADD10C,0.050000*%
%ADD11O,1.700000X1.700000*%
%ADD12R,1.700000X1.700000*%
%ADD13R,1.727200X1.727200*%
%ADD14O,1.727200X1.727200*%
%ADD15C,1.000000*%
%ADD16C,0.800000*%
%ADD17C,0.400000*%
%ADD18C,0.200000*%
G04 APERTURE END LIST*
D10*
X125000000Y-82000000D02*
G75*
G02X122000000Y-79000000I0J3000000D01*
G01*
X150000000Y-79000000D02*
G75*
G02X147000000Y-82000000I-3000000J0D01*
G01*
X147000000Y-55000000D02*
G75*
G02X150000000Y-58000000I0J-3000000D01*
G01*
X122000000Y-58000000D02*
G75*
G02X125000000Y-55000000I3000000J0D01*
G01*
X122000000Y-79000000D02*
X122000000Y-58000000D01*
X147000000Y-82000000D02*
X125000000Y-82000000D01*
X150000000Y-58000000D02*
X150000000Y-79000000D01*
X125000000Y-55000000D02*
X147000000Y-55000000D01*
D11*
X142040000Y-76400000D03*
D12*
X139500000Y-76400000D03*
D11*
X147400000Y-79240000D03*
X147400000Y-76700000D03*
X147400000Y-74160000D03*
X147400000Y-71620000D03*
X147400000Y-69080000D03*
X147400000Y-66540000D03*
D12*
X147400000Y-64000000D03*
D11*
X142040000Y-80100000D03*
D12*
X139500000Y-80100000D03*
D13*
X133600000Y-75700000D03*
D14*
X131060000Y-75700000D03*
X133600000Y-73160000D03*
X131060000Y-73160000D03*
X133600000Y-70620000D03*
X131060000Y-70620000D03*
X133600000Y-68080000D03*
X131060000Y-68080000D03*
X133600000Y-65540000D03*
X131060000Y-65540000D03*
X133600000Y-63000000D03*
X131060000Y-63000000D03*
X142040000Y-69080000D03*
X139500000Y-69080000D03*
X142040000Y-66540000D03*
X139500000Y-66540000D03*
X142040000Y-64000000D03*
D13*
X139500000Y-64000000D03*
D15*
X125000000Y-60000000D03*
X125000000Y-65000000D03*
X125000000Y-70000000D03*
X125000000Y-75000000D03*
X125000000Y-80000000D03*
X130000000Y-60000000D03*
X135000000Y-60000000D03*
X140000000Y-60000000D03*
X145000000Y-60000000D03*
X136000000Y-65600000D03*
X136000000Y-69500000D03*
X140500000Y-71000000D03*
X137500000Y-79500000D03*
X132500000Y-79500000D03*
X130500000Y-77500000D03*
X136000000Y-73000000D03*
X136000000Y-76500000D03*
X141500000Y-74500000D03*
X143500000Y-74500000D03*
X143500000Y-68000000D03*
X144000000Y-80000000D03*
X145500000Y-79500000D03*
D16*
X145900000Y-77300000D03*
X145900000Y-73000000D03*
D17*
X133600000Y-75700000D02*
X133600000Y-77300000D01*
X133600000Y-77300000D02*
X134300000Y-78000000D01*
X140440000Y-78000000D02*
X142040000Y-76400000D01*
X134300000Y-78000000D02*
X140440000Y-78000000D01*
X131060000Y-75700000D02*
X131060000Y-76160000D01*
X145900000Y-77300000D02*
X145900000Y-73000000D01*
D18*
G36*
X148900000Y-80563674D02*
G01*
X148754399Y-80742198D01*
X148563649Y-80900000D01*
X143125703Y-80900000D01*
X143135655Y-80888701D01*
X143268470Y-80659795D01*
X143354076Y-80409376D01*
X143261295Y-80200000D01*
X142140000Y-80200000D01*
X142140000Y-80220000D01*
X141940000Y-80220000D01*
X141940000Y-80200000D01*
X141920000Y-80200000D01*
X141920000Y-80000000D01*
X141940000Y-80000000D01*
X141940000Y-78879088D01*
X142140000Y-78879088D01*
X142140000Y-80000000D01*
X143261295Y-80000000D01*
X143354076Y-79790624D01*
X143268470Y-79540205D01*
X143135655Y-79311299D01*
X142960734Y-79112702D01*
X142750430Y-78952046D01*
X142512825Y-78835506D01*
X142349375Y-78785928D01*
X142140000Y-78879088D01*
X141940000Y-78879088D01*
X141730625Y-78785928D01*
X141567175Y-78835506D01*
X141329570Y-78952046D01*
X141119266Y-79112702D01*
X140944345Y-79311299D01*
X140852419Y-79469733D01*
X140852419Y-79250000D01*
X140842765Y-79151983D01*
X140814175Y-79057733D01*
X140767746Y-78970871D01*
X140705264Y-78894736D01*
X140629129Y-78832254D01*
X140542267Y-78785825D01*
X140448017Y-78757235D01*
X140350000Y-78747581D01*
X138650000Y-78747581D01*
X138551983Y-78757235D01*
X138457733Y-78785825D01*
X138370871Y-78832254D01*
X138294736Y-78894736D01*
X138232254Y-78970871D01*
X138185825Y-79057733D01*
X138157235Y-79151983D01*
X138147581Y-79250000D01*
X138147581Y-80900000D01*
X124100000Y-80900000D01*
X124100000Y-62865697D01*
X129696400Y-62865697D01*
X129696400Y-63134303D01*
X129748802Y-63397747D01*
X129851593Y-63645907D01*
X130000823Y-63869244D01*
X130190756Y-64059177D01*
X130414093Y-64208407D01*
X130562792Y-64270000D01*
X130414093Y-64331593D01*
X130190756Y-64480823D01*
X130000823Y-64670756D01*
X129851593Y-64894093D01*
X129748802Y-65142253D01*
X129696400Y-65405697D01*
X129696400Y-65674303D01*
X129748802Y-65937747D01*
X129851593Y-66185907D01*
X130000823Y-66409244D01*
X130190756Y-66599177D01*
X130414093Y-66748407D01*
X130562792Y-66810000D01*
X130414093Y-66871593D01*
X130190756Y-67020823D01*
X130000823Y-67210756D01*
X129851593Y-67434093D01*
X129748802Y-67682253D01*
X129696400Y-67945697D01*
X129696400Y-68214303D01*
X129748802Y-68477747D01*
X129851593Y-68725907D01*
X130000823Y-68949244D01*
X130190756Y-69139177D01*
X130414093Y-69288407D01*
X130562792Y-69350000D01*
X130414093Y-69411593D01*
X130190756Y-69560823D01*
X130000823Y-69750756D01*
X129851593Y-69974093D01*
X129748802Y-70222253D01*
X129696400Y-70485697D01*
X129696400Y-70754303D01*
X129748802Y-71017747D01*
X129851593Y-71265907D01*
X130000823Y-71489244D01*
X130190756Y-71679177D01*
X130414093Y-71828407D01*
X130562792Y-71890000D01*
X130414093Y-71951593D01*
X130190756Y-72100823D01*
X130000823Y-72290756D01*
X129851593Y-72514093D01*
X129748802Y-72762253D01*
X129696400Y-73025697D01*
X129696400Y-73294303D01*
X129748802Y-73557747D01*
X129851593Y-73805907D01*
X130000823Y-74029244D01*
X130190756Y-74219177D01*
X130414093Y-74368407D01*
X130562792Y-74430000D01*
X130414093Y-74491593D01*
X130190756Y-74640823D01*
X130000823Y-74830756D01*
X129851593Y-75054093D01*
X129748802Y-75302253D01*
X129696400Y-75565697D01*
X129696400Y-75834303D01*
X129748802Y-76097747D01*
X129851593Y-76345907D01*
X130000823Y-76569244D01*
X130190756Y-76759177D01*
X130414093Y-76908407D01*
X130662253Y-77011198D01*
X130925697Y-77063600D01*
X131194303Y-77063600D01*
X131457747Y-77011198D01*
X131705907Y-76908407D01*
X131929244Y-76759177D01*
X132119177Y-76569244D01*
X132233981Y-76397429D01*
X132233981Y-76563600D01*
X132243635Y-76661617D01*
X132272225Y-76755867D01*
X132318654Y-76842729D01*
X132381136Y-76918864D01*
X132457271Y-76981346D01*
X132544133Y-77027775D01*
X132638383Y-77056365D01*
X132736400Y-77066019D01*
X132900001Y-77066019D01*
X132900001Y-77265603D01*
X132896613Y-77300000D01*
X132910129Y-77437223D01*
X132950155Y-77569174D01*
X133015155Y-77690781D01*
X133080708Y-77770657D01*
X133102631Y-77797370D01*
X133129342Y-77819291D01*
X133780704Y-78470653D01*
X133802630Y-78497370D01*
X133909219Y-78584845D01*
X134030825Y-78649845D01*
X134162776Y-78689872D01*
X134265610Y-78700000D01*
X134265612Y-78700000D01*
X134299999Y-78703387D01*
X134334386Y-78700000D01*
X140405613Y-78700000D01*
X140440000Y-78703387D01*
X140474387Y-78700000D01*
X140474390Y-78700000D01*
X140577224Y-78689872D01*
X140709175Y-78649845D01*
X140830781Y-78584845D01*
X140937370Y-78497370D01*
X140959296Y-78470653D01*
X141717626Y-77712324D01*
X141907037Y-77750000D01*
X142172963Y-77750000D01*
X142433780Y-77698120D01*
X142679465Y-77596354D01*
X142900575Y-77448613D01*
X143088613Y-77260575D01*
X143236354Y-77039465D01*
X143338120Y-76793780D01*
X143390000Y-76532963D01*
X143390000Y-76267037D01*
X143338120Y-76006220D01*
X143236354Y-75760535D01*
X143088613Y-75539425D01*
X142900575Y-75351387D01*
X142679465Y-75203646D01*
X142433780Y-75101880D01*
X142172963Y-75050000D01*
X141907037Y-75050000D01*
X141646220Y-75101880D01*
X141400535Y-75203646D01*
X141179425Y-75351387D01*
X140991387Y-75539425D01*
X140852419Y-75747405D01*
X140852419Y-75550000D01*
X140842765Y-75451983D01*
X140814175Y-75357733D01*
X140767746Y-75270871D01*
X140705264Y-75194736D01*
X140629129Y-75132254D01*
X140542267Y-75085825D01*
X140448017Y-75057235D01*
X140350000Y-75047581D01*
X138650000Y-75047581D01*
X138551983Y-75057235D01*
X138457733Y-75085825D01*
X138370871Y-75132254D01*
X138294736Y-75194736D01*
X138232254Y-75270871D01*
X138185825Y-75357733D01*
X138157235Y-75451983D01*
X138147581Y-75550000D01*
X138147581Y-77250000D01*
X138152506Y-77300000D01*
X134589949Y-77300000D01*
X134355968Y-77066019D01*
X134463600Y-77066019D01*
X134561617Y-77056365D01*
X134655867Y-77027775D01*
X134742729Y-76981346D01*
X134818864Y-76918864D01*
X134881346Y-76842729D01*
X134927775Y-76755867D01*
X134956365Y-76661617D01*
X134966019Y-76563600D01*
X134966019Y-74836400D01*
X134956365Y-74738383D01*
X134927775Y-74644133D01*
X134881346Y-74557271D01*
X134818864Y-74481136D01*
X134742729Y-74418654D01*
X134655867Y-74372225D01*
X134561617Y-74343635D01*
X134463600Y-74333981D01*
X134280677Y-74333981D01*
X134395827Y-74267283D01*
X134596556Y-74090749D01*
X134758988Y-73878446D01*
X134876880Y-73638534D01*
X134927542Y-73471508D01*
X134834557Y-73260000D01*
X133700000Y-73260000D01*
X133700000Y-73280000D01*
X133500000Y-73280000D01*
X133500000Y-73260000D01*
X133480000Y-73260000D01*
X133480000Y-73060000D01*
X133500000Y-73060000D01*
X133500000Y-71925068D01*
X133419913Y-71890000D01*
X133500000Y-71854932D01*
X133500000Y-70720000D01*
X133700000Y-70720000D01*
X133700000Y-71854932D01*
X133780087Y-71890000D01*
X133700000Y-71925068D01*
X133700000Y-73060000D01*
X134834557Y-73060000D01*
X134899904Y-72911358D01*
X145000000Y-72911358D01*
X145000000Y-73088642D01*
X145034586Y-73262520D01*
X145102430Y-73426310D01*
X145200001Y-73572335D01*
X145200000Y-76727666D01*
X145102430Y-76873690D01*
X145034586Y-77037480D01*
X145000000Y-77211358D01*
X145000000Y-77388642D01*
X145034586Y-77562520D01*
X145102430Y-77726310D01*
X145200924Y-77873717D01*
X145326283Y-77999076D01*
X145473690Y-78097570D01*
X145637480Y-78165414D01*
X145811358Y-78200000D01*
X145988642Y-78200000D01*
X146162520Y-78165414D01*
X146326310Y-78097570D01*
X146473717Y-77999076D01*
X146599076Y-77873717D01*
X146638455Y-77814783D01*
X146760535Y-77896354D01*
X146938332Y-77970000D01*
X146760535Y-78043646D01*
X146539425Y-78191387D01*
X146351387Y-78379425D01*
X146203646Y-78600535D01*
X146101880Y-78846220D01*
X146050000Y-79107037D01*
X146050000Y-79372963D01*
X146101880Y-79633780D01*
X146203646Y-79879465D01*
X146351387Y-80100575D01*
X146539425Y-80288613D01*
X146760535Y-80436354D01*
X147006220Y-80538120D01*
X147267037Y-80590000D01*
X147532963Y-80590000D01*
X147793780Y-80538120D01*
X148039465Y-80436354D01*
X148260575Y-80288613D01*
X148448613Y-80100575D01*
X148596354Y-79879465D01*
X148698120Y-79633780D01*
X148750000Y-79372963D01*
X148750000Y-79107037D01*
X148698120Y-78846220D01*
X148596354Y-78600535D01*
X148448613Y-78379425D01*
X148260575Y-78191387D01*
X148039465Y-78043646D01*
X147861668Y-77970000D01*
X148039465Y-77896354D01*
X148260575Y-77748613D01*
X148448613Y-77560575D01*
X148596354Y-77339465D01*
X148698120Y-77093780D01*
X148750000Y-76832963D01*
X148750000Y-76567037D01*
X148698120Y-76306220D01*
X148596354Y-76060535D01*
X148448613Y-75839425D01*
X148260575Y-75651387D01*
X148039465Y-75503646D01*
X147861668Y-75430000D01*
X148039465Y-75356354D01*
X148260575Y-75208613D01*
X148448613Y-75020575D01*
X148596354Y-74799465D01*
X148698120Y-74553780D01*
X148750000Y-74292963D01*
X148750000Y-74027037D01*
X148698120Y-73766220D01*
X148596354Y-73520535D01*
X148448613Y-73299425D01*
X148260575Y-73111387D01*
X148039465Y-72963646D01*
X147851106Y-72885625D01*
X147959795Y-72848470D01*
X148188701Y-72715655D01*
X148387298Y-72540734D01*
X148547954Y-72330430D01*
X148664494Y-72092825D01*
X148714072Y-71929375D01*
X148620912Y-71720000D01*
X147500000Y-71720000D01*
X147500000Y-71740000D01*
X147300000Y-71740000D01*
X147300000Y-71720000D01*
X146179088Y-71720000D01*
X146085928Y-71929375D01*
X146135506Y-72092825D01*
X146155283Y-72133146D01*
X145988642Y-72100000D01*
X145811358Y-72100000D01*
X145637480Y-72134586D01*
X145473690Y-72202430D01*
X145326283Y-72300924D01*
X145200924Y-72426283D01*
X145102430Y-72573690D01*
X145034586Y-72737480D01*
X145000000Y-72911358D01*
X134899904Y-72911358D01*
X134927542Y-72848492D01*
X134876880Y-72681466D01*
X134758988Y-72441554D01*
X134596556Y-72229251D01*
X134395827Y-72052717D01*
X134164515Y-71918735D01*
X134080254Y-71890000D01*
X134164515Y-71861265D01*
X134395827Y-71727283D01*
X134596556Y-71550749D01*
X134758988Y-71338446D01*
X134876880Y-71098534D01*
X134927542Y-70931508D01*
X134834557Y-70720000D01*
X133700000Y-70720000D01*
X133500000Y-70720000D01*
X133480000Y-70720000D01*
X133480000Y-70520000D01*
X133500000Y-70520000D01*
X133500000Y-70500000D01*
X133700000Y-70500000D01*
X133700000Y-70520000D01*
X134834557Y-70520000D01*
X134927542Y-70308492D01*
X134876880Y-70141466D01*
X134758988Y-69901554D01*
X134596556Y-69689251D01*
X134395827Y-69512717D01*
X134164515Y-69378735D01*
X134089552Y-69353171D01*
X134245907Y-69288407D01*
X134469244Y-69139177D01*
X134659177Y-68949244D01*
X134808407Y-68725907D01*
X134911198Y-68477747D01*
X134963600Y-68214303D01*
X134963600Y-67945697D01*
X134911198Y-67682253D01*
X134808407Y-67434093D01*
X134659177Y-67210756D01*
X134469244Y-67020823D01*
X134245907Y-66871593D01*
X134089552Y-66806829D01*
X134164515Y-66781265D01*
X134395827Y-66647283D01*
X134596556Y-66470749D01*
X134758988Y-66258446D01*
X134876880Y-66018534D01*
X134927542Y-65851508D01*
X134834557Y-65640000D01*
X133700000Y-65640000D01*
X133700000Y-65660000D01*
X133500000Y-65660000D01*
X133500000Y-65640000D01*
X133480000Y-65640000D01*
X133480000Y-65440000D01*
X133500000Y-65440000D01*
X133500000Y-65420000D01*
X133700000Y-65420000D01*
X133700000Y-65440000D01*
X134834557Y-65440000D01*
X134927542Y-65228492D01*
X134876880Y-65061466D01*
X134758988Y-64821554D01*
X134596556Y-64609251D01*
X134395827Y-64432717D01*
X134164515Y-64298735D01*
X134089552Y-64273171D01*
X134245907Y-64208407D01*
X134469244Y-64059177D01*
X134659177Y-63869244D01*
X134808407Y-63645907D01*
X134911198Y-63397747D01*
X134963182Y-63136400D01*
X138133981Y-63136400D01*
X138133981Y-64863600D01*
X138143635Y-64961617D01*
X138172225Y-65055867D01*
X138218654Y-65142729D01*
X138281136Y-65218864D01*
X138357271Y-65281346D01*
X138444133Y-65327775D01*
X138538383Y-65356365D01*
X138636400Y-65366019D01*
X138802571Y-65366019D01*
X138630756Y-65480823D01*
X138440823Y-65670756D01*
X138291593Y-65894093D01*
X138188802Y-66142253D01*
X138136400Y-66405697D01*
X138136400Y-66674303D01*
X138188802Y-66937747D01*
X138291593Y-67185907D01*
X138440823Y-67409244D01*
X138630756Y-67599177D01*
X138854093Y-67748407D01*
X139002792Y-67810000D01*
X138854093Y-67871593D01*
X138630756Y-68020823D01*
X138440823Y-68210756D01*
X138291593Y-68434093D01*
X138188802Y-68682253D01*
X138136400Y-68945697D01*
X138136400Y-69214303D01*
X138188802Y-69477747D01*
X138291593Y-69725907D01*
X138440823Y-69949244D01*
X138630756Y-70139177D01*
X138854093Y-70288407D01*
X139102253Y-70391198D01*
X139365697Y-70443600D01*
X139634303Y-70443600D01*
X139897747Y-70391198D01*
X140145907Y-70288407D01*
X140369244Y-70139177D01*
X140559177Y-69949244D01*
X140708407Y-69725907D01*
X140770000Y-69577208D01*
X140831593Y-69725907D01*
X140980823Y-69949244D01*
X141170756Y-70139177D01*
X141394093Y-70288407D01*
X141642253Y-70391198D01*
X141905697Y-70443600D01*
X142174303Y-70443600D01*
X142437747Y-70391198D01*
X142685907Y-70288407D01*
X142909244Y-70139177D01*
X143099177Y-69949244D01*
X143248407Y-69725907D01*
X143351198Y-69477747D01*
X143403600Y-69214303D01*
X143403600Y-68945697D01*
X143351198Y-68682253D01*
X143248407Y-68434093D01*
X143099177Y-68210756D01*
X142909244Y-68020823D01*
X142685907Y-67871593D01*
X142529552Y-67806829D01*
X142604515Y-67781265D01*
X142835827Y-67647283D01*
X143036556Y-67470749D01*
X143198988Y-67258446D01*
X143316880Y-67018534D01*
X143367542Y-66851508D01*
X143274557Y-66640000D01*
X142140000Y-66640000D01*
X142140000Y-66660000D01*
X141940000Y-66660000D01*
X141940000Y-66640000D01*
X141920000Y-66640000D01*
X141920000Y-66440000D01*
X141940000Y-66440000D01*
X141940000Y-66420000D01*
X142140000Y-66420000D01*
X142140000Y-66440000D01*
X143274557Y-66440000D01*
X143367542Y-66228492D01*
X143316880Y-66061466D01*
X143198988Y-65821554D01*
X143036556Y-65609251D01*
X142835827Y-65432717D01*
X142604515Y-65298735D01*
X142529552Y-65273171D01*
X142685907Y-65208407D01*
X142909244Y-65059177D01*
X143099177Y-64869244D01*
X143248407Y-64645907D01*
X143351198Y-64397747D01*
X143403600Y-64134303D01*
X143403600Y-63865697D01*
X143351198Y-63602253D01*
X143248407Y-63354093D01*
X143112036Y-63150000D01*
X146047581Y-63150000D01*
X146047581Y-64850000D01*
X146057235Y-64948017D01*
X146085825Y-65042267D01*
X146132254Y-65129129D01*
X146194736Y-65205264D01*
X146270871Y-65267746D01*
X146357733Y-65314175D01*
X146451983Y-65342765D01*
X146550000Y-65352419D01*
X146747405Y-65352419D01*
X146539425Y-65491387D01*
X146351387Y-65679425D01*
X146203646Y-65900535D01*
X146101880Y-66146220D01*
X146050000Y-66407037D01*
X146050000Y-66672963D01*
X146101880Y-66933780D01*
X146203646Y-67179465D01*
X146351387Y-67400575D01*
X146539425Y-67588613D01*
X146760535Y-67736354D01*
X146938332Y-67810000D01*
X146760535Y-67883646D01*
X146539425Y-68031387D01*
X146351387Y-68219425D01*
X146203646Y-68440535D01*
X146101880Y-68686220D01*
X146050000Y-68947037D01*
X146050000Y-69212963D01*
X146101880Y-69473780D01*
X146203646Y-69719465D01*
X146351387Y-69940575D01*
X146539425Y-70128613D01*
X146760535Y-70276354D01*
X146948894Y-70354375D01*
X146840205Y-70391530D01*
X146611299Y-70524345D01*
X146412702Y-70699266D01*
X146252046Y-70909570D01*
X146135506Y-71147175D01*
X146085928Y-71310625D01*
X146179088Y-71520000D01*
X147300000Y-71520000D01*
X147300000Y-71500000D01*
X147500000Y-71500000D01*
X147500000Y-71520000D01*
X148620912Y-71520000D01*
X148714072Y-71310625D01*
X148664494Y-71147175D01*
X148547954Y-70909570D01*
X148387298Y-70699266D01*
X148188701Y-70524345D01*
X147959795Y-70391530D01*
X147851106Y-70354375D01*
X148039465Y-70276354D01*
X148260575Y-70128613D01*
X148448613Y-69940575D01*
X148596354Y-69719465D01*
X148698120Y-69473780D01*
X148750000Y-69212963D01*
X148750000Y-68947037D01*
X148698120Y-68686220D01*
X148596354Y-68440535D01*
X148448613Y-68219425D01*
X148260575Y-68031387D01*
X148039465Y-67883646D01*
X147861668Y-67810000D01*
X148039465Y-67736354D01*
X148260575Y-67588613D01*
X148448613Y-67400575D01*
X148596354Y-67179465D01*
X148698120Y-66933780D01*
X148750000Y-66672963D01*
X148750000Y-66407037D01*
X148698120Y-66146220D01*
X148596354Y-65900535D01*
X148448613Y-65679425D01*
X148260575Y-65491387D01*
X148052595Y-65352419D01*
X148250000Y-65352419D01*
X148348017Y-65342765D01*
X148442267Y-65314175D01*
X148529129Y-65267746D01*
X148605264Y-65205264D01*
X148667746Y-65129129D01*
X148714175Y-65042267D01*
X148742765Y-64948017D01*
X148752419Y-64850000D01*
X148752419Y-63150000D01*
X148742765Y-63051983D01*
X148714175Y-62957733D01*
X148667746Y-62870871D01*
X148605264Y-62794736D01*
X148529129Y-62732254D01*
X148442267Y-62685825D01*
X148348017Y-62657235D01*
X148250000Y-62647581D01*
X146550000Y-62647581D01*
X146451983Y-62657235D01*
X146357733Y-62685825D01*
X146270871Y-62732254D01*
X146194736Y-62794736D01*
X146132254Y-62870871D01*
X146085825Y-62957733D01*
X146057235Y-63051983D01*
X146047581Y-63150000D01*
X143112036Y-63150000D01*
X143099177Y-63130756D01*
X142909244Y-62940823D01*
X142685907Y-62791593D01*
X142437747Y-62688802D01*
X142174303Y-62636400D01*
X141905697Y-62636400D01*
X141642253Y-62688802D01*
X141394093Y-62791593D01*
X141170756Y-62940823D01*
X140980823Y-63130756D01*
X140866019Y-63302571D01*
X140866019Y-63136400D01*
X140856365Y-63038383D01*
X140827775Y-62944133D01*
X140781346Y-62857271D01*
X140718864Y-62781136D01*
X140642729Y-62718654D01*
X140555867Y-62672225D01*
X140461617Y-62643635D01*
X140363600Y-62633981D01*
X138636400Y-62633981D01*
X138538383Y-62643635D01*
X138444133Y-62672225D01*
X138357271Y-62718654D01*
X138281136Y-62781136D01*
X138218654Y-62857271D01*
X138172225Y-62944133D01*
X138143635Y-63038383D01*
X138133981Y-63136400D01*
X134963182Y-63136400D01*
X134963600Y-63134303D01*
X134963600Y-62865697D01*
X134911198Y-62602253D01*
X134808407Y-62354093D01*
X134659177Y-62130756D01*
X134469244Y-61940823D01*
X134245907Y-61791593D01*
X133997747Y-61688802D01*
X133734303Y-61636400D01*
X133465697Y-61636400D01*
X133202253Y-61688802D01*
X132954093Y-61791593D01*
X132730756Y-61940823D01*
X132540823Y-62130756D01*
X132391593Y-62354093D01*
X132330000Y-62502792D01*
X132268407Y-62354093D01*
X132119177Y-62130756D01*
X131929244Y-61940823D01*
X131705907Y-61791593D01*
X131457747Y-61688802D01*
X131194303Y-61636400D01*
X130925697Y-61636400D01*
X130662253Y-61688802D01*
X130414093Y-61791593D01*
X130190756Y-61940823D01*
X130000823Y-62130756D01*
X129851593Y-62354093D01*
X129748802Y-62602253D01*
X129696400Y-62865697D01*
X124100000Y-62865697D01*
X124100000Y-57100000D01*
X148900000Y-57100000D01*
X148900000Y-80563674D01*
G37*
X148900000Y-80563674D02*
X148754399Y-80742198D01*
X148563649Y-80900000D01*
X143125703Y-80900000D01*
X143135655Y-80888701D01*
X143268470Y-80659795D01*
X143354076Y-80409376D01*
X143261295Y-80200000D01*
X142140000Y-80200000D01*
X142140000Y-80220000D01*
X141940000Y-80220000D01*
X141940000Y-80200000D01*
X141920000Y-80200000D01*
X141920000Y-80000000D01*
X141940000Y-80000000D01*
X141940000Y-78879088D01*
X142140000Y-78879088D01*
X142140000Y-80000000D01*
X143261295Y-80000000D01*
X143354076Y-79790624D01*
X143268470Y-79540205D01*
X143135655Y-79311299D01*
X142960734Y-79112702D01*
X142750430Y-78952046D01*
X142512825Y-78835506D01*
X142349375Y-78785928D01*
X142140000Y-78879088D01*
X141940000Y-78879088D01*
X141730625Y-78785928D01*
X141567175Y-78835506D01*
X141329570Y-78952046D01*
X141119266Y-79112702D01*
X140944345Y-79311299D01*
X140852419Y-79469733D01*
X140852419Y-79250000D01*
X140842765Y-79151983D01*
X140814175Y-79057733D01*
X140767746Y-78970871D01*
X140705264Y-78894736D01*
X140629129Y-78832254D01*
X140542267Y-78785825D01*
X140448017Y-78757235D01*
X140350000Y-78747581D01*
X138650000Y-78747581D01*
X138551983Y-78757235D01*
X138457733Y-78785825D01*
X138370871Y-78832254D01*
X138294736Y-78894736D01*
X138232254Y-78970871D01*
X138185825Y-79057733D01*
X138157235Y-79151983D01*
X138147581Y-79250000D01*
X138147581Y-80900000D01*
X124100000Y-80900000D01*
X124100000Y-62865697D01*
X129696400Y-62865697D01*
X129696400Y-63134303D01*
X129748802Y-63397747D01*
X129851593Y-63645907D01*
X130000823Y-63869244D01*
X130190756Y-64059177D01*
X130414093Y-64208407D01*
X130562792Y-64270000D01*
X130414093Y-64331593D01*
X130190756Y-64480823D01*
X130000823Y-64670756D01*
X129851593Y-64894093D01*
X129748802Y-65142253D01*
X129696400Y-65405697D01*
X129696400Y-65674303D01*
X129748802Y-65937747D01*
X129851593Y-66185907D01*
X130000823Y-66409244D01*
X130190756Y-66599177D01*
X130414093Y-66748407D01*
X130562792Y-66810000D01*
X130414093Y-66871593D01*
X130190756Y-67020823D01*
X130000823Y-67210756D01*
X129851593Y-67434093D01*
X129748802Y-67682253D01*
X129696400Y-67945697D01*
X129696400Y-68214303D01*
X129748802Y-68477747D01*
X129851593Y-68725907D01*
X130000823Y-68949244D01*
X130190756Y-69139177D01*
X130414093Y-69288407D01*
X130562792Y-69350000D01*
X130414093Y-69411593D01*
X130190756Y-69560823D01*
X130000823Y-69750756D01*
X129851593Y-69974093D01*
X129748802Y-70222253D01*
X129696400Y-70485697D01*
X129696400Y-70754303D01*
X129748802Y-71017747D01*
X129851593Y-71265907D01*
X130000823Y-71489244D01*
X130190756Y-71679177D01*
X130414093Y-71828407D01*
X130562792Y-71890000D01*
X130414093Y-71951593D01*
X130190756Y-72100823D01*
X130000823Y-72290756D01*
X129851593Y-72514093D01*
X129748802Y-72762253D01*
X129696400Y-73025697D01*
X129696400Y-73294303D01*
X129748802Y-73557747D01*
X129851593Y-73805907D01*
X130000823Y-74029244D01*
X130190756Y-74219177D01*
X130414093Y-74368407D01*
X130562792Y-74430000D01*
X130414093Y-74491593D01*
X130190756Y-74640823D01*
X130000823Y-74830756D01*
X129851593Y-75054093D01*
X129748802Y-75302253D01*
X129696400Y-75565697D01*
X129696400Y-75834303D01*
X129748802Y-76097747D01*
X129851593Y-76345907D01*
X130000823Y-76569244D01*
X130190756Y-76759177D01*
X130414093Y-76908407D01*
X130662253Y-77011198D01*
X130925697Y-77063600D01*
X131194303Y-77063600D01*
X131457747Y-77011198D01*
X131705907Y-76908407D01*
X131929244Y-76759177D01*
X132119177Y-76569244D01*
X132233981Y-76397429D01*
X132233981Y-76563600D01*
X132243635Y-76661617D01*
X132272225Y-76755867D01*
X132318654Y-76842729D01*
X132381136Y-76918864D01*
X132457271Y-76981346D01*
X132544133Y-77027775D01*
X132638383Y-77056365D01*
X132736400Y-77066019D01*
X132900001Y-77066019D01*
X132900001Y-77265603D01*
X132896613Y-77300000D01*
X132910129Y-77437223D01*
X132950155Y-77569174D01*
X133015155Y-77690781D01*
X133080708Y-77770657D01*
X133102631Y-77797370D01*
X133129342Y-77819291D01*
X133780704Y-78470653D01*
X133802630Y-78497370D01*
X133909219Y-78584845D01*
X134030825Y-78649845D01*
X134162776Y-78689872D01*
X134265610Y-78700000D01*
X134265612Y-78700000D01*
X134299999Y-78703387D01*
X134334386Y-78700000D01*
X140405613Y-78700000D01*
X140440000Y-78703387D01*
X140474387Y-78700000D01*
X140474390Y-78700000D01*
X140577224Y-78689872D01*
X140709175Y-78649845D01*
X140830781Y-78584845D01*
X140937370Y-78497370D01*
X140959296Y-78470653D01*
X141717626Y-77712324D01*
X141907037Y-77750000D01*
X142172963Y-77750000D01*
X142433780Y-77698120D01*
X142679465Y-77596354D01*
X142900575Y-77448613D01*
X143088613Y-77260575D01*
X143236354Y-77039465D01*
X143338120Y-76793780D01*
X143390000Y-76532963D01*
X143390000Y-76267037D01*
X143338120Y-76006220D01*
X143236354Y-75760535D01*
X143088613Y-75539425D01*
X142900575Y-75351387D01*
X142679465Y-75203646D01*
X142433780Y-75101880D01*
X142172963Y-75050000D01*
X141907037Y-75050000D01*
X141646220Y-75101880D01*
X141400535Y-75203646D01*
X141179425Y-75351387D01*
X140991387Y-75539425D01*
X140852419Y-75747405D01*
X140852419Y-75550000D01*
X140842765Y-75451983D01*
X140814175Y-75357733D01*
X140767746Y-75270871D01*
X140705264Y-75194736D01*
X140629129Y-75132254D01*
X140542267Y-75085825D01*
X140448017Y-75057235D01*
X140350000Y-75047581D01*
X138650000Y-75047581D01*
X138551983Y-75057235D01*
X138457733Y-75085825D01*
X138370871Y-75132254D01*
X138294736Y-75194736D01*
X138232254Y-75270871D01*
X138185825Y-75357733D01*
X138157235Y-75451983D01*
X138147581Y-75550000D01*
X138147581Y-77250000D01*
X138152506Y-77300000D01*
X134589949Y-77300000D01*
X134355968Y-77066019D01*
X134463600Y-77066019D01*
X134561617Y-77056365D01*
X134655867Y-77027775D01*
X134742729Y-76981346D01*
X134818864Y-76918864D01*
X134881346Y-76842729D01*
X134927775Y-76755867D01*
X134956365Y-76661617D01*
X134966019Y-76563600D01*
X134966019Y-74836400D01*
X134956365Y-74738383D01*
X134927775Y-74644133D01*
X134881346Y-74557271D01*
X134818864Y-74481136D01*
X134742729Y-74418654D01*
X134655867Y-74372225D01*
X134561617Y-74343635D01*
X134463600Y-74333981D01*
X134280677Y-74333981D01*
X134395827Y-74267283D01*
X134596556Y-74090749D01*
X134758988Y-73878446D01*
X134876880Y-73638534D01*
X134927542Y-73471508D01*
X134834557Y-73260000D01*
X133700000Y-73260000D01*
X133700000Y-73280000D01*
X133500000Y-73280000D01*
X133500000Y-73260000D01*
X133480000Y-73260000D01*
X133480000Y-73060000D01*
X133500000Y-73060000D01*
X133500000Y-71925068D01*
X133419913Y-71890000D01*
X133500000Y-71854932D01*
X133500000Y-70720000D01*
X133700000Y-70720000D01*
X133700000Y-71854932D01*
X133780087Y-71890000D01*
X133700000Y-71925068D01*
X133700000Y-73060000D01*
X134834557Y-73060000D01*
X134899904Y-72911358D01*
X145000000Y-72911358D01*
X145000000Y-73088642D01*
X145034586Y-73262520D01*
X145102430Y-73426310D01*
X145200001Y-73572335D01*
X145200000Y-76727666D01*
X145102430Y-76873690D01*
X145034586Y-77037480D01*
X145000000Y-77211358D01*
X145000000Y-77388642D01*
X145034586Y-77562520D01*
X145102430Y-77726310D01*
X145200924Y-77873717D01*
X145326283Y-77999076D01*
X145473690Y-78097570D01*
X145637480Y-78165414D01*
X145811358Y-78200000D01*
X145988642Y-78200000D01*
X146162520Y-78165414D01*
X146326310Y-78097570D01*
X146473717Y-77999076D01*
X146599076Y-77873717D01*
X146638455Y-77814783D01*
X146760535Y-77896354D01*
X146938332Y-77970000D01*
X146760535Y-78043646D01*
X146539425Y-78191387D01*
X146351387Y-78379425D01*
X146203646Y-78600535D01*
X146101880Y-78846220D01*
X146050000Y-79107037D01*
X146050000Y-79372963D01*
X146101880Y-79633780D01*
X146203646Y-79879465D01*
X146351387Y-80100575D01*
X146539425Y-80288613D01*
X146760535Y-80436354D01*
X147006220Y-80538120D01*
X147267037Y-80590000D01*
X147532963Y-80590000D01*
X147793780Y-80538120D01*
X148039465Y-80436354D01*
X148260575Y-80288613D01*
X148448613Y-80100575D01*
X148596354Y-79879465D01*
X148698120Y-79633780D01*
X148750000Y-79372963D01*
X148750000Y-79107037D01*
X148698120Y-78846220D01*
X148596354Y-78600535D01*
X148448613Y-78379425D01*
X148260575Y-78191387D01*
X148039465Y-78043646D01*
X147861668Y-77970000D01*
X148039465Y-77896354D01*
X148260575Y-77748613D01*
X148448613Y-77560575D01*
X148596354Y-77339465D01*
X148698120Y-77093780D01*
X148750000Y-76832963D01*
X148750000Y-76567037D01*
X148698120Y-76306220D01*
X148596354Y-76060535D01*
X148448613Y-75839425D01*
X148260575Y-75651387D01*
X148039465Y-75503646D01*
X147861668Y-75430000D01*
X148039465Y-75356354D01*
X148260575Y-75208613D01*
X148448613Y-75020575D01*
X148596354Y-74799465D01*
X148698120Y-74553780D01*
X148750000Y-74292963D01*
X148750000Y-74027037D01*
X148698120Y-73766220D01*
X148596354Y-73520535D01*
X148448613Y-73299425D01*
X148260575Y-73111387D01*
X148039465Y-72963646D01*
X147851106Y-72885625D01*
X147959795Y-72848470D01*
X148188701Y-72715655D01*
X148387298Y-72540734D01*
X148547954Y-72330430D01*
X148664494Y-72092825D01*
X148714072Y-71929375D01*
X148620912Y-71720000D01*
X147500000Y-71720000D01*
X147500000Y-71740000D01*
X147300000Y-71740000D01*
X147300000Y-71720000D01*
X146179088Y-71720000D01*
X146085928Y-71929375D01*
X146135506Y-72092825D01*
X146155283Y-72133146D01*
X145988642Y-72100000D01*
X145811358Y-72100000D01*
X145637480Y-72134586D01*
X145473690Y-72202430D01*
X145326283Y-72300924D01*
X145200924Y-72426283D01*
X145102430Y-72573690D01*
X145034586Y-72737480D01*
X145000000Y-72911358D01*
X134899904Y-72911358D01*
X134927542Y-72848492D01*
X134876880Y-72681466D01*
X134758988Y-72441554D01*
X134596556Y-72229251D01*
X134395827Y-72052717D01*
X134164515Y-71918735D01*
X134080254Y-71890000D01*
X134164515Y-71861265D01*
X134395827Y-71727283D01*
X134596556Y-71550749D01*
X134758988Y-71338446D01*
X134876880Y-71098534D01*
X134927542Y-70931508D01*
X134834557Y-70720000D01*
X133700000Y-70720000D01*
X133500000Y-70720000D01*
X133480000Y-70720000D01*
X133480000Y-70520000D01*
X133500000Y-70520000D01*
X133500000Y-70500000D01*
X133700000Y-70500000D01*
X133700000Y-70520000D01*
X134834557Y-70520000D01*
X134927542Y-70308492D01*
X134876880Y-70141466D01*
X134758988Y-69901554D01*
X134596556Y-69689251D01*
X134395827Y-69512717D01*
X134164515Y-69378735D01*
X134089552Y-69353171D01*
X134245907Y-69288407D01*
X134469244Y-69139177D01*
X134659177Y-68949244D01*
X134808407Y-68725907D01*
X134911198Y-68477747D01*
X134963600Y-68214303D01*
X134963600Y-67945697D01*
X134911198Y-67682253D01*
X134808407Y-67434093D01*
X134659177Y-67210756D01*
X134469244Y-67020823D01*
X134245907Y-66871593D01*
X134089552Y-66806829D01*
X134164515Y-66781265D01*
X134395827Y-66647283D01*
X134596556Y-66470749D01*
X134758988Y-66258446D01*
X134876880Y-66018534D01*
X134927542Y-65851508D01*
X134834557Y-65640000D01*
X133700000Y-65640000D01*
X133700000Y-65660000D01*
X133500000Y-65660000D01*
X133500000Y-65640000D01*
X133480000Y-65640000D01*
X133480000Y-65440000D01*
X133500000Y-65440000D01*
X133500000Y-65420000D01*
X133700000Y-65420000D01*
X133700000Y-65440000D01*
X134834557Y-65440000D01*
X134927542Y-65228492D01*
X134876880Y-65061466D01*
X134758988Y-64821554D01*
X134596556Y-64609251D01*
X134395827Y-64432717D01*
X134164515Y-64298735D01*
X134089552Y-64273171D01*
X134245907Y-64208407D01*
X134469244Y-64059177D01*
X134659177Y-63869244D01*
X134808407Y-63645907D01*
X134911198Y-63397747D01*
X134963182Y-63136400D01*
X138133981Y-63136400D01*
X138133981Y-64863600D01*
X138143635Y-64961617D01*
X138172225Y-65055867D01*
X138218654Y-65142729D01*
X138281136Y-65218864D01*
X138357271Y-65281346D01*
X138444133Y-65327775D01*
X138538383Y-65356365D01*
X138636400Y-65366019D01*
X138802571Y-65366019D01*
X138630756Y-65480823D01*
X138440823Y-65670756D01*
X138291593Y-65894093D01*
X138188802Y-66142253D01*
X138136400Y-66405697D01*
X138136400Y-66674303D01*
X138188802Y-66937747D01*
X138291593Y-67185907D01*
X138440823Y-67409244D01*
X138630756Y-67599177D01*
X138854093Y-67748407D01*
X139002792Y-67810000D01*
X138854093Y-67871593D01*
X138630756Y-68020823D01*
X138440823Y-68210756D01*
X138291593Y-68434093D01*
X138188802Y-68682253D01*
X138136400Y-68945697D01*
X138136400Y-69214303D01*
X138188802Y-69477747D01*
X138291593Y-69725907D01*
X138440823Y-69949244D01*
X138630756Y-70139177D01*
X138854093Y-70288407D01*
X139102253Y-70391198D01*
X139365697Y-70443600D01*
X139634303Y-70443600D01*
X139897747Y-70391198D01*
X140145907Y-70288407D01*
X140369244Y-70139177D01*
X140559177Y-69949244D01*
X140708407Y-69725907D01*
X140770000Y-69577208D01*
X140831593Y-69725907D01*
X140980823Y-69949244D01*
X141170756Y-70139177D01*
X141394093Y-70288407D01*
X141642253Y-70391198D01*
X141905697Y-70443600D01*
X142174303Y-70443600D01*
X142437747Y-70391198D01*
X142685907Y-70288407D01*
X142909244Y-70139177D01*
X143099177Y-69949244D01*
X143248407Y-69725907D01*
X143351198Y-69477747D01*
X143403600Y-69214303D01*
X143403600Y-68945697D01*
X143351198Y-68682253D01*
X143248407Y-68434093D01*
X143099177Y-68210756D01*
X142909244Y-68020823D01*
X142685907Y-67871593D01*
X142529552Y-67806829D01*
X142604515Y-67781265D01*
X142835827Y-67647283D01*
X143036556Y-67470749D01*
X143198988Y-67258446D01*
X143316880Y-67018534D01*
X143367542Y-66851508D01*
X143274557Y-66640000D01*
X142140000Y-66640000D01*
X142140000Y-66660000D01*
X141940000Y-66660000D01*
X141940000Y-66640000D01*
X141920000Y-66640000D01*
X141920000Y-66440000D01*
X141940000Y-66440000D01*
X141940000Y-66420000D01*
X142140000Y-66420000D01*
X142140000Y-66440000D01*
X143274557Y-66440000D01*
X143367542Y-66228492D01*
X143316880Y-66061466D01*
X143198988Y-65821554D01*
X143036556Y-65609251D01*
X142835827Y-65432717D01*
X142604515Y-65298735D01*
X142529552Y-65273171D01*
X142685907Y-65208407D01*
X142909244Y-65059177D01*
X143099177Y-64869244D01*
X143248407Y-64645907D01*
X143351198Y-64397747D01*
X143403600Y-64134303D01*
X143403600Y-63865697D01*
X143351198Y-63602253D01*
X143248407Y-63354093D01*
X143112036Y-63150000D01*
X146047581Y-63150000D01*
X146047581Y-64850000D01*
X146057235Y-64948017D01*
X146085825Y-65042267D01*
X146132254Y-65129129D01*
X146194736Y-65205264D01*
X146270871Y-65267746D01*
X146357733Y-65314175D01*
X146451983Y-65342765D01*
X146550000Y-65352419D01*
X146747405Y-65352419D01*
X146539425Y-65491387D01*
X146351387Y-65679425D01*
X146203646Y-65900535D01*
X146101880Y-66146220D01*
X146050000Y-66407037D01*
X146050000Y-66672963D01*
X146101880Y-66933780D01*
X146203646Y-67179465D01*
X146351387Y-67400575D01*
X146539425Y-67588613D01*
X146760535Y-67736354D01*
X146938332Y-67810000D01*
X146760535Y-67883646D01*
X146539425Y-68031387D01*
X146351387Y-68219425D01*
X146203646Y-68440535D01*
X146101880Y-68686220D01*
X146050000Y-68947037D01*
X146050000Y-69212963D01*
X146101880Y-69473780D01*
X146203646Y-69719465D01*
X146351387Y-69940575D01*
X146539425Y-70128613D01*
X146760535Y-70276354D01*
X146948894Y-70354375D01*
X146840205Y-70391530D01*
X146611299Y-70524345D01*
X146412702Y-70699266D01*
X146252046Y-70909570D01*
X146135506Y-71147175D01*
X146085928Y-71310625D01*
X146179088Y-71520000D01*
X147300000Y-71520000D01*
X147300000Y-71500000D01*
X147500000Y-71500000D01*
X147500000Y-71520000D01*
X148620912Y-71520000D01*
X148714072Y-71310625D01*
X148664494Y-71147175D01*
X148547954Y-70909570D01*
X148387298Y-70699266D01*
X148188701Y-70524345D01*
X147959795Y-70391530D01*
X147851106Y-70354375D01*
X148039465Y-70276354D01*
X148260575Y-70128613D01*
X148448613Y-69940575D01*
X148596354Y-69719465D01*
X148698120Y-69473780D01*
X148750000Y-69212963D01*
X148750000Y-68947037D01*
X148698120Y-68686220D01*
X148596354Y-68440535D01*
X148448613Y-68219425D01*
X148260575Y-68031387D01*
X148039465Y-67883646D01*
X147861668Y-67810000D01*
X148039465Y-67736354D01*
X148260575Y-67588613D01*
X148448613Y-67400575D01*
X148596354Y-67179465D01*
X148698120Y-66933780D01*
X148750000Y-66672963D01*
X148750000Y-66407037D01*
X148698120Y-66146220D01*
X148596354Y-65900535D01*
X148448613Y-65679425D01*
X148260575Y-65491387D01*
X148052595Y-65352419D01*
X148250000Y-65352419D01*
X148348017Y-65342765D01*
X148442267Y-65314175D01*
X148529129Y-65267746D01*
X148605264Y-65205264D01*
X148667746Y-65129129D01*
X148714175Y-65042267D01*
X148742765Y-64948017D01*
X148752419Y-64850000D01*
X148752419Y-63150000D01*
X148742765Y-63051983D01*
X148714175Y-62957733D01*
X148667746Y-62870871D01*
X148605264Y-62794736D01*
X148529129Y-62732254D01*
X148442267Y-62685825D01*
X148348017Y-62657235D01*
X148250000Y-62647581D01*
X146550000Y-62647581D01*
X146451983Y-62657235D01*
X146357733Y-62685825D01*
X146270871Y-62732254D01*
X146194736Y-62794736D01*
X146132254Y-62870871D01*
X146085825Y-62957733D01*
X146057235Y-63051983D01*
X146047581Y-63150000D01*
X143112036Y-63150000D01*
X143099177Y-63130756D01*
X142909244Y-62940823D01*
X142685907Y-62791593D01*
X142437747Y-62688802D01*
X142174303Y-62636400D01*
X141905697Y-62636400D01*
X141642253Y-62688802D01*
X141394093Y-62791593D01*
X141170756Y-62940823D01*
X140980823Y-63130756D01*
X140866019Y-63302571D01*
X140866019Y-63136400D01*
X140856365Y-63038383D01*
X140827775Y-62944133D01*
X140781346Y-62857271D01*
X140718864Y-62781136D01*
X140642729Y-62718654D01*
X140555867Y-62672225D01*
X140461617Y-62643635D01*
X140363600Y-62633981D01*
X138636400Y-62633981D01*
X138538383Y-62643635D01*
X138444133Y-62672225D01*
X138357271Y-62718654D01*
X138281136Y-62781136D01*
X138218654Y-62857271D01*
X138172225Y-62944133D01*
X138143635Y-63038383D01*
X138133981Y-63136400D01*
X134963182Y-63136400D01*
X134963600Y-63134303D01*
X134963600Y-62865697D01*
X134911198Y-62602253D01*
X134808407Y-62354093D01*
X134659177Y-62130756D01*
X134469244Y-61940823D01*
X134245907Y-61791593D01*
X133997747Y-61688802D01*
X133734303Y-61636400D01*
X133465697Y-61636400D01*
X133202253Y-61688802D01*
X132954093Y-61791593D01*
X132730756Y-61940823D01*
X132540823Y-62130756D01*
X132391593Y-62354093D01*
X132330000Y-62502792D01*
X132268407Y-62354093D01*
X132119177Y-62130756D01*
X131929244Y-61940823D01*
X131705907Y-61791593D01*
X131457747Y-61688802D01*
X131194303Y-61636400D01*
X130925697Y-61636400D01*
X130662253Y-61688802D01*
X130414093Y-61791593D01*
X130190756Y-61940823D01*
X130000823Y-62130756D01*
X129851593Y-62354093D01*
X129748802Y-62602253D01*
X129696400Y-62865697D01*
X124100000Y-62865697D01*
X124100000Y-57100000D01*
X148900000Y-57100000D01*
X148900000Y-80563674D01*
M02*
