M48
; DRILL file {KiCad 5.1.5+dfsg1-2build2} date Thu 23 Jul 2020 00:46:57 +04
; FORMAT={-:-/ absolute / inch / decimal}
; #@! TF.CreationDate,2020-07-23T00:46:57+04:00
; #@! TF.GenerationSoftware,Kicad,Pcbnew,5.1.5+dfsg1-2build2
FMAT,2
INCH
T1C0.0157
T2C0.0197
T3C0.0394
T4C0.0400
%
G90
G05
T1
X5.7441Y-2.874
X5.7441Y-3.0433
T2
X4.9213Y-2.3622
X4.9213Y-2.5591
X4.9213Y-2.7559
X4.9213Y-2.9528
X4.9213Y-3.1496
X5.1181Y-2.3622
X5.1378Y-3.0512
X5.2165Y-3.1299
X5.315Y-2.3622
X5.3543Y-2.5827
X5.3543Y-2.7362
X5.3543Y-2.874
X5.3543Y-3.0118
X5.4134Y-3.1299
X5.5118Y-2.3622
X5.5315Y-2.7953
X5.5709Y-2.9331
X5.6496Y-2.6772
X5.6496Y-2.9331
X5.6693Y-3.1496
X5.7087Y-2.3622
X5.7283Y-3.1299
T3
X5.4921Y-3.0079
X5.5921Y-3.0079
X5.8031Y-2.5197
X5.8031Y-2.6197
X5.8031Y-2.7197
X5.8031Y-2.8197
X5.8031Y-2.9197
X5.8031Y-3.0197
X5.8031Y-3.1197
X5.4921Y-3.1535
X5.5921Y-3.1535
T4
X5.1598Y-2.4803
X5.1598Y-2.5803
X5.1598Y-2.6803
X5.1598Y-2.7803
X5.1598Y-2.8803
X5.1598Y-2.9803
X5.2598Y-2.4803
X5.2598Y-2.5803
X5.2598Y-2.6803
X5.2598Y-2.7803
X5.2598Y-2.8803
X5.2598Y-2.9803
X5.4921Y-2.5197
X5.4921Y-2.6197
X5.4921Y-2.7197
X5.5921Y-2.5197
X5.5921Y-2.6197
X5.5921Y-2.7197
T0
M30
