G04 #@! TF.GenerationSoftware,KiCad,Pcbnew,5.1.5+dfsg1-2build2*
G04 #@! TF.CreationDate,2020-07-23T00:46:52+04:00*
G04 #@! TF.ProjectId,RailLink_Elsys_Adapter,5261696c-4c69-46e6-9b5f-456c7379735f,rev?*
G04 #@! TF.SameCoordinates,Original*
G04 #@! TF.FileFunction,Legend,Bot*
G04 #@! TF.FilePolarity,Positive*
%FSLAX46Y46*%
G04 Gerber Fmt 4.6, Leading zero omitted, Abs format (unit mm)*
G04 Created by KiCad (PCBNEW 5.1.5+dfsg1-2build2) date 2020-07-23 00:46:52*
%MOMM*%
%LPD*%
G04 APERTURE LIST*
%ADD10C,0.050000*%
%ADD11O,1.802000X1.802000*%
%ADD12R,1.802000X1.802000*%
%ADD13R,1.829200X1.829200*%
%ADD14O,1.829200X1.829200*%
G04 APERTURE END LIST*
D10*
X125000000Y-82000000D02*
G75*
G02X122000000Y-79000000I0J3000000D01*
G01*
X150000000Y-79000000D02*
G75*
G02X147000000Y-82000000I-3000000J0D01*
G01*
X147000000Y-55000000D02*
G75*
G02X150000000Y-58000000I0J-3000000D01*
G01*
X122000000Y-58000000D02*
G75*
G02X125000000Y-55000000I3000000J0D01*
G01*
X122000000Y-79000000D02*
X122000000Y-58000000D01*
X147000000Y-82000000D02*
X125000000Y-82000000D01*
X150000000Y-58000000D02*
X150000000Y-79000000D01*
X125000000Y-55000000D02*
X147000000Y-55000000D01*
%LPC*%
D11*
X142040000Y-76400000D03*
D12*
X139500000Y-76400000D03*
D11*
X147400000Y-79240000D03*
X147400000Y-76700000D03*
X147400000Y-74160000D03*
X147400000Y-71620000D03*
X147400000Y-69080000D03*
X147400000Y-66540000D03*
D12*
X147400000Y-64000000D03*
D11*
X142040000Y-80100000D03*
D12*
X139500000Y-80100000D03*
D13*
X133600000Y-75700000D03*
D14*
X131060000Y-75700000D03*
X133600000Y-73160000D03*
X131060000Y-73160000D03*
X133600000Y-70620000D03*
X131060000Y-70620000D03*
X133600000Y-68080000D03*
X131060000Y-68080000D03*
X133600000Y-65540000D03*
X131060000Y-65540000D03*
X133600000Y-63000000D03*
X131060000Y-63000000D03*
X142040000Y-69080000D03*
X139500000Y-69080000D03*
X142040000Y-66540000D03*
X139500000Y-66540000D03*
X142040000Y-64000000D03*
D13*
X139500000Y-64000000D03*
M02*
